<?xml version="1.0" encoding="iso-8859-1"?>
<!-- Generator: Adobe Illustrator 19.0.0, SVG Export Plug-In . SVG Version: 6.00 Build 0)  -->
<svg version="1.1" id="Capa_1" xmlns="http://www.w3.org/2000/svg" xmlns:xlink="http://www.w3.org/1999/xlink" x="0px" y="0px"
	 viewBox="0 0 512 512" style="enable-background:new 0 0 512 512;" xml:space="preserve">
<g>
	<g>
		<circle cx="46.035" cy="76.014" r="14.999"/>
	</g>
</g>
<g>
	<g>
		<circle cx="436.006" cy="46.016" r="14.999"/>
	</g>
</g>
<g>
	<g>
		<path d="M467.002,300.996h-95.851c1.406-30.525-4.922-60.762-18.358-88.07l73.338-36.668
			c10.753-5.377,18.768-14.617,22.568-26.019c3.801-11.402,2.933-23.603-2.446-34.36c-11.102-22.178-38.181-31.205-60.372-20.12
			l-54.931,27.465c0.027-0.737,0.061-1.474,0.061-2.215c0-33.082-26.914-59.996-59.996-59.996
			c-33.082,0-59.996,26.914-59.996,59.996c0,3.416,0.296,6.779,0.848,10.073l-34.904-8.726c-15.568-3.917-31.255,0.785-42.17,11.265
			l-22.057-11.028c-2.083-1.042-4.379-1.583-6.708-1.583H45.034c-24.811,0-44.997,20.186-44.997,44.997s20.185,44.997,44.997,44.997
			c8.27,0,14.999,6.729,14.999,14.999s-6.729,14.999-14.999,14.999c-37.83,0-58.584,43.891-35.105,73.147
			c26.919,33.54,20.107,51.833,20.107,61.843c0,8.283,6.716,14.999,14.999,14.999s14.999-6.716,14.999-14.999
			c0-8.397,8.183-37.143-26.71-80.619c-7.622-9.498-1.13-24.373,11.711-24.373c24.811,0,44.997-20.185,44.997-44.997
			c0-24.811-20.185-44.997-44.997-44.997c-8.27,0-14.999-6.729-14.999-14.999c0-8.27,6.729-14.999,14.999-14.999h57.455
			l18.893,9.446c-2.777,22.25,11.452,43.644,33.727,49.207l106.624,26.649c14.581,18.571,21.321,41.46,19.214,64.685h-41.303
			l-78.651-52.434c-20.691-13.811-48.584-8.265-62.405,12.478c-13.787,20.691-8.21,48.607,12.481,62.395l89.993,59.996
			c7.416,4.944,16.047,7.557,24.959,7.557c10.915,0,229.03,0,240.982,0c24.811,0,44.997-20.186,44.997-44.997
			C512,321.18,491.813,300.996,467.002,300.996z M399.292,122.593c7.398-3.698,16.433-0.687,20.134,6.706
			c3.699,7.399,0.689,16.429-6.71,20.128l-75.398,37.699c-5.787-8.058-12.278-15.728-19.467-22.916
			c-0.201-0.202-0.418-0.386-0.623-0.584L399.292,122.593z M271.017,91.012c16.541,0,29.998,13.457,29.998,29.998
			c0,8.375-3.473,16.296-9.577,21.972l-10.657,5.329l-32.914-8.228c-4.434-5.354-6.848-12.003-6.848-19.073
			C241.019,104.469,254.476,91.012,271.017,91.012z M333.407,341.235l-3.167,9.501c-2.04,6.134-7.757,10.255-14.228,10.255
			c-8.527,0-77.673,0-89.992,0c-2.971,0-5.848-0.871-8.319-2.52l-89.996-59.998c-6.878-4.583-8.742-13.914-4.155-20.799
			c4.598-6.898,13.859-8.787,20.797-4.157l82.435,54.957c2.464,1.643,5.359,2.519,8.319,2.519h58.663
			c7.038,0,13.13-4.895,14.646-11.767c8.383-37.99-1.43-76.659-26.92-106.091c-2.02-2.332-4.709-3.984-7.701-4.732l-111.41-27.845
			c-8.018-2.003-12.911-10.167-10.91-18.186c2.004-7.993,10.146-12.946,18.198-10.92l119.991,29.998
			c2.637,0.659,5.037,2.018,6.961,3.95C337.672,226.454,351.768,286.166,333.407,341.235z M467.002,360.992H358.426
			c0.092-0.26,0.189-0.517,0.276-0.779l3.163-9.49c2.178-6.531,3.968-13.116,5.389-19.729h99.749c8.27,0,14.999,6.729,14.999,14.999
			C482.001,354.263,475.272,360.992,467.002,360.992z"/>
	</g>
</g>
<g>
	<g>
		<path d="M497,481.983H15.036c-8.283,0-14.999,6.716-14.999,14.999s6.716,14.999,14.999,14.999H497
			c8.283,0,14.999-6.716,14.999-14.999S505.283,481.983,497,481.983z"/>
	</g>
</g>
<g>
	<g>
		<path d="M166.024,30.017h-14.999V15.018c0-8.283-6.716-14.999-14.999-14.999s-14.999,6.716-14.999,14.999v14.999h-14.999
			c-8.283,0-14.999,6.715-14.999,14.999s6.716,14.999,14.999,14.999h14.999v14.999c0,8.283,6.716,14.999,14.999,14.999
			s14.999-6.716,14.999-14.999V60.014h14.999c8.283,0,14.999-6.716,14.999-14.999S174.308,30.017,166.024,30.017z"/>
	</g>
</g>
<g>
	<g>
		<path d="M497,211.003h-14.999v-14.999c0-8.283-6.715-14.999-14.999-14.999s-14.999,6.716-14.999,14.999v14.999h-14.999
			c-8.283,0-14.999,6.716-14.999,14.999s6.716,14.999,14.999,14.999h14.999V256c0,8.283,6.716,14.999,14.999,14.999
			s14.999-6.716,14.999-14.999v-14.999H497c8.283,0,14.999-6.716,14.999-14.999S505.283,211.003,497,211.003z"/>
	</g>
</g>
<g>
</g>
<g>
</g>
<g>
</g>
<g>
</g>
<g>
</g>
<g>
</g>
<g>
</g>
<g>
</g>
<g>
</g>
<g>
</g>
<g>
</g>
<g>
</g>
<g>
</g>
<g>
</g>
<g>
</g>
</svg>
