<svg id="Group_2928" data-name="Group 2928" xmlns="http://www.w3.org/2000/svg" xmlns:xlink="http://www.w3.org/1999/xlink" viewBox="0 0 136 91.756">
  <defs>
    <style>
      .cls-1 {
        fill: #2d1e56;
      }

      .cls-2 {
        opacity: 0.75;
      }

      .cls-3 {
        fill: url(#linear-gradient);
      }

      .cls-4 {
        fill: url(#linear-gradient-2);
      }

      .cls-5 {
        fill: #e2e2e2;
      }

      .cls-6 {
        fill: url(#linear-gradient-3);
      }

      .cls-7 {
        fill: url(#linear-gradient-4);
      }

      .cls-8 {
        fill: url(#linear-gradient-5);
      }

      .cls-12, .cls-9 {
        fill: #fff;
      }

      .cls-9 {
        opacity: 0.29;
      }

      .cls-10 {
        fill: url(#linear-gradient-6);
      }

      .cls-11, .cls-33, .cls-36, .cls-37 {
        opacity: 0.3;
      }

      .cls-13 {
        fill: url(#linear-gradient-7);
      }

      .cls-14 {
        fill: url(#linear-gradient-8);
      }

      .cls-15 {
        fill: #134261;
      }

      .cls-16 {
        fill: url(#linear-gradient-9);
      }

      .cls-17 {
        fill: url(#linear-gradient-10);
      }

      .cls-18 {
        fill: url(#linear-gradient-11);
      }

      .cls-19 {
        clip-path: url(#clip-path);
      }

      .cls-20 {
        fill: url(#linear-gradient-12);
      }

      .cls-21 {
        fill: url(#linear-gradient-13);
      }

      .cls-22 {
        fill: #8e87ad;
        opacity: 0.4;
      }

      .cls-23, .cls-26 {
        fill: #413351;
      }

      .cls-24 {
        fill: url(#linear-gradient-14);
      }

      .cls-25 {
        fill: #ebebeb;
        opacity: 0.28;
      }

      .cls-26 {
        opacity: 0.42;
      }

      .cls-27 {
        fill: url(#linear-gradient-15);
      }

      .cls-28 {
        fill: url(#linear-gradient-16);
      }

      .cls-29 {
        fill: url(#linear-gradient-17);
      }

      .cls-30 {
        opacity: 0.31;
      }

      .cls-31 {
        opacity: 0.46;
      }

      .cls-32 {
        fill: none;
      }

      .cls-33 {
        fill: url(#linear-gradient-18);
      }

      .cls-34 {
        fill: url(#linear-gradient-19);
      }

      .cls-35 {
        fill: url(#linear-gradient-20);
      }

      .cls-36 {
        fill: url(#linear-gradient-21);
      }

      .cls-37 {
        fill: url(#linear-gradient-22);
      }

      .cls-38 {
        fill: url(#linear-gradient-23);
      }

      .cls-39 {
        fill: url(#linear-gradient-24);
      }

      .cls-40 {
        fill: url(#linear-gradient-25);
      }
    </style>
    <linearGradient id="linear-gradient" x1="0.513" y1="2.14" x2="0.5" y2="0.474" gradientUnits="objectBoundingBox">
      <stop offset="0" stop-color="#fff" stop-opacity="0"/>
      <stop offset="1" stop-color="#fff"/>
    </linearGradient>
    <linearGradient id="linear-gradient-2" x1="0.566" y1="-3.908" x2="1.181" y2="-2.94" gradientUnits="objectBoundingBox">
      <stop offset="0" stop-color="#67d690"/>
      <stop offset="1" stop-color="#00a99d"/>
    </linearGradient>
    <linearGradient id="linear-gradient-3" x1="-0.002" y1="0.5" x2="1.001" y2="0.5" gradientUnits="objectBoundingBox">
      <stop offset="0" stop-color="#9feab2"/>
      <stop offset="1" stop-color="#6ad4ab"/>
    </linearGradient>
    <linearGradient id="linear-gradient-4" x1="-0.05" y1="0.611" x2="1.343" y2="0.343" gradientUnits="objectBoundingBox">
      <stop offset="0" stop-color="#ccc"/>
      <stop offset="1" stop-color="#fff"/>
    </linearGradient>
    <linearGradient id="linear-gradient-5" x1="0.482" y1="-0.018" x2="0.504" y2="0.625" gradientUnits="objectBoundingBox">
      <stop offset="0" stop-color="#49b7e0"/>
      <stop offset="1" stop-color="#66ecf2"/>
    </linearGradient>
    <linearGradient id="linear-gradient-6" x1="0.513" y1="-0.271" x2="0.502" y2="0.804" gradientUnits="objectBoundingBox">
      <stop offset="0" stop-color="#fff" stop-opacity="0"/>
      <stop offset="0.999" stop-color="#fff"/>
    </linearGradient>
    <linearGradient id="linear-gradient-7" x1="0.406" y1="1.023" x2="0.603" y2="0.388" xlink:href="#linear-gradient-6"/>
    <linearGradient id="linear-gradient-8" x1="0.507" y1="-1.952" x2="0.49" y2="3.064" xlink:href="#linear-gradient-4"/>
    <linearGradient id="linear-gradient-9" x1="0.508" y1="-0.109" x2="0.458" y2="0.856" gradientUnits="objectBoundingBox">
      <stop offset="0.1" stop-color="#fde04c"/>
      <stop offset="1" stop-color="#e76574"/>
    </linearGradient>
    <linearGradient id="linear-gradient-10" x1="0.514" y1="0.167" x2="0.498" y2="0.876" gradientUnits="objectBoundingBox">
      <stop offset="0.134" stop-color="#e76574"/>
      <stop offset="1" stop-color="#714091"/>
    </linearGradient>
    <linearGradient id="linear-gradient-11" x1="0.507" y1="0.194" x2="0.491" y2="0.903" xlink:href="#linear-gradient-10"/>
    <clipPath id="clip-path">
      <path id="Path_30931" data-name="Path 30931" d="M142.572,46.242c-2.132,1.99-5.827,6.869-5.495,16.816a6.33,6.33,0,0,0,.284,1.895L139.682,74h8.1s2.084-7.437,2.511-9.332c1.09-4.832-.474-13.927-4.642-18.332A2.175,2.175,0,0,0,142.572,46.242Z" transform="translate(-137.056 -45.649)"/>
    </clipPath>
    <linearGradient id="linear-gradient-12" x1="0.5" y1="0.227" x2="0.5" y2="0.808" gradientUnits="objectBoundingBox">
      <stop offset="0" stop-color="#fff"/>
      <stop offset="0.993" stop-color="#e6e6e6"/>
    </linearGradient>
    <linearGradient id="linear-gradient-13" x1="0.496" y1="0.052" x2="0.542" y2="1.767" xlink:href="#linear-gradient-10"/>
    <linearGradient id="linear-gradient-14" x1="0.03" y1="1.03" x2="0.685" y2="0.293" xlink:href="#linear-gradient-5"/>
    <linearGradient id="linear-gradient-15" x1="0.512" y1="0.023" x2="0.472" y2="0.864" xlink:href="#linear-gradient-10"/>
    <linearGradient id="linear-gradient-16" x1="0.474" y1="1.575" x2="0.516" y2="-0.139" xlink:href="#linear-gradient-6"/>
    <linearGradient id="linear-gradient-17" x1="0.491" y1="1.809" x2="0.505" y2="-0.363" xlink:href="#linear-gradient-6"/>
    <linearGradient id="linear-gradient-18" x1="1.001" y1="1.359" x2="0.254" y2="0.08" xlink:href="#linear-gradient-6"/>
    <linearGradient id="linear-gradient-19" x1="1.001" y1="1.367" x2="0.253" y2="0.078" gradientUnits="objectBoundingBox">
      <stop offset="0.142" stop-color="#42287c"/>
      <stop offset="1" stop-color="#714091"/>
    </linearGradient>
    <linearGradient id="linear-gradient-20" x1="1.001" y1="1.367" x2="0.254" y2="0.078" xlink:href="#linear-gradient-19"/>
    <linearGradient id="linear-gradient-21" x1="0.998" y1="1.364" x2="0.25" y2="0.075" xlink:href="#linear-gradient-6"/>
    <linearGradient id="linear-gradient-22" x1="3.206" y1="23.967" x2="2.459" y2="22.677" xlink:href="#linear-gradient-6"/>
    <linearGradient id="linear-gradient-23" x1="108.191" y1="300.015" x2="107.31" y2="298.459" xlink:href="#linear-gradient-19"/>
    <linearGradient id="linear-gradient-24" x1="89.361" y1="262.949" x2="88.48" y2="261.429" xlink:href="#linear-gradient-19"/>
    <linearGradient id="linear-gradient-25" x1="99.327" y1="265.412" x2="98.446" y2="263.892" xlink:href="#linear-gradient-19"/>
  </defs>
  <path id="Path_30900" data-name="Path 30900" class="cls-1" d="M22.825,157.643c-1.516,1.611-4.263,1.753-6.395,1.09a6.09,6.09,0,0,1-4.121-4.784c-.237-1.516.095-3.174-.568-4.548-.805-1.658-2.747-2.416-3.695-3.979-.853-1.468-.616-3.316-.9-4.974a34.08,34.08,0,0,0-1.137-3.742,7.1,7.1,0,0,1-.284-3.837A3.068,3.068,0,0,1,8.472,130.5a4.114,4.114,0,0,1,2.842,1.563,15.945,15.945,0,0,0,2.226,2.511c1.326,1.042,3.079,1.279,4.737,1.658s3.411,1.137,4.074,2.7c.711,1.611.047,3.648,1.042,5.116A9.994,9.994,0,0,0,26,146.037a6.557,6.557,0,0,1,2.511,6.916,6.671,6.671,0,0,1-5.684,4.69" transform="translate(-2.93 -68.682)"/>
  <path id="Path_30901" data-name="Path 30901" class="cls-1" d="M29.48,161.543a1.051,1.051,0,0,1-.237-.189,4.489,4.489,0,0,1-.616-.521,20.961,20.961,0,0,1-2.037-2.226c-.805-.995-1.658-2.226-2.653-3.6-.947-1.374-2.037-2.89-3.126-4.5-2.226-3.174-4.216-6.063-5.637-8.2-.711-1.042-1.279-1.895-1.705-2.511-.189-.284-.332-.521-.426-.663a2.463,2.463,0,0,1-.142-.237,1.052,1.052,0,0,0,.189.237c.095.142.284.379.474.663.426.568.995,1.421,1.753,2.463,1.468,2.084,3.458,4.974,5.684,8.148,1.09,1.611,2.132,3.126,3.126,4.5.947,1.374,1.8,2.653,2.605,3.648a22.417,22.417,0,0,0,1.99,2.274,6.283,6.283,0,0,1,.568.568A.885.885,0,0,1,29.48,161.543Z" transform="translate(-6.789 -73.103)"/>
  <path id="Path_30902" data-name="Path 30902" class="cls-1" d="M29.853,147.4c.047.047-.189.379-.521.947a11.114,11.114,0,0,0-.474,1.042,10.838,10.838,0,0,0-.379,1.326,7.124,7.124,0,0,0-.142,1.374,8.4,8.4,0,0,0,.047,1.137,8.2,8.2,0,0,1,.095,1.042,2.437,2.437,0,0,1-.284-1.042,7.986,7.986,0,0,1-.095-1.184,7.6,7.6,0,0,1,.142-1.421,5.832,5.832,0,0,1,.426-1.374,7.084,7.084,0,0,1,.521-1.042A7.376,7.376,0,0,1,29.853,147.4Z" transform="translate(-14.789 -77.576)"/>
  <path id="Path_30903" data-name="Path 30903" class="cls-1" d="M40.663,162.2c.047,0-.189.379-.426.947a7.8,7.8,0,0,0-.426,1.042,9.034,9.034,0,0,0-.332,1.326,7.044,7.044,0,0,0-.142,1.326,7.352,7.352,0,0,0,.047,1.09,7.589,7.589,0,0,1,.095,1.042,2.365,2.365,0,0,1-.284-.995,7.859,7.859,0,0,1-.095-1.137,7.125,7.125,0,0,1,.142-1.374,8.86,8.86,0,0,1,.379-1.326,11.111,11.111,0,0,1,.474-1.042A4.8,4.8,0,0,1,40.663,162.2Z" transform="translate(-20.578 -85.365)"/>
  <path id="Path_30904" data-name="Path 30904" class="cls-1" d="M23.816,164.416a5.467,5.467,0,0,1-1.09-.568,18.474,18.474,0,0,0-2.653-1.137,10.661,10.661,0,0,0-1.563-.379,7,7,0,0,0-1.279-.142c-.758-.047-1.184,0-1.232-.047A3.081,3.081,0,0,1,17.232,162c.379,0,.853.047,1.326.095a10.663,10.663,0,0,1,1.563.379,16.469,16.469,0,0,1,2.7,1.232A4.653,4.653,0,0,1,23.816,164.416Z" transform="translate(-8.421 -85.26)"/>
  <path id="Path_30905" data-name="Path 30905" class="cls-1" d="M34.469,177.611c-.047.047-.332-.237-.9-.616-.284-.189-.616-.379-.995-.616-.379-.189-.853-.379-1.326-.568-.474-.142-.947-.284-1.374-.379a5.719,5.719,0,0,0-1.184-.142c-.663-.047-1.09,0-1.09-.047a3.77,3.77,0,0,1,1.09-.142,11.825,11.825,0,0,1,1.184.095c.426.095.947.189,1.421.332a8.607,8.607,0,0,1,1.326.616,6.026,6.026,0,0,1,.995.663A4.442,4.442,0,0,1,34.469,177.611Z" transform="translate(-14.526 -92.155)"/>
  <g id="Group_2898" data-name="Group 2898" class="cls-2" transform="translate(85.682 12.407)">
    <path id="Path_30906" data-name="Path 30906" class="cls-3" d="M187,35.291c3.126.047,6.206.426,9.332.237,1.611-.095,3.363-.379,4.5-1.753a5.248,5.248,0,0,0,.616-5.211,3.444,3.444,0,0,0-3.932-2.132c-1.611.474-3.032,2.274-4.595,1.658-1.09-.426-1.895-1.99-3.032-1.895-1.184.095-1.753,1.895-2.795,2.653a4.43,4.43,0,0,1-3.032.332,2.8,2.8,0,0,0-2.842.995,3.178,3.178,0,0,0,.711,3.742A9.777,9.777,0,0,0,187,35.291Z" transform="translate(-180.878 -26.191)"/>
  </g>
  <g id="Group_2899" data-name="Group 2899" transform="translate(12.272 40.168)">
    <path id="Path_30907" data-name="Path 30907" class="cls-4" d="M42.056,133.257c-3.126,1.658-7.3.474-10.185-1.611a9.845,9.845,0,0,1-3.79-9.332c.426-2.416,1.753-4.69,1.468-7.106-.332-2.89-2.937-5.069-3.505-7.911-.568-2.653.758-5.305,1.184-8.006a45.049,45.049,0,0,0,.189-6.206,11.048,11.048,0,0,1,1.516-5.921c1.184-1.705,3.363-2.842,5.353-2.179,1.705.521,2.795,2.179,3.458,3.837A27.853,27.853,0,0,0,39.783,93.7c1.468,2.226,4.026,3.505,6.253,4.927,2.274,1.421,4.5,3.458,4.784,6.111.237,2.795-1.8,5.542-1.042,8.242.474,1.705,1.895,2.89,2.937,4.311a10.515,10.515,0,0,1,.237,11.748,10.343,10.343,0,0,1-10.9,4.216" transform="translate(-25.906 -84.795)"/>
  </g>
  <g id="Group_2902" data-name="Group 2902" transform="translate(19.564 46.612)">
    <g id="Group_2901" data-name="Group 2901">
      <g id="Group_2900" data-name="Group 2900">
        <path id="Path_30908" data-name="Path 30908" class="cls-5" d="M54.658,141.033a2.8,2.8,0,0,1-.284-.379,9.158,9.158,0,0,1-.663-1.137,25.687,25.687,0,0,1-1.942-4.405c-.711-1.895-1.374-4.216-2.132-6.774s-1.563-5.4-2.416-8.337c-1.705-5.921-3.221-11.321-4.263-15.206-.521-1.942-.947-3.553-1.232-4.642-.142-.568-.237-.995-.332-1.279-.047-.284-.095-.426-.095-.474a1.945,1.945,0,0,1,.189.426c.095.284.237.711.426,1.232.332,1.09.805,2.653,1.374,4.595,1.137,3.884,2.7,9.237,4.405,15.158.853,2.984,1.658,5.779,2.369,8.385.711,2.558,1.374,4.879,2.037,6.774a44.848,44.848,0,0,0,1.8,4.405C54.374,140.465,54.706,141.033,54.658,141.033Z" transform="translate(-41.3 -98.4)"/>
      </g>
    </g>
  </g>
  <g id="Group_2905" data-name="Group 2905" transform="translate(25.296 57.36)">
    <g id="Group_2904" data-name="Group 2904">
      <g id="Group_2903" data-name="Group 2903">
        <path id="Path_30909" data-name="Path 30909" class="cls-5" d="M59.084,121.094a9.639,9.639,0,0,1-1.232,1.184,14.488,14.488,0,0,0-2.463,3.174,15.851,15.851,0,0,0-1.516,3.742,7.2,7.2,0,0,1-.426,1.658,4.811,4.811,0,0,1,.047-1.705,12.677,12.677,0,0,1,1.421-3.884,11.7,11.7,0,0,1,2.653-3.174C58.469,121.331,59.037,121.047,59.084,121.094Z" transform="translate(-53.4 -121.089)"/>
      </g>
    </g>
  </g>
  <g id="Group_2908" data-name="Group 2908" transform="translate(29.564 70.529)">
    <g id="Group_2907" data-name="Group 2907">
      <g id="Group_2906" data-name="Group 2906">
        <path id="Path_30910" data-name="Path 30910" class="cls-5" d="M67.758,148.894a8.136,8.136,0,0,1-1.137,1.184,15.267,15.267,0,0,0-2.321,3.126,13.931,13.931,0,0,0-1.421,3.648,6.335,6.335,0,0,1-.426,1.611,4.109,4.109,0,0,1,.095-1.658,11.741,11.741,0,0,1,1.326-3.79,12.154,12.154,0,0,1,2.511-3.174A4.274,4.274,0,0,1,67.758,148.894Z" transform="translate(-62.411 -148.889)"/>
      </g>
    </g>
  </g>
  <g id="Group_2911" data-name="Group 2911" transform="translate(16.059 64.077)">
    <g id="Group_2910" data-name="Group 2910">
      <g id="Group_2909" data-name="Group 2909">
        <path id="Path_30911" data-name="Path 30911" class="cls-5" d="M44.511,142.72a9.985,9.985,0,0,1-1.374-1.374,26.805,26.805,0,0,0-3.458-3.079,22.847,22.847,0,0,0-2.132-1.374,12.964,12.964,0,0,0-1.847-.9c-1.09-.474-1.8-.616-1.8-.711a5.056,5.056,0,0,1,1.895.379,12.84,12.84,0,0,1,1.942.853,18.411,18.411,0,0,1,2.179,1.374,20.8,20.8,0,0,1,3.411,3.221A6.255,6.255,0,0,1,44.511,142.72Z" transform="translate(-33.9 -135.268)"/>
      </g>
    </g>
  </g>
  <g id="Group_2914" data-name="Group 2914" transform="translate(21.175 76.393)">
    <g id="Group_2913" data-name="Group 2913">
      <g id="Group_2912" data-name="Group 2912">
        <path id="Path_30912" data-name="Path 30912" class="cls-5" d="M53.842,168.246a8.59,8.59,0,0,1-1.042-1.374,15.468,15.468,0,0,0-2.937-2.89,15.029,15.029,0,0,0-3.553-2.037c-.995-.426-1.611-.616-1.611-.663a4.564,4.564,0,0,1,1.705.332,13.2,13.2,0,0,1,3.742,1.99,12.979,12.979,0,0,1,2.89,3.079A5.087,5.087,0,0,1,53.842,168.246Z" transform="translate(-44.7 -161.267)"/>
      </g>
    </g>
  </g>
  <path id="Path_30913" data-name="Path 30913" class="cls-6" d="M221.143,152.839c-2.179-.426-3.79-2.653-4.358-4.784a6.176,6.176,0,0,1,1.8-6.063c1.137-.995,2.7-1.611,3.505-2.937.947-1.563.521-3.648,1.374-5.258.758-1.516,2.463-2.321,3.695-3.458a25.354,25.354,0,0,0,2.511-2.984,7.019,7.019,0,0,1,3.079-2.321,3.156,3.156,0,0,1,3.505,1.042,3.826,3.826,0,0,1,.189,3.221,15.524,15.524,0,0,0-.9,3.221c-.142,1.658.616,3.269,1.137,4.879.568,1.611.853,3.458-.047,4.879-.947,1.468-3.079,2.037-3.742,3.648a9.373,9.373,0,0,0-.237,3.269,6.623,6.623,0,0,1-4.5,5.874,6.5,6.5,0,0,1-7.011-2.226" transform="translate(-113.992 -65.725)"/>
  <path id="Path_30914" data-name="Path 30914" class="cls-5" d="M230.247,159.148v-.284a7.074,7.074,0,0,1,.095-.805c.142-.711.379-1.705.758-2.937s.995-2.605,1.611-4.169c.663-1.563,1.374-3.269,2.084-5.069,1.516-3.6,2.842-6.821,3.837-9.142.521-1.184.9-2.084,1.184-2.747.142-.332.237-.568.332-.758a1.057,1.057,0,0,1,.142-.237.733.733,0,0,1-.095.284c-.047.189-.189.426-.284.758-.284.663-.663,1.611-1.137,2.795-.947,2.369-2.274,5.59-3.79,9.19-.758,1.8-1.468,3.505-2.132,5.069s-1.232,2.937-1.658,4.121-.663,2.179-.853,2.89a3.2,3.2,0,0,0-.142.805A.829.829,0,0,1,230.247,159.148Z" transform="translate(-121.154 -69.998)"/>
  <path id="Path_30915" data-name="Path 30915" class="cls-5" d="M247.384,153.395c0,.047-.426,0-1.042.095-.332.047-.711.095-1.137.189a8.547,8.547,0,0,0-1.326.426,8.025,8.025,0,0,0-1.279.616,5.455,5.455,0,0,0-.947.663c-.521.379-.805.711-.853.663a7.208,7.208,0,0,1,.711-.805,5.47,5.47,0,0,1,.947-.711,8.084,8.084,0,0,1,1.279-.663,9.021,9.021,0,0,1,1.374-.426,5.718,5.718,0,0,1,1.184-.142A5.531,5.531,0,0,1,247.384,153.395Z" transform="translate(-126.732 -80.681)"/>
  <path id="Path_30916" data-name="Path 30916" class="cls-5" d="M240.848,170.347a6.721,6.721,0,0,1-1.042.142c-.332.047-.663.095-1.09.189a6.756,6.756,0,0,0-1.279.426,9.957,9.957,0,0,0-1.232.616,9.544,9.544,0,0,0-.9.616c-.521.379-.805.663-.805.616a5.279,5.279,0,0,1,.711-.758,7.406,7.406,0,0,1,.9-.663,7.538,7.538,0,0,1,1.232-.663,8.551,8.551,0,0,1,1.326-.426,5.31,5.31,0,0,1,1.137-.142A9.321,9.321,0,0,1,240.848,170.347Z" transform="translate(-123.417 -89.628)"/>
  <path id="Path_30917" data-name="Path 30917" class="cls-5" d="M235.915,155.963a10.168,10.168,0,0,1-.142-1.232,16.424,16.424,0,0,0-.474-2.89,11.331,11.331,0,0,0-.521-1.516,9.319,9.319,0,0,0-.568-1.184c-.379-.663-.663-.995-.616-1.042a4.464,4.464,0,0,1,.758.947,9.025,9.025,0,0,1,.616,1.184,12.084,12.084,0,0,1,.521,1.563,16.175,16.175,0,0,1,.426,2.937A8.415,8.415,0,0,1,235.915,155.963Z" transform="translate(-122.937 -77.945)"/>
  <path id="Path_30918" data-name="Path 30918" class="cls-5" d="M230.5,172.158a4.773,4.773,0,0,1,.047-1.09,11.154,11.154,0,0,0-.047-1.184c-.047-.426-.142-.9-.237-1.421-.142-.474-.284-.947-.426-1.374a7.085,7.085,0,0,0-.521-1.042c-.332-.568-.568-.9-.521-.947a4.474,4.474,0,0,1,.711.853,10.331,10.331,0,0,1,.568,1.042,11.693,11.693,0,0,1,.474,1.374,8.586,8.586,0,0,1,.237,1.468,9.8,9.8,0,0,1,0,1.184A2.6,2.6,0,0,1,230.5,172.158Z" transform="translate(-120.41 -86.892)"/>
  <path id="Path_30919" data-name="Path 30919" class="cls-7" d="M66.9,86.263v44.765h76.361V86.263A4.246,4.246,0,0,0,139,82H71.163A4.276,4.276,0,0,0,66.9,86.263Z" transform="translate(-35.209 -43.156)"/>
  <rect id="Rectangle_977" data-name="Rectangle 977" class="cls-8" width="67.692" height="46.47" transform="translate(35.149 43.154)"/>
  <path id="Path_30920" data-name="Path 30920" class="cls-9" d="M74.9,131.028,118.007,82H128.1L85.511,131.028Z" transform="translate(-39.42 -43.156)"/>
  <path id="Path_30921" data-name="Path 30921" class="cls-9" d="M106.6,131.028,148.712,82h3.553l-42.017,49.028Z" transform="translate(-56.103 -43.156)"/>
  <g id="Group_2915" data-name="Group 2915" transform="translate(26.709 71.905)">
    <path id="Path_30922" data-name="Path 30922" class="cls-10" d="M56.391,167.382c-.189-5.59,3.032-11.985,8.006-14.306A14.173,14.173,0,0,1,79.7,155.4c1.516,1.374,2.937,3.221,4.927,3.458,2.842.332,5.116-2.653,7.958-2.842,3.79-.237,6.253,4.453,10.042,5.116,2.795.474,5.495-1.421,8.29-1.326,2.084.047,4.026,1.137,6.063,1.09,3.884-.142,6.49-4.169,10.042-5.732s7.863-.379,10.706,2.274A16.808,16.808,0,0,1,142.51,167.9Z" transform="translate(-56.383 -151.795)"/>
  </g>
  <g id="Group_2916" data-name="Group 2916" class="cls-11" transform="translate(28.659 66.085)">
    <path id="Path_30923" data-name="Path 30923" class="cls-12" d="M144.724,160.726c.189-7.579-2.984-16.248-7.816-19.469s-10.99-1.895-14.969,3.174c-1.468,1.895-2.842,4.405-4.832,4.69-2.747.474-5.021-3.6-7.769-3.837-3.695-.284-6.111,6.063-9.806,6.963-2.7.616-5.353-1.942-8.1-1.847-2.037.095-3.932,1.563-5.921,1.468-3.79-.189-6.348-5.637-9.853-7.769-3.458-2.084-7.674-.521-10.469,3.079s-4.263,8.906-4.69,14.258Z" transform="translate(-60.5 -139.508)"/>
  </g>
  <path id="Path_30924" data-name="Path 30924" class="cls-13" d="M143.637,104.284,142.5,141.138h8.385L149.558,104Z" transform="translate(-74.997 -54.735)"/>
  <path id="Path_30925" data-name="Path 30925" class="cls-14" d="M56.4,184.7h86.309c0,2.369-2.7,4.263-5.969,4.263H62.369c-2.747,0-5.116-1.326-5.779-3.126A3.185,3.185,0,0,1,56.4,184.7Z" transform="translate(-29.683 -97.207)"/>
  <path id="Path_30926" data-name="Path 30926" class="cls-15" d="M124,184.7h0a1.051,1.051,0,0,0,1.042,1.042l20.132.332a1.02,1.02,0,0,0,1.042-1.137V184.7Z" transform="translate(-65.261 -97.207)"/>
  <path id="Path_30927" data-name="Path 30927" class="cls-16" d="M145.6,105.5s.568,6.774,2.842,7.958c0,0,1.705-1.042,2.605-7.958Z" transform="translate(-76.629 -55.524)"/>
  <path id="Path_30928" data-name="Path 30928" class="cls-17" d="M133.394,75.6s-3.648,8.053-3.695,10.09,3.032,10.279,3.553,8.953-.663-5.258,2.037-6.963L134.1,81.948a16.17,16.17,0,0,1-.474-3.032C133.536,77.969,133.442,76.69,133.394,75.6Z" transform="translate(-68.26 -39.788)"/>
  <path id="Path_30929" data-name="Path 30929" class="cls-18" d="M162.832,74.7s3.647,8.053,3.695,10.09-3.032,10.279-3.553,8.953.474-5.069-2.274-6.727l1.468-5.969a16.171,16.171,0,0,0,.474-3.032C162.69,77.069,162.784,75.79,162.832,74.7Z" transform="translate(-84.576 -39.314)"/>
  <g id="Group_2921" data-name="Group 2921" transform="translate(64.924 21.624)">
    <g id="Group_2917" data-name="Group 2917" class="cls-19">
      <path id="Path_30930" data-name="Path 30930" class="cls-20" d="M142.572,46.242c-2.132,1.99-5.827,6.869-5.495,16.816a6.33,6.33,0,0,0,.284,1.895L139.682,74h8.1s2.084-7.437,2.511-9.332c1.09-4.832-.474-13.927-4.642-18.332A2.175,2.175,0,0,0,142.572,46.242Z" transform="translate(-137.056 -45.649)"/>
    </g>
    <g id="Group_2918" data-name="Group 2918" class="cls-19">
      <path id="Path_30932" data-name="Path 30932" class="cls-21" d="M141.747,47.532h7.39l.474-4.405-6.063-.426L139.9,43.79Z" transform="translate(-138.553 -44.097)"/>
    </g>
    <g id="Group_2919" data-name="Group 2919" class="cls-19">
      <path id="Path_30934" data-name="Path 30934" class="cls-22" d="M146.484,82.1c-.758,4.69-1.942,8.574-3.884,11.085h3.269Z" transform="translate(-139.974 -64.833)"/>
    </g>
    <g id="Group_2920" data-name="Group 2920" class="cls-19">
      <path id="Path_30936" data-name="Path 30936" class="cls-22" d="M159.805,68.2s-.663,13.927-4.405,17.669h2.037S161.795,74.5,159.805,68.2Z" transform="translate(-146.71 -57.518)"/>
    </g>
  </g>
  <path id="Path_30938" data-name="Path 30938" class="cls-23" d="M150.569,70.174a10.523,10.523,0,0,1-1.942,0c-1.184-.047-2.795-.095-4.642-.095-1.8,0-3.458.047-4.642.047a10.74,10.74,0,0,1-1.942,0,9.579,9.579,0,0,1,1.895-.237c1.184-.095,2.842-.189,4.642-.189s3.458.095,4.642.189A11.96,11.96,0,0,1,150.569,70.174Z" transform="translate(-72.313 -36.683)"/>
  <path id="Path_30939" data-name="Path 30939" class="cls-23" d="M150.753,72.224a15.842,15.842,0,0,1-1.99-.047c-1.232-.047-2.89-.142-4.737-.237-1.847-.047-3.553-.095-4.737-.142a9.847,9.847,0,0,1-1.99-.095,11.915,11.915,0,0,1,1.99-.142c1.232-.047,2.89-.047,4.737,0s3.553.189,4.737.332A9.866,9.866,0,0,1,150.753,72.224Z" transform="translate(-72.261 -37.643)"/>
  <path id="Path_30940" data-name="Path 30940" class="cls-23" d="M151.027,104.416a25.8,25.8,0,0,1-4.263.095,28.206,28.206,0,0,1-4.263-.237,25.8,25.8,0,0,1,4.263-.095A28.86,28.86,0,0,1,151.027,104.416Z" transform="translate(-74.997 -54.82)"/>
  <path id="Path_30941" data-name="Path 30941" class="cls-23" d="M150.516,102.889a30.3,30.3,0,0,1-4.358.142,26.378,26.378,0,0,1-4.358-.189,30.3,30.3,0,0,1,4.358-.142A26.378,26.378,0,0,1,150.516,102.889Z" transform="translate(-74.629 -54.051)"/>
  <path id="Path_30942" data-name="Path 30942" class="cls-22" d="M151.109,69.351a2.882,2.882,0,1,1-2.558-3.174A2.9,2.9,0,0,1,151.109,69.351Z" transform="translate(-76.501 -34.818)"/>
  <path id="Path_30943" data-name="Path 30943" class="cls-24" d="M151.61,68.351a2.82,2.82,0,0,1-3.174,2.558,2.851,2.851,0,0,1-2.558-3.174,2.82,2.82,0,0,1,3.174-2.558A2.94,2.94,0,0,1,151.61,68.351Z" transform="translate(-76.765 -34.292)"/>
  <path id="Path_30944" data-name="Path 30944" class="cls-25" d="M146.7,70.132l4.026-3.932a3.244,3.244,0,0,1,.995,1.09l-4.263,3.695S146.747,70.558,146.7,70.132Z" transform="translate(-77.208 -34.841)"/>
  <path id="Path_30945" data-name="Path 30945" class="cls-25" d="M149.7,72.842l3.742-3.742.142.568-3.316,3.316Z" transform="translate(-78.787 -36.367)"/>
  <path id="Path_30946" data-name="Path 30946" class="cls-26" d="M142.774,81.337a.237.237,0,1,1-.237-.237C142.679,81.147,142.774,81.242,142.774,81.337Z" transform="translate(-74.892 -42.683)"/>
  <path id="Path_30947" data-name="Path 30947" class="cls-26" d="M142.774,82.737a.237.237,0,1,1-.237-.237A.224.224,0,0,1,142.774,82.737Z" transform="translate(-74.892 -43.42)"/>
  <path id="Path_30948" data-name="Path 30948" class="cls-26" d="M142.774,84.237a.237.237,0,1,1-.237-.237A.224.224,0,0,1,142.774,84.237Z" transform="translate(-74.892 -44.209)"/>
  <path id="Path_30949" data-name="Path 30949" class="cls-27" d="M150.384,81.694s-1.184.189-1.184,5.779c0,6.821.379,10.421.947,10.374S152.611,81.363,150.384,81.694Z" transform="translate(-78.524 -42.993)"/>
  <path id="Path_30950" data-name="Path 30950" class="cls-23" d="M150.517,73.3c.047.047-.237.332-.805.521a2.961,2.961,0,0,1-2.321-.237,2.869,2.869,0,0,1-1.326-1.942,1.755,1.755,0,0,1,.047-.947,7.179,7.179,0,0,0,.189.9A2.967,2.967,0,0,0,147.58,73.3a2.822,2.822,0,0,0,2.084.284A7.174,7.174,0,0,0,150.517,73.3Z" transform="translate(-76.856 -37.205)"/>
  <g id="Group_2922" data-name="Group 2922" class="cls-11" transform="translate(103.05 46.987)">
    <path id="Path_30951" data-name="Path 30951" class="cls-28" d="M224.106,107.106c3.316.047,6.632.379,9.948.189,1.705-.095,3.553-.332,4.784-1.516a3.869,3.869,0,0,0,.663-4.548,3.915,3.915,0,0,0-4.169-1.847c-1.705.426-3.269,1.99-4.926,1.468-1.184-.379-2.037-1.753-3.269-1.658-1.279.095-1.847,1.658-2.984,2.321a5.3,5.3,0,0,1-3.221.284,3.407,3.407,0,0,0-3.032.853,2.419,2.419,0,0,0,.805,3.269A12.546,12.546,0,0,0,224.106,107.106Z" transform="translate(-217.541 -99.19)"/>
  </g>
  <g id="Group_2923" data-name="Group 2923" class="cls-11" transform="translate(20.088 25.667)">
    <path id="Path_30952" data-name="Path 30952" class="cls-29" d="M51.546,65.229c4.642.047,9.285.568,13.974.284,2.416-.142,5.021-.474,6.727-2.132a5.3,5.3,0,0,0-4.927-8.953c-2.369.568-4.548,2.795-6.916,2.037-1.658-.521-2.842-2.416-4.548-2.274-1.8.142-2.605,2.369-4.169,3.269-1.326.758-2.984.521-4.5.379s-3.316,0-4.263,1.184c-1.09,1.421-.332,3.6,1.09,4.595A17.187,17.187,0,0,0,51.546,65.229Z" transform="translate(-42.407 -54.184)"/>
  </g>
  <g id="Group_2926" data-name="Group 2926" class="cls-30" transform="translate(65.248 27.134)">
    <g id="Group_2925" data-name="Group 2925">
      <g id="Group_2924" data-name="Group 2924">
        <path id="Path_30953" data-name="Path 30953" class="cls-12" d="M141.037,57.289c.142.095-.189.9-.663,2.132-.237.616-.474,1.374-.711,2.226a22.381,22.381,0,0,0-.568,2.795,20.43,20.43,0,0,0-.189,2.842c0,.9.047,1.705.095,2.369.142,1.326.284,2.179.095,2.226-.142.047-.616-.711-.947-2.084a11.238,11.238,0,0,1-.379-2.463,15.17,15.17,0,0,1,.805-6.063,12.878,12.878,0,0,1,1.042-2.274C140.279,57.811,140.942,57.195,141.037,57.289Z" transform="translate(-137.74 -57.28)"/>
      </g>
    </g>
  </g>
  <g id="Group_2927" data-name="Group 2927" class="cls-31" transform="translate(68.45 50.023)">
    <path id="Path_30954" data-name="Path 30954" class="cls-32" d="M144.5,105.6l5.116.142" transform="translate(-144.5 -105.6)"/>
  </g>
  <path id="Path_30955" data-name="Path 30955" class="cls-33" d="M41.642,25.032,42.59,22.9l1.279,1.99,2.084.947-1.942,1.232L43.016,29.2l-1.232-1.99L39.7,26.263Z" transform="translate(-20.894 -12.052)"/>
  <path id="Path_30956" data-name="Path 30956" class="cls-34" d="M123.642,36.784l.947-2.084,1.279,1.942,2.084.995-1.942,1.232-.995,2.084-1.232-1.942-2.084-.947Z" transform="translate(-64.05 -18.263)"/>
  <path id="Path_30957" data-name="Path 30957" class="cls-35" d="M160.542,2.084,161.49,0l1.279,1.942,2.084.995-1.942,1.232-.995,2.084-1.232-1.942L158.6,3.363Z" transform="translate(-83.471)"/>
  <path id="Path_30958" data-name="Path 30958" class="cls-36" d="M15.637,93.232,16.205,92l.711,1.137,1.232.568-1.137.711-.568,1.232-.758-1.137L14.5,93.942Z" transform="translate(-7.631 -48.419)"/>
  <path id="Path_30959" data-name="Path 30959" class="cls-1" d="M280.537,97.032l.521-1.232.758,1.137,1.232.568-1.137.758-.568,1.232-.758-1.137L279.4,97.79Z" transform="translate(-147.048 -50.419)"/>
  <path id="Path_30960" data-name="Path 30960" class="cls-37" d="M264.632,43.242l1.279-1.942.947,2.132,1.895,1.232-2.084.947-1.279,1.942-.947-2.084L262.5,44.19Z" transform="translate(-138.153 -21.736)"/>
  <path id="Path_30961" data-name="Path 30961" class="cls-1" d="M100.4,20.874l.805-.474-.047.947.426.758-.9-.047-.805.426.047-.9-.426-.805Z" transform="translate(-52.367 -10.736)"/>
  <path id="Path_30962" data-name="Path 30962" class="cls-38" d="M.9,64.826l.805-.426-.047.9.426.805-.9-.095-.805.426.047-.9L0,64.732Z" transform="translate(0 -33.894)"/>
  <path id="Path_30963" data-name="Path 30963" class="cls-39" d="M242.1,7.026l.805-.426-.095.9.474.805-.947-.047-.758.426.047-.9-.426-.805Z" transform="translate(-126.943 -3.474)"/>
  <path id="Path_30964" data-name="Path 30964" class="cls-40" d="M203.947,67.326l.758-.426-.047.9.426.805-.9-.047-.805.426.047-.9L203,67.279Z" transform="translate(-106.838 -35.209)"/>
</svg>
