<svg xmlns="http://www.w3.org/2000/svg" width="461.892" height="417.571" viewBox="0 0 461.892 417.571">
  <g id="Group_2512" data-name="Group 2512" transform="translate(0.016)">
    <g id="Group_2505" data-name="Group 2505" transform="translate(20.552 0)">
      <path id="Path_30039" data-name="Path 30039" d="M273.461,82.141c-1.15,0-4.108-.164-8.381-.493a221.679,221.679,0,0,1-85.289-23.335c-22.514-11.339-52.422-16.1-68.691-11.832h-.164A10.988,10.988,0,0,1,97.46,38.593C93.681,24.624,74.947,14.6,55.227,14.6,31.563,14.6,12.5,27.911,12.5,44.18c0,6.9,3.451,13.311,9.2,18.241,16.269,14.3,25.307,35.167,23.335,56.859a58.063,58.063,0,0,0,.822,16.926,41.779,41.779,0,0,0,2.3,7.724c6.245,15.94,30.73,35.5,32.209,50.286,11.5,114.047,41.412,155.459,151.187,171.728,109.61,16.269,208.046-34.181,219.549-112.733C462.609,174.989,443.711,84.442,273.461,82.141Z" transform="translate(-12.5 9.393)" fill="#e1e1ff"/>
      <path id="Path_30040" data-name="Path 30040" d="M103.5,8.545a9.322,9.322,0,0,1-5.916-2.958A19.319,19.319,0,0,0,83.612,0C73.752,0,65.7,6.738,65.7,14.954s8.052,14.954,17.912,14.954A19.771,19.771,0,0,0,96.1,25.636a8.047,8.047,0,0,1,5.752-1.479A7.85,7.85,0,0,0,103.5,8.545Z" transform="translate(21.725 0)" fill="#e1e1ff"/>
      <path id="Path_30041" data-name="Path 30041" d="M107.1,24.473c0,2.3-2.629,4.273-5.752,4.273S95.6,26.938,95.6,24.473c0-2.3,2.629-4.273,5.752-4.273S107.1,22.172,107.1,24.473Z" transform="translate(40.961 12.995)" fill="#e1e1ff"/>
      <path id="Path_30042" data-name="Path 30042" d="M249.05,55.5c0,4.108-5.587,7.4-12.325,7.4S224.4,59.606,224.4,55.5s5.587-7.4,12.325-7.4C243.627,47.938,249.05,51.389,249.05,55.5Z" transform="translate(123.822 30.942)" fill="#e1e1ff"/>
      <path id="Path_30043" data-name="Path 30043" d="M248.859,45.98a3.78,3.78,0,1,1-3.78-3.78A3.719,3.719,0,0,1,248.859,45.98Z" transform="translate(134.695 27.149)" fill="#e1e1ff"/>
    </g>
    <g id="Group_2506" data-name="Group 2506" transform="translate(-0.016 205.91)">
      <path id="Path_30044" data-name="Path 30044" d="M46.352,200.557c-1.15-8.217-2.794-21.2-10.846-31.388C23.017,153.394.174,150.6.174,150.6s-2.465,22.842,10.353,38.618c6.9,8.545,21.363,14.79,29.416,17.419a8.286,8.286,0,0,1,5.752,7.888c-.822,54.887-9.2,81.181-9.2,81.181l8.052-.986C51.446,235.232,47.831,212.061,46.352,200.557Z" transform="translate(0.016 -109.024)" fill="#e1e1ff"/>
      <path id="Path_30045" data-name="Path 30045" d="M47.189,189.24c2.136-6.738,5.587-17.584,13.968-24.814C74.14,152.922,93.7,153.908,93.7,153.908s-1.479,19.556-14.461,31.059c-7.066,6.245-20.213,9.367-27.444,10.189a7.149,7.149,0,0,0-6.08,5.916c-7.559,46.506-4.273,69.842-4.273,69.842L34.7,268.942C37.658,217.67,44.067,198.607,47.189,189.24Z" transform="translate(22.35 -106.909)" fill="#e1e1ff"/>
      <path id="Path_30046" data-name="Path 30046" d="M38.631,171.971c1.808-8.217,4.6-21.2,13.475-30.73,13.968-14.954,36.975-15.94,36.975-15.94s.657,23.171-13.475,37.961c-7.724,8.052-22.678,13.147-31.059,15.119a8.208,8.208,0,0,0-6.409,7.559,669.421,669.421,0,0,0,.986,100.243l-8.052-1.643C28.771,224.393,36.166,183.31,38.631,171.971Z" transform="translate(19.733 -125.3)" fill="#b0b0ff"/>
      <path id="Path_30047" data-name="Path 30047" d="M34.936,214.408a27.253,27.253,0,0,0-4.766-11.5,16.932,16.932,0,0,0-4.108-4.273C19,193.7,9.3,195.181,9.3,195.181s1.643,9.7,8.545,14.626c4.108,2.958,9.2,3.615,12.654,3.615a3.823,3.823,0,0,1,3.78,3.78c-.164,11.175-2.465,26.458-2.465,26.458l4.437-.822C37.565,232.485,35.922,220.653,34.936,214.408Z" transform="translate(6.009 -80.477)" fill="#b0b0ff"/>
      <path id="Path_30048" data-name="Path 30048" d="M56.94,186s-9.038,3.78-12.325,11.832c-1.808,4.437-.822,11.175-.493,13.64a4.691,4.691,0,0,1,0,2.136L41,243.352h5.423a121.584,121.584,0,0,1-.329-25.472,7.835,7.835,0,0,1,2.958-5.423c2.794-1.972,6.9-5.423,8.545-9.531C60.884,195.2,56.94,186,56.94,186Z" transform="translate(26.403 -86.25)" fill="#b0b0ff"/>
      <path id="Path_30049" data-name="Path 30049" d="M33.04,270.036H54.568a4.376,4.376,0,0,0,1.972-.493,26.647,26.647,0,0,0,13.968-23.5v-20.87a4.351,4.351,0,0,0-4.273-4.273H21.373a4.351,4.351,0,0,0-4.273,4.273v20.87a26.773,26.773,0,0,0,13.968,23.5A4.376,4.376,0,0,0,33.04,270.036Z" transform="translate(11.027 -63.797)" fill="#8888ea"/>
      <rect id="Rectangle_817" data-name="Rectangle 817" width="53.573" height="12.818" transform="translate(28.127 169.263)" fill="#e1e1ff"/>
      <rect id="Rectangle_818" data-name="Rectangle 818" width="53.573" height="3.122" transform="translate(28.127 169.263)" fill="#fff0f2"/>
    </g>
    <rect id="Rectangle_819" data-name="Rectangle 819" width="3.944" height="81.181" transform="translate(183.203 67.227) rotate(10.614)" fill="#fff"/>
    <path id="Path_30050" data-name="Path 30050" d="M163.835,76.092C147.4,65.575,126.2,81.187,110.1,68.533a2.821,2.821,0,0,1-.986-2.465l5.916-31.388a2.511,2.511,0,0,1,3.78-1.643c16.433,10.517,37.632-5.094,53.737,7.559a2.821,2.821,0,0,1,.986,2.465c-1.972,10.517-3.944,21.035-5.916,31.388A2.511,2.511,0,0,1,163.835,76.092Z" transform="translate(70.185 21.029)" fill="#ffa50a"/>
    <path id="Path_30051" data-name="Path 30051" d="M107.992,78.312a2.853,2.853,0,0,0-1.479,1.808c-.164.329-.164.493,0,.657a2.11,2.11,0,0,1-.657,1.643,3.578,3.578,0,0,0-.822,1.315,4.1,4.1,0,0,0-.164,2.794,4.691,4.691,0,0,1,0,2.136,1.854,1.854,0,0,0,.164,1.315,1.915,1.915,0,0,0,2.629.822,1.771,1.771,0,0,0,.986-1.808,1.762,1.762,0,0,1,.329-.986l.164-.164a2.442,2.442,0,0,0,.329-1.479,1.1,1.1,0,0,1,.493-1.315,3.342,3.342,0,0,0,.986-1.479,1.39,1.39,0,0,0,0-1.15,1.1,1.1,0,0,1,.493-1.315,2.083,2.083,0,0,0,.657-1.479C111.772,78.147,108.978,77.655,107.992,78.312Z" transform="translate(67.361 50.197)" fill="#fab9af"/>
    <path id="Path_30052" data-name="Path 30052" d="M100.665,84.479h0c.493-.822.986-1.643,1.479-2.3l2.136-2.3c1.479-1.479,2.3-2.629,4.108-2.794,2.958-.329,6.9-.493,7.066,1.15.164,1.479-3.615,2.465-5.916,2.794a2.006,2.006,0,0,0-1.479,1.315s1.15,8.545-3.451,8.874l-1.15,3.122L98.2,93.517l1.15-5.259A11.338,11.338,0,0,1,100.665,84.479Z" transform="translate(63.186 49.453)" fill="#fab9af"/>
    <path id="Path_30053" data-name="Path 30053" d="M90.9,106.3s-12.325-4.93-16.762,2.958c-4.6,8.052,2.136,29.251-14.133,32.209-16.433,2.958-18.077,19.227-16.762,26.458,3.78,20.706,33.688,41.412,54.394,19.556s-4.93-36.646-6.9-47.657C88.6,128.645,101.413,114.019,90.9,106.3Z" transform="translate(27.598 67.405)" fill="#5046af"/>
    <path id="Path_30054" data-name="Path 30054" d="M86.86,142.528c-.164-8.545,16.926-17.419-.822-34.674a1.494,1.494,0,0,0-1.808-.164c-1.479,1.15-6.08,1.808-8.545,3.944-4.437,3.944-11.339,14.79-9.2,20.213,4.6,11.668-3.122,21.692-3.78,34.839C62.21,180.325,84.4,193.8,95.077,190.021a11.544,11.544,0,0,0,7.231-7.4,9.69,9.69,0,0,0-.657-7.724h0C97.542,167.178,87.189,170.958,86.86,142.528Z" transform="translate(40.344 69.133)" fill="#41378c"/>
    <path id="Path_30055" data-name="Path 30055" d="M104.124,232.991a199.3,199.3,0,0,0,.986-64.747,12.569,12.569,0,0,0-11.175-10.517h0A13.377,13.377,0,0,0,79.31,171.695a83.621,83.621,0,0,0,1.643,12.654c3.78,19.063,10.189,110.925,10.189,110.925a3.2,3.2,0,0,1-.164,1.315,8.027,8.027,0,0,1-1.479,2.958c-1.315,1.808-.493,3.122,2.3,5.423,2.3,1.808,1.15,5.094,3.451,5.423,3.287.493,5.587.329,5.916-.493.329-1.15-.493-1.315-3.287-2.629-2.136-1.15-2.465-7.724-2.465-10.353a8,8,0,0,1,.164-1.972Z" transform="translate(51.017 101.427)" fill="#fab9af"/>
    <path id="Path_30056" data-name="Path 30056" d="M90.694,237.495c5.259-15.612,14.626-65.733,12.654-79.7l-12.654-.986a13.83,13.83,0,0,0-13.968,9.86c-2.794,9.2-5.423,24.486-2.958,47,0,0,1.972,12.161,0,20.049C71.96,240.782,62.1,285.152,60.292,293.2a18.6,18.6,0,0,1-.986,2.629,5.761,5.761,0,0,1-1.972,2.3c-1.808,1.479-1.315,2.958.822,5.752,1.808,2.3-.164,5.259,2.136,6.245,3.122,1.315,5.259,1.643,5.752.986.657-.986-.164-1.315-2.629-3.451-.986-.822-.822-3.615-.493-6.245a24.92,24.92,0,0,1,2.465-8.217C70.645,282.522,86.257,250.477,90.694,237.495Z" transform="translate(36.182 100.868)" fill="#fab9af"/>
    <path id="Path_30057" data-name="Path 30057" d="M111.442,246.6q-21.939,5.669-46.342,0c1.315-6.08,2.465-11.01,2.958-12.982,1.972-7.888,0-20.049,0-20.049-2.465-22.349.164-37.8,2.958-47a13.831,13.831,0,0,1,13.968-9.86l12.654.986h0l5.259.493A12.9,12.9,0,0,1,114.071,168.7a199.227,199.227,0,0,1-.986,64.747Z" transform="translate(41.891 100.803)" fill="#6469d4"/>
    <path id="Path_30058" data-name="Path 30058" d="M72.807,212.252c-1.643,3.78-3.122,7.724-4.6,11.668-.164-5.587-.822-10.353-.822-10.353-2.465-22.349.164-37.8,2.958-47a13.83,13.83,0,0,1,13.968-9.86l4.6.329h0l8.052.657h0l5.259.493A12.9,12.9,0,0,1,113.4,168.7c.329,1.972.657,4.437.986,6.9C93.349,175.113,80.366,194.34,72.807,212.252Z" transform="translate(42.73 100.803)" fill="#5159bf"/>
    <path id="Path_30059" data-name="Path 30059" d="M124.892,122.945c1.972-9.86,3.944-35.332,3.944-35.332-.986-1.315-5.094-3.122-6.409-1.315l-8.052,35c-8.874,10.846-16.1,20.87-19.391,25.8a7.983,7.983,0,0,1-5.587,3.287,86.561,86.561,0,0,0-14.133,2.136C53.735,158.112,62.609,166,62.609,166a34.769,34.769,0,0,1,6.409,9.038c2.794,5.916,6.245,13.475,8.381,17.912.822,2.794-1.643,11.175-2.629,13.8L72.8,212.671a1.709,1.709,0,0,0,.986,2.136c9.7,3.287,29.251,3.78,41.741-.164a2.168,2.168,0,0,0,1.315-3.287l-9.2-25.143c-2.465-5.259-1.972-6.573-.329-9.7a7,7,0,0,0,.657-5.752,27.011,27.011,0,0,0-2.465-4.93,7.93,7.93,0,0,1,.657-9.2C113.388,147.759,123.084,131.983,124.892,122.945Z" transform="translate(39.123 55.029)" fill="#b0b0ff"/>
    <path id="Path_30060" data-name="Path 30060" d="M70.886,107.127c-6.409,1.808-7.559,7.066-5.259,15.612a16.869,16.869,0,0,0,4.93,7.559,6.581,6.581,0,0,1,1.972,4.766l-.164,5.259c.329,4.766,3.122,6.573,6.409,6.573a6.389,6.389,0,0,0,4.6-2.136c1.315-1.479.822-3.78,0-5.587l-.822-1.315a3.563,3.563,0,0,1,1.315-4.93,12.485,12.485,0,0,0,3.615-2.794c.822-.986,1.315-8.545-2.136-16.269C81.9,105.976,77.459,105.319,70.886,107.127Z" transform="translate(41.528 68.381)" fill="#fab9af"/>
    <path id="Path_30061" data-name="Path 30061" d="M78.973,119.409a1.531,1.531,0,0,1-.986,2.136h0a1.514,1.514,0,0,1-1.808-1.15L74.7,113.986a.988.988,0,0,1,.164-.657c.164-.164.329-.329.493-.329a1.255,1.255,0,0,1,.822.329Z" transform="translate(48.067 72.697)" fill="#fa968c"/>
    <path id="Path_30062" data-name="Path 30062" d="M69.473,117.778c.493,1.972,1.15,4.437-.493,4.93-1.808.493-4.437-2.629-4.93-4.6s.493-2.794,2.136-3.287C67.83,114.491,68.816,115.806,69.473,117.778Z" transform="translate(41.134 73.835)" fill="#fab9af"/>
    <path id="Path_30063" data-name="Path 30063" d="M63.77,115.079c5.259-10.024,16.433-13.311,22.021-9.86,3.122,1.808,7.231,9.86.493,10.024a8.835,8.835,0,0,1-4.6-1.315A2.442,2.442,0,0,0,80.2,113.6l-4.437,1.479a6.9,6.9,0,0,0-4.273,8.874l.493,1.315a.837.837,0,0,1-1.15.986l-.329-.493a5.327,5.327,0,0,0-3.287-2.629C64.263,122.145,60.648,121.159,63.77,115.079Z" transform="translate(40.263 66.838)" fill="#5046af"/>
    <path id="Path_30064" data-name="Path 30064" d="M73.754,188.8a30.224,30.224,0,0,0-2.465-3.78c-.164-.164-.986-.657-1.15-.822-.657-.493-1.643-.986-1.808-1.808l-1.15-2.958c-.493-1.479-1.643-2.3-3.122-1.643h0c-1.479.657-1.808,2.136-.986,3.615l.822,2.136a7.386,7.386,0,0,1,.657,3.78c.164,2.629,1.808,5.259,3.451,7.231.986,1.315,3.122,1.479,5.916,1.479,1.315,0,3.615-.329,2.3-1.479-1.15-.986-5.259-1.315-5.752-5.587,0-.164,0-.657.164-.822.657-.329,1.479,1.315,1.972,1.808a2.342,2.342,0,0,0,2.136.822C75.4,190.279,74.576,189.786,73.754,188.8Z" transform="translate(40.304 114.231)" fill="#fab9af"/>
    <g id="Group_2507" data-name="Group 2507" transform="translate(178.312 69.349)">
      <path id="Path_30065" data-name="Path 30065" d="M146.3,173.6l-22.021,18.405A43.973,43.973,0,0,0,108.5,225.858v74.607h0a15.429,15.429,0,0,0,15.447-15.447v-8.71a64.864,64.864,0,0,1,23.171-49.629L167.5,209.589Z" transform="translate(-108.5 42.334)" fill="#827ddc"/>
      <path id="Path_30066" data-name="Path 30066" d="M187.9,173.6l22.021,18.405A43.973,43.973,0,0,1,225.7,225.858v74.607h0a15.429,15.429,0,0,1-15.447-15.447v-8.71a64.864,64.864,0,0,0-23.171-49.629L166.7,209.589Z" transform="translate(-71.058 42.334)" fill="#827ddc"/>
      <path id="Path_30067" data-name="Path 30067" d="M187.9,173.6l22.021,18.405A43.973,43.973,0,0,1,225.7,225.858v74.607h0a15.429,15.429,0,0,1-15.447-15.447v-8.71a64.864,64.864,0,0,0-23.171-49.629L166.7,209.589Z" transform="translate(-71.058 42.334)" opacity="0.21"/>
      <path id="Path_30068" data-name="Path 30068" d="M197.624,246.571H141.093a6.61,6.61,0,0,1-6.573-7.395l5.094-41.576h59.653l5.094,41.576A6.828,6.828,0,0,1,197.624,246.571Z" transform="translate(-91.793 57.774)" fill="#6469d4"/>
      <path id="Path_30069" data-name="Path 30069" d="M179.012,246.507H163.4V197.7h17.091l5.094,41.576A6.555,6.555,0,0,1,179.012,246.507Z" transform="translate(-73.181 57.838)" fill="#6469d4"/>
      <path id="Path_30070" data-name="Path 30070" d="M194.048,307.105a20.455,20.455,0,0,0,20.213-16.6,424.22,424.22,0,0,0,7.066-79.044c0-82.824-36.975-169.263-47.164-169.263C162,42.2,127,128.639,127,211.463c0,29.087,2.629,56.2,7.066,79.044a20.586,20.586,0,0,0,20.213,16.6Z" transform="translate(-96.598 -42.2)" fill="#fff"/>
      <path id="Path_30071" data-name="Path 30071" d="M200.712,110.891C189.208,70.794,174.583,42.2,168.5,42.2c-7.066,0-21.692,28.594-32.7,68.691Z" transform="translate(-90.937 -42.2)" fill="#fff"/>
      <path id="Path_30072" data-name="Path 30072" d="M196.431,100.7c-10.846-34.674-23.664-58.5-29.087-58.5-6.409,0-19.063,23.828-29.744,58.5Z" transform="translate(-89.779 -42.2)" fill="#827ddc"/>
      <path id="Path_30073" data-name="Path 30073" d="M141.2,96.052h6.245c5.916-19.227,8.545-32.7,13.475-45.356.329-.986-1.15-1.808-1.643-.822C154.347,58.091,148.431,72.552,141.2,96.052Z" transform="translate(-87.463 -37.549)" fill="#928deb"/>
      <path id="Path_30074" data-name="Path 30074" d="M202.377,149.988A33.688,33.688,0,1,1,168.688,116.3,33.734,33.734,0,0,1,202.377,149.988Z" transform="translate(-91.452 5.471)" opacity="0.39"/>
      <path id="Path_30075" data-name="Path 30075" d="M202.377,147.788A33.688,33.688,0,1,1,168.688,114.1,33.734,33.734,0,0,1,202.377,147.788Z" transform="translate(-91.452 4.056)" fill="#827ddc"/>
      <path id="Path_30076" data-name="Path 30076" d="M155.629,114.1H155.3v67.377h.329a33.688,33.688,0,1,0,0-67.377Z" transform="translate(-78.392 4.056)" opacity="0.21"/>
      <path id="Path_30077" data-name="Path 30077" d="M187.513,143.607A23.007,23.007,0,1,1,164.507,120.6,23.074,23.074,0,0,1,187.513,143.607Z" transform="translate(-87.27 8.237)" fill="#d2f0ff"/>
      <path id="Path_30078" data-name="Path 30078" d="M188.55,244.162h-43.22a7.3,7.3,0,0,1-7.231-7.231V227.4h57.517v9.531A6.86,6.86,0,0,1,188.55,244.162Z" transform="translate(-89.457 76.945)" fill="#b0b0ff"/>
      <path id="Path_30079" data-name="Path 30079" d="M170.859,244.162H165.6V227.4h12.489v9.531A7.089,7.089,0,0,1,170.859,244.162Z" transform="translate(-71.766 76.945)" fill="#9797ef"/>
      <path id="Path_30080" data-name="Path 30080" d="M159.505,301.359l-.329.493h0a22.587,22.587,0,0,1-5.752-14.133L150.3,190.27a22.661,22.661,0,0,1,8.71-18.57h0a22.312,22.312,0,0,1,8.71,18.734l-3.287,97.778A19.912,19.912,0,0,1,159.505,301.359Z" transform="translate(-81.611 41.112)" fill="#827ddc"/>
      <path id="Path_30081" data-name="Path 30081" d="M156.029,301.423l-.329.493h0V171.6h0a22.312,22.312,0,0,1,8.71,18.734l-3.287,97.778A21.094,21.094,0,0,1,156.029,301.423Z" transform="translate(-78.135 41.047)" opacity="0.21"/>
      <path id="Path_30082" data-name="Path 30082" d="M176.038,122.9v1.315a29.912,29.912,0,0,1-29.909,29.909,13.283,13.283,0,0,1-2.629-.164A23.032,23.032,0,1,0,176.038,122.9Z" transform="translate(-85.983 9.717)" fill="#afe6ff"/>
    </g>
    <path id="Path_30083" data-name="Path 30083" d="M68.384,130.483c2.136-2.136,7.066-2.794,11.668-1.808,4.437.822-5.094,31.388-13.8,45.685a6.25,6.25,0,0,0-.822,5.094l9.367,33.2c-1.15,2.3-3.122,2.629-5.259,2.958L53.758,181.1a16.067,16.067,0,0,1-.986-10.353C55.566,159.9,62.139,136.892,68.384,130.483Z" transform="translate(33.677 82.493)" fill="#b0b0ff"/>
    <g id="Group_2510" data-name="Group 2510" transform="translate(292.688 160.882)">
      <path id="Path_30084" data-name="Path 30084" d="M234.989,238.872l2.465,9.7.493.986,1.808,2.629a2.867,2.867,0,0,1-1.643,4.437s-3.615,1.315-7.231,2.465c-3.78,1.15-8.381.164-8.381-.822,0-2.136,1.972-.493,5.423-2.794L231.374,253c2.958-2.3.329-8.217-1.479-11.5-.657-1.15,0-4.108,1.315-4.437l.822-.164A2.874,2.874,0,0,1,234.989,238.872Z" transform="translate(-149.536 -8.477)" fill="#fab9af"/>
      <path id="Path_30085" data-name="Path 30085" d="M232.276,192.569c-.657-1.808-1.315-3.615-1.643-4.437a7.146,7.146,0,0,0-.986-1.15,8.353,8.353,0,0,1-1.479-2.136l-.493-3.122c-.164-1.479-1.15-2.629-2.629-2.3h0c-1.643.329-2.136,1.808-1.808,3.451l.329,2.3a8.031,8.031,0,0,1-.164,3.944,14.924,14.924,0,0,0,1.808,8.052c.657,1.479,2.794,2.136,5.587,2.794,1.315.329,3.615.493,2.465-.986-.822-1.15-5.094-2.465-4.437-6.738,0-.164.164-.822.329-.822.822-.164,1.15,1.479,1.643,2.3.657,1.15,1.643,1.479,2.136,1.315C233.591,194.541,232.933,193.719,232.276,192.569Z" transform="translate(-149.123 -45.49)" fill="#fab9af"/>
      <path id="Path_30086" data-name="Path 30086" d="M262.564,130.019c-4.437,13.8-15.612,39.769-32.209,48.971-11.175,6.245-38.29,15.447-38.29,15.447s-.822-1.15-1.479-2.136a8.649,8.649,0,0,1-.986-2.465s33.688-17.255,38.29-22.349c4.437-4.93,19.556-36.975,24.157-41.905C257.305,119.666,265.029,122.131,262.564,130.019Z" transform="translate(-170.702 -82.198)" fill="#b0b0ff"/>
      <path id="Path_30087" data-name="Path 30087" d="M225.1,198.68l10.682-74.936L264.54,119.8l14.954,78.387Z" transform="translate(-147.863 -83.811)" fill="#fab9af"/>
      <path id="Path_30088" data-name="Path 30088" d="M268.361,237.844l2.958,9.7a8.019,8.019,0,0,0,.493,1.15l2.136,3.122a3.484,3.484,0,0,1-1.808,5.259s-4.108,1.479-8.381,2.794c-4.437,1.479-9.86.164-9.86-.986,0-2.629,2.465-.493,6.409-3.287a34.032,34.032,0,0,0,3.944-2.794c3.451-2.794.493-9.531-1.643-13.475a2.334,2.334,0,0,1,1.643-3.451l.986-.164A3.073,3.073,0,0,1,268.361,237.844Z" transform="translate(-129.335 -9.257)" fill="#fab9af"/>
      <path id="Path_30089" data-name="Path 30089" d="M262.741,169.229,230.86,166.6s-11.339,40.426-14.3,58.5c-2.136,12.982,17.584,63.268,17.584,63.268,1.972.822,3.78-.164,5.916-.657,0,0-5.916-44.37-3.944-55.216,2.136-11.339,19.063-34.181,20.213-40.1A146.543,146.543,0,0,1,262.741,169.229Z" transform="translate(-153.459 -53.703)" fill="#5046af"/>
      <path id="Path_30090" data-name="Path 30090" d="M242.513,171.547c-3.287,17.584-10.682,44.041,3.451,68.856s29.087,50.615,29.087,50.615a8.851,8.851,0,0,0,5.259-1.808s-2.465-11.175-6.08-24.321c-4.108-14.954-9.367-32.7-7.888-41.9,2.794-17.255,5.916-40.262,4.93-51.436C270.45,160.208,244.321,162.18,242.513,171.547Z" transform="translate(-139.805 -55.527)" fill="#5046af"/>
      <path id="Path_30091" data-name="Path 30091" d="M226.012,199.666a2.558,2.558,0,0,1-1.479-2.958l11.832-72.964,28.758-3.944,15.447,77.072a2.629,2.629,0,0,1-2.136,3.122,187.744,187.744,0,0,1-32.7,3.122C234.886,203.117,228.806,201.145,226.012,199.666Z" transform="translate(-148.282 -83.811)" fill="#d2f0ff"/>
      <path id="Path_30092" data-name="Path 30092" d="M245.517,138.934c3.451,9.531,9.038,28.265,5.916,44.7C247,206.8,241.08,216.171,248.639,221.594s21.856-3.615,22.349-6.573-2.794-39.933-6.409-55.873-13.8-38.947-13.8-38.947l-5.259.493C245.188,120.529,243.873,134.333,245.517,138.934Z" transform="translate(-135.249 -83.554)" fill="#b0b0ff"/>
      <path id="Path_30093" data-name="Path 30093" d="M243.9,121.8s-2.3,10.353-.493,25.965c1.808,15.447,5.752,62.611-8.381,69.842-4.437,2.3-14.626-9.367-14.626-11.5,0-3.78,3.451-16.1,6.573-27.444,2.629-9.038,5.259-39.276,6.08-50.943a5.6,5.6,0,0,1,4.93-5.094Z" transform="translate(-150.887 -82.524)" fill="#b0b0ff"/>
      <g id="Group_2508" data-name="Group 2508" transform="translate(81.181)">
        <path id="Path_30094" data-name="Path 30094" d="M252.537,102.529a11.248,11.248,0,0,0,2.136,7.559c2.629,3.122-1.15,6.08-2.136,8.217-.822,2.136.164,5.423-2.3,6.9s-9.531,1.808-10.682-.657C238.4,121.921,244.485,101.05,252.537,102.529Z" transform="translate(-219.835 -94.97)" fill="#41378c"/>
        <path id="Path_30095" data-name="Path 30095" d="M230,111.211c-.329,14.133,12.818,16.926,20.542,16.926s8.052-16.926,8.052-23.171c0-6.08-6.08-7.066-13.64-7.066-6.08,0-11.832,4.766-14.133,9.2C230,108.253,230.167,109.9,230,111.211Z" transform="translate(-225.894 -97.9)" fill="#41378c"/>
        <path id="Path_30096" data-name="Path 30096" d="M243.686,101.2c6.409,0,8.874,4.6,8.874,12.982a18.618,18.618,0,0,1-2.465,8.381,6.472,6.472,0,0,0-.657,4.93l1.479,4.766c.986,4.437-1.15,6.9-4.273,7.724a5.526,5.526,0,0,1-4.766-.822c-1.643-.986-1.808-3.287-1.479-5.094l.329-1.315a3.428,3.428,0,0,0-2.465-4.273c-4.93-1.15-5.587-6.245-6.9-14.3C230.046,105.966,237.277,101.2,243.686,101.2Z" transform="translate(-225.117 -95.777)" fill="#fab9af"/>
        <path id="Path_30097" data-name="Path 30097" d="M231.115,99.386l3.615,1.15a5.891,5.891,0,0,0,4.108,0l7.4-2.136c4.437,0,11.832,2.465,10.846,8.874l-.822,4.6a4.014,4.014,0,0,1-3.615,3.287h0a1.377,1.377,0,0,1-1.315.986,1.473,1.473,0,0,1-1.479-1.479h0A4.543,4.543,0,0,0,246.4,110.4a18.228,18.228,0,0,0-7.888,0c-5.094,1.315-10.517-1.808-11.01-7.066v-.986A2.954,2.954,0,0,1,231.115,99.386Z" transform="translate(-227.5 -97.578)" fill="#41378c"/>
        <path id="Path_30098" data-name="Path 30098" d="M242.1,110.655c0,1.972.657,3.615,2.629,3.615,1.808,0,3.122-2.629,3.122-4.6s-1.15-2.465-3.122-2.465C242.757,107.04,242.1,108.683,242.1,110.655Z" transform="translate(-218.107 -91.921)" fill="#fab9af"/>
        <path id="Path_30099" data-name="Path 30099" d="M232.51,115.438a1.484,1.484,0,0,0,1.479,1.808h0a1.449,1.449,0,0,0,1.479-1.315v-6.245a1.246,1.246,0,0,0-.329-.657.854.854,0,0,0-.657-.329c-.329,0-.657.164-.657.493Z" transform="translate(-224.293 -90.952)" fill="#fa968c"/>
      </g>
      <path id="Path_30100" data-name="Path 30100" d="M242.55,128.6a1.092,1.092,0,0,1,.822.657c.986,3.122,5.423,17.584,6.409,25.472.822,6.409-1.808,17.584-3.287,23.335a9.027,9.027,0,0,1-4.108,5.423l-.986.657a1.855,1.855,0,0,1-2.465-.657l-.822-1.479a4.593,4.593,0,0,1-.329-3.615c1.808-4.6,6.08-16.6,5.587-24.486-.164-2.794-2.794-19.884-3.615-24.157a.823.823,0,0,1,.822-.986Z" transform="translate(-139.842 -78.15)" fill="#afe6ff"/>
      <path id="Path_30101" data-name="Path 30101" d="M242.325,127.464a1.092,1.092,0,0,1,.822.657c.986,3.122,5.094,17.748,5.916,25.636.657,6.409-2.136,17.584-3.78,23.171a8.837,8.837,0,0,1-4.108,5.259l-.986.493a1.855,1.855,0,0,1-2.465-.657l-.822-1.479a4.014,4.014,0,0,1-.164-3.615c1.808-4.437,6.409-16.433,6.245-24.321,0-2.794-2.465-19.884-2.958-24.321a.92.92,0,0,1,.822-.986Z" transform="translate(-140.603 -78.986)" fill="#5159bf"/>
      <path id="Path_30102" data-name="Path 30102" d="M238.822,129.466h2.794a.776.776,0,0,0,.822-.822V125.85a.776.776,0,0,0-.822-.822l-2.465-.329a1.4,1.4,0,0,0-1.15,1.15v2.794A.776.776,0,0,0,238.822,129.466Z" transform="translate(-139.564 -80.659)" fill="#5159bf"/>
      <path id="Path_30103" data-name="Path 30103" d="M244.959,119.7l4.6.822s-.986,7.559-4.6,13.147a.794.794,0,0,1-1.15,0l-3.287-4.6a1.48,1.48,0,0,1,0-1.808Z" transform="translate(-138.142 -83.875)" fill="#fff"/>
      <path id="Path_30104" data-name="Path 30104" d="M238.7,120.9l-4.6,1.479s-.164,4.6,3.451,10.024a.794.794,0,0,0,1.15,0l2.629-4.273a1.945,1.945,0,0,0,.164-1.643Z" transform="translate(-142.074 -83.103)" fill="#fff"/>
      <g id="Group_2509" data-name="Group 2509" transform="translate(0 31.388)">
        <path id="Path_30105" data-name="Path 30105" d="M278.234,176.015v-9.7a4.068,4.068,0,0,0-4.108-4.108h-2.958a4.447,4.447,0,0,1-4.273-2.958,28.349,28.349,0,0,0-1.643-3.944,4.466,4.466,0,0,1,.822-5.094l2.136-2.136a3.971,3.971,0,0,0,0-5.752l-6.9-6.9a3.971,3.971,0,0,0-5.752,0l-2.136,2.136a4.512,4.512,0,0,1-5.094.822,40.144,40.144,0,0,0-3.944-1.643,4.447,4.447,0,0,1-2.958-4.273v-2.958a4.068,4.068,0,0,0-4.108-4.108h-9.7a4.068,4.068,0,0,0-4.108,4.108v2.958a4.447,4.447,0,0,1-2.958,4.273,28.351,28.351,0,0,0-3.944,1.643,4.466,4.466,0,0,1-5.094-.822l-2.136-2.136a3.971,3.971,0,0,0-5.752,0l-6.9,6.9a3.971,3.971,0,0,0,0,5.752l2.136,2.136a4.512,4.512,0,0,1,.822,5.094,40.139,40.139,0,0,0-1.643,3.944,4.447,4.447,0,0,1-4.273,2.958h-2.958a4.068,4.068,0,0,0-4.108,4.108v9.7a4.068,4.068,0,0,0,4.108,4.108h2.958a4.447,4.447,0,0,1,4.273,2.958,28.35,28.35,0,0,0,1.643,3.944,4.466,4.466,0,0,1-.822,5.094l-2.136,2.136a3.971,3.971,0,0,0,0,5.752l6.9,6.9a3.971,3.971,0,0,0,5.752,0l2.136-2.136a4.512,4.512,0,0,1,5.094-.822,40.148,40.148,0,0,0,3.944,1.643,4.447,4.447,0,0,1,2.958,4.273v2.958a4.068,4.068,0,0,0,4.108,4.108h9.7a4.068,4.068,0,0,0,4.108-4.108v-2.958a4.447,4.447,0,0,1,2.958-4.273,28.353,28.353,0,0,0,3.944-1.643,4.466,4.466,0,0,1,5.094.822l2.136,2.136a3.971,3.971,0,0,0,5.752,0l6.9-6.9a3.971,3.971,0,0,0,0-5.752l-2.136-2.136a4.512,4.512,0,0,1-.822-5.094,40.144,40.144,0,0,0,1.643-3.944,4.447,4.447,0,0,1,4.273-2.958h2.958A4.174,4.174,0,0,0,278.234,176.015Zm-44.206,17.091a22.095,22.095,0,1,1,20.213-20.213A22.019,22.019,0,0,1,234.028,193.105Z" transform="translate(-172.567 -111.596)" fill="#6e64c3"/>
        <path id="Path_30106" data-name="Path 30106" d="M297.242,182.9V170.244a5.191,5.191,0,0,0-5.259-5.259h-3.944a6.045,6.045,0,0,1-5.587-3.944c-.657-1.808-1.315-3.451-2.136-5.259a5.755,5.755,0,0,1,1.15-6.738l2.794-2.794a5.067,5.067,0,0,0,0-7.4l-8.874-8.874a5.067,5.067,0,0,0-7.395,0l-2.794,2.794a5.755,5.755,0,0,1-6.738,1.15,50.194,50.194,0,0,0-5.259-2.136,5.882,5.882,0,0,1-3.944-5.587v-3.944A5.191,5.191,0,0,0,244,117H231.344a5.191,5.191,0,0,0-5.259,5.259V126.2a6.045,6.045,0,0,1-3.944,5.587c-1.808.657-3.451,1.315-5.259,2.136a5.755,5.755,0,0,1-6.738-1.15l-2.794-2.794a5.067,5.067,0,0,0-7.4,0l-8.874,8.874a5.067,5.067,0,0,0,0,7.4l2.794,2.794a5.755,5.755,0,0,1,1.15,6.738,50.194,50.194,0,0,0-2.136,5.259,5.882,5.882,0,0,1-5.587,3.944h-3.944a5.191,5.191,0,0,0-5.259,5.259V182.9a5.191,5.191,0,0,0,5.259,5.259H187.3a6.045,6.045,0,0,1,5.587,3.944c.657,1.808,1.315,3.451,2.136,5.259a5.755,5.755,0,0,1-1.15,6.738l-2.794,2.794a5.067,5.067,0,0,0,0,7.395l8.874,8.874a5.067,5.067,0,0,0,7.4,0l2.794-2.794a5.755,5.755,0,0,1,6.738-1.15,50.2,50.2,0,0,0,5.259,2.136,5.882,5.882,0,0,1,3.944,5.587v3.944a5.191,5.191,0,0,0,5.259,5.259H244a5.191,5.191,0,0,0,5.259-5.259v-3.944a6.045,6.045,0,0,1,3.944-5.587c1.808-.657,3.451-1.315,5.259-2.136a5.755,5.755,0,0,1,6.738,1.15l2.794,2.794a5.067,5.067,0,0,0,7.395,0l8.874-8.874a5.067,5.067,0,0,0,0-7.395l-2.794-2.794a5.755,5.755,0,0,1-1.15-6.738,50.2,50.2,0,0,0,2.136-5.259,5.882,5.882,0,0,1,5.587-3.944h3.944A5.3,5.3,0,0,0,297.242,182.9Zm-57.188,22.185a28.686,28.686,0,1,1,26.293-26.293A28.739,28.739,0,0,1,240.054,205.083Z" transform="translate(-178.1 -117)" fill="#827ddc"/>
        <circle id="Ellipse_71" data-name="Ellipse 71" cx="38.29" cy="38.29" r="38.29" transform="matrix(0.664, -0.748, 0.748, 0.664, 5.584, 62.756)" fill="none" stroke="#41378c" stroke-miterlimit="10" stroke-width="2.961"/>
        <path id="Path_30107" data-name="Path 30107" d="M191.2,168.19a38.328,38.328,0,0,1,38.29-38.29" transform="translate(-169.672 -108.701)" fill="none" stroke="#5046af" stroke-linecap="round" stroke-miterlimit="10" stroke-width="2.961"/>
      </g>
      <path id="Path_30108" data-name="Path 30108" d="M220.465,136.66a2.576,2.576,0,0,0,.329-3.615l-.986-1.315a8.644,8.644,0,0,1-1.972-5.259c0-1.315-.822-5.094-2.136-4.766-1.15.164,0,4.766-1.15,4.6-.493,0-2.465-3.287-3.944-5.259-.822-.986-2.3-1.643-2.465-.657-.164.657-.822.657-1.479,1.15s-.329,3.78-.329,4.766c0,1.15-.329,1.479,1.315,3.287,1.315,1.479,6.9,5.094,6.9,5.094l2.465,1.643a2.406,2.406,0,0,0,3.451.329Z" transform="translate(-159.99 -83.745)" fill="#fab9af"/>
      <path id="Path_30109" data-name="Path 30109" d="M216.008,131.485s23.171,22.349,28.594,24.157,21.035-30.4,23.828-33.688c4.6-5.587,14.626.164,12.818,10.353-2.136,12.818-32.867,37.8-36.646,38.125s-32.7-34.017-32.7-34.017C212.393,134.772,213.708,133.129,216.008,131.485Z" transform="translate(-156.355 -83.829)" fill="#b0b0ff"/>
    </g>
    <path id="Path_30110" data-name="Path 30110" d="M134.192,41.724l1.15,3.615a1.98,1.98,0,0,0,.822.822l3.615,1.15a1.192,1.192,0,0,1,.329,2.136l-3.122,2.3a1.171,1.171,0,0,0-.493.986v3.78a1.178,1.178,0,0,1-1.808.986l-3.122-2.3a1.35,1.35,0,0,0-1.15-.164L126.8,56.349a1.133,1.133,0,0,1-1.479-1.479l1.15-3.615a1.443,1.443,0,0,0-.164-1.15L124,47.147a1.226,1.226,0,0,1,.986-1.972h3.78a1.171,1.171,0,0,0,.986-.493l2.136-3.122C132.713,40.573,133.864,40.738,134.192,41.724Z" transform="translate(79.616 26.31)" fill="#fff"/>
    <g id="Group_2511" data-name="Group 2511" transform="translate(197.709 61.789)">
      <path id="Path_30111" data-name="Path 30111" d="M134.1,38.75h0a6.162,6.162,0,0,1,1.808.164,12.562,12.562,0,0,1-1.972,24.979,6.162,6.162,0,0,1-1.808-.164,12.5,12.5,0,0,1-10.517-14.3A12.837,12.837,0,0,1,134.1,38.75m0-1.15a13.718,13.718,0,0,0-2.136,27.279,8.682,8.682,0,0,0,2.136.164,13.718,13.718,0,0,0,2.136-27.279A8.682,8.682,0,0,0,134.1,37.6Z" transform="translate(-120.304 -37.6)" fill="#fff"/>
    </g>
    <path id="Path_30112" data-name="Path 30112" d="M446.926,256.159H14.729a2.6,2.6,0,0,1-2.629-2.629h0a2.6,2.6,0,0,1,2.629-2.629h432.2a2.6,2.6,0,0,1,2.629,2.629h0A2.7,2.7,0,0,1,446.926,256.159Z" transform="translate(7.794 161.413)" fill="#d2f0ff"/>
  </g>
</svg>
