<svg id="Group_2533" data-name="Group 2533" xmlns="http://www.w3.org/2000/svg" width="362.375" height="342.828" viewBox="0 0 362.375 342.828">
  <g id="Group_2513" data-name="Group 2513" transform="translate(36.765 243.368)">
    <path id="Path_30113" data-name="Path 30113" d="M28.052,223.845a3.008,3.008,0,0,1-2.787-1.907,2.978,2.978,0,0,1,1.614-3.814l44.6-17.31a2.861,2.861,0,0,1,2.2,0l40.488,16.577,32.42-50.17a2.882,2.882,0,0,1,2.494-1.32,3.025,3.025,0,0,1,2.494,1.467L181.789,216.8l20.244-15.256a2.882,2.882,0,0,1,3.667.147l19.8,16.577H336.7a2.934,2.934,0,1,1,0,5.868H224.477a3.09,3.09,0,0,1-1.907-.733l-18.777-15.7-20.977,15.55a3.339,3.339,0,0,1-2.347.587,2.584,2.584,0,0,1-1.907-1.32l-29.486-48.116-31.246,48.263a3,3,0,0,1-3.521,1.174l-41.662-16.87-43.569,16.87Z" transform="translate(-25.062 -165.9)" fill="#e1e1ff"/>
  </g>
  <g id="Group_2519" data-name="Group 2519" transform="translate(0 25.965)">
    <g id="Group_2515" data-name="Group 2515">
      <path id="Path_30114" data-name="Path 30114" d="M29.6,135.4a200.753,200.753,0,0,1,10.709,28.9,298.293,298.293,0,0,1,7.041,30.073L48.524,202c.44,2.494.733,5.134,1.027,7.628l.88,7.628.733,7.775.293,3.814.147,3.814.44,7.775c.147,5.134.147,10.269.293,15.55H49.4c0-5.134.147-10.269.147-15.4l-.147-7.628-.147-3.814-.293-3.814-.44-7.628-.733-7.628c-.293-2.494-.587-5.134-.88-7.628l-1.027-7.628a307.065,307.065,0,0,0-6.308-30.219A185.116,185.116,0,0,0,29.6,135.4Z" transform="translate(13.822 37.261)" fill="#e1e1ff"/>
      <g id="Group_2514" data-name="Group 2514">
        <path id="Path_30115" data-name="Path 30115" d="M0,77.1s34.62,19.657,49.29,38.141c14.67,18.337,14.67,67.773,14.67,75.108,0,0-17.31-55.3-28.312-63.959C24.351,117.735,6.455,103.945,0,77.1Z" transform="translate(0 10.037)" fill="#b0b0ff"/>
        <path id="Path_30116" data-name="Path 30116" d="M9.593,88.3a114.525,114.525,0,0,1,11,7.775c3.521,2.787,7.188,5.428,10.415,8.508A68.558,68.558,0,0,1,40.4,114.705a21.7,21.7,0,0,1,1.907,3.081l.88,1.76.587,1.467,2.641,6.161a238.044,238.044,0,0,1,14.67,51.93,235.186,235.186,0,0,1,3.227,26.845c.733,8.948.88,17.9,1.027,26.845.293,17.9,0,35.794-1.174,53.691h-.293c.147-17.9,0-35.794-.587-53.691-.293-8.948-.88-17.9-1.614-26.7-.733-8.948-1.76-17.75-3.374-26.552a264.262,264.262,0,0,0-14.229-51.637L41.573,121.6a27.432,27.432,0,0,0-2.934-5.868,71.361,71.361,0,0,0-8.8-10.122A232.865,232.865,0,0,0,9.3,88.3Z" transform="translate(4.343 15.267)" fill="#e1e1ff"/>
        <path id="Path_30117" data-name="Path 30117" d="M64.616,90.085S48.48,111.062,48.187,134.24s-5.134,53.251-3.814,67.04c0,0,9.1-44.155,14.523-56.625C64.323,132.333,93.515,73.362,120.214,65,120.214,65,85.447,65.293,64.616,90.085Z" transform="translate(20.614 4.387)" fill="#b0b0ff"/>
        <path id="Path_30118" data-name="Path 30118" d="M95.49,72.4A55,55,0,0,0,81.7,83.255,81.038,81.038,0,0,0,71.139,97.192c-6.308,9.975-9.682,21.124-12.763,32.566-1.467,5.721-2.934,11.442-4.107,17.163-1.32,5.721-2.494,11.589-3.667,17.31s-2.347,11.589-3.374,17.457c-1.174,5.868-2.2,11.589-3.227,17.457.88-11.882,2.347-23.618,4.254-35.354s4.254-23.325,7.335-34.914a176.292,176.292,0,0,1,5.428-17.017c1.174-2.787,2.347-5.574,3.667-8.215l2.2-3.961c.733-1.32,1.614-2.494,2.347-3.814A73.319,73.319,0,0,1,80.674,82.082C85.221,78.268,89.916,74.6,95.49,72.4Z" transform="translate(20.546 7.842)" fill="#e1e1ff"/>
        <path id="Path_30119" data-name="Path 30119" d="M31.431,40c-4.548,7.481-6.748,19.07-2.641,35.207s19.511,58.091,19.8,73.2c0,0,3.227-41.221,0-63.959C45.367,61.855,49.768,28.115,52.409,17.7,52.409,17.7,35.392,33.4,31.431,40Z" transform="translate(12.431 -17.7)" fill="#b0b0ff"/>
        <path id="Path_30120" data-name="Path 30120" d="M40.821,27.2a48.957,48.957,0,0,0-6.455,22.444A52.629,52.629,0,0,0,35.1,61.38c.147,1.027.44,1.907.587,2.934a20.771,20.771,0,0,1,.587,2.934c.44,1.907,1.027,3.814,1.467,5.868a394.316,394.316,0,0,1,7.922,47.089c.88,7.922,1.467,15.843,1.614,23.911.147,7.922.44,15.843.587,23.765.587,15.843,1.027,31.686,1.467,47.676-1.467-15.843-2.787-31.686-3.814-47.529-.44-7.922-.88-15.843-1.174-23.765s-.88-15.7-1.76-23.618-1.907-15.7-3.081-23.471-2.641-15.55-4.107-23.325c-.44-1.907-.88-3.814-1.32-5.868a39.589,39.589,0,0,1-1.027-6.015A47.173,47.173,0,0,1,32.9,49.938,64.291,64.291,0,0,1,35.394,38.2,38.518,38.518,0,0,1,40.821,27.2Z" transform="translate(15.216 -13.264)" fill="#e1e1ff"/>
      </g>
      <path id="Path_30121" data-name="Path 30121" d="M50.179,179.8c-.293,8.215-.293,16.577-.147,24.792a231.664,231.664,0,0,0,1.614,24.645l-2.934.293c-.44-8.362-.44-16.577-.147-24.938C49.005,196.377,49.445,188.015,50.179,179.8Z" transform="translate(22.582 57.994)" fill="#e1e1ff"/>
    </g>
    <g id="Group_2518" data-name="Group 2518" transform="translate(46.649 278.722)">
      <g id="Group_2516" data-name="Group 2516" transform="translate(2.494 7.775)">
        <path id="Path_30122" data-name="Path 30122" d="M64.6,239.259H40.248a3.968,3.968,0,0,1-3.961-3.521L33.5,213H71.347L68.56,235.885A3.858,3.858,0,0,1,64.6,239.259Z" transform="translate(-33.5 -213)" fill="#e1e1ff"/>
      </g>
      <g id="Group_2517" data-name="Group 2517">
        <path id="Path_30123" data-name="Path 30123" d="M71.114,220.022h-35.5a3.787,3.787,0,0,1-3.814-3.814v-4.694a3.788,3.788,0,0,1,3.814-3.814h35.5a3.788,3.788,0,0,1,3.814,3.814v4.694A3.788,3.788,0,0,1,71.114,220.022Z" transform="translate(-31.8 -207.7)" fill="#e1e1ff"/>
      </g>
    </g>
  </g>
  <g id="Group_2522" data-name="Group 2522" transform="translate(83.617)">
    <path id="Path_30124" data-name="Path 30124" d="M300.221,231.339H67.855A10.831,10.831,0,0,1,57,220.484V10.855A10.831,10.831,0,0,1,67.855,0H300.221a10.831,10.831,0,0,1,10.855,10.855V220.337A11.053,11.053,0,0,1,300.221,231.339Z" transform="translate(-57)" fill="#e1e1ff"/>
    <path id="Path_30125" data-name="Path 30125" d="M311.077,28.312V7.922A7.889,7.889,0,0,0,303.155,0H64.922A7.889,7.889,0,0,0,57,7.922V28.166H311.077Z" transform="translate(-57)" fill="#b0b0ff"/>
    <path id="Path_30126" data-name="Path 30126" d="M311.077,23.911V7.922A7.889,7.889,0,0,0,303.155,0H64.922A7.889,7.889,0,0,0,57,7.922v15.99Z" transform="translate(-57)" fill="#4d4cad"/>
    <circle id="Ellipse_72" data-name="Ellipse 72" cx="3.667" cy="3.667" r="3.667" transform="translate(15.11 8.362)" fill="#6e64c3"/>
    <circle id="Ellipse_73" data-name="Ellipse 73" cx="3.667" cy="3.667" r="3.667" transform="translate(28.019 8.362)" fill="#6e64c3"/>
    <circle id="Ellipse_74" data-name="Ellipse 74" cx="3.667" cy="3.667" r="3.667" transform="translate(41.075 8.362)" fill="#6e64c3"/>
    <path id="Path_30127" data-name="Path 30127" d="M149.295,127.379H83.282A9.768,9.768,0,0,1,73.6,117.7V40.682A9.768,9.768,0,0,1,83.282,31h66.013a9.768,9.768,0,0,1,9.682,9.682V117.7A9.672,9.672,0,0,1,149.295,127.379Z" transform="translate(-49.249 14.476)" fill="#b0b0ff"/>
    <path id="Path_30128" data-name="Path 30128" d="M242.339,52.271H154.762a8.358,8.358,0,0,1-8.362-8.362V39.362A8.358,8.358,0,0,1,154.762,31h87.577a8.358,8.358,0,0,1,8.362,8.362v4.548A8.453,8.453,0,0,1,242.339,52.271Z" transform="translate(-15.254 14.476)" fill="#b0b0ff"/>
    <g id="Group_2520" data-name="Group 2520" transform="translate(129.679 81.709)">
      <path id="Path_30129" data-name="Path 30129" d="M242.806,79.9H155.229a9.829,9.829,0,0,1-9.829-9.829V65.529a9.829,9.829,0,0,1,9.829-9.829h87.577a9.829,9.829,0,0,1,9.829,9.829v4.548A10.023,10.023,0,0,1,242.806,79.9ZM155.229,58.634a6.887,6.887,0,0,0-6.895,6.895v4.548a6.887,6.887,0,0,0,6.895,6.895h87.577a6.887,6.887,0,0,0,6.895-6.895V65.529a6.887,6.887,0,0,0-6.895-6.895Z" transform="translate(-145.4 -55.7)" fill="#b0b0ff"/>
    </g>
    <g id="Group_2521" data-name="Group 2521" transform="translate(129.679 119.41)">
      <path id="Path_30130" data-name="Path 30130" d="M242.806,105.6H155.229a9.829,9.829,0,0,1-9.829-9.829V91.229a9.829,9.829,0,0,1,9.829-9.829h87.577a9.829,9.829,0,0,1,9.829,9.829v4.548A10.023,10.023,0,0,1,242.806,105.6ZM155.229,84.334a6.887,6.887,0,0,0-6.895,6.895v4.548a6.887,6.887,0,0,0,6.895,6.895h87.577a6.887,6.887,0,0,0,6.895-6.895V91.229a6.887,6.887,0,0,0-6.895-6.895Z" transform="translate(-145.4 -81.4)" fill="#b0b0ff"/>
    </g>
  </g>
  <g id="Group_2527" data-name="Group 2527" transform="translate(216.635 126.012)">
    <path id="Path_30131" data-name="Path 30131" d="M181.4,173.766l8.948-62.639,24.058-3.227,12.469,65.426Z" transform="translate(-131.929 -75.627)" fill="#fab9af"/>
    <path id="Path_30132" data-name="Path 30132" d="M199.611,219.558V226.6a13.564,13.564,0,0,0,.587,4.254l.587,2.2a2.82,2.82,0,0,1-2.641,3.521h-15.11c-.293,0-.733-.293-.733-.587-.147-2.054,5.721-3.374,10.269-5.134,3.374-1.32,3.227-7.482,2.787-11A2.159,2.159,0,0,1,197.7,217.5h0A1.977,1.977,0,0,1,199.611,219.558Z" transform="translate(-131.51 -24.453)" fill="#fab9af"/>
    <path id="Path_30133" data-name="Path 30133" d="M180.209,173.836c-.44-1.614-.587-3.227-.733-3.814a8.416,8.416,0,0,1-.587-1.027c-.293-.587-.88-1.32-.88-1.907v-2.641c0-1.32-.587-2.347-1.907-2.347h0c-1.467,0-2.054,1.174-1.907,2.641v1.907a7.894,7.894,0,0,1-.587,3.227c-.733,2.2-.147,4.841.587,6.895.44,1.32,3.521,1.027,5.868.88,1.614-.147,3.521-.587,3.227-1.32-.587-1.174-6.455.293-5.428-3.081,0-.147.147-.587.44-.587.587,0,.733,1.467,1.027,2.054a1.888,1.888,0,0,0,1.614,1.32C181.089,175.6,180.5,174.863,180.209,173.836Z" transform="translate(-135.725 -50.318)" fill="#fab9af"/>
    <path id="Path_30134" data-name="Path 30134" d="M191.431,111.856s-20.977,28.166-20.831,43.862c0,10.709,4.548,34.18,4.548,34.18a20.868,20.868,0,0,0,2.2.147,10.7,10.7,0,0,0,2.2-.293s-.147-29.926,1.614-35.354c1.76-5.281,19.217-30.806,19.657-36.381C200.966,112.443,194.952,107.309,191.431,111.856Z" transform="translate(-136.972 -74.596)" fill="#3b3b8f"/>
    <g id="Group_2523" data-name="Group 2523" transform="translate(0 71.113)">
      <path id="Path_30135" data-name="Path 30135" d="M151.232,184.287l91.1,9.682a3.883,3.883,0,0,0,4.4-3.521l4.4-41.955a3.883,3.883,0,0,0-3.521-4.4l-91.1-9.682a3.883,3.883,0,0,0-4.4,3.521l-4.4,41.955A3.883,3.883,0,0,0,151.232,184.287Z" transform="translate(-147.677 -134.376)" fill="#827ddc"/>
      <rect id="Rectangle_820" data-name="Rectangle 820" width="17.75" height="5.134" transform="translate(10.912 6.886) rotate(6.062)" fill="#6262c4"/>
      <rect id="Rectangle_821" data-name="Rectangle 821" width="21.711" height="5.134" transform="translate(10.048 14.743) rotate(6.062)" fill="#6262c4"/>
      <rect id="Rectangle_822" data-name="Rectangle 822" width="27.579" height="5.134" transform="translate(9.186 22.642) rotate(6.062)" fill="#6262c4"/>
      <rect id="Rectangle_823" data-name="Rectangle 823" width="34.327" height="5.134" transform="translate(8.329 30.505) rotate(6.062)" fill="#6262c4"/>
      <rect id="Rectangle_824" data-name="Rectangle 824" width="29.046" height="5.134" transform="translate(7.581 38.417) rotate(6.062)" fill="#6262c4"/>
    </g>
    <path id="Path_30136" data-name="Path 30136" d="M220.476,218.167l2.494,8.068c.147.293.293.733.44,1.027l1.76,2.494a2.939,2.939,0,0,1-1.614,4.4l-7.041,2.347c-3.667,1.174-8.215.147-8.215-.733,0-2.2,2.054-.44,5.428-2.641a27.609,27.609,0,0,0,3.374-2.347c2.934-2.2.293-8.068-1.467-11.3a2.037,2.037,0,0,1,1.32-2.934l.88-.147A2.364,2.364,0,0,1,220.476,218.167Z" transform="translate(-119.368 -24.969)" fill="#fab9af"/>
    <path id="Path_30137" data-name="Path 30137" d="M208.361,153.9l-26.7-2.2s-2.641,19.364,4.107,54.424c3.227,16.43,9.682,47.969,9.682,47.969a7.292,7.292,0,0,0,4.988.44s.44-13.936.733-28.752c.293-14.376.44-29.633,1.32-34.62C204.4,180.892,208.361,153.9,208.361,153.9Z" transform="translate(-132.044 -55.174)" fill="#827ddc"/>
    <path id="Path_30138" data-name="Path 30138" d="M187.813,152.2c-.44,4.548,2.787,21.271,3.521,28.019.733,7.775,7.041,34.327,7.188,29.339.147-8.362.44-15.55,1.027-18.63,1.907-10.269,5.721-37.114,5.721-37.114Z" transform="translate(-128.954 -54.941)" fill="#66c"/>
    <path id="Path_30139" data-name="Path 30139" d="M197.2,155.46c-2.787,14.816-8.948,36.821,2.934,57.5s24.2,42.248,24.2,42.248a7.906,7.906,0,0,0,4.4-1.467s-2.054-9.389-5.134-20.391c-3.374-12.616-7.775-27.285-6.6-35.06,2.347-14.376,4.988-33.593,4.107-42.982C220.676,146.072,198.671,147.685,197.2,155.46Z" transform="translate(-126.463 -56.44)" fill="#827ddc"/>
    <path id="Path_30140" data-name="Path 30140" d="M180.809,172.153l9.829-61.025L214.7,107.9,227.6,172.3a2.284,2.284,0,0,1-1.76,2.641,150.837,150.837,0,0,1-27.285,2.641c-8.948,0-14.083-1.76-16.43-2.934A2.269,2.269,0,0,1,180.809,172.153Z" transform="translate(-132.218 -75.627)" fill="#fff"/>
    <path id="Path_30141" data-name="Path 30141" d="M198.8,111.621a35.3,35.3,0,0,0,2.347,12.909c2.934,8.068,7.335,23.325,4.694,36.821-3.814,19.364-8.655,27.285-2.347,31.686,6.308,4.548,18.337-3.081,18.63-5.574s-2.347-33.447-5.428-46.8S205.108,108.1,205.108,108.1l-3.667.44a3.039,3.039,0,0,0-2.641,3.081Z" transform="translate(-123.804 -75.534)" fill="#ff7350"/>
    <path id="Path_30142" data-name="Path 30142" d="M215.23,167.8a33.938,33.938,0,0,0-3.961-11,59.773,59.773,0,0,1-6.015-17.163A110.019,110.019,0,0,0,201,124.23a37.664,37.664,0,0,1-2.2-12.763v-2.641l6.748-1.027s8.215,19.511,11.3,32.86,5.721,44.3,5.428,46.8c-.293,1.76-5.721,5.721-11.3,6.748C211.563,193.324,217.577,181.294,215.23,167.8Z" transform="translate(-123.804 -75.674)" fill="#4d4cad"/>
    <path id="Path_30143" data-name="Path 30143" d="M198.958,109.5s-4.107,8.948-2.787,22c1.467,12.909,4.841,52.37-6.895,58.385-3.667,1.907-12.176-6.455-12.176-9.535s2.787-13.5,5.574-22.885c2.2-7.628,5.134-33.153,6.161-42.835.293-2.2.587-3.814,2.641-4.107Z" transform="translate(-133.937 -74.88)" fill="#3b3b8f"/>
    <path id="Path_30144" data-name="Path 30144" d="M182.529,144.715c.587-1.907,1.174-4.694,2.054-8.215,4.254,2.054,8.655,3.961,12.763,6.015-9.389,1.174-14.229,12.176-15.11,20.831a25.917,25.917,0,0,0-.147,11.149c-2.787-2.2-4.988-5.281-4.988-6.895C176.955,164.519,179.889,154.1,182.529,144.715Z" transform="translate(-133.939 -62.272)" fill="#ff4619"/>
    <g id="Group_2524" data-name="Group 2524" transform="translate(56.575 2.054)">
      <path id="Path_30145" data-name="Path 30145" d="M202.158,92.57a2.238,2.238,0,0,1,3.667,1.467,6.765,6.765,0,0,0,1.614,3.667c2.2,2.641-1.027,5.134-1.76,6.895s.147,4.548-1.907,5.721-7.922,1.614-8.948-.587C194.236,108.12,197.317,96.384,202.158,92.57Z" transform="translate(-182.269 -85.089)" fill="#41378c"/>
      <path id="Path_30146" data-name="Path 30146" d="M186.474,98.155c-.293,11.882,10.122,14.376,16.577,14.376s6.455-8.068,6.455-13.2S204.664,87.3,198.209,87.3c-4.988,0-9.829,3.961-11.736,7.628C185.887,96.1,186.62,97.129,186.474,98.155Z" transform="translate(-186.242 -87.3)" fill="#41378c"/>
      <path id="Path_30147" data-name="Path 30147" d="M197.469,90.5c5.428,0,7.335,3.814,7.481,10.855a15.3,15.3,0,0,1-2.054,6.895,5.032,5.032,0,0,0-.44,4.107l1.174,3.961c.733,3.667-1.027,5.721-3.521,6.455a5.346,5.346,0,0,1-3.961-.587c-1.32-.88-1.467-2.787-1.174-4.254l.293-1.174a2.785,2.785,0,0,0-2.054-3.521c-4.107-.88-4.694-5.281-5.868-11.882C186.174,94.314,192.188,90.5,197.469,90.5Z" transform="translate(-185.796 -85.806)" fill="#fab9af"/>
      <path id="Path_30148" data-name="Path 30148" d="M187.4,92.981a3.317,3.317,0,0,1,2.934-3.227,3.452,3.452,0,0,0,1.174-.293l6.161-1.76c3.667,0,9.829,2.054,9.1,7.481l-.587,3.667a3.428,3.428,0,0,1-3.081,2.934h0a1.116,1.116,0,0,1-1.174.88,1.157,1.157,0,0,1-1.174-1.174,3.485,3.485,0,0,0-2.934-3.521c-2.054-.44-4.254-1.467-6.455-.88h0a3.072,3.072,0,0,1-3.814-3.081A2.175,2.175,0,0,1,187.4,92.981Z" transform="translate(-185.702 -87.113)" fill="#41378c"/>
      <path id="Path_30149" data-name="Path 30149" d="M197.3,98.981c0,1.614.587,2.934,2.2,2.934s2.641-2.2,2.641-3.961c0-1.614-1.027-2.054-2.641-2.054C197.887,96.047,197.3,97.367,197.3,98.981Z" transform="translate(-181.079 -83.284)" fill="#fab9af"/>
      <path id="Path_30150" data-name="Path 30150" d="M188.407,103.121a1.242,1.242,0,0,0,1.174,1.467h0a1.157,1.157,0,0,0,1.174-1.174V98.133c0-.147-.147-.44-.147-.587-.147-.147-.293-.147-.587-.147s-.587.147-.587.44Z" transform="translate(-185.242 -82.584)" fill="#fa968c"/>
    </g>
    <path id="Path_30151" data-name="Path 30151" d="M186,98.436a12.337,12.337,0,0,1,24.645,0Z" transform="translate(-129.781 -85.526)" fill="#b0b0ff"/>
    <path id="Path_30152" data-name="Path 30152" d="M192,87.287a14.749,14.749,0,0,1,3.667-.587,12.156,12.156,0,0,1,12.176,11.736h-7.188C200.655,90.367,198.308,87.874,192,87.287Z" transform="translate(-126.979 -85.526)" fill="#4d4cad"/>
    <path id="Path_30153" data-name="Path 30153" d="M184.844,92.9h18.19a2.785,2.785,0,0,1,2.787,2.787H182.2A2.506,2.506,0,0,1,184.844,92.9Z" transform="translate(-131.56 -82.631)" fill="#4d4cad"/>
    <path id="Path_30154" data-name="Path 30154" d="M192.8,87.22c0,.44.88.44,1.907.44s1.907,0,1.907-.44a2.015,2.015,0,0,0-1.907-1.32C193.68,86.047,192.8,86.78,192.8,87.22Z" transform="translate(-126.606 -85.9)" fill="#5046af"/>
    <path id="Path_30155" data-name="Path 30155" d="M189.047,94.7a5.964,5.964,0,0,0-1.614,3.667h0a.693.693,0,0,1-.733-.733v-2.2a.693.693,0,0,1,.733-.733Z" transform="translate(-129.454 -81.791)" fill="#41378c"/>
    <g id="Group_2526" data-name="Group 2526" transform="translate(40.779 65.829)">
      <path id="Path_30156" data-name="Path 30156" d="M178.886,180.395,269.4,194.331a3.993,3.993,0,0,0,4.548-3.374L280.4,149.3a3.993,3.993,0,0,0-3.374-4.548l-90.511-13.936a3.993,3.993,0,0,0-4.548,3.374l-6.455,41.662A3.993,3.993,0,0,0,178.886,180.395Z" transform="translate(-175.475 -130.775)" fill="#e1e1ff"/>
      <rect id="Rectangle_825" data-name="Rectangle 825" width="46.503" height="4.548" transform="translate(51.111 25.548) rotate(8.755)" fill="#b0b0ff"/>
      <rect id="Rectangle_826" data-name="Rectangle 826" width="46.503" height="4.548" transform="translate(49.503 35.662) rotate(8.755)" fill="#b0b0ff"/>
      <rect id="Rectangle_827" data-name="Rectangle 827" width="46.503" height="4.548" transform="translate(48.04 45.799) rotate(8.755)" fill="#b0b0ff"/>
      <rect id="Rectangle_828" data-name="Rectangle 828" width="25.965" height="4.548" transform="translate(51.147 25.497) rotate(8.755)" fill="#827ddc"/>
      <rect id="Rectangle_829" data-name="Rectangle 829" width="32.126" height="4.548" transform="translate(49.557 35.731) rotate(8.755)" fill="#827ddc"/>
      <rect id="Rectangle_830" data-name="Rectangle 830" width="20.391" height="4.548" transform="translate(48.021 45.879) rotate(8.755)" fill="#827ddc"/>
      <g id="Group_2525" data-name="Group 2525" transform="translate(4.972 5.415)">
        <rect id="Rectangle_831" data-name="Rectangle 831" width="3.521" height="39.168" transform="matrix(0.988, 0.152, -0.152, 0.988, 5.965, 0)" fill="#b0b0ff"/>
        <rect id="Rectangle_832" data-name="Rectangle 832" width="3.521" height="39.168" transform="matrix(0.988, 0.152, -0.152, 0.988, 12.433, 0.893)" fill="#b0b0ff"/>
        <rect id="Rectangle_833" data-name="Rectangle 833" width="3.521" height="39.168" transform="translate(18.744 1.89) rotate(8.755)" fill="#b0b0ff"/>
        <rect id="Rectangle_834" data-name="Rectangle 834" width="3.521" height="39.168" transform="translate(25.191 2.926) rotate(8.755)" fill="#b0b0ff"/>
        <rect id="Rectangle_835" data-name="Rectangle 835" width="3.521" height="39.168" transform="matrix(0.988, 0.152, -0.152, 0.988, 31.631, 3.98)" fill="#b0b0ff"/>
        <rect id="Rectangle_836" data-name="Rectangle 836" width="3.521" height="39.168" transform="matrix(0.988, 0.152, -0.152, 0.988, 37.953, 4.851)" fill="#b0b0ff"/>
        <rect id="Rectangle_837" data-name="Rectangle 837" width="3.521" height="22.591" transform="matrix(0.988, 0.152, -0.152, 0.988, 3.531, 16.346)" fill="#827ddc"/>
        <rect id="Rectangle_838" data-name="Rectangle 838" width="3.521" height="17.31" transform="matrix(0.988, 0.152, -0.152, 0.988, 9.153, 22.483)" fill="#827ddc"/>
        <rect id="Rectangle_839" data-name="Rectangle 839" width="3.521" height="19.511" transform="translate(15.779 21.288) rotate(8.755)" fill="#827ddc"/>
        <rect id="Rectangle_840" data-name="Rectangle 840" width="3.521" height="18.044" transform="translate(21.972 23.779) rotate(8.755)" fill="#827ddc"/>
        <rect id="Rectangle_841" data-name="Rectangle 841" width="3.521" height="13.496" transform="matrix(0.988, 0.152, -0.152, 0.988, 27.645, 29.194)" fill="#827ddc"/>
        <rect id="Rectangle_842" data-name="Rectangle 842" width="3.521" height="19.511" transform="matrix(0.988, 0.152, -0.152, 0.988, 34.987, 24.25)" fill="#827ddc"/>
      </g>
      <rect id="Rectangle_843" data-name="Rectangle 843" width="37.114" height="7.188" transform="translate(53.166 11.887) rotate(8.755)" fill="#b0b0ff"/>
    </g>
    <path id="Path_30157" data-name="Path 30157" d="M213.394,171.536c.44-1.614.587-3.227.733-3.814a8.415,8.415,0,0,0,.587-1.027c.293-.587.88-1.32.88-1.907v-2.641c0-1.32.587-2.347,1.907-2.347h0c1.467,0,2.054,1.174,1.907,2.641v1.907a7.894,7.894,0,0,0,.587,3.227c.733,2.2.147,4.841-.587,6.895-.44,1.32-2.054,2.054-4.254,2.934-1.027.44-2.934.88-2.2-.44.587-1.174,3.814-2.787,2.934-6.161,0-.147-.147-.587-.44-.587-.587,0-.733,1.467-1.027,2.054a1.888,1.888,0,0,1-1.614,1.32C212.661,173.3,213.248,172.709,213.394,171.536Z" transform="translate(-117.274 -51.392)" fill="#fab9af"/>
    <path id="Path_30158" data-name="Path 30158" d="M209.511,109.544s20.977,28.166,20.831,43.862c0,10.709-4.548,34.18-4.548,34.18a20.864,20.864,0,0,1-2.2.147,10.7,10.7,0,0,1-2.2-.293s.147-29.926-1.614-35.354c-1.76-5.281-18.63-30.953-19.657-36.381C199.389,109.984,204.377,105.143,209.511,109.544Z" transform="translate(-123.22 -75.657)" fill="#4d4cad"/>
  </g>
  <g id="Group_2531" data-name="Group 2531" transform="translate(89.282 39.755)">
    <path id="Path_30159" data-name="Path 30159" d="M129.721,75.23c-1.32.88-3.227,1.614-3.814,2.054l-3.081,3.081a6.994,6.994,0,0,0-1.76,3.227,6.7,6.7,0,0,0-.147,2.347s1.76,1.32,3.081.587l1.174-2.641a6.593,6.593,0,0,1,3.374-.587c2.347-.147,4.107-2.641,5.868-3.961a5.915,5.915,0,0,0,2.054-4.694,6.128,6.128,0,0,0-2.2,1.614,8.891,8.891,0,0,1-4.254,2.054c-.147,0-.587,0-.733-.147-.293-.587,1.027-1.32,1.614-1.76.733-.733.88-1.614.587-1.907C131.041,73.763,130.748,74.5,129.721,75.23Z" transform="translate(-32.846 -5.11)" fill="#fab9af"/>
    <path id="Path_30160" data-name="Path 30160" d="M105.989,109.19s-3.521,25.672-.44,37.7,14.376,39.021,11.3,41.368-20.831,1.907-23.031-.293c-2.2-2.347-4.988-76.575,1.32-79.949C101.294,104.5,105.548,103.469,105.989,109.19Z" transform="translate(-46.668 9.34)" fill="#66c"/>
    <path id="Path_30161" data-name="Path 30161" d="M88.765,113.917s5.721-5.721,32.273-9.535L137.762,79a3.378,3.378,0,0,1,3.521,2.641s-9.242,23.178-16.723,31.686-28.166,12.616-33.887,11.149C84.951,123.159,84.8,116.558,88.765,113.917Z" transform="translate(-49.102 -2.869)" fill="#66c"/>
    <path id="Path_30162" data-name="Path 30162" d="M104.193,95.138c-1.027-4.107-2.641-10.122-6.161-11.882-2.934-1.467-7.481.733-10.709,1.76-.293.147-.587.147-.88.293-4.548,1.614-7.922,4.841-8.508,8.362a15.327,15.327,0,0,1-2.054,6.161A30.306,30.306,0,0,0,72.8,106.58,17.447,17.447,0,0,1,66.345,116.7c-3.667,2.641-5.868,7.628-5.428,13.349a17.847,17.847,0,0,0,2.347,7.922,13.652,13.652,0,0,1,1.76,7.628,17.135,17.135,0,0,0,5.134,13.2c4.548,4.254,10.709,4.4,14.816.147,1.907-1.907,2.494-5.281,2.347-8.8-.293-7.628,3.961-13.789,9.975-14.816.293,0,.44-.147.733-.147,4.841-1.027,8.655-5.868,9.242-12.029a16.379,16.379,0,0,0-.587-6.6,24.707,24.707,0,0,1-.733-9.242C106.1,104.38,105.22,99.539,104.193,95.138Z" transform="translate(-60.862 -1.106)" fill="#827ddc"/>
    <path id="Path_30163" data-name="Path 30163" d="M104.892,113.857a17.056,17.056,0,0,1-.587-2.641,17.057,17.057,0,0,0-.587-2.641,13.734,13.734,0,0,1-.587-2.347c-.587-3.374-.733-6.895-1.76-10.269-.733-2.054-1.76-3.961-2.347-6.015a1.143,1.143,0,0,0-1.467-.733c-1.614.44-3.227.733-5.721,1.467a12.131,12.131,0,0,0-8.655,10.855c-.88,10.855-10.709,20.831-16.137,30.806-5.574,10.269-2.054,23.471,7.628,24.645a9.565,9.565,0,0,0,8.362-3.081,8.994,8.994,0,0,0,2.494-6.308h0c-.293-7.628,3.961-13.789,9.975-14.816.293,0,.44-.147.733-.147,4.841-1.027,8.655-5.868,9.242-12.029A24.631,24.631,0,0,0,104.892,113.857Z" transform="translate(-59.214 1.886)" fill="#66c"/>
    <path id="Path_30164" data-name="Path 30164" d="M68.766,218.317a1.891,1.891,0,0,0-3.227.587c-.293.587-1.027,2.787-1.32,3.521a5.931,5.931,0,0,1-1.907,2.2c-1.614,1.32-1.174,2.641.88,5.281,1.614,2.2-.147,4.694,1.907,5.574,2.787,1.174,4.841,1.467,5.281.88.587-.88-.147-1.174-2.347-3.081s.147-9.829,1.174-12.909a2.546,2.546,0,0,0-.44-2.054Z" transform="translate(-60.642 61.872)" fill="#fab9af"/>
    <path id="Path_30165" data-name="Path 30165" d="M94.942,219.621a1.827,1.827,0,0,0-2.934,1.32c-.147.733-.147,1.467-.293,2.2a5.455,5.455,0,0,1-1.32,2.641c-1.32,1.76-.44,2.934,2.054,4.841,2.2,1.76,1.027,4.694,3.227,4.988,3.081.44,5.134.293,5.281-.44.44-1.027-.44-1.174-3.081-2.494s-2.494-7.922-2.2-11.3a1.786,1.786,0,0,0-.733-1.76Z" transform="translate(-47.357 62.621)" fill="#fab9af"/>
    <path id="Path_30166" data-name="Path 30166" d="M81.246,86.48c-5.574,1.32-6.748,5.868-5.134,13.2a14.5,14.5,0,0,0,3.961,6.748,6.3,6.3,0,0,1,1.614,4.107l-.293,4.4c.147,4.107,2.494,5.721,5.281,5.868a5.668,5.668,0,0,0,3.961-1.614c1.174-1.174.88-3.227.147-4.841l-.587-1.174a2.935,2.935,0,0,1,1.174-4.107c1.174-.587,2.494-.587,3.374-1.467.733-.88,1.32-8.068-1.32-14.963C90.635,85.747,86.821,85.16,81.246,86.48Z" transform="translate(-54.052 0.364)" fill="#fab9af"/>
    <path id="Path_30167" data-name="Path 30167" d="M88.721,98.121a1.3,1.3,0,0,1-1.027,1.76h0a1.209,1.209,0,0,1-1.467-1.027L85.2,93.28a.882.882,0,0,1,.147-.587c.147-.147.293-.293.44-.293a.807.807,0,0,1,.733.44Z" transform="translate(-49.497 3.392)" fill="#fa968c"/>
    <path id="Path_30168" data-name="Path 30168" d="M74.735,92.4c-.44,1.027-2.934,3.374-.88,4.548l6.015,3.374a.678.678,0,0,0,1.027-.733l-.44-1.76a1.709,1.709,0,0,1,1.027-2.054l1.027-.44a4.8,4.8,0,0,0,2.2-1.614,6.543,6.543,0,0,1,3.814-2.054,6.227,6.227,0,0,1,3.081.44,4.952,4.952,0,0,0,2.934.293.93.93,0,0,0,.88-.733C98.06,83.9,80.016,79.5,74.735,92.4Z" transform="translate(-55.169 -0.427)" fill="#827ddc"/>
    <path id="Path_30169" data-name="Path 30169" d="M79.43,96.568c.44,1.76.88,3.814-.587,4.254-1.467.293-3.814-2.347-4.107-4.107-.44-1.76.44-2.347,1.907-2.787S78.99,94.807,79.43,96.568Z" transform="translate(-54.436 4.066)" fill="#fab9af"/>
    <path id="Path_30170" data-name="Path 30170" d="M96.831,140.027a10.9,10.9,0,0,1,9.535,9.1,169.574,169.574,0,0,1-.88,55.744L98.591,259a10.293,10.293,0,0,1-4.254-.44s-5.428-78.922-8.655-95.352c-3.227-16.577-.293-24.2-.293-24.2Z" transform="translate(-49.979 25.152)" fill="#4d4cad"/>
    <path id="Path_30171" data-name="Path 30171" d="M94.19,185.8c-1.174-19.951-6.455-25.965-3.961-45.916v-.44L85.389,139s-2.934,7.628.293,24.058c1.174,6.015,2.641,20.1,3.961,35.647C91.4,219.243,94.631,191.957,94.19,185.8Z" transform="translate(-49.979 25.152)" fill="#3c3c96"/>
    <path id="Path_30172" data-name="Path 30172" d="M90.8,138.805a11.981,11.981,0,0,0-12.029,8.508c-2.347,7.922-4.694,21.124-2.494,40.488,0,0,1.614,10.562,0,17.31S64.1,255.869,64.1,255.869a7.051,7.051,0,0,0,3.961,1.76S86.1,221.982,90.652,208.486s12.616-56.478,11-68.654Z" transform="translate(-59.35 25.054)" fill="#4d4cad"/>
    <path id="Path_30173" data-name="Path 30173" d="M109.543,126.5c-.147-2.641-4.694-9.389-6.895-12.763,0,0-2.787-7.188-7.335-8.068a25.944,25.944,0,0,0-13.789.88l-2.2.587a7.639,7.639,0,0,0-5.281,8.655l7.481,42.542c6.895,4.841,16.577,6.455,28.312,5.281a1.983,1.983,0,0,0,1.76-2.494l-6.161-21.271a11.119,11.119,0,0,1,2.494-8.508A7.164,7.164,0,0,0,109.543,126.5Z" transform="translate(-54.77 9.339)" fill="#fff"/>
    <path id="Path_30174" data-name="Path 30174" d="M97.192,118c.44,9.1,3.081,23.031-6.015,35.94s-.44,21.858-3.961,33.3c-1.467,4.841-18.044,4.988-23.765,1.027-1.614-1.027,9.1-30.513,14.376-40.781,5.134-10.269,1.32-32.126,1.32-32.126S77.095,107,86.63,106.119C96.459,105.239,97.045,114.48,97.192,118Z" transform="translate(-59.729 9.771)" fill="#827ddc"/>
    <path id="Path_30175" data-name="Path 30175" d="M77.5,118.195c1.174.44,13.5,7.041,14.523,19.364,1.027-7.481,0-14.376-.147-19.657-.147-3.667-.733-12.763-10.709-11.882C71.486,107.046,75.593,117.461,77.5,118.195Z" transform="translate(-54.267 9.724)" fill="#66c"/>
    <path id="Path_30176" data-name="Path 30176" d="M78.073,152.359l-9.682-2.787a2.1,2.1,0,0,1-1.467-2.641l.147-.44a2.1,2.1,0,0,1,2.641-1.467l9.682,2.787a2.1,2.1,0,0,1,1.467,2.641l-.147.44A2.163,2.163,0,0,1,78.073,152.359Z" transform="translate(-58.066 27.93)" fill="#66c"/>
    <g id="Group_2530" data-name="Group 2530" transform="translate(46.852)">
      <g id="Group_2528" data-name="Group 2528" transform="translate(0 0.733)">
        <path id="Path_30177" data-name="Path 30177" d="M131.381,104.762a38.581,38.581,0,1,1,38.581-38.581A38.628,38.628,0,0,1,131.381,104.762Zm0-60.879a22.444,22.444,0,1,0,22.444,22.444A22.539,22.539,0,0,0,131.381,43.883Z" transform="translate(-92.8 -27.6)" fill="#4d4cad"/>
      </g>
      <path id="Path_30178" data-name="Path 30178" d="M159.225,53.9a30.513,30.513,0,0,1-61.025,0" transform="translate(-90.278 -14.586)" fill="none" stroke="#827ddc" stroke-miterlimit="10" stroke-width="11"/>
      <g id="Group_2529" data-name="Group 2529" transform="translate(38.434)">
        <path id="Path_30179" data-name="Path 30179" d="M158.314,66.414h-17.6A21.756,21.756,0,0,0,119,44.7V27.1A39.506,39.506,0,0,1,158.314,66.414Z" transform="translate(-119 -27.1)" fill="#fff"/>
      </g>
    </g>
    <path id="Path_30180" data-name="Path 30180" d="M104.635,70.587c1.027,1.32,2.641,2.641,2.934,3.081.147.147,1.174,2.347,1.907,3.814a6.374,6.374,0,0,1,.733,3.667,4.374,4.374,0,0,1-.587,2.2s-2.054.733-3.081-.293l-.293-2.934a7.19,7.19,0,0,0-2.934-1.614c-2.2-.88-3.081-3.814-4.254-5.574a5.843,5.843,0,0,1-.44-5.134,5.535,5.535,0,0,1,1.467,2.2,7.976,7.976,0,0,0,3.374,3.227c.147.147.587.293.733,0,.44-.44-.587-1.467-1.027-2.2-.44-1.027-.293-1.76,0-2.054C103.754,68.827,104.048,69.707,104.635,70.587Z" transform="translate(-43.407 -8.095)" fill="#fab9af"/>
    <path id="Path_30181" data-name="Path 30181" d="M76.669,121.886s7.628-5.281,32.126-16.43l8.8-29.046a4.229,4.229,0,0,1,4.548,0s-1.027,23.765-5.868,34.18c-4.694,10.269-29.779,22.444-35.647,22.738C74.615,133.475,71.241,124.966,76.669,121.886Z" transform="translate(-54.755 -4.383)" fill="#827ddc"/>
  </g>
  <g id="Group_2532" data-name="Group 2532" transform="translate(39.461 338.427)">
    <path id="Path_30182" data-name="Path 30182" d="M309.289,235.1H29.1a2.256,2.256,0,0,1-2.2-2.2h0a2.256,2.256,0,0,1,2.2-2.2H309.289a2.256,2.256,0,0,1,2.2,2.2h0A2.256,2.256,0,0,1,309.289,235.1Z" transform="translate(-26.9 -230.7)" fill="#e1e1ff"/>
  </g>
</svg>
