<svg xmlns="http://www.w3.org/2000/svg" xmlns:xlink="http://www.w3.org/1999/xlink" width="407.31" height="404.323" viewBox="0 0 407.31 404.323">
  <defs>
    <linearGradient id="linear-gradient" x1="0.001" y1="0.5" x2="1.005" y2="0.5" gradientUnits="objectBoundingBox">
      <stop offset="0" stop-color="#fae8dc"/>
      <stop offset="1" stop-color="#fab9ab" stop-opacity="0.969"/>
    </linearGradient>
    <linearGradient id="linear-gradient-2" x1="0.007" y1="0.513" x2="1.001" y2="0.513" xlink:href="#linear-gradient"/>
    <linearGradient id="linear-gradient-3" x1="0.004" y1="0.488" x2="0.992" y2="0.488" xlink:href="#linear-gradient"/>
    <linearGradient id="linear-gradient-4" x1="-0.005" y1="0.5" x2="0.994" y2="0.5" xlink:href="#linear-gradient"/>
    <linearGradient id="linear-gradient-5" x1="-0.005" y1="0.505" x2="0.998" y2="0.505" xlink:href="#linear-gradient"/>
    <linearGradient id="linear-gradient-6" x1="0.546" y1="0.293" x2="0.409" y2="0.725" xlink:href="#linear-gradient"/>
    <linearGradient id="linear-gradient-7" x1="0.749" y1="1.261" x2="0.367" y2="0.172" gradientUnits="objectBoundingBox">
      <stop offset="0" stop-color="#008da7"/>
      <stop offset="1" stop-color="#002856"/>
    </linearGradient>
    <linearGradient id="linear-gradient-8" x1="0.359" y1="-0.174" x2="1.121" y2="1.988" xlink:href="#linear-gradient-7"/>
    <linearGradient id="linear-gradient-9" x1="0.002" y1="0.5" x2="1.002" y2="0.5" gradientUnits="objectBoundingBox">
      <stop offset="0" stop-color="#ff7a58"/>
      <stop offset="1" stop-color="#d81b60"/>
    </linearGradient>
    <linearGradient id="linear-gradient-10" x1="-0.004" y1="0.5" x2="0.998" y2="0.5" xlink:href="#linear-gradient"/>
    <linearGradient id="linear-gradient-11" x1="0.003" y1="0.492" x2="1.011" y2="0.492" xlink:href="#linear-gradient-9"/>
    <linearGradient id="linear-gradient-12" x1="-0.004" y1="0.5" x2="0.999" y2="0.5" xlink:href="#linear-gradient"/>
    <linearGradient id="linear-gradient-13" x1="-0.003" y1="0.52" x2="0.98" y2="0.52" xlink:href="#linear-gradient"/>
    <linearGradient id="linear-gradient-14" x1="0" y1="0.503" x2="1.002" y2="0.503" xlink:href="#linear-gradient"/>
    <linearGradient id="linear-gradient-15" x1="-0.002" y1="0.505" x2="0.994" y2="0.505" xlink:href="#linear-gradient"/>
    <linearGradient id="linear-gradient-16" x1="0" y1="0.507" x2="1.007" y2="0.507" xlink:href="#linear-gradient"/>
    <linearGradient id="linear-gradient-17" x1="0.001" y1="0.502" x2="1" y2="0.502" xlink:href="#linear-gradient"/>
  </defs>
  <g id="Group_2593" data-name="Group 2593" transform="translate(-0.05)">
    <g id="Group_2568" data-name="Group 2568" transform="translate(161.509 39.474)">
      <path id="Path_30183" data-name="Path 30183" d="M291.96,209.81c-43.227-.552-64.013-4.783-107.057-3.863-2.391-1.839-15.084.184-19.5.552-28.328,2.575-46.355,8.646-74.682,11.589-3.863.368-3.863,4.6,0,5.15,21.154,2.207,42.676,1.839,64.013,2.575.184,3.311,3.863,6.438,10.853,6.254,50.4-.552,100.251-2.207,150.469-4.783C326.91,226.734,303,209.81,291.96,209.81Z" transform="translate(-87.825 132.773)" fill="#005077" opacity="0.1"/>
      <g id="Group_2567" data-name="Group 2567" transform="translate(1.724)">
        <g id="Group_2543" data-name="Group 2543" transform="translate(42.313 77.676)">
          <g id="Group_2542" data-name="Group 2542" transform="translate(85.6 56.496)">
            <path id="Path_30184" data-name="Path 30184" d="M161.243,94.4l12.141,4.967-5.7,10.485-6.99-3.679-2.391-5.886Z" transform="translate(-158.3 -94.4)" fill="url(#linear-gradient)"/>
            <g id="Group_2535" data-name="Group 2535" transform="translate(12.107 4.231)">
              <g id="Group_2534" data-name="Group 2534">
                <path id="Path_30185" data-name="Path 30185" d="M165.835,98.907a13.172,13.172,0,0,1,8.462,4.047c.92.92,2.391-.736,1.288-1.656a14.752,14.752,0,0,0-9.565-4.6,1.11,1.11,0,0,0-.184,2.207Z" transform="translate(-164.882 -96.7)" fill="url(#linear-gradient-2)"/>
              </g>
            </g>
            <g id="Group_2537" data-name="Group 2537" transform="translate(10.652 7.684)">
              <g id="Group_2536" data-name="Group 2536">
                <path id="Path_30186" data-name="Path 30186" d="M165.028,100.642a16.1,16.1,0,0,1,10.3,4.967c.92.92,2.391-.736,1.288-1.656A17.47,17.47,0,0,0,165.4,98.619a1.032,1.032,0,1,0-.368,2.023Z" transform="translate(-164.091 -98.578)" fill="url(#linear-gradient-3)"/>
              </g>
            </g>
            <g id="Group_2539" data-name="Group 2539" transform="translate(7.66 10.105)">
              <g id="Group_2538" data-name="Group 2538">
                <path id="Path_30187" data-name="Path 30187" d="M163.266,101.929a16.1,16.1,0,0,1,10.3,4.967c.92.92,2.391-.736,1.288-1.656a17.47,17.47,0,0,0-11.221-5.334c-1.288-.184-1.656,1.839-.368,2.023Z" transform="translate(-162.464 -99.894)" fill="url(#linear-gradient-4)"/>
              </g>
            </g>
            <g id="Group_2541" data-name="Group 2541" transform="translate(3.613 10.657)">
              <g id="Group_2540" data-name="Group 2540">
                <path id="Path_30188" data-name="Path 30188" d="M161.066,102.413a15.533,15.533,0,0,1,8.829,6.806c.736,1.1,2.391,0,1.655-1.288a17.669,17.669,0,0,0-10.117-7.726c-1.288-.184-1.655,1.839-.368,2.207Z" transform="translate(-160.264 -100.194)" fill="url(#linear-gradient-5)"/>
              </g>
            </g>
          </g>
          <path id="Path_30189" data-name="Path 30189" d="M200.308,120.183l-50.217-.368L132.064,73.092c-2.391-6.622-9.565-11.773-15.819-8.278h0c-5.334,3.127-5.518,10.485-2.575,16l25.569,55.736c.92,2.391,58.679-9.381,58.679-9.381Z" transform="translate(-111.765 -63.687)" fill="url(#linear-gradient-6)"/>
        </g>
        <path id="Path_30190" data-name="Path 30190" d="M138.532,119.8c2.759,1.1,32.559,71,32.559,71l14.9,78.729-7.726-2.023-18.947-51.137V194.115L109.1,134.884Z" transform="translate(-71.689 61.094)" fill="url(#linear-gradient-7)"/>
        <g id="Group_2546" data-name="Group 2546" transform="translate(79.351 166.53)">
          <g id="Group_2544" data-name="Group 2544" transform="translate(12.692 5.719)">
            <path id="Path_30191" data-name="Path 30191" d="M138.8,285.435l2.943.184L152.78,115.284l-2.943-.184Z" transform="translate(-138.8 -115.1)" fill="#002856"/>
            <path id="Path_30192" data-name="Path 30192" d="M205.264,285.435l-3.127.184L191.1,115.284l2.943-.184Z" transform="translate(-94.896 -115.1)" fill="#002856"/>
          </g>
          <rect id="Rectangle_844" data-name="Rectangle 844" width="134.281" height="4.047" transform="translate(135.067 4.047) rotate(180)" fill="#9e9d98"/>
          <rect id="Rectangle_845" data-name="Rectangle 845" width="109.816" height="4.047" transform="translate(122.743 8.23) rotate(180)" fill="#002856"/>
          <g id="Group_2545" data-name="Group 2545" transform="translate(0 5.719)">
            <path id="Path_30193" data-name="Path 30193" d="M131.9,298.679l3.679.368,13.612-183.579-3.679-.368Z" transform="translate(-131.9 -115.1)" fill="#002856"/>
            <path id="Path_30194" data-name="Path 30194" d="M213.491,298.679l-3.679.368L196.2,115.468l3.679-.368Z" transform="translate(-77.922 -115.1)" fill="#002856"/>
          </g>
        </g>
        <g id="Group_2550" data-name="Group 2550" transform="translate(5.036 187.148)">
          <g id="Group_2547" data-name="Group 2547" transform="translate(0 150.468)">
            <path id="Path_30195" data-name="Path 30195" d="M91.5,212.542v2.943c0,4.231,14.9,7.542,33.11,7.542,18.395,0,33.11-3.311,33.11-7.542v-2.943c0-4.231-14.9-7.542-33.11-7.542S91.5,208.495,91.5,212.542Z" transform="translate(-91.5 -205)" fill="#002856"/>
            <path id="Path_30196" data-name="Path 30196" d="M91.5,212.542c0-4.231,14.9-7.542,33.11-7.542,3.311,0,6.438.184,9.565.368L119.46,220.084C103.64,219.532,91.5,216.4,91.5,212.542Z" transform="translate(-91.5 -205)" fill="#cccbc4"/>
            <path id="Path_30197" data-name="Path 30197" d="M144.961,212.374c0,4.231-14.9,7.542-33.11,7.542H106.7L121.416,205.2C135.028,206.12,144.961,209.063,144.961,212.374Z" transform="translate(-78.74 -204.832)" fill="#9e9d98"/>
          </g>
          <rect id="Rectangle_846" data-name="Rectangle 846" width="3.495" height="146.973" transform="translate(35.38 155.756) rotate(180)" fill="#002856"/>
          <g id="Group_2548" data-name="Group 2548" transform="translate(3.679 97.86)">
            <path id="Path_30198" data-name="Path 30198" d="M93.5,186.517c0-6.622,14.9-10.117,29.615-10.117s29.615,3.495,29.615,10.117-14.9,10.117-29.615,10.117C108.584,196.634,93.5,193.139,93.5,186.517Zm3.127,0c0,2.759,10.3,6.99,26.488,6.99s26.488-4.231,26.488-6.99-10.3-6.99-26.488-6.99C107.112,179.527,96.627,183.574,96.627,186.517Z" transform="translate(-93.5 -176.4)" fill="#002856"/>
          </g>
          <g id="Group_2549" data-name="Group 2549" transform="translate(0 0)">
            <path id="Path_30199" data-name="Path 30199" d="M157.721,127.3v10.485c0,4.231-14.9,7.542-33.11,7.542s-33.11-3.311-33.11-7.542V127.3Z" transform="translate(-91.5 -119.758)" fill="#9e9d98"/>
            <path id="Path_30200" data-name="Path 30200" d="M91.5,130.742c0,4.231,14.9,7.542,33.11,7.542s33.11-3.311,33.11-7.542-14.9-7.542-33.11-7.542S91.5,126.511,91.5,130.742Z" transform="translate(-91.5 -123.2)" fill="#d6d5ca"/>
          </g>
        </g>
        <path id="Path_30201" data-name="Path 30201" d="M122.128,105.414a34.349,34.349,0,0,0,16,10.485,14.953,14.953,0,0,0,6.99.736,7.282,7.282,0,0,0,5.518-3.863c.92-2.207.552-4.967-1.472-6.254A8.6,8.6,0,0,0,156.71,101a8.947,8.947,0,0,0-2.023-9.2c4.967.92,10.117-1.288,13.428-4.967a24.346,24.346,0,0,0,6.07-13.428,38.635,38.635,0,0,0-8.094-30.167c3.679-1.288,2.575-12.14-6.438-17.291-6.622-3.863-14.716-4.783-22.441-4.415S121.76,24.661,116.426,30c-7.91,7.91-9.933,20.6-7.358,31.455.736,3.495,1.839,7.726-.736,10.3a14.127,14.127,0,0,1-4.6,2.575,5.766,5.766,0,0,0-3.495,3.679c-.368,3.311,4.047,5.518,4.047,8.829,0,2.391-2.391,4.047-4.231,5.518-2.023,1.472-3.863,3.863-2.943,6.07.736,1.656,2.943,2.207,4.783,2.759s3.863,2.023,3.495,3.863c-.368,1.656-2.391,2.391-3.127,3.863-.736,1.839,1.288,3.863,3.311,3.863,2.023.184,3.863-.92,5.518-1.839C114.586,109.093,118.817,107.253,122.128,105.414Z" transform="translate(-81.958 -21.459)" fill="#002856"/>
        <g id="Group_2551" data-name="Group 2551" transform="translate(0.621 162.157)">
          <path id="Path_30202" data-name="Path 30202" d="M115.4,114.923c-7.91.552-16-6.438-21.522-5.151-3.127.736-4.783,6.806-4.783,9.2.184,6.254.736,14.532,4.415,19.5C103.632,151.9,185.856,162.2,185.856,162.2l-17.291,20.418-18.947,54.632,5.7,5.15,53.345-90.686C208.665,151.9,136.742,113.635,115.4,114.923Z" transform="translate(-89.1 -109.614)" fill="url(#linear-gradient-8)"/>
          <path id="Path_30203" data-name="Path 30203" d="M135.263,196.055l-3.679-10.485-6.622-6.07-8.462,4.6,22.441,24.1.736-3.311Z" transform="translate(-66.099 -50.947)" fill="#002856"/>
        </g>
        <path id="Path_30204" data-name="Path 30204" d="M152.109,69.7c-3.127-4.783-4.415-13.8-10.853-14.532-15.084-1.839-23.361,12.876-24.833,25.385-.92,8.094-1.656,16.371-2.391,24.465-.368,4.967,0,12.14-2.575,16.555-4.415,7.91-14.9,25.569-20.97,35.5-2.023,3.495-2.943,7.174,1.1,7.358l53.161,3.5s1.288-21.706,0-33.662c-.92-8.462,2.575-13.8,4.967-21.706,1.1-3.679,1.472-5.7,4.231-8.645,2.575-2.943,7.542-6.438,8.646-10.485C164.8,84.787,156.892,76.877,152.109,69.7Z" transform="translate(-88.762 6.709)" fill="url(#linear-gradient-9)"/>
        <g id="Group_2552" data-name="Group 2552" transform="translate(43.113 22.364)">
          <path id="Path_30205" data-name="Path 30205" d="M146.23,54.187c-1.839-1.472-2.207-4.415-1.656-6.806s1.656-4.6,2.023-6.99-.368-5.334-2.391-6.438c0,0-14.716-2.759-18.027,7.542a21.125,21.125,0,0,1-4.967,7.91c.184-5.886-4.967-4.231-6.254-3.127a4.143,4.143,0,0,0-.552,4.967c.92,1.472,2.575,2.759,4.231,2.575L112.2,75.893c3.495,2.023,6.99,3.679,10.485,5.518a7.673,7.673,0,0,0,1.656-2.943c1.472-4.783,4.783-9.2,6.254-8.829,2.943.736,5.886,3.679,8.646,2.391,2.207-.92,2.759-3.863,2.943-6.254s.552-5.334,2.575-6.438c1.472-.736,3.679-.92,3.679-2.575C148.438,55.659,146.966,54.923,146.23,54.187Z" transform="translate(-112.2 -33.617)" fill="url(#linear-gradient-10)"/>
        </g>
        <path id="Path_30206" data-name="Path 30206" d="M114.018,64.814c-1.472-.184-3.127-.368-4.231-1.472a4.856,4.856,0,0,1-1.288-3.495,11.893,11.893,0,0,1,.736-3.679c2.391-.736,4.6-1.656,7.174-1.656a8.078,8.078,0,0,1,6.622,2.391,9.243,9.243,0,0,1,1.472,2.207c1.472,2.391,2.943,4.967,4.415,7.358C124.135,65.733,118.985,65.181,114.018,64.814Z" transform="translate(-72.193 6.265)" fill="url(#linear-gradient-11)"/>
        <g id="Group_2562" data-name="Group 2562" transform="translate(32.243 75.073)">
          <g id="Group_2561" data-name="Group 2561" transform="translate(77.827 67.193)">
            <path id="Path_30207" data-name="Path 30207" d="M152.279,98.8l11.4,6.622-7.174,9.565-6.438-4.6-1.472-6.254Z" transform="translate(-148.6 -98.8)" fill="url(#linear-gradient-12)"/>
            <g id="Group_2554" data-name="Group 2554" transform="translate(12.074 5.507)">
              <g id="Group_2553" data-name="Group 2553">
                <path id="Path_30208" data-name="Path 30208" d="M155.966,104.013a13.654,13.654,0,0,1,7.91,5.151c.736,1.1,2.391-.368,1.656-1.472a15.483,15.483,0,0,0-8.829-5.886c-1.472-.184-2.207,1.839-.736,2.207Z" transform="translate(-155.164 -101.794)" fill="url(#linear-gradient-13)"/>
              </g>
            </g>
            <g id="Group_2556" data-name="Group 2556" transform="translate(10.131 8.634)">
              <g id="Group_2555" data-name="Group 2555">
                <path id="Path_30209" data-name="Path 30209" d="M154.829,105.713a15.117,15.117,0,0,1,9.381,6.254c.736,1.1,2.391-.368,1.656-1.472a18.307,18.307,0,0,0-10.3-6.99c-1.472-.184-2.023,1.839-.736,2.207Z" transform="translate(-154.108 -103.494)" fill="url(#linear-gradient-14)"/>
              </g>
            </g>
            <g id="Group_2558" data-name="Group 2558" transform="translate(6.74 10.657)">
              <g id="Group_2557" data-name="Group 2557">
                <path id="Path_30210" data-name="Path 30210" d="M153.066,106.813a15.117,15.117,0,0,1,9.381,6.254c.736,1.1,2.391-.368,1.656-1.472a18.307,18.307,0,0,0-10.3-6.99c-1.472-.184-2.207,1.839-.736,2.207Z" transform="translate(-152.264 -104.594)" fill="url(#linear-gradient-15)"/>
              </g>
            </g>
            <g id="Group_2560" data-name="Group 2560" transform="translate(2.629 10.758)">
              <g id="Group_2559" data-name="Group 2559">
                <path id="Path_30211" data-name="Path 30211" d="M150.711,106.767a15.423,15.423,0,0,1,7.726,7.91c.552,1.288,2.391.368,1.839-.92a17.935,17.935,0,0,0-9.013-9.013c-1.1-.552-1.839,1.472-.552,2.023Z" transform="translate(-150.029 -104.649)" fill="url(#linear-gradient-16)"/>
              </g>
            </g>
          </g>
          <path id="Path_30212" data-name="Path 30212" d="M187.8,129.464l-49.85-7.358-11.4-48.746c-1.472-6.99-7.91-13.06-14.532-10.485h0c-5.7,2.207-6.806,9.565-4.783,15.452l17.659,58.679c.552,2.391,59.415-1.288,59.415-1.288Z" transform="translate(-106.291 -62.272)" fill="url(#linear-gradient-17)"/>
        </g>
        <g id="Group_2564" data-name="Group 2564" transform="translate(109.334 127.182)">
          <path id="Path_30213" data-name="Path 30213" d="M161,127.389h50.769L219.311,96.3a4.563,4.563,0,0,0-4.415-5.7H173.508a4.7,4.7,0,0,0-4.415,3.495Z" transform="translate(-137.455 -90.6)" fill="#eeebd4"/>
          <path id="Path_30214" data-name="Path 30214" d="M209.45,91.6a4.405,4.405,0,0,1,.736,3.679l-7.542,31.087H174.5Z" transform="translate(-126.122 -89.761)" fill="#cccbc4"/>
          <path id="Path_30215" data-name="Path 30215" d="M150.775,110.6h43.779l-2.575,2.575H148.2A2.515,2.515,0,0,1,150.775,110.6Z" transform="translate(-148.2 -73.811)" fill="#c5c4bb"/>
          <path id="Path_30216" data-name="Path 30216" d="M204.559,110.6a2.515,2.515,0,0,1-2.575,2.575H172l2.575-2.575Z" transform="translate(-128.221 -73.811)" fill="#c0afae"/>
          <path id="Path_30217" data-name="Path 30217" d="M148.2,113.175h22.993a2.515,2.515,0,0,0,2.575-2.575H150.775A2.515,2.515,0,0,0,148.2,113.175Z" transform="translate(-148.2 -73.811)" fill="#eeebd4"/>
          <g id="Group_2563" data-name="Group 2563" transform="translate(25.569)">
            <path id="Path_30218" data-name="Path 30218" d="M162.1,127.389,170.194,94.1a4.7,4.7,0,0,1,4.415-3.495H216a4.8,4.8,0,0,1,3.679,1.839l-34.95,34.95Z" transform="translate(-162.1 -90.6)" fill="#d6d5ca"/>
            <path id="Path_30219" data-name="Path 30219" d="M183.344,102.659a2.987,2.987,0,0,1-2.943,2.759,2.422,2.422,0,0,1-2.391-2.759,2.987,2.987,0,0,1,2.943-2.759A2.422,2.422,0,0,1,183.344,102.659Z" transform="translate(-148.762 -82.793)" fill="#fff"/>
          </g>
        </g>
        <g id="Group_2565" data-name="Group 2565" transform="translate(192.846 125.71)">
          <path id="Path_30220" data-name="Path 30220" d="M200.872,92.107v14.532a.552.552,0,1,0,1.1,0V99.281a2.125,2.125,0,0,1,2.207-2.207h0a2.125,2.125,0,0,1,2.207,2.207v7.358a4.749,4.749,0,0,1-4.783,4.783h-.184a.587.587,0,0,0-.552.552v6.438a.587.587,0,0,1-.552.552h-.92V89.9A2.218,2.218,0,0,1,200.872,92.107Z" transform="translate(-188.731 -89.716)" fill="#00acc1"/>
          <path id="Path_30221" data-name="Path 30221" d="M196.934,97.158h0a2.125,2.125,0,0,1,2.207,2.207V109.85a.552.552,0,1,0,1.1,0V92.007a2.125,2.125,0,0,1,2.207-2.207h0a1.39,1.39,0,0,1,.736.184v29.248h-2.207a.587.587,0,0,1-.552-.552v-3.127a.587.587,0,0,0-.552-.552h-.184a4.87,4.87,0,0,1-4.783-4.783V99.365A1.9,1.9,0,0,1,196.934,97.158Z" transform="translate(-192.519 -89.8)" fill="#00838f"/>
          <path id="Path_30222" data-name="Path 30222" d="M193.6,112.11V104.2h19.13v1.1l-13.244,13.244A6.557,6.557,0,0,1,193.6,112.11Z" transform="translate(-193.6 -77.712)" fill="#005077"/>
          <path id="Path_30223" data-name="Path 30223" d="M209.944,104.8v6.806a6.517,6.517,0,0,1-6.438,6.438H196.7Z" transform="translate(-190.998 -77.208)" fill="#002856"/>
        </g>
        <g id="Group_2566" data-name="Group 2566" transform="translate(84.317 164.707)">
          <path id="Path_30224" data-name="Path 30224" d="M147.926,111a1.843,1.843,0,0,1,1.839,1.839H140.2L142.039,111Z" transform="translate(-129.899 -111)" fill="#d3c0be"/>
          <path id="Path_30225" data-name="Path 30225" d="M136.439,111h10.3l-1.839,1.839H134.6A1.738,1.738,0,0,1,136.439,111Z" transform="translate(-134.6 -111)" fill="#d6d5ca"/>
        </g>
        <path id="Path_30226" data-name="Path 30226" d="M165.858,210.465l-8.462-7.542-8.462-2.023-5.334,8.094,31.271,10.485-.92-3.495Z" transform="translate(-42.728 129.175)" fill="#002856"/>
      </g>
    </g>
    <g id="Group_2578" data-name="Group 2578" transform="translate(276.062)">
      <g id="Group_2575" data-name="Group 2575">
        <g id="Group_2569" data-name="Group 2569" transform="translate(48.378 90.318)">
          <path id="Path_30227" data-name="Path 30227" d="M185.795,58.279,182.3,61.774h0l6.622,6.622,11.221-11.221L197.568,54.6l-8.646,7.174Z" transform="translate(-171.447 -44.483)" fill="#008da7"/>
          <path id="Path_30228" data-name="Path 30228" d="M198.842,75.956h-20.6V52.779h2.391v.92a.869.869,0,0,0,.92.92h.184a.869.869,0,0,0,.92-.92v-.92h2.575v.92a.869.869,0,0,0,.92.92h.184a.869.869,0,0,0,.92-.92v-.92h2.575v.92a.869.869,0,0,0,.92.92h.184a.869.869,0,0,0,.92-.92v-.92h2.575v.92a.869.869,0,0,0,.92.92h.184a.869.869,0,0,0,.92-.92v-.92H197l1.656,1.656V59.4l1.839-1.472V53.7l-2.759-2.759H196.45v-.92a.869.869,0,0,0-.92-.92h-.184a.869.869,0,0,0-.92.92v.92h-2.575v-.92a.869.869,0,0,0-.92-.92h-.184a.869.869,0,0,0-.92.92v.92h-2.575v-.92a.869.869,0,0,0-.92-.92h-.184a.869.869,0,0,0-.92.92v.92h-2.575v-.92a.869.869,0,0,0-.92-.92h-.184a.869.869,0,0,0-.92.92v.92H176.4V77.8h24.1V69.518l-1.839,1.839v4.6Z" transform="translate(-176.4 -49.1)" fill="#008da7"/>
        </g>
        <g id="Group_2570" data-name="Group 2570" transform="translate(0 37.341)">
          <path id="Path_30229" data-name="Path 30229" d="M185.6,42.374h-26.12V41.086l24.1-3.127a2.579,2.579,0,0,0,2.207-2.575v-7.91a2.435,2.435,0,0,0-2.391-2.391H159.481V23.243a2.906,2.906,0,0,0-2.943-2.943h-4.6a1.839,1.839,0,0,0,0,3.679H155.8v19.13a2.906,2.906,0,0,0,2.943,2.943h27.04a1.843,1.843,0,0,0,1.839-1.839A2.162,2.162,0,0,0,185.6,42.374Zm-15.635-5.334-4.6.552V27.658h4.6Zm2.023-9.381h4.6v8.462l-4.6.552ZM183.026,35.2l-4.231.552V27.658h4.231ZM163.16,27.658V37.775l-3.679.552V27.658Z" transform="translate(-150.1 -20.3)" fill="#008da7"/>
          <path id="Path_30230" data-name="Path 30230" d="M159.479,34.5a3.679,3.679,0,1,0,3.679,3.679A3.69,3.69,0,0,0,159.479,34.5Z" transform="translate(-145.315 -8.38)" fill="#008da7"/>
          <path id="Path_30231" data-name="Path 30231" d="M169.079,34.5a3.679,3.679,0,1,0,3.679,3.679A3.69,3.69,0,0,0,169.079,34.5Z" transform="translate(-137.256 -8.38)" fill="#008da7"/>
        </g>
        <g id="Group_2571" data-name="Group 2571" transform="translate(66.957)">
          <path id="Path_30232" data-name="Path 30232" d="M195.329,42.308V37.341a22.124,22.124,0,0,1-8.829-2.207l1.472-6.07a19.257,19.257,0,0,0,8.645,2.207c2.943,0,4.967-1.1,4.967-3.127s-1.656-3.127-5.518-4.6c-5.518-1.839-9.381-4.415-9.381-9.565,0-4.6,3.311-8.094,8.829-9.2V0h5.151V4.6a20.91,20.91,0,0,1,7.542,1.656l-1.472,5.886a16.842,16.842,0,0,0-7.542-1.839c-3.311,0-4.415,1.472-4.415,2.943,0,1.656,1.839,2.759,6.254,4.415,6.254,2.207,8.646,4.967,8.646,9.749,0,4.6-3.311,8.645-9.2,9.565v5.334Z" transform="translate(-186.5)" fill="#008da7"/>
        </g>
        <g id="Group_2574" data-name="Group 2574" transform="translate(20.526 26.856)">
          <g id="Group_2572" data-name="Group 2572" transform="translate(34.17 119.445)">
            <path id="Path_30233" data-name="Path 30233" d="M181.243,81.679a.676.676,0,0,1-.552-.184c-.184-.368-.552-.552-.736-.92s-.184-.736.184-.92.736-.184.92.184a2.54,2.54,0,0,0,.552.736.821.821,0,0,1,0,.92A.642.642,0,0,0,181.243,81.679Z" transform="translate(-179.834 -79.534)" fill="#008da7"/>
          </g>
          <g id="Group_2573" data-name="Group 2573">
            <path id="Path_30234" data-name="Path 30234" d="M195,129.015h0a.791.791,0,0,1-.736-.736,9.7,9.7,0,0,1,.552-2.207c.184-.368.552-.552.736-.368.368.184.552.552.368.736a7.823,7.823,0,0,0-.368,2.023A.488.488,0,0,1,195,129.015Zm3.311-7.91c-.184,0-.184,0-.368-.184-.368-.184-.368-.552-.184-.92a15.911,15.911,0,0,0,1.288-1.839c.184-.368.552-.368.92-.184s.368.552.184.92c-.368.552-.92,1.1-1.288,1.656C198.676,121.105,198.492,121.105,198.308,121.105Zm5.334-6.806c-.184,0-.184,0-.368-.184-.368-.184-.368-.552-.184-.92a16.174,16.174,0,0,0,1.1-1.839c.184-.368.552-.368.92-.184s.368.552.184.92c-.368.552-.736,1.1-1.288,1.839C204.01,114.3,203.826,114.3,203.643,114.3Zm-13.8-35.318c-.184,0-.184,0-.368-.184-.552-.368-1.288-.736-1.839-1.1-.368-.184-.368-.552-.184-.92s.552-.368.92-.184c.552.368,1.288.736,1.839,1.1.368.184.368.552.184.92C190.4,78.8,190.214,78.981,189.847,78.981Zm-7.358-4.6h-.368c-.552-.368-1.288-.736-1.839-1.1-.368-.184-.368-.552-.184-.92s.552-.368.92-.184c.552.368,1.288.736,1.839,1.1.368.184.368.552.184.92C183.041,74.383,182.673,74.383,182.489,74.383Zm-7.358-4.415c-.184,0-.184,0-.368-.184a15.913,15.913,0,0,0-1.839-1.288c-.368-.184-.368-.552-.184-.92s.552-.368.92-.184c.552.368,1.1.92,1.656,1.288.368.184.368.552.184.92C175.683,69.784,175.315,69.968,175.131,69.968Zm-6.622-5.518a.676.676,0,0,1-.552-.184,11.9,11.9,0,0,1-1.472-1.656.65.65,0,1,1,.92-.92,11.1,11.1,0,0,0,1.472,1.472.835.835,0,0,1,0,.92C168.877,64.45,168.693,64.45,168.509,64.45Zm-5.518-6.622c-.184,0-.368-.184-.552-.368-.368-.552-.736-1.288-1.1-1.839a.663.663,0,0,1,1.1-.736c.368.552.736,1.288,1.1,1.839.184.368.184.736-.184.92C163.358,57.827,163.174,57.827,162.99,57.827Zm.184-32.375c-.184,0-.368,0-.368-.184-.368-.184-.368-.552-.184-.92.552-.552.92-1.1,1.472-1.656a.835.835,0,0,1,.92,0,.835.835,0,0,1,0,.92,10.107,10.107,0,0,0-1.288,1.656A.676.676,0,0,1,163.174,25.453ZM205.3,19.934h-.184a8.967,8.967,0,0,1-2.023-.736.7.7,0,1,1,.552-1.288,8.967,8.967,0,0,1,2.023.736.672.672,0,0,1,.368.92C205.666,19.751,205.482,19.934,205.3,19.934Zm-35.686,0c-.184,0-.368-.184-.552-.368a.809.809,0,0,1,.184-.92,20.065,20.065,0,0,1,2.023-1.1.7.7,0,1,1,.552,1.288c-.552.368-1.288.552-1.839.92C169.98,19.934,169.8,19.934,169.612,19.934Zm27.408-2.391h0c-.92-.184-1.472-.368-2.207-.552-.368,0-.552-.368-.552-.736s.368-.552.736-.552l2.207.552c.368,0,.552.368.552.736A.986.986,0,0,1,197.02,17.543Zm-19.314-.736c-.368,0-.552-.184-.736-.552,0-.368.184-.736.552-.736a9.233,9.233,0,0,1,2.207-.368c.368,0,.736.184.736.552s-.184.736-.552.736a11.013,11.013,0,0,0-2.207.368Zm10.669-.736h-2.023a.736.736,0,0,1,0-1.472,7.546,7.546,0,0,1,2.023.184h.184c.368,0,.552.368.552.736S188.743,16.072,188.375,16.072Z" transform="translate(-161.259 -14.6)" fill="#008da7"/>
          </g>
        </g>
      </g>
      <text id="SHOPPING_LIST" data-name="SHOPPING
LIST" transform="translate(79.959 116.257)" fill="#008da7" font-size="9" font-family="Helvetica"><tspan x="0" y="0">SHOPPING</tspan><tspan x="0" y="10">LIST</tspan></text>
      <g id="Group_2576" data-name="Group 2576" transform="translate(41.378 45.336)">
        <text id="CHECK_OUT" data-name="CHECK
OUT" transform="translate(0 10)" fill="#008da7" font-size="9" font-family="Helvetica"><tspan x="0" y="0">CHECK</tspan><tspan x="0" y="10">OUT</tspan></text>
      </g>
      <g id="Group_2577" data-name="Group 2577" transform="translate(93.297 1.771)">
        <text id="PAYMENT" transform="translate(0 9)" fill="#008da7" font-size="8" font-family="Helvetica"><tspan x="0" y="0">PAYMENT</tspan></text>
      </g>
    </g>
    <g id="Group_2592" data-name="Group 2592" transform="translate(0.05 216.017)">
      <path id="Path_30235" data-name="Path 30235" d="M97.266,214.2c-20.6-.184-30.535-2.023-51.137-1.656-1.1-.736-7.174,0-9.2.184-13.428,1.1-22.074,3.679-35.5,4.967-1.839.184-1.839,2.023,0,2.207,10.117.92,20.418.736,30.535,1.1.184,1.472,1.839,2.759,5.151,2.759,23.913-.184,47.826-.92,71.739-2.023C114.005,221.376,102.6,214.2,97.266,214.2Z" transform="translate(-0.05 -37.86)" fill="#005077" opacity="0.1"/>
      <g id="Group_2591" data-name="Group 2591" transform="translate(18.41)">
        <g id="Group_2579" data-name="Group 2579" transform="translate(3.019 114.168)">
          <path id="Path_30236" data-name="Path 30236" d="M85.095,245.537H11.7V179.5H85.095ZM24.76,232.477H72.035V192.56H24.76Z" transform="translate(-11.7 -179.5)" fill="#cccbc4"/>
        </g>
        <g id="Group_2590" data-name="Group 2590">
          <g id="Group_2580" data-name="Group 2580" transform="translate(34.537)">
            <path id="Path_30237" data-name="Path 30237" d="M39.211,118.5c-.736,3.127-1.472,6.438-2.023,9.749l-1.288.736Q37.28,123.742,39.211,118.5Z" transform="translate(-22.903 -116.54)" fill="#005077"/>
            <path id="Path_30238" data-name="Path 30238" d="M36.472,124.536l1.288-.736c-.368,1.839-.736,3.863-.92,5.7L35,130.238C35.552,128.215,35.92,126.375,36.472,124.536Z" transform="translate(-23.658 -112.091)" fill="#008da7"/>
            <path id="Path_30239" data-name="Path 30239" d="M33.872,136.5l2.943-1.1c-.368,3.679-.736,7.358-1.1,10.853L32.4,147.54C32.768,143.862,33.32,140.183,33.872,136.5Z" transform="translate(-25.841 -102.353)" fill="#005077"/>
            <path id="Path_30240" data-name="Path 30240" d="M32.568,142.588l3.311-1.288c0,.736-.184,1.288-.184,2.023a35.445,35.445,0,0,0-.184,4.415L32.2,149.21C32.2,147,32.384,144.795,32.568,142.588Z" transform="translate(-26.009 -97.4)" fill="#008da7"/>
            <path id="Path_30241" data-name="Path 30241" d="M32.3,146.372l3.311-1.472a147.8,147.8,0,0,0,.184,15.635l-3.863,2.391A164.554,164.554,0,0,1,32.3,146.372Z" transform="translate(-26.294 -94.378)" fill="#005077"/>
            <path id="Path_30242" data-name="Path 30242" d="M31.9,155.691l3.863-2.391v1.472a25.135,25.135,0,0,0,.368,3.495L31.9,160.106Q31.9,157.9,31.9,155.691Z" transform="translate(-26.261 -87.326)" fill="#008da7"/>
            <path id="Path_30243" data-name="Path 30243" d="M32,157.839,36.231,156a65.676,65.676,0,0,1,.736,8.462l-4.415,2.575A74.873,74.873,0,0,1,32,157.839Z" transform="translate(-26.177 -85.06)" fill="#005077"/>
            <path id="Path_30244" data-name="Path 30244" d="M36.631,162.6a17.912,17.912,0,0,1-1.1,6.254,1.659,1.659,0,0,1-2.575.92c-.184-1.472-.368-3.127-.552-4.6Z" transform="translate(-25.841 -79.519)" fill="#005077"/>
            <path id="Path_30245" data-name="Path 30245" d="M32.3,163.175l4.415-2.575V164.1l-4.047,2.391A16.5,16.5,0,0,1,32.3,163.175Z" transform="translate(-25.925 -81.198)" fill="#008da7"/>
            <path id="Path_30246" data-name="Path 30246" d="M34.3,133.188l2.575-1.288c-.368,2.023-.552,4.047-.736,6.254l-2.943,1.1Q33.752,136.5,34.3,133.188Z" transform="translate(-25.169 -105.291)" fill="#008da7"/>
            <path id="Path_30247" data-name="Path 30247" d="M36.007,127.636l1.839-.736c-.552,3.127-.92,6.254-1.472,9.381L33.8,137.569A96.165,96.165,0,0,1,36.007,127.636Z" transform="translate(-24.666 -109.488)" fill="#005077"/>
            <path id="Path_30248" data-name="Path 30248" d="M34.9,126.385c1.472-2.943,3.311-5.886,5.151-8.829.184-.184.552-.184.368.184a6.536,6.536,0,0,0-.368,1.839c-1.1,3.127-2.207,6.254-3.127,9.381Z" transform="translate(-23.742 -117.434)" fill="#008da7"/>
            <path id="Path_30249" data-name="Path 30249" d="M36.159,122.3l2.023,2.391c-.552,2.023-1.1,4.231-1.656,6.254L33.4,128A40.439,40.439,0,0,1,36.159,122.3Z" transform="translate(-25.002 -113.35)" fill="#62afbd"/>
            <path id="Path_30250" data-name="Path 30250" d="M31.3,135.333c1.1-3.311,2.391-6.622,3.679-9.933l3.127,2.943c-.92,3.495-1.656,6.99-2.391,10.485Z" transform="translate(-26.764 -110.747)" fill="#008da7"/>
            <path id="Path_30251" data-name="Path 30251" d="M31.888,130.8l4.415,3.679a45.973,45.973,0,0,0-.92,5.334L30.6,135.4C30.968,133.743,31.52,132.272,31.888,130.8Z" transform="translate(-27.352 -106.214)" fill="#62afbd"/>
            <path id="Path_30252" data-name="Path 30252" d="M29.3,145.341A83.415,83.415,0,0,1,31.691,133.2l4.783,4.415c-.736,4.231-1.288,8.462-1.656,12.508Z" transform="translate(-28.443 -104.2)" fill="#008da7"/>
            <path id="Path_30253" data-name="Path 30253" d="M29.268,143.579c.184-1.288.184-2.575.368-3.679l5.518,4.783c-.184,2.391-.368,4.6-.552,6.99l-5.7-5.151A18.343,18.343,0,0,0,29.268,143.579Z" transform="translate(-28.779 -98.575)" fill="#62afbd"/>
            <path id="Path_30254" data-name="Path 30254" d="M28.955,158.768a140.936,140.936,0,0,1,.184-15.268l5.7,5.151c-.368,4.783-.368,9.749-.368,14.532Z" transform="translate(-28.834 -95.553)" fill="#008da7"/>
            <path id="Path_30255" data-name="Path 30255" d="M28.9,151.8l5.518,4.415a51.691,51.691,0,0,0,.184,5.334l-5.334-3.311C29.084,156.031,28.9,154.007,28.9,151.8Z" transform="translate(-28.779 -88.585)" fill="#62afbd"/>
            <path id="Path_30256" data-name="Path 30256" d="M29.1,155.3h0l5.334,3.311c.184,2.943.368,5.7.552,8.645l-4.047-.736A59.487,59.487,0,0,1,29.1,155.3Z" transform="translate(-28.611 -85.647)" fill="#008da7"/>
            <path id="Path_30257" data-name="Path 30257" d="M30,161.4l4.047.736c.184,1.288.184,2.391.368,3.679l-2.943-.184A28.593,28.593,0,0,1,30,161.4Z" transform="translate(-27.856 -80.527)" fill="#62afbd"/>
            <path id="Path_30258" data-name="Path 30258" d="M33.743,163.884l.552,4.967a.18.18,0,0,1-.184-.184A18.031,18.031,0,0,1,30.8,163.7Z" transform="translate(-27.184 -78.596)" fill="#008da7"/>
          </g>
          <g id="Group_2584" data-name="Group 2584" transform="translate(33.371 17.887)">
            <g id="Group_2581" data-name="Group 2581" transform="translate(5.702)">
              <path id="Path_30259" data-name="Path 30259" d="M49.851,128.1c-1.288,2.391-2.759,4.967-3.863,7.542l-1.288.184C46.356,133.251,48.011,130.675,49.851,128.1Z" transform="translate(-20.051 -126.368)" fill="#005077"/>
              <path id="Path_30260" data-name="Path 30260" d="M45.875,132.384l1.288-.184-2.207,4.415L43.3,136.8C44.036,135.327,44.956,133.856,45.875,132.384Z" transform="translate(-21.226 -122.926)" fill="#008da7"/>
              <path id="Path_30261" data-name="Path 30261" d="M41.479,141.568l2.759-.368c-1.288,2.943-2.391,5.886-3.495,8.645l-2.943.368C38.9,147.454,40.191,144.511,41.479,141.568Z" transform="translate(-25.843 -115.371)" fill="#005077"/>
              <path id="Path_30262" data-name="Path 30262" d="M38.723,146.368,41.667,146l-.552,1.656c-.368,1.1-.92,2.391-1.288,3.495L36.7,151.7C37.252,149.863,37.988,148.207,38.723,146.368Z" transform="translate(-26.767 -111.342)" fill="#008da7"/>
              <path id="Path_30263" data-name="Path 30263" d="M38.631,149.352l3.127-.552a102.284,102.284,0,0,0-3.495,12.876l-3.863,1.1C35.688,158.365,36.975,153.767,38.631,149.352Z" transform="translate(-28.698 -108.991)" fill="#005077"/>
              <path id="Path_30264" data-name="Path 30264" d="M34.82,156.9l3.863-1.1c-.184.368-.184.92-.368,1.288-.184.92-.368,1.839-.552,2.943l-3.863.552A21.516,21.516,0,0,0,34.82,156.9Z" transform="translate(-29.117 -103.115)" fill="#008da7"/>
              <path id="Path_30265" data-name="Path 30265" d="M34.656,158.652l3.863-.552c-.368,2.391-.736,4.783-1.288,7.174L33,166.378Z" transform="translate(-29.873 -101.184)" fill="#005077"/>
              <path id="Path_30266" data-name="Path 30266" d="M36.915,163.6a29.339,29.339,0,0,1-2.207,4.967,1.389,1.389,0,0,1-2.207.184c.184-1.288.368-2.575.552-4.047Z" transform="translate(-30.293 -96.567)" fill="#005077"/>
              <path id="Path_30267" data-name="Path 30267" d="M33.268,163.1,37.5,162c-.184.92-.552,2.023-.736,2.943l-3.863,1.1A16.1,16.1,0,0,1,33.268,163.1Z" transform="translate(-29.957 -97.91)" fill="#008da7"/>
              <path id="Path_30268" data-name="Path 30268" d="M42.191,138.968l2.391-.368c-.736,1.656-1.472,3.311-2.023,4.967l-2.759.368C40.536,142.279,41.272,140.623,42.191,138.968Z" transform="translate(-24.165 -117.554)" fill="#008da7"/>
              <path id="Path_30269" data-name="Path 30269" d="M45.147,134.784,46.8,134.6c-1.1,2.391-2.207,4.967-3.311,7.358l-2.391.368C42.388,139.751,43.675,137.175,45.147,134.784Z" transform="translate(-23.073 -120.912)" fill="#005077"/>
              <path id="Path_30270" data-name="Path 30270" d="M44.3,133.305c2.023-2.023,4.047-4.047,6.254-6.07.184-.184.368,0,.368.184a10.923,10.923,0,0,0-.736,1.472c-1.656,2.207-3.127,4.6-4.6,6.99Z" transform="translate(-20.387 -127.159)" fill="#008da7"/>
              <path id="Path_30271" data-name="Path 30271" d="M45.979,130.5l1.1,2.575c-.92,1.656-2.023,3.127-2.943,4.783L42.3,134.731C43.588,133.259,44.875,131.972,45.979,130.5Z" transform="translate(-22.066 -124.354)" fill="#62afbd"/>
              <path id="Path_30272" data-name="Path 30272" d="M39.5,139.974a72.618,72.618,0,0,1,5.334-7.174l1.839,3.127c-1.472,2.575-2.943,5.334-4.415,8.094Z" transform="translate(-24.416 -122.423)" fill="#008da7"/>
              <path id="Path_30273" data-name="Path 30273" d="M40.423,136.7l2.943,4.047c-.736,1.288-1.288,2.759-2.023,4.047L38.4,140.011A32,32,0,0,1,40.423,136.7Z" transform="translate(-25.34 -119.149)" fill="#62afbd"/>
              <path id="Path_30274" data-name="Path 30274" d="M35.7,147.981a74.775,74.775,0,0,1,4.783-9.381l2.943,4.783c-1.472,3.311-2.943,6.622-4.231,9.933Z" transform="translate(-27.606 -117.554)" fill="#008da7"/>
              <path id="Path_30275" data-name="Path 30275" d="M35.52,146.643c.368-.92.736-2.023,1.1-2.943l3.495,5.151c-.736,1.839-1.472,3.679-2.023,5.518L34.6,148.851C34.968,148.3,35.152,147.379,35.52,146.643Z" transform="translate(-28.53 -113.273)" fill="#62afbd"/>
              <path id="Path_30276" data-name="Path 30276" d="M32.6,159.108c1.1-4.231,2.207-8.462,3.679-12.508l3.495,5.518c-1.288,3.863-2.575,7.91-3.679,11.957Z" transform="translate(-30.209 -110.838)" fill="#008da7"/>
              <path id="Path_30277" data-name="Path 30277" d="M33.1,153.4l3.495,4.967-1.1,4.415L32,158.918Z" transform="translate(-30.712 -105.13)" fill="#62afbd"/>
              <path id="Path_30278" data-name="Path 30278" d="M32.5,156.4h0L36,160.263c-.552,2.391-1.1,4.783-1.472,7.174L31.4,165.965A54.387,54.387,0,0,1,32.5,156.4Z" transform="translate(-31.216 -102.611)" fill="#008da7"/>
              <path id="Path_30279" data-name="Path 30279" d="M31.3,161.6l3.127,1.472c-.184,1.1-.368,2.023-.552,3.127l-2.391-.736C31.484,164.175,31.3,162.888,31.3,161.6Z" transform="translate(-31.3 -98.246)" fill="#62afbd"/>
              <path id="Path_30280" data-name="Path 30280" d="M33.975,164.436c-.184,1.472-.552,2.759-.736,4.231a.18.18,0,0,0-.184-.184A21.01,21.01,0,0,1,31.4,163.7Z" transform="translate(-31.216 -96.483)" fill="#008da7"/>
            </g>
            <g id="Group_2582" data-name="Group 2582" transform="translate(5.102 17.551)">
              <path id="Path_30281" data-name="Path 30281" d="M64.11,137.4c-2.207,1.656-4.415,3.495-6.622,5.151l-1.288-.184C58.775,140.711,61.351,139.056,64.11,137.4Z" transform="translate(-9.796 -136.112)" fill="#005077"/>
              <path id="Path_30282" data-name="Path 30282" d="M58.047,140.1l1.288.184c-1.288,1.1-2.575,2.023-3.679,3.127L54,142.859A39.834,39.834,0,0,0,58.047,140.1Z" transform="translate(-11.643 -133.846)" fill="#008da7"/>
              <path id="Path_30283" data-name="Path 30283" d="M51.106,146.5l2.575.736c-2.207,2.207-4.6,4.415-6.622,6.622l-2.759-.92A75.772,75.772,0,0,1,51.106,146.5Z" transform="translate(-19.786 -128.473)" fill="#005077"/>
              <path id="Path_30284" data-name="Path 30284" d="M46.131,150l2.759.92L47.6,152.207c-.92.92-1.656,1.839-2.575,2.759l-3.127-.736A45.874,45.874,0,0,1,46.131,150Z" transform="translate(-21.801 -125.535)" fill="#008da7"/>
              <path id="Path_30285" data-name="Path 30285" d="M46.2,152.2l3.127.736c-2.943,3.311-5.886,6.806-8.462,10.3L37,162.685A121.021,121.021,0,0,1,46.2,152.2Z" transform="translate(-25.914 -123.688)" fill="#005077"/>
              <path id="Path_30286" data-name="Path 30286" d="M37.907,158l3.863.552c-.184.368-.552.736-.736,1.1-.552.736-1.1,1.656-1.656,2.391l-3.679-1.1C36.436,159.839,37.172,158.92,37.907,158Z" transform="translate(-27.006 -118.819)" fill="#008da7"/>
              <path id="Path_30287" data-name="Path 30287" d="M37.8,159.6l3.679,1.1c-1.288,2.023-2.575,4.047-4.047,6.07l-4.231-.736A57.452,57.452,0,0,1,37.8,159.6Z" transform="translate(-29.104 -117.476)" fill="#005077"/>
              <path id="Path_30288" data-name="Path 30288" d="M37.254,164.952a23.976,23.976,0,0,1-4.047,3.495A1.443,1.443,0,0,1,31,167.711l2.207-3.311Z" transform="translate(-30.951 -113.447)" fill="#005077"/>
              <path id="Path_30289" data-name="Path 30289" d="M34.039,163l4.231.736a23.3,23.3,0,0,1-2.023,2.391l-4.047-.552A22.317,22.317,0,0,1,34.039,163Z" transform="translate(-29.944 -114.622)" fill="#008da7"/>
              <path id="Path_30290" data-name="Path 30290" d="M52.047,144.6l2.391.736c-1.288,1.288-2.575,2.391-3.863,3.679L48,148.279A25.25,25.25,0,0,1,52.047,144.6Z" transform="translate(-16.68 -130.068)" fill="#008da7"/>
              <path id="Path_30291" data-name="Path 30291" d="M57.006,141.7l1.656.552c-2.023,1.839-4.047,3.495-6.07,5.334l-2.391-.736C52.407,145.195,54.615,143.356,57.006,141.7Z" transform="translate(-14.833 -132.503)" fill="#005077"/>
              <path id="Path_30292" data-name="Path 30292" d="M56.6,139.827a86.4,86.4,0,0,1,8.278-3.127c.184,0,.368.184.184.368-.368.368-.92.552-1.288.92L56.6,142.4Z" transform="translate(-9.461 -136.7)" fill="#008da7"/>
              <path id="Path_30293" data-name="Path 30293" d="M58.867,138.4v2.759c-1.472,1.1-3.127,2.023-4.6,3.127l-.368-3.679Z" transform="translate(-11.727 -135.273)" fill="#62afbd"/>
              <path id="Path_30294" data-name="Path 30294" d="M49.6,144.015a66.646,66.646,0,0,1,7.91-4.415l.368,3.679c-2.575,1.839-4.967,3.679-7.358,5.518Z" transform="translate(-15.337 -134.266)" fill="#008da7"/>
              <path id="Path_30295" data-name="Path 30295" d="M51.111,142l.92,4.783c-1.1.92-2.391,2.023-3.495,2.943l-.736-5.518Z" transform="translate(-16.848 -132.251)" fill="#62afbd"/>
              <path id="Path_30296" data-name="Path 30296" d="M43.3,149.922a72.533,72.533,0,0,1,8.278-6.622l.736,5.518c-2.759,2.391-5.334,4.783-7.91,7.358Z" transform="translate(-20.626 -131.16)" fill="#008da7"/>
              <path id="Path_30297" data-name="Path 30297" d="M42.939,149.107l2.207-2.207,1.1,6.254-4.231,4.231-.92-6.438Z" transform="translate(-22.472 -128.137)" fill="#62afbd"/>
              <path id="Path_30298" data-name="Path 30298" d="M36.5,158.933A109.531,109.531,0,0,1,44.962,149l.92,6.438c-2.943,2.943-5.518,6.07-8.278,9.381Z" transform="translate(-26.334 -126.375)" fill="#008da7"/>
              <path id="Path_30299" data-name="Path 30299" d="M38.011,154.4l1.1,5.886c-.92,1.1-1.839,2.391-2.759,3.495L34.7,158.815C35.8,157.527,36.907,155.872,38.011,154.4Z" transform="translate(-27.845 -121.841)" fill="#62afbd"/>
              <path id="Path_30300" data-name="Path 30300" d="M36.967,156.9h0l1.656,4.967c-1.472,2.023-2.943,3.863-4.415,6.07L32,165.178A61.63,61.63,0,0,1,36.967,156.9Z" transform="translate(-30.112 -119.743)" fill="#008da7"/>
              <path id="Path_30301" data-name="Path 30301" d="M32.588,161.4l2.207,2.759c-.552.92-1.1,1.656-1.656,2.575L31.3,165.079A21.642,21.642,0,0,1,32.588,161.4Z" transform="translate(-30.699 -115.965)" fill="#62afbd"/>
              <path id="Path_30302" data-name="Path 30302" d="M33.414,165.056c-.736,1.1-1.656,2.391-2.391,3.495v-.184a15.278,15.278,0,0,1,.552-4.967Z" transform="translate(-30.973 -114.286)" fill="#008da7"/>
            </g>
            <g id="Group_2583" data-name="Group 2583" transform="translate(0 49.558)">
              <path id="Path_30303" data-name="Path 30303" d="M57.338,154.5c-1.839.736-3.863,1.472-5.7,2.391l-.736-.368A65.859,65.859,0,0,1,57.338,154.5Z" transform="translate(-9.144 -153.764)" fill="#005077"/>
              <path id="Path_30304" data-name="Path 30304" d="M52.479,155.5l.736.368c-1.1.552-2.207.92-3.311,1.472l-1.1-.736A10.8,10.8,0,0,0,52.479,155.5Z" transform="translate(-10.907 -152.925)" fill="#008da7"/>
              <path id="Path_30305" data-name="Path 30305" d="M46.67,158.4l1.656,1.1c-2.023,1.1-4.047,2.207-5.886,3.311L40.6,161.527C42.623,160.423,44.647,159.32,46.67,158.4Z" transform="translate(-17.791 -150.49)" fill="#005077"/>
              <path id="Path_30306" data-name="Path 30306" d="M42.279,160.1l1.839,1.288-1.1.552c-.736.368-1.472.92-2.391,1.472l-2.023-1.1A38.917,38.917,0,0,1,42.279,160.1Z" transform="translate(-19.47 -149.063)" fill="#008da7"/>
              <path id="Path_30307" data-name="Path 30307" d="M42.462,161.2l2.023,1.1a76.254,76.254,0,0,0-7.91,5.518L34,166.718C36.759,164.879,39.518,163.039,42.462,161.2Z" transform="translate(-23.331 -148.14)" fill="#005077"/>
              <path id="Path_30308" data-name="Path 30308" d="M35.007,164.3l2.575,1.1c-.184.184-.552.368-.736.552a11.9,11.9,0,0,0-1.656,1.472L32.8,165.956A17.258,17.258,0,0,1,35.007,164.3Z" transform="translate(-24.338 -145.537)" fill="#008da7"/>
              <path id="Path_30309" data-name="Path 30309" d="M34.815,165.1l2.391,1.472c-1.288,1.1-2.575,2.391-4.047,3.495L30.4,168.595C31.872,167.491,33.343,166.388,34.815,165.1Z" transform="translate(-26.353 -144.866)" fill="#005077"/>
              <path id="Path_30310" data-name="Path 30310" d="M33.094,169a12.2,12.2,0,0,1-3.495,1.656c-.552.184-1.472-.184-1.288-.92a19.491,19.491,0,0,1,2.207-1.839Z" transform="translate(-28.127 -142.515)" fill="#005077"/>
              <path id="Path_30311" data-name="Path 30311" d="M31.239,167.1,34,168.572a15.909,15.909,0,0,1-1.839,1.288L29.4,168.572C30.136,168.02,30.688,167.468,31.239,167.1Z" transform="translate(-27.193 -143.187)" fill="#008da7"/>
              <path id="Path_30312" data-name="Path 30312" d="M47.479,157.5l1.472.92c-1.1.552-2.207,1.1-3.495,1.839l-1.656-1.1C45.088,158.6,46.375,158.052,47.479,157.5Z" transform="translate(-15.104 -151.246)" fill="#008da7"/>
              <path id="Path_30313" data-name="Path 30313" d="M51.5,156.2l1.1.736c-1.839.92-3.495,1.656-5.334,2.575l-1.472-.92C47.639,157.672,49.663,156.936,51.5,156.2Z" transform="translate(-13.425 -152.337)" fill="#005077"/>
              <path id="Path_30314" data-name="Path 30314" d="M51.836,154.652c2.023-.184,4.231-.368,6.254-.552.184,0,.184.184,0,.368a2.615,2.615,0,0,1-1.1.368c-2.023.552-3.863,1.1-5.886,1.656Z" transform="translate(-8.976 -154.1)" fill="#008da7"/>
              <path id="Path_30315" data-name="Path 30315" d="M53.515,154.4l-.552,1.839c-1.288.368-2.575.92-3.863,1.288l.368-2.575C50.756,154.768,52.043,154.584,53.515,154.4Z" transform="translate(-10.655 -153.848)" fill="#62afbd"/>
              <path id="Path_30316" data-name="Path 30316" d="M46.068,156.356c2.023-.552,4.231-1.1,6.254-1.656l-.368,2.575c-2.023.736-4.231,1.656-6.254,2.575Z" transform="translate(-13.509 -153.596)" fill="#008da7"/>
              <path id="Path_30317" data-name="Path 30317" d="M47.327,155.6l-.184,3.495c-.92.368-2.023.92-2.943,1.288l.552-4.047C45.488,156.152,46.407,155.784,47.327,155.6Z" transform="translate(-14.769 -152.841)" fill="#62afbd"/>
              <path id="Path_30318" data-name="Path 30318" d="M40.852,159.227a58.258,58.258,0,0,1,6.99-3.127l-.552,4.047c-2.391,1.1-4.6,2.391-6.99,3.679Z" transform="translate(-18.042 -152.421)" fill="#008da7"/>
              <path id="Path_30319" data-name="Path 30319" d="M40.507,158.9c.736-.368,1.288-.736,2.023-1.1l-.552,4.6c-1.288.736-2.575,1.472-3.679,2.207l.552-4.6A4.344,4.344,0,0,1,40.507,158.9Z" transform="translate(-19.721 -150.994)" fill="#62afbd"/>
              <path id="Path_30320" data-name="Path 30320" d="M34.484,164.134c2.575-1.839,5.151-3.679,7.91-5.334l-.552,4.6c-2.575,1.472-5.151,3.311-7.542,4.967Z" transform="translate(-23.079 -150.154)" fill="#008da7"/>
              <path id="Path_30321" data-name="Path 30321" d="M35.827,161.7l-.368,4.415a13.888,13.888,0,0,0-2.575,2.023l-.184-3.863C33.62,163.356,34.723,162.62,35.827,161.7Z" transform="translate(-24.422 -147.72)" fill="#62afbd"/>
              <path id="Path_30322" data-name="Path 30322" d="M34.951,163.1h0l.184,3.863c-1.472,1.1-2.759,2.207-4.231,3.311l-1.1-2.391A61.079,61.079,0,0,1,34.951,163.1Z" transform="translate(-26.857 -146.545)" fill="#008da7"/>
              <path id="Path_30323" data-name="Path 30323" d="M30.572,165.7l1.1,2.391c-.552.552-1.1.92-1.656,1.472l-.92-1.472A6.49,6.49,0,0,1,30.572,165.7Z" transform="translate(-27.444 -144.362)" fill="#62afbd"/>
              <path id="Path_30324" data-name="Path 30324" d="M30.591,168.555a27.52,27.52,0,0,1-2.391,2.023v-.184a11.387,11.387,0,0,1,1.288-3.495Z" transform="translate(-28.2 -143.355)" fill="#008da7"/>
            </g>
          </g>
          <g id="Group_2588" data-name="Group 2588" transform="translate(0 26.717)">
            <g id="Group_2585" data-name="Group 2585" transform="translate(21.598)">
              <path id="Path_30325" data-name="Path 30325" d="M22.1,132.8l2.207,7.174.92.368C24.307,137.767,23.2,135.191,22.1,132.8Z" transform="translate(-21.548 -131.252)" fill="#005077"/>
              <path id="Path_30326" data-name="Path 30326" d="M24.22,137.068l-.92-.368c.368,1.472.736,2.759,1.1,4.231l1.288.368C25.139,139.827,24.772,138.539,24.22,137.068Z" transform="translate(-20.541 -127.978)" fill="#008da7"/>
              <path id="Path_30327" data-name="Path 30327" d="M27.323,146.036,25.3,145.3c.552,2.759,1.1,5.518,1.472,8.278l2.391.736C28.611,151.554,28.059,148.795,27.323,146.036Z" transform="translate(-18.862 -120.759)" fill="#005077"/>
              <path id="Path_30328" data-name="Path 30328" d="M28.491,150.536,26.1,149.8c0,.552.184,1.1.184,1.472l.552,3.311,2.391.92A46.212,46.212,0,0,0,28.491,150.536Z" transform="translate(-18.19 -116.981)" fill="#008da7"/>
              <path id="Path_30329" data-name="Path 30329" d="M28.991,153.32,26.6,152.4c.552,3.863.92,7.91,1.1,11.773l2.943,1.472C30.095,161.6,29.543,157.551,28.991,153.32Z" transform="translate(-17.771 -114.799)" fill="#005077"/>
              <path id="Path_30330" data-name="Path 30330" d="M30.043,160.372,27.1,158.9v3.679l2.943,1.1Z" transform="translate(-17.351 -109.342)" fill="#008da7"/>
              <path id="Path_30331" data-name="Path 30331" d="M30.143,162,27.2,160.9v6.622l3.311,1.472C30.327,166.786,30.327,164.4,30.143,162Z" transform="translate(-17.267 -107.663)" fill="#005077"/>
              <path id="Path_30332" data-name="Path 30332" d="M27.3,165.9a18.679,18.679,0,0,0,1.1,4.6c.368.736,1.288,1.1,1.839.552v-3.679Z" transform="translate(-17.183 -103.466)" fill="#005077"/>
              <path id="Path_30333" data-name="Path 30333" d="M30.411,165.972,27.1,164.5c0,.92.184,1.839.184,2.759l2.943,1.472A13.922,13.922,0,0,0,30.411,165.972Z" transform="translate(-17.351 -104.641)" fill="#008da7"/>
              <path id="Path_30334" data-name="Path 30334" d="M26.639,143.536,24.8,142.8a40.676,40.676,0,0,1,.92,4.6l2.023.736C27.375,146.479,27.007,145.007,26.639,143.536Z" transform="translate(-19.282 -122.858)" fill="#008da7"/>
              <path id="Path_30335" data-name="Path 30335" d="M25.188,139.368,23.9,139c.552,2.391,1.1,4.6,1.656,6.99l1.839.736C26.659,144.151,25.923,141.759,25.188,139.368Z" transform="translate(-20.037 -126.048)" fill="#005077"/>
              <path id="Path_30336" data-name="Path 30336" d="M26.4,138.289a46.68,46.68,0,0,0-4.231-6.254c-.184-.184-.368,0-.368.184a3.41,3.41,0,0,1,.368,1.288c.92,2.207,1.839,4.6,2.759,6.806Z" transform="translate(-21.8 -131.959)" fill="#008da7"/>
              <path id="Path_30337" data-name="Path 30337" d="M24.888,135.4,23.6,137.423c.552,1.472,1.1,3.127,1.656,4.6l1.839-2.391A18.535,18.535,0,0,0,24.888,135.4Z" transform="translate(-20.289 -129.07)" fill="#62afbd"/>
              <path id="Path_30338" data-name="Path 30338" d="M29.651,144.874a62.344,62.344,0,0,0-3.311-7.174L24.5,140.091c.92,2.575,1.656,5.15,2.391,7.726Z" transform="translate(-19.533 -127.139)" fill="#008da7"/>
              <path id="Path_30339" data-name="Path 30339" d="M28.559,141.6,25.8,144.727l1.1,3.863,2.943-3.679A24.563,24.563,0,0,0,28.559,141.6Z" transform="translate(-18.442 -123.865)" fill="#62afbd"/>
              <path id="Path_30340" data-name="Path 30340" d="M31.918,152.413a72.525,72.525,0,0,0-2.575-9.013L26.4,147.079c.736,3.127,1.472,6.254,2.023,9.381Z" transform="translate(-17.938 -122.354)" fill="#008da7"/>
              <path id="Path_30341" data-name="Path 30341" d="M31.547,151.059l-.552-2.759L27.5,152.347c.368,1.656.552,3.495.92,5.334l3.495-4.415A9.233,9.233,0,0,1,31.547,151.059Z" transform="translate(-17.015 -118.24)" fill="#62afbd"/>
              <path id="Path_30342" data-name="Path 30342" d="M32.683,162.589A82.729,82.729,0,0,0,31.395,151L27.9,155.415c.552,3.679.92,7.358,1.288,11.037Z" transform="translate(-16.679 -115.974)" fill="#008da7"/>
              <path id="Path_30343" data-name="Path 30343" d="M32.095,157.3,28.6,161.163c.184,1.288.184,2.759.368,4.047l3.311-2.943A44.826,44.826,0,0,0,32.095,157.3Z" transform="translate(-16.092 -110.685)" fill="#62afbd"/>
              <path id="Path_30344" data-name="Path 30344" d="M32.111,160h0L28.8,162.943c.184,2.207.184,4.415.184,6.622l2.759-.92A34.443,34.443,0,0,0,32.111,160Z" transform="translate(-15.924 -108.419)" fill="#008da7"/>
              <path id="Path_30345" data-name="Path 30345" d="M31.659,164.7l-2.759.92v2.759l2.023-.368A21.387,21.387,0,0,0,31.659,164.7Z" transform="translate(-15.84 -104.473)" fill="#62afbd"/>
              <path id="Path_30346" data-name="Path 30346" d="M28.9,166.868v3.863l.184-.184a11.494,11.494,0,0,0,1.839-4.047Z" transform="translate(-15.84 -102.962)" fill="#008da7"/>
            </g>
            <g id="Group_2586" data-name="Group 2586" transform="translate(0 11.615)">
              <path id="Path_30347" data-name="Path 30347" d="M10.5,139c1.472,1.84,3.127,3.679,4.6,5.518h.92Q13.535,141.759,10.5,139Z" transform="translate(-9.688 -137.662)" fill="#005077"/>
              <path id="Path_30348" data-name="Path 30348" d="M14.02,142.1H13.1c.92,1.1,1.656,2.207,2.575,3.311l1.288-.184C15.859,144.123,14.939,143.02,14.02,142.1Z" transform="translate(-7.505 -135.06)" fill="#008da7"/>
              <path id="Path_30349" data-name="Path 30349" d="M20.307,148.9l-2.207.368c1.472,2.207,2.943,4.6,4.415,6.806l2.391-.368C23.434,153.315,21.779,151.107,20.307,148.9Z" transform="translate(-3.308 -129.351)" fill="#005077"/>
              <path id="Path_30350" data-name="Path 30350" d="M22.891,152.5l-2.391.368c.184.368.552.92.736,1.288l1.656,2.759,2.575-.184C24.731,155.259,23.811,153.972,22.891,152.5Z" transform="translate(-1.293 -126.329)" fill="#008da7"/>
              <path id="Path_30351" data-name="Path 30351" d="M24.375,154.8l-2.575.184a109.141,109.141,0,0,1,5.334,10.3l3.127.184A102.486,102.486,0,0,0,24.375,154.8Z" transform="translate(-0.202 -124.399)" fill="#005077"/>
              <path id="Path_30352" data-name="Path 30352" d="M27.927,160.784,24.8,160.6l.552,1.1a12.77,12.77,0,0,1,.92,2.391l3.127-.368C28.847,162.623,28.295,161.7,27.927,160.784Z" transform="translate(2.316 -119.53)" fill="#008da7"/>
              <path id="Path_30353" data-name="Path 30353" d="M28.627,162.2l-3.127.368a56.179,56.179,0,0,0,2.391,5.886h3.495A59.352,59.352,0,0,0,28.627,162.2Z" transform="translate(2.904 -118.187)" fill="#005077"/>
              <path id="Path_30354" data-name="Path 30354" d="M27.5,167a17.493,17.493,0,0,0,2.759,3.679,1.146,1.146,0,0,0,1.839-.368c-.368-1.1-.92-2.207-1.288-3.311Z" transform="translate(4.583 -114.157)" fill="#005077"/>
              <path id="Path_30355" data-name="Path 30355" d="M30.395,165.7H26.9a15.207,15.207,0,0,0,1.288,2.391H31.5C31.131,167.356,30.763,166.436,30.395,165.7Z" transform="translate(4.079 -115.248)" fill="#008da7"/>
              <path id="Path_30356" data-name="Path 30356" d="M18.623,146.9l-2.023.184c.92,1.288,1.839,2.575,2.575,3.863l2.207-.368A17.492,17.492,0,0,0,18.623,146.9Z" transform="translate(-4.567 -131.03)" fill="#008da7"/>
              <path id="Path_30357" data-name="Path 30357" d="M15.788,143.8l-1.288.184a63.6,63.6,0,0,1,4.047,5.7l2.023-.184C18.915,147.479,17.443,145.639,15.788,143.8Z" transform="translate(-6.33 -133.633)" fill="#005077"/>
              <path id="Path_30358" data-name="Path 30358" d="M16.389,142.186c-2.023-1.288-4.047-2.759-6.07-3.863-.184-.184-.368.184-.184.368.368.368.552.736.92,1.1,1.656,1.655,3.495,3.311,5.151,4.967Z" transform="translate(-10.059 -138.273)" fill="#008da7"/>
              <path id="Path_30359" data-name="Path 30359" d="M13.668,140.4l-.368,2.391c1.1,1.1,2.207,2.391,3.127,3.495l.92-3.127C16.059,142.239,14.956,141.32,13.668,140.4Z" transform="translate(-7.338 -136.487)" fill="#62afbd"/>
              <path id="Path_30360" data-name="Path 30360" d="M21.622,147.051a75.8,75.8,0,0,0-5.7-5.151L15,145.027c1.656,2.023,3.495,4.047,4.967,6.07Z" transform="translate(-5.91 -135.228)" fill="#008da7"/>
              <path id="Path_30361" data-name="Path 30361" d="M19.272,144.7,17.8,148.747c.736,1.1,1.656,2.023,2.391,3.127l1.472-4.783A29.3,29.3,0,0,1,19.272,144.7Z" transform="translate(-3.56 -132.877)" fill="#62afbd"/>
              <path id="Path_30362" data-name="Path 30362" d="M26.09,153.174q-2.759-3.863-5.518-7.174L19.1,150.783c1.839,2.575,3.679,4.967,5.334,7.726Z" transform="translate(-2.469 -131.786)" fill="#008da7"/>
              <path id="Path_30363" data-name="Path 30363" d="M25.127,152.207c-.552-.736-.92-1.472-1.472-2.207L22,155.334l2.759,4.415,1.656-5.518C25.863,153.311,25.495,152.759,25.127,152.207Z" transform="translate(-0.034 -128.428)" fill="#62afbd"/>
              <path id="Path_30364" data-name="Path 30364" d="M30.49,162.133c-1.656-3.495-3.495-6.806-5.334-9.933L23.5,157.718c1.839,3.127,3.679,6.254,5.334,9.565Z" transform="translate(1.225 -126.581)" fill="#008da7"/>
              <path id="Path_30365" data-name="Path 30365" d="M28.056,157.6,26.4,162.567a31.961,31.961,0,0,0,1.839,3.495l2.023-4.231A18.535,18.535,0,0,1,28.056,157.6Z" transform="translate(3.66 -122.048)" fill="#62afbd"/>
              <path id="Path_30366" data-name="Path 30366" d="M29.323,160.163h0L27.3,164.394c.92,2.023,1.839,3.863,2.759,5.886l2.207-2.023A46.314,46.314,0,0,0,29.323,160.163Z" transform="translate(4.415 -120.012)" fill="#008da7"/>
              <path id="Path_30367" data-name="Path 30367" d="M30.907,164.4,28.7,166.423c.368.92.736,1.656,1.1,2.575l1.656-1.1A10.71,10.71,0,0,0,30.907,164.4Z" transform="translate(5.59 -116.34)" fill="#62afbd"/>
              <path id="Path_30368" data-name="Path 30368" d="M29.3,167.488a26.822,26.822,0,0,1,1.288,3.495V170.8a12.732,12.732,0,0,0,.184-4.6Z" transform="translate(6.094 -114.829)" fill="#008da7"/>
            </g>
            <g id="Group_2587" data-name="Group 2587" transform="translate(4.721 41.464)">
              <path id="Path_30369" data-name="Path 30369" d="M13.1,155c1.472.92,2.759,1.839,4.231,2.943l.736-.184A33.5,33.5,0,0,0,13.1,155Z" transform="translate(-12.226 -154.08)" fill="#005077"/>
              <path id="Path_30370" data-name="Path 30370" d="M16.036,156.4l-.736.184c.736.552,1.656,1.288,2.391,1.839l.92-.368C17.875,157.5,16.956,156.952,16.036,156.4Z" transform="translate(-10.379 -152.905)" fill="#008da7"/>
              <path id="Path_30371" data-name="Path 30371" d="M21.572,160l-1.472.736c1.472,1.288,2.943,2.575,4.231,3.863l1.656-.736A41.442,41.442,0,0,0,21.572,160Z" transform="translate(-6.35 -149.883)" fill="#005077"/>
              <path id="Path_30372" data-name="Path 30372" d="M24.056,162l-1.656.736.736.736,1.656,1.656,1.656-.736A14.7,14.7,0,0,0,24.056,162Z" transform="translate(-4.419 -148.204)" fill="#008da7"/>
              <path id="Path_30373" data-name="Path 30373" d="M25.456,163.3l-1.656.736a43.264,43.264,0,0,1,5.518,6.07l2.207-.552C29.5,167.347,27.479,165.139,25.456,163.3Z" transform="translate(-3.244 -147.113)" fill="#005077"/>
              <path id="Path_30374" data-name="Path 30374" d="M29.007,166.7l-2.207.552.552.552c.368.552.736.92,1.1,1.472l2.207-.92A7.025,7.025,0,0,1,29.007,166.7Z" transform="translate(-0.726 -144.259)" fill="#008da7"/>
              <path id="Path_30375" data-name="Path 30375" d="M29.807,167.6l-2.207.92c.92,1.288,1.839,2.391,2.759,3.679l2.391-.736C31.831,170.175,30.911,168.888,29.807,167.6Z" transform="translate(-0.054 -143.503)" fill="#005077"/>
              <path id="Path_30376" data-name="Path 30376" d="M29.8,171.136a13.89,13.89,0,0,0,2.575,2.023.929.929,0,0,0,1.288-.736c-.552-.736-.92-1.288-1.472-2.023Z" transform="translate(1.793 -141.152)" fill="#005077"/>
              <path id="Path_30377" data-name="Path 30377" d="M31.591,169.7l-2.391.736a4.3,4.3,0,0,0,1.288,1.288l2.391-.736A8.5,8.5,0,0,1,31.591,169.7Z" transform="translate(1.289 -141.74)" fill="#008da7"/>
              <path id="Path_30378" data-name="Path 30378" d="M20.088,158.9l-1.288.552c.92.736,1.656,1.472,2.391,2.023l1.472-.736A31.206,31.206,0,0,1,20.088,158.9Z" transform="translate(-7.441 -150.806)" fill="#008da7"/>
              <path id="Path_30379" data-name="Path 30379" d="M17.52,157.3l-.92.368c1.288.92,2.575,2.023,3.863,3.127l1.288-.552A34.626,34.626,0,0,0,17.52,157.3Z" transform="translate(-9.288 -152.149)" fill="#005077"/>
              <path id="Path_30380" data-name="Path 30380" d="M17.73,155.972a50.744,50.744,0,0,0-4.967-1.472c-.184,0-.184.184,0,.184.184.184.552.368.736.552,1.472.736,2.943,1.472,4.415,2.391Z" transform="translate(-12.625 -154.5)" fill="#008da7"/>
              <path id="Path_30381" data-name="Path 30381" d="M15.4,155.3l.184,1.839c.92.552,1.839,1.1,2.943,1.839v-2.391A22.438,22.438,0,0,0,15.4,155.3Z" transform="translate(-10.295 -153.828)" fill="#62afbd"/>
              <path id="Path_30382" data-name="Path 30382" d="M21.883,158.291c-1.656-.92-3.127-1.656-4.783-2.391v2.391c1.472.92,3.127,2.023,4.6,3.127Z" transform="translate(-8.868 -153.325)" fill="#008da7"/>
              <path id="Path_30383" data-name="Path 30383" d="M19.868,157.2l-.368,3.127,2.207,1.656.184-3.679A7.138,7.138,0,0,1,19.868,157.2Z" transform="translate(-6.854 -152.233)" fill="#62afbd"/>
              <path id="Path_30384" data-name="Path 30384" d="M26.034,161.579a32.944,32.944,0,0,0-5.151-3.679l-.184,3.679c1.656,1.288,3.495,2.759,5.151,4.231Z" transform="translate(-5.846 -151.646)" fill="#008da7"/>
              <path id="Path_30385" data-name="Path 30385" d="M25.156,161.188c-.552-.368-.92-.92-1.472-1.288l-.184,4.047a35.317,35.317,0,0,1,2.759,2.575l.184-4.231A8,8,0,0,1,25.156,161.188Z" transform="translate(-3.496 -149.967)" fill="#62afbd"/>
              <path id="Path_30386" data-name="Path 30386" d="M30.6,167.086c-1.839-2.023-3.679-4.047-5.518-5.886l-.184,4.231c1.839,1.839,3.679,3.679,5.334,5.518Z" transform="translate(-2.321 -148.876)" fill="#008da7"/>
              <path id="Path_30387" data-name="Path 30387" d="M28.168,164.4l-.368,3.863c.552.736,1.288,1.472,1.839,2.207l.736-3.311A18.086,18.086,0,0,0,28.168,164.4Z" transform="translate(0.114 -146.189)" fill="#62afbd"/>
              <path id="Path_30388" data-name="Path 30388" d="M29.536,165.8h0l-.736,3.311c.92,1.1,2.023,2.391,2.943,3.495l1.1-1.839C31.927,169.111,30.639,167.456,29.536,165.8Z" transform="translate(0.953 -145.014)" fill="#008da7"/>
              <path id="Path_30389" data-name="Path 30389" d="M31.5,168.5l-1.1,1.839a10.2,10.2,0,0,0,1.1,1.472l.92-1.1A11.252,11.252,0,0,0,31.5,168.5Z" transform="translate(2.297 -142.747)" fill="#62afbd"/>
              <path id="Path_30390" data-name="Path 30390" d="M31,170.9l1.656,2.207v-.184A8.592,8.592,0,0,0,32.1,169.8Z" transform="translate(2.8 -141.656)" fill="#008da7"/>
            </g>
          </g>
          <g id="Group_2589" data-name="Group 2589" transform="translate(20.31 84.185)">
            <path id="Path_30391" data-name="Path 30391" d="M55.23,165.407a13.107,13.107,0,0,0-6.99-2.207H33.708A12.521,12.521,0,0,0,21.2,175.708v3.863a13.259,13.259,0,0,0,7.726,12.14,11.088,11.088,0,0,0,4.231,1.1H47.32a13.5,13.5,0,0,0,13.428-13.428v-3.679A12.475,12.475,0,0,0,55.23,165.407Z" transform="translate(-21.016 -163.2)" fill="#9e9d98"/>
            <path id="Path_30392" data-name="Path 30392" d="M21.1,179.571v-3.863A12.521,12.521,0,0,1,33.608,163.2H48.14a11.706,11.706,0,0,1,6.99,2.207C52,177.364,44.461,186.929,28.642,191.9A13.689,13.689,0,0,1,21.1,179.571Z" transform="translate(-21.1 -163.2)" fill="#cccbc4" opacity="0.5"/>
          </g>
        </g>
      </g>
    </g>
  </g>
</svg>
