<svg xmlns="http://www.w3.org/2000/svg" width="425.868" height="276.442" viewBox="0 0 425.868 276.442">
  <g id="Group_2762" data-name="Group 2762" transform="translate(0.062)">
    <g id="Group_2721" data-name="Group 2721" transform="translate(178.998 6.5)">
      <g id="Group_2710" data-name="Group 2710">
        <rect id="Rectangle_876" data-name="Rectangle 876" width="175.5" height="108.397" fill="#00beb9"/>
        <rect id="Rectangle_877" data-name="Rectangle 877" width="160.78" height="95.206" transform="translate(7.456 6.691)" fill="#fff"/>
        <path id="Path_30661" data-name="Path 30661" d="M210.8,79.177V34.25H202V79.177h-5.735V46.485h-8.794V79.177h-5.735V31.765h-8.794V79.177h-5.735V24.882h-8.985V79.177h-5.544V46.485h-8.985V79.177h-6.882V18H134.9V81.088h82.4V79.177Z" transform="translate(-55.944 9.912)" fill="#353537"/>
        <rect id="Rectangle_878" data-name="Rectangle 878" width="50.088" height="3.059" transform="translate(16.25 21.794)" fill="#00beb9"/>
        <rect id="Rectangle_879" data-name="Rectangle 879" width="50.088" height="3.059" transform="translate(16.25 30.397)" fill="#00beb9"/>
        <rect id="Rectangle_880" data-name="Rectangle 880" width="24.662" height="3.059" transform="translate(16.25 39)" fill="#00beb9"/>
        <g id="Group_2700" data-name="Group 2700" transform="translate(35.559 76.853)">
          <path id="Path_30662" data-name="Path 30662" d="M125.2,43.6v8.6l-4.4,4.4h-8.6v-13Z" transform="translate(-112.2 -43.6)" fill="#00beb9"/>
          <path id="Path_30663" data-name="Path 30663" d="M121.1,48.1l-4.4,4.4V48.1Z" transform="translate(-108.097 -39.497)" fill="#00a49f"/>
        </g>
        <g id="Group_2702" data-name="Group 2702" transform="translate(16.824 76.853)">
          <g id="Group_2701" data-name="Group 2701">
            <rect id="Rectangle_881" data-name="Rectangle 881" width="13" height="13" fill="#f065a6"/>
          </g>
        </g>
        <path id="Path_30664" data-name="Path 30664" d="M201.568,25.671l-7.456,1.912,1.912,2.1-8.985,8.794L155.876,14.2,140.2,25.862l1.338,1.529,14.147-10.706,31.353,24.279,10.324-9.941,2.1,2.1Z" transform="translate(-51.112 6.447)" fill="#00beb9"/>
        <g id="Group_2704" data-name="Group 2704" transform="translate(16.25 51.044)">
          <path id="Path_30665" data-name="Path 30665" d="M120.071,39.085a8.985,8.985,0,1,1-8.985-8.985A9.1,9.1,0,0,1,120.071,39.085Z" transform="translate(-102.1 -30.1)" fill="#5202b5"/>
          <g id="Group_2703" data-name="Group 2703" transform="translate(2.676 2.676)">
            <path id="Path_30666" data-name="Path 30666" d="M109.809,31.5a6.309,6.309,0,1,0,6.309,6.309A6.365,6.365,0,0,0,109.809,31.5Zm-1.147.956a3.887,3.887,0,0,0-1.338,2.294,3.081,3.081,0,0,1-1.338-.765A4.184,4.184,0,0,1,108.662,32.456Zm-3.25,2.1a6.877,6.877,0,0,0,1.721.956,7.169,7.169,0,0,0-.191,2.1h-2.485A5.289,5.289,0,0,1,105.412,34.559Zm-1.147,3.632h2.485a9.6,9.6,0,0,0,.382,2.294c-.574.191-1.147.574-1.721.765A7.3,7.3,0,0,1,104.265,38.191Zm1.529,3.441a4.792,4.792,0,0,1,1.338-.765,6.611,6.611,0,0,0,1.338,2.294A5.45,5.45,0,0,1,105.794,41.632Zm3.632,1.338a3.174,3.174,0,0,1-1.529-2.1,4.209,4.209,0,0,1,1.529-.191Zm0-3.059c-.574,0-1.147.191-1.721.191a7.168,7.168,0,0,1-.191-2.1h2.1v1.912Zm0-2.294h-2.1c0-.765.191-1.338.191-2.1a5.293,5.293,0,0,0,1.721.191v1.912Zm0-2.485c-.574,0-1.147-.191-1.529-.191.382-1.147.956-2.1,1.529-2.294Zm5.735,2.485h-2.485c0-.765-.191-1.529-.191-2.1a7.749,7.749,0,0,0,1.721-.956A5.289,5.289,0,0,1,115.162,37.618Zm-1.529-3.632a4.792,4.792,0,0,1-1.338.765,5.2,5.2,0,0,0-1.338-2.294A4.735,4.735,0,0,1,113.632,33.985ZM110,32.647a2.74,2.74,0,0,1,1.529,2.294,4.751,4.751,0,0,1-1.529.191Zm0,3.059c.574,0,1.147-.191,1.721-.191a7.168,7.168,0,0,1,.191,2.1h-2.1V35.706Zm0,2.485h2.1c0,.765-.191,1.529-.191,2.1a5.293,5.293,0,0,0-1.721-.191V38.191Zm0,4.779V40.485c.574,0,1.147.191,1.529.191C111.338,42.015,110.765,42.779,110,42.971Zm.956.191a4.271,4.271,0,0,0,1.338-2.294,3.081,3.081,0,0,1,1.338.765A5.45,5.45,0,0,1,110.956,43.162Zm3.059-1.912a3.6,3.6,0,0,0-1.721-.765c.191-.765.191-1.529.382-2.294h2.485A4.342,4.342,0,0,1,114.015,41.25Z" transform="translate(-103.5 -31.5)" fill="#fff"/>
          </g>
        </g>
        <g id="Group_2705" data-name="Group 2705" transform="translate(38.044 51.235)">
          <circle id="Ellipse_81" data-name="Ellipse 81" cx="8.794" cy="8.794" r="8.794" fill="#e34932"/>
          <path id="Path_30667" data-name="Path 30667" d="M126.088,36.388h-1.147a.993.993,0,0,0-.382-.765l.765-.765a.582.582,0,0,0,0-.765l-.956-.956a.582.582,0,0,0-.765,0l-.765.765c-.191-.191-.574-.191-.765-.382V32.374a.507.507,0,0,0-.574-.574h-1.338a.507.507,0,0,0-.574.574v1.147a.993.993,0,0,0-.765.382l-.765-.765a.581.581,0,0,0-.765,0l-.956.956a.582.582,0,0,0,0,.765l.765.765c-.191.191-.191.574-.382.765h-1.147a.507.507,0,0,0-.574.574V38.3a.507.507,0,0,0,.574.574h1.147a.993.993,0,0,0,.382.765l-.765.765a.582.582,0,0,0,0,.765l.956.956a.581.581,0,0,0,.765,0l.765-.765c.191.191.574.191.765.382v1.147a.507.507,0,0,0,.574.574H121.5a.507.507,0,0,0,.574-.574V41.741a.993.993,0,0,0,.765-.382l.765.765a.582.582,0,0,0,.765,0l.956-.956a.581.581,0,0,0,0-.765l-.765-.765c.191-.191.191-.574.382-.765h1.147a.507.507,0,0,0,.574-.574V36.962A.507.507,0,0,0,126.088,36.388Zm-5.162,3.441a2.294,2.294,0,1,1,2.294-2.294A2.209,2.209,0,0,1,120.926,39.829Z" transform="translate(-112.132 -28.741)" fill="#fff"/>
        </g>
        <g id="Group_2709" data-name="Group 2709" transform="translate(62.132 52.574)">
          <g id="Group_2706" data-name="Group 2706">
            <rect id="Rectangle_882" data-name="Rectangle 882" width="3.632" height="3.632" fill="#353537"/>
            <rect id="Rectangle_883" data-name="Rectangle 883" width="3.632" height="3.632" transform="translate(5.926)" fill="#353537"/>
          </g>
          <g id="Group_2707" data-name="Group 2707" transform="translate(0 5.735)">
            <rect id="Rectangle_884" data-name="Rectangle 884" width="3.632" height="3.632" fill="#353537"/>
            <rect id="Rectangle_885" data-name="Rectangle 885" width="3.632" height="3.632" transform="translate(5.926)" fill="#f065a6"/>
          </g>
          <g id="Group_2708" data-name="Group 2708" transform="translate(0 11.279)">
            <rect id="Rectangle_886" data-name="Rectangle 886" width="3.632" height="3.632" fill="#f065a6"/>
            <rect id="Rectangle_887" data-name="Rectangle 887" width="3.632" height="3.632" transform="translate(5.926)" fill="#f065a6"/>
          </g>
        </g>
      </g>
      <g id="Group_2718" data-name="Group 2718" transform="translate(137.074 44.126)">
        <g id="Group_2711" data-name="Group 2711" transform="translate(0.846)">
          <path id="Path_30668" data-name="Path 30668" d="M225.691,64.342s-16.059,13-30.015,8.412c-13.765-4.588-19.118-30.588-19.118-30.588s3.059-5.353,0-7.074c0,0,.574-4.4-2.485-4.779s-15.294,3.25-2.868,12.809c0,0,3.441,47.029,30.206,48.559,26.574,1.721,26.382-4.971,26.382-4.971Z" transform="translate(-165.743 -23.012)" fill="#5202b5"/>
          <path id="Path_30669" data-name="Path 30669" d="M176.484,45.444s.574-1.147,1.147-2.485h0c2.868-.956,1.338-8.221.191-9.368a2.283,2.283,0,0,0-2.868,0c-.574-1.147-4.015-7.647-5.926-7.074-1.338.382,0,4.779,1.147,7.647-4.015,1.529-7.838,5.353,1.147,12.235a93.462,93.462,0,0,0,1.912,12.044,47.275,47.275,0,0,0,6.882-2.1A59.2,59.2,0,0,1,176.484,45.444Z" transform="translate(-165.668 -26.481)" fill="#f4eed8"/>
        </g>
        <path id="Path_30670" data-name="Path 30670" d="M218.962,73.4,207.3,88.121l2.676,2.868,15.294-12.235Z" transform="translate(-127.006 16.298)" fill="#f4eed8"/>
        <path id="Path_30671" data-name="Path 30671" d="M201.3,46.1s18.735,1.912,22.941,8.029,19.5,22.75,17.779,35.368c-1.529,12.618-8.794,16.441-8.794,16.441L224.241,98.1s5.926-4.779,4.779-9.368c-.956-4.779-13.956-17.206-13.956-17.206L204.932,51.071Z" transform="translate(-132.476 -8.594)" fill="#5202b5"/>
        <g id="Group_2717" data-name="Group 2717" transform="translate(0 3.859)">
          <g id="Group_2716" data-name="Group 2716">
            <g id="Group_2715" data-name="Group 2715">
              <g id="Group_2714" data-name="Group 2714">
                <g id="Group_2712" data-name="Group 2712" transform="translate(0 95.397)">
                  <path id="Path_30672" data-name="Path 30672" d="M275.035,142.541a443.2,443.2,0,0,1-54.868,3.441,443.2,443.2,0,0,1-54.868-3.441,439.137,439.137,0,0,1,109.735,0Z" transform="translate(-165.3 -23.056)" fill="#f065a6"/>
                  <path id="Path_30673" data-name="Path 30673" d="M214.318,136.5l.574,3.059.765,4.015-17.015,4.206a1.1,1.1,0,0,1-1.147-1.721,13.1,13.1,0,0,1,3.25-3.25,68.377,68.377,0,0,1,6.5-4.588Z" transform="translate(-136.126 -25.426)" fill="#fff"/>
                  <path id="Path_30674" data-name="Path 30674" d="M199.813,136.5l-.191,3.059-.191,4.015-17.4.382a1.1,1.1,0,0,1-.765-1.912,18.85,18.85,0,0,1,3.824-2.485,52.26,52.26,0,0,1,7.265-2.868Z" transform="translate(-151.063 -25.426)" fill="#fff"/>
                  <path id="Path_30675" data-name="Path 30675" d="M229.674,84.518s-2.1,26.765-8.029,50.471l5.926,55.632-9.368.956s-9.75-36.515-12.426-45.118c-3.059-9.559,0-33.456,0-33.456s-8.221,18.353-8.221,27.147.956,49.515.956,49.515-6.309,1.721-9.368,0-5.544-54.294-5.544-54.294L195.835,78.4A222.115,222.115,0,0,0,229.674,84.518Z" transform="translate(-148.615 -78.4)" fill="#0e0e15"/>
                </g>
                <path id="Path_30676" data-name="Path 30676" d="M230.141,115.88c.574-5.544,2.294-43.206-.191-51.618C224.788,45.527,213.509,46.1,213.509,46.1c-3.441,8.029-10.515,2.485-10.515,2.485s-12.618,7.647-8.412,28.485c2.676,13.382-2.676,25.809-6.882,32.882A47.983,47.983,0,0,0,230.141,115.88Z" transform="translate(-144.876 -12.454)" fill="#5202b5"/>
                <path id="Path_30677" data-name="Path 30677" d="M197.588,50.656S193,53.332,193,55.818s3.059,6.118,3.059,6.118l4.4-5.162,4.206,6.118s13.765-10.515,4.779-16.441C200.265,40.715,197.588,50.656,197.588,50.656Z" transform="translate(-140.044 -13.759)" fill="#fff"/>
                <g id="Group_2713" data-name="Group 2713" transform="translate(48.582)">
                  <path id="Path_30678" data-name="Path 30678" d="M191.263,40.373s-3.441,18.735,6.882,18.544,14.147-7.647,13.382-12.044-1.338-13.191-10.132-14.338C192.6,31.579,191.263,40.373,191.263,40.373Z" transform="translate(-190.712 -24.888)" fill="#f4eed8"/>
                  <path id="Path_30679" data-name="Path 30679" d="M220.006,39.779a8.341,8.341,0,0,0-3.25-3.059h0a11.191,11.191,0,0,0-.382-2.485,15.948,15.948,0,0,0-1.529-2.294,9.28,9.28,0,0,1,0,3.25,8.826,8.826,0,0,0-1.721-2.868,11.6,11.6,0,0,0-1.912-1.338A19.786,19.786,0,0,0,200.7,29.265c-.765,0-1.721.191-2.485.191a3.527,3.527,0,0,1-2.294-.956,8.325,8.325,0,0,0,1.912,3.059,9.206,9.206,0,0,0-6.5,9.941,7.169,7.169,0,0,1,5.162.382c-.191,6.882,12.426,10.132,12.426,10.132a4.535,4.535,0,0,1,4.4-.765,2.936,2.936,0,0,1,1.529,2.294c2.868-2.1,3.632-12.618,3.632-12.618a3.2,3.2,0,0,1,2.294.191A10.966,10.966,0,0,0,220.006,39.779Z" transform="translate(-190.205 -28.5)" fill="#0e0e15"/>
                  <path id="Path_30680" data-name="Path 30680" d="M200.231,44.033a3.528,3.528,0,0,0,3.824,2.868,3.57,3.57,0,0,0,2.868-3.824A3.528,3.528,0,0,0,203.1,40.21,3.193,3.193,0,0,0,200.231,44.033Z" transform="translate(-182.092 -17.842)" fill="#f4eed8"/>
                  <path id="Path_30681" data-name="Path 30681" d="M206.488,41.7l.382,2.485a5.349,5.349,0,0,0,.191,1.147c0,.956.191,2.485.191,4.015,0,2.294-.191,4.779-1.147,5.544-1.912,1.721-9.176,2.1-10.132,1.721-.382-.191-.574-1.529-.574-3.059V50.494h0c0-3.059.191-6.309.191-6.309Z" transform="translate(-186.438 -16.465)" fill="#f4eed8"/>
                  <path id="Path_30682" data-name="Path 30682" d="M207.062,43.6c0,.956.191,2.485.191,4.015-2.868,1.338-8.6,3.824-11.853,4.015V48.571h0C195.591,48.571,205.724,46.468,207.062,43.6Z" transform="translate(-186.438 -14.732)" fill="#ebe0be"/>
                </g>
              </g>
            </g>
          </g>
        </g>
      </g>
      <g id="Group_2720" data-name="Group 2720" transform="translate(194.427)">
        <path id="Path_30683" data-name="Path 30683" d="M237.359,3.4H199.124A3.835,3.835,0,0,0,195.3,7.224V34.562a3.835,3.835,0,0,0,3.824,3.824h2.1v9.368l9.368-9.368h26.765a3.835,3.835,0,0,0,3.824-3.824V7.224A3.835,3.835,0,0,0,237.359,3.4Z" transform="translate(-195.3 -3.4)" fill="#00beb9"/>
        <g id="Group_2719" data-name="Group 2719" transform="translate(5.353 5.353)">
          <rect id="Rectangle_888" data-name="Rectangle 888" width="35.177" height="3.059" fill="#fff"/>
          <rect id="Rectangle_889" data-name="Rectangle 889" width="35.177" height="3.059" transform="translate(0 7.074)" fill="#fff"/>
          <rect id="Rectangle_890" data-name="Rectangle 890" width="35.177" height="3.059" transform="translate(0 13.956)" fill="#fff"/>
          <rect id="Rectangle_891" data-name="Rectangle 891" width="18.926" height="3.059" transform="translate(0 21.029)" fill="#fff"/>
        </g>
      </g>
    </g>
    <g id="Group_2732" data-name="Group 2732" transform="translate(140.18 198.059)">
      <g id="Group_2726" data-name="Group 2726" transform="translate(18.553 17.397)">
        <path id="Path_30684" data-name="Path 30684" d="M129.647,118.818H86.059A3.02,3.02,0,0,1,83,115.759h0a3.02,3.02,0,0,1,3.059-3.059h43.588a3.02,3.02,0,0,1,3.059,3.059h0A3.02,3.02,0,0,1,129.647,118.818Z" transform="translate(-83 -112.7)" fill="#353537"/>
        <g id="Group_2722" data-name="Group 2722" transform="translate(20.265 6.118)">
          <rect id="Rectangle_892" data-name="Rectangle 892" width="5.926" height="30.015" transform="translate(1.529 4.779)" fill="#ebe0be"/>
          <rect id="Rectangle_893" data-name="Rectangle 893" width="9.176" height="11.662" fill="#f4eed8"/>
        </g>
        <g id="Group_2725" data-name="Group 2725" transform="translate(5.735 39.574)">
          <g id="Group_2724" data-name="Group 2724">
            <rect id="Rectangle_894" data-name="Rectangle 894" width="35.75" height="3.824" transform="translate(1.147)" fill="#353537"/>
            <g id="Group_2723" data-name="Group 2723" transform="translate(0 3.632)">
              <path id="Path_30685" data-name="Path 30685" d="M92.5,138.55a3.25,3.25,0,1,1-3.25-3.25A3.35,3.35,0,0,1,92.5,138.55Z" transform="translate(-86 -135.3)" fill="#ebe0be"/>
              <path id="Path_30686" data-name="Path 30686" d="M109.1,138.55a3.25,3.25,0,1,1-3.25-3.25A3.222,3.222,0,0,1,109.1,138.55Z" transform="translate(-70.865 -135.3)" fill="#ebe0be"/>
            </g>
          </g>
        </g>
      </g>
      <g id="Group_2731" data-name="Group 2731">
        <path id="Path_30687" data-name="Path 30687" d="M158.187,114.879C157.8,105.7,134.481,103.6,134.481,103.6c-.956,0-10.9,0-18.735.191-7.838,0-17.588-.191-18.735-.191,0,0-23.324,2.1-23.706,11.279s11.853,56.4,11.853,56.4H95.29s.956-47.412-1.721-49.132c0,0,12.618-.191,22.176-.956,9.559.765,22.176.956,22.176.956-2.676,1.721-1.721,49.132-1.721,49.132h10.132S158.76,124.056,158.187,114.879Z" transform="translate(-73.295 -103.6)" fill="#5202b5"/>
        <g id="Group_2728" data-name="Group 2728" transform="translate(3.234 67.485)">
          <g id="Group_2727" data-name="Group 2727" transform="translate(0.191)">
            <path id="Path_30688" data-name="Path 30688" d="M92.509,139.091l-.191,2.676v.765l-.191,2.868H76.068a.945.945,0,0,1-.574-1.721,2.639,2.639,0,0,1,.765-.574c.765-.574,1.912-1.147,2.868-1.721a48.337,48.337,0,0,1,6.691-2.485h6.691Z" transform="translate(-75.087 -138.9)" fill="#353537"/>
          </g>
          <path id="Path_30689" data-name="Path 30689" d="M92.218,140.9l-.191,2.868H75.968a.945.945,0,0,1-.574-1.721,2.64,2.64,0,0,1,.765-.574A100.3,100.3,0,0,0,92.218,140.9Z" transform="translate(-74.987 -137.076)" fill="#fff"/>
        </g>
        <g id="Group_2730" data-name="Group 2730" transform="translate(65.009 67.485)">
          <g id="Group_2729" data-name="Group 2729">
            <path id="Path_30690" data-name="Path 30690" d="M107.3,139.091l.191,2.676v.765l.191,2.868h16.059a.945.945,0,0,0,.574-1.721,2.639,2.639,0,0,0-.765-.574c-.765-.574-1.912-1.147-2.868-1.721a48.337,48.337,0,0,0-6.691-2.485H107.3Z" transform="translate(-107.3 -138.9)" fill="#353537"/>
          </g>
          <path id="Path_30691" data-name="Path 30691" d="M107.4,140.9l.191,2.868H123.65a.945.945,0,0,0,.574-1.721,2.64,2.64,0,0,0-.765-.574A101.355,101.355,0,0,1,107.4,140.9Z" transform="translate(-107.209 -137.076)" fill="#fff"/>
        </g>
      </g>
    </g>
    <g id="Group_2738" data-name="Group 2738" transform="translate(137.667 103.427)">
      <path id="Path_30692" data-name="Path 30692" d="M130.468,135.5l-.382.191a56.916,56.916,0,0,1-47.985.765s1.147-17.015,4.588-37.471a249.146,249.146,0,0,1,6.118-27.721h0l1.721-.574a33.912,33.912,0,0,1,22.177,0c.574.191,1.147.382,1.912.574C126.835,100.895,130.468,135.5,130.468,135.5Z" transform="translate(-62.755 -40.674)" fill="#00beb9"/>
      <g id="Group_2733" data-name="Group 2733" transform="translate(0 30.588)">
        <path id="Path_30693" data-name="Path 30693" d="M102.032,70.1h0c-2.485,9.176-4.588,18.735-6.118,27.721-3.824,2.868-8.6,6.882-9.368,9.941-.382,1.721,1.338,3.059,4.015,4.206l-2.485,8.412H82.723s-11.471-3.441-10.706-12.809c.574-9.368,18.544-29.632,21.029-33.265C94.194,72.585,98.209,71.056,102.032,70.1Z" transform="translate(-71.981 -70.1)" fill="#00a49f"/>
        <path id="Path_30694" data-name="Path 30694" d="M97.606,100.412V95.632S88.429,94.485,82.885,92L80.4,100.412Z" transform="translate(-64.305 -50.132)" fill="#f4eed8"/>
      </g>
      <g id="Group_2734" data-name="Group 2734" transform="translate(52.419 30.588)">
        <path id="Path_30695" data-name="Path 30695" d="M101.1,70.1h.191c2.485,9.176,4.4,18.735,5.926,27.721,3.824,2.868,8.6,6.882,9.368,9.941.382,1.721-1.338,3.059-4.015,4.206l2.485,8.412h5.353s11.471-3.441,10.706-12.809c-.574-9.368-18.544-29.632-21.029-33.265C108.747,72.585,104.732,71.056,101.1,70.1Z" transform="translate(-97.85 -70.1)" fill="#00a49f"/>
        <path id="Path_30696" data-name="Path 30696" d="M99.4,100.412V95.632s9.176-1.147,14.721-3.632l2.485,8.412Z" transform="translate(-99.4 -50.132)" fill="#f4eed8"/>
      </g>
      <rect id="Rectangle_895" data-name="Rectangle 895" width="45.118" height="29.632" transform="translate(22.404 51.427)" fill="#353537"/>
      <g id="Group_2737" data-name="Group 2737" transform="translate(28.331)">
        <path id="Path_30697" data-name="Path 30697" d="M110.776,70.529c-.574,3.059-2.485,9.176-10.324,9.176s-10.9-5.926-11.853-8.985c.765-.191,1.338-.382,2.1-.574a37.277,37.277,0,0,1,18.353,0A5.581,5.581,0,0,1,110.776,70.529Z" transform="translate(-85.159 -40.515)" fill="#f4eed8"/>
        <g id="Group_2736" data-name="Group 2736">
          <path id="Path_30698" data-name="Path 30698" d="M107.962,70.115c-2.1,2.294-5.735,5.544-9.75,5.544-4.779.191-7.456-3.632-8.412-5.544A32.589,32.589,0,0,1,107.962,70.115Z" transform="translate(-84.065 -40.674)" fill="#ebe0be"/>
          <g id="Group_2735" data-name="Group 2735">
            <path id="Path_30699" data-name="Path 30699" d="M111.241,70.84c0,8.029-5.162,14.338-11.471,14.338S88.3,78.678,88.3,70.84c0-8.029,5.162-14.338,11.471-14.338C106.271,56.311,111.241,62.811,111.241,70.84Z" transform="translate(-85.432 -51.914)" fill="#f4eed8"/>
            <path id="Path_30700" data-name="Path 30700" d="M93.682,67.041A3.441,3.441,0,1,1,90.241,63.6,3.427,3.427,0,0,1,93.682,67.041Z" transform="translate(-86.8 -45.438)" fill="#f4eed8"/>
            <path id="Path_30701" data-name="Path 30701" d="M105.382,67.041a3.441,3.441,0,1,1-3.441-3.441A3.427,3.427,0,0,1,105.382,67.041Z" transform="translate(-76.132 -45.438)" fill="#f4eed8"/>
            <path id="Path_30702" data-name="Path 30702" d="M113.71,72.453c-.191,1.147-1.912,1.147-1.721,2.294a8.319,8.319,0,0,0-1.529-2.868,5.524,5.524,0,0,0-4.4-5.353c-1.721-.382-3.632.191-5.544,0a9.448,9.448,0,0,1-5.735-2.676A19.78,19.78,0,0,0,90.2,74.938a3.787,3.787,0,0,0-2.1-2.1s-2.868-9.368.956-11.088c0,0-1.529-4.588,4.588-5.544s17.015,1.912,18.735-2.1c0,0,2.485,6.5,0,8.221C112.372,62.321,115.048,62.129,113.71,72.453Z" transform="translate(-86.563 -54.1)" fill="#5202b5"/>
          </g>
        </g>
      </g>
    </g>
    <path id="Path_30703" data-name="Path 30703" d="M53.576,75.065c.191-4.588,2.868-8.794,2.294-13.191-1.147-8.029-12.618-13-19.882-10.706a10.424,10.424,0,0,0-5.735,4.971,18.416,18.416,0,0,0-4.4,8.029c-.765,2.868-.191,5.735-.191,8.794a14.47,14.47,0,0,1-.191,2.868,7.275,7.275,0,0,1-1.721,2.485c-1.338,1.338-2.868,2.485-4.206,3.824a18.392,18.392,0,0,0-3.824,6.118c-1.338,3.25-2.294,6.691-1.338,9.941,1.147,3.25,4.015,5.544,6.882,7.074a29.907,29.907,0,0,0,18.544,3.25c4.015-.574,7.838-1.912,10.706-4.779a17.607,17.607,0,0,0,4.588-10.515,38.321,38.321,0,0,0-.956-11.471C53.958,79.462,53.385,77.168,53.576,75.065ZM26.62,73.535a32.4,32.4,0,0,0-.191-4.206A16.748,16.748,0,0,1,29.3,58.624c0,.191-.191.382-.191.765C27.767,63.976,27.958,68.947,26.62,73.535Z" transform="translate(12.819 46.141)" fill="#ff6748"/>
    <g id="Group_2751" data-name="Group 2751" transform="translate(-0.062 125.603)">
      <g id="Group_2740" data-name="Group 2740" transform="translate(0 23.515)">
        <g id="Group_2739" data-name="Group 2739" transform="translate(0 13)">
          <path id="Path_30704" data-name="Path 30704" d="M20.321,149.609c-9.368-1.147-15.676-4.779-18.544-11.279-8.412-18.353,14.721-52,15.676-53.529l2.676,1.912C19.938,87.094-3,120.168,4.644,136.991c2.294,5.353,7.647,8.412,15.868,9.368Z" transform="translate(0.062 -84.8)" fill="#f4eed8"/>
        </g>
        <path id="Path_30705" data-name="Path 30705" d="M38.721,112.221h-26A8.16,8.16,0,0,1,4.5,104V86.412A8.323,8.323,0,0,1,12.721,78H38.529v34.221Z" transform="translate(4.221 -78)" fill="#353537"/>
        <path id="Path_30706" data-name="Path 30706" d="M51.338,122.518H7.559A3.02,3.02,0,0,1,4.5,119.459h0A3.02,3.02,0,0,1,7.559,116.4H51.338a3.02,3.02,0,0,1,3.059,3.059h0A3.144,3.144,0,0,1,51.338,122.518Z" transform="translate(4.221 -42.988)" fill="#353537"/>
      </g>
      <g id="Group_2746" data-name="Group 2746" transform="translate(18.088)">
        <g id="Group_2742" data-name="Group 2742" transform="translate(14.721 75.487)">
          <path id="Path_30707" data-name="Path 30707" d="M18.438,126.243s22.75.956,29.824,0l-6.882,43.588h8.794s19.118-52.382,12.618-58.882-26.956-5.735-26.956-5.735L17.1,114.963Z" transform="translate(-17.1 -105.185)" fill="#5202b5"/>
          <g id="Group_2741" data-name="Group 2741" transform="translate(25.809 64.645)">
            <path id="Path_30708" data-name="Path 30708" d="M30.6,139l.191,2.676.382,3.824H47.232a.945.945,0,0,0,.574-1.721,30.079,30.079,0,0,0-3.632-2.294A48.343,48.343,0,0,0,37.482,139Z" transform="translate(-30.6 -139)" fill="#353537"/>
            <path id="Path_30709" data-name="Path 30709" d="M30.6,139l.191,2.676a9.413,9.413,0,0,0,3.25,1.147,28,28,0,0,0,5.544.382c1.721,0,3.441-.382,4.4-1.721A48.343,48.343,0,0,0,37.291,139Z" transform="translate(-30.6 -139)" fill="#f4eed8"/>
          </g>
        </g>
        <path id="Path_30710" data-name="Path 30710" d="M35.153,65.7s4.779,2.1,7.074,11.471c2.1,9.559,3.824,32.5,3.824,32.5l16.059,5.162L62.3,122.1l-32.5,1.529.956-28.294Z" transform="translate(9.2 -65.7)" fill="#00a49f"/>
        <g id="Group_2744" data-name="Group 2744" transform="translate(2.083 66.954)">
          <g id="Group_2743" data-name="Group 2743" transform="translate(83.564 58.809)">
            <path id="Path_30711" data-name="Path 30711" d="M54.2,133.809l.956,2.485,1.338,3.441,15.294-4.779a1.035,1.035,0,0,0,.191-1.912,24.621,24.621,0,0,0-4.015-1.147,39.361,39.361,0,0,0-7.265-.382Z" transform="translate(-54.2 -131.484)" fill="#353537"/>
            <path id="Path_30712" data-name="Path 30712" d="M54.2,133.718l.956,2.485a20.775,20.775,0,0,0,3.441.191,29.239,29.239,0,0,0,5.544-1.338c1.529-.574,3.059-1.338,3.632-3.059a39.362,39.362,0,0,0-7.265-.382Z" transform="translate(-54.2 -131.393)" fill="#f4eed8"/>
          </g>
          <path id="Path_30713" data-name="Path 30713" d="M11.657,101.253s-5.735,23.9,8.221,28.294c13.765,4.4,52.956-12.618,52.956-12.618l19.691,45.309,9.559-2.676s-11.279-57.735-18.544-58.5-30.779,0-30.779,0h-41.1Z" transform="translate(-10.489 -100.722)" fill="#6d26d7"/>
        </g>
        <path id="Path_30714" data-name="Path 30714" d="M53.753,133.185l-3.632.574L39.8,135.671,9.4,141.215s12.618-34.794,13.382-39.382a103.737,103.737,0,0,0,0-23.132c-.956-6.118,8.794-13,8.794-13H53.562l.191.191C65.224,79.274,53.753,133.185,53.753,133.185Z" transform="translate(-9.4 -65.7)" fill="#00beb9"/>
        <path id="Path_30715" data-name="Path 30715" d="M37.538,133.759l-10.324,1.912C33.906,90.935,23.2,65.7,23.2,65.7H40.979l.191.191C47.862,74.3,39.259,124.582,37.538,133.759Z" transform="translate(3.182 -65.7)" fill="#5202b5"/>
        <path id="Path_30716" data-name="Path 30716" d="M23.3,65.7s6.309,9.75,13.382,7.647c6.882-2.1,4.588-7.647,4.588-7.647Z" transform="translate(3.274 -65.7)" fill="#f4eed8"/>
        <g id="Group_2745" data-name="Group 2745" transform="translate(7.816)">
          <path id="Path_30717" data-name="Path 30717" d="M70.741,97.239c-1.529-1.338-4.779-5.353-7.456-5.735-1.147-.191-8.794,2.868-8.794,2.868S41.109,93.8,28.874,92.842L28.3,100.3c8.6-.191,18.544-.382,26.765-.574,6.118,1.721,12.426.191,15.485-.765A1.061,1.061,0,0,0,70.741,97.239Z" transform="translate(0.016 -42.181)" fill="#f4eed8"/>
          <path id="Path_30718" data-name="Path 30718" d="M28.04,65.7A21.511,21.511,0,0,0,14.658,82.141c-2.294,13-1.147,43.206,2.868,45.5,3.824,2.1,27.338-1.147,27.338-1.147V115.979l-15.676-.956C29,115.215,37.981,73.729,28.04,65.7Z" transform="translate(-13.488 -65.7)" fill="#00a49f"/>
        </g>
      </g>
      <g id="Group_2747" data-name="Group 2747" transform="translate(29.176 103.044)">
        <rect id="Rectangle_896" data-name="Rectangle 896" width="5.926" height="30.015" transform="translate(1.529 4.779)" fill="#ebe0be"/>
        <rect id="Rectangle_897" data-name="Rectangle 897" width="9.176" height="11.662" fill="#f4eed8"/>
      </g>
      <g id="Group_2750" data-name="Group 2750" transform="translate(14.456 136.5)">
        <g id="Group_2749" data-name="Group 2749">
          <rect id="Rectangle_898" data-name="Rectangle 898" width="35.75" height="3.824" transform="translate(1.338)" fill="#353537"/>
          <g id="Group_2748" data-name="Group 2748" transform="translate(0 3.632)">
            <path id="Path_30719" data-name="Path 30719" d="M14,142.25a3.35,3.35,0,0,1-3.25,3.25,3.25,3.25,0,1,1,0-6.5A3.222,3.222,0,0,1,14,142.25Z" transform="translate(-7.5 -139)" fill="#ebe0be"/>
            <path id="Path_30720" data-name="Path 30720" d="M30.6,142.25A3.25,3.25,0,1,1,27.35,139,3.222,3.222,0,0,1,30.6,142.25Z" transform="translate(7.635 -139)" fill="#ebe0be"/>
          </g>
        </g>
      </g>
    </g>
    <g id="Group_2752" data-name="Group 2752" transform="translate(60.086 184.294)">
      <rect id="Rectangle_899" data-name="Rectangle 899" width="216.412" height="4.779" fill="#ff6748"/>
      <rect id="Rectangle_900" data-name="Rectangle 900" width="204.368" height="5.353" transform="translate(5.926 4.779)" fill="#e34932"/>
    </g>
    <g id="Group_2753" data-name="Group 2753" transform="translate(71.174 194.427)">
      <path id="Path_30721" data-name="Path 30721" d="M41.215,183.715l8.6-82.015h-6.5L37.2,183.715Z" transform="translate(-37.2 -101.7)" fill="#353537"/>
      <path id="Path_30722" data-name="Path 30722" d="M144.718,183.715,138.6,101.7h-6.5l8.6,82.015Z" transform="translate(49.327 -101.7)" fill="#353537"/>
    </g>
    <g id="Group_2754" data-name="Group 2754" transform="translate(70.409 154.853)">
      <rect id="Rectangle_901" data-name="Rectangle 901" width="25.427" height="3.25" transform="translate(0 26.191)" fill="#353537"/>
      <path id="Path_30723" data-name="Path 30723" d="M86.321,110.441H45.6L52.1,81H92.821Z" transform="translate(-28.776 -81)" fill="#353537"/>
    </g>
    <g id="Group_2755" data-name="Group 2755" transform="translate(43.449 100.267)">
      <path id="Path_30724" data-name="Path 30724" d="M42.469,60.317S44.954,75.994,36.351,75.8c-8.6-.382-11.662-6.5-10.9-10.324.765-3.632,1.338-11.088,8.794-11.853C41.513,52.862,42.469,60.317,42.469,60.317Z" transform="translate(-20.288 -51.423)" fill="#f4eed8"/>
      <path id="Path_30725" data-name="Path 30725" d="M29.156,63.162a2.813,2.813,0,1,1-2.294-3.25A2.7,2.7,0,0,1,29.156,63.162Z" transform="translate(-21.887 -45.664)" fill="#f4eed8"/>
      <path id="Path_30726" data-name="Path 30726" d="M25.761,67.077a4.011,4.011,0,0,1,3.824.765S40.29,65.357,40.1,59.621a6.154,6.154,0,0,1,4.206-.191s-1.912-9.559-14.147-6.309-5.735,15.868-5.735,15.868A2.387,2.387,0,0,1,25.761,67.077Z" transform="translate(-22.698 -52.447)" fill="#ff6748"/>
      <path id="Path_30727" data-name="Path 30727" d="M26.065,61.2l-.382,2.1a3.346,3.346,0,0,1-.191.956c0,.765-.191,2.1-.191,3.25,0,1.912.191,4.015.956,4.588,1.529,1.529,7.647,1.912,8.412,1.529a7.83,7.83,0,0,0,.574-2.676,11.759,11.759,0,0,1,.191-2.485h0V63.3Z" transform="translate(-20.325 -44.467)" fill="#f4eed8"/>
      <path id="Path_30728" data-name="Path 30728" d="M25.491,62.8c0,.765-.191,2.1-.191,3.25,2.294,1.147,7.265,3.441,9.941,3.632a11.759,11.759,0,0,1,.191-2.485h0C35.05,67.2,26.447,65.094,25.491,62.8Z" transform="translate(-20.325 -43.008)" fill="#ebe0be"/>
    </g>
    <g id="Group_2756" data-name="Group 2756" transform="translate(63.527 50.662)">
      <path id="Path_30729" data-name="Path 30729" d="M75.259,26.5H37.024A3.835,3.835,0,0,0,33.2,30.324V57.662a3.835,3.835,0,0,0,3.824,3.824h2.1v9.368l9.368-9.368H75.259a3.835,3.835,0,0,0,3.824-3.824V30.324A3.835,3.835,0,0,0,75.259,26.5Z" transform="translate(-33.2 -26.5)" fill="#5202b5"/>
      <path id="Path_30730" data-name="Path 30730" d="M70.9,30.7l-9.941,2.868,2.868,2.676L58.668,41.6,48.344,33.95,36.3,46.568l1.912,1.721,10.324-10.9,10.324,7.647,6.882-7.074,2.676,2.868Z" transform="translate(-30.374 -22.671)" fill="#fff"/>
    </g>
    <g id="Group_2761" data-name="Group 2761" transform="translate(118.586)">
      <path id="Path_30731" data-name="Path 30731" d="M99.853,18.927A18.927,18.927,0,1,1,81.118,0,18.97,18.97,0,0,1,99.853,18.927Z" transform="translate(-62)" fill="#fff"/>
      <g id="Group_2758" data-name="Group 2758" transform="translate(2.868 2.676)">
        <g id="Group_2757" data-name="Group 2757">
          <path id="Path_30732" data-name="Path 30732" d="M79.75,33.9a6.5,6.5,0,0,1-1.912-.191l.191-1.338a11.574,11.574,0,0,0,3.632,0l.191,1.338C81.088,33.709,80.324,33.9,79.75,33.9Zm-5.735-1.147a15.5,15.5,0,0,1-3.441-1.912l.765-1.147a10.628,10.628,0,0,0,3.25,1.721Zm11.471,0L85.1,31.606a13.385,13.385,0,0,0,3.25-1.721l.765,1.147C87.779,31.606,86.632,32.371,85.485,32.753Zm-17.971-4.4a19.846,19.846,0,0,1-2.294-3.25l1.147-.574a11.137,11.137,0,0,0,2.1,2.868Zm24.279,0-.956-.956a17.325,17.325,0,0,0,2.1-3.059l1.147.574A10.849,10.849,0,0,1,91.794,28.356ZM63.882,21.474A13.008,13.008,0,0,1,63.5,17.65h1.338a23.424,23.424,0,0,0,.382,3.632Zm31.544,0-1.338-.382a21.175,21.175,0,0,0,.382-3.632h1.338A9.6,9.6,0,0,1,95.427,21.474ZM65.221,14.018l-1.338-.382A20.383,20.383,0,0,1,65.221,10l1.147.574A12.151,12.151,0,0,0,65.221,14.018Zm29.059,0a25.533,25.533,0,0,0-1.338-3.441L94.088,10a11.835,11.835,0,0,1,1.338,3.632ZM68.471,7.709l-.956-.765a36.7,36.7,0,0,1,2.868-2.676l.765,1.147A10.061,10.061,0,0,0,68.471,7.709Zm22.368,0a10.061,10.061,0,0,0-2.676-2.294l.765-1.147a9.592,9.592,0,0,1,2.868,2.676ZM74.4,3.694l-.382-1.147a22.361,22.361,0,0,1,3.824-.956V2.738A11.605,11.605,0,0,0,74.4,3.694ZM84.912,3.5a11.164,11.164,0,0,0-3.441-.765L81.662,1.4a12.482,12.482,0,0,1,3.824.956Z" transform="translate(-63.5 -1.4)" fill="#5202b5"/>
        </g>
      </g>
      <g id="Group_2760" data-name="Group 2760" transform="translate(17.779 8.985)">
        <g id="Group_2759" data-name="Group 2759">
          <path id="Path_30733" data-name="Path 30733" d="M76.653,23.244,71.3,17.7V4.7h2.676V16.744l4.588,4.588Z" transform="translate(-71.3 -4.7)" fill="#5202b5"/>
        </g>
      </g>
    </g>
  </g>
</svg>
