<svg xmlns="http://www.w3.org/2000/svg" xmlns:xlink="http://www.w3.org/1999/xlink" width="475.228" height="350.73" viewBox="0 0 475.228 350.73">
  <defs>
    <clipPath id="clip-path">
      <path id="Path_30603" data-name="Path 30603" d="M425.879,218.417C391.729,193.6,382.6,179.3,382.6,179.3,513.835,22.453,248.776-28.772,197.154,79.038c-21.443,45.07-65.322,44.077-139.776,58.174-68.9,13.1-66.711,83.786-9.927,139.379H457.845C467.375,243.037,441.564,229.734,425.879,218.417Z" transform="translate(-5.24 -21.944)"/>
    </clipPath>
  </defs>
  <g id="Group_2699" data-name="Group 2699" transform="translate(-5.24 -0.004)">
    <g id="Group_2659" data-name="Group 2659" transform="translate(5.24 43.076)">
      <path id="Path_30601" data-name="Path 30601" d="M425.879,218.417C391.729,193.6,382.6,179.3,382.6,179.3,513.835,22.453,248.776-28.772,197.154,79.038c-21.443,45.07-65.322,44.077-139.776,58.174-68.9,13.1-66.711,83.786-9.927,139.379H457.845C467.375,243.235,441.564,229.734,425.879,218.417Z" transform="translate(-5.24 -21.944)" fill="#eaebfb"/>
    </g>
    <g id="Group_2661" data-name="Group 2661" transform="translate(5.24 43.076)">
      <g id="Group_2660" data-name="Group 2660" clip-path="url(#clip-path)">
        <path id="Path_30602" data-name="Path 30602" d="M62.343,43.8S345.867,256.244,476.907,81.127V276.694H0V118.453Z" transform="translate(-10.404 -0.405)" fill="#e1e2f5"/>
      </g>
    </g>
    <path id="Path_30604" data-name="Path 30604" d="M139.832,46.113s-3.772-4.964-5.956-7.148c-4.169-3.971-8.935-11.317-24.024-5.956a17.6,17.6,0,0,0-3.375,1.588c-1.39.6-5.559.6-9.729-3.177C90,25.266,87.416,20.7,78.084,20.5c-10.721-.2-12.508,15.089-20.847,19.06C51.876,42.142,37.978,44.525,35,45.716Z" transform="translate(29.327 19.708)" fill="#ecedfd"/>
    <g id="Group_2663" data-name="Group 2663" transform="translate(23.845 147.471)">
      <path id="Path_30605" data-name="Path 30605" d="M51.321,198.369c.794,0,18.663-2.184,19.457-18.663.794-16.678-10.523-20.847-7.545-39.312s10.92-23.825-6.751-37.327c0,0-7.942-5.361-8.14-13.1-.4-9.133-16.281-19.656-26.8-13.7-10.523,6.155-8.14,15.487.993,30.775s.4,17.869-1.39,22.833S15.384,140,24.517,151.711c9.332,11.714-1.787,26.208,6.155,37.525C30.275,189.236,37.224,197.575,51.321,198.369Z" transform="translate(-14.61 -74.524)" fill="#93b7fa"/>
      <g id="Group_2662" data-name="Group 2662" transform="translate(18.314 26.902)">
        <path id="Path_30606" data-name="Path 30606" d="M36.948,210.629c-.4,0-.6-.4-.6-.794,9.53-50.828-9.927-120.12-10.126-120.716-.2-.4.2-.794.6-.993s.794.2.993.6c.2.794,19.855,70.285,10.126,121.51,0,.2-.4.4-.993.4Z" transform="translate(-21.529 -88.073)" fill="#648bd4"/>
        <path id="Path_30607" data-name="Path 30607" d="M29.9,111.266h0c-.6-.2-.6-.6-.6-.993A119.975,119.975,0,0,0,35.058,93.6c0-.4.4-.6.993-.6.4,0,.6.4.6.993-1.588,7.743-5.758,16.876-5.758,17.075A.873.873,0,0,1,29.9,111.266Z" transform="translate(-18.448 -83.218)" fill="#648bd4"/>
        <path id="Path_30608" data-name="Path 30608" d="M37.863,115.288c-.2,0-.2,0-.2-.2a134.28,134.28,0,0,0-13.5-9.133c-.4-.2-.4-.6-.2-.993s.6-.4.993-.2,9.729,5.956,13.7,9.332a.691.691,0,0,1,.2.993A1.79,1.79,0,0,1,37.863,115.288Z" transform="translate(-23.834 -71.753)" fill="#648bd4"/>
        <path id="Path_30609" data-name="Path 30609" d="M32.256,123.451h0a.643.643,0,0,1-.4-.993l5.361-10.523a.756.756,0,0,1,1.39.6l-5.361,10.523C33.05,123.451,32.653,123.451,32.256,123.451Z" transform="translate(-16.043 -65.026)" fill="#648bd4"/>
      </g>
    </g>
    <g id="Group_2664" data-name="Group 2664" transform="translate(218.597 79.521)">
      <path id="Path_30610" data-name="Path 30610" d="M117.664,53.685l-.6-1.985-.6,1.985a6.413,6.413,0,0,1-3.772,3.772h0a7.011,7.011,0,0,1,3.772,3.772l.6,1.985.6-1.985a6.413,6.413,0,0,1,3.772-3.772h0A7.721,7.721,0,0,1,117.664,53.685Z" transform="translate(-112.7 -29.066)" fill="#fff"/>
      <path id="Path_30611" data-name="Path 30611" d="M175.237,43.477,174.046,40.3l-1.191,3.177a11.016,11.016,0,0,1-6.155,6.155h0a11.64,11.64,0,0,1,6.155,6.155l1.191,3.177,1.191-3.177a11.017,11.017,0,0,1,6.155-6.155h0A10.463,10.463,0,0,1,175.237,43.477Z" transform="translate(-59.485 -40.3)" fill="#fff"/>
    </g>
    <g id="Group_2665" data-name="Group 2665" transform="translate(96.492 128.562)">
      <path id="Path_30612" data-name="Path 30612" d="M337.263,217.682H59.1V71.949A7.035,7.035,0,0,1,66.049,65H330.313a7.035,7.035,0,0,1,6.949,6.949V217.682Z" transform="translate(-43.415 -65)" fill="#95b9fc"/>
      <path id="Path_30613" data-name="Path 30613" d="M353.387,157.982H58.348a7.118,7.118,0,0,1-7.148-7.148V141.9H360.534v8.935A7.118,7.118,0,0,1,353.387,157.982Z" transform="translate(-51.2 10.782)" fill="#739be1"/>
      <path id="Path_30614" data-name="Path 30614" d="M110.9,141.9l3.177,3.177a7.326,7.326,0,0,0,4.765,1.985h56.586a6.4,6.4,0,0,0,5.162-2.383l2.383-2.78H110.9Z" transform="translate(7.632 10.782)" fill="#5b87c9"/>
      <rect id="Rectangle_867" data-name="Rectangle 867" width="257.514" height="133.82" transform="translate(26.009 10.126)" fill="#fff"/>
    </g>
    <line id="Line_179" data-name="Line 179" x2="454.471" transform="translate(25.809 297.326)" fill="none" stroke="#1d2738" stroke-linecap="round" stroke-linejoin="round" stroke-miterlimit="10" stroke-width="0.375"/>
    <g id="Group_2667" data-name="Group 2667" transform="translate(223.164 34.253)">
      <circle id="Ellipse_77" data-name="Ellipse 77" cx="34.745" cy="34.745" r="34.745" fill="#ce5a71"/>
      <g id="Group_2666" data-name="Group 2666" transform="translate(5.361 5.361)">
        <path id="Path_30615" data-name="Path 30615" d="M147.085,78.97A29.385,29.385,0,1,1,176.47,49.585,29.445,29.445,0,0,1,147.085,78.97Z" transform="translate(-117.7 -20.2)" fill="#df7383"/>
      </g>
      <path id="Path_30616" data-name="Path 30616" d="M143.978,42.285a5.8,5.8,0,0,0,3.574-5.758c0-3.772-2.581-6.353-6.751-6.552V26.6h-4.169v3.375h-1.985V26.6h-4.169v3.375H127.3v5.361h2.978V50.823H127.3v5.361h3.177v3.772h4.169V56.183h1.985v3.772H140.8V56.183c4.567-.2,7.346-2.978,7.346-7.346C148.147,45.462,146.559,42.881,143.978,42.285Zm-8.339-7.148h4.169a1.488,1.488,0,0,1,.993.2,2.442,2.442,0,0,1,1.39,2.184A2.248,2.248,0,0,1,140.8,39.9a1.79,1.79,0,0,1-.993.2h-4.169ZM140.6,50.624c-.4,0-.6.2-.993.2H135.44V45.263h4.169a1.488,1.488,0,0,1,.993.2,2.571,2.571,0,0,1,1.985,2.581A2.276,2.276,0,0,1,140.6,50.624Z" transform="translate(-102.879 -8.532)" fill="#fff"/>
    </g>
    <g id="Group_2672" data-name="Group 2672" transform="translate(89.741 110.494)">
      <circle id="Ellipse_78" data-name="Ellipse 78" cx="22.436" cy="22.436" r="22.436" fill="#ce5a71"/>
      <g id="Group_2671" data-name="Group 2671" transform="translate(3.375 3.574)">
        <g id="Group_2670" data-name="Group 2670">
          <g id="Group_2669" data-name="Group 2669">
            <g id="Group_2668" data-name="Group 2668">
              <path id="Path_30617" data-name="Path 30617" d="M68.56,95.821a19.06,19.06,0,1,1,19.06-19.06A19.065,19.065,0,0,1,68.56,95.821Z" transform="translate(-49.5 -57.7)" fill="#df7383"/>
            </g>
          </g>
        </g>
      </g>
      <path id="Path_30618" data-name="Path 30618" d="M75.159,70.481A3.9,3.9,0,0,0,70.989,67.3a4.033,4.033,0,0,0-3.375,2.978l-1.39.2a5.175,5.175,0,0,1-3.971-1.39l-.993-.993a3.674,3.674,0,0,0-.794-4.368,3.932,3.932,0,0,0-5.162-.2,3.84,3.84,0,0,0,4.169,6.353l.794.794a4.481,4.481,0,0,1,1.191,4.368l-.2,1.191a3.585,3.585,0,0,0-3.177,2.978,3.658,3.658,0,0,0,2.78,4.368,3.889,3.889,0,0,0,4.765-2.978,3.6,3.6,0,0,0-1.787-3.971,4.874,4.874,0,0,1,3.971-3.772h.2a3.845,3.845,0,0,0,3.971,2.184A4.023,4.023,0,0,0,75.159,70.481Z" transform="translate(-41.605 -49.237)" fill="#fff"/>
    </g>
    <g id="Group_2678" data-name="Group 2678" transform="translate(239.246 313.209)">
      <rect id="Rectangle_868" data-name="Rectangle 868" width="45.07" height="6.353" transform="translate(0 15.487)" fill="#bb4d6a"/>
      <path id="Path_30619" data-name="Path 30619" d="M145.536,161.3c-12.508,0-22.436,6.949-22.436,15.487s10.126,15.487,22.436,15.487c12.508,0,22.436-6.949,22.436-15.487C168.17,168.249,158.044,161.3,145.536,161.3Z" transform="translate(-123.1 -154.748)" fill="#bb4d6a"/>
      <g id="Group_2677" data-name="Group 2677" transform="translate(0)">
        <ellipse id="Ellipse_79" data-name="Ellipse 79" cx="22.436" cy="15.487" rx="22.436" ry="15.487" fill="#ce5a71"/>
        <g id="Group_2676" data-name="Group 2676" transform="translate(3.375 2.581)">
          <g id="Group_2675" data-name="Group 2675">
            <g id="Group_2674" data-name="Group 2674">
              <g id="Group_2673" data-name="Group 2673">
                <path id="Path_30620" data-name="Path 30620" d="M143.86,185.508c-10.523,0-19.06-5.956-19.06-13.1s8.537-13.1,19.06-13.1,19.06,5.956,19.06,13.1S154.383,185.508,143.86,185.508Z" transform="translate(-124.8 -159.3)" fill="#df7383"/>
              </g>
            </g>
          </g>
        </g>
        <path id="Path_30621" data-name="Path 30621" d="M150.559,168.135c-.4-1.39-2.184-2.383-4.169-2.184-1.588.2-2.978.993-3.375,1.985l-1.39.2a5.712,5.712,0,0,1-3.971-.993l-.993-.794c.794-.993.4-2.184-.794-2.978a4.846,4.846,0,0,0-5.162,0,2.156,2.156,0,0,0-.2,3.772,5.592,5.592,0,0,0,4.368.6l.794.4a2.49,2.49,0,0,1,1.191,2.978l-.2.794c-1.588.2-2.978.993-3.177,1.985-.4,1.39.794,2.78,2.78,2.978,2.184.4,4.169-.6,4.765-1.985.4-1.191-.4-2.184-1.787-2.78.4-1.39,1.985-2.383,3.971-2.581h.2c.6.993,2.184,1.588,3.971,1.39C149.368,170.914,150.757,169.524,150.559,168.135Z" transform="translate(-116.806 -153.442)" fill="#fff"/>
      </g>
    </g>
    <g id="Group_2684" data-name="Group 2684" transform="translate(308.538 146.233)">
      <circle id="Ellipse_80" data-name="Ellipse 80" cx="24.223" cy="24.223" r="24.223" fill="#ce5a71"/>
      <g id="Group_2682" data-name="Group 2682" transform="translate(3.772 3.772)">
        <g id="Group_2681" data-name="Group 2681">
          <g id="Group_2680" data-name="Group 2680">
            <g id="Group_2679" data-name="Group 2679">
              <path id="Path_30622" data-name="Path 30622" d="M180.35,116.7A20.45,20.45,0,1,1,200.8,96.25,20.421,20.421,0,0,1,180.35,116.7Z" transform="translate(-159.9 -75.8)" fill="#df7383"/>
            </g>
          </g>
        </g>
      </g>
      <g id="Group_2683" data-name="Group 2683" transform="translate(16.876 11.119)">
        <path id="Path_30623" data-name="Path 30623" d="M173.846,79.5,166.5,91.413l7.346,3.574,7.545-3.574Z" transform="translate(-166.5 -79.5)" fill="#fff"/>
        <path id="Path_30624" data-name="Path 30624" d="M173.846,98.711,181.391,86.6l-7.545,4.964L166.5,86.6Z" transform="translate(-166.5 -72.503)" fill="#fff"/>
      </g>
    </g>
    <g id="Group_2686" data-name="Group 2686" transform="translate(147.716 152.586)">
      <path id="Path_30625" data-name="Path 30625" d="M177.266,115.354H78.985A1.99,1.99,0,0,1,77,113.369V83.785A1.99,1.99,0,0,1,78.985,81.8h98.28a1.99,1.99,0,0,1,1.985,1.985V113.17A2.041,2.041,0,0,1,177.266,115.354Z" transform="translate(-77 -72.468)" fill="#b8b8b8" opacity="0.16"/>
      <path id="Path_30626" data-name="Path 30626" d="M179.295,110.456H84.985A1.99,1.99,0,0,1,83,108.47V79.085A1.99,1.99,0,0,1,84.985,77.1h94.309a1.99,1.99,0,0,1,1.985,1.985v29.583A1.833,1.833,0,0,1,179.295,110.456Z" transform="translate(-71.087 -77.1)" fill="#95b9fc"/>
      <g id="Group_2685" data-name="Group 2685" transform="translate(23.825 10.324)">
        <path id="Path_30627" data-name="Path 30627" d="M159.285,84.285H89.993a.993.993,0,0,1,0-1.985h69.292a.938.938,0,0,1,.993.993C160.278,83.888,160.079,84.285,159.285,84.285Z" transform="translate(-89 -82.3)" fill="#fff"/>
        <path id="Path_30628" data-name="Path 30628" d="M122.157,89.785H89.993a.993.993,0,0,1,0-1.985h31.966a.938.938,0,0,1,.993.993C123.15,89.19,122.753,89.785,122.157,89.785Z" transform="translate(-89 -76.88)" fill="#fff"/>
      </g>
    </g>
    <g id="Group_2689" data-name="Group 2689" transform="translate(89.145 206.988)">
      <path id="Path_30629" data-name="Path 30629" d="M151.424,145.537H59.1V111.585a1.99,1.99,0,0,1,1.985-1.985h90.338a1.99,1.99,0,0,1,1.985,1.985v31.966A2.135,2.135,0,0,1,151.424,145.537Z" transform="translate(-36.069 -99.474)" fill="#b8b8b8" opacity="0.16"/>
      <g id="Group_2688" data-name="Group 2688">
        <path id="Path_30630" data-name="Path 30630" d="M178.937,140.437H49.883a2.294,2.294,0,0,1-2.383-2.383V106.883a2.294,2.294,0,0,1,2.383-2.383H178.739a2.294,2.294,0,0,1,2.383,2.383v31.172A2.141,2.141,0,0,1,178.937,140.437Z" transform="translate(-47.5 -104.5)" fill="#583bf9"/>
        <g id="Group_2687" data-name="Group 2687" transform="translate(42.29 10.92)">
          <path id="Path_30631" data-name="Path 30631" d="M144.446,112.383H69.991a1.191,1.191,0,1,1,0-2.383h74.455a1.281,1.281,0,0,1,1.191,1.191A1.144,1.144,0,0,1,144.446,112.383Z" transform="translate(-68.8 -110)" fill="#fff"/>
          <path id="Path_30632" data-name="Path 30632" d="M104.34,118.283H69.991a1.191,1.191,0,0,1,0-2.383H104.34a1.281,1.281,0,0,1,1.191,1.191A1.144,1.144,0,0,1,104.34,118.283Z" transform="translate(-68.8 -104.186)" fill="#fff"/>
        </g>
        <path id="Path_30633" data-name="Path 30633" d="M73.347,129.046H54.684a2.2,2.2,0,0,1-2.184-2.184V110.184A2.2,2.2,0,0,1,54.684,108H73.347a2.2,2.2,0,0,1,2.184,2.184v16.678A2.083,2.083,0,0,1,73.347,129.046Z" transform="translate(-42.573 -101.051)" fill="#fff"/>
      </g>
    </g>
    <g id="Group_2692" data-name="Group 2692" transform="translate(259.498 205.002)">
      <path id="Path_30634" data-name="Path 30634" d="M230.19,161.872H135.881a2.628,2.628,0,0,1-2.581-2.581v-53.21a2.628,2.628,0,0,1,2.581-2.581H230.19a2.628,2.628,0,0,1,2.581,2.581v53.21A2.394,2.394,0,0,1,230.19,161.872Z" transform="translate(-133.3 -103.5)" fill="#ecedfd"/>
      <g id="Group_2691" data-name="Group 2691" transform="translate(15.884 12.906)">
        <g id="Group_2690" data-name="Group 2690" transform="translate(8.14)">
          <rect id="Rectangle_869" data-name="Rectangle 869" width="0.596" height="34.745" transform="translate(52.416)" fill="#fff"/>
          <rect id="Rectangle_870" data-name="Rectangle 870" width="0.596" height="34.745" transform="translate(42.092)" fill="#fff"/>
          <rect id="Rectangle_871" data-name="Rectangle 871" width="0.596" height="34.745" transform="translate(31.569)" fill="#fff"/>
          <rect id="Rectangle_872" data-name="Rectangle 872" width="0.596" height="34.745" transform="translate(21.046)" fill="#fff"/>
          <rect id="Rectangle_873" data-name="Rectangle 873" width="0.596" height="34.745" transform="translate(10.523)" fill="#fff"/>
          <rect id="Rectangle_874" data-name="Rectangle 874" width="0.596" height="34.745" fill="#fff"/>
        </g>
        <rect id="Rectangle_875" data-name="Rectangle 875" width="68.895" height="0.596" transform="translate(0 38.716)" fill="#fff"/>
      </g>
      <path id="Path_30635" data-name="Path 30635" d="M165.331,140.5a1.194,1.194,0,0,1-.794-.2c-3.971-.993-5.956-4.567-7.743-7.545-1.191-1.985-2.184-3.971-3.375-3.971-3.971,0-6.353,4.567-8.339,8.339a18.368,18.368,0,0,0-.993,1.985,1.294,1.294,0,1,1-2.184-1.39c.4-.6.6-1.191.993-1.787,2.184-4.169,5.162-9.729,10.721-9.729,2.78,0,4.169,2.581,5.758,5.361s3.177,5.559,5.956,6.353h.6c1.787-1.191,2.78-7.148,3.574-11.913,1.191-7.148,2.184-12.905,5.758-12.905h.2c3.574.2,4.567,4.765,5.758,9.729.993,4.169,1.985,8.736,4.368,9.133,2.78.4,3.772-.6,5.162-1.588a7.245,7.245,0,0,1,5.559-2.184c2.581.2,3.971,1.985,5.162,3.375,1.787,1.985,3.375,3.971,7.942,3.375.794,0,1.39.4,1.39,1.191s-.4,1.39-1.191,1.39c-5.956.6-8.339-2.184-10.126-4.368-1.191-1.39-1.985-2.383-3.375-2.383-1.787-.2-2.581.6-3.574,1.588a8.564,8.564,0,0,1-7.148,2.383c-4.169-.6-5.361-5.956-6.552-11.119-.794-3.375-1.787-7.545-3.375-7.743h0c-1.39,0-2.581,7.148-3.177,10.721-.993,6.155-1.985,11.913-4.567,13.7C166.522,140.3,165.927,140.5,165.331,140.5Z" transform="translate(-125.026 -94.04)" fill="#95b9fc"/>
    </g>
    <g id="Group_2693" data-name="Group 2693" transform="translate(123.891 312.959)">
      <path id="Path_30636" data-name="Path 30636" d="M141.922,170.633l-67.9-10.721a.875.875,0,0,1-.794-1.191h0a.875.875,0,0,1,1.191-.794l67.9,10.721a.875.875,0,0,1,.794,1.191h0A1.341,1.341,0,0,1,141.922,170.633Z" transform="translate(-56.945 -157.874)" fill="#95b9fc"/>
      <path id="Path_30637" data-name="Path 30637" d="M127.145,167.585H65.993a.938.938,0,0,1-.993-.993h0a.938.938,0,0,1,.993-.993h61.152a.938.938,0,0,1,.993.993h0A1.064,1.064,0,0,1,127.145,167.585Z" transform="translate(-65 -150.26)" fill="#583bf9"/>
    </g>
    <g id="Group_2698" data-name="Group 2698" transform="translate(351.152 144.838)">
      <g id="Group_2697" data-name="Group 2697">
        <path id="Path_30638" data-name="Path 30638" d="M223.306,73.2s14.3-.6,16.479,11.913c0,0,2.581,5.361,6.155,7.743,7.148,4.368,11.317,21.84-9.133,23.031-28.988,1.588-37.922-9.53-29.782-18.663,7.545-8.339,3.375-13.7,3.375-13.7Z" transform="translate(-155.131 -73.198)" fill="#282c3c"/>
        <path id="Path_30639" data-name="Path 30639" d="M207.909,93.574l6.552,34.746,18.266-.4L236.1,93.971a3.477,3.477,0,0,0-3.177-3.574l-21.84-.4A3.231,3.231,0,0,0,207.909,93.574Z" transform="translate(-151.448 -56.64)" fill="#583bf9"/>
        <path id="Path_30640" data-name="Path 30640" d="M217.5,90H203.6l-.4,9.927,15.487,1.985Z" transform="translate(-156.07 -56.64)" fill="#583bf9"/>
        <path id="Path_30641" data-name="Path 30641" d="M210.594,90.493l-13.5-.993-.993,9.133,14.1,1.787Z" transform="translate(-163.067 -57.133)" fill="#e5be9c"/>
        <path id="Path_30642" data-name="Path 30642" d="M209.214,93.442,186.183,85.5,183.8,89.669l24.421,12.905Z" transform="translate(-175.188 -61.074)" fill="#e5be9c"/>
        <path id="Path_30643" data-name="Path 30643" d="M208.294,91.8l-.794,9.53a5.17,5.17,0,0,0,.794,2.978l6.155,8.14Z" transform="translate(-151.833 -54.866)" fill="#583bf9"/>
        <path id="Path_30644" data-name="Path 30644" d="M189.861,90.877a5.554,5.554,0,1,1-2.184-7.545A5.347,5.347,0,0,1,189.861,90.877Z" transform="translate(-179.463 -63.87)" fill="#e5be9c"/>
        <path id="Path_30645" data-name="Path 30645" d="M220.5,90.2a17.006,17.006,0,0,1,10.721,4.964l7.545,6.949-5.559,7.346L220.5,99.135Z" transform="translate(-139.022 -56.443)" fill="#583bf9"/>
        <g id="Group_2696" data-name="Group 2696" transform="translate(53.007 0.198)">
          <g id="Group_2695" data-name="Group 2695">
            <g id="Group_2694" data-name="Group 2694" transform="translate(3.197 6.954)">
              <path id="Path_30646" data-name="Path 30646" d="M216.98,101.466h-.794a3.584,3.584,0,0,1-3.177-3.971l1.39-14.3,7.942.794-1.39,14.3A3.584,3.584,0,0,1,216.98,101.466Z" transform="translate(-202.626 -70.493)" fill="#dfb48f"/>
              <path id="Path_30647" data-name="Path 30647" d="M216.962,99.037h-.4a9.5,9.5,0,0,1-8.736-10.523l.993-11.714,19.656,1.588L227.485,90.1A9.781,9.781,0,0,1,216.962,99.037Z" transform="translate(-207.77 -76.8)" fill="#e5be9c"/>
            </g>
            <path id="Path_30648" data-name="Path 30648" d="M230.66,89.385l-2.383,2.978s-2.581,1.39-2.184-3.375c.4-4.169-2.78-3.971-2.78-3.971s-11.516,5.361-16.281-.993c-3.772-5.162,5.361-10.92,14.3-10.721l10.126,7.346Z" transform="translate(-206.16 -73.297)" fill="#282c3c"/>
            <path id="Path_30649" data-name="Path 30649" d="M216.709,84.388a3.29,3.29,0,1,0,3.574-2.978A3.314,3.314,0,0,0,216.709,84.388Z" transform="translate(-195.783 -65.322)" fill="#e5be9c"/>
            <path id="Path_30650" data-name="Path 30650" d="M217.9,84.2a.6.6,0,1,0,.6-.6Q218.2,83.6,217.9,84.2Z" transform="translate(-194.591 -63.145)" fill="#fff"/>
          </g>
        </g>
        <path id="Path_30651" data-name="Path 30651" d="M211.3,109.3" transform="translate(-148.088 -37.62)" fill="#3d415b"/>
        <path id="Path_30652" data-name="Path 30652" d="M239.2,114.958,220.931,109.2l-.2,3.574-19.259,58.372a6.542,6.542,0,0,0,0,2.78l5.956,51.423,7.148-2.978-1.191-50.232Z" transform="translate(-157.918 -37.719)" fill="#df7383"/>
        <path id="Path_30653" data-name="Path 30653" d="M227.692,109.1,213,109.7l12.31,114.164,7.148-.2.2-13.3.6-77.036C239.208,117.836,227.692,109.1,227.692,109.1Z" transform="translate(-146.413 -37.818)" fill="#df7383"/>
        <path id="Path_30654" data-name="Path 30654" d="M224.231,166.3l-3.375,3.375-7.545,1.787a2.155,2.155,0,0,0-1.588,1.588l-.4.993c-.2.6.2,1.191.794.993l21.84-.4a1.357,1.357,0,0,0,1.39-1.39l-.794-6.949-2.78.794a4.461,4.461,0,0,1-3.574-.4l-1.39-.794A2.437,2.437,0,0,0,224.231,166.3Z" transform="translate(-148.114 17.955)" fill="#29323d"/>
        <path id="Path_30655" data-name="Path 30655" d="M211.3,109.5l18.068-.4-15.089,7.148Z" transform="translate(-148.088 -37.818)" fill="#df7383"/>
        <path id="Path_30656" data-name="Path 30656" d="M209.431,166.769l-3.375,3.375-7.545,1.787a2.155,2.155,0,0,0-1.588,1.588l-.4.993c-.2.6.2,1.191.794.993l21.84-.4a1.357,1.357,0,0,0,1.39-1.39l-.6-6.949-2.78.794a4.461,4.461,0,0,1-3.574-.4l-1.39-.794A2.164,2.164,0,0,0,209.431,166.769Z" transform="translate(-162.699 18.28)" fill="#29323d"/>
        <path id="Path_30657" data-name="Path 30657" d="M235.61,123.722a5.589,5.589,0,1,1-1.588-7.743A5.49,5.49,0,0,1,235.61,123.722Z" transform="translate(-134.277 -31.989)" fill="#e5be9c"/>
        <path id="Path_30658" data-name="Path 30658" d="M227,103.546l6.751,5.361-4.964,24.62,3.177,3.177,10.126-28.392a3.33,3.33,0,0,0-.794-3.971l-8.935-8.14Z" transform="translate(-132.617 -50.53)" fill="#e5be9c"/>
      </g>
      <path id="Path_30659" data-name="Path 30659" d="M214.152,121.1l4.567,5.956L207.6,160.611l14.3-32.561-.4-6.353Z" transform="translate(-151.734 -25.992)" fill="#cacaca" opacity="0.44"/>
    </g>
    <path id="Path_30660" data-name="Path 30660" d="M142.9,11.817a30.951,30.951,0,0,1,2.978-3.177c1.985-1.787,4.368-4.964,12.111-2.581l1.787.6a6.551,6.551,0,0,0,4.964-1.39C168.115,2.485,169.505.5,174.072.5c5.361,0,6.155,6.751,10.523,8.339,2.581,1.191,9.729,2.184,11.119,2.581Z" transform="translate(135.658)" fill="none" stroke="#eaebfb" stroke-linecap="round" stroke-linejoin="round" stroke-miterlimit="10" stroke-width="0.992"/>
  </g>
</svg>
