<svg xmlns="http://www.w3.org/2000/svg" width="504.905" height="379.398" viewBox="0 0 504.905 379.398">
  <g id="Group_2658" data-name="Group 2658" transform="translate(0.05)">
    <g id="Group_2632" data-name="Group 2632" transform="translate(23.648)">
      <path id="Path_30472" data-name="Path 30472" d="M23.168,144.293A32.05,32.05,0,0,1,68.493,98.968a32.05,32.05,0,0,1-45.325,45.325Z" transform="translate(-5.567 116.615)" fill="#fdffff"/>
      <circle id="Ellipse_76" data-name="Ellipse 76" cx="4.371" cy="4.371" r="4.371" transform="translate(429.9 208.91)" fill="#c9e3f4"/>
      <path id="Path_30473" data-name="Path 30473" d="M194.182,96.425V93.2h-3.221a2.761,2.761,0,1,1,0-5.522h3.221V84.461a2.761,2.761,0,0,1,5.522,0v3.221h3.221a2.761,2.761,0,1,1,0,5.522H199.7v3.221a2.658,2.658,0,0,1-2.761,2.761A2.8,2.8,0,0,1,194.182,96.425Z" transform="translate(221.223 106.273)" fill="#fff"/>
      <path id="Path_30474" data-name="Path 30474" d="M11.285,131.4l2.991-2.991-2.991-2.991a3.416,3.416,0,0,1,4.832-4.832l2.991,2.991,2.991-2.991a3.416,3.416,0,0,1,4.832,4.832l-2.991,2.991,2.991,2.991a3.416,3.416,0,0,1-4.832,4.832l-2.991-2.991-2.991,2.991a3.416,3.416,0,1,1-4.832-4.832Z" transform="translate(-10.25 155.508)" fill="#c9e3f4"/>
      <path id="Path_30475" data-name="Path 30475" d="M210.18,25.539A22.971,22.971,0,0,0,187.633,6.9a22.437,22.437,0,0,0-12.884,3.911A22.522,22.522,0,0,0,155.422,0a22.783,22.783,0,0,0-21.857,16.105,15.189,15.189,0,0,0-3.221-.23A22.785,22.785,0,0,0,107.8,35.2a18.084,18.084,0,0,0,1.38,36.122H208.57a22.683,22.683,0,0,0,22.778-22.778A23.076,23.076,0,0,0,210.18,25.539Z" transform="translate(94.788)" fill="#d2f4ff"/>
    </g>
    <g id="Group_2634" data-name="Group 2634" transform="translate(84.504 25.078)">
      <rect id="Rectangle_860" data-name="Rectangle 860" width="199.247" height="229.848" fill="#c2efd9" opacity="0.4"/>
      <rect id="Rectangle_861" data-name="Rectangle 861" width="47.166" height="14.955" transform="translate(33.821 173.939)" fill="#ebfff8"/>
      <rect id="Rectangle_862" data-name="Rectangle 862" width="129.304" height="14.955" transform="translate(33.821 200.628)" fill="#ebfff8"/>
      <rect id="Rectangle_863" data-name="Rectangle 863" width="32.211" height="14.955" transform="translate(93.181 173.939)" fill="#ebfff8"/>
      <g id="Group_2633" data-name="Group 2633" transform="translate(33.821 22.318)">
        <path id="Path_30476" data-name="Path 30476" d="M166.074,70.275a69.071,69.071,0,0,1-63.5,41.874A66.4,66.4,0,0,1,65.3,101.1l18.636-28.99a34.535,34.535,0,0,0,43.255-4.6A33.482,33.482,0,0,0,134.553,56.7Z" transform="translate(-33.319 26.358)" fill="#ed7c69"/>
        <path id="Path_30477" data-name="Path 30477" d="M189.907,90.083v2.3L155.4,91.234a34.989,34.989,0,0,0-10.123-25.769,34.639,34.639,0,0,0-57.289,35.662l-32.9,11.044A70.907,70.907,0,0,1,51.4,89.853a69.254,69.254,0,1,1,138.507.23Z" transform="translate(-51.4 -20.6)" fill="#fff"/>
        <path id="Path_30478" data-name="Path 30478" d="M94.084,69.075a26.6,26.6,0,0,0,5.752,4.6L81.2,102.666A68.226,68.226,0,0,1,52.9,66.544L85.571,55.5A36.621,36.621,0,0,0,94.084,69.075Z" transform="translate(-49.449 24.797)" fill="#46aacc"/>
        <path id="Path_30479" data-name="Path 30479" d="M132.673,52.45a69.955,69.955,0,0,1-5.522,25.078L95.4,63.954A29.841,29.841,0,0,0,98.161,51.3Z" transform="translate(5.834 19.334)" fill="#bcf1f7"/>
      </g>
    </g>
    <g id="Group_2657" data-name="Group 2657" transform="translate(-0.05 62.581)">
      <path id="Path_30480" data-name="Path 30480" d="M45.781,162.662h329.7a3.634,3.634,0,0,0,3.681-3.681h0a3.634,3.634,0,0,0-3.681-3.681H45.781a3.634,3.634,0,0,0-3.681,3.681h0A3.634,3.634,0,0,0,45.781,162.662Z" transform="translate(54.878 139.429)" fill="#bae5e5"/>
      <g id="Group_2640" data-name="Group 2640" transform="translate(216.167 50.19)">
        <g id="Group_2636" data-name="Group 2636" transform="translate(20.914 68.868)">
          <path id="Path_30481" data-name="Path 30481" d="M117.881,159.054a4.644,4.644,0,0,0,4.371-3.681H199.1a4.527,4.527,0,0,0,8.973-.92,8.152,8.152,0,0,0-8.053-8.053H121.563a8.152,8.152,0,0,0-8.053,8.053A4.288,4.288,0,0,0,117.881,159.054Z" transform="translate(-89.337 8.795)" fill="#536887"/>
          <path id="Path_30482" data-name="Path 30482" d="M108.76,166.039h23.7c12.654,0,20.477-6.672,22.318-18.636,2.3-14.725,6.672-62.811,6.672-63.271a5.639,5.639,0,0,1,6.9-5.062H239.9a7.187,7.187,0,0,1,5.752,7.362c-.23,2.071-4.371,49.007-6.9,64.192-2.761,17.486-15.415,28.069-33.591,28.069H109.911a6.975,6.975,0,0,1-6.9-6.212A5.874,5.874,0,0,1,108.76,166.039Z" transform="translate(-102.994 -78.947)" fill="#536887"/>
          <g id="Group_2635" data-name="Group 2635" transform="translate(64.896 12.777)">
            <path id="Path_30483" data-name="Path 30483" d="M178.755,86.8h-44.4a1.15,1.15,0,1,1,0-2.3h44.4a1.15,1.15,0,1,1,0,2.3Z" transform="translate(-128.598 -84.5)" fill="#617893"/>
            <path id="Path_30484" data-name="Path 30484" d="M178.285,93.3H133.65a1.15,1.15,0,1,1,0-2.3h44.4a1.087,1.087,0,0,1,1.15,1.15C179.436,92.841,178.976,93.3,178.285,93.3Z" transform="translate(-129.509 -76.045)" fill="#617893"/>
            <path id="Path_30485" data-name="Path 30485" d="M177.455,99.7h-44.4a1.15,1.15,0,1,1,0-2.3h44.4a1.15,1.15,0,1,1,0,2.3Z" transform="translate(-130.289 -67.72)" fill="#617893"/>
            <path id="Path_30486" data-name="Path 30486" d="M176.755,106.2h-44.4a1.15,1.15,0,1,1,0-2.3h44.4a1.15,1.15,0,1,1,0,2.3Z" transform="translate(-131.2 -59.265)" fill="#617893"/>
          </g>
          <path id="Path_30487" data-name="Path 30487" d="M141.011,178.693h23.7c18.176,0,30.83-10.584,33.591-28.069,2.3-15.185,6.672-62.121,6.9-64.192a7.187,7.187,0,0,0-5.752-7.362,5.639,5.639,0,0,0-6.9,5.062c0,.46-4.371,48.546-6.672,63.271-1.841,11.964-9.893,18.636-22.318,18.636h-23.7a5.681,5.681,0,0,0-5.752,6.212A6.994,6.994,0,0,0,141.011,178.693Z" transform="translate(-62.54 -78.947)" fill="#293549"/>
          <path id="Path_30488" data-name="Path 30488" d="M132.521,133.214h15.185a3.046,3.046,0,0,0,2.991-2.991V122.4H129.3v7.823A3.436,3.436,0,0,0,132.521,133.214Z" transform="translate(-68.775 -22.424)" fill="#536887"/>
          <rect id="Rectangle_864" data-name="Rectangle 864" width="14.265" height="43.485" transform="translate(78.552 154.188) rotate(180)" fill="#c1d3ea"/>
          <path id="Path_30489" data-name="Path 30489" d="M129.8,155.814h19.327V145.691a3.046,3.046,0,0,0-2.991-2.991H132.791a3.046,3.046,0,0,0-2.991,2.991v10.123Z" transform="translate(-68.125 3.982)" fill="#293549"/>
          <path id="Path_30490" data-name="Path 30490" d="M128.181,159.054a4.644,4.644,0,0,0,4.371-3.681h29.68a4.527,4.527,0,0,0,8.973-.92,8.152,8.152,0,0,0-8.053-8.053H131.863a8.152,8.152,0,0,0-8.053,8.053A4.288,4.288,0,0,0,128.181,159.054Z" transform="translate(-75.939 8.795)" fill="#293549"/>
          <path id="Path_30491" data-name="Path 30491" d="M139,156.112a6.212,6.212,0,1,0,6.212-6.212A6.186,6.186,0,0,0,139,156.112Z" transform="translate(-56.157 13.347)" fill="#293549"/>
          <path id="Path_30492" data-name="Path 30492" d="M140.4,156.112a6.212,6.212,0,1,0,6.212-6.212A6.046,6.046,0,0,0,140.4,156.112Z" transform="translate(-54.336 13.347)" fill="#536887"/>
          <path id="Path_30493" data-name="Path 30493" d="M122.4,156.112a6.212,6.212,0,1,0,6.212-6.212A6.046,6.046,0,0,0,122.4,156.112Z" transform="translate(-77.75 13.347)" fill="#293549"/>
          <path id="Path_30494" data-name="Path 30494" d="M123.7,156.112a6.212,6.212,0,1,0,6.212-6.212A6.046,6.046,0,0,0,123.7,156.112Z" transform="translate(-76.059 13.347)" fill="#536887"/>
          <path id="Path_30495" data-name="Path 30495" d="M149.3,156.112a6.212,6.212,0,1,0,6.212-6.212A6.186,6.186,0,0,0,149.3,156.112Z" transform="translate(-42.76 13.347)" fill="#293549"/>
          <path id="Path_30496" data-name="Path 30496" d="M150.6,156.112a6.212,6.212,0,1,0,6.212-6.212A6.186,6.186,0,0,0,150.6,156.112Z" transform="translate(-41.069 13.347)" fill="#536887"/>
          <path id="Path_30497" data-name="Path 30497" d="M112.1,156.112a6.212,6.212,0,1,0,6.212-6.212A6.186,6.186,0,0,0,112.1,156.112Z" transform="translate(-91.148 13.347)" fill="#293549"/>
          <path id="Path_30498" data-name="Path 30498" d="M113.4,156.112a6.212,6.212,0,1,0,6.212-6.212A6.186,6.186,0,0,0,113.4,156.112Z" transform="translate(-89.457 13.347)" fill="#536887"/>
          <path id="Path_30499" data-name="Path 30499" d="M130.9,132.162l14.265-4.141v-.92H130.9Z" transform="translate(-66.694 -16.31)" fill="#b2bfce"/>
          <path id="Path_30500" data-name="Path 30500" d="M129.4,127.362l21.167-3.911V122.3H129.4Z" transform="translate(-68.645 -22.554)" fill="#293549"/>
        </g>
        <g id="Group_2639" data-name="Group 2639">
          <g id="Group_2637" data-name="Group 2637" transform="translate(0 231.655)">
            <path id="Path_30501" data-name="Path 30501" d="M116.213,150.85a2.485,2.485,0,0,0-1.611.69c-2.991,2.531-12.194,7.132-17.026,7.823-5.062.69-5.292,3.221,1.841,3.221s12.424-.69,15.645-.46c3.221,0,2.3.46,10.123.46,5.982,0,4.141-7.593,2.071-11.274A3,3,0,0,0,124.5,149.7Z" transform="translate(-93.904 -149.7)" fill="#293549"/>
          </g>
          <g id="Group_2638" data-name="Group 2638" transform="translate(38.199 216.01)">
            <path id="Path_30502" data-name="Path 30502" d="M128.9,146.581a6.1,6.1,0,0,0-1.38,1.15c-2.071,3.221-8.513,8.973-13.8,10.354-4.832,1.38-4.371,4.832,2.531,4.141,7.132-.92,11.734-3.681,14.725-4.6s2.3-.23,9.893-2.531c5.752-1.841,1.611-8.513-1.611-11.274a2.849,2.849,0,0,0-3.221-.69Z" transform="translate(-110.506 -142.9)" fill="#293549"/>
          </g>
          <path id="Path_30503" data-name="Path 30503" d="M135.523,53.447c10.123-1.38,7.132,14.955.46,21.4-4.141,3.911-7.593-.46-9.433-7.132C124.71,60.809,123.559,55.057,135.523,53.447Z" transform="translate(-52.934 -43.356)" fill="#ed7c69"/>
          <path id="Path_30504" data-name="Path 30504" d="M149.319,75.978c0,4.6-.69,10.123-3.221,14.035-3.221,5.062-3.911,6.212-3.911,6.442a6.473,6.473,0,0,1-5.522,2.991,5.282,5.282,0,0,1-3.221-.92,6.634,6.634,0,0,1-2.3-8.743s.46-.92,4.141-6.672c.69-.92.92-2.761,1.15-4.832a50.414,50.414,0,0,0-.23-8.513,6.28,6.28,0,0,1,12.424-1.841A46.357,46.357,0,0,1,149.319,75.978Z" transform="translate(-46.483 -31.376)" fill="#ffaf84"/>
          <path id="Path_30505" data-name="Path 30505" d="M165.541,130.948s5.522-5.522,2.071-24.848h-45.1a188.408,188.408,0,0,0,.46,24.848Z" transform="translate(-56.953 25.241)" fill="#ef4343"/>
          <path id="Path_30506" data-name="Path 30506" d="M171.129,108.7c-22.548,1.38-64.652,6.9-72.244,20.937-2.3,4.141-3.681,9.893,0,13.345,13.8,13.114,24.158,24.848,48.086,48.316a.845.845,0,0,0,.69.23L155.024,189a.569.569,0,0,0,.23-.92c-19.787-31.291-29.68-44.175-37.042-48.546,7.132-3.451,27.839-8.743,50.387-10.814a9.052,9.052,0,0,0,8.053-9.893C176.191,113.536,176.191,108.474,171.129,108.7Z" transform="translate(-90.381 28.619)" fill="#d63434"/>
          <path id="Path_30507" data-name="Path 30507" d="M176.508,107.811c-50.847,3.221-58.21,10.353-60.51,13.345a10.184,10.184,0,0,0-2.3,8.053c1.611,11.274-4.832,51.767-9.663,75.7-.23.69.23,1.15.92,1.38l8.053,1.15c.46,0,1.15-.23,1.15-.69,11.5-32.211,17.716-51.077,17.486-73.625,9.2-2.071,31.751-3.681,50.617-4.141,7.132-.23,11.964-8.513,6.212-15.875A14.01,14.01,0,0,0,176.508,107.811Z" transform="translate(-80.805 27.442)" fill="#ef4343"/>
          <path id="Path_30508" data-name="Path 30508" d="M156.669,78.662c-5.752,15.645-15.415,42.1-16.336,46.476a5.454,5.454,0,0,1-2.071,3.451l-.23.23a5.906,5.906,0,0,1-2.761,1.15h-1.38c-3.681,0-7.593-3.911-25.539-41.874a5.351,5.351,0,0,1,9.663-4.6c4.832,10.354,10.584,21.627,14.725,29.22,4.6-13.575,12.424-34.742,13.8-37.963a5.767,5.767,0,0,1,.92-1.611,5.029,5.029,0,0,1,5.982-1.611,6.525,6.525,0,0,1,2.531,1.841A5.539,5.539,0,0,1,156.669,78.662Z" transform="translate(-75.69 -20.255)" fill="#fff"/>
          <path id="Path_30509" data-name="Path 30509" d="M139.766,77.262c-5.752,15.645-15.415,42.1-16.336,46.476a5.454,5.454,0,0,1-2.071,3.451c-.23,0-.23,0-.46.23,2.761-20.017,6.442-46.476,11.5-50.157,0,0,5.292-4.141,6.442-5.062A4.633,4.633,0,0,1,139.766,77.262Z" transform="translate(-58.788 -18.855)" fill="#efefef"/>
          <path id="Path_30510" data-name="Path 30510" d="M175.348,76.192c-.69,3.451-1.38,7.593-2.071,12.194-.92,5.292-1.611,11.044-2.531,17.026-2.3,17.026-4.141,35.662-3.451,46.476H122.2s2.761-61.431,6.9-77.766a4.487,4.487,0,0,1,4.371-3.221h37.273C173.737,70.9,176.038,73.431,175.348,76.192Z" transform="translate(-57.097 -20.546)" fill="#fff"/>
          <path id="Path_30511" data-name="Path 30511" d="M148.532,85.524c-.92,5.292-1.611,11.044-2.531,17.026L141.4,73.1Z" transform="translate(-32.122 -17.684)" fill="#efefef"/>
          <path id="Path_30512" data-name="Path 30512" d="M172.251,131.779c-8.053,0-20.247-.69-39.113-3.221a5.337,5.337,0,1,1,1.38-10.584c16.566,2.071,36.352,3.681,44.175,2.991-2.761-7.823-11.964-26.229-20.247-41.874a5.3,5.3,0,1,1,9.433-4.832c8.513,15.875,22.548,43.255,22.318,50.387a6.006,6.006,0,0,1-2.3,4.6C186.976,129.938,184.675,131.779,172.251,131.779Z" transform="translate(-48.938 -19.994)" fill="#fff"/>
          <path id="Path_30513" data-name="Path 30513" d="M146.047,75.978a20.394,20.394,0,0,1-9.893,2.531,13.119,13.119,0,0,1-2.991-.23,50.411,50.411,0,0,0-.23-8.513,6.28,6.28,0,0,1,12.424-1.841A46.349,46.349,0,0,1,146.047,75.978Z" transform="translate(-43.212 -31.376)" fill="#ed8c62"/>
          <path id="Path_30514" data-name="Path 30514" d="M126.175,70.157c1.38,12.654,8.973,24.388,19.327,21.167,12.424-3.681,20.017-9.663,20.017-20.707A20.031,20.031,0,0,0,145.5,50.6C134.457,50.6,124.794,59.113,126.175,70.157Z" transform="translate(-52.098 -46.952)" fill="#ffaf84"/>
          <path id="Path_30515" data-name="Path 30515" d="M140.735,107.1a4.92,4.92,0,0,1-4.141-2.071,10.342,10.342,0,0,0-4.6-3.681c-2.991,0-4.141-2.3-6.9-5.292C122.1,92.6,122.789,88,125.78,88c.69,0,13.345,2.991,19.1,10.584a5.461,5.461,0,0,1-.92,7.593A7.49,7.49,0,0,1,140.735,107.1Z" transform="translate(-55.845 1.697)" fill="#ffaf84"/>
          <path id="Path_30516" data-name="Path 30516" d="M111.073,87.364c-3.681-.69-8.973-2.761-8.973-5.752s4.141-2.761,7.132-2.761c2.761,0,8.053-2.3,8.973-2.761a5.329,5.329,0,1,1,5.752,8.973c-.69.46-2.531,2.531-8.743,2.531Z" transform="translate(-83.242 -14.922)" fill="#ffaf84"/>
          <path id="Path_30517" data-name="Path 30517" d="M162.412,60.945c1.841-2.3,2.071-5.522-2.071-8.743-3.451-2.761-16.105-5.522-28.76,0a8.871,8.871,0,0,1-6.9,0s-2.3,11.044,11.734,11.734A77.044,77.044,0,0,0,162.412,60.945Z" transform="translate(-54.054 -49.014)" fill="#ed7c69"/>
          <path id="Path_30518" data-name="Path 30518" d="M141.115,53.254c-10.123,1.38-2.991,16.335,5.292,20.707,5.062,2.531,7.132-2.3,7.132-9.433S153.079,51.644,141.115,53.254Z" transform="translate(-38.969 -43.854)" fill="#ed7c69"/>
          <path id="Path_30519" data-name="Path 30519" d="M148.66,65.16a8.158,8.158,0,0,1-3.221,5.752,3.067,3.067,0,0,1-4.832-2.761l.46-6.9a3.014,3.014,0,0,1,5.062-2.071A8.355,8.355,0,0,1,148.66,65.16Z" transform="translate(-33.17 -36.893)" fill="#ffaf84"/>
          <path id="Path_30520" data-name="Path 30520" d="M149.226,70.9a13.681,13.681,0,0,1-9.2,3.681A9.2,9.2,0,0,1,132.2,70.9Z" transform="translate(-44.089 -20.546)" fill="#ffaf84"/>
        </g>
      </g>
      <g id="Group_2644" data-name="Group 2644" transform="translate(292.069)">
        <g id="Group_2641" data-name="Group 2641" transform="translate(123.106)">
          <path id="Path_30521" data-name="Path 30521" d="M254.714,48.757a12.672,12.672,0,0,0-12.654-10.814,5.066,5.066,0,0,0-1.841.23A12.634,12.634,0,0,0,228.024,29.2a13.153,13.153,0,0,0-11.044,6.212,13.3,13.3,0,0,0-7.362-2.3,13.046,13.046,0,0,0-12.654,10.584,12.783,12.783,0,0,0,.92,25.539h56.139a10.255,10.255,0,0,0,.69-20.477Z" transform="translate(-174.416 -24.598)" fill="#fafeff"/>
          <path id="Path_30522" data-name="Path 30522" d="M216.522,56.027V48.895l-2.761-.23a14.7,14.7,0,0,0-1.841-4.371l1.841-2.071L208.7,37.161,206.629,39a14.7,14.7,0,0,0-4.371-1.841l-.23-2.761h-7.132l-.23,2.761A14.7,14.7,0,0,0,190.293,39l-2.071-1.841-5.062,5.062L185,44.293a14.7,14.7,0,0,0-1.841,4.371l-2.761.23v7.132l2.761.23A14.7,14.7,0,0,0,185,60.629L183.161,62.7l5.062,5.062,2.071-1.841a14.7,14.7,0,0,0,4.371,1.841l.23,2.761h7.132l.23-2.761a14.7,14.7,0,0,0,4.371-1.841l2.071,1.841,5.062-5.062-1.841-2.071a14.7,14.7,0,0,0,1.841-4.371Zm-16.566,2.531a5.752,5.752,0,0,1-3.221,0,6.021,6.021,0,0,1-4.371-4.371,3.411,3.411,0,0,1-.23-1.611,3.411,3.411,0,0,1,.23-1.611,6.021,6.021,0,0,1,4.371-4.371,3.411,3.411,0,0,1,1.611-.23,3.915,3.915,0,0,1,1.611.23,6.02,6.02,0,0,1,4.371,4.371,3.915,3.915,0,0,1,.23,1.611,3.915,3.915,0,0,1-.23,1.611A6.013,6.013,0,0,1,199.957,58.558Z" transform="translate(-180.4 -17.834)" fill="#ed7c69"/>
          <path id="Path_30523" data-name="Path 30523" d="M208,34.793l-1.38-3.451-1.38.46a7,7,0,0,0-1.841-1.841l.46-1.38L200.4,27.2l-.69,1.38a4.726,4.726,0,0,0-2.531,0l-.69-1.38-3.451,1.38.46,1.38a7,7,0,0,0-1.841,1.841l-1.38-.46-1.38,3.451,1.38.69a4.726,4.726,0,0,0,0,2.531l-1.38.69,1.38,3.451,1.38-.46a7,7,0,0,0,1.841,1.841l-.46,1.38,3.451,1.38.69-1.38a4.726,4.726,0,0,0,2.531,0l.69,1.38,3.451-1.38-.46-1.38a7,7,0,0,0,1.841-1.841l1.38.46L208,38.7l-1.38-.69a4.726,4.726,0,0,0,0-2.531ZM200.4,39.164c-.23.23-.46.23-.69.46-.23,0-.46.23-.92.23a3.155,3.155,0,0,1-2.991-1.38c-.23-.23-.23-.46-.46-.69,0-.23-.23-.46-.23-.92a3.155,3.155,0,0,1,1.38-2.991c.23-.23.46-.23.69-.46.23,0,.46-.23.92-.23a3.155,3.155,0,0,1,2.991,1.38c.23.23.23.46.46.69,0,.23.23.46.23.92A3.71,3.71,0,0,1,200.4,39.164Z" transform="translate(-169.343 -27.2)" fill="#91adc9"/>
        </g>
        <g id="Group_2643" data-name="Group 2643" transform="translate(0 9.429)">
          <path id="Path_30524" data-name="Path 30524" d="M156.376,39.7c-4.832,6.672,7.593,20.477,1.15,24.618-8.743,5.982,7.132,13.344,18.636,10.814,14.725-3.451,3.221-32.9-2.531-38.653C168.11,30.727,160.748,33.488,156.376,39.7Z" transform="translate(-90.33 -28.653)" fill="#352b2a"/>
          <path id="Path_30525" data-name="Path 30525" d="M173.462,72.1c-3.451,5.522-4.141,6.442-4.141,6.672a4.276,4.276,0,0,1-3.451,2.071,3.711,3.711,0,0,1-2.071-.69,4.094,4.094,0,0,1-1.38-5.522s.46-.92,4.141-6.672c1.38-2.3,1.841-6.9,1.611-10.814a26.442,26.442,0,0,0-.46-4.832,4.067,4.067,0,1,1,8.053-1.15c0,.46.23,1.841.46,3.681C176.683,59.448,176.683,67.271,173.462,72.1Z" transform="translate(-81.417 -9.978)" fill="#ffaf84"/>
          <path id="Path_30526" data-name="Path 30526" d="M192.36,237.02l-4.832,1.15c-4.371-21.167-16.335-57.059-18.866-75.005-1.15-7.362-3.911-19.327-4.371-31.521v-1.38c-.69-17.486-.69-34.051-.69-35.432,0-3.681,5.292-7.132,8.973-7.132a6.878,6.878,0,0,1,6.9,6.672c0,.23,0,17.256.69,34.742v1.15c.46,11.964.46,23.928,2.071,30.83C186.608,182.262,190.289,212.4,192.36,237.02Z" transform="translate(-79.147 42.068)" fill="#ffaf84"/>
          <path id="Path_30527" data-name="Path 30527" d="M175.834,237.159l-5.522.23c0-.46-8.743-56.369-11.5-74.085-1.15-6.9-2.071-18.636-2.761-30.6v-.92c-1.15-17.946-1.841-35.662-1.841-37.042a6.881,6.881,0,0,1,6.442-7.132c3.681-.23,8.973,2.3,8.973,6.212,0,.23.46,18.866,1.611,36.812v1.841c.69,11.5-.46,21.857.92,28.53C176.755,182.17,175.6,198.045,175.834,237.159Z" transform="translate(-91.382 41.929)" fill="#ffaf84"/>
          <path id="Path_30528" data-name="Path 30528" d="M137.384,109.361a3.943,3.943,0,0,1-3.681-2.531c-.92-2.071,1.841-2.3,3.911-3.221.23,0,14.725-8.743,25.769-15.645,2.991-1.841,14.495-18.636,23.7-32.9a3.988,3.988,0,1,1,6.672,4.371c-4.6,7.362-20.247,31.751-26,35.432-11.5,7.362-28.069,14.265-28.76,14.495A3.759,3.759,0,0,0,137.384,109.361Z" transform="translate(-118.274 -2.831)" fill="#ffaf84"/>
          <path id="Path_30529" data-name="Path 30529" d="M172.927,54.746a21.931,21.931,0,0,1-8.053,2.3,26.441,26.441,0,0,0-.46-4.832,4.067,4.067,0,1,1,8.053-1.15A10.726,10.726,0,0,1,172.927,54.746Z" transform="translate(-78.121 -10.108)" fill="#ed8c62"/>
          <path id="Path_30530" data-name="Path 30530" d="M156.5,53.207c1.611,10.584,7.132,21.857,16.105,21.627,13.114-.23,23.468-10.123,23.468-21.627A20.621,20.621,0,0,0,175.37,32.5C164.1,32.5,154.893,41.933,156.5,53.207Z" transform="translate(-88.617 -29.735)" fill="#ffaf84"/>
          <path id="Path_30531" data-name="Path 30531" d="M169.622,94.02c0,.23.46,18.866,1.611,36.812l-15.185,1.15c-1.15-17.946-1.841-35.662-1.841-37.042a6.881,6.881,0,0,1,6.442-7.132C164.33,87.578,169.392,90.109,169.622,94.02Z" transform="translate(-91.382 42.189)" fill="#ed8c62"/>
          <path id="Path_30532" data-name="Path 30532" d="M179.966,129.214l-15.875,1.15c-.69-17.486-.69-34.051-.69-35.432,0-3.681,5.292-7.132,8.973-7.132a6.878,6.878,0,0,1,6.9,6.672C179.275,94.932,179.505,111.728,179.966,129.214Z" transform="translate(-79.408 42.198)" fill="#ed8c62"/>
          <path id="Path_30533" data-name="Path 30533" d="M200.566,58.422c0,.69-.23,1.15-.23,1.841-1.611,9.2-3.911,19.557-5.752,29.91-.23,1.841-.69,3.911-.92,5.752-1.15,8.283-1.841,16.336-1.15,23.7,8.283,26.689,1.15,51.767,1.15,51.767L155.931,173c-1.841-8.053-2.531-53.378-2.531-53.378s1.38-22.548,3.681-41.874A9.883,9.883,0,0,1,155.471,72a10.763,10.763,0,0,1,2.071-6.442,9.908,9.908,0,0,0,2.071-5.062c.23-1.611.69-2.991.92-4.141A4.434,4.434,0,0,1,164.9,52.9h31.06A4.831,4.831,0,0,1,200.566,58.422Z" transform="translate(-92.415 -3.199)" fill="#549ffc"/>
          <path id="Path_30534" data-name="Path 30534" d="M177.312,57.271c-1.611,9.2-3.911,19.557-5.752,29.91-.46-12.194-.46-24.618-.46-30.6a2.918,2.918,0,0,1,.23-1.38H173.4A4.52,4.52,0,0,1,177.312,57.271Z" transform="translate(-69.392 -0.208)" fill="#408adb"/>
          <g id="Group_2642" data-name="Group 2642" transform="translate(94.346 56.833)">
            <path id="Path_30535" data-name="Path 30535" d="M169.741,134.588l-1.15-.23c0-.23,7.362-26-.69-52.228l1.15-.23C177.333,108.129,169.971,134.358,169.741,134.588Z" transform="translate(-167.9 -22.31)" fill="#70b2f9"/>
            <path id="Path_30536" data-name="Path 30536" d="M168.1,95.3c-.46-6.672,0-14.265,1.38-23.7l1.15.23c-1.38,9.2-1.841,17.026-1.15,23.468Z" transform="translate(-167.867 -35.708)" fill="#70b2f9"/>
            <path id="Path_30537" data-name="Path 30537" d="M169.65,75.082l-1.15-.23c.23-1.841.69-3.911.92-5.752l1.15.23A42.945,42.945,0,0,0,169.65,75.082Z" transform="translate(-167.12 -38.96)" fill="#70b2f9"/>
            <path id="Path_30538" data-name="Path 30538" d="M170.05,86.14l-1.15-.23c.92-6.212,2.3-12.194,3.451-18.176.92-4.141,1.611-8.053,2.3-11.734l1.15.23c-.69,3.681-1.38,7.593-2.3,11.734C172.351,73.946,170.971,80.158,170.05,86.14Z" transform="translate(-166.599 -56)" fill="#70b2f9"/>
          </g>
          <path id="Path_30539" data-name="Path 30539" d="M222.872,56.266c-.69-2.071-5.522.69-7.593,1.15-2.761.69-5.982-.92-7.132-1.611-.23-.23-.46-.23-.69-.46h-.23c-.23,0-.23-.23-.46-.23h-1.611c-.23,0-.46,0-.46.23h-.23a.8.8,0,0,0-.46.23l-.23.23c-.23,0-.23.23-.46.23l-.23.23-.23.23h0a.225.225,0,0,1-.23.23c0,.23-.23.23-.23.46h0a265.164,265.164,0,0,1-16.336,30.6c-2.071-7.132-4.832-19.557-7.362-31.521a4.106,4.106,0,1,0-8.053,1.611c1.611,8.053,7.362,35.2,10.354,40.033a4.745,4.745,0,0,0,3.911,2.3h.46c4.6,0,7.132-7.132,20.017-37.273a25.841,25.841,0,0,0,7.362,1.15,20.137,20.137,0,0,0,3.681-.46C218.961,63.168,223.563,58.336,222.872,56.266Z" transform="translate(-70.087 -3.114)" fill="#ffaf84"/>
          <path id="Path_30540" data-name="Path 30540" d="M139.332,82.857a38.6,38.6,0,0,1-6.672-.69c-2.071-.46-6.9-1.611-5.522-3.221,1.611-2.071,4.141-4.371,6.9-4.6,6.442-.92,7.593.92,10.584,1.38s5.292-.69,5.982,1.38-1.38,3.911-3.451,4.832A36.3,36.3,0,0,1,139.332,82.857Z" transform="translate(-126.894 24.363)" fill="#ffaf84"/>
          <path id="Path_30541" data-name="Path 30541" d="M166.189,39.7c-4.832,6.672,7.593,20.477,1.15,24.618-8.743,5.982,5.292,14.265,17.716,7.823,14.265-7.362,4.371-29.91-1.38-35.662S170.561,33.488,166.189,39.7Z" transform="translate(-77.825 -28.653)" fill="#514443"/>
          <path id="Path_30542" data-name="Path 30542" d="M186.075,40.735c-8.283,4.371-24.388,9.2-29.45,3.451-2.531-2.761,3.221-13.114,18.636-12.884S193.438,36.824,186.075,40.735Z" transform="translate(-88.968 -31.298)" fill="#514443"/>
          <path id="Path_30543" data-name="Path 30543" d="M181.547,53c-5.062,3.911-10.123,6.442-14.265,6.442-3.911,0-5.982-2.531-5.982-6.442Z" transform="translate(-82.139 -3.069)" fill="#ffaf84"/>
          <rect id="Rectangle_865" data-name="Rectangle 865" width="1.15" height="20.707" transform="translate(71.257 73.317) rotate(-85.961)" fill="#438cdd"/>
          <path id="Path_30544" data-name="Path 30544" d="M158.2,65.05V63.9l17.486.23v1.15Z" transform="translate(-86.172 11.109)" fill="#438cdd"/>
          <path id="Path_30545" data-name="Path 30545" d="M181.991,152.194c-.46,0-.69.23-1.15.46-2.071,1.611-8.283,4.832-11.5,5.292-3.451.46-3.681,2.3,1.15,2.3s7.593-.23,9.663-.23,1.611.23,8.973.23c4.141,0,1.38-5.062,0-7.593a2.187,2.187,0,0,0-2.3-.92Z" transform="translate(-74.99 125.283)" fill="#ed7c69"/>
          <path id="Path_30546" data-name="Path 30546" d="M169.691,152.194c-.46,0-.69.23-1.15.46-2.071,1.611-8.283,4.832-11.5,5.292-3.451.46-3.681,2.3,1.15,2.3s7.593-.23,9.663-.23,1.611.23,8.973.23c4.141,0,1.38-5.062,0-7.593a2.187,2.187,0,0,0-2.3-.92Z" transform="translate(-90.99 125.283)" fill="#ed7c69"/>
        </g>
      </g>
      <g id="Group_2651" data-name="Group 2651" transform="translate(103.88 104.754)">
        <g id="Group_2645" data-name="Group 2645" transform="translate(0 54.92)">
          <path id="Path_30547" data-name="Path 30547" d="M50.392,107.184H366.518a5.207,5.207,0,0,0,5.292-5.292h0a5.207,5.207,0,0,0-5.292-5.292H50.392a5.207,5.207,0,0,0-5.292,5.292h0A5.207,5.207,0,0,0,50.392,107.184Z" transform="translate(-45.1 -96.6)" fill="#bfd6e8"/>
          <path id="Path_30548" data-name="Path 30548" d="M151.892,107.184h82.6a5.207,5.207,0,0,0,5.292-5.292h0A5.207,5.207,0,0,0,234.49,96.6h-82.6a5.207,5.207,0,0,0-5.292,5.292h0A5.207,5.207,0,0,0,151.892,107.184Z" transform="translate(86.929 -96.6)" fill="#fff"/>
          <path id="Path_30549" data-name="Path 30549" d="M179.2,101.2V220.38a5.207,5.207,0,0,0,5.292,5.292h0a5.207,5.207,0,0,0,5.292-5.292V101.2Z" transform="translate(129.334 -90.616)" fill="#fff"/>
          <path id="Path_30550" data-name="Path 30550" d="M149.9,101.2V220.38a5.513,5.513,0,0,0,5.292,5.292,5.207,5.207,0,0,0,5.292-5.292V101.2Z" transform="translate(91.221 -90.616)" fill="#fff"/>
          <path id="Path_30551" data-name="Path 30551" d="M149.9,101.2V220.38a5.513,5.513,0,0,0,5.292,5.292V101.2H149.9Z" transform="translate(91.221 -90.616)" fill="#bfd6e8"/>
          <path id="Path_30552" data-name="Path 30552" d="M48.3,101.2V220.38a5.513,5.513,0,0,0,5.292,5.292,5.207,5.207,0,0,0,5.292-5.292V101.2Z" transform="translate(-40.938 -90.616)" fill="#fff"/>
          <path id="Path_30553" data-name="Path 30553" d="M77.7,101.2V220.38a5.207,5.207,0,0,0,5.292,5.292h0a5.207,5.207,0,0,0,5.292-5.292V101.2Z" transform="translate(-2.695 -90.616)" fill="#bfd6e8"/>
          <path id="Path_30554" data-name="Path 30554" d="M48.3,101.2V220.38a5.513,5.513,0,0,0,5.292,5.292V101.2H48.3Z" transform="translate(-40.938 -90.616)" fill="#bfd6e8"/>
          <path id="Path_30555" data-name="Path 30555" d="M189.784,101.2v3.451L179.2,112.014V101.2Z" transform="translate(129.334 -90.616)" fill="#bfd6e8"/>
          <path id="Path_30556" data-name="Path 30556" d="M149.9,101.2h10.354v3.451L149.9,112.014Z" transform="translate(91.221 -90.616)" fill="#bfd6e8"/>
          <path id="Path_30557" data-name="Path 30557" d="M77.7,101.2H88.053v3.451L77.7,112.014Z" transform="translate(-2.695 -90.616)" fill="#a5bbce"/>
          <path id="Path_30558" data-name="Path 30558" d="M58.884,101.2v3.451L48.3,112.014V101.2Z" transform="translate(-40.938 -90.616)" fill="#bfd6e8"/>
        </g>
        <g id="Group_2648" data-name="Group 2648" transform="translate(83.827 8.444)">
          <g id="Group_2646" data-name="Group 2646">
            <path id="Path_30559" data-name="Path 30559" d="M151.393,119.144H97.555L82.6,77.5h53.838" transform="translate(-80.148 -74.969)" fill="#4691b7"/>
            <path id="Path_30560" data-name="Path 30560" d="M152.779,122.876H98.941a2.77,2.77,0,0,1-2.3-1.611L81.685,79.621a2.723,2.723,0,0,1,.23-2.3,2.243,2.243,0,0,1,2.071-.92h53.838a2.3,2.3,0,0,1,0,4.6H87.207l13.345,36.812h52.228a2.306,2.306,0,0,1,2.3,2.3A2.229,2.229,0,0,1,152.779,122.876Z" transform="translate(-81.534 -76.4)" fill="#4691b7"/>
          </g>
          <path id="Path_30561" data-name="Path 30561" d="M157.539,122.7h-35.2a2.77,2.77,0,0,1-2.3-1.611L105.081,79.672a2.329,2.329,0,0,1,4.371-1.611L123.948,118.1h33.361a2.306,2.306,0,0,1,2.3,2.3A1.9,1.9,0,0,1,157.539,122.7Z" transform="translate(-51.092 -76.221)" fill="#79b1d3"/>
          <g id="Group_2647" data-name="Group 2647" transform="translate(22.469 15.3)">
            <path id="Path_30562" data-name="Path 30562" d="M104.914,93.572c-2.531,1.15-6.212.46-9.433-1.841A14.662,14.662,0,0,1,91.8,87.82l3.681-.92a6.585,6.585,0,0,0,5.062,3.221,2.918,2.918,0,0,0,1.38-.23Z" transform="translate(-90.65 -78.042)" fill="#b1ecf2"/>
            <path id="Path_30563" data-name="Path 30563" d="M107.635,96.74h0l-3.911-2.761a3.3,3.3,0,0,0,.23-2.991,6.446,6.446,0,0,0-5.522-4.141,2.577,2.577,0,0,0-2.761,2.3L91.3,87.536a3.212,3.212,0,0,1,.69-2.071c2.071-3.221,7.132-3.221,11.5,0C107.866,88.457,109.706,93.749,107.635,96.74Z" transform="translate(-91.3 -83.05)" fill="#fff"/>
          </g>
        </g>
        <g id="Group_2650" data-name="Group 2650" transform="translate(36.453)">
          <path id="Path_30564" data-name="Path 30564" d="M69.126,75.818c-3.221-.92-4.6,1.38-4.371,3.221.46,2.531,1.841,2.991-1.611,5.062-2.531,1.611-3.221,5.062-.23,6.9,4.141,2.3-.23,4.371-1.15,6.212-1.841,4.141,1.15,5.292,6.442,7.362s9.2,1.15,12.884-2.3c2.761-2.531,4.371-5.292,2.761-7.823-2.3-3.681-6.212-1.15-4.6-4.6.92-2.071.92-5.982-3.911-6.442C70.276,83.181,73.727,77.2,69.126,75.818Z" transform="translate(-60.944 -68.985)" fill="#5fd6af"/>
          <path id="Path_30565" data-name="Path 30565" d="M69.734,102.919a1.573,1.573,0,0,1-1.611-1.611A55.73,55.73,0,0,0,64.9,84.973a1.6,1.6,0,0,1,2.991-1.15c.23.23,2.991,7.132,3.451,17.256a1.778,1.778,0,0,1-1.611,1.841Z" transform="translate(-56.03 -59.733)" fill="#5fd6af"/>
          <g id="Group_2649" data-name="Group 2649" transform="translate(6.631)">
            <path id="Path_30566" data-name="Path 30566" d="M84.933,72.891c4.141-.92,5.522,2.3,4.832,4.371-.92,3.221-2.531,3.221,1.38,6.442,2.991,2.3,3.221,6.672-.46,8.283-5.292,2.531-.23,5.292.69,7.823,1.841,5.522-2.071,6.212-8.743,8.283s-11.5.23-15.415-4.371c-2.991-3.451-4.6-6.9-2.3-9.893,3.221-4.141,7.593-.69,6.212-5.292-.92-2.761-.46-7.593,5.522-7.362C82.4,81.634,78.951,74.042,84.933,72.891Z" transform="translate(-63.826 -72.73)" fill="#8eedcf"/>
            <path id="Path_30567" data-name="Path 30567" d="M69.266,105.43h-.23a1.9,1.9,0,0,1-1.611-2.3c1.841-12.424,6.212-20.477,6.442-20.707a2.058,2.058,0,1,1,3.681,1.841,68.326,68.326,0,0,0-5.982,19.557A2.77,2.77,0,0,1,69.266,105.43Z" transform="translate(-59.202 -61.554)" fill="#8eedcf"/>
          </g>
          <path id="Path_30568" data-name="Path 30568" d="M75.067,88.43c4.371,6.212,5.752,10.584.23,11.044S62.873,86.129,67.014,83.368C69.775,81.527,73,85.439,75.067,88.43Z" transform="translate(-54.691 -59.508)" fill="#5fd6af"/>
          <path id="Path_30569" data-name="Path 30569" d="M81.046,107.787H68.852a2.993,2.993,0,0,1-2.991-2.531L63.1,88.69a.61.61,0,0,1,.69-.69H86.568a.61.61,0,0,1,.69.69L84.5,105.256A3.739,3.739,0,0,1,81.046,107.787Z" transform="translate(-58.139 -52.867)" fill="#549ffc"/>
          <path id="Path_30570" data-name="Path 30570" d="M75.91,80.756c-3.911,1.15-7.132,2.761-4.6,3.911s11.044-2.531,9.893-3.911C80.511,79.606,77.75,80.3,75.91,80.756Z" transform="translate(-48.631 -63.108)" fill="#5fd6af"/>
          <path id="Path_30571" data-name="Path 30571" d="M74.766,76.939c-.92,2.531-1.841,3.681-2.991,2.3s1.15-5.982,2.761-5.522C75.687,74.178,75.227,75.789,74.766,76.939Z" transform="translate(-47.258 -71.486)" fill="#5fd6af"/>
          <path id="Path_30572" data-name="Path 30572" d="M65.745,78.546c.92,2.3,1.15,3.911-.69,3.681s-2.991-5.292-1.611-5.982C64.595,75.785,65.285,77.4,65.745,78.546Z" transform="translate(-58.483 -68.261)" fill="#8eedcf"/>
          <path id="Path_30573" data-name="Path 30573" d="M63.139,83.945c-1.611-1.38-2.3-2.531-.92-3.221,1.611-.46,4.6,2.991,3.451,3.911C65.209,85.555,63.829,84.635,63.139,83.945Z" transform="translate(-60.249 -62.386)" fill="#8eedcf"/>
          <path id="Path_30574" data-name="Path 30574" d="M71.14,80.263c1.611-.46,2.531-.46,2.3.69s-3.451,1.841-3.681.69C69.3,80.953,70.45,80.493,71.14,80.263Z" transform="translate(-49.614 -63.305)" fill="#5fd6af"/>
        </g>
      </g>
      <g id="Group_2656" data-name="Group 2656" transform="translate(0 1.669)">
        <path id="Path_30575" data-name="Path 30575" d="M23.792,169.062h77.766a3.634,3.634,0,0,0,3.681-3.681h0a3.634,3.634,0,0,0-3.681-3.681H23.792a3.634,3.634,0,0,0-3.681,3.681h0A3.5,3.5,0,0,0,23.792,169.062Z" transform="translate(26.25 146.085)" fill="#bae5e5"/>
        <g id="Group_2654" data-name="Group 2654" transform="translate(18.359)">
          <g id="Group_2652" data-name="Group 2652" transform="translate(41.892 278.796)">
            <path id="Path_30576" data-name="Path 30576" d="M28,169.347l2.3-18.866,8.973-1.38L34.9,168.887Z" transform="translate(-23.714 -149.1)" fill="#d6ddea"/>
            <path id="Path_30577" data-name="Path 30577" d="M39.166,157.25a2.485,2.485,0,0,1,1.611.69c2.991,2.531,6.672,5.982,10.814,7.823,4.832,1.841,5.292,3.221-1.841,3.221-6.672,0-8.513-.46-10.123-.46-2.3,0-2.3.46-9.433.46-5.982,0-4.141-7.593-2.071-11.274a3,3,0,0,1,2.761-1.611Z" transform="translate(-26.137 -139.995)" fill="#3a809b"/>
          </g>
          <g id="Group_2653" data-name="Group 2653" transform="translate(65.82 278.796)">
            <path id="Path_30578" data-name="Path 30578" d="M38.4,169.347l2.3-18.866,8.973-1.38L45.3,168.887Z" transform="translate(-34.114 -149.1)" fill="#d6ddea"/>
            <path id="Path_30579" data-name="Path 30579" d="M49.566,157.25a2.485,2.485,0,0,1,1.611.69c2.991,2.531,12.194,7.132,17.026,7.823,5.062.69,5.292,3.221-1.841,3.221s-12.424-.69-15.645-.46c-3.221,0-2.3.46-10.123.46-5.982,0-4.141-7.593-2.071-11.274a3,3,0,0,1,2.761-1.611Z" transform="translate(-36.537 -139.995)" fill="#4691b7"/>
          </g>
          <path id="Path_30580" data-name="Path 30580" d="M59.859,55.071S52.5,90.042,51.116,96.485a5.89,5.89,0,0,1-4.6,4.832c-.46,0-.92.23-1.611.23h-.23c-2.531-.23-6.442-4.141-14.495-16.105-1.611-2.3-3.451-5.292-5.522-8.283-1.841.69-6.212,2.3-8.513,2.3-2.991,0-6.672-2.761-8.053-5.752-1.38-2.531,6.442-1.15,9.433-1.15,1.38,0,3.911-2.3,5.292-2.991h.23a.8.8,0,0,0,.46-.23c.23,0,.23,0,.46-.23a.845.845,0,0,0,.69-.23h2.531c.23,0,.46.23.69.23h.23c.23,0,.46.23.69.46l.23.23c.23.23.46.23.46.46l.23.23.23.23c2.071,2.761,4.141,5.752,6.442,8.513s4.371,5.522,6.212,7.593C44.9,74.4,49.505,53,49.505,53Z" transform="translate(-7.93 4.691)" fill="#ffaf84"/>
          <path id="Path_30581" data-name="Path 30581" d="M47.28,55.071s-7.362,34.972-8.743,41.414a5.89,5.89,0,0,1-4.6,4.832c-.46,0-.92.23-1.611.23h-.23c-2.531-.23-6.442-4.141-14.495-16.105l5.982-5.982c2.3,2.761,4.371,5.522,6.212,7.593C32.325,74.4,36.927,53,36.927,53Z" transform="translate(4.649 4.691)" fill="#ed8c62"/>
          <path id="Path_30582" data-name="Path 30582" d="M49.341,55.131s-7.362,35.662-8.743,42.1a8.114,8.114,0,0,1-2.991,4.6,8.172,8.172,0,0,1-2.071.92,5.066,5.066,0,0,1-1.841.23c-4.141,0-8.283-3.681-16.8-14.495l9.893-7.823c1.38,1.841,2.761,3.221,3.681,4.6,2.761-12.654,6.9-32.671,6.9-32.671l1.38.23Z" transform="translate(3.739 4.171)" fill="#ed7c69"/>
          <path id="Path_30583" data-name="Path 30583" d="M80.851,82.083a6.78,6.78,0,0,1-3.681,4.6,12.474,12.474,0,0,1-5.752,1.38c-11.044,0-23.468-12.424-27.609-16.8a5.371,5.371,0,1,1,7.823-7.362c5.982,6.442,13.344,11.5,17.716,13.114,0-.23-.23-.46-.46-.69-1.841-3.911-4.6-11.044-8.053-17.716A48.812,48.812,0,0,0,56,50.332S49.56,56.544,43.808,54.7s-3.451-2.761-3.451-5.062a5.207,5.207,0,0,1,5.292-5.292c.92,0,2.071-.23,3.681-.23l6.442-.92h1.38a.845.845,0,0,1,.69.23h.23c.23,0,.46.23.69.23s.23,0,.46.23a.8.8,0,0,1,.46.23c.23,0,.23.23.46.23a.8.8,0,0,0,.46.23l.46.46.23.23c2.3,3.221,4.6,5.982,6.672,8.973,1.38,2.071,2.761,3.911,3.911,5.752a15.476,15.476,0,0,1,1.611,2.531c0,.23.23.23.23.46a42.738,42.738,0,0,1,2.531,4.371c.46.69.69,1.38,1.15,2.071.69,1.38,1.38,2.761,1.841,3.911a27.9,27.9,0,0,1,1.15,3.221v.23a2.5,2.5,0,0,1,.23,1.15h0c0,.46.23.69.23,1.15A6.482,6.482,0,0,1,80.851,82.083Z" transform="translate(33.66 -8.057)" fill="#ffaf84"/>
          <path id="Path_30584" data-name="Path 30584" d="M79.458,75.969a6.78,6.78,0,0,1-3.681,4.6,12.473,12.473,0,0,1-5.752,1.38c-11.044,0-23.468-12.424-27.609-16.8a5.371,5.371,0,1,1,7.823-7.362c5.982,6.442,13.344,11.5,17.716,13.114,0-.23-.23-.46-.46-.69-1.841-3.911-4.6-11.044-8.053-17.716l6.672-4.6c1.38,2.071,2.761,3.911,3.911,5.752a15.478,15.478,0,0,1,1.611,2.531c0,.23.23.23.23.46A42.736,42.736,0,0,1,74.4,61.014c.46.69.69,1.38,1.15,2.071.69,1.38,1.38,2.761,1.841,3.911a27.9,27.9,0,0,1,1.15,3.221v.23a2.5,2.5,0,0,1,.23,1.15h0c0,.46.23.69.23,1.15A4.349,4.349,0,0,1,79.458,75.969Z" transform="translate(35.052 -1.943)" fill="#ed8c62"/>
          <path id="Path_30585" data-name="Path 30585" d="M48.147,78.465a5.282,5.282,0,0,1-3.221.92A7.11,7.11,0,0,1,39.4,76.394s-.69-1.15-3.911-6.212C32.272,64.89,32.042,57.068,32.5,52.236v-1.38a12.388,12.388,0,0,0,.23-2.531,6.28,6.28,0,1,1,12.424,1.841,48.581,48.581,0,0,0-.46,5.982v2.071c.23,2.3.46,4.371,1.15,5.522,3.681,5.752,4.141,6.672,4.141,6.672C52.058,72.713,51.138,76.624,48.147,78.465Z" transform="translate(23.799 -8.35)" fill="#ffaf84"/>
          <path id="Path_30586" data-name="Path 30586" d="M31.656,117.82S26.134,107.7,29.815,88.6H74.681a266.157,266.157,0,0,1-.46,29.22Z" transform="translate(18.893 50.999)" fill="#293549"/>
          <path id="Path_30587" data-name="Path 30587" d="M40.768,95.8h0c-5.062,0-9.433,1.15-9.663,5.982,0,.46,3.681,49.237-.69,67.183-4.832,20.017-2.071,60.74-2.071,61.431l10.353,1.15c0-.46,7.132-45.1,8.513-62.121,1.611-18.636,5.522-61.891,5.522-63.731C52.962,100.632,45.83,95.8,40.768,95.8Z" transform="translate(17.603 60.364)" fill="#293549"/>
          <path id="Path_30588" data-name="Path 30588" d="M62.578,106.009a8.708,8.708,0,0,0-8.743-9.2c-5.062-.23-12.424,3.681-12.654,8.743,0,1.611,3.681,43.715,4.141,56.139-3.221,13.344-4.6,52.918-7.823,68.1l11.964,2.071c.46-2.3,12.654-50.617,12.194-71.554C61.428,143.511,62.578,106.469,62.578,106.009Z" transform="translate(30.535 61.66)" fill="#293549"/>
          <path id="Path_30589" data-name="Path 30589" d="M45.284,49.835a48.582,48.582,0,0,0-.46,5.982v.92A27.245,27.245,0,0,1,32.4,50.756a12.388,12.388,0,0,0,.23-2.531,6.263,6.263,0,0,1,7.132-5.292A5.948,5.948,0,0,1,45.284,49.835Z" transform="translate(23.901 -8.48)" fill="#ed8c62"/>
          <path id="Path_30590" data-name="Path 30590" d="M65.433,49.536c0,11.044-4.832,21.4-17.716,21.4a20.017,20.017,0,0,1,0-40.034C58.76,30.9,65.433,38.493,65.433,49.536Z" transform="translate(17.787 -24.056)" fill="#ffaf84"/>
          <path id="Path_30591" data-name="Path 30591" d="M37.634,54.871s-7.362,35.662-8.743,42.1a8.114,8.114,0,0,1-2.991,4.6c.92-17.946,1.15-37.733.92-48.776Z" transform="translate(15.446 4.431)" fill="#db7061"/>
          <path id="Path_30592" data-name="Path 30592" d="M25.636,56.27c3.221,17.946,9.2,62.811,7.823,80.987H78.324s-2.761-66.722-6.9-82.828a4.487,4.487,0,0,0-4.371-3.221H30.008A4.217,4.217,0,0,0,25.636,56.27Z" transform="translate(15.019 2.341)" fill="#ed7c69"/>
          <path id="Path_30593" data-name="Path 30593" d="M53.76,32.005c4.141,1.15,4.6,6.442,4.832,11.274.92,8.513-8.283,23.468-17.486,22.087C31.9,63.756,25,55.7,25,44.2c0-7.823,6.672-11.5,13.114-12.424C42.026,31.085,49.388,30.625,53.76,32.005Z" transform="translate(14.275 -23.781)" fill="#549ffc"/>
          <path id="Path_30594" data-name="Path 30594" d="M69.93,82.221c-11.5,0-24.388-12.654-28.53-16.8l9.2-8.513A63.727,63.727,0,0,0,65.558,68.647c-1.611-2.761-4.141-7.132-8.283-13.114L67.629,48.4C78.442,64.505,81.664,71.178,80.053,76.469a7.754,7.754,0,0,1-4.6,5.062A22.692,22.692,0,0,1,69.93,82.221Z" transform="translate(35.608 -1.293)" fill="#ed7c69"/>
          <path id="Path_30595" data-name="Path 30595" d="M36.3,43.156a6.879,6.879,0,0,0,2.531,5.292A2.667,2.667,0,0,0,43.2,46.377V40.165c0-2.3-2.761-3.681-4.371-2.071A6.11,6.11,0,0,0,36.3,43.156Z" transform="translate(28.974 -15.605)" fill="#ffaf84"/>
          <path id="Path_30596" data-name="Path 30596" d="M55.942,28.327c-14.495-1.611-24.618,1.841-28.069,6.442-2.991,3.911-.69,7.823,3.221,9.433a200.942,200.942,0,0,0,25.769,1.15c7.593-.23,11.734-5.062,12.884-7.593C71.127,33.389,66.526,29.478,55.942,28.327Z" transform="translate(16.234 -27.925)" fill="#549ffc"/>
          <rect id="Rectangle_866" data-name="Rectangle 866" width="14.955" height="1.15" transform="translate(47.328 143.05)" fill="#687c99"/>
          <path id="Path_30597" data-name="Path 30597" d="M42.25,243.632l-1.15-.23c0-.46,7.593-29.91,9.2-41.644,1.38-9.663,3.221-27.379,3.221-33.821,0-7.593.69-54.758.69-55.219.23-7.132,0-24.388,0-24.618h1.15c0,.23.23,17.716,0,24.618,0,.46-.69,47.4-.69,55.219,0,6.212-2.071,24.158-3.221,33.821C49.843,213.722,42.25,243.172,42.25,243.632Z" transform="translate(35.217 50.348)" fill="#687c99"/>
        </g>
        <g id="Group_2655" data-name="Group 2655" transform="translate(0 34.051)">
          <path id="Path_30598" data-name="Path 30598" d="M8.949,69.395a12.921,12.921,0,0,1,0-17.946,12.921,12.921,0,0,1,17.946,0,12.921,12.921,0,0,1,0,17.946A12.921,12.921,0,0,1,8.949,69.395ZM22.063,56.28a6.02,6.02,0,1,0,0,8.513A5.721,5.721,0,0,0,22.063,56.28Z" transform="translate(7.042 -36.091)" fill="#c2efd4"/>
          <path id="Path_30599" data-name="Path 30599" d="M14.778,51.64a5.206,5.206,0,0,1,7.362-7.362,5.206,5.206,0,0,1-7.362,7.362Z" transform="translate(17.318 -42.725)" fill="#f4cec9"/>
          <path id="Path_30600" data-name="Path 30600" d="M.985,60.187a3.072,3.072,0,0,1,0-4.6,3.072,3.072,0,0,1,4.6,0,3.072,3.072,0,0,1,0,4.6A3.072,3.072,0,0,1,.985,60.187Z" transform="translate(0.05 -27.343)" fill="#f4cec9"/>
        </g>
      </g>
    </g>
  </g>
</svg>
