<svg xmlns="http://www.w3.org/2000/svg" xmlns:xlink="http://www.w3.org/1999/xlink" width="485.063" height="352.038" viewBox="0 0 485.063 352.038">
  <defs>
    <clipPath id="clip-path">
      <path id="Path_31100" data-name="Path 31100" d="M82.548,263.766s-71.506-29.9-69.835-90.451,68.72-79.493,114.6-42.161c46.061,37.332,90.265,26.374,114.038-5.2S281.094,25.288,347.771,51.847c49.776,19.873,83.021,73.178,93.794,121.282,7.429,33.06-3.343,67.977-29.16,89.708a24.973,24.973,0,0,1-2.6,2.043Z" transform="translate(-12.684 -45.895)"/>
    </clipPath>
  </defs>
  <g id="Group_3052" data-name="Group 3052" transform="translate(0.047 0.05)">
    <g id="Group_3023" data-name="Group 3023" transform="translate(23.387 84.899)">
      <path id="Path_31098" data-name="Path 31098" d="M82.548,263.534s-71.506-29.9-69.835-90.451,68.72-70.02,114.6-32.689c46.061,37.332,90.265,26.374,114.038-5.2S281.094,24.87,347.771,51.615c49.776,19.873,83.021,73.178,93.794,121.282,7.429,33.06-3.343,67.977-29.16,89.708a24.973,24.973,0,0,1-2.6,2.043Z" transform="translate(-12.684 -45.663)" fill="#eaebfb"/>
      <g id="Group_3022" data-name="Group 3022">
        <g id="Group_3021" data-name="Group 3021" clip-path="url(#clip-path)">
          <path id="Path_31099" data-name="Path 31099" d="M89.922,157.048s-15.6,130.2,82.093,59.062c80.236-58.505,194.088-51.819,196.5,88.779,0,0,41.232,1.672,37.518-69.463S369.446,1.777,274.538,20.165C179.444,38.366,89.922,157.048,89.922,157.048Z" transform="translate(52.748 -69.189)" fill="#e1e2f5"/>
        </g>
      </g>
    </g>
    <g id="Group_3029" data-name="Group 3029" transform="translate(137.597 64.106)">
      <g id="Group_3024" data-name="Group 3024">
        <path id="Path_31101" data-name="Path 31101" d="M114.437,34.7l86.736.371A20.023,20.023,0,0,1,221.047,56.43l-14.116,199.66a19.843,19.843,0,0,1-19.687,18.387H99.207A19.721,19.721,0,0,1,79.52,253.3L94.378,53.273A19.943,19.943,0,0,1,114.437,34.7Z" transform="translate(-69.633 -34.7)" fill="#f2f3ff"/>
        <path id="Path_31102" data-name="Path 31102" d="M114.437,34.7l86.736.371A20.023,20.023,0,0,1,221.047,56.43l-14.116,199.66a19.843,19.843,0,0,1-19.687,18.387H99.207A19.721,19.721,0,0,1,79.52,253.3L94.378,53.273A19.943,19.943,0,0,1,114.437,34.7Z" transform="translate(-69.633 -34.7)" fill="#d9ddfb"/>
        <path id="Path_31103" data-name="Path 31103" d="M109.323,34.7l86.736.371A20.023,20.023,0,0,1,215.932,56.43l-14.116,199.66a19.843,19.843,0,0,1-19.687,18.387H93.907A19.721,19.721,0,0,1,74.22,253.3L89.078,53.273A20.244,20.244,0,0,1,109.323,34.7Z" transform="translate(-74.177 -34.7)" fill="#c7cbe8"/>
        <path id="Path_31104" data-name="Path 31104" d="M95.158,44.6h99.18L182.451,234.974l-99.551.743Z" transform="translate(-66.698 -26.213)" fill="#fff"/>
        <path id="Path_31105" data-name="Path 31105" d="M111.844,169.487a9.844,9.844,0,1,1,9.844-9.844A9.909,9.909,0,0,1,111.844,169.487Zm0-18.387a8.544,8.544,0,1,0,8.544,8.544A8.642,8.642,0,0,0,111.844,151.1Z" transform="translate(-50.324 63.976)" fill="#8992c6"/>
        <path id="Path_31106" data-name="Path 31106" d="M129.587,42.343H112.872a1.665,1.665,0,0,1-1.672-1.672h0A1.665,1.665,0,0,1,112.872,39h16.716a1.665,1.665,0,0,1,1.672,1.672h0A1.665,1.665,0,0,1,129.587,42.343Z" transform="translate(-42.436 -31.014)" fill="#8992c6"/>
      </g>
      <g id="Group_3025" data-name="Group 3025" transform="translate(31.246 38.075)">
        <path id="Path_31107" data-name="Path 31107" d="M175.136,84.46H94.715A3.77,3.77,0,0,1,91,80.559l1.114-21.73A3.687,3.687,0,0,1,95.829,55.3H176.25a3.77,3.77,0,0,1,3.715,3.9l-1.114,21.73A3.571,3.571,0,0,1,175.136,84.46Z" transform="translate(-91 -55.114)" fill="#d9ddfb"/>
        <path id="Path_31108" data-name="Path 31108" d="M126.115,84.545H148.4a3.816,3.816,0,0,0,3.715-3.529L153.231,59.1a3.653,3.653,0,0,0-3.715-3.9H127.229a3.816,3.816,0,0,0-3.715,3.529l-1.114,22.1A3.726,3.726,0,0,0,126.115,84.545Z" transform="translate(-64.081 -55.2)" fill="#c7cbe8"/>
        <path id="Path_31109" data-name="Path 31109" d="M141.833,59.814H95.957a.557.557,0,1,1,0-1.114h45.69a.493.493,0,0,1,.557.557C142.39,59.629,142.018,59.814,141.833,59.814Z" transform="translate(-87.228 -52.199)" fill="#8992c6"/>
        <path id="Path_31110" data-name="Path 31110" d="M141.633,63.714H95.757a.557.557,0,1,1,0-1.114h45.69a.492.492,0,0,1,.557.557C142.19,63.529,141.818,63.714,141.633,63.714Z" transform="translate(-87.399 -48.856)" fill="#8992c6"/>
        <path id="Path_31111" data-name="Path 31111" d="M118.216,67.714H95.557a.557.557,0,0,1,0-1.114h22.659a.493.493,0,0,1,.557.557A.593.593,0,0,1,118.216,67.714Z" transform="translate(-87.571 -45.427)" fill="#8992c6"/>
      </g>
      <g id="Group_3026" data-name="Group 3026" transform="translate(28.46 79.307)">
        <path id="Path_31112" data-name="Path 31112" d="M173.636,106.66H93.215a3.77,3.77,0,0,1-3.715-3.9l1.114-21.73A3.687,3.687,0,0,1,94.329,77.5H174.75a3.77,3.77,0,0,1,3.715,3.9l-1.114,21.73A3.687,3.687,0,0,1,173.636,106.66Z" transform="translate(-89.5 -77.314)" fill="#d9ddfb"/>
        <path id="Path_31113" data-name="Path 31113" d="M124.621,106.745h22.288a3.816,3.816,0,0,0,3.715-3.529L151.738,81.3a3.653,3.653,0,0,0-3.715-3.9H125.736a3.816,3.816,0,0,0-3.715,3.529l-1.114,21.916A3.559,3.559,0,0,0,124.621,106.745Z" transform="translate(-62.587 -77.4)" fill="#c7cbe8"/>
        <path id="Path_31114" data-name="Path 31114" d="M140.147,82.014H94.457a.557.557,0,0,1,0-1.114h45.69a.557.557,0,0,1,0,1.114Z" transform="translate(-85.728 -74.399)" fill="#8992c6"/>
        <path id="Path_31115" data-name="Path 31115" d="M139.947,85.914H94.257a.557.557,0,0,1,0-1.114h45.69a.557.557,0,1,1,0,1.114Z" transform="translate(-85.899 -71.056)" fill="#8992c6"/>
        <path id="Path_31116" data-name="Path 31116" d="M116.716,89.914H94.057a.557.557,0,1,1,0-1.114h22.659a.493.493,0,0,1,.557.557A.837.837,0,0,1,116.716,89.914Z" transform="translate(-86.071 -67.627)" fill="#8992c6"/>
      </g>
      <path id="Path_31117" data-name="Path 31117" d="M96.1,44.6,83.843,235.717H81.8L94.244,44.6Z" transform="translate(-67.641 -26.213)" fill="#abb0d3"/>
      <g id="Group_3027" data-name="Group 3027" transform="translate(94.573 44.011)">
        <path id="Path_31118" data-name="Path 31118" d="M143.3,68.061a9.118,9.118,0,1,1-8.544-9.658A8.9,8.9,0,0,1,143.3,68.061Z" transform="translate(-125.096 -58.396)" fill="#fff"/>
        <path id="Path_31119" data-name="Path 31119" d="M130.857,68.194a.682.682,0,0,1-.557-.186l-2.972-2.972a.788.788,0,0,1,1.114-1.114l2.6,2.415,5.758-4.643a.8.8,0,0,1,.929,1.3l-6.315,5.2Z" transform="translate(-123.422 -55.743)" fill="#c7cbe8"/>
      </g>
      <g id="Group_3028" data-name="Group 3028" transform="translate(92.53 85.244)">
        <path id="Path_31120" data-name="Path 31120" d="M142.2,90.261a9.118,9.118,0,1,1-8.544-9.658A9.142,9.142,0,0,1,142.2,90.261Z" transform="translate(-123.996 -80.596)" fill="#fff"/>
        <path id="Path_31121" data-name="Path 31121" d="M129.757,90.394a.682.682,0,0,1-.557-.186l-2.972-2.972a.788.788,0,0,1,1.114-1.114l2.6,2.415,5.758-4.643a.8.8,0,0,1,.929,1.3l-6.315,5.2Z" transform="translate(-122.322 -77.943)" fill="#c7cbe8"/>
      </g>
    </g>
    <g id="Group_3031" data-name="Group 3031" transform="translate(24.853 198.419)">
      <path id="Path_31122" data-name="Path 31122" d="M49.183,141.346s-1.114-1.857-4.272-13.93c-2.972-12.072-10.958-23.773-23.216-19.5s-8.729,18.573-2.786,41.789c4.272,16.53-13.373,29.345,10.029,42.161,14.116,7.8,38.632-2.6,33.8-26.188A31.79,31.79,0,0,0,56.8,152.49,78.745,78.745,0,0,1,49.183,141.346Z" transform="translate(-13.473 -107.016)" fill="#95b9fc"/>
      <g id="Group_3030" data-name="Group 3030" transform="translate(12.973 21.329)">
        <path id="Path_31123" data-name="Path 31123" d="M32.115,204.122c-.186,0-.371-.371-.371-.557,5.572-35.846-9.658-83.764-9.844-84.322a.742.742,0,0,1,.371-.743.742.742,0,0,1,.743.371c.186.557,15.416,48.847,9.844,84.879a.965.965,0,0,1-.743.371Z" transform="translate(-19.223 -118.5)" fill="#648dd6"/>
        <path id="Path_31124" data-name="Path 31124" d="M25.005,135.035h0c-.371-.186-.557-.371-.371-.743a71.3,71.3,0,0,0,3.529-11.887c0-.371.371-.557.557-.371.371,0,.557.371.371.557a63.161,63.161,0,0,1-3.715,12.072C25.377,135.035,25.191,135.035,25.005,135.035Z" transform="translate(-16.942 -115.533)" fill="#648dd6"/>
        <path id="Path_31125" data-name="Path 31125" d="M30.565,138.179a.182.182,0,0,1-.186-.186c-2.786-2.043-9.472-6.129-9.658-6.129-.186-.186-.371-.557-.186-.743s.557-.371.743-.186c.371.186,6.872,4.086,9.658,6.129a1.117,1.117,0,0,1,.186.743C30.936,138.179,30.751,138.179,30.565,138.179Z" transform="translate(-20.459 -107.905)" fill="#648dd6"/>
        <path id="Path_31126" data-name="Path 31126" d="M27.105,144.293h0c-.371-.186-.557-.557-.371-.743l3.529-7.429c.186-.186.371-.371.743-.186.186.186.371.371.186.743l-3.529,7.429C27.662,144.293,27.291,144.293,27.105,144.293Z" transform="translate(-15.141 -103.618)" fill="#648dd6"/>
      </g>
    </g>
    <path id="Path_31127" data-name="Path 31127" d="M93.063,68.488a56,56,0,0,0-3.9-4.086c-2.6-2.229-5.758-6.315-15.6-3.343a11.361,11.361,0,0,0-2.229.929c-.929.371-3.529.371-6.315-1.857C60.56,56.6,58.889,54,52.945,54c-7.058-.186-7.986,8.544-13.558,10.772C35.858,66.26,26.757,67.56,24.9,68.3Z" transform="translate(21.175 45.95)" fill="#eaebfb"/>
    <path id="Path_31128" data-name="Path 31128" d="M133.2,13.215a29.252,29.252,0,0,1,3.529-3.529c2.415-2.043,5.015-5.572,13.744-2.972.743.186,1.3.557,2.043.743.743.371,3.157.371,5.572-1.672C161.988,2.814,163.474.4,168.674.4c6.129,0,7.058,7.615,11.887,9.472,2.972,1.3,10.958,2.414,12.63,2.972Z" transform="translate(114.021)" fill="none" stroke="#eaebfb" stroke-linecap="round" stroke-linejoin="round" stroke-miterlimit="10" stroke-width="0.9"/>
    <path id="Path_31129" data-name="Path 31129" d="M190.4,39.774s3.715-4.272,5.943-6.315c4.086-3.529,8.915-9.844,23.959-5.2,1.114.371,2.229.929,3.529,1.3,1.3.557,5.386.557,9.658-2.786,6.686-5.386,9.286-9.472,18.573-9.472,10.772-.186,12.444,13.187,20.8,16.716,5.386,2.229,19.316,4.272,22.288,5.386Z" transform="translate(163.059 14.488)" fill="#eaebfb"/>
    <g id="Group_3033" data-name="Group 3033" transform="translate(80.993 40.518)">
      <path id="Path_31130" data-name="Path 31130" d="M96.819,44.1a14.2,14.2,0,0,0,3.157-8.544A13.634,13.634,0,0,0,86.418,22H57.258a13.558,13.558,0,1,0,0,27.117h29.16a12.252,12.252,0,0,0,5.943-1.486l6.686,3.715Z" transform="translate(-43.7 -22)" fill="#4747ce"/>
      <g id="Group_3032" data-name="Group 3032" transform="translate(15.044 10.587)">
        <path id="Path_31131" data-name="Path 31131" d="M62.7,30.672A2.972,2.972,0,1,0,65.672,27.7,2.934,2.934,0,0,0,62.7,30.672Z" transform="translate(-42.455 -27.7)" fill="#fff"/>
        <path id="Path_31132" data-name="Path 31132" d="M57.3,30.672A2.972,2.972,0,1,0,60.272,27.7,2.934,2.934,0,0,0,57.3,30.672Z" transform="translate(-47.085 -27.7)" fill="#fff"/>
        <path id="Path_31133" data-name="Path 31133" d="M51.8,30.672A2.972,2.972,0,1,0,54.772,27.7,2.934,2.934,0,0,0,51.8,30.672Z" transform="translate(-51.8 -27.7)" fill="#fff"/>
      </g>
    </g>
    <g id="Group_3035" data-name="Group 3035" transform="translate(354.7 108.926)">
      <path id="Path_31134" data-name="Path 31134" d="M216.572,220.915c-.929,0-24.331-2.786-25.445-24.516s13.93-27.117,9.844-51.447c-3.9-24.331-14.3-31.2,8.915-48.847,0,0,10.215-7.058,10.772-17.087.557-11.887,21.173-25.817,35.1-17.83s10.587,20.245-1.3,40.3c-11.887,19.873-.371,23.4,1.857,29.9s7.615,13.187-4.458,28.6,2.229,34.174-7.986,49.033C243.875,208.843,234.774,219.8,216.572,220.915Z" transform="translate(-191.068 -58.832)" fill="#93b7fa"/>
      <g id="Group_3034" data-name="Group 3034" transform="translate(19.925 34.809)">
        <path id="Path_31135" data-name="Path 31135" d="M209.005,238.093a1.018,1.018,0,0,0,.743-1.114c-12.63-66.492,13-157.128,13.373-158.057a1.059,1.059,0,0,0-2.043-.557c-.186.929-26,92.122-13.373,158.985a1.056,1.056,0,0,0,1.3.743Z" transform="translate(-199.711 -77.574)" fill="#648bd4"/>
        <path id="Path_31136" data-name="Path 31136" d="M213.566,108.582h0c.743-.371.929-.929.743-1.3,0-.186-5.2-11.887-7.429-21.916-.186-.557-.557-.929-1.114-.743s-.929.557-.743,1.114a126.762,126.762,0,0,0,7.615,22.288C212.637,108.4,213.194,108.582,213.566,108.582Z" transform="translate(-199.071 -71.573)" fill="#648bd4"/>
        <path id="Path_31137" data-name="Path 31137" d="M208.322,114.7c.186,0,.186-.186.371-.186a207.83,207.83,0,0,1,17.644-11.887.956.956,0,0,0-.929-1.672c-.557.371-12.815,7.8-17.83,12.072a.918.918,0,0,0-.186,1.3A.678.678,0,0,0,208.322,114.7Z" transform="translate(-197.171 -57.628)" fill="#648bd4"/>
        <path id="Path_31138" data-name="Path 31138" d="M210.161,126.1h.186a.822.822,0,0,0,.371-1.3l-7.058-13.744a.956.956,0,1,0-1.672.929l7.058,13.744A1.57,1.57,0,0,0,210.161,126.1Z" transform="translate(-201.796 -49.35)" fill="#648bd4"/>
      </g>
    </g>
    <g id="Group_3036" data-name="Group 3036" transform="translate(425.865 207.699)">
      <path id="Path_31139" data-name="Path 31139" d="M240,183.867c-.929.743-8.729-13.558-10.587-31.574,0,0-.929-8.915,7.615-4.272,0,0-8.729-38.818,14.487-35.846,4.086.557,6.315,1.3,8.544,3.9,3.157,3.343,4.829,8.915,1.114,16.9-7.429,15.973-13.93,22.1-10.587,30.46C253.744,171.609,252.63,174.023,240,183.867Z" transform="translate(-229.384 -112.013)" fill="#4747ce"/>
      <path id="Path_31140" data-name="Path 31140" d="M237.511,198.563a1.234,1.234,0,0,0,.743-.929c-5.386-26.188,2.414-70.02,3.343-72.063.186-.371.186-.929-.186-1.114s-.929-.186-1.114.186c-1.672,2.229-8.729,47.918-3.529,73.364C236.582,198.377,237.14,198.748,237.511,198.563Z" transform="translate(-224.666 -101.449)" fill="#93b7fa"/>
    </g>
    <line id="Line_206" data-name="Line 206" x2="484.571" transform="translate(0.2 304.255)" fill="none" stroke="#1d2738" stroke-linecap="round" stroke-linejoin="round" stroke-miterlimit="10" stroke-width="0.492"/>
    <g id="Group_3043" data-name="Group 3043" transform="translate(228.269 130.04)">
      <g id="Group_3042" data-name="Group 3042">
        <path id="Path_31141" data-name="Path 31141" d="M162.457,119.914,159.3,132.173l36.775,1.857L194.96,118.8Z" transform="translate(-91.872 -28.535)" fill="#3d415b"/>
        <path id="Path_31142" data-name="Path 31142" d="M181.1,123.7l-10.587,36.032.186,54.6-13.187.371L155.1,158.989l8.729-34.36Z" transform="translate(-95.473 -24.334)" fill="#3d415b"/>
        <path id="Path_31143" data-name="Path 31143" d="M172.244,126.929,163.7,126l6.315,8.544Z" transform="translate(-88.1 -22.362)" fill="#c8c8c8" opacity="0.44"/>
        <path id="Path_31144" data-name="Path 31144" d="M186.9,127.415l2.414,33.989,10.4,55.9-13,2.6-12.444-57.019L170,123.7Z" transform="translate(-82.699 -24.334)" fill="#3d415b"/>
        <g id="Group_3037" data-name="Group 3037" transform="translate(52.941 190.188)">
          <path id="Path_31145" data-name="Path 31145" d="M164.5,172.6h7.058l.186,10.215L151.5,183h0a3.564,3.564,0,0,1,2.786-3.157l10.029-2.415Z" transform="translate(-151.5 -172.6)" fill="#29323d"/>
          <rect id="Rectangle_1034" data-name="Rectangle 1034" width="20.245" height="1.486" transform="translate(0.001 10.289) rotate(-0.377)" fill="#c7cbe8"/>
          <path id="Path_31146" data-name="Path 31146" d="M162.472,175.6a1.486,1.486,0,1,1-1.486-1.486C161.729,173.927,162.472,174.67,162.472,175.6Z" transform="translate(-144.642 -171.327)" fill="#fff"/>
        </g>
        <g id="Group_3038" data-name="Group 3038" transform="translate(96.21 193.16)">
          <path id="Path_31147" data-name="Path 31147" d="M186.315,175.129l7.058-.929,1.486,10.029-20.059,2.6h0a3.632,3.632,0,0,1,2.414-3.529l9.658-3.715Z" transform="translate(-174.794 -174.2)" fill="#29323d"/>
          <rect id="Rectangle_1035" data-name="Rectangle 1035" width="20.245" height="1.486" transform="translate(0 12.83) rotate(-7.551)" fill="#c7cbe8"/>
          <path id="Path_31148" data-name="Path 31148" d="M185.385,177.317a1.5,1.5,0,1,1-1.672-1.3A1.446,1.446,0,0,1,185.385,177.317Z" transform="translate(-168.292 -172.673)" fill="#fff"/>
        </g>
        <path id="Path_31149" data-name="Path 31149" d="M168.517,123.531h-.371L134.9,118.517l1.672-10.772,29.717,4.458a244.647,244.647,0,0,1,15.044-19.5c0,.186.371.557,0,0l10.4,1.114c.557,2.6-1.857,2.6-18.2,27.3A5.547,5.547,0,0,1,168.517,123.531Z" transform="translate(-112.79 -50.911)" fill="#4633ea"/>
        <path id="Path_31150" data-name="Path 31150" d="M180.039,91.2l1.114.186a11.7,11.7,0,0,1,9.658,8.915l7.615,43.275c-16.159,8.729-36.589.186-36.589.186l-3.9-40.3a10.761,10.761,0,0,1,5.758-10.772h0Z" transform="translate(-93.109 -52.197)" fill="#583bf7"/>
        <path id="Path_31151" data-name="Path 31151" d="M172,103.059l-9.1-.743L164.386,81.7l9.1.743Z" transform="translate(-88.786 -60.341)" fill="#ddb28d"/>
        <path id="Path_31152" data-name="Path 31152" d="M161.84,92.5l13.93-1.3s-.186,8.172-8.544,7.986C159.612,99.186,161.84,92.5,161.84,92.5Z" transform="translate(-89.955 -52.197)" fill="#ddb28d"/>
        <g id="Group_3039" data-name="Group 3039" transform="translate(10.881 55.262)">
          <path id="Path_31153" data-name="Path 31153" d="M140.641,106.911a5.939,5.939,0,1,1-4.829-6.872A6.14,6.14,0,0,1,140.641,106.911Z" transform="translate(-128.854 -99.954)" fill="#fff"/>
          <path id="Path_31154" data-name="Path 31154" d="M140.854,108.783l-6.129-1.114a2.926,2.926,0,0,1-2.414-3.343h0a2.926,2.926,0,0,1,3.343-2.415l6.129,1.114a2.926,2.926,0,0,1,2.414,3.343h0A2.718,2.718,0,0,1,140.854,108.783Z" transform="translate(-125.91 -98.296)" fill="#fff"/>
        </g>
        <g id="Group_3040" data-name="Group 3040" transform="translate(0 43.511)">
          <circle id="Ellipse_100" data-name="Ellipse 100" cx="16.901" cy="16.901" r="16.901" transform="translate(0 30.382) rotate(-63.999)" fill="#df7383"/>
          <path id="Path_31155" data-name="Path 31155" d="M136.779,115.113a1.419,1.419,0,0,1-.929-.371l-5.758-5.572a1.576,1.576,0,0,1,2.229-2.229l4.643,4.643,10.772-8.729a1.581,1.581,0,1,1,2.043,2.414l-11.887,9.658A1.228,1.228,0,0,1,136.779,115.113Z" transform="translate(-117.27 -86.004)" fill="#f4f8ff"/>
        </g>
        <path id="Path_31156" data-name="Path 31156" d="M166.911,101.117h0a11.2,11.2,0,0,1-10.4-11.887l.929-13.93,22.288,1.486-.929,13.93A11.2,11.2,0,0,1,166.911,101.117Z" transform="translate(-94.282 -65.828)" fill="#e3bc9a"/>
        <path id="Path_31157" data-name="Path 31157" d="M179.9,91.373l-3.157-.186a1.369,1.369,0,0,1-1.3-1.672c.557-2.229,1.3-6.129-.186-6.686-2.043-.743-13.744,1.486-17.459-1.672-5.2-4.458-.929-10.958,4.086-10.958s3.9,5.758,9.658,5.943S186.21,74.658,181.567,89.7Z" transform="translate(-95.194 -70.2)" fill="#282c3c"/>
        <path id="Path_31158" data-name="Path 31158" d="M173.958,83.815a3.534,3.534,0,1,1-3.343-3.715A3.32,3.32,0,0,1,173.958,83.815Z" transform="translate(-85.356 -61.713)" fill="#e3bc9a"/>
        <g id="Group_3041" data-name="Group 3041" transform="translate(33.033 70.356)">
          <path id="Path_31159" data-name="Path 31159" d="M152.517,114.431a5.869,5.869,0,1,1-5.386-6.315A5.953,5.953,0,0,1,152.517,114.431Z" transform="translate(-140.781 -108.081)" fill="#e0ae76"/>
          <path id="Path_31160" data-name="Path 31160" d="M153.215,116.215l-6.129-.371a3.062,3.062,0,0,1-2.786-3.157h0a3.062,3.062,0,0,1,3.157-2.786l6.129.371a3.062,3.062,0,0,1,2.786,3.157h0A3.191,3.191,0,0,1,153.215,116.215Z" transform="translate(-137.764 -106.521)" fill="#e0ae76"/>
        </g>
        <path id="Path_31161" data-name="Path 31161" d="M147.3,132.343V121.385h30.274l10.4-24.7a5.593,5.593,0,0,1,7.243-2.786h0A5.593,5.593,0,0,1,198,101.141L186.118,129a5.288,5.288,0,0,1-5.015,3.157Z" transform="translate(-102.16 -50.25)" fill="#583bf7"/>
        <rect id="Rectangle_1036" data-name="Rectangle 1036" width="16.344" height="5.758" transform="translate(60.37 184.616)" fill="#535975"/>
        <rect id="Rectangle_1037" data-name="Rectangle 1037" width="16.344" height="5.758" transform="translate(101.578 190.71) rotate(-11.093)" fill="#535975"/>
      </g>
      <path id="Path_31162" data-name="Path 31162" d="M157.6,83.9l9.658.371s-.557,3.715-5.758,3.157C157.415,87.057,157.6,83.9,157.6,83.9Z" transform="translate(-93.33 -58.455)" fill="#fff"/>
      <path id="Path_31163" data-name="Path 31163" d="M159.5,127.788h9.844a7.483,7.483,0,0,0,6.315-4.272L186.431,99c-4.272,14.3-9.658,28.974-9.658,28.974a4.405,4.405,0,0,1-4.458,2.972l-12.444-.557Z" transform="translate(-91.7 -45.51)" fill="#4633ea"/>
    </g>
    <g id="Group_3044" data-name="Group 3044" transform="translate(152.11 195.585)">
      <path id="Path_31164" data-name="Path 31164" d="M163.458,136.582l-72.063,9.472a3.713,3.713,0,0,1-4.086-3.157l-2.6-19.13a3.713,3.713,0,0,1,3.157-4.086l72.063-9.472a3.713,3.713,0,0,1,4.086,3.157l2.6,19.13A3.713,3.713,0,0,1,163.458,136.582Z" transform="translate(-79.676 -101.461)" fill="#b8b8b8" opacity="0.12"/>
      <path id="Path_31165" data-name="Path 31165" d="M160.758,131.882l-72.063,9.472a3.713,3.713,0,0,1-4.086-3.157l-2.6-19.13a3.713,3.713,0,0,1,3.157-4.086l72.063-9.472a3.713,3.713,0,0,1,4.086,3.157l2.6,19.13A3.863,3.863,0,0,1,160.758,131.882Z" transform="translate(-81.991 -105.491)" fill="#d9ddfb"/>
      <path id="Path_31166" data-name="Path 31166" d="M86.157,116.915c-.186,0-.371-.186-.557-.371,0-.186.186-.557.371-.557L127.2,110.6c.371,0,.557.186.557.371s-.186.557-.371.557l-41.232,5.386Z" transform="translate(-78.896 -101.11)" fill="#8992c6"/>
      <path id="Path_31167" data-name="Path 31167" d="M86.657,120.515c-.186,0-.371-.186-.557-.371,0-.186.186-.557.371-.557L127.7,114.2c.371,0,.557.186.557.371s-.186.557-.371.557l-41.232,5.386Z" transform="translate(-78.467 -98.024)" fill="#8992c6"/>
      <path id="Path_31168" data-name="Path 31168" d="M87.157,122.815c-.186,0-.371-.186-.557-.371,0-.186.186-.557.371-.557L107.4,119.1c.371,0,.557.186.557.371s-.186.557-.371.557l-20.43,2.786Z" transform="translate(-78.039 -93.823)" fill="#8992c6"/>
    </g>
    <g id="Group_3049" data-name="Group 3049" transform="translate(36.417 168.086)">
      <path id="Path_31169" data-name="Path 31169" d="M74.329,169.357l-6.5-.557L66.9,179.387l18.387,1.486.186-1.486a3.344,3.344,0,0,0-2.415-3.157l-8.915-2.786Z" transform="translate(20.765 -23.716)" fill="#29323d"/>
      <path id="Path_31170" data-name="Path 31170" d="M30.844,170l-.557-6.5-10.587.929,1.857,18.387,1.486-.186a3.15,3.15,0,0,0,2.6-2.786l1.3-9.286Z" transform="translate(-19.7 -28.26)" fill="#29323d"/>
      <path id="Path_31171" data-name="Path 31171" d="M53.56,143.572l11.7,37.889L24.4,183.875l1.114,9.844,49.961-1.672c4.458-.186,7.8-3.529,6.872-8.729l-2.786-28.045,26.374-.371-4.643,41.789,11.33.371,11.144-46.8a9.427,9.427,0,0,0-8.729-11.515L88.291,138Z" transform="translate(-15.671 -50.121)" fill="#583bf7"/>
      <g id="Group_3048" data-name="Group 3048" transform="translate(34.53)">
        <g id="Group_3045" data-name="Group 3045" transform="translate(7.417)">
          <path id="Path_31172" data-name="Path 31172" d="M49.2,127.159,59.229,129.2,63.5,107.843,53.472,105.8Z" transform="translate(-36.356 -77.727)" fill="#ddb28d"/>
          <path id="Path_31173" data-name="Path 31173" d="M57.206,124.474h0A10.649,10.649,0,0,0,69.65,116.3l2.6-12.63L51.82,99.4l-2.6,12.63A10.344,10.344,0,0,0,57.206,124.474Z" transform="translate(-36.562 -83.213)" fill="#e3bc9a"/>
          <path id="Path_31174" data-name="Path 31174" d="M67.046,108.472,65,117.759a6.687,6.687,0,0,1-7.8,5.386l-1.857-.371c-6.129-1.3-10.029-7.615-8.729-14.116l1.857-8.358,19.13,4.086Z" transform="translate(-38.786 -82.442)" fill="#282c3c"/>
          <path id="Path_31175" data-name="Path 31175" d="M57.1,107.931a39.481,39.481,0,0,0,7.8,1.3,4.78,4.78,0,0,0,3.9-7.615l-.371-.371c-2.972-3.343-8.172-1.672-8.172-1.3S57.1,107.931,57.1,107.931Z" transform="translate(-29.584 -83.386)" fill="#282c3c"/>
          <path id="Path_31176" data-name="Path 31176" d="M71.559,104.028S65.616,95.484,55.586,97.9c0,0-3.9-.186-7.986,4.643l17.087,8.172Z" transform="translate(-37.728 -84.869)" fill="#282c3c"/>
          <path id="Path_31177" data-name="Path 31177" d="M55.233,108.048a3.023,3.023,0,1,0,3.529-2.414A3.063,3.063,0,0,0,55.233,108.048Z" transform="translate(-31.246 -77.931)" fill="#e3bc9a"/>
          <path id="Path_31178" data-name="Path 31178" d="M61.815,102.6A9.872,9.872,0,1,1,54.2,90.9,9.811,9.811,0,0,1,61.815,102.6Z" transform="translate(-42.285 -90.685)" fill="#282c3c"/>
        </g>
        <path id="Path_31179" data-name="Path 31179" d="M76.568,157.677c-3.715-6.129-2.043-20.245-.371-28.788A10.436,10.436,0,0,0,71.553,118.3h0l-11.7-3.529c-2.972-.929-6.686,2.415-8.729,4.643-18.573,20.245-11.515,46.061-11.515,46.061a57.105,57.105,0,0,0,18.2.929h.371A32.5,32.5,0,0,0,76.568,157.677Z" transform="translate(-38.291 -70.17)" fill="#df7383"/>
        <g id="Group_3047" data-name="Group 3047" transform="translate(24.996 44.369)">
          <g id="Group_3046" data-name="Group 3046" transform="translate(51.025)">
            <path id="Path_31180" data-name="Path 31180" d="M83.161,124.466a6.261,6.261,0,1,0,1.486-8.729A6.107,6.107,0,0,0,83.161,124.466Z" transform="translate(-76.888 -114.574)" fill="#e3bc9a"/>
            <path id="Path_31181" data-name="Path 31181" d="M84.01,126.953l5.386-3.9a3.2,3.2,0,0,0,.743-4.272h0a3.2,3.2,0,0,0-4.272-.743l-5.386,3.9a3.2,3.2,0,0,0-.743,4.272h0A3,3,0,0,0,84.01,126.953Z" transform="translate(-79.222 -112.046)" fill="#e3bc9a"/>
          </g>
          <path id="Path_31182" data-name="Path 31182" d="M111.834,127.973l-6.315-10.029-27.3,17.087L60.944,117.572a5.786,5.786,0,0,0-8.172,1.672h0a5.786,5.786,0,0,0,1.672,8.172L74.874,147.1a5.6,5.6,0,0,0,6.315,0Z" transform="translate(-51.75 -112.88)" fill="#df7383"/>
        </g>
      </g>
      <path id="Path_31183" data-name="Path 31183" d="M54.1,150.215,65.244,143.9l-.743,2.972,15.973,2.786Z" transform="translate(9.791 -45.063)" fill="#c8c8c8" opacity="0.44"/>
    </g>
    <g id="Group_3050" data-name="Group 3050" transform="translate(65.206 113.696)">
      <path id="Path_31184" data-name="Path 31184" d="M188.572,64l-.929-2.6-.929,2.6a9.16,9.16,0,0,1-5.015,5.2h0a9.16,9.16,0,0,1,5.015,5.2l.929,2.6.929-2.6a9.16,9.16,0,0,1,5.015-5.2h0A9.16,9.16,0,0,1,188.572,64Z" transform="translate(90.395 -61.4)" fill="#fff"/>
      <path id="Path_31185" data-name="Path 31185" d="M39.658,104.572,39.1,102.9l-.557,1.672a5.911,5.911,0,0,1-3.343,3.343h0a6.5,6.5,0,0,1,3.343,3.343l.557,1.672.557-1.672A5.911,5.911,0,0,1,43,107.915h0A5.884,5.884,0,0,1,39.658,104.572Z" transform="translate(-35.2 -25.822)" fill="#fff"/>
    </g>
    <g id="Group_3051" data-name="Group 3051" transform="translate(159.543 328.957)">
      <path id="Path_31186" data-name="Path 31186" d="M86,192.158l2.415,4.272,25.631.743,5.2-14.3-2.229-4.272Z" transform="translate(-85.986 -176.185)" fill="#b4bad8"/>
      <path id="Path_31187" data-name="Path 31187" d="M90.735,197.43l22.473.929c2.043,0,3.529-.743,3.715-2.043l1.486-13.373c.186-1.3-1.486-2.414-3.529-2.414L92.407,179.6c-2.043,0-3.529.743-3.715,2.043l-1.486,13.373C87.021,196.13,88.692,197.244,90.735,197.43Z" transform="translate(-84.964 -175.328)" fill="#b4bad8"/>
      <path id="Path_31188" data-name="Path 31188" d="M89.535,195.13l22.473.929c2.043,0,3.529-.743,3.715-2.043l1.486-13.373c.186-1.3-1.486-2.415-3.529-2.415L91.207,177.3c-2.043,0-3.529.743-3.715,2.043l-1.486,13.373C85.821,194.016,87.492,195.13,89.535,195.13Z" transform="translate(-85.992 -177.3)" fill="#c7cbe8"/>
    </g>
  </g>
</svg>
