<svg xmlns="http://www.w3.org/2000/svg" width="411.35" height="322.9" viewBox="0 0 411.35 322.9">
  <g id="Group_3020" data-name="Group 3020" transform="translate(0 -0.1)">
    <path id="Path_30965" data-name="Path 30965" d="M29.2,202.5h93.4c11.8,0-4.9-7.8-8.7-2.5,0-6.3-5.1-9.8-11.4-9.8a10.46,10.46,0,0,0-3.6.6,10.55,10.55,0,0,0,.4-3.1A11.288,11.288,0,0,0,88,176.4a10.989,10.989,0,0,0-6.7,2.2,18.274,18.274,0,1,0-36.1-4,24.583,24.583,0,0,0,.2,2.8,10.434,10.434,0,0,0-4.3-1,9.816,9.816,0,0,0-9.8,9.8,10.434,10.434,0,0,0,1,4.3,5.822,5.822,0,0,0-1.9-.3,6.594,6.594,0,0,0-6.6,6.6C23.7,199.2,26,202.5,29.2,202.5Z" fill="#fff" opacity="0.2"/>
    <path id="Path_30966" data-name="Path 30966" d="M383,69.7a5.489,5.489,0,0,0-3.7,1.4,5.9,5.9,0,0,0,.2-1.4,6.4,6.4,0,0,0-9.5-5.6,19.418,19.418,0,0,0,.2-2.4A15.8,15.8,0,0,0,338.7,60a5.167,5.167,0,0,0-3.2-1.1,5.335,5.335,0,0,0-5.3,5.3c0,.4.1.8.1,1.2a4.713,4.713,0,0,0-3-1.2,4.481,4.481,0,0,0-4.5,4.5,4.814,4.814,0,0,0,.7,2.4,6.448,6.448,0,0,0-2-.3c-3.6,0-6.5,3.2-3.7,3.2H387C389,74.2,386.8,69.7,383,69.7Z" fill="#fff" opacity="0.2"/>
    <path id="Path_30967" data-name="Path 30967" d="M400.1,230.7a5.489,5.489,0,0,0-3.7,1.4,5.9,5.9,0,0,0,.2-1.4,6.4,6.4,0,0,0-9.5-5.6,19.418,19.418,0,0,0,.2-2.4,15.8,15.8,0,0,0-31.5-1.7,5.167,5.167,0,0,0-3.2-1.1,5.335,5.335,0,0,0-5.3,5.3c0,.4.1.8.1,1.2a4.713,4.713,0,0,0-3-1.2,4.481,4.481,0,0,0-4.5,4.5,4.814,4.814,0,0,0,.7,2.4,6.448,6.448,0,0,0-2-.3c-3.6,0-6.5,3.2-3.7,3.2h69.2C406.1,235.2,404,230.7,400.1,230.7Z" fill="#fff" opacity="0.2"/>
    <path id="Path_30968" data-name="Path 30968" d="M215.7,17.6H187.4a3.985,3.985,0,0,1,2.5-7.1,1.483,1.483,0,0,1,.7.1,6.6,6.6,0,0,1-.1-1.4,9.113,9.113,0,0,1,18.1-1.5,6.127,6.127,0,0,1,9.9,4.8A5.866,5.866,0,0,1,215.7,17.6Z" fill="#fff" opacity="0.2"/>
    <g id="Group_2940" data-name="Group 2940">
      <path id="Path_30969" data-name="Path 30969" d="M48.3,247.2V226.3h82.5v82.3H48.3V296.7" fill="none" stroke="#8fc4e6" stroke-linecap="round" stroke-linejoin="round" stroke-miterlimit="10" stroke-width="1"/>
      <line id="Line_202" data-name="Line 202" y2="19.7" transform="translate(48.3 273.7)" fill="none" stroke="#8fc4e6" stroke-linecap="round" stroke-linejoin="round" stroke-miterlimit="10" stroke-width="1"/>
      <line id="Line_203" data-name="Line 203" y2="2.6" transform="translate(48.3 266.4)" fill="none" stroke="#8fc4e6" stroke-linecap="round" stroke-linejoin="round" stroke-miterlimit="10" stroke-width="1"/>
      <g id="Group_2939" data-name="Group 2939">
        <rect id="Rectangle_997" data-name="Rectangle 997" width="12.9" height="25.5" transform="translate(113 250)" fill="#0964af" opacity="0.25"/>
        <rect id="Rectangle_998" data-name="Rectangle 998" width="71.2" height="8.7" transform="translate(54.8 236.2)" fill="#0964af" opacity="0.25"/>
        <rect id="Rectangle_999" data-name="Rectangle 999" width="55" height="4.1" transform="translate(55.4 250)" fill="#0964af" opacity="0.25"/>
        <rect id="Rectangle_1000" data-name="Rectangle 1000" width="55" height="4.1" transform="translate(55.4 260.7)" fill="#0964af" opacity="0.25"/>
        <rect id="Rectangle_1001" data-name="Rectangle 1001" width="55" height="4.1" transform="translate(55.4 271.4)" fill="#0964af" opacity="0.25"/>
        <rect id="Rectangle_1002" data-name="Rectangle 1002" width="70.9" height="4.1" transform="translate(55.4 282.1)" fill="#0964af" opacity="0.25"/>
        <rect id="Rectangle_1003" data-name="Rectangle 1003" width="70.9" height="4.1" transform="translate(55.4 292.8)" fill="#0964af" opacity="0.25"/>
      </g>
    </g>
    <g id="Group_2942" data-name="Group 2942">
      <path id="Path_30970" data-name="Path 30970" d="M238.9,52.4V29.3h91.4v91.1H238.9V107.2" fill="none" stroke="#8fc4e6" stroke-linecap="round" stroke-linejoin="round" stroke-miterlimit="10" stroke-width="1"/>
      <line id="Line_204" data-name="Line 204" y2="21.8" transform="translate(238.9 81.8)" fill="none" stroke="#8fc4e6" stroke-linecap="round" stroke-linejoin="round" stroke-miterlimit="10" stroke-width="1"/>
      <line id="Line_205" data-name="Line 205" y2="2.9" transform="translate(238.9 73.7)" fill="none" stroke="#8fc4e6" stroke-linecap="round" stroke-linejoin="round" stroke-miterlimit="10" stroke-width="1"/>
      <g id="Group_2941" data-name="Group 2941">
        <rect id="Rectangle_1004" data-name="Rectangle 1004" width="14.3" height="28.3" transform="translate(310.6 55.5)" fill="#0964af" opacity="0.25"/>
        <rect id="Rectangle_1005" data-name="Rectangle 1005" width="78.8" height="9.6" transform="translate(246.2 40.3)" fill="#0964af" opacity="0.25"/>
        <rect id="Rectangle_1006" data-name="Rectangle 1006" width="60.9" height="4.6" transform="translate(246.8 55.5)" fill="#0964af" opacity="0.25"/>
        <rect id="Rectangle_1007" data-name="Rectangle 1007" width="60.9" height="4.6" transform="translate(246.8 67.4)" fill="#0964af" opacity="0.25"/>
        <rect id="Rectangle_1008" data-name="Rectangle 1008" width="60.9" height="4.6" transform="translate(246.8 79.2)" fill="#0964af" opacity="0.25"/>
        <rect id="Rectangle_1009" data-name="Rectangle 1009" width="78.4" height="4.6" transform="translate(246.8 91)" fill="#0964af" opacity="0.25"/>
        <rect id="Rectangle_1010" data-name="Rectangle 1010" width="78.4" height="4.6" transform="translate(246.8 102.9)" fill="#0964af" opacity="0.25"/>
      </g>
    </g>
    <path id="Path_30971" data-name="Path 30971" d="M96.5,84.3h45.7a6.675,6.675,0,0,0,2.4-5,6.487,6.487,0,0,0-6.5-6.5,4.869,4.869,0,0,0-1.2.1,16.412,16.412,0,0,0,.2-2.3,14.753,14.753,0,0,0-29.3-2.5A9.892,9.892,0,1,0,96.5,84.3Z" fill="#fff" opacity="0.2"/>
    <g id="Group_2948" data-name="Group 2948">
      <path id="Path_30972" data-name="Path 30972" d="M281.7,262.6l6.6,45s5.2,7,24.9,7,24.9-7,24.9-7l6.6-45Z" fill="#0e67aa"/>
      <path id="Path_30973" data-name="Path 30973" d="M313.2,287c11.6,0,21.9-1.5,28.4-3.7l2.9-20.1H281.7l2.9,20.1C291.3,285.6,301.6,287,313.2,287Z" fill="#1d3f72"/>
      <path id="Path_30974" data-name="Path 30974" d="M349.1,272.9c0,5.3-16.1,9.5-35.9,9.5s-35.9-4.3-35.9-9.5l-1.7-14.3h75.2Z" fill="#0e67aa"/>
      <ellipse id="Ellipse_96" data-name="Ellipse 96" cx="37.6" cy="10" rx="37.6" ry="10" transform="translate(275.6 248.6)" fill="#4193b7"/>
      <ellipse id="Ellipse_97" data-name="Ellipse 97" cx="33.6" cy="7.5" rx="33.6" ry="7.5" transform="translate(279.6 250.9)" fill="#1c538e"/>
      <path id="Path_30975" data-name="Path 30975" d="M281.2,260.7c4.3-3.1,17-5.3,32.1-5.3,15,0,27.8,2.2,32.1,5.3a2.944,2.944,0,0,0,1.5-2.3c0-4.2-15-7.5-33.6-7.5s-33.6,3.4-33.6,7.5C279.6,259.2,280.2,260,281.2,260.7Z" fill="#0d2644"/>
      <g id="Group_2943" data-name="Group 2943">
        <path id="Path_30976" data-name="Path 30976" d="M339.7,198.7c2.4-8.7-.5-15.6-3.7-23.4s-3.7-16-2.5-24.2c1.6-11.1,5.3-21.8,1.1-32.6-4-10.2-7.8-23.6-18.8-27.9-10.7-4.6-18.8,6-18.6,15.7s5.7,18.5,2.9,28.1c-2.1,7.9-4.8,17.2-.7,24.7,4.9,9.3,14,15.9,10.6,27.2-1.3,4.1-3.6,7.5-4,11.6-.6,6.2,2.6,7.7,5.4,12.6,11.8,20.7-9.8,29-1.3,51.8a1.5,1.5,0,0,0,1.5,1h0A1.415,1.415,0,0,0,313,262c2.7-25.4,20.8-16.7,21-37.3,0-3.8-1.1-7.7-.7-11.5C333.7,207.3,338.3,204.3,339.7,198.7Z" fill="#15ccbe"/>
        <path id="Path_30977" data-name="Path 30977" d="M315.6,206.4s1,11.6,9.5,13.1" fill="none" stroke="#7defe9" stroke-linecap="round" stroke-linejoin="round" stroke-miterlimit="10" stroke-width="1"/>
        <path id="Path_30978" data-name="Path 30978" d="M307.5,150.1s.6,13,11.5,16.5" fill="none" stroke="#7defe9" stroke-linecap="round" stroke-linejoin="round" stroke-miterlimit="10" stroke-width="1"/>
        <path id="Path_30979" data-name="Path 30979" d="M331.8,132.4s-.5,13.5-11.1,15.6" fill="none" stroke="#7defe9" stroke-linecap="round" stroke-linejoin="round" stroke-miterlimit="10" stroke-width="1"/>
        <path id="Path_30980" data-name="Path 30980" d="M331.4,174.7s2.6,14.8-6.1,18.6" fill="none" stroke="#7defe9" stroke-linecap="round" stroke-linejoin="round" stroke-miterlimit="10" stroke-width="1"/>
        <path id="Path_30981" data-name="Path 30981" d="M329.2,224.5s0,13.5-13.6,14.8" fill="none" stroke="#7defe9" stroke-linecap="round" stroke-linejoin="round" stroke-miterlimit="10" stroke-width="1"/>
        <path id="Path_30982" data-name="Path 30982" d="M312.3,113.6s1,13.6,9.1,15.9" fill="none" stroke="#7defe9" stroke-linecap="round" stroke-linejoin="round" stroke-miterlimit="10" stroke-width="1"/>
        <path id="Path_30983" data-name="Path 30983" d="M313.2,104.3c9.3,9.2,8.6,30.2,7.9,39.8-.6,7-4.3,23.4,0,35.3,4.6,12.6,8.7,26,3.5,43.4-3.6,12.1-15.5,18-13.1,40" fill="none" stroke="#7defe9" stroke-linecap="round" stroke-linejoin="round" stroke-miterlimit="10" stroke-width="1"/>
        <path id="Path_30984" data-name="Path 30984" d="M333.9,223.5v1.2c-.1,13.5-8,14.4-14.1,20.6.7-3.6.9-8.1,3.3-11,2.6-2.9,6.2-3.5,8.8-7.1A15.054,15.054,0,0,0,333.9,223.5Zm2.1-48.2c-3.2-7.8-3.7-16-2.5-24.2a20.028,20.028,0,0,1,.4-2.4,17.084,17.084,0,0,0-9.5,9c-6,12.6-1.3,21.2,3.9,30.7,4.2,7.8,1.5,15,2.4,23.2.4,3.4,1.9,6.1,3,8.7a34.238,34.238,0,0,1-.4-7.1c.5-5.9,5.1-8.9,6.5-14.4C342.1,190,339.2,183.1,336,175.3Zm-22.3,66.2a19.354,19.354,0,0,1-2-5.7c-2.7,7-5.7,14.3-2.5,24.6v.1l.6,1.8c0,.1.1.2.2.3v.1c.1.1.2.2.2.3h0a2.1,2.1,0,0,0,1.1.4h0a1.136,1.136,0,0,0,.8-.3,1.113,1.113,0,0,0,.6-1V262a34.652,34.652,0,0,1,2.1-9.3c-.6.4-1.1.7-1.7,1.1C315.1,249.6,316.4,247.2,313.7,241.5Z" fill="#15ccbe" opacity="0.75"/>
      </g>
      <g id="Group_2945" data-name="Group 2945">
        <path id="Path_30985" data-name="Path 30985" d="M367.4,194.2c-5.3-9.7-5.3-16.1-4.7-26.5.6-10.6-2.6-24.7-15.6-27.1-9.7-1.8-17.6,2.2-21.2,9.8-6,12.6-1.3,21.2,3.9,30.7,4.2,7.8,1.5,15,2.4,23.2s8.2,12.1,2.1,20.6c-2.6,3.5-6.2,4.1-8.8,7.1-2.6,3.2-2.6,8.3-3.5,12.1-2.4,9.5-11.6,8.1-12,17.7,0,.7.6,1.4,1.1,1.4s.9.1,1.3-.6c2.2-3.9,5.8-3.3,9.8-5.1,3-1.3,3.9-5,11.1-5.9,9.4-1.1,17.9,5,22.6-7.6,1.8-4.4,1.2-8.2,2.1-12.6.9-5.9,4.7-9.4,8.5-13.5C373,210.4,372.1,202.7,367.4,194.2Z" fill="#17ddd8"/>
        <g id="Group_2944" data-name="Group 2944">
          <path id="Path_30986" data-name="Path 30986" d="M334,164s6.2,10.9,14.8,11.7" fill="none" stroke="#6cefe8" stroke-linecap="round" stroke-linejoin="round" stroke-miterlimit="10" stroke-width="1"/>
          <path id="Path_30987" data-name="Path 30987" d="M340.4,197.9s-.5,19.7,5.8,23.8" fill="none" stroke="#6cefe8" stroke-linecap="round" stroke-linejoin="round" stroke-miterlimit="10" stroke-width="1"/>
          <path id="Path_30988" data-name="Path 30988" d="M360.9,184.7s-.7,16.9-11.3,19.9" fill="none" stroke="#6cefe8" stroke-linecap="round" stroke-linejoin="round" stroke-miterlimit="10" stroke-width="1"/>
          <path id="Path_30989" data-name="Path 30989" d="M352.2,233.1s-5.4,16.3-20.8,13.6" fill="none" stroke="#6cefe8" stroke-linecap="round" stroke-linejoin="round" stroke-miterlimit="10" stroke-width="1"/>
          <path id="Path_30990" data-name="Path 30990" d="M350,149s4.4,12.8-2.2,18.9" fill="none" stroke="#6cefe8" stroke-linecap="round" stroke-linejoin="round" stroke-miterlimit="10" stroke-width="1"/>
          <path id="Path_30991" data-name="Path 30991" d="M310.9,262.4c1.4-5.3,9.2-7.2,11.5-8.7,24.9-16.2,34.6-47.5,22.3-100.5" fill="none" stroke="#6cefe8" stroke-linecap="round" stroke-linejoin="round" stroke-miterlimit="10" stroke-width="1"/>
        </g>
        <path id="Path_30992" data-name="Path 30992" d="M309.8,261.9c0,.7.6,1.4,1.1,1.4h.1c1.6-1.2-.4-2.9,2-8.5A9.358,9.358,0,0,0,309.8,261.9Z" fill="#15ccbe" opacity="0.75"/>
      </g>
      <g id="Group_2947" data-name="Group 2947">
        <path id="Path_30993" data-name="Path 30993" d="M311.5,238.7c-2.9-6.3-.2-14.3-3-18.9-3.5-5.7-9.4-1.4-16.2-9.2-5.7-6.6-1.6-15.7-14.6-22.6-4-2.1-8.6-1.1-10.1,3.4-1.9,4.2,1.1,10.3,2.5,14.3,1.3,3.4,2.9,6,2.3,9.8v.1c-.8,2.9-2.7,4.5-1.7,8,2.2,8.4,14.1,7.7,20.1,12.9,4.3,3.7.4,8.1,4.6,13.7,4.1,5.6,6.2-.5,13.7,12.7a1.011,1.011,0,0,0,1.3.4h0a1.05,1.05,0,0,0,.5-.9C309.7,248.2,315.8,247.9,311.5,238.7Z" fill="#17ddd8"/>
        <g id="Group_2946" data-name="Group 2946">
          <path id="Path_30994" data-name="Path 30994" d="M271.5,198s.7,6.5,6.9,8.5" fill="none" stroke="#6cefe8" stroke-linecap="round" stroke-linejoin="round" stroke-miterlimit="10" stroke-width="1"/>
          <path id="Path_30995" data-name="Path 30995" d="M275,216.5s6.2,7.1,13.9,4.3" fill="none" stroke="#6cefe8" stroke-linecap="round" stroke-linejoin="round" stroke-miterlimit="10" stroke-width="1"/>
          <path id="Path_30996" data-name="Path 30996" d="M297.9,216.9s4.7,7.7,1.2,11.3" fill="none" stroke="#6cefe8" stroke-linecap="round" stroke-linejoin="round" stroke-miterlimit="10" stroke-width="1"/>
          <path id="Path_30997" data-name="Path 30997" d="M305,231.5s2.8,9.5-2,13" fill="none" stroke="#6cefe8" stroke-linecap="round" stroke-linejoin="round" stroke-miterlimit="10" stroke-width="1"/>
          <path id="Path_30998" data-name="Path 30998" d="M283.2,202.3s4,9.9.6,13.5" fill="none" stroke="#6cefe8" stroke-linecap="round" stroke-linejoin="round" stroke-miterlimit="10" stroke-width="1"/>
          <path id="Path_30999" data-name="Path 30999" d="M288.8,230.8s3.6,6,13.7,5.4" fill="none" stroke="#6cefe8" stroke-linecap="round" stroke-linejoin="round" stroke-miterlimit="10" stroke-width="1"/>
          <path id="Path_31000" data-name="Path 31000" d="M295.7,243.7s1,6.1,10.9,7.5" fill="none" stroke="#6cefe8" stroke-linecap="round" stroke-linejoin="round" stroke-miterlimit="10" stroke-width="1"/>
          <path id="Path_31001" data-name="Path 31001" d="M309.7,262.9c-.4-13-7.3-14-7.1-21.7.2-6,0-11.7-7.3-16-12.5-7.5-17.7-15.3-20.2-31.8" fill="none" stroke="#6cefe8" stroke-linecap="round" stroke-linejoin="round" stroke-miterlimit="10" stroke-width="1"/>
        </g>
      </g>
    </g>
    <g id="Group_2961" data-name="Group 2961">
      <g id="Group_2949" data-name="Group 2949">
        <path id="Path_31002" data-name="Path 31002" d="M258,103c-1.2,13,8.4,20.5,12.7,31.4l15.7-9.6c-8.1-8.6-19.9-10.2-23.6-22.7" fill="#628cd2"/>
      </g>
      <g id="Group_2950" data-name="Group 2950">
        <path id="Path_31003" data-name="Path 31003" d="M276.6,124.6c-9.9,3.7-31.7,6.3-42,8.8h0c0,7.3,4.2,13.2,7.8,19.2,3.6,5.9,6.8,11.9,9.8,18.1.8,1.9,3.7,11,5.3,12.2,6.9-1.8,15-4.8,21.7-9.9,10.4-7.9,18.5-16.6,21.6-29.3l-6.2-9.4-5.7-7.5-8-4h-3Z" fill="#628cd2"/>
      </g>
      <path id="Path_31004" data-name="Path 31004" d="M290.6,151.9s.6-4.2-1.9,1c-1.7,7-15.8,22.2-28.1,25.8a4.728,4.728,0,0,0-1.9,3.9c6.6-1.8,14.2-4.8,20.4-9.6a72.369,72.369,0,0,0,12.7-11.9C291.2,156.6,290.6,151.9,290.6,151.9Z" fill="#628cd2" opacity="0.25"/>
      <g id="Group_2951" data-name="Group 2951">
        <path id="Path_31005" data-name="Path 31005" d="M283.8,188.4c.4,2.8-.9,2.7-1.4,4.6-.5,2.2-1.5,4.7.7,5.8.3.2,1-.1.6-.9a11.9,11.9,0,0,0,1.5.9c1.1.2,2,.5,2.3-1.1a5.118,5.118,0,0,0,1.3-4.6c-.3-1.4-1.4-1.7-1.4-3.3,0-1.5,1.4-3.6,1.9-5.2" fill="#ffb67e"/>
      </g>
      <g id="Group_2952" data-name="Group 2952">
        <path id="Path_31006" data-name="Path 31006" d="M288.4,151.3c2.5,17.9.3,26.6-6.1,36.7.6,2.2,3.6,2.6,6.2,1.7,27.4-31.2,10.6-57.3,2.7-60.9" fill="#628cd2"/>
      </g>
      <g id="Group_2953" data-name="Group 2953" opacity="0.25">
        <path id="Path_31007" data-name="Path 31007" d="M294.4,131c7.8,8.4,16.5,31.3-7,58.1a5.963,5.963,0,0,1-2.1,1.1,7.686,7.686,0,0,0,3.3-.4C312.8,162.2,302.5,138.6,294.4,131Z" fill="#628cd2"/>
      </g>
      <g id="Group_2954" data-name="Group 2954">
        <path id="Path_31008" data-name="Path 31008" d="M285.1,113.2a63.165,63.165,0,0,1-1.7,9.5c-1.1,3.4-3.4,6.5-1.1,9.5,5.7,7.8,19.2-2.3,19.2-9.7" fill="#ffb67e"/>
      </g>
      <g id="Group_2955" data-name="Group 2955">
        <path id="Path_31009" data-name="Path 31009" d="M287.6,122.6a1.991,1.991,0,0,1-.8,1.2c-.4.3-.9.5-1.2.7-.2.1-.2.1-.2.3a1.421,1.421,0,0,0,.2.6,5.768,5.768,0,0,1,.3,1.4c-.2-.4-.5-.8-.7-1.2a4.872,4.872,0,0,1-.3-.7,1.087,1.087,0,0,1,.1-.5q.15-.3.3-.3c.5-.2.9-.3,1.3-.5A3.178,3.178,0,0,0,287.6,122.6Z" fill="#ffb67e"/>
      </g>
      <g id="Group_2956" data-name="Group 2956">
        <path id="Path_31010" data-name="Path 31010" d="M303.7,116.5c.9-2.5,1.7-5.3-1.3-7.5-7.9-5.8-12.5-1.1-15-1.1-1.1-.2-3.3-4.6-4.5.9-2.1,9.7,7.1,15.5,15.4,12.3.2,2.2-2.4,4.3-2.2,6,.4,2.4,3.5,2.6,5.2,1.7C305.4,126.7,309.1,116.3,303.7,116.5Z" fill="#1b3760"/>
      </g>
      <g id="Group_2957" data-name="Group 2957">
        <path id="Path_31011" data-name="Path 31011" d="M283.5,197.7c-.1-.4-.3-.8-.1-1.2a1.173,1.173,0,0,1,1.1-.5,1.433,1.433,0,0,1,1.1.5,2.662,2.662,0,0,1,.3,1.2,4.609,4.609,0,0,0-.5-1,1.6,1.6,0,0,0-1-.5,1.431,1.431,0,0,0-1.1.3A2.537,2.537,0,0,0,283.5,197.7Z" fill="#e88949"/>
      </g>
      <g id="Group_2958" data-name="Group 2958">
        <path id="Path_31012" data-name="Path 31012" d="M286.4,195.3c.2,0,.4.2.6.4a2.092,2.092,0,0,1,.4.6,2.25,2.25,0,0,1,.1,1.4,2.768,2.768,0,0,0-.3-1.3l-.3-.6C286.7,195.6,286.6,195.4,286.4,195.3Z" fill="#e88949"/>
      </g>
      <g id="Group_2959" data-name="Group 2959">
        <path id="Path_31013" data-name="Path 31013" d="M284.6,197.1a.9.9,0,0,1,.5-.1h.5a.215.215,0,0,1-.2.2h-.3A.9.9,0,0,1,284.6,197.1Z" fill="#e88949"/>
      </g>
      <g id="Group_2960" data-name="Group 2960" opacity="0.55">
        <path id="Path_31014" data-name="Path 31014" d="M305.2,116.9a3.606,3.606,0,0,1,.7,2.2c-.1,2.5-2,6.3-4.6,5.8a1.866,1.866,0,0,1-1.4-1.9c0-.9,1-4.8.4-4.7-1.9.3-9,3.7-16.5-2.1,2.5,4.9,8.7,7.1,14.5,4.9.2,2.2-2.4,4.3-2.2,6,.4,2.4,3.5,2.6,5.2,1.7C304.9,127,308.2,118.6,305.2,116.9Z" fill="#1b3760"/>
      </g>
    </g>
    <g id="Group_2963" data-name="Group 2963">
      <path id="Path_31015" data-name="Path 31015" d="M80.6,107.9h15a6.061,6.061,0,0,1,6.1,6.1v1.9l2.4,1.6a.85.85,0,0,1,0,1.5l-2.4,1.6v1.9a6.061,6.061,0,0,1-6.1,6.1h-15a6.061,6.061,0,0,1-6.1-6.1V114A6.061,6.061,0,0,1,80.6,107.9Z" fill="#8fc4e6"/>
      <g id="Group_2962" data-name="Group 2962" opacity="0.5">
        <path id="Path_31016" data-name="Path 31016" d="M95.7,117.8a1.136,1.136,0,0,1-.3-.8,4.121,4.121,0,0,1-.1-1.2,2.245,2.245,0,0,0-.1-1,.52.52,0,0,0-.2-.4c-.1-.1-.2-.1-.5-.1a.52.52,0,0,1-.4-.2.749.749,0,0,1-.1-.5c0-.5.3-.7.9-.7a1.715,1.715,0,0,1,1.8,1.8v1.6a1.268,1.268,0,0,0,.1.6.55.55,0,0,0,.3.5,1.538,1.538,0,0,0,.6.4.713.713,0,0,1,.3.6c0,.2,0,.3-.1.4a1.381,1.381,0,0,1-.4.3.781.781,0,0,0-.4.4,1.628,1.628,0,0,0-.3.6,2.639,2.639,0,0,1-.1.7v1.4a2,2,0,0,1-.2.9,1.7,1.7,0,0,1-.6.6,2.92,2.92,0,0,1-.9.2c-.6,0-.9-.2-.9-.7a.749.749,0,0,1,.1-.5.52.52,0,0,1,.4-.2c.2,0,.3-.1.4-.1s.1-.1.2-.2.1-.2.1-.4v-.9a5.283,5.283,0,0,1,.1-1.3,6.889,6.889,0,0,1,.3-.8l.6-.6C96.1,118.2,95.9,118,95.7,117.8Z" fill="#fff"/>
        <path id="Path_31017" data-name="Path 31017" d="M91.4,121.4a.908.908,0,0,1-.3-.7,1.061,1.061,0,0,1,.9-.9.713.713,0,0,1,.6.3.864.864,0,0,1,.3.6.908.908,0,0,1-.3.7.735.735,0,0,1-.6.2A.845.845,0,0,1,91.4,121.4Z" fill="#fff"/>
        <path id="Path_31018" data-name="Path 31018" d="M87.6,121.4a.908.908,0,0,1-.3-.7,1.061,1.061,0,0,1,.9-.9.713.713,0,0,1,.6.3.864.864,0,0,1,.3.6.908.908,0,0,1-.3.7.735.735,0,0,1-.6.2A1.421,1.421,0,0,1,87.6,121.4Z" fill="#fff"/>
        <path id="Path_31019" data-name="Path 31019" d="M83.9,121.4a.908.908,0,0,1-.3-.7,1.061,1.061,0,0,1,.9-.9.713.713,0,0,1,.6.3.864.864,0,0,1,.3.6.908.908,0,0,1-.3.7.735.735,0,0,1-.6.2A.845.845,0,0,1,83.9,121.4Z" fill="#fff"/>
        <path id="Path_31020" data-name="Path 31020" d="M80.7,119a1.136,1.136,0,0,1,.3.8,4.512,4.512,0,0,1,.1,1.3v.8c0,.2,0,.3.1.4a.215.215,0,0,0,.2.2c.1,0,.2.1.4.1a.367.367,0,0,1,.3.1l.2.2c0,.1.1.2.1.4a.764.764,0,0,1-.2.5,1.072,1.072,0,0,1-.6.2,1.728,1.728,0,0,1-1.3-.5,1.9,1.9,0,0,1-.5-1.3v-1.4c0-.4,0-.7-.1-.8,0-.2-.1-.3-.3-.5a1.538,1.538,0,0,0-.6-.4.713.713,0,0,1-.3-.6.749.749,0,0,1,.1-.5,1.381,1.381,0,0,1,.4-.3.781.781,0,0,0,.4-.4,3.33,3.33,0,0,0,.3-.6c0-.1.1-.8.1-2.1a2.388,2.388,0,0,1,.2-.9,1.7,1.7,0,0,1,.6-.6,2.959,2.959,0,0,1,1-.2c.6,0,.8.2.8.7a.749.749,0,0,1-.1.5.52.52,0,0,1-.4.2c-.2,0-.3,0-.4.1-.1,0-.1.1-.2.2,0,.1-.1.2-.1.4v.8a3.083,3.083,0,0,1-.1,1,1.445,1.445,0,0,1-.2.7,1.729,1.729,0,0,1-.8.9A1.7,1.7,0,0,1,80.7,119Z" fill="#fff"/>
      </g>
    </g>
    <g id="Group_2965" data-name="Group 2965">
      <path id="Path_31021" data-name="Path 31021" d="M89.5,24.2h15a6.061,6.061,0,0,1,6.1,6.1v1.9l2.4,1.6a.85.85,0,0,1,0,1.5l-2.4,1.6v1.9a6.061,6.061,0,0,1-6.1,6.1h-15a6.061,6.061,0,0,1-6.1-6.1V30.2A6.1,6.1,0,0,1,89.5,24.2Z" fill="#8fc4e6"/>
      <g id="Group_2964" data-name="Group 2964" opacity="0.5">
        <path id="Path_31022" data-name="Path 31022" d="M96.9,36.2a2.92,2.92,0,0,1-.2.9,2.361,2.361,0,0,1-.6.9,2.589,2.589,0,0,1-1.1.7,3.808,3.808,0,0,1-1.6.3,4.121,4.121,0,0,1-1.2-.1,3,3,0,0,1-1-.4,2.7,2.7,0,0,1-.8-.7l-.6-.9a3.582,3.582,0,0,1-.4-1.1,4.869,4.869,0,0,1-.1-1.2,5.822,5.822,0,0,1,.3-1.9,4.194,4.194,0,0,1,.9-1.4,3.805,3.805,0,0,1,1.3-.9,4.146,4.146,0,0,1,1.6-.3,4.058,4.058,0,0,1,1.9.4,3.057,3.057,0,0,1,1.2,1,1.922,1.922,0,0,1,.4,1.2.764.764,0,0,1-.2.5c-.1.2-.3.2-.5.2a.764.764,0,0,1-.5-.2c-.1-.1-.2-.3-.4-.5a3.915,3.915,0,0,0-.8-1,2.016,2.016,0,0,0-1.1-.3,2.136,2.136,0,0,0-1.7.8,3.715,3.715,0,0,0-.6,2.3,4.309,4.309,0,0,0,.3,1.7,2.723,2.723,0,0,0,.8,1,2.133,2.133,0,0,0,1.2.3,2.01,2.01,0,0,0,1.3-.4,2.421,2.421,0,0,0,.8-1.1l.3-.6a.725.725,0,0,1,1,0C96.8,35.8,96.9,36,96.9,36.2Z" fill="#fff"/>
        <path id="Path_31023" data-name="Path 31023" d="M98.5,33.4a.6.6,0,0,1,.3-.6.735.735,0,0,1,.6-.2,1.421,1.421,0,0,1,.6.2A.851.851,0,1,1,98.8,34,.6.6,0,0,1,98.5,33.4Zm.9,5.6a1.421,1.421,0,0,1-.6-.2.908.908,0,0,1-.3-.7,1.061,1.061,0,0,1,.9-.9.713.713,0,0,1,.6.3.864.864,0,0,1,.3.6.908.908,0,0,1-.3.7C99.9,39,99.7,39,99.4,39Z" fill="#fff"/>
        <path id="Path_31024" data-name="Path 31024" d="M104.4,31.4l-1.6,6.7a1.087,1.087,0,0,0-.1.5c0,.1-.1.2-.2.3s-.2.1-.4.1c-.4,0-.6-.2-.6-.5a2.639,2.639,0,0,1,.1-.7l1.6-6.7c.1-.4.2-.6.2-.7a.588.588,0,0,1,.5-.2c.2,0,.3,0,.4.1a.52.52,0,0,1,.2.4A5.639,5.639,0,0,0,104.4,31.4Z" fill="#fff"/>
      </g>
    </g>
    <g id="Group_2967" data-name="Group 2967">
      <path id="Path_31025" data-name="Path 31025" d="M26.9,169.4a5.7,5.7,0,0,1-5.7,5.7H5.7A5.7,5.7,0,0,1,0,169.4V153.9a5.7,5.7,0,0,1,5.7-5.7H21.2a5.7,5.7,0,0,1,5.7,5.7Z" fill="#8fc4e6"/>
      <g id="Group_2966" data-name="Group 2966" opacity="0.5">
        <path id="Path_31026" data-name="Path 31026" d="M10.6,157.1l-1.4,3.7-4.3-2.9,2.8-2.7" fill="none" stroke="#fff" stroke-linecap="round" stroke-linejoin="round" stroke-miterlimit="10" stroke-width="1"/>
        <path id="Path_31027" data-name="Path 31027" d="M13.4,157.1h2.9l2.9-1.9-2.7-1.1H10.4l-2.7,1.1,2.9,1.9Z" fill="none" stroke="#fff" stroke-linecap="round" stroke-linejoin="round" stroke-miterlimit="10" stroke-width="1"/>
        <path id="Path_31028" data-name="Path 31028" d="M16.3,157.1l1.4,3.7,4.3-2.9-2.8-2.7" fill="none" stroke="#fff" stroke-linecap="round" stroke-linejoin="round" stroke-miterlimit="10" stroke-width="1"/>
        <path id="Path_31029" data-name="Path 31029" d="M22,157.9l-8.6,11.4,4.3-8.5H9.2l4.2,8.5L4.9,157.9" fill="none" stroke="#fff" stroke-linecap="round" stroke-linejoin="round" stroke-miterlimit="10" stroke-width="1"/>
      </g>
    </g>
    <g id="Group_2969" data-name="Group 2969">
      <path id="Path_31030" data-name="Path 31030" d="M282.2.1H265.3A6.914,6.914,0,0,0,258.4,7V9.1l-2.8,1.8a.951.951,0,0,0,0,1.7l2.8,1.8v2.1a6.914,6.914,0,0,0,6.9,6.9h16.9a6.914,6.914,0,0,0,6.9-6.9V7A6.788,6.788,0,0,0,282.2.1Z" fill="#8fc4e6"/>
      <g id="Group_2968" data-name="Group 2968" opacity="0.5">
        <path id="Path_31031" data-name="Path 31031" d="M283.8,12.3l-4.6-1.8V8.6l6.6,2.9v1.6L279.2,16V14.1Z" fill="#fff"/>
        <path id="Path_31032" data-name="Path 31032" d="M271.5,7.8a.52.52,0,0,1,.2-.4.764.764,0,0,1,.5-.2.588.588,0,0,1,.5.2,2.191,2.191,0,0,1,.3.8l1.8,7.6a3.216,3.216,0,0,1,.1.8c0,.4-.2.6-.7.6-.2,0-.3,0-.4-.1s-.2-.2-.2-.3a3.932,3.932,0,0,0-.2-.6l-1.8-7.6C271.6,8.2,271.5,8,271.5,7.8Z" fill="#fff"/>
        <path id="Path_31033" data-name="Path 31033" d="M260.7,11.5l6.6-2.9v1.9l-4.6,1.8,4.6,1.8V16l-6.6-2.9Z" fill="#fff"/>
      </g>
    </g>
    <g id="Group_2975" data-name="Group 2975">
      <g id="Group_2970" data-name="Group 2970">
        <path id="Path_31034" data-name="Path 31034" d="M180.5,37.5a3.68,3.68,0,1,1-.2-5.2A3.655,3.655,0,0,1,180.5,37.5Z" fill="#8fc4e6"/>
      </g>
      <g id="Group_2971" data-name="Group 2971">
        <path id="Path_31035" data-name="Path 31035" d="M195.3,55.4a3.68,3.68,0,1,1-.2-5.2A3.655,3.655,0,0,1,195.3,55.4Z" fill="#8fc4e6"/>
      </g>
      <g id="Group_2972" data-name="Group 2972">
        <path id="Path_31036" data-name="Path 31036" d="M161.5,41.5a2.476,2.476,0,1,1-.1-3.5A2.608,2.608,0,0,1,161.5,41.5Z" fill="#8fc4e6"/>
      </g>
      <g id="Group_2973" data-name="Group 2973">
        <rect id="Rectangle_1011" data-name="Rectangle 1011" width="1.1" height="16.1" transform="matrix(0.76, -0.65, 0.65, 0.76, 180.102, 37.883)" fill="#8fc4e6"/>
      </g>
      <g id="Group_2974" data-name="Group 2974">
        <rect id="Rectangle_1012" data-name="Rectangle 1012" width="13.8" height="1.1" transform="matrix(0.965, -0.264, 0.264, 0.965, 160.789, 38.917)" fill="#8fc4e6"/>
      </g>
    </g>
    <g id="Group_2981" data-name="Group 2981">
      <g id="Group_2976" data-name="Group 2976">
        <path id="Path_31037" data-name="Path 31037" d="M398.4,186.4a2.183,2.183,0,1,1,2.8,1.3A2.271,2.271,0,0,1,398.4,186.4Z" fill="#8fc4e6"/>
      </g>
      <g id="Group_2977" data-name="Group 2977">
        <path id="Path_31038" data-name="Path 31038" d="M385,189.5a2.183,2.183,0,1,1,2.8,1.3A2.147,2.147,0,0,1,385,189.5Z" fill="#8fc4e6"/>
      </g>
      <g id="Group_2978" data-name="Group 2978">
        <path id="Path_31039" data-name="Path 31039" d="M401.4,175.2a1.487,1.487,0,1,1,1.9.9A1.446,1.446,0,0,1,401.4,175.2Z" fill="#8fc4e6"/>
      </g>
      <g id="Group_2979" data-name="Group 2979">
        <rect id="Rectangle_1013" data-name="Rectangle 1013" width="9.5" height="0.7" transform="translate(389.058 188.356) rotate(-13.881)" fill="#8fc4e6"/>
      </g>
      <g id="Group_2980" data-name="Group 2980">
        <rect id="Rectangle_1014" data-name="Rectangle 1014" width="8.2" height="0.7" transform="matrix(0.197, -0.98, 0.98, 0.197, 400.616, 183.448)" fill="#8fc4e6"/>
      </g>
    </g>
    <g id="Group_2987" data-name="Group 2987">
      <g id="Group_2982" data-name="Group 2982">
        <path id="Path_31040" data-name="Path 31040" d="M45.5,146.3a1.991,1.991,0,1,1-.3,2.8A1.95,1.95,0,0,1,45.5,146.3Z" fill="#8fc4e6"/>
      </g>
      <g id="Group_2983" data-name="Group 2983">
        <path id="Path_31041" data-name="Path 31041" d="M39,135.4a1.991,1.991,0,1,1-.3,2.8A2.041,2.041,0,0,1,39,135.4Z" fill="#8fc4e6"/>
      </g>
      <g id="Group_2984" data-name="Group 2984">
        <path id="Path_31042" data-name="Path 31042" d="M56.1,145.8a1.351,1.351,0,1,1-.2,1.9A1.309,1.309,0,0,1,56.1,145.8Z" fill="#8fc4e6"/>
      </g>
      <g id="Group_2985" data-name="Group 2985">
        <rect id="Rectangle_1015" data-name="Rectangle 1015" width="0.8" height="8.8" transform="translate(40.566 139.055) rotate(-31.427)" fill="#8fc4e6"/>
      </g>
      <g id="Group_2986" data-name="Group 2986">
        <rect id="Rectangle_1016" data-name="Rectangle 1016" width="7.5" height="0.8" transform="matrix(0.994, -0.108, 0.108, 0.994, 48.688, 147.407)" fill="#8fc4e6"/>
      </g>
    </g>
    <path id="Path_31043" data-name="Path 31043" d="M386.8,118.5a4.8,4.8,0,0,1-4.8,4.8H362a4.8,4.8,0,0,1-4.8-4.8v-20a4.8,4.8,0,0,1,4.8-4.8h20a4.8,4.8,0,0,1,4.8,4.8Z" fill="#8fc4e6"/>
    <path id="Path_31044" data-name="Path 31044" d="M408.7,126.6a1.793,1.793,0,0,1-1.8,1.8h-7.5a1.793,1.793,0,0,1-1.8-1.8v-7.5a1.793,1.793,0,0,1,1.8-1.8h7.5a1.793,1.793,0,0,1,1.8,1.8Z" fill="#8fc4e6"/>
    <path id="Path_31045" data-name="Path 31045" d="M57.1,88.2a1.9,1.9,0,0,1-1.9,1.9H47.4a1.9,1.9,0,0,1-1.9-1.9V80.4a1.9,1.9,0,0,1,1.9-1.9h7.8a1.9,1.9,0,0,1,1.9,1.9Z" fill="#8fc4e6"/>
    <path id="Path_31046" data-name="Path 31046" d="M58.9,51.4l1.6-1.6a.636.636,0,1,0-.9-.9L58,50.5l-1.6-1.6a.636.636,0,1,0-.9.9l1.6,1.6L55.6,53a.746.746,0,0,0,0,.9.6.6,0,0,0,.4.1.52.52,0,0,0,.4-.2L58,52.2l1.6,1.6a.758.758,0,0,0,.4.2.52.52,0,0,0,.4-.2.746.746,0,0,0,0-.9Z" fill="#fff" opacity="0.2"/>
    <path id="Path_31047" data-name="Path 31047" d="M14.3,128.4l1.6-1.6a.636.636,0,0,0-.9-.9l-1.6,1.6-1.6-1.6a.746.746,0,0,0-.9,0c-.3.2-.2.6,0,.9l1.6,1.6L11,130a.746.746,0,0,0,0,.9.758.758,0,0,0,.4.2.758.758,0,0,0,.4-.2l1.6-1.6,1.6,1.6a.758.758,0,0,0,.4.2.52.52,0,0,0,.4-.2.746.746,0,0,0,0-.9Z" fill="#fff" opacity="0.2"/>
    <path id="Path_31048" data-name="Path 31048" d="M219.7,39l1.6-1.6a.636.636,0,1,0-.9-.9l-1.6,1.6-1.6-1.6a.636.636,0,1,0-.9.9L218,39l-1.6,1.6a.746.746,0,0,0,0,.9.5.5,0,0,0,.8,0l1.6-1.6,1.6,1.6a.5.5,0,0,0,.8,0,.746.746,0,0,0,0-.9Z" fill="#fff" opacity="0.2"/>
    <path id="Path_31049" data-name="Path 31049" d="M345.6,87.4l1.6-1.6a.636.636,0,1,0-.9-.9l-1.6,1.6-1.6-1.6a.636.636,0,0,0-.9.9l1.6,1.6L342.2,89a.746.746,0,0,0,0,.9.758.758,0,0,0,.4.2.52.52,0,0,0,.4-.2l1.6-1.6,1.6,1.6a.758.758,0,0,0,.4.2.52.52,0,0,0,.4-.2.746.746,0,0,0,0-.9Z" fill="#fff" opacity="0.2"/>
    <path id="Path_31050" data-name="Path 31050" d="M409.6,201.8l1.6-1.6a.746.746,0,0,0,0-.9c-.2-.3-.6-.2-.9,0l-1.6,1.6-1.6-1.6a.636.636,0,0,0-.9.9l1.6,1.6-1.6,1.6a.746.746,0,0,0,0,.9.5.5,0,0,0,.8,0l1.6-1.6,1.6,1.6a.758.758,0,0,0,.4.2.52.52,0,0,0,.4-.2.746.746,0,0,0,0-.9Z" fill="#fff" opacity="0.2"/>
    <path id="Path_31051" data-name="Path 31051" d="M90.4,147.9l1.6-1.6a.636.636,0,0,0-.9-.9L89.5,147l-1.6-1.6a.636.636,0,0,0-.9.9l1.6,1.6L87,149.5a.746.746,0,0,0,0,.9.758.758,0,0,0,.4.2.52.52,0,0,0,.4-.2l1.6-1.6,1.6,1.6a.758.758,0,0,0,.4.2.52.52,0,0,0,.4-.2.746.746,0,0,0,0-.9Z" fill="#fff" opacity="0.2"/>
    <g id="Group_2988" data-name="Group 2988" opacity="0.2">
      <path id="Path_31052" data-name="Path 31052" d="M142.8,23.9a3.222,3.222,0,0,1-3.2-3.2,3.29,3.29,0,0,1,3.2-3.2,3.2,3.2,0,0,1,0,6.4Zm0-5.3a2,2,0,1,0,2,2A2.006,2.006,0,0,0,142.8,18.6Z" fill="#fff"/>
    </g>
    <g id="Group_2989" data-name="Group 2989" opacity="0.2">
      <path id="Path_31053" data-name="Path 31053" d="M48.3,116.9a3.2,3.2,0,1,1,0-6.4,3.29,3.29,0,0,1,3.2,3.2A3.222,3.222,0,0,1,48.3,116.9Zm0-5.3a2,2,0,1,0,2,2A2.006,2.006,0,0,0,48.3,111.6Z" fill="#fff"/>
    </g>
    <g id="Group_2990" data-name="Group 2990" opacity="0.2">
      <path id="Path_31054" data-name="Path 31054" d="M34.4,226.4a3.2,3.2,0,1,1,3.2-3.2A3.29,3.29,0,0,1,34.4,226.4Zm0-5.3a2,2,0,1,0,2,2A2.006,2.006,0,0,0,34.4,221.1Z" fill="#fff"/>
    </g>
    <g id="Group_2991" data-name="Group 2991" opacity="0.2">
      <path id="Path_31055" data-name="Path 31055" d="M340.4,24.5a3.2,3.2,0,1,1,0-6.4,3.29,3.29,0,0,1,3.2,3.2A3.158,3.158,0,0,1,340.4,24.5Zm0-5.3a2,2,0,1,0,2,2A2.006,2.006,0,0,0,340.4,19.2Z" fill="#fff"/>
    </g>
    <g id="Group_2992" data-name="Group 2992" opacity="0.2">
      <path id="Path_31056" data-name="Path 31056" d="M369.3,142.5a3.2,3.2,0,1,1,0-6.4,3.29,3.29,0,0,1,3.2,3.2A3.158,3.158,0,0,1,369.3,142.5Zm0-5.3a2,2,0,1,0,2,2A2.006,2.006,0,0,0,369.3,137.2Z" fill="#fff"/>
    </g>
    <g id="Group_2997" data-name="Group 2997">
      <g id="Group_2993" data-name="Group 2993">
        <path id="Path_31057" data-name="Path 31057" d="M134.7,59.9H259a7.7,7.7,0,0,1,7.7,7.7V302.9a7.7,7.7,0,0,1-7.7,7.7H134.7a7.7,7.7,0,0,1-7.7-7.7V67.6A7.64,7.64,0,0,1,134.7,59.9Z" fill="#3679bc"/>
        <rect id="Rectangle_1017" data-name="Rectangle 1017" width="128.1" height="195.7" transform="translate(260.91 283.087) rotate(180)" fill="#fff"/>
        <path id="Path_31058" data-name="Path 31058" d="M176.7,75.6V74.1a.945.945,0,0,1,1-1H216a.945.945,0,0,1,1,1v1.5a.945.945,0,0,1-1,1H177.8A1.028,1.028,0,0,1,176.7,75.6Z" fill="#8fc4e6"/>
        <circle id="Ellipse_98" data-name="Ellipse 98" cx="7.7" cy="7.7" r="7.7" transform="translate(189.2 288.2)" fill="#8fc4e6"/>
      </g>
      <g id="Group_2996" data-name="Group 2996">
        <g id="Group_2994" data-name="Group 2994">
          <path id="Path_31059" data-name="Path 31059" d="M250.2,271.9H144.5a1.774,1.774,0,0,1-1.7-1.8V253.3l8.1-8.4h99.3a1.774,1.774,0,0,1,1.7,1.8v23.4A1.774,1.774,0,0,1,250.2,271.9Z" fill="#0964af" opacity="0.25"/>
          <path id="Path_31060" data-name="Path 31060" d="M149.2,253.3h-6.4l8.1-8.4v6.6A1.774,1.774,0,0,1,149.2,253.3Z" fill="#0964af" opacity="0.25"/>
        </g>
        <rect id="Rectangle_1018" data-name="Rectangle 1018" width="27.6" height="51.5" transform="translate(141.8 113.2)" fill="#0964af" opacity="0.25"/>
        <rect id="Rectangle_1019" data-name="Rectangle 1019" width="43.7" height="39.6" transform="translate(208.1 197.3)" fill="#0964af" opacity="0.25"/>
        <rect id="Rectangle_1020" data-name="Rectangle 1020" width="27" height="27" transform="translate(224.9 113.2)" fill="#0964af" opacity="0.25"/>
        <rect id="Rectangle_1021" data-name="Rectangle 1021" width="78.7" height="9.2" transform="translate(173.2 98.6)" fill="#0964af" opacity="0.25"/>
        <rect id="Rectangle_1022" data-name="Rectangle 1022" width="45.2" height="4.4" transform="translate(173.7 113.2)" fill="#0964af" opacity="0.25"/>
        <rect id="Rectangle_1023" data-name="Rectangle 1023" width="45.2" height="4.4" transform="translate(173.7 124.5)" fill="#0964af" opacity="0.25"/>
        <rect id="Rectangle_1024" data-name="Rectangle 1024" width="45.2" height="4.4" transform="translate(173.7 135.8)" fill="#0964af" opacity="0.25"/>
        <rect id="Rectangle_1025" data-name="Rectangle 1025" width="78.2" height="4.4" transform="translate(173.7 147.1)" fill="#0964af" opacity="0.25"/>
        <rect id="Rectangle_1026" data-name="Rectangle 1026" width="78.2" height="4.4" transform="translate(173.7 158.4)" fill="#0964af" opacity="0.25"/>
        <path id="Path_31061" data-name="Path 31061" d="M147.8,101.6a3,3,0,0,1-6,0,3,3,0,0,1,6,0Z" fill="#0964af" opacity="0.25"/>
        <path id="Path_31062" data-name="Path 31062" d="M158.6,101.6a3.009,3.009,0,0,1-3,3,3,3,0,1,1,3-3Z" fill="#0964af" opacity="0.25"/>
        <path id="Path_31063" data-name="Path 31063" d="M169.5,101.6a3,3,0,0,1-6,0,2.946,2.946,0,0,1,3-3A3.009,3.009,0,0,1,169.5,101.6Z" fill="#0964af" opacity="0.25"/>
        <g id="Group_2995" data-name="Group 2995">
          <rect id="Rectangle_1027" data-name="Rectangle 1027" width="58.2" height="4.7" transform="translate(201.042 237.198) rotate(180)" fill="#0964af" opacity="0.25"/>
          <rect id="Rectangle_1028" data-name="Rectangle 1028" width="58.2" height="4.7" transform="translate(201.042 225.463) rotate(180)" fill="#0964af" opacity="0.25"/>
          <rect id="Rectangle_1029" data-name="Rectangle 1029" width="58.2" height="4.7" transform="translate(201.042 213.728) rotate(180)" fill="#0964af" opacity="0.25"/>
          <rect id="Rectangle_1030" data-name="Rectangle 1030" width="58.2" height="4.7" transform="translate(201.042 201.893) rotate(180)" fill="#0964af" opacity="0.25"/>
          <rect id="Rectangle_1031" data-name="Rectangle 1031" width="109.1" height="4.7" transform="translate(251.878 190.158) rotate(180)" fill="#0964af" opacity="0.25"/>
          <rect id="Rectangle_1032" data-name="Rectangle 1032" width="109.1" height="4.7" transform="translate(251.878 178.423) rotate(180)" fill="#0964af" opacity="0.25"/>
        </g>
      </g>
    </g>
    <g id="Group_2998" data-name="Group 2998">
      <path id="Path_31064" data-name="Path 31064" d="M146,291.7H100.9l8.9-11.8h45.1Z" fill="#2ab8ea"/>
      <path id="Path_31065" data-name="Path 31065" d="M146,291.7V323l8.9-11.8V279.9Z" fill="#2297c6"/>
      <rect id="Rectangle_1033" data-name="Rectangle 1033" width="45.1" height="31.3" transform="translate(100.9 291.7)" fill="#24abe2"/>
    </g>
    <ellipse id="Ellipse_99" data-name="Ellipse 99" cx="20.2" cy="4.2" rx="20.2" ry="4.2" transform="translate(108.2 282)" fill="#2ab8ea" opacity="0.57"/>
    <g id="Group_3019" data-name="Group 3019">
      <g id="Group_2999" data-name="Group 2999">
        <path id="Path_31066" data-name="Path 31066" d="M138.7,151.9c.6-1.9,3.7-6.3,3.1-7.2-.1-.2-1.4,1.4-2.6,3,.5-.9,1-1.8,1.4-2.7.2-.4.3-1-.1-1.3a17.554,17.554,0,0,0-2.4,3c.5-1,.8-1.8.5-2.1-.2-.3-1.5,1.5-2.5,3.2.6-1.2,1.1-2.4.8-2.6-.5-.3-3.8,5.5-5.2,9.4-1.1,3-3,5.3-3.9,7.5l6.7-.5a22.365,22.365,0,0,1,1.4-4.4c.8-1.3,2.6-2,3.5-3.8.7-1.2,2.4-3.2,1.8-3.7C140.7,149.4,139.3,151.9,138.7,151.9Z" fill="#ffb67e"/>
      </g>
      <g id="Group_3010" data-name="Group 3010">
        <g id="Group_3001" data-name="Group 3001">
          <g id="Group_3000" data-name="Group 3000">
            <path id="Path_31067" data-name="Path 31067" d="M121.3,284.3l-7.3,1.4a9.76,9.76,0,0,1,.5-2.6,7.218,7.218,0,0,0,.9-2c.9-4.3-1.9-24.5-.8-32.1-.2-15.3.1-30.4-2.2-37-2.5-7,11.1-8.2,12.3,0s-4.1,69-2.8,69.8c2,1.3,5.6,1.4,5.6,2.4S121.3,284.3,121.3,284.3Z" fill="#ffb67e"/>
            <path id="Path_31068" data-name="Path 31068" d="M130.3,286.4c-.5,1.7-12.6,1.4-15,1.4s-1.3-4-.7-4.3c.6-.2,3.4,1.3,6.9,1,.8-.1-1.1-1.8-1-2.5,1.4-.8,2.6.9,3.3,1.2C124.4,283.5,130.9,284.3,130.3,286.4Z" fill="#84dbef"/>
            <path id="Path_31069" data-name="Path 31069" d="M130.1,285.7c-.5,1.7-12.6,1.4-15,1.4s-1.3-4-.7-4.3c1.1.7,2.6,1.1,6.1.7.8-.1-.8-1.7.5-2.4,1.4-.8,1.8,1.1,2.5,1.4S130.7,283.6,130.1,285.7Z" fill="#063160"/>
          </g>
          <path id="Path_31070" data-name="Path 31070" d="M122.4,283.5a2.07,2.07,0,0,1,1.1-1.3" fill="none" stroke="#84dbef" stroke-linecap="round" stroke-linejoin="round" stroke-miterlimit="10" stroke-width="0.5"/>
          <path id="Path_31071" data-name="Path 31071" d="M124,283.9a2.342,2.342,0,0,1,1.2-1.2" fill="none" stroke="#84dbef" stroke-linecap="round" stroke-linejoin="round" stroke-miterlimit="10" stroke-width="0.5"/>
          <path id="Path_31072" data-name="Path 31072" d="M125.3,284.3a2.545,2.545,0,0,1,1.1-1.2" fill="none" stroke="#84dbef" stroke-linecap="round" stroke-linejoin="round" stroke-miterlimit="10" stroke-width="0.5"/>
        </g>
        <g id="Group_3002" data-name="Group 3002">
          <path id="Path_31073" data-name="Path 31073" d="M126.5,221.8c.4,14.2-1.5,37.9-3.7,53.6h0c-.1.8-.2,1.5-.3,2.3a17.014,17.014,0,0,1-8.6-1.4c-1.4-10.2-1.7-35.3-2.7-43.4-.7-6.4-7-23.5-.8-43.3l13.4,3.2,2.8.7.2.1-.4,9.4-.1,15.1C126.4,219.1,126.4,220.4,126.5,221.8Z" fill="#184580"/>
        </g>
        <g id="Group_3003" data-name="Group 3003">
          <path id="Path_31074" data-name="Path 31074" d="M123.2,275.6c-.5-.4-9.5-.1-9.7,0a4.454,4.454,0,0,0,.3,2.3c.3.1,8.6.2,9,0C123.1,277.7,123.7,276,123.2,275.6Z" fill="#1a60a0"/>
        </g>
        <g id="Group_3005" data-name="Group 3005">
          <g id="Group_3004" data-name="Group 3004">
            <path id="Path_31075" data-name="Path 31075" d="M135.1,285.4l-7.3,1.4a9.76,9.76,0,0,1,.5-2.6,7.218,7.218,0,0,0,.9-2c.9-4.3-1.9-24.5-.8-32.1-.2-15.3.1-30.4-2.2-37-2.5-7,6.2-11.4,7.4-3.2.5,3.8,4.6,22,3.7,37.2-1.1,17.6-2.3,35.3-1.6,35.8,2,1.3,5.6,1.4,5.6,2.4C141.3,286.2,135.1,285.4,135.1,285.4Z" fill="#ffb67e"/>
            <path id="Path_31076" data-name="Path 31076" d="M144.2,287.5c-.5,1.7-12.6,1.4-15,1.4s-1.3-4-.7-4.3c.6-.2,3.4,1.3,6.9,1,.8-.1-1.1-1.8-1-2.5,1.4-.8,2.6.9,3.3,1.2C138.3,284.5,144.7,285.3,144.2,287.5Z" fill="#84dbef"/>
            <path id="Path_31077" data-name="Path 31077" d="M143.9,286.8c-.5,1.7-12.6,1.4-15,1.4s-1.3-4-.7-4.3c1.1.7,2.6,1.1,6.1.7.8-.1-.8-1.7.5-2.4,1.4-.8,1.8,1.1,2.5,1.4C138,283.8,144.5,284.6,143.9,286.8Z" fill="#033473"/>
          </g>
          <path id="Path_31078" data-name="Path 31078" d="M136.3,284.6a2.07,2.07,0,0,1,1.1-1.3" fill="none" stroke="#84dbef" stroke-linecap="round" stroke-linejoin="round" stroke-miterlimit="10" stroke-width="0.5"/>
          <path id="Path_31079" data-name="Path 31079" d="M137.8,285a2.342,2.342,0,0,1,1.2-1.2" fill="none" stroke="#84dbef" stroke-linecap="round" stroke-linejoin="round" stroke-miterlimit="10" stroke-width="0.5"/>
          <path id="Path_31080" data-name="Path 31080" d="M139.1,285.3a2.545,2.545,0,0,1,1.1-1.2" fill="none" stroke="#84dbef" stroke-linecap="round" stroke-linejoin="round" stroke-miterlimit="10" stroke-width="0.5"/>
        </g>
        <g id="Group_3006" data-name="Group 3006">
          <path id="Path_31081" data-name="Path 31081" d="M126.5,221.8c.4,14.2-1.5,37.9-3.7,53.6-1.2-13.6,1.6-31.9-3.9-57.2a25.744,25.744,0,0,1-.1-9.2S126.4,220.9,126.5,221.8Z" fill="#6fdef7"/>
        </g>
        <g id="Group_3007" data-name="Group 3007">
          <path id="Path_31082" data-name="Path 31082" d="M136.3,277.7a6.766,6.766,0,0,0-2.7-.7c-1.9-.1-3.9.3-6-.4-2-10-1-38.1-3.6-48.4-.7-3-4.7-15.8-5.3-19.8-1-6.2-.1-13.3,1-18.9H135c2.9,6.7,2.9,14.7,3.3,21.8,0,.9.1,1.8.1,2.7C138.9,231.4,138.2,262.1,136.3,277.7Z" fill="#184580"/>
        </g>
        <g id="Group_3008" data-name="Group 3008">
          <path id="Path_31083" data-name="Path 31083" d="M136.3,277.7a6.766,6.766,0,0,0-2.7-.7c-.1-5.8.2-42.7,0-52.3-.2-6.1-.3-12.3-1.8-18.3-1.4-6-4.3-11.8-8.9-15.8l1.2-1.1H135c2.9,6.7,2.9,14.7,3.3,21.8,0,.9.1,1.8.1,2.7C138.9,231.4,138.2,262.1,136.3,277.7Z" fill="#6fdef7"/>
        </g>
        <g id="Group_3009" data-name="Group 3009">
          <path id="Path_31084" data-name="Path 31084" d="M136.9,276.5c-.5-.4-9.4-.1-9.5,0a3.861,3.861,0,0,0,.3,2.1,88.056,88.056,0,0,0,8.9,0C136.9,278.4,137.4,276.9,136.9,276.5Z" fill="#1a60a0"/>
        </g>
      </g>
      <g id="Group_3011" data-name="Group 3011">
        <path id="Path_31085" data-name="Path 31085" d="M130.2,134c3.4,1,2.6,2.8.4,3.3" fill="#ffb67e"/>
      </g>
      <g id="Group_3012" data-name="Group 3012">
        <path id="Path_31086" data-name="Path 31086" d="M138.5,204.2a14.833,14.833,0,0,1-4.5,3.5,19.959,19.959,0,0,1-8.4,2h-1c-9,.1-18-3.7-18-4.4.9-7.7.5-28.8.5-35.2.1-17.3,6.6-20.2,11.1-21l3.8.2c7.8-2.5,15.4,13.5,15.1,14.6.1,1,.2,3.8.2,7.5C137.3,180.6,137.3,195.3,138.5,204.2Z" fill="#f6cb4d"/>
      </g>
      <g id="Group_3013" data-name="Group 3013">
        <path id="Path_31087" data-name="Path 31087" d="M138.5,204.2a14.833,14.833,0,0,1-4.5,3.5,23.023,23.023,0,0,1-8.4,2h-1c2.5-.7,9.1-4.8,9.7-12.3.1-.8-.3-24.3-.6-31.4l3.6,5.5C137.3,180.6,137.3,195.3,138.5,204.2Z" fill="#f3a63f"/>
      </g>
      <path id="Path_31088" data-name="Path 31088" d="M142,163.2l2.2,2.5s-2.1,11.3-3.3,8.8a59.972,59.972,0,0,1-2.6-8.2Z" fill="#f3a63f"/>
      <g id="Group_3014" data-name="Group 3014">
        <path id="Path_31089" data-name="Path 31089" d="M170,155.4c.3-.8-3.6,1.9-4.8,2.7,2.8-2.2,4.6-4.2,4.3-4.6s-4.6,3.1-5.5,3.6c.7-.8,4.3-3.8,3.8-4.5-.2-.3-3.3,2.4-5.2,3.7.9-.9,1.3-1.3,1.2-2-.2-1.2-4.6,4.4-6.1,6-.6.6-10.4,4.2-11.4,4.4-1.2.2-8.1-7.2-8.1-7.2l-3.6,7.9c4.9,3.6,8.6,7,10.4,7.3,2.5.4,13.9-8.1,15-8.4,2.2-.5,5.8-3,7.2-4.2,1-.8,2.6-1.9,2.8-2.5s-2.7,1.2-4.3,2.1C167.4,158.3,169.7,156.1,170,155.4Z" fill="#ffb67e"/>
      </g>
      <g id="Group_3015" data-name="Group 3015">
        <path id="Path_31090" data-name="Path 31090" d="M144.2,163.1c-7.2-8.8-14.7-13.3-20.9-14.5l7,16.8c2.8,3.7,6.3,7.3,10.9,9.4C140.3,169.5,143,163.6,144.2,163.1Z" fill="#f6cb4d"/>
      </g>
      <path id="Path_31091" data-name="Path 31091" d="M118.5,149.2a36.936,36.936,0,0,1,.3-6.7c.5-3.4,7.5-3.2,6.6.1a11.078,11.078,0,0,0,.3,6.6C125.7,151.2,119,152.8,118.5,149.2Z" fill="#ffb67e"/>
      <g id="Group_3016" data-name="Group 3016">
        <path id="Path_31092" data-name="Path 31092" d="M126.5,126.1c3.8,3,6.9,17.4,4,19.7-1.4,1.1-8.7,3.1-11.5,0" fill="#ffb67e"/>
      </g>
      <path id="Path_31093" data-name="Path 31093" d="M131.1,125.4a2.813,2.813,0,0,0-2.2-.5h-.3l-.1-.1a2.336,2.336,0,0,0,.7-.7c.4-.5.8-1.3.4-1.9a1.377,1.377,0,0,0-1.5-.5,5.443,5.443,0,0,0-2.7.7,1.91,1.91,0,0,0-.7-1.4,2.663,2.663,0,0,0-1.2-.3,5.94,5.94,0,0,0-2.6.7,2.078,2.078,0,0,0-1.9-.5,8.47,8.47,0,0,0-3.4,1.4,2.768,2.768,0,0,0-1.3-.3,2.969,2.969,0,0,0-2,1.3c-.1.2-.3.4-.4.6a2.959,2.959,0,0,0-1-.2,2.514,2.514,0,0,0-1.5.2,1.689,1.689,0,0,0-.8,1.7,2.232,2.232,0,0,0,.6,1.3,5.793,5.793,0,0,0-4.1,2.2,2.245,2.245,0,0,0,.5,3.2,9.5,9.5,0,0,0-1,1.7,2.585,2.585,0,0,0-.1,2.1,3.182,3.182,0,0,0,1.5,1.3.6.6,0,0,0,.4.1,4.951,4.951,0,0,0-.4,1.3,1.95,1.95,0,0,0,.1,1.3,1.314,1.314,0,0,0,1.2.3,6.89,6.89,0,0,0,.8-.3c-.3,2.4.4,3.1,1.7,2.9,0,.3.1.5.1.8a1.64,1.64,0,0,0,.7,1.1c.1.1.2.1.4.1a2.292,2.292,0,0,0,.6,1.5,1.122,1.122,0,0,0,1.6.1c.1,0,.1-.1.2-.2h.1a3.013,3.013,0,0,0,.8,1.7,2.092,2.092,0,0,0,.6.4.91.91,0,0,0,.8-.4c0-.1.1-.1.1-.2,1.1.6,2,1.1,2.6,1.4,3.5,1.9,4.5-2.9,6.5-6.4,2.5-4.4,2.5-5.6,1-10.3.1-.1.1-.2.2-.3h.1A4.1,4.1,0,0,0,129,131a2.22,2.22,0,0,0,.5-1.1,1.816,1.816,0,0,0-.6-1.4,13.322,13.322,0,0,0,1.9-.5,1.612,1.612,0,0,0,.7-.4A1.826,1.826,0,0,0,131.1,125.4Z" fill="#1b3760"/>
      <path id="Path_31094" data-name="Path 31094" d="M131.4,127.4a2.507,2.507,0,0,1-.7.4,10.549,10.549,0,0,1-1.9.5,1.974,1.974,0,0,1,.6,1.4,1.606,1.606,0,0,1-.5,1.1,3.566,3.566,0,0,1-2.8,1.3H126c-.1.1-.1.2-.2.3,1.5,4.8,1.5,6-1,10.3-2,3.5-2.9,8.2-6.5,6.4-.6-.3-1.5-.8-2.6-1.4,0,.1-.1.1-.1.2a.735.735,0,0,1-.8.4c-.2,0-.4-.2-.6-.4a4.02,4.02,0,0,1-.8-1.6,8.286,8.286,0,0,0,2,1.1c3.5.4,4.5-2.9,6.5-6.4,2.5-4.4,2.5-5.6,1-10.3.1-.1.1-.2.2-.3h.1a4.1,4.1,0,0,0,2.8-1.3,3.7,3.7,0,0,0,.5-1.1,1.974,1.974,0,0,0-.6-1.4,13.322,13.322,0,0,0,1.9-.5,1.612,1.612,0,0,0,.7-.4,1.136,1.136,0,0,0,.3-.8h.1a2.813,2.813,0,0,1,2.2.5A1.454,1.454,0,0,1,131.4,127.4Z" fill="#1b3760" opacity="0.55"/>
      <path id="Path_31095" data-name="Path 31095" d="M128.8,124.9h-.2l-.1-.1.3-.3Z" fill="#1b3760"/>
      <g id="Group_3017" data-name="Group 3017">
        <path id="Path_31096" data-name="Path 31096" d="M126.6,140.1a2.944,2.944,0,0,0-1-1.8,1.082,1.082,0,0,0-1.3-.2.864.864,0,0,0-.3.6,6.606,6.606,0,0,0-.3,2.4,3.215,3.215,0,0,0,1,2.1,1.909,1.909,0,0,0,1.6.6c.9-.1.8-.7.9-1.6" fill="#ffb67e"/>
      </g>
      <g id="Group_3018" data-name="Group 3018">
        <path id="Path_31097" data-name="Path 31097" d="M126.6,139.5a2.944,2.944,0,0,0-1-1.8c-.4-.3-1.2-.6-1.6-.3-1.9,1.5,0,4.7.6,5.3a1.909,1.909,0,0,0,1.6.6c.9-.1.8-.7.9-1.6" fill="#ffb67e"/>
      </g>
    </g>
  </g>
</svg>
