<svg xmlns="http://www.w3.org/2000/svg" xmlns:xlink="http://www.w3.org/1999/xlink" width="381.107" height="359" viewBox="0 0 381.107 359">
  <defs>
    <clipPath id="clip-path">
      <path id="Path_31198" data-name="Path 31198" d="M89.728,28.713,79.3,29.056C78.957,14.5,89.041,2.473,101.874,2.244L112.3,1.9C99.468,2.129,89.384,14.161,89.728,28.713Z" transform="translate(-79.293 -1.9)"/>
    </clipPath>
    <clipPath id="clip-path-2">
      <path id="Path_31201" data-name="Path 31201" d="M119.661,294.882l-10.427.344C96.4,295.569,85.744,284,85.4,269.444l10.427-.344C96.171,283.652,106.827,295.111,119.661,294.882Z" transform="translate(-85.4 -269.1)"/>
    </clipPath>
    <linearGradient id="linear-gradient" x1="0.588" y1="0.755" x2="0.415" y2="0.02" gradientUnits="objectBoundingBox">
      <stop offset="0" stop-color="#d37897" stop-opacity="0"/>
      <stop offset="0.937" stop-color="#e26356" stop-opacity="0.698"/>
    </linearGradient>
  </defs>
  <g id="Group_3089" data-name="Group 3089" transform="translate(0 0.006)">
    <g id="Group_3057" data-name="Group 3057" transform="translate(315.718 253.217)">
      <g id="Group_3056" data-name="Group 3056">
        <path id="Path_31189" data-name="Path 31189" d="M285.808,229.939c-.458,4.354,1.719,9.625-1.6,12.375-1.948,1.719-5.042,1.49-6.99,3.208-3.323,2.865-1.146,8.25,1.6,11.688s6.188,7.563,4.469,11.573c-.917,2.063-2.865,3.323-4.125,5.156-2.865,4.01-1.49,9.854,1.49,13.75,7.677,10.083,23.719,10.771,34.49,4.01,3.9-2.406,7.448-5.844,8.708-10.313s-.344-9.854-4.469-11.917c-1.719-.8-3.781-1.26-4.583-2.979-1.375-2.865,2.406-5.271,4.813-7.333,4.469-4.01,4.125-12.146-.688-15.813-2.062-1.49-4.813-2.521-5.729-4.813-.688-1.719-.229-3.552-.229-5.385C313.193,219.512,287.3,215.846,285.808,229.939Z" transform="translate(-275.534 -220.987)" fill="#5bb59b"/>
        <g id="Group_3053" data-name="Group 3053" transform="translate(23.222 17.546)">
          <rect id="Rectangle_1038" data-name="Rectangle 1038" width="0.688" height="56.49" fill="#0553dd"/>
        </g>
        <g id="Group_3054" data-name="Group 3054" transform="translate(11.534 28.775)">
          <path id="Path_31190" data-name="Path 31190" d="M297.631,257.215,285.6,247.131l.458-.573,11.573,9.74,14.323-10.2.458.573Z" transform="translate(-285.6 -246.1)" fill="#0553dd"/>
        </g>
        <g id="Group_3055" data-name="Group 3055" transform="translate(11.534 52.724)">
          <path id="Path_31191" data-name="Path 31191" d="M297.631,278.115,285.6,268.031l.458-.458,11.573,9.625L311.954,267l.458.573Z" transform="translate(-285.6 -267)" fill="#0553dd"/>
        </g>
      </g>
    </g>
    <g id="Group_3062" data-name="Group 3062" transform="translate(24.783 116.919)">
      <g id="Group_3061" data-name="Group 3061">
        <path id="Path_31192" data-name="Path 31192" d="M40.273,118.266c-.8,7.792,3.094,17.3-2.865,22.459-3.552,3.094-9.167,2.635-12.719,5.729-6.073,5.156-2.063,15.011,2.979,21.083s11.115,13.75,8.021,20.969c-1.6,3.667-5.156,6.073-7.448,9.281-5.156,7.333-2.635,17.761,2.75,24.865,13.865,18.333,42.855,19.365,62.334,7.219,7.1-4.469,13.521-10.656,15.813-18.677s-.573-17.875-8.021-21.542c-2.979-1.49-6.875-2.292-8.365-5.271-2.406-5.156,4.469-9.51,8.708-13.292,8.135-7.333,7.448-22-1.26-28.531-3.667-2.75-8.708-4.469-10.427-8.708-1.26-2.979-.344-6.417-.344-9.74C89.659,99.359,42.794,92.713,40.273,118.266Z" transform="translate(-21.629 -102.037)" fill="#63a590"/>
        <g id="Group_3058" data-name="Group 3058" transform="translate(41.905 31.698)">
          <rect id="Rectangle_1039" data-name="Rectangle 1039" width="1.26" height="164.428" fill="#0553dd"/>
        </g>
        <g id="Group_3059" data-name="Group 3059" transform="translate(20.821 51.979)">
          <path id="Path_31193" data-name="Path 31193" d="M61.456,167.452,39.8,149.233l.917-1.031,20.854,17.531,25.9-18.333.8,1.031Z" transform="translate(-39.8 -147.4)" fill="#0553dd"/>
        </g>
        <g id="Group_3060" data-name="Group 3060" transform="translate(20.821 95.292)">
          <path id="Path_31194" data-name="Path 31194" d="M61.456,205.252,39.8,187.033l.917-.917,20.854,17.531,25.9-18.448.8,1.031Z" transform="translate(-39.8 -185.2)" fill="#0553dd"/>
        </g>
      </g>
    </g>
    <g id="Group_3081" data-name="Group 3081" transform="translate(90.857 -0.007)">
      <g id="Group_3080" data-name="Group 3080">
        <g id="Group_3064" data-name="Group 3064" transform="translate(0 2.185)">
          <g id="Group_3063" data-name="Group 3063" clip-path="url(#clip-path)">
            <path id="Path_31195" data-name="Path 31195" d="M89.728,26.963,79.3,27.306a30.616,30.616,0,0,1,2.635-13.063L92.364,13.9a30.615,30.615,0,0,0-2.635,13.063" transform="translate(-79.293 -0.15)" fill="#15289e"/>
            <path id="Path_31196" data-name="Path 31196" d="M92.127,14.921,81.7,15.265a25.868,25.868,0,0,1,5.844-8.021L97.971,6.9a24.16,24.16,0,0,0-5.844,8.021" transform="translate(-78.941 -1.171)" fill="#15289e"/>
            <path id="Path_31197" data-name="Path 31197" d="M97.227,7.629,86.8,7.973a21.014,21.014,0,0,1,13.979-5.729L111.206,1.9A21.585,21.585,0,0,0,97.227,7.629" transform="translate(-78.198 -1.9)" fill="#15289e"/>
          </g>
        </g>
        <g id="Group_3065" data-name="Group 3065" transform="translate(0.009 28.997)">
          <path id="Path_31199" data-name="Path 31199" d="M96.6,304.657,86.175,305,79.3,25.644,89.727,25.3Z" transform="translate(-79.3 -25.3)" fill="#15289e"/>
        </g>
        <g id="Group_3067" data-name="Group 3067" transform="translate(6.998 308.354)">
          <g id="Group_3066" data-name="Group 3066" clip-path="url(#clip-path-2)">
            <path id="Path_31200" data-name="Path 31200" d="M119.661,294.882l-10.427.344C96.4,295.569,85.744,284,85.4,269.444l10.427-.344c.344,14.552,11,26.011,23.834,25.781" transform="translate(-85.4 -269.1)" fill="#15289e"/>
          </g>
        </g>
        <g id="Group_3068" data-name="Group 3068" transform="translate(90.072 55.008)">
          <path id="Path_31202" data-name="Path 31202" d="M202.473,48l.229,9.052-44.573,1.031-.229-9.052Z" transform="translate(-157.9 -48)" fill="#afc6f5"/>
        </g>
        <g id="Group_3069" data-name="Group 3069" transform="translate(28.537 52.599)">
          <path id="Path_31203" data-name="Path 31203" d="M150.951,45.9c4.354-.115,7.906,3.781,8.021,8.708l.917,37.584c.115,4.927-3.323,8.938-7.677,9.052l-39.073.917c-4.354.115-7.906-3.781-8.021-8.708L104.2,55.869c-.115-4.927,3.323-8.938,7.677-9.052Z" transform="translate(-104.198 -45.898)" fill="#f6a091"/>
        </g>
        <g id="Group_3070" data-name="Group 3070" transform="translate(19.832 38.279)">
          <path id="Path_31204" data-name="Path 31204" d="M220.809,33.4,227,284l-124.209,2.75L96.6,36.15Zm-1.719,226.648-2.406-99-108.855,2.406,2.406,99,108.855-2.406M105.194,57.692l.917,37.584c.115,4.927,3.781,8.823,8.021,8.708l39.188-.917c4.354-.115,7.792-4.125,7.677-9.052l-.917-37.584c-.115-4.927-3.781-8.823-8.021-8.708l-39.188.917c-4.354.115-7.792,4.125-7.677,9.052M217.83,147.526l-.229-9.052-110.345,2.521.229,9.052,110.345-2.521m-.458-16.615-.229-9.052L106.8,124.38l.229,9.052,110.345-2.521M167.184,67.661l.229,9.052,44.573-1.031-.229-9.052-44.573,1.031m-.344-16.5.229,9.052,44.573-1.031-.229-9.052L166.84,51.161" transform="translate(-96.6 -33.4)" fill="#fff"/>
        </g>
        <g id="Group_3071" data-name="Group 3071" transform="translate(90.416 71.623)">
          <path id="Path_31205" data-name="Path 31205" d="M202.773,62.5,203,71.438l-44.573,1.031-.229-9.052Z" transform="translate(-158.2 -62.5)" fill="#afc6f5"/>
        </g>
        <g id="Group_3072" data-name="Group 3072" transform="translate(85.374 10.091)">
          <path id="Path_31206" data-name="Path 31206" d="M155.863,8.8a2.361,2.361,0,0,1,2.177,2.292,2.294,2.294,0,0,1-2.063,2.406,2.361,2.361,0,0,1-2.177-2.292A2.294,2.294,0,0,1,155.863,8.8Z" transform="translate(-153.8 -8.8)" fill="#15289e"/>
        </g>
        <g id="Group_3073" data-name="Group 3073" transform="translate(75.29 21.206)">
          <path id="Path_31207" data-name="Path 31207" d="M168.49,18.5a1.594,1.594,0,0,1,1.375,1.49,1.409,1.409,0,0,1-1.26,1.49l-22.229.458A1.594,1.594,0,0,1,145,20.448a1.409,1.409,0,0,1,1.26-1.49Z" transform="translate(-145 -18.5)" fill="#15289e"/>
        </g>
        <g id="Group_3074" data-name="Group 3074" transform="translate(79.636 297.696)">
          <path id="Path_31208" data-name="Path 31208" d="M158.884,259.8c5.729-.115,10.542,5.042,10.656,11.573s-4.354,11.917-10.083,12.031-10.542-5.042-10.656-11.573C148.572,265.3,153.155,259.915,158.884,259.8Z" transform="translate(-148.793 -259.798)" fill="#fff"/>
        </g>
        <g id="Group_3075" data-name="Group 3075" transform="translate(62.719 20.558)">
          <ellipse id="Ellipse_101" data-name="Ellipse 101" cx="2.406" cy="2.75" rx="2.406" ry="2.75" transform="translate(0 0.157) rotate(-1.868)" fill="#15289e"/>
        </g>
        <g id="Group_3076" data-name="Group 3076" transform="translate(31.061 165.811)">
          <path id="Path_31209" data-name="Path 31209" d="M215.255,144.7l2.406,99.115-108.855,2.406-2.406-99Z" transform="translate(-106.4 -144.7)" fill="#afc6f5"/>
        </g>
        <g id="Group_3077" data-name="Group 3077" transform="translate(10.542)">
          <path id="Path_31210" data-name="Path 31210" d="M206.867,0C219.7-.343,230.356,11.23,230.7,25.782l6.875,279.356c.344,14.552-9.74,26.584-22.573,26.813l-95.792,2.177c-12.833.344-23.49-11.229-23.834-25.781L88.5,28.991c-.344-14.552,9.74-26.584,22.573-26.813ZM228.981,289.67,222.794,37.241,96.98,40.105l6.188,252.429,125.814-2.865M168.252,322.1c6.188-.115,11-5.958,10.886-12.833-.229-6.99-5.271-12.49-11.458-12.375s-11,5.958-10.886,12.833c.229,6.99,5.385,12.49,11.458,12.375M154.5,21.657a1.5,1.5,0,0,0,.115,2.979l22.229-.458a1.5,1.5,0,0,0-.115-2.979l-22.229.458m-11.344-1.031a2.583,2.583,0,0,0-2.406,2.75,2.5,2.5,0,0,0,2.521,2.635,2.583,2.583,0,0,0,2.406-2.75c-.115-1.49-1.26-2.75-2.521-2.635m22.229-10.542a2.294,2.294,0,0,0-2.063,2.406,2.132,2.132,0,1,0,4.24-.115,2.361,2.361,0,0,0-2.177-2.292" transform="translate(-88.493 0.007)" fill="#0d62f9"/>
        </g>
        <g id="Group_3078" data-name="Group 3078" transform="translate(30.03 126.852)">
          <path id="Path_31211" data-name="Path 31211" d="M215.845,110.7l.229,8.938-110.345,2.521-.229-9.052Z" transform="translate(-105.5 -110.7)" fill="#afc6f5"/>
        </g>
        <g id="Group_3079" data-name="Group 3079" transform="translate(30.488 143.352)">
          <path id="Path_31212" data-name="Path 31212" d="M216.245,125.1l.229,9.052-110.345,2.406-.229-9.052Z" transform="translate(-105.9 -125.1)" fill="#afc6f5"/>
        </g>
      </g>
    </g>
    <ellipse id="Ellipse_102" data-name="Ellipse 102" cx="83.417" cy="12.833" rx="83.417" ry="12.833" transform="translate(206.252 333.327)" fill="#e0e4ed"/>
    <g id="Group_3083" data-name="Group 3083" transform="translate(210.078 88.46)">
      <path id="Path_31213" data-name="Path 31213" d="M290.557,176.626l-4.469-33.459s-28.99-4.927-38.386-16.5A162.186,162.186,0,0,1,233.838,106.5L219.4,117.615s15.583,38.959,45.6,53.4" transform="translate(-178.08 -72.927)" fill="#e26356"/>
      <path id="Path_31214" data-name="Path 31214" d="M231.067,78h0l-7.792-.8h-.8a3.172,3.172,0,0,0-1.031.115l-30.479,6.531a.421.421,0,0,0-.344.115c-.115,0-.115,0-.229.115-.229.115-.344.115-.573.229-.115,0-.229.115-.344.115-.229.115-.344.229-.573.344-.115,0-.115.115-.229.115h-.115a4.851,4.851,0,0,0-.8.573l-.115.115-.688.687c-.115.115-.115.229-.229.229-.229.229-.344.458-.458.573s-.115.229-.229.344c-.229.229-.344.573-.573.8l-.115.115h0c-.229.344-.344.688-.573,1.031,0,.115-.115.229-.115.344-.115.229-.229.573-.344.8a.112.112,0,0,1-.115.115v.115a8.439,8.439,0,0,0-.458,1.6v.229c-.115.458-.115.917-.229,1.375v.344c0,.573-.115,1.031-.115,1.6v.8l2.521,42.052c0,.458.115.8.115,1.26v.115a.421.421,0,0,0,.115.344.421.421,0,0,0,.115.344c0,.229.115.344.115.573a.421.421,0,0,0,.115.344c0,.229.115.344.115.573,0,.115.115.229.115.344.115.229.115.344.229.573,0,.115,0,.115.115.229l.344.688.115.115c.115.229.229.344.344.573,0,.115.115.115.115.229a.6.6,0,0,1,.229.458l.229.229c.115.115.229.229.229.344l.229.229.344.344.229.229c.115.115.229.229.344.229l.229.229c.115.115.229.115.344.229.115,0,.115.115.229.115.115.115.229.115.344.229.115,0,.115.115.229.115s.229.115.344.115.115.115.229.115.229.115.458.115c.115,0,.115,0,.229.115.229,0,.458.115.688.115h0l7.792.8c-.229,0-.458-.115-.687-.115h-.229c-.115,0-.344-.115-.458-.115s-.115-.115-.229-.115-.229-.115-.344-.115-.115-.115-.229-.115c-.115-.115-.229-.115-.344-.229-.115,0-.115-.115-.229-.115-.115-.115-.229-.115-.344-.229l-.229-.229c-.115-.115-.229-.229-.344-.229l-.229-.229-.344-.344-.229-.229c-.115-.115-.229-.229-.229-.344l-.229-.229a.6.6,0,0,1-.229-.458c0-.115-.115-.115-.115-.229-.115-.229-.229-.344-.344-.573l-.115-.115-.344-.688c0-.115,0-.115-.115-.229-.115-.229-.115-.344-.229-.573,0-.115-.115-.229-.115-.344,0-.229-.115-.344-.115-.573,0-.115-.115-.229-.115-.344a4.963,4.963,0,0,1-.115-.573.421.421,0,0,0-.115-.344.689.689,0,0,0-.115-.458,4.3,4.3,0,0,1-.115-1.26L191.306,97.6v-.917a7.565,7.565,0,0,1,.115-1.6v-.344a5.751,5.751,0,0,1,.229-1.375v-.229c.115-.573.344-1.146.458-1.6,0-.115.115-.229.115-.344.115-.229.229-.573.344-.8,0-.115.115-.229.115-.344A4.645,4.645,0,0,1,193.254,89c0-.115.115-.115.115-.229a3.482,3.482,0,0,1,.573-.8c.115-.115.115-.229.229-.344a2.5,2.5,0,0,1,.458-.573c.115-.115.115-.229.229-.229l.688-.688.115-.115a3.482,3.482,0,0,1,.8-.573.421.421,0,0,1,.344-.115c.229-.115.344-.229.573-.344.115,0,.229-.115.344-.115.229-.115.344-.115.573-.229.229,0,.344-.115.573-.115l30.479-6.417A3.172,3.172,0,0,1,230.38,78Z" transform="translate(-183.33 -77.2)" fill="#1865ed"/>
      <g id="Group_3082" data-name="Group 3082" transform="translate(7.952 0.792)">
        <path id="Path_31215" data-name="Path 31215" d="M228.231,78.016c4.469-.917,8.479,3.323,8.823,9.625l2.521,42.052c.344,6.188-2.979,12.031-7.448,13.063l-30.479,6.417c-4.469.917-8.479-3.323-8.823-9.625L190.3,97.5c-.344-6.188,2.979-12.031,7.448-13.063Z" transform="translate(-190.279 -77.891)" fill="#3878ff"/>
      </g>
      <path id="Path_31216" data-name="Path 31216" d="M276.433,289.219c-.115,2.406-.344,4.927-1.833,6.646-1.719,2.177-4.813,2.75-7.563,3.094l-12.031,1.719c-.229.573.458,1.146,1.031,1.26,2.979,1.031,6.188.573,9.281.229,3.552-.344,7.219-.573,10.886-.573,1.6,0,3.552-.115,4.354-1.6.573-1.031.344-2.292.229-3.552-.458-3.667.573-7.333.115-11-.115-.458-.229-.917-.573-1.031-.229-.115-.458,0-.688,0C276.548,285.209,276.548,286.469,276.433,289.219Z" transform="translate(-172.894 -46.988)" fill="#f9ccda"/>
      <path id="Path_31217" data-name="Path 31217" d="M277.59,297.129a13.819,13.819,0,0,1-9.51,1.833,8.027,8.027,0,0,1-1.6-.344c-.115-.687,0-1.375-.573-1.26-2.521.115-5.042.344-7.563.573-.8.115-3.781.229-4.125.8a1.6,1.6,0,0,0,.344,1.719,2.838,2.838,0,0,0,1.6.917c2.865,1.031,5.958.917,9.052.8,3.781-.229,7.448-.344,11.229-.573a7.826,7.826,0,0,0,3.667-.8c1.6-1.031,2.177-3.094,2.177-4.927C282.4,292.546,278.736,296.441,277.59,297.129Z" transform="translate(-173.019 -45.502)" fill="#004fc1"/>
      <path id="Path_31218" data-name="Path 31218" d="M225.409,294.64c-.458,2.292-1.031,4.813-2.75,6.417-2.063,1.948-5.042,2.063-7.906,2.063-4.01,0-8.136.115-12.146.115-.229.573.344,1.146.917,1.375,2.75,1.375,6.073,1.375,9.167,1.49,3.667.115,7.219.344,10.885.8,1.6.229,3.552.344,4.469-.917a5.829,5.829,0,0,0,.688-3.437c0-3.667,1.6-7.219,1.49-10.885a1.328,1.328,0,0,0-.458-1.146,1.453,1.453,0,0,0-.688-.115C226.1,290.629,225.982,291.89,225.409,294.64Z" transform="translate(-180.537 -46.106)" fill="#f9ccda"/>
      <path id="Path_31219" data-name="Path 31219" d="M284.125,190.1s-2.75,27.844-3.781,43.084,8.938,47.782,8.594,56.6-2.406,13.865-2.406,13.865l-21.313-.229L258,192.506Z" transform="translate(-172.45 -60.734)" fill="#0553dd"/>
      <path id="Path_31220" data-name="Path 31220" d="M263.1,111.392c-1.26,3.094-2.865,5.385-3.552,5.042s-.344-2.979.917-6.188c1.26-3.094,2.865-5.385,3.552-5.042S264.242,108.3,263.1,111.392Z" transform="translate(-172.276 -73.121)" fill="none" stroke="#0553dd" stroke-miterlimit="10" stroke-width="1"/>
      <circle id="Ellipse_103" data-name="Ellipse 103" cx="16.958" cy="16.958" r="16.958" transform="matrix(0.455, -0.891, 0.891, 0.455, 78.488, 55.068)" fill="#f9ccda"/>
      <path id="Path_31221" data-name="Path 31221" d="M268.267,126.088,264.6,144.879l10.313,3.781,4.125-23.261Z" transform="translate(-171.488 -70.17)" fill="#f9ccda"/>
      <path id="Path_31222" data-name="Path 31222" d="M290.528,186.6s-31.4,2.063-41.365,5.844c-5.156,15.7-27.386,106.22-29.563,115.616,3.323.688,17.875,2.865,17.875,2.865s9.281-9.625,18.333-39.761c9.625-31.854,31.052-67.032,32.657-69.667C290.986,197.6,290.528,186.6,290.528,186.6Z" transform="translate(-178.051 -61.245)" fill="#3878ff"/>
      <path id="Path_31223" data-name="Path 31223" d="M195.211,124.084a3.657,3.657,0,0,0-1.031-1.833,2.673,2.673,0,0,0-2.635-.115,16.868,16.868,0,0,1-2.521,1.146c-1.6.458-3.438-.115-4.7.8a2.411,2.411,0,0,0-.917,2.521,7.009,7.009,0,0,0,.573,1.375c.688,1.49.573,3.438,1.6,4.7a7.769,7.769,0,0,0,3.208,2.063l8.594,3.438a1.033,1.033,0,0,0,.573.115l.344-.344c1.146-2.979.688-4.469-.8-6.875C196.128,128.9,195.784,126.491,195.211,124.084Z" transform="translate(-183.339 -70.688)" fill="#f9ccda"/>
      <path id="Path_31224" data-name="Path 31224" d="M225.387,302.658a13.937,13.937,0,0,1-9.625.573c-.229,0-1.375-.458-1.49-.458,0-.688.115-1.26-.458-1.375q-3.781-.344-7.563-.344c-.8,0-3.781-.344-4.125.229a1.57,1.57,0,0,0,.115,1.719,3.219,3.219,0,0,0,1.375,1.146c2.635,1.49,5.844,1.719,8.823,1.948,3.781.344,7.448.688,11.229.917a7.043,7.043,0,0,0,3.781-.344c1.719-.8,2.521-2.75,2.75-4.583C230.658,298.762,226.533,302.085,225.387,302.658Z" transform="translate(-180.629 -44.615)" fill="#004fc1"/>
      <path id="Path_31225" data-name="Path 31225" d="M192.36,117.268c-.229-.573-.458-1.146-1.031-1.26a1.3,1.3,0,0,0-1.6.917,4.208,4.208,0,0,0-.115,2.063c.229,1.948.344,3.781.573,5.729.115,1.031.344,2.406,1.375,2.75a1.965,1.965,0,0,0,2.177-.573c1.031-1.26.344-2.635.115-4.01A31.171,31.171,0,0,0,192.36,117.268Z" transform="translate(-182.436 -71.549)" fill="#f9ccda"/>
      <path id="Path_31226" data-name="Path 31226" d="M290.874,147.148a8.083,8.083,0,0,0-8.25-6.875c-8.708.229-22,1.26-24.177,2.406-2.75,1.49-21.084,7.1-26.7,7.1s-28.99-21.083-28.99-21.083L191.3,140.961s20.854,26.125,28.646,29.219c7.792,2.979,32.313,2.865,32.313,2.865l1.146,28.188s36.438,7.333,39.875,1.26,1.26-28.99,1.26-28.99Z" transform="translate(-182.178 -69.689)" fill="#f6a091"/>
      <path id="Path_31227" data-name="Path 31227" d="M244.6,167.621l15.354-2.521-14.438,25.667Z" transform="translate(-174.405 -64.38)" fill="url(#linear-gradient)"/>
      <path id="Path_31228" data-name="Path 31228" d="M259.1,113.892c-1.26,3.094-2.865,5.385-3.552,5.042s-.344-2.979.917-6.188c1.26-3.094,2.865-5.385,3.552-5.042S260.242,110.8,259.1,113.892Z" transform="translate(-172.859 -72.756)" fill="none" stroke="#0553dd" stroke-miterlimit="10" stroke-width="1"/>
      <path id="Path_31229" data-name="Path 31229" d="M256.1,112.4c.688.229,18.448,6.76,18.448,6.76" transform="translate(-172.728 -72.066)" fill="none" stroke="#0553dd" stroke-miterlimit="10" stroke-width="0.75"/>
    </g>
    <path id="Path_31230" data-name="Path 31230" d="M270.915,115.289c.688,2.063-.687,4.7.917,6.188.917.8,2.177.8,3.323,1.031a5.367,5.367,0,0,1,1.146,9.969,8.184,8.184,0,0,0-1.719.917,3.12,3.12,0,0,0-.344,3.438,17.945,17.945,0,0,1,1.375,3.438c.458,2.177-.8,4.354-1.6,6.417-2.521,6.646-.8,14.323,1.948,20.854,2.063,5.042,4.813,9.969,8.823,13.521,4.125,3.552,9.74,5.729,15.011,4.469s9.74-6.3,9.281-11.688a23.714,23.714,0,0,0-1.719-5.729c-2.062-5.385-3.667-11.458-1.375-16.729,1.146-2.865,3.438-5.271,3.9-8.365.688-3.9-1.833-7.792-4.927-10.2s-6.875-3.9-10.427-5.844c-3.437-1.948-6.875-4.7-8.021-8.479-.8-2.75-.458-5.615-1.49-8.365a10.861,10.861,0,0,0-8.823-6.417c-3.094-.458-10.771.229-12.261,3.667C262.435,111.508,269.883,111.966,270.915,115.289Z" transform="translate(38.463 15.109)" fill="#0553dd"/>
    <path id="Path_31231" data-name="Path 31231" d="M299.088,133.575c1.833-2.865,2.063-7.219-.573-9.51-1.146-.917-2.635-1.375-3.552-2.406-1.6-1.6-1.49-4.24-1.833-6.417a15.309,15.309,0,0,0-19.136-12.375,4.35,4.35,0,0,0-2.635,1.49c-.917,1.375-.344,3.208.688,4.469a24.727,24.727,0,0,0,3.781,3.094c3.208,2.865,4.354,7.333,5.958,11.344a44.007,44.007,0,0,0,8.365,13.406C295.077,142.054,296.109,138.387,299.088,133.575Z" transform="translate(39.509 14.928)" fill="#0553dd"/>
    <path id="Path_31232" data-name="Path 31232" d="M310.7,148.91a14.836,14.836,0,0,1,.8,9.167,17.271,17.271,0,0,1-3.667,7.563,6.8,6.8,0,0,1-2.979,2.406,9.314,9.314,0,0,1-4.354.458c-5.042-.458-10.427-2.177-12.833-6.531-2.75-5.042-1.375-18.906,5.271-20.625C298.9,139.743,308.3,143.524,310.7,148.91Z" transform="translate(41.76 20.561)" fill="#0553dd"/>
    <path id="Path_31233" data-name="Path 31233" d="M342.736,57.427a15.138,15.138,0,0,0-22.459-7.677,21.152,21.152,0,0,0-38.844-1.833,15.41,15.41,0,0,0-4.01-.573A15.177,15.177,0,0,0,263.1,57.427Z" transform="translate(38.371 5.251)" fill="#afc6f5"/>
    <path id="Path_31234" data-name="Path 31234" d="M79.751,72.427A15.138,15.138,0,0,0,57.292,64.75a21.239,21.239,0,0,0-38.959-1.833,15.41,15.41,0,0,0-4.01-.573A15.177,15.177,0,0,0,0,72.427H79.751Z" transform="translate(0 7.439)" fill="#afc6f5"/>
    <g id="Group_3088" data-name="Group 3088" transform="translate(51.086 239.249)">
      <g id="Group_3087" data-name="Group 3087">
        <path id="Path_31235" data-name="Path 31235" d="M58.009,220.488c-.573,5.615,2.177,12.6-2.063,16.271-2.521,2.177-6.646,1.948-9.167,4.125-4.354,3.667-1.49,10.885,2.177,15.24,3.667,4.469,8.021,9.969,5.844,15.24-1.146,2.635-3.781,4.354-5.385,6.76-3.667,5.271-1.948,12.833,1.948,17.99,9.969,13.292,31.052,14.094,45.146,5.271,5.156-3.208,9.74-7.677,11.458-13.521s-.458-12.948-5.844-15.583c-2.177-1.031-5.042-1.6-6.073-3.781-1.719-3.781,3.208-6.875,6.3-9.625,5.844-5.271,5.385-15.927-.917-20.625-2.635-1.948-6.3-3.208-7.563-6.3-.917-2.177-.229-4.7-.229-6.99C93.874,206.853,59.957,202.04,58.009,220.488Z" transform="translate(-44.584 -208.797)" fill="#5bb59b"/>
        <g id="Group_3084" data-name="Group 3084" transform="translate(30.268 22.92)">
          <rect id="Rectangle_1040" data-name="Rectangle 1040" width="0.917" height="73.907" fill="#0553dd"/>
        </g>
        <g id="Group_3085" data-name="Group 3085" transform="translate(15.029 37.587)">
          <path id="Path_31236" data-name="Path 31236" d="M73.4,256.152,57.7,242.975l.688-.687,15.011,12.6L92.19,241.6l.573.8Z" transform="translate(-57.7 -241.6)" fill="#0553dd"/>
        </g>
        <g id="Group_3086" data-name="Group 3086" transform="translate(15.029 68.983)">
          <path id="Path_31237" data-name="Path 31237" d="M73.4,283.552,57.7,270.375l.688-.688,15.011,12.6L92.19,269l.573.8Z" transform="translate(-57.7 -269)" fill="#0553dd"/>
        </g>
      </g>
    </g>
  </g>
</svg>
