<svg xmlns="http://www.w3.org/2000/svg" xmlns:xlink="http://www.w3.org/1999/xlink" width="409.389" height="365.322" viewBox="0 0 409.389 365.322">
  <defs>
    <linearGradient id="linear-gradient" x1="0.5" y1="1.161" x2="0.5" y2="0.272" gradientUnits="objectBoundingBox">
      <stop offset="0" stop-color="#4f2280"/>
      <stop offset="1" stop-color="#d4145a"/>
    </linearGradient>
    <linearGradient id="linear-gradient-2" x1="0.5" y1="0.696" x2="0.5" y2="-0.388" xlink:href="#linear-gradient"/>
    <linearGradient id="linear-gradient-3" x1="0.501" y1="0.99" x2="0.501" y2="-0.275" xlink:href="#linear-gradient"/>
    <linearGradient id="linear-gradient-4" x1="-0.001" y1="0.502" x2="1.001" y2="0.502" xlink:href="#linear-gradient"/>
    <linearGradient id="linear-gradient-5" x1="0" y1="0.496" x2="1" y2="0.496" xlink:href="#linear-gradient"/>
    <linearGradient id="linear-gradient-6" x1="0.504" y1="0.057" x2="0.504" y2="0.727" xlink:href="#linear-gradient"/>
    <linearGradient id="linear-gradient-7" x1="0.487" y1="-0.521" x2="0.487" y2="1.657" xlink:href="#linear-gradient"/>
  </defs>
  <g id="Group_3158" data-name="Group 3158" transform="translate(-136.215 -2272.314)">
    <path id="Path_31287" data-name="Path 31287" d="M323.772,139.471C251.232,95.736,216.959-39.041,105.1,41.489c-112.069,80.53-65.6,245.794,41.632,285.744s245.374,17.452,284.062-56.77C497.237,143.465,372.342,168.907,323.772,139.471Z" transform="translate(95.762 2269.015)" fill="#eaebfb" opacity="0.278"/>
    <g id="Group_3102" data-name="Group 3102" transform="translate(170.857 2272.303)">
      <g id="Group_3090" data-name="Group 3090" transform="translate(0.024 0.011)">
        <path id="Path_31238" data-name="Path 31238" d="M14.2,33.108c7.977,8.154,19.676,11.345,30.135,5.5,8.154-4.432,12.94-12.94,14-21.8a191.854,191.854,0,0,1-23.044,9.75A186.911,186.911,0,0,1,14.2,33.108Z" transform="translate(10.929 12.961)" fill="#f66"/>
        <path id="Path_31239" data-name="Path 31239" d="M60.5,16.123l-.532-1.064c-.355-.532-.532-1.241-.886-1.773C51.81.346,35.147-3.731,21.675,3.714,10.507,9.918,6.608,21.44,10.153,32.785c.177.355.177.709.355,1.064a26.787,26.787,0,0,0,2.3,5.141,32.522,32.522,0,0,0,4.432,6.2c6.559-1.6,14-3.9,21.626-6.559a200.208,200.208,0,0,0,23.576-10.1A26.915,26.915,0,0,0,60.5,16.123Z" transform="translate(6.822 -0.011)" fill="#f66"/>
        <path id="Path_31240" data-name="Path 31240" d="M86.309,9.813C85.423,7.332,80.282,6.8,71.242,8.4a36.306,36.306,0,0,0-4.254.886l.532,1.064A32.718,32.718,0,0,1,71.6,9.636c1.773-.355,3.191-.532,4.609-.709a20.8,20.8,0,0,1,6.736,0c1.241.355,2.127.709,2.3,1.241.532,1.418-1.95,4.609-10.281,9.395a42.624,42.624,0,0,1-5.672,3.013,235.132,235.132,0,0,1-23.576,10.1c-7.622,2.659-15.067,4.963-21.626,6.559-3.368.886-6.381,1.418-9.218,1.95-9.395,1.773-13.118.886-13.649-.532C.513,38.53,6.54,33.567,17.531,28.072c-.177-.355-.177-.709-.355-1.064C6.363,32.5-1.082,37.821.159,41.189c.709,1.95,4.254,2.659,10.281,2.127,1.418-.177,3.013-.355,4.786-.709,3.013-.532,6.381-1.241,9.927-2.127a215.977,215.977,0,0,0,21.094-6.559,191.855,191.855,0,0,0,23.044-9.75c2.3-1.064,4.432-2.3,6.382-3.368,7.445-4.432,10.99-7.8,10.813-10.281A1.34,1.34,0,0,1,86.309,9.813Z" transform="translate(-0.024 5.766)" fill="#fbc96b"/>
      </g>
      <path id="Path_31241" data-name="Path 31241" d="M16.948,11.329a2.821,2.821,0,0,1-3.545-1.6,2.656,2.656,0,0,1,1.241-3.545,2.874,2.874,0,0,1,3.723,1.418A2.728,2.728,0,0,1,16.948,11.329Z" transform="translate(10.155 4.616)" fill="#ef5b5b"/>
      <path id="Path_31242" data-name="Path 31242" d="M13.611,11.8a1.579,1.579,0,0,1-1.95-.886A1.467,1.467,0,1,1,14.32,9.67C14.674,10.556,14.32,11.62,13.611,11.8Z" transform="translate(8.884 6.807)" fill="#ef5b5b"/>
      <path id="Path_31243" data-name="Path 31243" d="M32.911,28.5a1.579,1.579,0,0,1-1.95-.886A1.467,1.467,0,1,1,33.62,26.37,1.641,1.641,0,0,1,32.911,28.5Z" transform="translate(23.795 19.71)" fill="#ef5b5b"/>
      <path id="Path_31244" data-name="Path 31244" d="M123.78,29.1a2.562,2.562,0,0,0-1.241.355l-8.331-8.331a2.562,2.562,0,0,0,.355-1.241,2.482,2.482,0,1,0-4.963,0,2.562,2.562,0,0,0,.355,1.241l-8.331,8.331a3.287,3.287,0,0,0-1.241-.355,2.562,2.562,0,0,0-1.241.355l-8.331-8.331a2.562,2.562,0,0,0,.355-1.241,2.482,2.482,0,1,0-2.482,2.482,2.562,2.562,0,0,0,1.241-.355l8.331,8.331a2.562,2.562,0,0,0-.355,1.241,2.482,2.482,0,1,0,4.963,0,3.286,3.286,0,0,0-.355-1.241l8.154-8.331a2.349,2.349,0,0,0,2.482,0l8.331,8.331a2.562,2.562,0,0,0-.355,1.241,2.482,2.482,0,0,0,4.963,0A2.283,2.283,0,0,0,123.78,29.1Z" transform="translate(66.583 13.435)" fill="#fff"/>
      <path id="Path_31245" data-name="Path 31245" d="M208.726,55.45V248.135a5.9,5.9,0,0,1-5.85,5.85H97.05a5.9,5.9,0,0,1-5.85-5.85V55.45a5.9,5.9,0,0,1,5.85-5.85H202.876A5.9,5.9,0,0,1,208.726,55.45Z" transform="translate(70.446 38.314)" fill="#da4444"/>
      <path id="Path_31246" data-name="Path 31246" d="M193.377,58.891V225.873a3.177,3.177,0,0,1-3.191,3.191h-89.7a3.177,3.177,0,0,1-3.191-3.191V58.891a3.177,3.177,0,0,1,3.191-3.191h89.7A3.177,3.177,0,0,1,193.377,58.891Z" transform="translate(75.159 43.027)" fill="#fbc96b"/>
      <g id="Group_3091" data-name="Group 3091" transform="translate(215.003 276.346)">
        <path id="Path_31247" data-name="Path 31247" d="M126.8,166.89h0a5.523,5.523,0,0,1-5.5-5.5h0a5.523,5.523,0,0,1,5.5-5.5h0a5.523,5.523,0,0,1,5.5,5.5h0A5.523,5.523,0,0,1,126.8,166.89Z" transform="translate(-121.3 -155.9)" fill="#f66"/>
      </g>
      <path id="Path_31248" data-name="Path 31248" d="M193.377,58.891v50.875H97.3V58.891a3.177,3.177,0,0,1,3.191-3.191h89.7A3.177,3.177,0,0,1,193.377,58.891Z" transform="translate(75.159 43.027)" opacity="0.33" fill="url(#linear-gradient)"/>
      <circle id="Ellipse_104" data-name="Ellipse 104" cx="22.158" cy="22.158" r="22.158" transform="translate(198.34 130.635)" opacity="0.33" fill="url(#linear-gradient-2)"/>
      <path id="Path_31249" data-name="Path 31249" d="M132.765,92.012a5.77,5.77,0,0,0,1.773-4.077V85.276A5.626,5.626,0,0,0,129.4,79.6a5.264,5.264,0,0,0-5.5,5.318v2.836a5.77,5.77,0,0,0,1.773,4.077,11.972,11.972,0,0,0-7.445,7.977,2.3,2.3,0,0,0,2.3,2.836h17.372a2.387,2.387,0,0,0,2.3-2.836A11.685,11.685,0,0,0,132.765,92.012Z" transform="translate(91.278 61.49)" fill="#fff"/>
      <path id="Path_31250" data-name="Path 31250" d="M172.412,98.709v59.383a34.421,34.421,0,0,1-4.254.355,29.958,29.958,0,0,1,0-59.915h1.064A9.683,9.683,0,0,1,172.412,98.709Z" transform="translate(106.76 76.064)" opacity="0.2"/>
      <g id="Group_3092" data-name="Group 3092" transform="translate(252.228 167.329)">
        <path id="Path_31251" data-name="Path 31251" d="M184.371,139.584a29.711,29.711,0,0,0,4.786-16.131A30.092,30.092,0,0,0,171.077,95.8L159.2,123.453Z" transform="translate(-129.242 -93.318)" fill="#4c37a8"/>
        <path id="Path_31252" data-name="Path 31252" d="M181.83,152.82l-9.572-28.362L173.321,94.5h-1.064a29.958,29.958,0,0,0,0,59.915A29.315,29.315,0,0,0,181.83,152.82Z" transform="translate(-142.3 -94.323)" fill="#552283"/>
        <path id="Path_31253" data-name="Path 31253" d="M168.85,139.762a29.042,29.042,0,0,0,15.6-12.231L159.1,111.4Z" transform="translate(-129.32 -81.265)" fill="#eb5259"/>
        <path id="Path_31254" data-name="Path 31254" d="M170.977,96.882A32.076,32.076,0,0,0,160.164,94.4L159.1,124.358Z" transform="translate(-129.32 -94.4)" fill="#c5d7d8"/>
      </g>
      <path id="Path_31255" data-name="Path 31255" d="M184.034,96.882A32.077,32.077,0,0,0,173.221,94.4h-1.064a29.958,29.958,0,0,0,0,59.915,28.549,28.549,0,0,0,9.572-1.6,29.042,29.042,0,0,0,15.6-12.231,29.811,29.811,0,0,0-13.295-43.607Z" transform="translate(109.851 72.929)" opacity="0.33" fill="url(#linear-gradient-3)"/>
      <g id="Group_3093" data-name="Group 3093" transform="translate(218.725 177.255)">
        <path id="Path_31256" data-name="Path 31256" d="M125.173,103.545a1.818,1.818,0,0,1-1.773-1.773,1.066,1.066,0,0,1,.177-.709c0-.177.177-.355.355-.532l.177-.177c.177,0,.177-.177.355-.177s.177,0,.355-.177h.709c.177,0,.177,0,.355.177.177,0,.177.177.355.177s.177.177.355.177c.177.177.355.355.355.532s.177.355.177.709a1.609,1.609,0,0,1-.532,1.241A2.357,2.357,0,0,1,125.173,103.545Z" transform="translate(-123.4 -100)" fill="#fff"/>
        <path id="Path_31257" data-name="Path 31257" d="M123.4,112.409a1.906,1.906,0,0,1,1.773-1.773h0a1.906,1.906,0,0,1,1.773,1.773h0a1.906,1.906,0,0,1-1.773,1.773h0A1.776,1.776,0,0,1,123.4,112.409Zm0-6.736a1.906,1.906,0,0,1,1.773-1.773h0a1.906,1.906,0,0,1,1.773,1.773h0a1.906,1.906,0,0,1-1.773,1.773h0A1.776,1.776,0,0,1,123.4,105.673Z" transform="translate(-123.4 -96.987)" fill="#fff"/>
        <path id="Path_31258" data-name="Path 31258" d="M125.173,115.045a1.609,1.609,0,0,1-1.241-.532c-.177-.177-.355-.355-.355-.532s-.177-.355-.177-.709a1.609,1.609,0,0,1,.532-1.241l.177-.177c.177,0,.177-.177.355-.177s.177,0,.355-.177h.709c.177,0,.177,0,.355.177.177,0,.177.177.355.177s.177.177.355.177c.177.177.355.355.355.532s.177.532.177.709a1.609,1.609,0,0,1-.532,1.241A2.357,2.357,0,0,1,125.173,115.045Z" transform="translate(-123.4 -91.115)" fill="#fff"/>
        <path id="Path_31259" data-name="Path 31259" d="M139.94,113.273a1.675,1.675,0,0,1,1.773-1.773h0a1.675,1.675,0,0,1,1.773,1.773h0a1.776,1.776,0,0,1-1.773,1.773h0A1.675,1.675,0,0,1,139.94,113.273Zm-6.559,0a1.776,1.776,0,0,1,1.773-1.773h0a1.776,1.776,0,0,1,1.773,1.773h0a1.906,1.906,0,0,1-1.773,1.773h0A1.776,1.776,0,0,1,133.381,113.273Zm-6.382,0a1.675,1.675,0,0,1,1.773-1.773h0a1.675,1.675,0,0,1,1.773,1.773h0a1.906,1.906,0,0,1-1.773,1.773h0A1.776,1.776,0,0,1,127,113.273Z" transform="translate(-120.618 -91.115)" fill="#fff"/>
        <path id="Path_31260" data-name="Path 31260" d="M139.673,115.045a1.755,1.755,0,0,1-1.241-3.013,1.714,1.714,0,0,1,2.482,0,1.773,1.773,0,0,1-1.241,3.013Z" transform="translate(-112.197 -91.115)" fill="#fff"/>
      </g>
      <rect id="Rectangle_1041" data-name="Rectangle 1041" width="59.029" height="3.545" transform="translate(181.145 211.822)" fill="#dda345"/>
      <rect id="Rectangle_1042" data-name="Rectangle 1042" width="59.029" height="3.545" transform="translate(181.145 222.458)" fill="#dda345"/>
      <rect id="Rectangle_1043" data-name="Rectangle 1043" width="22.513" height="3.545" transform="translate(181.145 232.739)" fill="#dda345"/>
      <path id="Path_31261" data-name="Path 31261" d="M114.3,159.7a17.9,17.9,0,1,1,35.807,0" transform="translate(88.294 109.552)" opacity="0.33" fill="url(#linear-gradient-4)"/>
      <rect id="Rectangle_1044" data-name="Rectangle 1044" width="78.351" height="3.545" transform="translate(181.322 106.704)" fill="url(#linear-gradient-5)"/>
      <path id="Path_31262" data-name="Path 31262" d="M209.24,127.177a1.675,1.675,0,0,1,1.773-1.773h0a1.776,1.776,0,0,1,1.773,1.773h0a1.906,1.906,0,0,1-1.773,1.773h0A1.776,1.776,0,0,1,209.24,127.177Zm0-7.091a1.675,1.675,0,0,1,1.773-1.773h0a1.776,1.776,0,0,1,1.773,1.773h0a1.906,1.906,0,0,1-1.773,1.773h0A1.776,1.776,0,0,1,209.24,120.087Zm0-7.091a1.675,1.675,0,0,1,1.773-1.773h0A1.776,1.776,0,0,1,212.786,113h0a1.906,1.906,0,0,1-1.773,1.773h0A1.776,1.776,0,0,1,209.24,113Zm0-7.091a1.675,1.675,0,0,1,1.773-1.773h0a1.776,1.776,0,0,1,1.773,1.773h0a1.906,1.906,0,0,1-1.773,1.773h0A1.776,1.776,0,0,1,209.24,105.906Zm0-7.091a1.675,1.675,0,0,1,1.773-1.773h0a1.776,1.776,0,0,1,1.773,1.773h0a1.906,1.906,0,0,1-1.773,1.773h0A1.776,1.776,0,0,1,209.24,98.815Zm0-7.091a1.675,1.675,0,0,1,1.773-1.773h0a1.776,1.776,0,0,1,1.773,1.773h0a1.906,1.906,0,0,1-1.773,1.773h0A1.776,1.776,0,0,1,209.24,91.724Zm0-7.091a1.675,1.675,0,0,1,1.773-1.773h0a1.776,1.776,0,0,1,1.773,1.773h0a1.906,1.906,0,0,1-1.773,1.773h0A1.776,1.776,0,0,1,209.24,84.634Zm0-7.091a1.675,1.675,0,0,1,1.773-1.773h0a1.776,1.776,0,0,1,1.773,1.773h0a1.906,1.906,0,0,1-1.773,1.773h0A1.776,1.776,0,0,1,209.24,77.543Zm0-7.091a1.675,1.675,0,0,1,1.773-1.773h0a1.776,1.776,0,0,1,1.773,1.773h0a1.906,1.906,0,0,1-1.773,1.773h0A1.776,1.776,0,0,1,209.24,70.453Zm0-7.091a1.675,1.675,0,0,1,1.773-1.773h0a1.776,1.776,0,0,1,1.773,1.773h0a1.906,1.906,0,0,1-1.773,1.773h0A1.776,1.776,0,0,1,209.24,63.362Zm0-7.091a1.675,1.675,0,0,1,1.773-1.773h0a1.776,1.776,0,0,1,1.773,1.773h0a1.906,1.906,0,0,1-1.773,1.773h0A1.776,1.776,0,0,1,209.24,56.272Zm0-7.091a1.675,1.675,0,0,1,1.773-1.773h0a1.776,1.776,0,0,1,1.773,1.773h0a1.906,1.906,0,0,1-1.773,1.773h0A1.776,1.776,0,0,1,209.24,49.181Zm0-7.091a1.675,1.675,0,0,1,1.773-1.773h0a1.776,1.776,0,0,1,1.773,1.773h0a1.906,1.906,0,0,1-1.773,1.773h0A1.776,1.776,0,0,1,209.24,42.091Zm-1.773-5.318A1.675,1.675,0,0,1,209.24,35h0a1.776,1.776,0,0,1,1.773,1.773h0a1.906,1.906,0,0,1-1.773,1.773h0A1.776,1.776,0,0,1,207.468,36.773Zm-7.091,0A1.675,1.675,0,0,1,202.15,35h0a1.776,1.776,0,0,1,1.773,1.773h0a1.906,1.906,0,0,1-1.773,1.773h0A1.776,1.776,0,0,1,200.377,36.773Zm-7.091,0A1.675,1.675,0,0,1,195.059,35h0a1.776,1.776,0,0,1,1.773,1.773h0a1.906,1.906,0,0,1-1.773,1.773h0A1.776,1.776,0,0,1,193.287,36.773Zm-7.091,0A1.675,1.675,0,0,1,187.969,35h0a1.776,1.776,0,0,1,1.773,1.773h0a1.906,1.906,0,0,1-1.773,1.773h0A1.776,1.776,0,0,1,186.2,36.773Zm-7.091,0A1.675,1.675,0,0,1,180.878,35h0a1.776,1.776,0,0,1,1.773,1.773h0a1.906,1.906,0,0,1-1.773,1.773h0A1.776,1.776,0,0,1,179.106,36.773Zm-7.091,0A1.675,1.675,0,0,1,173.788,35h0a1.776,1.776,0,0,1,1.773,1.773h0a1.906,1.906,0,0,1-1.773,1.773h0A1.776,1.776,0,0,1,172.015,36.773Zm-7.091,0A1.776,1.776,0,0,1,166.7,35h0a1.776,1.776,0,0,1,1.773,1.773h0a1.906,1.906,0,0,1-1.773,1.773h0A1.776,1.776,0,0,1,164.924,36.773Zm-7.091,0A1.675,1.675,0,0,1,159.606,35h0a1.776,1.776,0,0,1,1.773,1.773h0a1.906,1.906,0,0,1-1.773,1.773h0A1.776,1.776,0,0,1,157.834,36.773Zm-7.091,0A1.675,1.675,0,0,1,152.516,35h0a1.776,1.776,0,0,1,1.773,1.773h0a1.906,1.906,0,0,1-1.773,1.773h0A1.776,1.776,0,0,1,150.743,36.773Zm-7.091,0A1.675,1.675,0,0,1,145.425,35h0a1.776,1.776,0,0,1,1.773,1.773h0a1.906,1.906,0,0,1-1.773,1.773h0A1.776,1.776,0,0,1,143.653,36.773Zm-7.091,0A1.675,1.675,0,0,1,138.335,35h0a1.776,1.776,0,0,1,1.773,1.773h0a1.906,1.906,0,0,1-1.773,1.773h0A1.776,1.776,0,0,1,136.562,36.773Zm-7.091,0A1.675,1.675,0,0,1,131.244,35h0a1.776,1.776,0,0,1,1.773,1.773h0a1.906,1.906,0,0,1-1.773,1.773h0A1.776,1.776,0,0,1,129.472,36.773Zm-7.091,0A1.675,1.675,0,0,1,124.154,35h0a1.776,1.776,0,0,1,1.773,1.773h0a1.906,1.906,0,0,1-1.773,1.773h0A1.776,1.776,0,0,1,122.381,36.773Zm-7.091,0A1.675,1.675,0,0,1,117.063,35h0a1.776,1.776,0,0,1,1.773,1.773h0a1.906,1.906,0,0,1-1.773,1.773h0A1.776,1.776,0,0,1,115.291,36.773Zm-7.091,0A1.675,1.675,0,0,1,109.973,35h0a1.776,1.776,0,0,1,1.773,1.773h0a1.906,1.906,0,0,1-1.773,1.773h0A1.776,1.776,0,0,1,108.2,36.773Z" transform="translate(83.581 27.034)" fill="#fff"/>
      <g id="Group_3095" data-name="Group 3095" transform="translate(85.6 39.167)">
        <path id="Path_31263" data-name="Path 31263" d="M144.377,25.291V192.1a3.177,3.177,0,0,1-3.191,3.191h-89.7A3.177,3.177,0,0,1,48.3,192.1V25.291A3.177,3.177,0,0,1,51.491,22.1h89.7A3.177,3.177,0,0,1,144.377,25.291Z" transform="translate(-48.3 -22.1)" fill="#fbc96b" opacity="0.5"/>
        <g id="Group_3094" data-name="Group 3094" transform="translate(7.8 7.8)">
          <rect id="Rectangle_1045" data-name="Rectangle 1045" width="40.771" height="40.771" fill="#ea5d3f" opacity="0.6"/>
          <rect id="Rectangle_1046" data-name="Rectangle 1046" width="17.372" height="17.372" transform="translate(23.222 42.898)" fill="#f66" opacity="0.6"/>
        </g>
      </g>
      <g id="Group_3098" data-name="Group 3098" transform="translate(89.5 125.64)">
        <ellipse id="Ellipse_105" data-name="Ellipse 105" cx="46.089" cy="5.672" rx="46.089" ry="5.672" transform="translate(0 228.347)" fill="#d8bda7" opacity="0.32"/>
        <path id="Path_31264" data-name="Path 31264" d="M126.923,100.8c.355,0,.532.177,0,.532a17.194,17.194,0,0,0-3.013,3.368c-.886,1.064-2.3,3.368-4.077,4.609s-9.75,4.786-11.168,4.963c-1.241.177-3.368-.177-.709-5.141,1.418-2.659,2.3-3.191,3.9-3.723,1.418-.532,4.786-2.127,5.318-1.95s.177.886-3.368,3.013c-.532.709,2.482,1.6,3.545,1.241,1.064-.177,1.773-4.077,2.482-4.786q1.064-.8,1.6-.532c.355.177-.355,1.241-.886,2.482a2.448,2.448,0,0,0-.177,1.95,49.338,49.338,0,0,1,3.9-4.609C125.683,101.155,125.86,100.977,126.923,100.8Z" transform="translate(-7.093 -47.767)" fill="#e49f98"/>
        <path id="Path_31265" data-name="Path 31265" d="M108.431,116.87a63.842,63.842,0,0,0,4.077-5.85c.709-1.418,4.786-3.191,7.622-2.659,0,0,1.418-4.963,2.3-5.318.886-.532,1.6-.177,1.064.709a22.084,22.084,0,0,0-1.241,3.723s2.127.886,2.482-1.064,1.95-4.609,3.191-4.963,1.241.177.355,1.241c-.886,1.241-1.418,3.191-1.064,3.9.177.532-1.95,2.482-3.9,3.545s-7.091,3.368-8.509,4.963-9.218,12.231-9.218,12.231l-5.5-2.659Z" transform="translate(-12.177 -47.351)" fill="#f8b7b0"/>
        <path id="Path_31266" data-name="Path 31266" d="M82.9,109.149a14.831,14.831,0,0,0,13.472-4.963c1.418-1.95-3.191-3.723-4.963-5.672a5.816,5.816,0,0,1-1.064-3.723,39.594,39.594,0,0,1,1.064-8.331L76.7,83.8s.532,7.445.532,10.281a2.628,2.628,0,0,1-.177,1.241c-.532,1.773-2.3,2.482-5.141,4.786C68.365,102.767,75.455,108.085,82.9,109.149Z" transform="translate(-34.685 -60.901)" fill="#f8b7b0"/>
        <path id="Path_31267" data-name="Path 31267" d="M73.811,86.861c-1.241-.177-1.95.177-2.482-5.672-.177-2.482-.177-4.609,2.3-7.268,0,0,3.191-.709,3.545,3.368S76.47,86.152,73.811,86.861Z" transform="translate(-34.458 -68.571)" fill="#1c1e38"/>
        <path id="Path_31268" data-name="Path 31268" d="M74.57,94.081v.532a8.079,8.079,0,0,0,5.141,2.659c2.3,0,5.318-1.241,8.154-3.723a69.437,69.437,0,0,1,1.064-7.091L74.216,83.8C74.038,83.8,74.57,91.245,74.57,94.081Z" transform="translate(-32.204 -60.901)" fill="#e49f98"/>
        <path id="Path_31269" data-name="Path 31269" d="M93.109,88.263c-.709,6.382-1.064,9.395-3.9,12.054s-5.672,3.9-7.977,3.9c-2.836,0-7.091-4.432-7.8-7.268a51.156,51.156,0,0,1-.886-16.84c.532-3.545,4.786-7.8,9.395-7.8C86.373,72.132,94.7,72.664,93.109,88.263Z" transform="translate(-33.726 -69.796)" fill="#f8b7b0"/>
        <path id="Path_31270" data-name="Path 31270" d="M71.789,84.215c.532,2.3,1.95,3.9,3.191,3.723,1.241-.355,1.773-2.3,1.241-4.609s-1.95-3.9-3.191-3.723S71.258,81.91,71.789,84.215Z" transform="translate(-34.21 -64.152)" fill="#f8b7b0"/>
        <path id="Path_31271" data-name="Path 31271" d="M93.317,77.827s-5.141,2.836-13.295,1.6C72.4,78.359,72.4,76.409,72.4,76.409s1.418-5.141,6.559-5.5C84.277,70.736,91.9,71.091,93.317,77.827Z" transform="translate(-33.579 -70.882)" fill="#1c1e38"/>
        <path id="Path_31272" data-name="Path 31272" d="M84.611,86.861c-1.241-.177-1.95.177-2.482-5.672-.177-2.482-.177-4.609,2.3-7.268,0,0,3.191-.709,3.545,3.368S87.27,86.152,84.611,86.861Z" transform="translate(-26.114 -68.571)" fill="#1c1e38"/>
        <path id="Path_31273" data-name="Path 31273" d="M124.306,130.984l14.89-7.622,1.418,9.4-21.626,11.522-9.395-21.272s-.177,31.73-.532,36.162c-.355,4.254-1.418,4.786-3.368,4.786H75.736c-2.127,0-3.545-2.127-3.191-6.027.355-3.191,2.3-28.894,1.418-40.593,0,0-1.418,9.927-2.482,20.917l18.79,16.486-2.482,7.445L61.2,144.1s.177-36.871,8.154-44.316c3.013-2.836,10.459-7.977,13.827-8.686l8.331,4.786.709,1.95.355-1.95,5.318-3.9c4.963.886,12.054,5.672,12.94,7.8C113.138,104.395,124.306,130.984,124.306,130.984Z" transform="translate(-42.233 -55.261)" fill="#f22f5d"/>
        <path id="Path_31274" data-name="Path 31274" d="M83.141,82.514c-.886,2.127-.709,4.432.532,4.786,1.064.532,2.836-.886,3.723-3.191.886-2.127.709-4.432-.532-4.786C85.8,78.969,84.028,80.387,83.141,82.514Z" transform="translate(-25.708 -64.402)" fill="#f8b7b0"/>
        <path id="Path_31275" data-name="Path 31275" d="M74.827,89.9A5.085,5.085,0,0,0,72.7,93.445a30.869,30.869,0,0,0,6.559,8.331S80.5,97.7,82.272,96.991Z" transform="translate(-33.347 -56.188)" fill="#cc1d4f"/>
        <path id="Path_31276" data-name="Path 31276" d="M85.1,89.7a9.634,9.634,0,0,1,.709,4.254s-2.127,4.963-5.672,7.8c0,0,.532-3.013-1.241-4.786Z" transform="translate(-28.557 -56.343)" fill="#cc1d4f"/>
        <g id="Group_3096" data-name="Group 3096" transform="translate(26.412 83.7)">
          <path id="Path_31277" data-name="Path 31277" d="M70.363,119.164c-.177,4.432-.532,8.686-.709,12.054L65.4,128.381A81.949,81.949,0,0,1,69.123,118.1Z" transform="translate(-65.4 -118.1)" fill="#cc1d4f"/>
        </g>
        <g id="Group_3097" data-name="Group 3097" transform="translate(16.293 103.022)">
          <path id="Path_31278" data-name="Path 31278" d="M70.874,198.288c.532,2.127,1.6,3.723.886,4.963s-.177,2.127.532,3.723c.709,1.773,3.191,5.141-3.191,5.141-6.913.177-10.281-1.6-9.218-5.318,1.241-3.723,1.064-4.963.886-6.2a3.918,3.918,0,0,1,1.064-3.191C62.72,196.515,69.988,194.388,70.874,198.288Z" transform="translate(-59.691 -77.217)" fill="#4c37a8"/>
          <path id="Path_31279" data-name="Path 31279" d="M93.631,197.025c.532,1.241,3.545,4.432,7.977,6.736,4.254,2.3,13.472,4.254,7.977,5.5-5.318,1.241-9.04,1.064-17.195-1.6C89.022,206.6,89.2,206.6,85.654,206.6c-3.723.177-6.382,1.064-4.609-6.027C82.64,193.657,91.858,192.771,93.631,197.025Z" transform="translate(-43.627 -78.435)" fill="#4c37a8"/>
          <path id="Path_31280" data-name="Path 31280" d="M73.318,131.482s0-1.6,1.241-1.773S77.926,129,92.639,129s17.195.355,17.195,1.418c0,0,1.6,49.988,1.064,58.5-.355,8.331-1.6,49.811-1.064,53.534a35.748,35.748,0,0,0,1.241,6.559l-5.318-1.418s-8.331,4.786-9.218,6.382-.177-3.545-.709-8.863.709-49.1.886-55.129-3.545-38.112-3.545-38.112H90.512s-7.622,25.349-8.863,32.085c-1.064,6.736-2.127,11.168-3.013,14.713-1.241,5.141-6.381,43.607-6.913,47.152a28.807,28.807,0,0,0,0,7.268l-3.191-3.014s-7.268.709-8.331,3.368c0,0,3.368-54.952,5.318-62.4S73.318,131.482,73.318,131.482Z" transform="translate(-59.298 -129)" fill="#fcba6b"/>
        </g>
        <path id="Path_31281" data-name="Path 31281" d="M75.3,83.8a2.2,2.2,0,0,0,2.3,1.6,2.763,2.763,0,0,0,2.127-1.064,3,3,0,0,1-1.773.532A3.111,3.111,0,0,1,75.3,83.8Z" transform="translate(-31.339 -60.901)" fill="#e49f98"/>
        <path id="Path_31282" data-name="Path 31282" d="M107.854,108.2s1.6,8.686,1.418,11.877l-5.672,3.191.532-13.118Z" transform="translate(-9.473 -42.049)" fill="#cc1d4f"/>
      </g>
      <g id="Group_3099" data-name="Group 3099" transform="translate(104.213 54.589)">
        <path id="Path_31283" data-name="Path 31283" d="M77.59,40.195c0,5.141-9.395,15.954-9.395,15.954S58.8,45.336,58.8,40.195a9.395,9.395,0,1,1,18.79,0Z" transform="translate(-58.8 -30.8)" opacity="0.33" fill="url(#linear-gradient-6)"/>
        <path id="Path_31284" data-name="Path 31284" d="M69.8,37.8a3.9,3.9,0,1,1-3.9-3.9A3.934,3.934,0,0,1,69.8,37.8Z" transform="translate(-56.328 -28.405)" opacity="0.33" fill="url(#linear-gradient-7)"/>
      </g>
      <g id="Group_3101" data-name="Group 3101" transform="translate(53.881 144.118)">
        <g id="Group_3100" data-name="Group 3100">
          <path id="Path_31285" data-name="Path 31285" d="M58.048,116.393a18.681,18.681,0,1,1,7.445-25.349C70.28,100.262,67.089,111.607,58.048,116.393ZM41.917,87.145A14.876,14.876,0,1,0,56.276,113.2,14.876,14.876,0,1,0,41.917,87.145Z" transform="translate(-30.406 -81.306)" fill="#fbc96b"/>
          <path id="Path_31286" data-name="Path 31286" d="M52.154,94.981l-7.091,3.9a1.794,1.794,0,0,1-2.482-.709L36.909,87.891A1.825,1.825,0,0,1,40.1,86.118L44.886,94.8l5.5-3.013a1.825,1.825,0,0,1,1.773,3.191Z" transform="translate(-25.575 -78.329)" fill="#fbc96b"/>
        </g>
      </g>
    </g>
  </g>
</svg>
