<svg xmlns="http://www.w3.org/2000/svg" xmlns:xlink="http://www.w3.org/1999/xlink" width="417.1" height="344.619" viewBox="0 0 417.1 344.619">
  <defs>
    <linearGradient id="linear-gradient" x1="0.542" y1="-0.481" x2="0.542" y2="-1.716" gradientUnits="objectBoundingBox">
      <stop offset="0" stop-color="#2c27ce"/>
      <stop offset="1" stop-color="#ef1d68"/>
    </linearGradient>
    <linearGradient id="linear-gradient-2" x1="0.541" y1="-0.542" x2="0.541" y2="-1.783" gradientUnits="objectBoundingBox">
      <stop offset="0" stop-color="#2ca6ef"/>
      <stop offset="1" stop-color="#b1ffff"/>
    </linearGradient>
    <linearGradient id="linear-gradient-3" x1="-0.402" y1="-28.577" x2="0.867" y2="-32.803" xlink:href="#linear-gradient"/>
    <linearGradient id="linear-gradient-4" x1="1.973" y1="-13.502" x2="-1.987" y2="-13.502" gradientUnits="objectBoundingBox">
      <stop offset="0" stop-color="#36078b"/>
      <stop offset="1" stop-color="#16b1ff"/>
    </linearGradient>
    <linearGradient id="linear-gradient-5" x1="-2.534" y1="-19.467" x2="1.274" y2="-20.393" xlink:href="#linear-gradient"/>
    <linearGradient id="linear-gradient-6" x1="-3.607" y1="-36.465" x2="0.655" y2="-36.465" xlink:href="#linear-gradient"/>
    <linearGradient id="linear-gradient-7" x1="-5.075" y1="-43.904" x2="0.501" y2="-43.904" xlink:href="#linear-gradient"/>
    <linearGradient id="linear-gradient-8" x1="-7.939" y1="-55.132" x2="0.202" y2="-55.132" xlink:href="#linear-gradient"/>
    <linearGradient id="linear-gradient-9" x1="7.041" y1="-70.102" x2="-10.678" y2="-70.102" xlink:href="#linear-gradient-4"/>
    <linearGradient id="linear-gradient-10" x1="-5.723" y1="-46.74" x2="0.352" y2="-46.74" xlink:href="#linear-gradient"/>
    <linearGradient id="linear-gradient-11" x1="0.133" y1="-3.125" x2="1.66" y2="-4.652" xlink:href="#linear-gradient-2"/>
    <linearGradient id="linear-gradient-12" x1="1.129" y1="-7.292" x2="2.976" y2="-7.006" xlink:href="#linear-gradient"/>
    <linearGradient id="linear-gradient-13" x1="3.892" y1="-10.386" x2="-1.305" y2="-10.386" gradientUnits="objectBoundingBox">
      <stop offset="0" stop-color="#36078b"/>
      <stop offset="0.264" stop-color="#2e34aa"/>
      <stop offset="1" stop-color="#16b1ff"/>
    </linearGradient>
    <linearGradient id="linear-gradient-14" x1="5.056" y1="-3.759" x2="-0.663" y2="-3.759" xlink:href="#linear-gradient-4"/>
    <linearGradient id="linear-gradient-15" x1="0.443" y1="-36.622" x2="0.443" y2="-38.423" xlink:href="#linear-gradient-4"/>
    <linearGradient id="linear-gradient-16" x1="0.48" y1="-35.923" x2="0.48" y2="-37.703" xlink:href="#linear-gradient-4"/>
    <linearGradient id="linear-gradient-17" x1="0.563" y1="-35.906" x2="0.563" y2="-37.693" xlink:href="#linear-gradient-4"/>
    <linearGradient id="linear-gradient-18" x1="0.407" y1="0.797" x2="0.618" y2="0.122" xlink:href="#linear-gradient-2"/>
    <linearGradient id="linear-gradient-19" x1="6.332" y1="0.95" x2="7.488" y2="-0.268" xlink:href="#linear-gradient-4"/>
    <linearGradient id="linear-gradient-20" x1="9.649" y1="-23.532" x2="10.931" y2="-24.592" xlink:href="#linear-gradient-4"/>
    <linearGradient id="linear-gradient-21" x1="34.622" y1="-52.303" x2="36.022" y2="-53.3" xlink:href="#linear-gradient-4"/>
    <linearGradient id="linear-gradient-22" x1="75.583" y1="-86.396" x2="76.886" y2="-87.497" xlink:href="#linear-gradient-4"/>
    <linearGradient id="linear-gradient-23" x1="2.148" y1="-2.841" x2="3.376" y2="-3.961" xlink:href="#linear-gradient-4"/>
    <linearGradient id="linear-gradient-24" x1="-0.516" y1="0.901" x2="1.552" y2="0.079" gradientUnits="objectBoundingBox">
      <stop offset="0.483" stop-color="#36078b"/>
      <stop offset="1" stop-color="#16b1ff"/>
    </linearGradient>
    <linearGradient id="linear-gradient-25" x1="61.468" y1="6.086" x2="62.697" y2="4.963" xlink:href="#linear-gradient-4"/>
    <linearGradient id="linear-gradient-26" x1="1.495" y1="0.918" x2="-0.485" y2="0.083" xlink:href="#linear-gradient-24"/>
    <linearGradient id="linear-gradient-27" x1="0.475" y1="-2.802" x2="1.726" y2="-3.896" xlink:href="#linear-gradient-4"/>
    <linearGradient id="linear-gradient-28" x1="-0.426" y1="0.941" x2="1.387" y2="0.055" xlink:href="#linear-gradient-24"/>
    <linearGradient id="linear-gradient-29" x1="0.335" y1="1.925" x2="1.468" y2="0.673" xlink:href="#linear-gradient-4"/>
    <linearGradient id="linear-gradient-30" x1="-0.2" y1="0.875" x2="1.17" y2="0.108" xlink:href="#linear-gradient-24"/>
    <linearGradient id="linear-gradient-31" x1="0.338" y1="1.991" x2="0.675" y2="-0.797" xlink:href="#linear-gradient-4"/>
    <linearGradient id="linear-gradient-32" x1="0.375" y1="1.536" x2="0.638" y2="-0.471" xlink:href="#linear-gradient-4"/>
    <linearGradient id="linear-gradient-33" x1="0.491" y1="0.999" x2="0.498" y2="-0.073" xlink:href="#linear-gradient-4"/>
    <linearGradient id="linear-gradient-34" x1="-0.04" y1="0.948" x2="0.894" y2="-0.033" xlink:href="#linear-gradient-4"/>
    <linearGradient id="linear-gradient-35" x1="0.501" y1="0.082" x2="0.501" y2="0.901" xlink:href="#linear-gradient"/>
    <linearGradient id="linear-gradient-36" x1="0.502" y1="1.501" x2="0.502" y2="0.025" xlink:href="#linear-gradient"/>
    <linearGradient id="linear-gradient-37" x1="1.18" y1="9.11" x2="1.35" y2="3.929" xlink:href="#linear-gradient-4"/>
    <linearGradient id="linear-gradient-38" x1="1.199" y1="6.862" x2="1.386" y2="3.403" xlink:href="#linear-gradient-4"/>
    <linearGradient id="linear-gradient-39" x1="102.18" y1="-5.386" x2="103.966" y2="-4.787" xlink:href="#linear-gradient-4"/>
    <linearGradient id="linear-gradient-40" x1="-0.25" y1="6.131" x2="3.637" y2="2.892" gradientUnits="objectBoundingBox">
      <stop offset="0" stop-color="#2c27ce"/>
      <stop offset="0.649" stop-color="#ef1d68"/>
      <stop offset="1" stop-color="#efba92"/>
    </linearGradient>
    <linearGradient id="linear-gradient-41" x1="73.269" y1="1.781" x2="75.771" y2="0.686" xlink:href="#linear-gradient-4"/>
    <linearGradient id="linear-gradient-42" x1="0.125" y1="7.51" x2="0.595" y2="4.165" gradientUnits="objectBoundingBox">
      <stop offset="0" stop-color="#ff664f"/>
      <stop offset="1" stop-color="#9e005d"/>
    </linearGradient>
    <linearGradient id="linear-gradient-43" x1="0.408" y1="2.782" x2="0.989" y2="0.949" xlink:href="#linear-gradient-42"/>
    <linearGradient id="linear-gradient-44" x1="0.108" y1="2.83" x2="0.92" y2="1.579" xlink:href="#linear-gradient-42"/>
    <linearGradient id="linear-gradient-45" x1="0.487" y1="2.146" x2="1.906" y2="0.752" xlink:href="#linear-gradient-42"/>
    <linearGradient id="linear-gradient-46" x1="0.044" y1="2.813" x2="0.824" y2="1.536" xlink:href="#linear-gradient-42"/>
    <linearGradient id="linear-gradient-47" x1="0.227" y1="2.435" x2="1.364" y2="0.966" xlink:href="#linear-gradient-4"/>
    <linearGradient id="linear-gradient-48" x1="-1.112" y1="7.148" x2="2.872" y2="3.718" xlink:href="#linear-gradient-40"/>
    <linearGradient id="linear-gradient-49" x1="-0.172" y1="8.76" x2="1.701" y2="4.281" xlink:href="#linear-gradient-40"/>
    <clipPath id="clip-path">
      <path id="Path_31357" data-name="Path 31357" d="M453.966,378.175a4.578,4.578,0,0,0-.634-2.217c.158-.158,0-.475-.317-.792-5.068-5.227-17.264-41.656-29.143-51.317a2.7,2.7,0,0,0-.158-1.109c-.792-7.286-2.376-36.587-2.851-41.656a70.157,70.157,0,0,0-.792-13.3c-3.009-11.087-4.118-38.013-2.059-55.119,0-.475.158-.95.158-1.584.317-3.8,0-8.078-2.217-11.246a6.048,6.048,0,0,0-1.425-1.425c-.158-.158-.317-.317-.475-.317-2.693-2.059-6.177-2.693-9.662-2.693h-.95c-.95-2.217-1.9-4.593-2.851-6.494a7.584,7.584,0,0,0,.792-4.752,5.036,5.036,0,0,0,2.059-3.96c.317-2.376-.317-4.593-1.584-4.752h-.475c0-1.584-.792-3.484-2.217-6.177-1.109-2.059-2.217-2.693-3.326-2.534,1.267-4.435-12.988-1.425-14.413-1.584-2.851-.475-.792-1.742-3.96-.95-4.91,1.742-4.118,8.078-.792,9.662-1.109,2.376.792,5.227,2.217,7.127a46.093,46.093,0,0,0,3.96,11.246c1.425,2.534,4.752,5.385,7.919,4.593.158,0,.475-.158.634-.158a2.936,2.936,0,0,1,.317,1.109,21.53,21.53,0,0,0-6.177,2.693,15.746,15.746,0,0,0-6.652,9.186,41.372,41.372,0,0,0-.475,11.721c.158,1.109.158,2.217.317,3.326-.158,1.742-.158,3.326-.317,5.068a152.8,152.8,0,0,1-15.205,7.444,1.54,1.54,0,0,0-1.425-.158c-1.425.475-6.969,1.9-8.395,3.643h-.158c-.792.317-5.544,2.693-5.227,3.326.634,1.109,3.8-.158,6.019-1.109h0a7.437,7.437,0,0,0,9.345.475c2.693.634,5.86-.634,12.2-2.376.634-.158,1.267-.317,2.059-.475a10.259,10.259,0,0,1-.792,3.326l-.95,1.425c-3.326,3.8-5.385,8.236-7.6,12.671-1.584,3.326-3.009,7.761-5.544,10.612-.158.317-.317.475-.475.792-1.9.475-3.96.792-5.227,1.109-1.742.317-1.267,4.276-.317,4.91,1.584.95,6.652,1.742,7.761-.158,1.109-2.059,3.326-1.584,3.643-3.643a2.2,2.2,0,0,0,0-1.425,25.878,25.878,0,0,0,6.177-5.7c2.534-2.851,4.752-5.86,7.127-8.87.634,6.652.95,10.929.95,10.929a184.159,184.159,0,0,0-2.059,20.432c-.95,10.77-2.693,28.668-3.326,34.212a16.289,16.289,0,0,0-.158,2.693v.158c-.475,10.137.95,32.944,5.7,56.386a4.613,4.613,0,0,0-.317,1.267,13.789,13.789,0,0,1-4.91,3.009c-2.851,1.109-8.87,1.425-5.544,2.693s7.286.634,9.186.475c2.059-.158,3.96-.158,6.177-.158,3.009.158,3.168-.158,2.851-3.485v-.475h0c-.792-12.513,5.227-41.339,2.217-57.811,3.168-9.186,6.336-22.649,8.395-32.311,1.109,8.87,6.494,24.867,9.5,35.954a6.582,6.582,0,0,0,3.168,3.485c.634.792,1.267,1.584,2.059,2.534,8.394,8.711,21.857,33.895,30.41,43.715-.792,1.425-1.9,3.009-3.326,3.485-2.851,1.109-7.919,2.376-4.752,3.643,3.326,1.267,7.286.634,9.186.475,2.059-.158,2.376-2.693,4.593-3.8C454.758,381.343,454.283,381.5,453.966,378.175Z" transform="translate(-347.99 -163.939)"/>
    </clipPath>
    <linearGradient id="linear-gradient-50" x1="0.286" y1="5.23" x2="1.57" y2="5.694" gradientUnits="objectBoundingBox">
      <stop offset="0" stop-color="blue"/>
      <stop offset="1" stop-color="#9e005d"/>
    </linearGradient>
    <linearGradient id="linear-gradient-51" x1="-0.846" y1="0.501" x2="1.701" y2="0.501" xlink:href="#linear-gradient"/>
    <linearGradient id="linear-gradient-52" x1="0.5" y1="0.1" x2="0.5" y2="-1.004" xlink:href="#linear-gradient-4"/>
    <linearGradient id="linear-gradient-53" x1="0.5" y1="0.632" x2="0.5" y2="-0.323" xlink:href="#linear-gradient"/>
    <linearGradient id="linear-gradient-54" x1="-0.317" y1="0.501" x2="0.639" y2="0.501" xlink:href="#linear-gradient"/>
    <linearGradient id="linear-gradient-55" x1="0.501" y1="0.639" x2="0.501" y2="-0.405" xlink:href="#linear-gradient-4"/>
    <linearGradient id="linear-gradient-56" x1="231.402" y1="10.789" x2="229.869" y2="12.127" xlink:href="#linear-gradient-42"/>
    <linearGradient id="linear-gradient-57" x1="90.351" y1="84.532" x2="90.085" y2="86.001" xlink:href="#linear-gradient-42"/>
    <linearGradient id="linear-gradient-58" x1="0.404" y1="0.78" x2="0.753" y2="-0.157" xlink:href="#linear-gradient-42"/>
    <linearGradient id="linear-gradient-59" x1="-1.408" y1="0.142" x2="-1.473" y2="1.152" xlink:href="#linear-gradient-4"/>
    <linearGradient id="linear-gradient-60" x1="-1.453" y1="0.147" x2="-1.518" y2="1.152" xlink:href="#linear-gradient-4"/>
    <linearGradient id="linear-gradient-61" x1="237.023" y1="-11.881" x2="237.311" y2="-13.1" xlink:href="#linear-gradient-4"/>
    <linearGradient id="linear-gradient-62" x1="309.476" y1="15.646" x2="307.519" y2="17.094" xlink:href="#linear-gradient-42"/>
    <linearGradient id="linear-gradient-63" x1="17.896" y1="43.28" x2="17.329" y2="44.884" xlink:href="#linear-gradient-42"/>
    <linearGradient id="linear-gradient-64" x1="195.082" y1="4.372" x2="195.269" y2="-0.429" xlink:href="#linear-gradient-4"/>
    <linearGradient id="linear-gradient-65" x1="186.872" y1="97.913" x2="187.07" y2="94.133" xlink:href="#linear-gradient-4"/>
    <linearGradient id="linear-gradient-66" x1="133.614" y1="-22.72" x2="133.777" y2="-25.076" xlink:href="#linear-gradient-4"/>
    <linearGradient id="linear-gradient-67" x1="424.208" y1="-27.061" x2="424.724" y2="-29.858" xlink:href="#linear-gradient-4"/>
    <linearGradient id="linear-gradient-68" x1="142.148" y1="-11.215" x2="142.323" y2="-12.377" xlink:href="#linear-gradient-4"/>
    <linearGradient id="linear-gradient-69" x1="-0.521" y1="1.846" x2="0.725" y2="0.244" xlink:href="#linear-gradient-40"/>
    <linearGradient id="linear-gradient-70" x1="-0.591" y1="3.65" x2="0.588" y2="0.208" xlink:href="#linear-gradient-40"/>
    <linearGradient id="linear-gradient-71" x1="-0.227" y1="1.867" x2="0.571" y2="0.333" xlink:href="#linear-gradient-40"/>
    <linearGradient id="linear-gradient-72" x1="-1.291" y1="2.69" x2="1.041" y2="-0.086" xlink:href="#linear-gradient-40"/>
    <linearGradient id="linear-gradient-73" x1="-1.051" y1="5.101" x2="0.417" y2="0.817" xlink:href="#linear-gradient-40"/>
    <clipPath id="clip-path-2">
      <path id="Path_31390" data-name="Path 31390" d="M385.722,255.5a90.608,90.608,0,0,0-1.9-13.463,5.1,5.1,0,0,0-1.742-3.009c-1.9-1.9-4.91-2.693-8.236-3.009,0-.95-.158-2.059-.158-3.009,3.168-1.267,7.919-3.8,8.553-7.6.95-5.7-2.217-26.292-21.382-22.649a.582.582,0,0,0-.475.158c-.317,0-.634.158-.95.158h0a11.963,11.963,0,0,0-3.643,2.059,11.4,11.4,0,0,0-4.435,5.544,12.042,12.042,0,0,0,.317,6.335c1.267,7.761,2.534,18.531,2.059,20.749a26.713,26.713,0,0,0,6.652-3.009,5.319,5.319,0,0,0,3.8.634c.475-.158.95-.158,1.267-.317v1.109c-.792,0-1.425.158-2.059.158a21.864,21.864,0,0,0-3.168.475,9.011,9.011,0,0,0-5.068,3.168,22.482,22.482,0,0,0-2.693,5.544,39.405,39.405,0,0,1-3.8,6.652H325.218a2.8,2.8,0,0,0-2.534,4.118l.158.317v.158l2.376,4.752a1.448,1.448,0,0,0-1.109.475c-.317.95-.317,3.484.792,4.593a3.97,3.97,0,0,0,1.109.634c0,.158.158.317.158.475.475.95,1.267,1.109,2.851,1.584l1.267,2.376a2.821,2.821,0,0,0,2.534,1.584h5.385a48.611,48.611,0,0,0,11.562,4.118c-.475,8.078-2.693,16.156-3.643,21.541-10.612-7.6-25.817-18.531-29.618-21.382-4.752-3.643-7.919-4.118-9.978-3.168-3.8.634-5.86,4.752-1.9,10.3,6.494,9.186,14.73,16.789,26.292,35.32a15.2,15.2,0,0,1-3.326,2.059c-2.534,1.109-7.919,1.584-4.91,2.693a8.968,8.968,0,0,0,2.851.475c-3.96,2.217-7.444,4.118-9.978,5.544a5.267,5.267,0,0,0-1.9,2.217,13.406,13.406,0,0,0-1.584,2.217c-5.7,9.662-23.6,36.112-29.777,44.19a13.772,13.772,0,0,1-4.91-.317c-2.693-.634-7.286-3.485-5.544-.792,1.742,2.534,4.91,4.276,6.494,5.068a26.57,26.57,0,0,1,4.593,3.168c2.217,1.584,2.376,1.584,3.96-1.109a3.959,3.959,0,0,0,.634-2.217c.158.158.475,0,.792-.317,5.227-5.068,30.569-30.094,35.637-42.289.317-.158.475-.158.792-.317,6.652-2.376,43.4-12.671,47.041-13.938a18.036,18.036,0,0,0,4.91-2.534c2.851-1.584,6.019-6.494,2.376-20.432-.158-.792-1.9-8.078-2.059-9.028-.475-2.376-1.109-4.752-1.425-7.286a49.8,49.8,0,0,1-.158-11.879c1.109.95,2.376,1.9,3.96,3.009a4.076,4.076,0,0,0,5.385-.317,2.5,2.5,0,0,0,.792-1.267C386.2,274.032,386.831,268.489,385.722,255.5Zm-8.553,10.612a.952.952,0,0,0,.158.634l-.158-.158A.3.3,0,0,1,377.169,266.113ZM339.631,317.43a11.813,11.813,0,0,0-1.9,1.109c-.95-1.584-1.742-3.168-2.693-4.752a10.249,10.249,0,0,0,1.425,1.267C337.572,315.847,338.681,316.639,339.631,317.43Z" transform="translate(-271.457 -202.329)"/>
    </clipPath>
    <linearGradient id="linear-gradient-74" x1="0.12" y1="5.674" x2="1.39" y2="6.156" xlink:href="#linear-gradient-50"/>
  </defs>
  <g id="Group_3164" data-name="Group 3164" transform="translate(-784 -2759.353)">
    <path id="Path_31391" data-name="Path 31391" d="M323.772,139.471C251.232,95.736,216.959-39.041,105.1,41.489c-112.069,80.53-65.6,245.794,41.632,285.744s245.374,17.452,284.062-56.77C497.237,143.465,372.342,168.907,323.772,139.471Z" transform="translate(743.547 2743.015)" fill="#eaebfb" opacity="0.278"/>
    <g id="Group_3159" data-name="Group 3159" transform="translate(956.205 2771.593)">
      <path id="Path_31294" data-name="Path 31294" d="M390.208,157.058,384.19,128.39l-3.009-14.255a6.021,6.021,0,0,0-7.127-4.593L273.635,130.924a6.021,6.021,0,0,0-4.593,7.127l3.009,14.255,37.7,177.235a6.021,6.021,0,0,0,7.127,4.593l100.417-21.382a6.021,6.021,0,0,0,4.593-7.127L396.544,186.677a2.264,2.264,0,0,0,1.109-2.693l-5.385-25.025A2.2,2.2,0,0,0,390.208,157.058Z" transform="translate(-268.928 -109.428)" fill="url(#linear-gradient)"/>
      <g id="Group_3110" data-name="Group 3110" transform="translate(5.183 17.496)">
        <g id="Group_3107" data-name="Group 3107" transform="translate(85.091 180.322)">
          <g id="Group_3106" data-name="Group 3106">
            <path id="Path_31295" data-name="Path 31295" d="M332.7,245.374h0a5.609,5.609,0,0,1-6.652-4.276h0a5.609,5.609,0,0,1,4.276-6.652h0a5.609,5.609,0,0,1,6.652,4.276h0A5.609,5.609,0,0,1,332.7,245.374Z" transform="translate(-325.923 -234.323)" fill="#e3fff0"/>
          </g>
        </g>
        <g id="Group_3109" data-name="Group 3109" transform="translate(29.232 5.198)">
          <g id="Group_3108" data-name="Group 3108">
            <path id="Path_31296" data-name="Path 31296" d="M293.418,128.261h0a2.2,2.2,0,0,1-2.693-1.742h0a2.2,2.2,0,0,1,1.742-2.693h0a2.2,2.2,0,0,1,2.693,1.742h0A2.136,2.136,0,0,1,293.418,128.261Z" transform="translate(-290.656 -123.756)" fill="#e3fff0"/>
          </g>
        </g>
        <path id="Path_31297" data-name="Path 31297" d="M320.64,122.1l-22.174,4.752a.808.808,0,1,1-.317-1.584l22.174-4.752a.7.7,0,0,1,.95.634C321.432,121.466,321.115,121.941,320.64,122.1Z" transform="translate(-257.443 -120.474)" fill="#e3fff0"/>
        <path id="Path_31298" data-name="Path 31298" d="M380.22,121.7l34.212,161.08-108.02,22.966L272.2,144.666Z" transform="translate(-272.2 -119.758)" fill="url(#linear-gradient-2)"/>
      </g>
      <g id="Group_3111" data-name="Group 3111" transform="translate(53.462 106.867)">
        <path id="Path_31299" data-name="Path 31299" d="M335.525,187.354l19.482-4.276L353.74,176.9l-19.64,4.276Z" transform="translate(-284.338 -176.9)" fill="url(#linear-gradient-3)"/>
        <rect id="Rectangle_1047" data-name="Rectangle 1047" width="19.957" height="6.335" transform="translate(20.838 16.833) rotate(167.994)" fill="#ebfff8"/>
        <rect id="Rectangle_1048" data-name="Rectangle 1048" width="19.957" height="6.335" transform="translate(45.715 11.628) rotate(167.994)" fill="#ebfff8"/>
      </g>
      <g id="Group_3118" data-name="Group 3118" transform="translate(12.627 20.388)">
        <g id="Group_3112" data-name="Group 3112" transform="translate(21.824 97.796)">
          <rect id="Rectangle_1049" data-name="Rectangle 1049" width="92.656" height="22.174" transform="translate(95.24 21.689) rotate(167.994)" fill="#ebfff8"/>
        </g>
        <g id="Group_3113" data-name="Group 3113" transform="translate(70.482 101.051)">
          <path id="Path_31300" data-name="Path 31300" d="M324.885,210.808l39.755-8.395L361.155,186.1,321.4,194.653Z" transform="translate(-321.4 -186.1)" fill="url(#linear-gradient-4)"/>
        </g>
        <g id="Group_3114" data-name="Group 3114" transform="translate(65.572 109.921)">
          <path id="Path_31301" data-name="Path 31301" d="M325.269,207.855l-3.643.792L318.3,192.334l3.484-.634Z" transform="translate(-318.3 -191.7)" fill="url(#linear-gradient-5)"/>
        </g>
        <g id="Group_3115" data-name="Group 3115" transform="translate(60.415 124.994)">
          <rect id="Rectangle_1050" data-name="Rectangle 1050" width="59.078" height="27.718" transform="translate(63.55 27.111) rotate(167.994)" fill="#ebfff8"/>
          <path id="Path_31302" data-name="Path 31302" d="M329.334,214.045l29.618-6.336-.634-3.009L328.7,211.035Z" transform="translate(-307.07 -199.183)" fill="url(#linear-gradient-6)"/>
          <path id="Path_31303" data-name="Path 31303" d="M334.534,215.861l22.491-4.752-.633-3.009L333.9,212.852Z" transform="translate(-304.034 -197.198)" fill="url(#linear-gradient-7)"/>
          <path id="Path_31304" data-name="Path 31304" d="M339.834,217.577l15.205-3.168-.634-3.009L339.2,214.726Z" transform="translate(-300.94 -195.271)" fill="url(#linear-gradient-8)"/>
          <path id="Path_31305" data-name="Path 31305" d="M332.934,218.61l9.028-1.9-.634-3.009-9.028,1.9Z" transform="translate(-304.968 -193.928)" fill="url(#linear-gradient-9)"/>
          <path id="Path_31306" data-name="Path 31306" d="M337.134,222.086l20.59-4.435-.633-2.851-20.59,4.276Z" transform="translate(-302.516 -193.286)" fill="url(#linear-gradient-10)"/>
        </g>
        <path id="Path_31307" data-name="Path 31307" d="M307.13,213.462l69.532-14.73L361.774,129.2,292.4,143.93Z" transform="translate(-267.85 -118.271)" fill="url(#linear-gradient-11)"/>
        <path id="Path_31308" data-name="Path 31308" d="M344.418,169.938,338.4,151.723a3.065,3.065,0,0,0-3.643-2.059l-1.425.317a10.909,10.909,0,0,0-12.671-7.6,10.733,10.733,0,0,0-8.395,12.037l-1.425.317a3.11,3.11,0,0,0-2.534,3.326l1.9,19.165a10.593,10.593,0,0,0,12.829,9.345l13.621-2.851A10.609,10.609,0,0,0,344.418,169.938ZM321.452,146.18a6.814,6.814,0,0,1,7.919,4.435l-13.3,2.851A6.85,6.85,0,0,1,321.452,146.18Z" transform="translate(-258.572 -110.701)" fill="url(#linear-gradient-12)"/>
        <g id="Group_3116" data-name="Group 3116" transform="translate(27.559 138.43)">
          <path id="Path_31309" data-name="Path 31309" d="M300.16,242.486l27.084-5.7-5.86-27.084L294.3,215.4Z" transform="translate(-294.3 -209.7)" fill="url(#linear-gradient-13)"/>
          <path id="Path_31310" data-name="Path 31310" d="M306.63,224.107h0a3.433,3.433,0,0,0,2.693-4.118l-.475-2.059a3.433,3.433,0,0,0-4.118-2.693h0a3.433,3.433,0,0,0-2.693,4.118l.475,2.059A3.362,3.362,0,0,0,306.63,224.107Z" transform="translate(-289.841 -206.526)" fill="#f8fffb"/>
          <path id="Path_31311" data-name="Path 31311" d="M306.909,219.76a8.388,8.388,0,0,1,8.395,3.168,2.528,2.528,0,0,1-1.425,3.96l-10.3,2.217a2.46,2.46,0,0,1-2.851-3.009A8.166,8.166,0,0,1,306.909,219.76Z" transform="translate(-290.595 -203.921)" fill="#f8fffb"/>
        </g>
        <path id="Path_31312" data-name="Path 31312" d="M292.213,139.5,279.7,142.193l17.423,81.886,12.513-2.693Z" transform="translate(-275.265 -112.257)" fill="url(#linear-gradient-14)"/>
        <path id="Path_31313" data-name="Path 31313" d="M344.848,126.1l-59.4,91.389L276.9,176.942l27.4-42.289Z" transform="translate(-276.9 -120.081)" fill="#f5feff" opacity="0.3"/>
        <path id="Path_31314" data-name="Path 31314" d="M369.246,122.3,287.676,247.9,283.4,227.627l65.572-101.051Z" transform="translate(-273.105 -122.3)" fill="#f5feff" opacity="0.3"/>
        <g id="Group_3117" data-name="Group 3117" transform="translate(28.51 117.365)">
          <path id="Path_31315" data-name="Path 31315" d="M296.642,208.35l-.158-.158-1.584-7.761v-.317l.158-.158,3.96-.792a3.746,3.746,0,0,1,2.693.158,2.976,2.976,0,0,1,1.267,1.742,2.009,2.009,0,0,1-.158.95c-.158.317-.317.475-.475.792a1.68,1.68,0,0,1,1.425,1.426,2.62,2.62,0,0,1-.475,2.217,3.377,3.377,0,0,1-2.376,1.109l-4.118.792C296.8,208.509,296.642,208.35,296.642,208.35Zm2.693-6.019a.341.341,0,0,0,.317-.317v-.475a.553.553,0,0,0-.158-.317.582.582,0,0,0-.475-.158l-.95.158.158,1.109Zm.792,3.168a.341.341,0,0,0,.317-.317c0-.158.158-.317,0-.475a.553.553,0,0,0-.158-.317.582.582,0,0,0-.475-.158l-1.109.158.317,1.109Z" transform="translate(-294.9 -194.887)" fill="url(#linear-gradient-15)"/>
          <path id="Path_31316" data-name="Path 31316" d="M302.993,206.586a3.407,3.407,0,0,1-1.584-2.217l-1.109-4.91v-.317l.158-.158,2.376-.475h.317l.158.158,1.109,4.91a.823.823,0,0,0,.317.634,1.187,1.187,0,0,0,.792.158.823.823,0,0,0,.634-.317.707.707,0,0,0,0-.792l-1.109-4.91v-.317l.158-.158,2.376-.475h.317l.158.158,1.109,4.91a3.628,3.628,0,0,1-.475,2.693A5.423,5.423,0,0,1,306,206.586,3.315,3.315,0,0,1,302.993,206.586Z" transform="translate(-291.747 -195.816)" fill="url(#linear-gradient-16)"/>
          <path id="Path_31317" data-name="Path 31317" d="M310.135,205.745l-.158-.158-.475-2.376-3.8-4.752v-.317l.158-.158,2.217-.475h.317a.155.155,0,0,1,.158.158l1.742,2.217.634-2.693a.155.155,0,0,1,.158-.158c0-.158.158-.158.317-.158l2.217-.475h.158l.158.158v.158l-1.584,5.86.475,2.376v.317l-.158.158-2.376.475A.155.155,0,0,0,310.135,205.745Z" transform="translate(-288.594 -196.4)" fill="url(#linear-gradient-17)"/>
        </g>
      </g>
      <path id="Path_31318" data-name="Path 31318" d="M390.208,157.058,384.19,128.39l-3.009-14.255a6.021,6.021,0,0,0-7.127-4.593L273.635,130.924a6.021,6.021,0,0,0-4.593,7.127l3.009,14.255,37.7,177.235a6.021,6.021,0,0,0,7.127,4.593l100.417-21.382a6.021,6.021,0,0,0,4.593-7.127L396.544,186.677a2.264,2.264,0,0,0,1.109-2.693l-5.385-25.025A2.2,2.2,0,0,0,390.208,157.058Z" transform="translate(-268.928 -109.428)" opacity="0.6" fill="url(#linear-gradient-18)"/>
    </g>
    <g id="Group_3160" data-name="Group 3160" transform="translate(850.6 2833.954)">
      <path id="Path_31319" data-name="Path 31319" d="M242.083,284.182c-6.969-4.435,1.9-18.214,18.373-19.482,0,0,1.742,7.127.158,13.621C259.189,283.706,251.9,290.359,242.083,284.182Z" transform="translate(-180.396 -81.129)" fill="url(#linear-gradient-19)"/>
      <path id="Path_31320" data-name="Path 31320" d="M236.908,286.867c-8.236-1.584-4.752-17.581,9.978-24.867,0,0,4.276,6.019,5.068,12.671C252.588,280.215,248.312,289.084,236.908,286.867Z" transform="translate(-184.565 -82.706)" fill="url(#linear-gradient-20)"/>
      <path id="Path_31321" data-name="Path 31321" d="M234.405,287.275c-7.286,2.059-11.087-12.354-2.059-24.075,0,0,5.86,3.168,9.186,8.078C244.384,275.4,244.542,284.424,234.405,287.275Z" transform="translate(-187.764 -82.005)" fill="url(#linear-gradient-21)"/>
      <path id="Path_31322" data-name="Path 31322" d="M233.973,284.09c-5.068,4.435-13.78-5.544-11.087-18.69a28.478,28.478,0,0,1,10.612,2.851C237.458,270.627,240.942,277.754,233.973,284.09Z" transform="translate(-190.5 -80.721)" fill="url(#linear-gradient-22)"/>
      <path id="Path_31323" data-name="Path 31323" d="M224.814,285.853c-27.876-10.929-5.544-65.256,51-81.253,0,0,11.087,24.075,9.82,47.833C284.685,272.706,263.778,301.216,224.814,285.853Z" transform="translate(-196.071 -116.22)" fill="url(#linear-gradient-23)"/>
      <path id="Path_31324" data-name="Path 31324" d="M262.354,209.175A53.021,53.021,0,0,0,249.366,222.8c-1.742,2.534-3.326,5.227-4.91,7.919-.634,1.425-1.425,2.693-2.059,4.118l-.95,2.059-.95,2.217a143.513,143.513,0,0,0-5.544,17.739c-.317,1.584-.792,3.009-.95,4.593l-.792,4.593a93.9,93.9,0,0,0-1.109,9.345,251.38,251.38,0,0,0-1.109,37.854c.317,6.336.634,12.671,1.109,19.165.158,3.168.317,6.494.634,9.662l.475,4.752.317,4.91-.475.158a346.7,346.7,0,0,1-5.7-38.171c-.317-3.168-.475-6.494-.634-9.662s-.158-6.494-.317-9.662c.158-6.494.317-12.988.95-19.323.317-3.168.792-6.336,1.267-9.662.634-3.168,1.267-6.336,2.059-9.5a103.252,103.252,0,0,1,6.336-18.215,76.849,76.849,0,0,1,10.137-16.472c4.118-4.91,8.87-9.5,14.73-12.513Z" transform="translate(-188.154 -113.826)" fill="url(#linear-gradient-24)"/>
      <path id="Path_31325" data-name="Path 31325" d="M248.577,261.871c21.224-8.236,4.276-49.734-38.8-61.771,0,0-8.395,18.373-7.444,36.429C202.961,251.734,218.958,273.433,248.577,261.871Z" transform="translate(-202.253 -118.847)" fill="url(#linear-gradient-25)"/>
      <path id="Path_31326" data-name="Path 31326" d="M209.975,203.2c8.553,10.3,15.047,22.174,20.59,34.37l2.059,4.593,1.742,4.752,1.742,4.752c.634,1.584,1.109,3.168,1.584,4.752s1.109,3.168,1.584,4.752l1.425,4.752,2.693,9.662c.792,3.326,1.425,6.494,2.059,9.82.317,1.584.634,3.326.95,4.91l.792,4.91,1.425,9.978c.317,3.326.634,6.652.792,9.978l.317,5.068c.158,1.742.158,3.326.158,5.068l.158,9.978c0,1.742,0,3.326-.158,5.068l-.317,5.068-.317,4.91-.475,4.91h-.317l-.158-9.978v-4.91c0-1.584,0-3.326-.158-4.91l-.634-9.978c-.158-1.584-.158-3.326-.317-4.91l-.634-4.91-1.109-9.82-1.584-9.82-.792-4.91-1.109-4.91c-.792-3.168-1.425-6.494-2.217-9.662a291.834,291.834,0,0,0-12.037-37.854c-5.068-12.2-10.77-24.233-18.215-35.162Z" transform="translate(-198.021 -117.037)" fill="url(#linear-gradient-26)"/>
      <path id="Path_31327" data-name="Path 31327" d="M245.711,267.59c-39.914-12.2-14.73-90.439,62.563-118.79,0,0,18.056,32.469,18.848,65.572C327.914,242.724,301.78,284.855,245.711,267.59Z" transform="translate(-187.824 -148.8)" fill="url(#linear-gradient-27)"/>
      <path id="Path_31328" data-name="Path 31328" d="M296.468,155.317a235.059,235.059,0,0,0-15.522,25.659c-4.752,8.87-8.87,17.9-12.829,26.926-3.8,9.186-7.286,18.373-10.3,27.876-3.009,9.345-5.86,19.006-8.078,28.51-2.376,9.662-4.276,19.323-5.86,29.143-.475,2.376-.792,4.91-1.109,7.286-.317,2.534-.792,4.91-1.109,7.444l-.792,7.444c-.317,2.534-.634,4.91-.792,7.444l-.792,7.444c-.158,2.534-.317,4.91-.475,7.444-.475,4.91-.634,9.978-.792,15.047-.158,2.534-.317,5.068-.317,7.444l-.158,7.6c-.158,2.534,0,5.068,0,7.6l-.158,7.6h-.475a404.078,404.078,0,0,1-.95-60.345,323.725,323.725,0,0,1,28.668-116.731,267.4,267.4,0,0,1,14.255-26.609c2.693-4.276,5.385-8.553,8.236-12.671A133.847,133.847,0,0,1,296.468,155Z" transform="translate(-182.988 -145.18)" fill="url(#linear-gradient-28)"/>
      <path id="Path_31329" data-name="Path 31329" d="M256.071,271.323c-24.392-17.739,11.087-65.255,70.482-66.523,0,0,4.752,26.451-2.376,49.258C318,273.54,290.283,296.031,256.071,271.323Z" transform="translate(-175.377 -116.103)" fill="url(#linear-gradient-29)"/>
      <path id="Path_31330" data-name="Path 31330" d="M325.738,208.1a126.194,126.194,0,0,0-16.789,13.621l-3.96,3.643-3.643,3.96a43.16,43.16,0,0,0-3.643,3.96l-3.485,4.118c-2.376,2.693-4.435,5.544-6.811,8.395-1.109,1.425-2.217,2.693-3.326,4.276l-3.009,4.435c-.95,1.425-2.059,2.851-3.009,4.435-.95,1.425-1.9,3.009-2.851,4.593l-2.851,4.593c-.95,1.584-1.9,3.009-2.693,4.593l-5.068,9.345a17.308,17.308,0,0,0-1.267,2.376l-1.109,2.376c-.792,1.584-1.425,3.326-2.217,4.91l-2.376,4.91c-.317.792-.792,1.584-1.109,2.376l-.95,2.534c-1.267,3.326-2.693,6.652-4.118,9.978s-2.534,6.811-3.8,10.137L244.011,331.8c-2.217,6.811-4.118,13.938-6.494,20.749H237.2c1.584-7.127,3.168-14.255,4.91-21.224l3.168-10.454c1.109-3.485,1.9-6.969,3.326-10.3l3.8-10.3.95-2.534c.317-.792.792-1.584,1.109-2.534l2.217-4.91,2.217-4.91,1.109-2.534a17.306,17.306,0,0,1,1.267-2.376l5.068-9.662A199.988,199.988,0,0,1,292,235.659c2.534-2.693,4.91-5.385,7.6-7.761l3.96-3.8,4.118-3.485a115.979,115.979,0,0,1,17.9-12.354Z" transform="translate(-181.848 -114.176)" fill="url(#linear-gradient-30)"/>
      <path id="Path_31331" data-name="Path 31331" d="M257.7,203.553a38.371,38.371,0,0,1,9.345-5.068c1.584-.634,3.326-1.109,4.91-1.584,1.742-.475,3.326-.792,5.068-1.109,1.742-.158,3.485-.475,5.227-.634s3.485-.158,5.227-.158a33.832,33.832,0,0,1,10.454,1.9v.317a108.666,108.666,0,0,0-20.273,2.059A173.314,173.314,0,0,0,257.7,203.87Z" transform="translate(-169.879 -121.825)" fill="url(#linear-gradient-31)"/>
      <path id="Path_31332" data-name="Path 31332" d="M261.858,190.358a25.614,25.614,0,0,1,6.969-5.544,50.969,50.969,0,0,1,7.919-3.643,41.02,41.02,0,0,1,8.553-1.742,24.993,24.993,0,0,1,9.028.792v.317c-2.851.475-5.544.95-8.395,1.584-2.693.634-5.544,1.584-8.236,2.376a81.94,81.94,0,0,0-8.078,2.851c-2.693.95-5.385,2.059-7.919,3.168Z" transform="translate(-167.543 -130.962)" fill="url(#linear-gradient-32)"/>
      <path id="Path_31333" data-name="Path 31333" d="M247.311,204.7a27.489,27.489,0,0,1-2.693-5.227c-.634-1.742-1.267-3.326-1.9-4.91s-.95-3.168-1.584-4.593a23.507,23.507,0,0,0-2.534-4.752l.158-.317a10.8,10.8,0,0,1,4.593,3.485,17.434,17.434,0,0,1,2.693,5.068A21.716,21.716,0,0,1,247.311,199a23,23,0,0,1,.317,5.7Z" transform="translate(-181.03 -127.722)" fill="url(#linear-gradient-33)"/>
      <path id="Path_31334" data-name="Path 31334" d="M253.451,188.014a16.531,16.531,0,0,1-1.109-4.435c-.158-1.425-.317-2.693-.475-3.96s-.158-2.534-.317-3.8a14.23,14.23,0,0,0-.95-3.96l.158-.158a7.438,7.438,0,0,1,2.693,3.485,13.875,13.875,0,0,1,.95,4.276,26.725,26.725,0,0,1-.792,8.711Z" transform="translate(-174.024 -135.429)" fill="url(#linear-gradient-34)"/>
      <g id="Group_3120" data-name="Group 3120" transform="translate(27.3 193.232)">
        <path id="Path_31335" data-name="Path 31335" d="M264.763,319.466h-34.37a3.29,3.29,0,0,1-3.326-3.009L222.315,276.7a3.3,3.3,0,0,1,3.326-3.8h43.873a3.3,3.3,0,0,1,3.326,3.8l-4.752,39.755A3.29,3.29,0,0,1,264.763,319.466Z" transform="translate(-217.863 -269.574)" fill="url(#linear-gradient-35)"/>
        <path id="Path_31336" data-name="Path 31336" d="M275.575,282.045H222.832a2.221,2.221,0,0,1-2.217-1.9l-1.109-6.811a2.173,2.173,0,0,1,2.217-2.534h54.8a2.245,2.245,0,0,1,2.217,2.534l-1.109,6.811A1.964,1.964,0,0,1,275.575,282.045Z" transform="translate(-219.489 -270.8)" fill="url(#linear-gradient-36)"/>
      </g>
    </g>
    <g id="Group_3161" data-name="Group 3161" transform="translate(1081.43 2857.933)">
      <g id="Group_3124" data-name="Group 3124" transform="translate(0.158 0.158)">
        <path id="Path_31337" data-name="Path 31337" d="M361.358,230.182c-2.059.475-5.385,1.267-7.127,1.584s-1.267,4.276-.317,4.91c1.584.95,6.652,1.742,7.761-.158,1.109-2.059,3.326-1.584,3.643-3.643C365.952,230.815,364.843,229.39,361.358,230.182Z" transform="translate(-345.188 -125.55)" fill="#ffaf84"/>
        <path id="Path_31338" data-name="Path 31338" d="M374.488,301.376a12.6,12.6,0,0,1-5.385,3.643c-2.851,1.109-8.87,1.425-5.544,2.693s7.286.634,9.186.475c2.059-.158,3.96-.158,6.177-.158,3.009.158,3.168-.158,2.851-3.485C381.14,300.109,375.914,298.842,374.488,301.376Z" transform="translate(-339.628 -84.606)" fill="url(#linear-gradient-37)"/>
        <path id="Path_31339" data-name="Path 31339" d="M414.416,298.774c-.475.792-1.742,5.227-4.593,6.335s-7.919,2.376-4.752,3.643c3.326,1.267,7.286.634,9.186.475,2.059-.158,2.376-2.693,4.593-3.8,3.168-1.584,2.851-1.425,2.534-4.91C420.91,295.923,415.841,296.24,414.416,298.774Z" transform="translate(-315.409 -86.439)" fill="url(#linear-gradient-38)"/>
        <path id="Path_31340" data-name="Path 31340" d="M357.608,252.5c2.534-2.851,3.8-7.286,5.544-10.612,2.217-4.435,4.276-8.87,7.6-12.671.317-.475.792-.792.95-1.425.95-1.742.95-4.435,1.109-6.335.158-2.059.317-4.276.475-6.335.317-6.177.792-12.2,1.267-18.373.158-2.376,4.118-6.652,7.761-5.7,3.96,1.109,5.227,2.851,5.068,7.286a74.9,74.9,0,0,1-1.267,13.78c-1.425,9.5-3.484,19.64-9.5,27.243-2.376,3.009-4.752,6.019-7.286,9.028-4.752,5.385-6.652,6.335-9.662,7.127C357.291,256.305,356.34,254.088,357.608,252.5Z" transform="translate(-342.862 -148.348)" fill="url(#linear-gradient-39)"/>
        <path id="Path_31341" data-name="Path 31341" d="M374.533,180.879c-2.059,1.584-3.009,1.9-4.593-.792,0-.158-8.236-8.078-.792-11.087,3.485-1.425,6.177-2.217,6.969,2.693C376.909,176.761,376.909,178.978,374.533,180.879Z" transform="translate(-337.614 -161.777)" fill="url(#linear-gradient-40)"/>
        <path id="Path_31342" data-name="Path 31342" d="M382.911,176.5c.158.317,3.643,7.286,5.86,12.829,1.109,2.693-.634,6.335-3.326,7.444h-.158c-2.693.95-6.652-.317-7.444-3.009a66.656,66.656,0,0,0-3.643-9.978Z" transform="translate(-332.846 -156.764)" fill="#ed9169"/>
        <path id="Path_31343" data-name="Path 31343" d="M406.853,201.223c-2.059,16.947-.95,44.032,2.059,55.119l-37.379-1.425s-2.217-24.233-3.96-45.3a41.611,41.611,0,0,1,.475-11.721,15.563,15.563,0,0,1,6.652-9.186c2.851-1.9,6.336-2.851,9.662-3.643a44.272,44.272,0,0,1,9.186-1.267c4.276,0,8.87.95,11.4,4.593,2.217,3.168,2.534,7.444,2.217,11.245A5.63,5.63,0,0,0,406.853,201.223Z" transform="translate(-336.831 -152.502)" fill="url(#linear-gradient-41)"/>
        <path id="Path_31344" data-name="Path 31344" d="M407.146,252.992s3.485-7.761.95-22.966L370.717,228.6a213.966,213.966,0,0,0-2.217,22.808Z" transform="translate(-336.174 -126.344)" fill="url(#linear-gradient-42)"/>
        <g id="Group_3123" data-name="Group 3123" transform="translate(52.376 104.873)">
          <g id="Group_3122" data-name="Group 3122">
            <path id="Path_31345" data-name="Path 31345" d="M392.277,277.552c-8.711-9.028-3.8-16.789,5.385-13.463,12.829,4.752,26.767,47.516,32.311,53.218.792.792.158.95-.317,1.267-1.742.792-2.693-.475-4.752.158-.792.317-2.059,2.376-2.059,2.376C414.134,311.447,400.671,286.264,392.277,277.552Z" transform="translate(-377.323 -210.954)" fill="url(#linear-gradient-43)"/>
            <path id="Path_31346" data-name="Path 31346" d="M381.224,252.977c-.792-15.205,5.7-26.767,14.888-21.382,3.8,2.217,5.227,6.494,5.544,10.454s2.217,34.528,2.851,41.973c1.584,16.947-12.513,11.4-13.78,6.811C387.56,278.953,381.541,261.213,381.224,252.977Z" transform="translate(-381.159 -230.252)" fill="url(#linear-gradient-44)"/>
          </g>
        </g>
        <path id="Path_31347" data-name="Path 31347" d="M366.432,268.772c.634-11.4,6.652-13.78,12.2-5.86,8.711,12.513-.158,50.842.792,65.731a8.246,8.246,0,0,0-6.969-1.9c-1.267.475-.317-1.584-.317-1.584C367.382,301.717,365.957,278.909,366.432,268.772Z" transform="translate(-337.432 -109.022)" fill="url(#linear-gradient-45)"/>
        <path id="Path_31348" data-name="Path 31348" d="M381.143,288.488c-1.584,4.593-16.631,10.929-14.572-5.86.792-7.444,3.643-38.013,4.118-41.973s1.425-9.82,3.326-10.454c10.137-3.326,19.323,9.028,16.156,23.916C388.112,264.1,384.627,278.984,381.143,288.488Z" transform="translate(-337.413 -125.728)" fill="url(#linear-gradient-46)"/>
        <path id="Path_31349" data-name="Path 31349" d="M390.494,220.847a59.888,59.888,0,0,0,7.761-7.761c1.9-2.217,3.643-4.435,5.385-6.811a99.8,99.8,0,0,0,7.6-11.721c2.059-3.8,0-8.395-3.168-9.345-3.643-1.109-5.86.95-9.662,4.752-8.711,8.395-12.988,20.432-15.205,23.916a7.712,7.712,0,0,0-1.9.158c-4.91,1.267-12.513,6.969-24.075,11.4-1.9.792-1.425,4.593.95,5.544,2.851,1.109,6.019-.317,12.988-2.217A75.563,75.563,0,0,0,384,224.649a29.548,29.548,0,0,0,6.177-3.485A.341.341,0,0,1,390.494,220.847Z" transform="translate(-343.438 -151.853)" fill="url(#linear-gradient-47)"/>
        <path id="Path_31350" data-name="Path 31350" d="M389.765,178.691c.95,6.652,1.109,8.078-1.109,11.4a15.075,15.075,0,0,1-8.87,6.177c-3.326.792-6.494-2.059-7.919-4.593a49.453,49.453,0,0,1-4.752-16.314c-.475-3.643,3.009-9.028,7.444-10.137C379.153,164.119,387.548,162.694,389.765,178.691Z" transform="translate(-337.007 -163.706)" fill="#ffaf84"/>
        <path id="Path_31351" data-name="Path 31351" d="M384.79,177.107c-1.267,2.217-2.059,2.693-4.435.792-1.742-1.425-6.969-7.286-4.276-9.82,2.693-2.376,4.91-3.96,7.286.158C385.582,172.672,386.374,174.573,384.79,177.107Z" transform="translate(-332.19 -163.073)" fill="url(#linear-gradient-48)"/>
        <path id="Path_31352" data-name="Path 31352" d="M380.23,175.422c-.317,2.376.317,4.593,1.584,4.752s2.534-1.584,3.009-4.118c.317-2.376-.317-4.593-1.584-4.752S380.7,172.888,380.23,175.422Z" transform="translate(-329.372 -159.804)" fill="#ffaf84"/>
        <path id="Path_31353" data-name="Path 31353" d="M386.226,166.986c-1.584,4.276-13.621,7.6-17.9,7.286-4.276-.475-5.86-8.078-.317-9.978,3.168-.792,1.109.475,3.96.95C373.4,165.244,387.968,162.235,386.226,166.986Z" transform="translate(-338.536 -164.039)" fill="url(#linear-gradient-49)"/>
        <path id="Path_31354" data-name="Path 31354" d="M360.027,209.927c-1.9.634-10.612,2.851-8.394,5.385,2.534,2.693,5.068,3.009,7.127,2.376,3.8-.95,4.118-2.376,3.96-4.752C362.719,211.353,361.769,209.452,360.027,209.927Z" transform="translate(-346.232 -137.29)" fill="#ffaf84"/>
        <path id="Path_31355" data-name="Path 31355" d="M353.332,212.544c-.792.317-5.544,2.693-5.227,3.326.633,1.109,3.8-.158,6.019-1.109,1.109-.475,2.376-1.742,1.742-2.534C355.391,211.594,354.6,211.91,353.332,212.544Z" transform="translate(-348.09 -136.105)" fill="#ffaf84"/>
      </g>
      <g id="Group_3126" data-name="Group 3126">
        <g id="Group_3125" data-name="Group 3125" clip-path="url(#clip-path)">
          <path id="Path_31356" data-name="Path 31356" d="M493.808,164.1c-16.472-8.553-51.634-6.335-62.563,10.137-11.245,16.947-3.8,32.786-19.64,53.535-14.413,18.848-6.177,43.24-9.5,61.613-3.643,20.274-35.637,9.345-48.625,33.736-19.8,37.538,19.8,64.464,44.348,81.728,25.184,17.739,63.83,34.053,92.023,9.186,20.907-18.373,16-92.973,12.354-112.613-5.385-28.351-32.628-10.3-16.314-37.063,9.662-16,18.848-46.249-7.761-49.892C451.677,210.829,517.408,176.458,493.808,164.1Z" transform="translate(-347.919 -166.701)" opacity="0.2" fill="url(#linear-gradient-50)"/>
        </g>
      </g>
    </g>
    <g id="Group_3162" data-name="Group 3162" transform="translate(906.355 2967.316)">
      <g id="Group_3128" data-name="Group 3128" transform="translate(0.158)">
        <path id="Path_31358" data-name="Path 31358" d="M339.628,262.56l-4.118,37.379-4.118,37.855a10.512,10.512,0,0,1-6.494,8.394,9.4,9.4,0,0,1-3.643.792H249.822a12.406,12.406,0,0,1-12.2-13.463l3.643-33.42.792-6.811c2.059-19.006,19.323-34.687,38.488-34.687h43.715a47.949,47.949,0,0,1,4.91.317A34.169,34.169,0,0,1,339.628,262.56Z" transform="translate(-237.555 -218.053)" fill="url(#linear-gradient-51)"/>
        <path id="Path_31359" data-name="Path 31359" d="M351.985,262.618,347.867,300l-4.118,37.855a10.4,10.4,0,0,1-10.137,9.186H248.4L253.627,300l.792-6.811c2.059-19.006,19.323-34.687,38.488-34.687h43.557A33.259,33.259,0,0,1,351.985,262.618Z" transform="translate(-231.222 -218.111)" fill="url(#linear-gradient-52)"/>
        <path id="Path_31360" data-name="Path 31360" d="M493.511,233H312.316a10.4,10.4,0,0,0-10.137,9.186l-3.643,31.519v.317l-4.593,41.022L289.825,352.9a8.053,8.053,0,0,0,4.593,8.395,8.632,8.632,0,0,0,3.484.792H479.1a10.4,10.4,0,0,0,10.137-9.186l8.236-75.234,4.118-35.479A7.9,7.9,0,0,0,493.511,233Z" transform="translate(-207.075 -233)" fill="url(#linear-gradient-53)"/>
      </g>
      <g id="Group_3129" data-name="Group 3129">
        <path id="Path_31361" data-name="Path 31361" d="M493.8,258.6H450.082c-18.531,0-35.32,14.73-38.171,32.945H248.3l-10.77,41.973a12.406,12.406,0,0,0,12.2,13.463H490.788a10.4,10.4,0,0,0,10.137-9.186l8.236-75.234A30.353,30.353,0,0,0,493.8,258.6Z" transform="translate(-237.455 -218.053)" fill="url(#linear-gradient-54)"/>
        <path id="Path_31362" data-name="Path 31362" d="M454.626,233H443.064a10.4,10.4,0,0,0-10.137,9.186l-3.643,31.519H399.349c-19.006,0-36.271,15.522-38.488,34.687l-4.435,40.23a12.406,12.406,0,0,0,12.2,13.463h71.591A10.4,10.4,0,0,0,450.35,352.9l8.236-75.234,4.118-35.479A7.9,7.9,0,0,0,454.626,233Z" transform="translate(-168.032 -233)" fill="url(#linear-gradient-55)"/>
      </g>
    </g>
    <g id="Group_3163" data-name="Group 3163" transform="translate(960.053 2918.598)">
      <path id="Path_31363" data-name="Path 31363" d="M327.4,263.295c1.267-2.217,3.326-7.444,5.544-20.432a126.481,126.481,0,0,0,1.584-13.463c.158-4.276-3.168-5.385-5.227-4.118-3.168,2.059-5.544,6.494-5.7,8.711-1.267,12.671-2.059,22.333-2.851,25.5C319.639,264.086,325.974,265.987,327.4,263.295Z" transform="translate(-242.595 -189.077)" fill="url(#linear-gradient-56)"/>
      <path id="Path_31364" data-name="Path 31364" d="M306.067,245.035c.95,1.742,3.009.792,8.553,3.8,7.919,4.118,10.3,4.91,16.947,6.335,4.276.95,7.444-4.752,2.534-6.811-4.118-1.9-23.441-5.7-25.975-6.811C306.542,240.758,305.433,243.609,306.067,245.035Z" transform="translate(-251.197 -179.37)" fill="url(#linear-gradient-57)"/>
      <path id="Path_31365" data-name="Path 31365" d="M338.564,216.7c0,.317.634,8.078.792,14.1,0,2.851-2.059,5.7-4.118,5.7h-.158c-2.059,0-4.435-2.534-4.276-5.385a68.961,68.961,0,0,0,0-10.612Z" transform="translate(-236.653 -193.8)" fill="#ed9169"/>
      <path id="Path_31366" data-name="Path 31366" d="M351.878,246.139a93.649,93.649,0,0,0-3.643,16.314,44.926,44.926,0,0,0,0,12.2,59.152,59.152,0,0,0,1.425,7.286c.158.95,2.059,8.236,2.059,9.028H318.3c.317-6.494,7.761-27.243,2.693-40.547-3.484-9.186,1.109-9.5,4.276-17.264a22.48,22.48,0,0,1,2.693-5.544,9.571,9.571,0,0,1,5.068-3.168,19.005,19.005,0,0,1,3.168-.475c5.7-.475,19.006-2.059,20.273,6.019a14.943,14.943,0,0,1-.634,6.494c-.792,2.376-1.9,4.593-2.851,6.811A21.142,21.142,0,0,0,351.878,246.139Z" transform="translate(-243.949 -189.818)" fill="url(#linear-gradient-58)"/>
      <path id="Path_31367" data-name="Path 31367" d="M330.532,236.9c-1.584-1.267-3.643-2.534-5.068-2.693s.95,1.742,2.059,2.851S331.8,238,330.532,236.9Z" transform="translate(-240.025 -183.585)" fill="#ffaf84"/>
      <path id="Path_31368" data-name="Path 31368" d="M330.562,236.209c-4.118-.792-6.019-1.9-7.919-1.109-1.9.634.792,3.326,2.059,3.8,1.425.475,6.177,2.534,7.6,1.584C333.888,239.535,333.571,236.684,330.562,236.209Z" transform="translate(-241.798 -183.215)" fill="#ffaf84"/>
      <path id="Path_31369" data-name="Path 31369" d="M338.6,254.965h-24.55a2.821,2.821,0,0,1-2.534-1.584l-7.6-15.364a2.857,2.857,0,0,1,2.534-4.118H331a2.822,2.822,0,0,1,2.534,1.584l7.6,15.364A2.781,2.781,0,0,1,338.6,254.965Z" transform="translate(-252.526 -183.757)" fill="url(#linear-gradient-59)"/>
      <g id="Group_3132" data-name="Group 3132" transform="translate(62.155 59.488)">
        <g id="Group_3131" data-name="Group 3131">
          <path id="Path_31370" data-name="Path 31370" d="M310.917,240.592h10.137l-.317-.792H310.6Z" transform="translate(-310.6 -239.8)" fill="#4badf7"/>
          <path id="Path_31371" data-name="Path 31371" d="M313.417,241.334h6.969l-.475-.634H313.1Z" transform="translate(-309.14 -239.275)" fill="#4badf7"/>
        </g>
      </g>
      <path id="Path_31372" data-name="Path 31372" d="M337.806,254.79H313.889a2.821,2.821,0,0,1-2.534-1.584l-7.444-14.888a2.857,2.857,0,0,1,2.534-4.118h23.916a2.821,2.821,0,0,1,2.534,1.584l7.444,14.888A2.8,2.8,0,0,1,337.806,254.79Z" transform="translate(-252.526 -183.582)" fill="url(#linear-gradient-60)"/>
      <path id="Path_31373" data-name="Path 31373" d="M321.9,213.054c1.425,7.761,3.009,20.432,2.376,22.808,0,0,10.454-3.009,11.4-8.711.95-5.86-5.544-22.333-11.721-21.541" transform="translate(-241.847 -200.291)" fill="url(#linear-gradient-61)"/>
      <path id="Path_31374" data-name="Path 31374" d="M347.607,263.29c.634-2.534,1.267-8.078.158-21.066a90.608,90.608,0,0,0-1.9-13.463c-.792-4.118-4.435-4.435-6.019-2.693-2.534,2.851-3.643,7.6-3.326,9.82,1.9,12.671,3.643,22.016,3.643,25.342C340.162,265.982,346.815,266.141,347.607,263.29Z" transform="translate(-233.342 -188.913)" fill="url(#linear-gradient-62)"/>
      <path id="Path_31375" data-name="Path 31375" d="M327.2,238.723c0,1.584,2.851,2.059,6.811,6.811,5.544,6.969,7.444,8.711,12.829,12.671,3.485,2.693,8.711-1.267,5.068-5.227-3.009-3.326-19.323-15.047-21.541-16.472C328.942,235.555,327.2,237.139,327.2,238.723Z" transform="translate(-238.752 -182.403)" fill="url(#linear-gradient-63)"/>
      <path id="Path_31376" data-name="Path 31376" d="M344.957,217.573c.792,6.652.95,8.078-1.267,11.4A15.1,15.1,0,0,1,334.662,235c-3.326.792-6.494-2.217-7.919-4.752a47.079,47.079,0,0,1-4.435-16.314c-.317-3.643,3.168-9.028,7.761-9.978C334.5,202.685,343.056,201.418,344.957,217.573Z" transform="translate(-241.621 -201.642)" fill="#ffaf84"/>
      <path id="Path_31377" data-name="Path 31377" d="M312.211,244.949a32.32,32.32,0,0,0-3.643-4.276c-1.742-1.425-3.643-1.109-3.8-.475-.317.95-.317,3.485.792,4.593a4.849,4.849,0,0,0,3.485,1.109C310.152,245.9,313.162,246.691,312.211,244.949Z" transform="translate(-251.957 -180.393)" fill="#ffaf84"/>
      <path id="Path_31378" data-name="Path 31378" d="M313.789,276.21c-.317.792-2.217,2.534-4.752,3.643s-7.919,1.584-4.91,2.693c3.009.95,6.494.317,8.236.158a30.753,30.753,0,0,1,5.544-.317c2.693,0,2.693-.158,2.376-3.326C319.808,274.626,315.057,273.675,313.789,276.21Z" transform="translate(-252.743 -159.861)" fill="url(#linear-gradient-64)"/>
      <path id="Path_31379" data-name="Path 31379" d="M283.3,314.611a12.192,12.192,0,0,1-6.019,0c-2.693-.634-7.286-3.485-5.544-.792,1.742,2.534,4.91,4.276,6.494,5.068a26.57,26.57,0,0,1,4.593,3.168c2.217,1.584,2.376,1.584,3.96-1.109C289.006,316.987,285.838,313.344,283.3,314.611Z" transform="translate(-271.357 -137.758)" fill="url(#linear-gradient-65)"/>
      <path id="Path_31380" data-name="Path 31380" d="M322.533,210.613c-1.584,4.91,18.531,8.711,22.491,7.127s1.267-9.186-2.693-12.354C338.213,202.06,326.176,199.209,322.533,210.613Z" transform="translate(-241.529 -202.126)" fill="url(#linear-gradient-66)"/>
      <path id="Path_31381" data-name="Path 31381" d="M329.455,207.263c.158,3.8-6.019,6.019-6.494,9.345-.317,2.059-1.9-3.8-.95-6.811C322.961,206.63,329.138,199.66,329.455,207.263Z" transform="translate(-241.958 -201.31)" fill="url(#linear-gradient-67)"/>
      <path id="Path_31382" data-name="Path 31382" d="M341.472,217.064c1.9,7.6-2.534,14.572-3.168,16.947,0,0,10.454-2.851,11.4-8.711s-2.217-27.243-22.808-22.333" transform="translate(-238.928 -202.242)" fill="url(#linear-gradient-68)"/>
      <path id="Path_31383" data-name="Path 31383" d="M293.161,258.248c-6.019-8.711,2.376-13.78,9.186-7.919,10.612,9.345,16,28.51,24.55,42.606-3.009-1.425-4.91-1.425-5.544-.95-.95.792-1.9,1.425-1.9,1.425C307.891,274.879,299.655,267.435,293.161,258.248Z" transform="translate(-259.832 -175.636)" fill="url(#linear-gradient-69)"/>
      <path id="Path_31384" data-name="Path 31384" d="M347.243,287.324s11.246.792,5.385-21.224h-33.42s-8.553,11.562,4.593,21.224Z" transform="translate(-245.015 -164.956)" fill="url(#linear-gradient-70)"/>
      <path id="Path_31385" data-name="Path 31385" d="M293.018,257.263c-2.851-3.485-.792-15.68,11.562-6.019,5.544,4.276,36.746,26.609,39.755,28.826a8.016,8.016,0,0,1,3.326,7.444c-1.9,9.345-12.2,10.77-22.966,1.109C317.726,282.289,298.878,264.549,293.018,257.263Z" transform="translate(-259.372 -175.76)" fill="url(#linear-gradient-71)"/>
      <path id="Path_31386" data-name="Path 31386" d="M308.077,288.1c5.86-9.978,15.364-3.8,12.2,4.593-4.435,11.879-30.727,37.7-35.954,42.923-.634.634-.95.158-1.267-.317-.792-1.584-1.425-2.693-2.059-2.851a8.769,8.769,0,0,0-2.693-.158C284.477,324.21,302.375,297.759,308.077,288.1Z" transform="translate(-267.304 -155.118)" fill="url(#linear-gradient-72)"/>
      <path id="Path_31387" data-name="Path 31387" d="M342.984,269.809c13.463-4.118,24.55,1.425,21.7,10.612-1.109,3.8-4.752,5.86-8.236,7.127s-40.389,11.562-47.041,13.938c-14.888,5.227-13.146-7.286-9.186-9.345C310.356,286.757,335.7,272.027,342.984,269.809Z" transform="translate(-256.121 -163.597)" fill="url(#linear-gradient-73)"/>
      <path id="Path_31388" data-name="Path 31388" d="M336.025,214.46c-.95,2.217-.792,4.593.475,5.068s2.851-.95,3.8-3.326c.95-2.217.792-4.593-.475-5.068C338.718,210.658,336.975,212.084,336.025,214.46Z" transform="translate(-233.956 -197.103)" fill="#ffaf84"/>
      <g id="Group_3134" data-name="Group 3134" transform="translate(0.158 0.139)">
        <g id="Group_3133" data-name="Group 3133" clip-path="url(#clip-path-2)">
          <path id="Path_31389" data-name="Path 31389" d="M439.25,194.062c-16.472-8.553-44.982-5.068-55.911,11.562-11.087,16.947-.158,30.41-19.957,52.268-15.68,17.423-12.513,43.081-15.839,61.454-3.643,20.274-35.637,9.345-48.466,33.736-19.8,37.538,19.8,64.464,44.348,81.728,25.184,17.739,43.715-19.323,71.908-44.348,20.907-18.373,36.112-39.438,32.469-59.237-5.385-28.351-32.628-10.3-16.314-37.063,9.662-16,18.848-46.249-7.761-49.892C397.119,240.786,462.849,206.416,439.25,194.062Z" transform="translate(-258.462 -209.789)" opacity="0.2" fill="url(#linear-gradient-74)"/>
        </g>
      </g>
    </g>
  </g>
</svg>
