<svg id="smartphone_1_" data-name="smartphone (1)" xmlns="http://www.w3.org/2000/svg" width="120" height="120" viewBox="0 0 120 120">
  <g id="Group_358" data-name="Group 358">
    <g id="Group_357" data-name="Group 357">
      <path id="Path_5030" data-name="Path 5030" d="M3.871,15.484H65.806v3.871h3.871V9.677A9.688,9.688,0,0,0,60,0H9.677A9.688,9.688,0,0,0,0,9.677v87.1H3.871Zm0-5.806A5.814,5.814,0,0,1,9.677,3.871H60a5.814,5.814,0,0,1,5.806,5.806v1.935H3.871Z" fill="#fff"/>
      <path id="Path_5031" data-name="Path 5031" d="M0,425.677a9.688,9.688,0,0,0,9.677,9.677H60a9.688,9.688,0,0,0,9.677-9.677V416H0Zm3.871-5.806H65.806v5.806A5.814,5.814,0,0,1,60,431.484H9.677a5.814,5.814,0,0,1-5.806-5.806Z" transform="translate(0 -315.355)" fill="#fff"/>
      <rect id="Rectangle_74" data-name="Rectangle 74" width="19.355" height="3.871" transform="translate(25.161 108.387)" fill="#fff"/>
      <path id="Path_5032" data-name="Path 5032" d="M323.613,248a11.613,11.613,0,1,0,11.613,11.613A11.625,11.625,0,0,0,323.613,248Zm0,19.355a7.742,7.742,0,1,1,7.742-7.742A7.75,7.75,0,0,1,323.613,267.355Z" transform="translate(-236.516 -188)" fill="#fff"/>
      <path id="Path_5033" data-name="Path 5033" d="M105.677,144a9.677,9.677,0,1,0,9.677,9.677A9.688,9.688,0,0,0,105.677,144Zm0,15.484a5.806,5.806,0,1,1,5.806-5.806A5.814,5.814,0,0,1,105.677,159.484Z" transform="translate(-72.774 -109.161)" fill="#fff"/>
      <path id="Path_5034" data-name="Path 5034" d="M78.557,173.951q.534-.2,1.063-.445l6,4,7.719-7.719-4-6q.241-.531.445-1.063l7.065-1.413V150.4l-7.065-1.413a20.447,20.447,0,0,0-.96-2.112l-3.426,1.8a15.441,15.441,0,0,1,1.074,2.566l.343,1.1,6.163,1.233v4.568l-6.165,1.233-.343,1.1a15.345,15.345,0,0,1-1.074,2.566l-.534,1.018,3.494,5.241-3.228,3.23-5.241-3.5-1.016.534A15.457,15.457,0,0,1,76.3,170.64l-1.1.343-1.233,6.163H69.4l-1.233-6.163-1.1-.343a15.457,15.457,0,0,1-2.568-1.076l-1.016-.534-5.241,3.5L53.9,168.172l-2.737,2.737,6.6,6.6,6-4q.528.241,1.063.445l1.413,7.065H77.146Z" transform="translate(-38.783 -111.338)" fill="#fff"/>
      <path id="Path_5035" data-name="Path 5035" d="M32,99.7v10.916l7.065,1.413a20.447,20.447,0,0,0,.96,2.112l3.426-1.8a15.441,15.441,0,0,1-1.074-2.566l-.343-1.1-6.163-1.233v-4.568l6.165-1.233.343-1.1a15.346,15.346,0,0,1,1.074-2.566l.534-1.018-3.494-5.241,3.23-3.23,5.243,3.5,1.016-.536a15.505,15.505,0,0,1,2.565-1.074l1.1-.343,1.233-6.163h4.57l1.233,6.163,1.1.343a15.436,15.436,0,0,1,2.565,1.074l1.016.536,5.243-3.5,4.353,4.353,2.737-2.737-6.594-6.6-6,4c-.354-.161-.706-.308-1.063-.445L62.617,80H51.7L50.29,87.065c-.356.137-.708.285-1.063.445l-6-4-7.717,7.717,4,6q-.241.531-.445,1.063Z" transform="translate(-24.258 -60.645)" fill="#fff"/>
      <rect id="Rectangle_75" data-name="Rectangle 75" width="3.871" height="3.871" transform="translate(30.968 73.548)" fill="#fff"/>
      <rect id="Rectangle_76" data-name="Rectangle 76" width="3.871" height="3.871" transform="translate(30.968 81.29)" fill="#fff"/>
      <rect id="Rectangle_77" data-name="Rectangle 77" width="3.871" height="3.871" transform="translate(30.968 89.032)" fill="#fff"/>
      <rect id="Rectangle_78" data-name="Rectangle 78" width="3.871" height="3.871" transform="translate(85.161 30.968)" fill="#fff"/>
      <rect id="Rectangle_79" data-name="Rectangle 79" width="3.871" height="3.871" transform="translate(85.161 23.226)" fill="#fff"/>
      <rect id="Rectangle_80" data-name="Rectangle 80" width="3.871" height="3.871" transform="translate(85.161 15.484)" fill="#fff"/>
      <path id="Path_5036" data-name="Path 5036" d="M307.127,269.056V254.269l-9.546-1.906q-.334-.839-.734-1.659l-3.482,1.694a20.638,20.638,0,0,1,.948,2.284l.364,1.047,8.578,1.715v8.437l-8.578,1.717-.364,1.047a20.846,20.846,0,0,1-.948,2.284l-.486,1,4.856,7.283-5.967,5.967-7.285-4.854-1,.486a20.475,20.475,0,0,1-2.284.948l-1.047.364-1.713,8.576H270l-1.717-8.578-1.047-.364a20.851,20.851,0,0,1-2.284-.948l-1-.486-7.285,4.854-7.09-7.088-2.737,2.737,9.335,9.333,8.1-5.4c.211.091.424.18.637.265l1.91,9.546h14.789l1.906-9.546c.213-.085.426-.174.637-.265l8.1,5.4L302.72,279.7l-5.4-8.1c.091-.211.18-.424.265-.637Z" transform="translate(-187.127 -190.05)" fill="#fff"/>
      <path id="Path_5037" data-name="Path 5037" d="M228.407,174.865l5.4,8.1c-.091.211-.18.424-.265.637L224,185.51V200.3l9.546,1.906q.334.839.734,1.657l3.482-1.694a20.483,20.483,0,0,1-.948-2.284l-.364-1.047-8.578-1.715v-8.439l8.578-1.717.364-1.047a21.011,21.011,0,0,1,.948-2.284l.486-1-4.856-7.281,5.967-5.967,7.283,4.854,1-.484a20.852,20.852,0,0,1,2.288-.952l1.043-.364,1.711-8.572h8.441l1.715,8.574,1.043.364a21.006,21.006,0,0,1,2.288.952l1,.484,7.283-4.854,7.09,7.09,2.737-2.737-9.335-9.333-8.1,5.4c-.209-.091-.422-.178-.635-.263L264.295,160H249.51l-1.908,9.546c-.213.085-.426.172-.635.263l-8.1-5.4Z" transform="translate(-169.806 -121.29)" fill="#fff"/>
    </g>
  </g>
</svg>
