<svg xmlns="http://www.w3.org/2000/svg" width="120.009" height="120" viewBox="0 0 120.009 120">
  <g id="_005-dance" data-name="005-dance" transform="translate(0 -0.019)">
    <g id="Group_1160" data-name="Group 1160" transform="translate(7.274 14.316)">
      <g id="Group_1159" data-name="Group 1159">
        <circle id="Ellipse_57" data-name="Ellipse 57" cx="3.516" cy="3.516" r="3.516" fill="#fff"/>
      </g>
    </g>
    <g id="Group_1162" data-name="Group 1162" transform="translate(98.681 7.285)">
      <g id="Group_1161" data-name="Group 1161">
        <circle id="Ellipse_58" data-name="Ellipse 58" cx="3.516" cy="3.516" r="3.516" fill="#fff"/>
      </g>
    </g>
    <g id="Group_1164" data-name="Group 1164" transform="translate(0 14.316)">
      <g id="Group_1163" data-name="Group 1163" transform="translate(0)">
        <path id="Path_10226" data-name="Path 10226" d="M109.461,117.263H86.995a42.307,42.307,0,0,0-4.3-20.643l17.19-8.595a10.548,10.548,0,0,0-9.434-18.868L77.572,75.595c.006-.173.014-.345.014-.519a14.063,14.063,0,0,0-28.125,0,14.273,14.273,0,0,0,.2,2.361l-8.181-2.045a10.514,10.514,0,0,0-9.884,2.64l-5.17-2.585a3.514,3.514,0,0,0-1.572-.371h-14.3a10.547,10.547,0,1,0,0,21.094,3.516,3.516,0,1,1,0,7.031,10.557,10.557,0,0,0-8.228,17.145c6.31,7.862,4.713,12.149,4.713,14.5a3.516,3.516,0,1,0,7.031,0c0-1.968,1.918-8.706-6.261-18.9a3.524,3.524,0,0,1,2.745-5.713,10.547,10.547,0,0,0,0-21.094,3.516,3.516,0,1,1,0-7.031H24.023l4.428,2.214a10.561,10.561,0,0,0,7.905,11.534L61.348,102.1a21.3,21.3,0,0,1,4.5,15.162H56.171l-18.435-12.29a10.547,10.547,0,1,0-11.7,17.55l21.094,14.063a10.514,10.514,0,0,0,5.85,1.771h56.484a10.547,10.547,0,1,0,0-21.093ZM93.591,75.447a3.516,3.516,0,1,1,3.146,6.29L79.065,90.573A43.359,43.359,0,0,0,74.5,85.2c-.047-.047-.1-.09-.146-.137Zm-30.067-7.4a7.031,7.031,0,0,1,4.787,12.181l-2.5,1.249L58.1,79.546a6.959,6.959,0,0,1-1.605-4.471A7.039,7.039,0,0,1,63.524,68.045Zm14.624,58.65-.742,2.227a3.509,3.509,0,0,1-3.335,2.4H52.977a3.5,3.5,0,0,1-1.95-.591L29.933,116.672a3.515,3.515,0,0,1,3.9-5.85L53.156,123.7a3.515,3.515,0,0,0,1.95.59h13.75a3.516,3.516,0,0,0,3.433-2.758,28.326,28.326,0,0,0-6.31-24.867,3.516,3.516,0,0,0-1.805-1.109L38.06,89.033a3.516,3.516,0,0,1,1.708-6.822l28.125,7.031a3.494,3.494,0,0,1,1.632.926A35.5,35.5,0,0,1,78.148,126.695Zm31.314,4.631H84.012c.022-.061.044-.121.065-.183l.741-2.224a43.5,43.5,0,0,0,1.263-4.624h23.38a3.516,3.516,0,1,1,0,7.031Z" transform="translate(0 -61.013)" fill="#fff"/>
      </g>
    </g>
    <g id="Group_1166" data-name="Group 1166" transform="translate(0.008 112.988)">
      <g id="Group_1165" data-name="Group 1165">
        <path id="Path_10227" data-name="Path 10227" d="M116.521,481.983H3.553a3.516,3.516,0,0,0,0,7.031H116.521a3.516,3.516,0,0,0,0-7.031Z" transform="translate(-0.037 -481.983)" fill="#fff"/>
      </g>
    </g>
    <g id="Group_1168" data-name="Group 1168" transform="translate(21.336 0.019)">
      <g id="Group_1167" data-name="Group 1167" transform="translate(0 0)">
        <path id="Path_10228" data-name="Path 10228" d="M108.607,7.05h-3.516V3.535a3.516,3.516,0,1,0-7.031,0V7.05H94.545a3.516,3.516,0,1,0,0,7.031H98.06V17.6a3.516,3.516,0,1,0,7.031,0V14.081h3.516a3.516,3.516,0,1,0,0-7.031Z" transform="translate(-91.029 -0.019)" fill="#fff"/>
      </g>
    </g>
    <g id="Group_1170" data-name="Group 1170" transform="translate(98.915 42.441)">
      <g id="Group_1169" data-name="Group 1169">
        <path id="Path_10229" data-name="Path 10229" d="M439.583,188.036h-3.516v-3.516a3.516,3.516,0,1,0-7.031,0v3.516h-3.516a3.516,3.516,0,0,0,0,7.031h3.516v3.516a3.516,3.516,0,1,0,7.031,0v-3.516h3.516a3.516,3.516,0,0,0,0-7.031Z" transform="translate(-422.005 -181.005)" fill="#fff"/>
      </g>
    </g>
  </g>
</svg>
