<svg xmlns="http://www.w3.org/2000/svg" xmlns:xlink="http://www.w3.org/1999/xlink" width="373.876" height="360.684" viewBox="0 0 373.876 360.684">
  <defs>
    <linearGradient id="linear-gradient" x1="0.751" y1="0.019" x2="0.079" y2="0.685" gradientUnits="objectBoundingBox">
      <stop offset="0" stop-color="#fff"/>
      <stop offset="1" stop-color="#fff" stop-opacity="0"/>
    </linearGradient>
    <linearGradient id="linear-gradient-2" x1="0.67" y1="0.283" x2="0.149" y2="0.949" xlink:href="#linear-gradient"/>
  </defs>
  <g id="Group_2419" data-name="Group 2419" transform="translate(0.024 -0.054)">
    <path id="Path_29811" data-name="Path 29811" d="M218.927,14.019a182.657,182.657,0,0,0-23.478,1.488,169.173,169.173,0,0,1-82.009-9.59A91.9,91.9,0,0,0,84.505.13C39.2-1.688,1.5,29.065.016,68.747c-.827,23.313,11.078,44.477,30.092,58.365a104.34,104.34,0,0,1,38.524,56.05C85.828,244.173,149.484,286,218.927,286c85.481,0,154.924-60.845,154.924-136.075C373.851,74.864,304.408,14.019,218.927,14.019Z" transform="translate(0 0)" fill="#e1e1ff"/>
    <g id="Group_2417" data-name="Group 2417" transform="translate(1.504 54.527)">
      <path id="Path_29812" data-name="Path 29812" d="M97.459,209.776c0,1.653-21.66,2.976-48.279,2.976S.9,211.43.9,209.776,22.56,206.8,49.179,206.8C75.965,206.8,97.459,208.123,97.459,209.776Z" transform="translate(-0.9 80.562)" fill="#d2f0ff"/>
      <path id="Path_29813" data-name="Path 29813" d="M103.6,209.776c0,1.653-9.259,2.976-20.5,2.976-11.409,0-20.5-1.323-20.5-2.976s9.259-2.976,20.5-2.976C94.511,206.8,103.6,208.123,103.6,209.776Z" transform="translate(39.415 80.562)" fill="#d2f0ff"/>
      <path id="Path_29814" data-name="Path 29814" d="M254.86,208.93c0,2.645-34.887,4.63-77.875,4.63S104.4,211.41,104.4,208.93c0-2.645,29.431-4.63,72.585-4.63C219.973,204.3,254.86,206.449,254.86,208.93Z" transform="translate(66.728 78.929)" fill="#d2f0ff"/>
      <g id="Group_2412" data-name="Group 2412" transform="translate(68.782)">
        <g id="Group_2408" data-name="Group 2408" transform="translate(0 40.839)">
          <path id="Path_29815" data-name="Path 29815" d="M269.511,213.286H65.315A14.748,14.748,0,0,1,50.6,198.57V72.415A14.748,14.748,0,0,1,65.315,57.7h204.2a14.748,14.748,0,0,1,14.715,14.715v126.32A14.934,14.934,0,0,1,269.511,213.286Z" transform="translate(-37.207 -57.7)" fill="#3b3b8f"/>
          <rect id="Rectangle_798" data-name="Rectangle 798" width="209.156" height="131.115" transform="translate(25.628 12.235)" fill="#c2c5ff"/>
          <rect id="Rectangle_799" data-name="Rectangle 799" width="209.156" height="12.566" transform="translate(25.628 130.95)" fill="#767fe3"/>
          <rect id="Rectangle_800" data-name="Rectangle 800" width="209.156" height="6.283" transform="translate(25.628 12.235)" fill="#767fe3"/>
          <path id="Path_29816" data-name="Path 29816" d="M287.039,167.507H58.207A15.7,15.7,0,0,1,42.5,151.8H302.746A15.7,15.7,0,0,1,287.039,167.507Z" transform="translate(-42.5 3.786)" fill="#767fe3"/>
          <path id="Path_29817" data-name="Path 29817" d="M287.039,162.051H58.207A15.646,15.646,0,0,1,43.492,151.8H42.5a15.7,15.7,0,0,0,15.707,15.707H287.039A15.7,15.7,0,0,0,302.746,151.8h-.992A15.646,15.646,0,0,1,287.039,162.051Z" transform="translate(-42.5 3.786)" fill="#6469d4"/>
          <rect id="Rectangle_801" data-name="Rectangle 801" width="245.366" height="3.141" transform="translate(7.44 152.444)" fill="#6469d4"/>
          <path id="Path_29818" data-name="Path 29818" d="M143.987,157.091h-29.6A5.223,5.223,0,0,1,109.1,151.8h40.012A5.189,5.189,0,0,1,143.987,157.091Z" transform="translate(1.017 3.786)" fill="#6469d4"/>
          <rect id="Rectangle_802" data-name="Rectangle 802" width="28.769" height="4.96" transform="translate(33.068 147.484)" fill="#4d4cad"/>
          <rect id="Rectangle_803" data-name="Rectangle 803" width="28.769" height="4.96" transform="translate(199.235 147.484)" fill="#4d4cad"/>
          <path id="Path_29819" data-name="Path 29819" d="M127.774,65.1,58,134.874v61.341h.165L189.28,65.1Z" transform="translate(-32.372 -52.865)" opacity="0.51" fill="url(#linear-gradient)"/>
          <path id="Path_29820" data-name="Path 29820" d="M69.8,196.215h38.194L239.109,65.1H200.915Z" transform="translate(-24.662 -52.865)" opacity="0.51" fill="url(#linear-gradient-2)"/>
          <path id="Path_29821" data-name="Path 29821" d="M184.759,169.229l24.636-24.47V106.4L146.4,169.229Z" transform="translate(25.389 -25.879)" fill="#fff" opacity="0.51"/>
        </g>
        <path id="Path_29822" data-name="Path 29822" d="M146.517,45.678A11.078,11.078,0,0,0,135.439,34.6H76.578A11.078,11.078,0,0,0,65.5,45.678V83.21A11.078,11.078,0,0,0,76.578,94.288H93.939a8.959,8.959,0,0,1,7.44,3.968l3.307,4.96a1.674,1.674,0,0,0,1.157.661,1.107,1.107,0,0,0,1.157-.661l3.307-4.96a8.959,8.959,0,0,1,7.44-3.968h17.361A11.078,11.078,0,0,0,146.186,83.21V45.678Z" transform="translate(-27.472 -31.955)" fill="#4d4cad"/>
        <path id="Path_29823" data-name="Path 29823" d="M181.352,94.678A11.078,11.078,0,0,0,170.274,83.6h-58.7A11.078,11.078,0,0,0,100.5,94.678v37.367a11.078,11.078,0,0,0,11.078,11.078h17.361a8.959,8.959,0,0,1,7.44,3.968l3.307,4.96a1.674,1.674,0,0,0,1.157.661,1.107,1.107,0,0,0,1.157-.661l3.307-4.96a8.959,8.959,0,0,1,7.44-3.968h17.361a11.078,11.078,0,0,0,11.078-11.078V94.678Z" transform="translate(-4.602 0.062)" fill="#4d4cad"/>
        <path id="Path_29824" data-name="Path 29824" d="M240.952,63.278A11.078,11.078,0,0,0,229.874,52.2h-58.7A11.078,11.078,0,0,0,160.1,63.278v37.367a11.078,11.078,0,0,0,11.078,11.078h17.361a8.959,8.959,0,0,1,7.44,3.968l3.307,4.96a1.674,1.674,0,0,0,1.157.661,1.107,1.107,0,0,0,1.157-.661l3.307-4.96a8.959,8.959,0,0,1,7.44-3.968h17.361a11.078,11.078,0,0,0,11.078-11.078V63.278Z" transform="translate(34.341 -20.455)" fill="#fdfeff"/>
        <path id="Path_29825" data-name="Path 29825" d="M102,49.2a8.6,8.6,0,1,1-8.6-8.6A8.539,8.539,0,0,1,102,49.2Z" transform="translate(-14.861 -28.034)" fill="#fff"/>
        <path id="Path_29826" data-name="Path 29826" d="M109.686,71.857a2.552,2.552,0,0,0,2.48-3.141C110.512,60.283,104.064,54,96.293,54S81.908,60.283,80.42,68.715a2.636,2.636,0,0,0,2.48,3.141Z" transform="translate(-17.756 -19.278)" fill="#fff"/>
        <path id="Path_29827" data-name="Path 29827" d="M144.448,107.861a4.671,4.671,0,0,0-4.464-5.787h-4.96a1.715,1.715,0,0,1-1.653-2.315l2.645-5.291a2.692,2.692,0,0,0-2.48-3.968h0a4.452,4.452,0,0,0-3.968,2.315l-4.63,8.432a1.686,1.686,0,0,1-1.323.827,2.26,2.26,0,0,0-2.315,2.315v19.345a2.26,2.26,0,0,0,2.315,2.315h14.054a3.539,3.539,0,0,0,3.472-2.811Z" transform="translate(8.988 4.571)" fill="#fff"/>
        <path id="Path_29828" data-name="Path 29828" d="M200.883,61.709a9.441,9.441,0,0,0-5.291,1.488,6.8,6.8,0,0,1-7.275,0,9.48,9.48,0,0,0-7.11-1.323,10.017,10.017,0,0,0-8.1,9.259c-.5,10.086,12.07,19.014,17.03,21.99a3.892,3.892,0,0,0,3.8,0c4.795-2.976,16.7-11.739,17.03-21.164A10.381,10.381,0,0,0,200.883,61.709Z" transform="translate(42.829 -14.256)" fill="#b0b0ff"/>
        <circle id="Ellipse_64" data-name="Ellipse 64" cx="12.401" cy="12.401" r="12.401" transform="translate(95.732)" fill="#8888ea"/>
        <g id="Group_2409" data-name="Group 2409" transform="translate(104.317 6.712)">
          <text id="_1" data-name="1" transform="translate(0 9)" fill="#fff" font-size="12" font-family="SourceSansPro-Bold, Source Sans Pro" font-weight="700"><tspan x="0" y="0">1</tspan></text>
        </g>
        <circle id="Ellipse_65" data-name="Ellipse 65" cx="12.401" cy="12.401" r="12.401" transform="translate(252.806 28.439)" fill="#8888ea"/>
        <g id="Group_2410" data-name="Group 2410" transform="translate(261.494 35.246)">
          <text id="_3" data-name="3" transform="translate(0 9)" fill="#fff" font-size="12" font-family="SourceSansPro-Bold, Source Sans Pro" font-weight="700"><tspan x="0" y="0">3</tspan></text>
        </g>
        <circle id="Ellipse_66" data-name="Ellipse 66" cx="12.401" cy="12.401" r="12.401" transform="translate(155.09 80.521)" fill="#8888ea"/>
        <g id="Group_2411" data-name="Group 2411" transform="translate(163.749 87.262)">
          <text id="_4" data-name="4" transform="translate(0 9)" fill="#fff" font-size="12" font-family="SourceSansPro-Bold, Source Sans Pro" font-weight="700"><tspan x="0" y="0">4</tspan></text>
        </g>
      </g>
      <path id="Path_29829" data-name="Path 29829" d="M15.581,194.922,12.439,205.5a3.323,3.323,0,0,1-.661,1.323l-2.315,3.307a3.822,3.822,0,0,0,1.984,5.787s3.968,1.653,8.763,3.141c4.795,1.653,10.912.331,10.912-.992,0-2.811-2.645-.661-7.11-3.472a34.888,34.888,0,0,1-3.8-3.141c-3.8-2.976-.5-10.582,1.819-14.881a2.593,2.593,0,0,0-1.819-3.8l-1.157-.165A3.374,3.374,0,0,0,15.581,194.922Z" transform="translate(4.26 71.277)" fill="#fab9af"/>
      <path id="Path_29830" data-name="Path 29830" d="M59.715,145.007c.5-2.149.827-4.3.992-5.126a9.23,9.23,0,0,1,.827-1.323,5.729,5.729,0,0,0,1.323-2.645v-3.637c0-1.653.827-2.976,2.48-2.976h0c1.819,0,2.645,1.653,2.48,3.472v2.48a9.512,9.512,0,0,0,.827,4.3c.827,2.976.165,6.283-.661,9.094-.5,1.653-4.63,1.323-7.771,1.157-2.149-.165-4.63-.827-4.3-1.819.661-1.488,8.6.5,7.275-4.134,0-.165-.331-.827-.5-.827-.827,0-.992,1.819-1.488,2.811-.5,1.323-1.488,1.819-1.984,1.653C58.557,147.322,59.219,146.5,59.715,145.007Z" transform="translate(35.026 29.923)" fill="#fab9af"/>
      <path id="Path_29831" data-name="Path 29831" d="M54.92,70.388S82.7,107.755,82.7,128.587c0,14.219-5.952,45.469-5.952,45.469a12.111,12.111,0,0,1-5.622,0s.165-39.682-2.149-46.791S43.511,86.426,43.015,78.82C42.354,71.38,50.29,64.435,54.92,70.388Z" transform="translate(26.593 -10.038)" fill="#b0b0ff"/>
      <g id="Group_2413" data-name="Group 2413" transform="translate(39.129 90.55)">
        <path id="Path_29832" data-name="Path 29832" d="M142.345,181.736,31.071,167.682a7.327,7.327,0,0,1-6.448-8.267l8.267-65.144a7.327,7.327,0,0,1,8.267-6.448l111.274,14.054a7.327,7.327,0,0,1,6.448,8.267l-8.267,65.144A7.418,7.418,0,0,1,142.345,181.736Z" transform="translate(-24.566 -87.766)" fill="#3b3b8f"/>
        <path id="Path_29833" data-name="Path 29833" d="M137.376,173.121,31.227,159.729a2.057,2.057,0,0,1-1.819-2.315l8.1-63.987a2.057,2.057,0,0,1,2.315-1.819L145.973,105a2.057,2.057,0,0,1,1.819,2.315l-8.1,63.987A2.057,2.057,0,0,1,137.376,173.121Z" transform="translate(-21.415 -85.269)" fill="#fff"/>
        <path id="Path_29834" data-name="Path 29834" d="M144.282,110.359l.5-3.472a1.494,1.494,0,0,0-1.488-1.819L36.315,91.51A1.494,1.494,0,0,0,34.5,93L34,96.47Z" transform="translate(-18.401 -85.336)" fill="#c8e6eb"/>
        <circle id="Ellipse_67" data-name="Ellipse 67" cx="27.447" cy="27.447" r="27.447" transform="matrix(0.787, -0.617, 0.617, 0.787, 26.829, 42.173)" fill="#5e5dbb"/>
        <path id="Path_29835" data-name="Path 29835" d="M56.511,134.309l3.307-25.628a3.429,3.429,0,0,1,5.622-2.149l17.526,15.211a3.41,3.41,0,0,1-.661,5.622L61.636,137.782A3.464,3.464,0,0,1,56.511,134.309Z" transform="translate(-3.71 -76.053)" fill="#fff"/>
      </g>
      <path id="Path_29836" data-name="Path 29836" d="M39.946,197.35v8.928a18.577,18.577,0,0,1-.661,5.291l-.827,2.645a3.436,3.436,0,0,0,3.307,4.464H60.779a.756.756,0,0,0,.827-.661c.165-2.645-7.275-4.3-12.9-6.448-4.3-1.653-4.134-9.424-3.472-13.889a2.7,2.7,0,0,0-2.976-2.976h0A2.673,2.673,0,0,0,39.946,197.35Z" transform="translate(23.545 72.651)" fill="#fab9af"/>
      <path id="Path_29837" data-name="Path 29837" d="M119.21,121.309h-4.3A2.9,2.9,0,0,1,112.1,118.5V100.311a2.9,2.9,0,0,1,2.811-2.811h4.3a2.9,2.9,0,0,1,2.811,2.811V118.5A2.894,2.894,0,0,1,119.21,121.309Z" transform="translate(71.759 9.145)" fill="#fff"/>
      <path id="Path_29838" data-name="Path 29838" d="M22.236,44.727c.827-3.141,5.291-4.63,9.92-3.472a35.786,35.786,0,0,1,3.8,1.323,11.987,11.987,0,0,0,9.259,0,11.1,11.1,0,0,1,4.63-.992c6.779,0,13.062,5.126,15.707,10.251.661,1.323-.165,2.811-.165,4.134.5,15.707-7.44,13.227-15.873,13.227s-14.55-4.96-14.55-11.739v-.827a3.408,3.408,0,0,0-3.141-3.8,9.367,9.367,0,0,1-2.48-.5C24.551,51.34,21.575,47.868,22.236,44.727Z" transform="translate(12.981 -27.862)" fill="#3b3b8f"/>
      <path id="Path_29839" data-name="Path 29839" d="M77.884,152.965l-11.739-83L34.234,65.5,17.7,152.469Z" transform="translate(10.077 -11.764)" fill="#fab9af"/>
      <path id="Path_29840" data-name="Path 29840" d="M32.6,120.076,67.983,117.1s3.637,25.793-5.456,72.254c-4.134,21.825-12.9,63.656-12.9,63.656a10.116,10.116,0,0,1-6.614.661s-.661-18.353-.992-38.194c-.331-19.014-.5-39.351-1.653-45.965C37.891,155.79,32.6,120.076,32.6,120.076Z" transform="translate(19.813 21.951)" fill="#4d4cad"/>
      <path id="Path_29841" data-name="Path 29841" d="M55.121,121.38c-4.63,1.653-9.755,6.118-8.928,13.723,1.488,14.219,2.48,34.06-3.307,42.823-1.984,2.976-1.323-2.976-2.48-9.755C37.926,154.614,32.8,118.9,32.8,118.9Z" transform="translate(19.944 23.128)" fill="#3b3b8f"/>
      <path id="Path_29842" data-name="Path 29842" d="M53.7,122.6c3.637,19.51,11.739,48.941-3.968,76.387s-32.241,56.05-32.241,56.05a8.248,8.248,0,0,1-5.787-1.984s2.811-12.4,6.779-27.116c4.63-16.7,10.251-36.21,8.6-46.461-3.141-19.18-6.614-44.642-5.622-57.043C22.612,110.034,51.712,112.348,53.7,122.6Z" transform="translate(6.157 19.924)" fill="#4d4cad"/>
      <path id="Path_29843" data-name="Path 29843" d="M77.74,154.123a3.105,3.105,0,0,0,1.653-3.307L66.331,69.8,34.42,65.5l-17.2,85.481a2.881,2.881,0,0,0,2.315,3.472,202.548,202.548,0,0,0,36.375,3.472C67.985,157.925,74.764,155.611,77.74,154.123Z" transform="translate(9.725 -11.764)" fill="#fff"/>
      <path id="Path_29844" data-name="Path 29844" d="M46,70.064c0,5.787,1.157,10.582,1.653,16.369,1.157,11.9,1.323,27.777,1.653,45.965.661,31.415-1.323,39.847-9.59,45.8s-24.305-3.968-24.8-7.275,3.141-44.311,7.11-62S37.4,65.6,37.4,65.6l4.795.5A3.883,3.883,0,0,1,46,70.064Z" transform="translate(8.23 -11.699)" fill="#b0b0ff"/>
      <path id="Path_29845" data-name="Path 29845" d="M27.984,107.662c3.968-6.283,12.9-26.785,12.9-32.572L34.763,65.5S23.851,91.458,19.882,109.15C15.584,127.007,23.685,114.606,27.984,107.662Z" transform="translate(10.706 -11.764)" fill="#9797ef"/>
      <path id="Path_29846" data-name="Path 29846" d="M41.7,67.5a140.746,140.746,0,0,1,4.464,31.084c.5,18.187,2.149,59.027,8.432,75.4,1.984,5.126,16.2-8.6,16.2-12.731s-3.8-17.857-7.275-30.423c-2.811-10.086-6.779-44.146-8.1-56.877-.331-2.811-.661-5.126-3.637-5.456Z" transform="translate(25.759 -10.457)" fill="#b0b0ff"/>
      <g id="Group_2414" data-name="Group 2414" transform="translate(46.318 14.715)">
        <path id="Path_29847" data-name="Path 29847" d="M32.2,48.033a2.635,2.635,0,0,0-3.141,3.307,8.167,8.167,0,0,1,0,4.464c-.992,3.8,3.472,4.795,4.96,6.283,1.653,1.488,1.819,4.63,4.63,4.96s8.928-2.149,8.928-4.795C47.574,60.268,38.811,49.686,32.2,48.033Z" transform="translate(-28.914 -37.947)" fill="#3b3b8f"/>
        <path id="Path_29848" data-name="Path 29848" d="M43.02,45.1c-7.11,0-9.755,5.126-9.92,14.385a19.724,19.724,0,0,0,2.811,9.259,7.006,7.006,0,0,1,.661,5.456l-1.488,5.291c-.992,4.96,1.323,7.606,4.63,8.6A6.671,6.671,0,0,0,45,87.262c1.819-1.157,1.984-3.637,1.653-5.622l-.331-1.488c-.5-1.984.661-4.3,2.645-4.63,5.456-1.157,6.283-6.944,7.771-15.707C58.066,50.226,50.13,45.1,43.02,45.1Z" transform="translate(-26.179 -39.809)" fill="#fab9af"/>
        <path id="Path_29849" data-name="Path 29849" d="M58.749,48.514a5.439,5.439,0,0,0-4.464-4.795,16.708,16.708,0,0,1-2.811-.5L43.7,41.9c-4.96,0-13.062,2.811-12.07,9.92l.827,4.795a4.921,4.921,0,0,0,4.134,3.968h0a.738.738,0,0,1,.827,0c.331.165.5.331.5.661l.661,2.811c.827,0,1.157-2.976,1.157-3.8a4.778,4.778,0,0,1,3.8-4.63c2.645-.661,3.307-2.811,6.448-1.984l2.315.827c2.645.661,5.952-1.157,5.952-3.968C58.087,50,58.749,49.01,58.749,48.514Z" transform="translate(-27.192 -41.9)" fill="#3b3b8f"/>
        <path id="Path_29850" data-name="Path 29850" d="M37.948,55.407c0,2.149-.827,3.968-2.976,3.968S31.5,56.4,31.5,54.25,32.823,51.6,34.972,51.6C37.122,51.439,37.948,53.258,37.948,55.407Z" transform="translate(-27.224 -35.566)" fill="#fab9af"/>
        <path id="Path_29851" data-name="Path 29851" d="M47.307,60.74a1.656,1.656,0,0,1-1.653,1.984h0A1.631,1.631,0,0,1,44,61.236V54.292a.859.859,0,0,1,.331-.661,1.253,1.253,0,0,1,.661-.331,1.1,1.1,0,0,1,.827.661Z" transform="translate(-19.057 -34.451)" fill="#fa968c"/>
      </g>
      <path id="Path_29852" data-name="Path 29852" d="M44.7,48.961c2.811.661,4.3,5.291,4.464,7.11h0a1.067,1.067,0,0,0,.992-.992V52.1c0-.5-1.488-3.8-2.149-3.8Z" transform="translate(27.719 -23.003)" fill="#3b3b8f"/>
      <path id="Path_29853" data-name="Path 29853" d="M20.379,142.307c-.5-2.149-.827-4.3-.992-5.126a9.231,9.231,0,0,0-.827-1.323,5.729,5.729,0,0,1-1.323-2.645v-3.638c0-1.653-.827-2.976-2.48-2.976h0c-1.819,0-2.645,1.653-2.48,3.472v2.48a9.512,9.512,0,0,1-.827,4.3c-.827,2.976-.165,6.283.661,9.094.5,1.653,2.645,2.811,5.622,3.968,1.488.661,3.8,1.157,2.976-.661-.827-1.488-5.126-3.637-3.8-8.267,0-.165.331-.827.5-.827.827,0,.992,1.819,1.488,2.811.5,1.323,1.488,1.819,1.984,1.653C21.371,144.622,20.709,143.8,20.379,142.307Z" transform="translate(5.745 28.159)" fill="#fab9af"/>
      <path id="Path_29854" data-name="Path 29854" d="M35.577,67.819S7.8,105.186,7.8,126.018c0,14.219,5.952,45.469,5.952,45.469a15.22,15.22,0,0,0,2.811.331,15.22,15.22,0,0,0,2.811-.331s-.165-39.682,2.149-46.791,24.8-41,25.958-48.445C49.135,68.315,42.522,61.866,35.577,67.819Z" transform="translate(3.609 -11.768)" fill="#b0b0ff"/>
      <g id="Group_2416" data-name="Group 2416" transform="translate(140.54 136.296)">
        <path id="Path_29855" data-name="Path 29855" d="M206.033,171.767a12.851,12.851,0,0,0-2.645.331,5.064,5.064,0,0,1-4.795-1.488,10.138,10.138,0,0,0-7.11-3.472,3.964,3.964,0,0,1-3.637-2.315,13.058,13.058,0,0,0-5.787-5.787,6.71,6.71,0,0,1-3.968-6.448,14.947,14.947,0,0,0-4.134-10.251,8.717,8.717,0,0,1-2.48-8.1,12.1,12.1,0,0,0,.165-5.456,14.065,14.065,0,1,0-19.014,15.377,13.623,13.623,0,0,0-2.811,8.432,14.042,14.042,0,0,0,14.054,14.054h1.488a12.9,12.9,0,0,0-.5,3.637,12.241,12.241,0,0,0,13.393,12.07,7.811,7.811,0,0,1,6.448,1.984,9.81,9.81,0,0,0,10.913,1.323,7.907,7.907,0,0,1,6.118-.661c5.787,2.149,13.558-.661,13.558-6.118C215.458,174.908,211.324,171.767,206.033,171.767Z" transform="translate(-48.133 -114.449)" fill="#4d4cad"/>
        <path id="Path_29856" data-name="Path 29856" d="M238.415,204.889c-9.59-8.267-52.744-25.462-52.744-25.462-3.307-1.323-21.329-1.488-24.305-.165,0,0-44.642,17.691-53.57,25.628-2.149,1.819-3.8,6.118-2.645,8.928,2.645,6.448,41,4.96,59.688-.5a27.427,27.427,0,0,1,16.7.165c19.345,5.952,59.688,8.763,62.5,2.315C245.029,212.99,244.7,210.18,238.415,204.889Z" transform="translate(-73.57 -74.325)" fill="#4d4cad"/>
        <path id="Path_29857" data-name="Path 29857" d="M131.243,202.665c3.472.661,5.787-1.984,8.267-2.645a7.854,7.854,0,0,1,6.944,1.819c5.456,4.63,10.416,4.134,16.038,4.3l28.273-5.126s24.305-9.59,32.241-7.936c8.763,1.819,12.566,6.614,12.566,11.243,0,4.3-15.377,12.07-33.4,11.9-21.494-.165-46.626-3.637-53.9-5.291,0,0-29.1-7.44-29.265-8.763C118.512,201.177,127.771,202.169,131.243,202.665Z" transform="translate(-64.28 -64.826)" fill="#fa968c"/>
        <path id="Path_29858" data-name="Path 29858" d="M148.684,149.229c.331,0,.5.331.5.661a6.144,6.144,0,0,0,1.323,3.637,5.861,5.861,0,0,0,4.63,2.149,3.073,3.073,0,0,1,2.48,1.488,5.72,5.72,0,0,0,1.653,1.819,5.474,5.474,0,0,0,5.291.331,6.474,6.474,0,0,0,1.653-1.323,4.154,4.154,0,0,1,3.472-1.653,5.635,5.635,0,0,0,3.638-1.157,5.064,5.064,0,0,0,1.819-4.464,6.033,6.033,0,0,0-.992-3.307,3.05,3.05,0,0,1-.827-2.645,4.167,4.167,0,0,0-.992-3.307,4.689,4.689,0,0,0-1.819-1.323,3.051,3.051,0,0,1-1.819-3.637,7.031,7.031,0,0,0,.331-1.819c.827-5.622-4.795-11.243-4.795-11.243h0a3.556,3.556,0,0,1-4.3-.992l-2.149-2.645a.468.468,0,0,0-.827,0c-.331.165-.331.5-.165.827l1.323,1.819a5.214,5.214,0,0,1,0,6.448,8.488,8.488,0,0,0-1.653,3.968,35.961,35.961,0,0,0-.165,4.133,4.338,4.338,0,0,1-2.811,4.464,11.079,11.079,0,0,1-6.944-.5,10.021,10.021,0,0,1-4.3-3.141l-2.811-3.307a.585.585,0,1,0-.827.827l1.323,1.653a4.872,4.872,0,0,1,.827,2.149C141.243,142.615,143.889,148.237,148.684,149.229Z" transform="translate(-51.629 -112.743)" fill="#4d4cad"/>
        <ellipse id="Ellipse_68" data-name="Ellipse 68" cx="18.518" cy="17.857" rx="18.518" ry="17.857" transform="translate(73.434 23.211) rotate(-38.806)" fill="#4d4cad"/>
        <path id="Path_29859" data-name="Path 29859" d="M163.867,211.586l-10.251.331c-6.944.165-12.9-1.323-13.558-8.1L130.3,153.552c-.165-3.637,2.811-7.11,5.952-8.928,0,0,28.273-5.291,39.351.992l.827.331a10.125,10.125,0,0,1,5.291,8.432l-5.291,48.775C175.937,209.933,170.646,211.421,163.867,211.586Z" transform="translate(-56.891 -97.722)" fill="#b0b0ff"/>
        <path id="Path_29860" data-name="Path 29860" d="M177.681,146.5a13.791,13.791,0,0,1-1.323,1.984,31.173,31.173,0,0,0-5.622,16.865c-.165,5.291.5,10.913-1.157,14.385-1.984,4.3-9.094,4.3-12.566,1.157l-.165-.165a5.327,5.327,0,0,0-7.11-.331,10.721,10.721,0,0,1-7.44,2.645,10.831,10.831,0,0,1-8.6-3.8l4.3,21.825c.661,6.779,6.779,8.267,13.558,8.1l10.251-.331c6.614-.165,12.07-1.653,12.566-8.432l5.291-48.775A11.032,11.032,0,0,0,177.681,146.5Z" transform="translate(-54.667 -95.134)" fill="#9797ef"/>
        <path id="Path_29861" data-name="Path 29861" d="M149.278,160.049c-2.811,8.928-19.18,43.319-24.47,41.666-5.126-1.653,3.968-35.714,6.944-44.642,2.811-8.928,7.44-14.715,12.566-13.062C149.608,145.665,152.088,151.286,149.278,160.049Z" transform="translate(-61.482 -96.944)" fill="#b0b0ff"/>
        <path id="Path_29862" data-name="Path 29862" d="M154.879,161.554c4.133,8.267,26.124,38.855,31.084,36.54,4.795-2.315-10.086-33.729-14.219-42s-9.59-13.393-14.385-11.078S150.911,153.122,154.879,161.554Z" transform="translate(-42.282 -96.465)" fill="#b0b0ff"/>
        <path id="Path_29863" data-name="Path 29863" d="M185.05,172.126c-6.118.5-43.815,6.118-43.65,9.424.331,3.307,38.69,3.141,44.642,2.645,6.118-.5,8.6-3.637,8.267-6.944C194.144,173.945,191.168,171.63,185.05,172.126Z" transform="translate(-49.636 -78.433)" fill="#fa968c"/>
        <path id="Path_29864" data-name="Path 29864" d="M156.249,134.3H143.021a11.447,11.447,0,0,1,.661,5.787l-1.323,6.779c-.827,6.283,1.819,9.59,5.456,10.582a5.814,5.814,0,0,0,5.291-1.488c1.819-1.653,1.819-4.795,1.323-7.275l-.5-1.819C153.273,144.386,156.249,134.3,156.249,134.3Z" transform="translate(-49.108 -103.106)" fill="#fab9af"/>
        <path id="Path_29865" data-name="Path 29865" d="M155.927,134.3H142.7a11.447,11.447,0,0,1,.661,5.787l-.5,2.48a26.532,26.532,0,0,0,4.464,4.3,4,4,0,0,0,5.126-.165c.331-.331.661-.5.992-.827C153.447,142.567,155.927,134.3,155.927,134.3Z" transform="translate(-48.786 -103.106)" fill="#fa968c"/>
        <path id="Path_29866" data-name="Path 29866" d="M143.728,132.837c.165,2.149.165,4.63-1.653,4.795s-3.968-3.637-3.968-5.622c-.165-2.149.992-2.645,2.811-2.811C142.736,129.2,143.562,130.853,143.728,132.837Z" transform="translate(-51.798 -106.438)" fill="#fab9af"/>
        <path id="Path_29867" data-name="Path 29867" d="M152.227,132.742c-.165,2.149-.165,4.63,1.653,4.795s3.968-3.637,3.968-5.622c.165-2.149-.992-2.645-2.811-2.811S152.392,130.593,152.227,132.742Z" transform="translate(-42.606 -106.508)" fill="#fab9af"/>
        <path id="Path_29868" data-name="Path 29868" d="M164.005,134.846c0,9.094-5.952,15.377-9.59,18.353a4.215,4.215,0,0,1-5.126.165,22.609,22.609,0,0,1-9.59-18.353c0-10.747,5.787-15.211,12.235-15.211C158.218,119.8,164.005,124.1,164.005,134.846Z" transform="translate(-50.747 -112.58)" fill="#fab9af"/>
        <path id="Path_29869" data-name="Path 29869" d="M149.768,136.759a1.922,1.922,0,0,1-2.149,2.149h0a2.114,2.114,0,0,1-1.819-1.984l.827-8.267a.909.909,0,0,1,.5-.827,1.263,1.263,0,0,1,.827-.331.781.781,0,0,1,.827.827Z" transform="translate(-46.761 -107.549)" fill="#fa968c"/>
        <path id="Path_29870" data-name="Path 29870" d="M166.794,122.469h0c1.157-1.488-1.819-6.283-7.11-4.96h0a9.365,9.365,0,0,1-5.622-.331,11.739,11.739,0,0,0-5.291-.661,7.284,7.284,0,0,0-5.787,3.637c-.5.331-.992.827-1.488,1.157-4.3,3.8-3.472,11.574-3.472,11.574h0a3.363,3.363,0,0,1,2.811,3.307v3.472a.711.711,0,0,0,.661.661.738.738,0,0,0,.661-.5l.165-2.149a5.693,5.693,0,0,1,3.968-4.96,8.434,8.434,0,0,0,3.8-1.984,15.705,15.705,0,0,0,2.645-3.141,4.189,4.189,0,0,1,5.126-1.653,11.237,11.237,0,0,1,6.283,9.92v4.3a.661.661,0,0,0,1.323,0v-2.149a3.545,3.545,0,0,1,.661-1.984c2.315-2.811,3.8-8.763.661-12.731C166.464,122.965,166.464,122.635,166.794,122.469Z" transform="translate(-51.883 -114.753)" fill="#4d4cad"/>
        <path id="Path_29871" data-name="Path 29871" d="M179.488,175.834a18.08,18.08,0,0,0-2.48-5.126c-1.157-1.157-5.622-.165-8.1.661a16.306,16.306,0,0,1-3.968.5c-9.92-.5-28.935-.165-33.4.661-5.952,1.157-8.763,5.787-8.1,9.094,1.157,5.291,4.3,6.448,10.251,5.291,4.3-.827,21.825-6.448,31.249-10.747a14.61,14.61,0,0,1,7.936-1.157Z" transform="translate(-61.435 -79.661)" fill="#fab9af"/>
        <path id="Path_29872" data-name="Path 29872" d="M206.523,216.6c-1.984-.661-7.771-.5-11.243-.661s-5.291-3.141-7.44-4.3a7.741,7.741,0,0,0-7.11.331c-6.283,3.472-11.078,1.984-16.534.827,0,0-34.06-19.841-44.642-20.668-8.928-.661-13.393,3.968-14.715,8.432-1.653,5.456,2.811,9.424,8.1,11.243,19.345,6.448,50.264,8.763,63.987,8.6,0,0,17.691-1.488,26.951.165,3.472.661,4.63-.5,5.126-1.653C209.664,217.918,208.507,217.257,206.523,216.6Z" transform="translate(-73.754 -65.364)" fill="#fab9af"/>
        <path id="Path_29873" data-name="Path 29873" d="M183.643,213.75H132.222a5.575,5.575,0,0,1-5.622-5.622V175.722a5.575,5.575,0,0,1,5.622-5.622h51.421a5.575,5.575,0,0,1,5.622,5.622v32.407A5.793,5.793,0,0,1,183.643,213.75Z" transform="translate(-59.306 -79.714)" fill="#e1e1ff"/>
        <path id="Path_29874" data-name="Path 29874" d="M184.635,170.1H131.23a4.621,4.621,0,0,0-4.63,4.63v1.323a4.621,4.621,0,0,1,4.63-4.63h53.405a4.621,4.621,0,0,1,4.63,4.63V174.73A4.849,4.849,0,0,0,184.635,170.1Z" transform="translate(-59.306 -79.714)" fill="#b0b0ff"/>
        <path id="Path_29875" data-name="Path 29875" d="M152.787,188.016a7.106,7.106,0,0,1-1.819-4.63v-.827a2.789,2.789,0,0,0-2.149-2.645c-.331-.165-.661-.331-.661-.827v-.827a.711.711,0,0,0-.661-.661.585.585,0,0,0-.661.661l.331.827c.165.331-.165.827-.5.992a2.682,2.682,0,0,0-1.819,2.645v.5a7.677,7.677,0,0,1-1.653,4.795,5.307,5.307,0,0,0-1.157,4.464,5.48,5.48,0,0,0,4.63,4.134c3.8.661,7.275-1.984,7.275-5.291A5.714,5.714,0,0,0,152.787,188.016Z" transform="translate(-49.284 -74.813)" fill="#fdfeff"/>
        <g id="Group_2415" data-name="Group 2415" transform="translate(0 34.666)">
          <path id="Path_29876" data-name="Path 29876" d="M271.908,271.649H112.024a26.124,26.124,0,1,1,0-52.248h41.17v1.653h-41.17a24.47,24.47,0,0,0,0,48.941H271.908a24.415,24.415,0,0,0,24.47-24.47v-83a24.415,24.415,0,0,0-24.47-24.47H261V136.4h10.913a26.179,26.179,0,0,1,26.124,26.124v83A26.179,26.179,0,0,1,271.908,271.649Z" transform="translate(-85.9 -136.4)" fill="#b0b0ff"/>
        </g>
      </g>
    </g>
    <g id="Group_2418" data-name="Group 2418" transform="translate(91.449 258.723)">
      <path id="Path_29877" data-name="Path 29877" d="M55.6,156.645s18.518,20.337,16.2,32.572a23.753,23.753,0,0,0,4.3,18.849c4.3,5.456,12.9,3.638,15.046-2.811,2.149-6.614,3.141-16.865-3.307-29.1C75.937,153.834,55.6,156.645,55.6,156.645Z" transform="translate(-55.104 -156.48)" fill="#1c9585"/>
      <path id="Path_29878" data-name="Path 29878" d="M55.6,156.645s18.518,20.337,16.2,32.572a23.753,23.753,0,0,0,4.3,18.849c4.3,5.456,12.9,3.638,15.046-2.811,2.149-6.614,3.141-16.865-3.307-29.1C75.937,153.834,55.6,156.645,55.6,156.645Z" transform="translate(-55.104 -156.48)" fill="#b0b0ff"/>
      <path id="Path_29879" data-name="Path 29879" d="M71.834,189.072a23.753,23.753,0,0,0,4.3,18.849,2.283,2.283,0,0,1,.5.661,8.61,8.61,0,0,1,2.315,5.126v.661h4.63a87.356,87.356,0,0,1-1.323-15.211v-2.645h0a43.252,43.252,0,0,0-5.456-20.5c-6.118-11.739-14.219-17.03-21-19.51h-.5S74.314,177,71.834,189.072Z" transform="translate(-55.3 -156.5)" fill="#8888ea"/>
      <path id="Path_29880" data-name="Path 29880" d="M107.5,164.338S90.309,179.88,91.3,190.3a19.082,19.082,0,0,1-5.126,15.377c-3.968,4.134-11.078,1.984-12.4-3.638-1.323-5.787-1.323-14.385,5.126-23.974C90.64,160.535,107.5,164.338,107.5,164.338Z" transform="translate(-43.683 -151.606)" fill="#1c9585"/>
      <path id="Path_29881" data-name="Path 29881" d="M107.5,164.338S90.309,179.88,91.3,190.3a19.082,19.082,0,0,1-5.126,15.377c-3.968,4.134-11.078,1.984-12.4-3.638-1.323-5.787-1.323-14.385,5.126-23.974C90.64,160.535,107.5,164.338,107.5,164.338Z" transform="translate(-43.683 -151.606)" fill="#8888ea"/>
      <path id="Path_29882" data-name="Path 29882" d="M81,209.338a6.44,6.44,0,0,1,2.149-3.307l.5-.5a20.285,20.285,0,0,0,5.126-15.377c-.992-10.416,16.2-25.958,16.2-25.958h-.331c-5.787,1.488-13.062,5.291-19.18,14.55a37.724,37.724,0,0,0-6.118,16.7h0c0,.827-.165,1.488-.165,2.149A76.547,76.547,0,0,1,77.2,209.173H81Z" transform="translate(-40.99 -151.469)" fill="#b0b0ff"/>
      <path id="Path_29883" data-name="Path 29883" d="M86.145,222.626a8.4,8.4,0,0,0,8.432-8.1V188.4H66.8v26.124a8.4,8.4,0,0,0,8.432,8.1Z" transform="translate(-47.786 -135.656)" fill="#b0b0ff"/>
      <path id="Path_29884" data-name="Path 29884" d="M79.545,222.626a8.4,8.4,0,0,0,8.432-8.1V188.4H79.545v25.958a14.083,14.083,0,0,1-2.645,8.267Z" transform="translate(-41.186 -135.656)" fill="#9696ed"/>
      <rect id="Rectangle_804" data-name="Rectangle 804" width="27.777" height="6.944" transform="translate(19.014 62.003)" fill="#9696ed"/>
      <rect id="Rectangle_805" data-name="Rectangle 805" width="27.777" height="1.157" transform="translate(19.014 61.011)" fill="#e4f2f6"/>
    </g>
  </g>
</svg>
