<svg xmlns="http://www.w3.org/2000/svg" xmlns:xlink="http://www.w3.org/1999/xlink" width="541.45" height="395.079" viewBox="0 0 541.45 395.079">
  <defs>
    <clipPath id="clip-path">
      <path id="Path_29887" data-name="Path 29887" d="M323.772,139.471C251.232,95.736,216.959-39.041,105.1,41.489c-112.069,80.53-65.6,245.794,41.632,285.744s245.374,17.452,284.062-56.77C497.237,143.465,372.342,168.907,323.772,139.471Z" transform="translate(-40.454 -16.338)"/>
    </clipPath>
  </defs>
  <g id="Group_2453" data-name="Group 2453" transform="translate(0.05)">
    <g id="Group_2452" data-name="Group 2452" transform="translate(0.4)">
      <path id="Path_29885" data-name="Path 29885" d="M323.772,139.471C251.232,95.736,216.959-39.041,105.1,41.489c-112.069,80.53-65.6,245.794,41.632,285.744s245.374,17.452,284.062-56.77C497.237,143.465,372.342,168.907,323.772,139.471Z" transform="translate(43.763 18.014)" fill="#eaebfb"/>
      <g id="Group_2421" data-name="Group 2421" transform="translate(84.217 34.353)">
        <g id="Group_2420" data-name="Group 2420" clip-path="url(#clip-path)">
          <path id="Path_29886" data-name="Path 29886" d="M35.3,245.7s61.817-62.027,165.054-32.59,164,4.205,151.177-151.808c0,0,145.08,20.185,126.577,123.423C455.61,310.038,163.979,357.767,35.3,245.7Z" transform="translate(-46.136 33.237)" fill="#dfe0f3"/>
        </g>
      </g>
      <g id="Group_2428" data-name="Group 2428" transform="translate(60.975 48.991)">
        <g id="Group_2422" data-name="Group 2422" transform="translate(0)">
          <path id="Path_29888" data-name="Path 29888" d="M177.213,32.762V93.317a9.422,9.422,0,0,1-9.462,9.462H38.862A9.422,9.422,0,0,1,29.4,93.317V32.762A9.422,9.422,0,0,1,38.862,23.3h128.89A9.7,9.7,0,0,1,177.213,32.762Z" transform="translate(-29.4 -23.3)" fill="#c7cbe8"/>
        </g>
        <g id="Group_2424" data-name="Group 2424">
          <path id="Path_29889" data-name="Path 29889" d="M177.213,32.762v5.257H29.4V32.762A9.422,9.422,0,0,1,38.862,23.3h128.89A9.7,9.7,0,0,1,177.213,32.762Z" transform="translate(-29.4 -23.3)" fill="#93b7fa"/>
          <g id="Group_2423" data-name="Group 2423" transform="translate(6.308 6.281)">
            <circle id="Ellipse_69" data-name="Ellipse 69" cx="1.892" cy="1.892" r="1.892" transform="translate(0 0.027)" fill="#fff"/>
            <path id="Path_29890" data-name="Path 29890" d="M40.085,28.207a1.892,1.892,0,1,1-1.892-1.892C39.033,26.1,40.085,27.155,40.085,28.207Z" transform="translate(-28.1 -26.287)" fill="#fff"/>
            <path id="Path_29891" data-name="Path 29891" d="M43.785,28.192A1.892,1.892,0,1,1,41.892,26.3,1.884,1.884,0,0,1,43.785,28.192Z" transform="translate(-24.02 -26.273)" fill="#fff"/>
          </g>
        </g>
        <path id="Path_29892" data-name="Path 29892" d="M69.639,62.044H39.782A1.658,1.658,0,0,1,38.1,60.362V36.182A1.658,1.658,0,0,1,39.782,34.5H69.429a1.658,1.658,0,0,1,1.682,1.682v23.97A1.572,1.572,0,0,1,69.639,62.044Z" transform="translate(-19.807 -10.951)" fill="#fff"/>
        <g id="Group_2425" data-name="Group 2425" transform="translate(16.19 59.714)">
          <path id="Path_29893" data-name="Path 29893" d="M148.328,55.905H39.2a2.107,2.107,0,0,1-2.1-2.1h0a2.107,2.107,0,0,1,2.1-2.1H148.328a2.107,2.107,0,0,1,2.1,2.1h0A2.107,2.107,0,0,1,148.328,55.905Z" transform="translate(-37.1 -51.7)" fill="#fff"/>
        </g>
        <g id="Group_2426" data-name="Group 2426" transform="translate(59.083 43.944)">
          <path id="Path_29894" data-name="Path 29894" d="M125.835,48.405H59.6a2.107,2.107,0,0,1-2.1-2.1h0a2.107,2.107,0,0,1,2.1-2.1h66.232a2.107,2.107,0,0,1,2.1,2.1h0A2.107,2.107,0,0,1,125.835,48.405Z" transform="translate(-57.5 -44.2)" fill="#fff"/>
        </g>
        <g id="Group_2427" data-name="Group 2427" transform="translate(59.083 29.226)">
          <path id="Path_29895" data-name="Path 29895" d="M100.6,41.405h-41a2.107,2.107,0,0,1-2.1-2.1h0a2.107,2.107,0,0,1,2.1-2.1h41a2.107,2.107,0,0,1,2.1,2.1h0A2.261,2.261,0,0,1,100.6,41.405Z" transform="translate(-57.5 -37.2)" fill="#fff"/>
        </g>
      </g>
      <path id="Path_29896" data-name="Path 29896" d="M.4,90.608a46.834,46.834,0,0,1,3.785-3.995c2.944-2.313,5.887-6.518,15.559-3.364.841.21,1.472.631,2.313.841.841.421,3.574.421,6.308-1.892,4.415-3.364,6.1-6.1,11.985-6.1,6.939,0,7.99,8.621,13.457,10.723,3.364,1.472,12.405,2.733,14.3,3.364Z" transform="translate(-0.4 83.908)" fill="none" stroke="#e8e9f9" stroke-linecap="round" stroke-linejoin="round" stroke-miterlimit="10" stroke-width="0.899"/>
      <path id="Path_29897" data-name="Path 29897" d="M174.8,38.986s4.836-5.467,7.569-7.99c5.257-4.415,11.144-12.405,30.488-6.518a37.91,37.91,0,0,1,4.415,1.682c1.682.631,6.939.631,12.2-3.574,8.621-6.728,11.775-11.775,23.549-11.985,13.667-.21,15.77,16.821,26.283,21.026,6.728,2.733,24.39,5.467,28.175,6.728Z" transform="translate(191.894 11.687)" fill="#e8e9f9"/>
      <g id="Group_2429" data-name="Group 2429" transform="translate(125.736 98.612)">
        <path id="Path_29898" data-name="Path 29898" d="M128.969,49.633,127.918,46.9l-1.051,2.733A9.337,9.337,0,0,1,121.4,55.1h0a9.933,9.933,0,0,1,5.467,5.467l1.051,2.733,1.051-2.733a9.337,9.337,0,0,1,5.467-5.467h0A9.337,9.337,0,0,1,128.969,49.633Z" transform="translate(7.279 -46.9)" fill="#fff"/>
        <path id="Path_29899" data-name="Path 29899" d="M86.869,125.933,85.818,123.2l-1.051,2.733A9.337,9.337,0,0,1,79.3,131.4h0a9.933,9.933,0,0,1,5.467,5.467l1.051,2.733,1.051-2.733a9.337,9.337,0,0,1,5.467-5.467h0A9.337,9.337,0,0,1,86.869,125.933Z" transform="translate(-39.14 37.229)" fill="#fff"/>
        <path id="Path_29900" data-name="Path 29900" d="M211.636,117.492l-.631-1.892-.631,1.892a6.614,6.614,0,0,1-3.574,3.574h0a7.371,7.371,0,0,1,3.574,3.574l.631,1.892.631-1.892a6.614,6.614,0,0,1,3.574-3.574h0A7.371,7.371,0,0,1,211.636,117.492Z" transform="translate(101.442 28.849)" fill="#fff"/>
        <path id="Path_29901" data-name="Path 29901" d="M65.036,73.192,64.405,71.3l-.631,1.892A6.614,6.614,0,0,1,60.2,76.767h0a7.371,7.371,0,0,1,3.574,3.574l.631,1.892.631-1.892a6.613,6.613,0,0,1,3.574-3.574h0A7.371,7.371,0,0,1,65.036,73.192Z" transform="translate(-60.2 -19.996)" fill="#fff"/>
      </g>
      <g id="Group_2433" data-name="Group 2433" transform="translate(272.918)">
        <path id="Path_29902" data-name="Path 29902" d="M197.694,0H136.3a6.1,6.1,0,0,0-6.1,6.1V39.319a6.1,6.1,0,0,0,6.1,6.1h3.364V60.555L154.8,45.416h42.893a6.1,6.1,0,0,0,6.1-6.1V6.1A6.1,6.1,0,0,0,197.694,0Z" transform="translate(-130.2)" fill="#93b7fa"/>
        <g id="Group_2430" data-name="Group 2430" transform="translate(12.616 32.38)">
          <path id="Path_29903" data-name="Path 29903" d="M138.3,15.4h14.508a2.107,2.107,0,0,1,2.1,2.1h0a2.107,2.107,0,0,1-2.1,2.1H138.3a2.107,2.107,0,0,1-2.1-2.1h0A2.261,2.261,0,0,1,138.3,15.4Z" transform="translate(-136.2 -15.4)" fill="#fff"/>
        </g>
        <g id="Group_2431" data-name="Group 2431" transform="translate(12.616 22.288)">
          <path id="Path_29904" data-name="Path 29904" d="M138.3,10.6h26.7a2.107,2.107,0,0,1,2.1,2.1h0a2.107,2.107,0,0,1-2.1,2.1H138.3a2.107,2.107,0,0,1-2.1-2.1h0A2.261,2.261,0,0,1,138.3,10.6Z" transform="translate(-136.2 -10.6)" fill="#fff"/>
        </g>
        <g id="Group_2432" data-name="Group 2432" transform="translate(12.616 12.405)">
          <path id="Path_29905" data-name="Path 29905" d="M138.3,5.9h45.837a2.107,2.107,0,0,1,2.1,2.1h0a2.107,2.107,0,0,1-2.1,2.1H138.3A2.107,2.107,0,0,1,136.2,8h0A2.261,2.261,0,0,1,138.3,5.9Z" transform="translate(-136.2 -5.9)" fill="#fff"/>
        </g>
      </g>
      <g id="Group_2435" data-name="Group 2435" transform="translate(301.093 151.387)">
        <path id="Path_29906" data-name="Path 29906" d="M144.2,204.213h71.068A27.821,27.821,0,0,0,243.022,179.4l10.3-106.6H182.257l-1.472,61.817Z" transform="translate(-142.938 -71.118)" fill="#c5c9e6"/>
        <g id="Group_2434" data-name="Group 2434">
          <path id="Path_29907" data-name="Path 29907" d="M144.862,204.044c18.293-.631,36.585-1.051,54.668-1.262l13.667-.21h3.364c1.051,0,2.1-.21,3.154-.21a18.937,18.937,0,0,0,5.887-1.682,25.29,25.29,0,0,0,14.928-18.5,54.813,54.813,0,0,0,.841-6.518L242,168.93l1.262-13.667c.841-9.041,1.892-18.082,2.733-27.334,1.892-18.082,3.995-36.375,6.1-54.457A1.842,1.842,0,0,1,253.987,72a1.784,1.784,0,0,1,1.472,1.682c-1.262,18.293-2.733,36.375-4.415,54.668-.841,9.041-1.472,18.293-2.523,27.334l-1.262,13.667-.631,6.728c-.21,2.313-.421,4.415-.841,7.149-1.892,9.882-8.831,18.713-18.293,22.288a22.563,22.563,0,0,1-7.149,1.892,22.852,22.852,0,0,1-3.785.21h-3.574l-13.667-.21c-18.293-.21-36.585-.631-54.668-1.262a1.177,1.177,0,0,1-1.051-1.262A1.42,1.42,0,0,1,144.862,204.044Z" transform="translate(-143.6 -72)" fill="#3d415b"/>
        </g>
        <line id="Line_176" data-name="Line 176" y2="75.273" transform="translate(41.842 135.197)" fill="none" stroke="#3d415b" stroke-miterlimit="10" stroke-width="2.496"/>
      </g>
      <g id="Group_2446" data-name="Group 2446" transform="translate(127.478 80.337)">
        <rect id="Rectangle_806" data-name="Rectangle 806" width="228.974" height="3.574" transform="translate(228.974 139.155) rotate(180)" fill="#3d415b"/>
        <path id="Path_29908" data-name="Path 29908" d="M163.836,178.9l2.523,8.621L154.585,191.1,150.8,180.372Z" transform="translate(37.953 116.919)" fill="#e3bc9a"/>
        <path id="Path_29909" data-name="Path 29909" d="M123.1,175.8v7.149h10.3l1.262-7.149Z" transform="translate(7.411 113.501)" fill="#e3bc9a"/>
        <g id="Group_2438" data-name="Group 2438" transform="translate(126.727 63.391)">
          <g id="Group_2436" data-name="Group 2436" transform="translate(0 10.732)">
            <path id="Path_29910" data-name="Path 29910" d="M198.017,86.368l-15.77,39.108-.421.841a5.892,5.892,0,0,1-5.467,3.785l-45-.421A3.321,3.321,0,0,1,128,126.318a3.184,3.184,0,0,1,2.733-3.154l44.575-6.518-5.887,4.626,10.723-40.791a9.461,9.461,0,0,1,18.293,4.836A3.553,3.553,0,0,1,198.017,86.368Z" transform="translate(-113.913 -73.461)" fill="#d8ac89"/>
            <path id="Path_29911" data-name="Path 29911" d="M143.588,96.921,128.239,96.5c-3.785,0-6.939,3.364-6.939,7.569h22.5Z" transform="translate(-121.3 -48.059)" fill="#d8ac89"/>
          </g>
          <g id="Group_2437" data-name="Group 2437" transform="translate(59.293)">
            <path id="Path_29912" data-name="Path 29912" d="M149.5,96.622l24.6,6.1L178.1,80.852a10.617,10.617,0,0,0-9.041-12.405h0a10.9,10.9,0,0,0-11.775,6.939Z" transform="translate(-149.5 -68.357)" fill="#7c6ef2"/>
          </g>
        </g>
        <path id="Path_29913" data-name="Path 29913" d="M207.153,102.1l-75.9,38.478A19.812,19.812,0,0,0,120.315,159.5l5.677,97.561h11.564l15.77-104.289,59.083-41.421Z" transform="translate(4.309 32.239)" fill="#303348"/>
        <path id="Path_29914" data-name="Path 29914" d="M166.129,39.452S187.155,32.3,198.3,52.278a12.016,12.016,0,0,0,2.313,3.364c2.313,2.733,6.939,7.569,12.2,9.041,20.606,6.308,33.431,45.206-7.359,48.57-51.093,4.415-65.6-5.677-58.452-26.072,5.257-14.508.631-24.811.631-24.811Z" transform="translate(31.876 -38.208)" fill="#282c3c"/>
        <path id="Path_29915" data-name="Path 29915" d="M174.451,63.6l-10.934,4.836A17.64,17.64,0,0,0,153,84.836c.21,14.3,3.364,49.832,15.559,63.5h37.006c5.677-25.231,2.523-63.919,2.523-63.919a18.332,18.332,0,0,0-15.98-18.923Z" transform="translate(40.375 -10.211)" fill="#583bf5"/>
        <g id="Group_2441" data-name="Group 2441" transform="translate(174.81 1.454)">
          <g id="Group_2440" data-name="Group 2440">
            <g id="Group_2439" data-name="Group 2439" transform="translate(7.004 11.985)">
              <path id="Path_29916" data-name="Path 29916" d="M169.323,85.529h0a7.057,7.057,0,0,1-7.78-6.1L158.6,55.882,172.687,54.2l2.944,23.339A7.146,7.146,0,0,1,169.323,85.529Z" transform="translate(-135.261 -34.015)" fill="#ddb28d"/>
              <path id="Path_29917" data-name="Path 29917" d="M170,84.129h-.631a17.069,17.069,0,0,1-19.134-14.718l-2.733-20.4L181.983,44.6,184.716,65A17.034,17.034,0,0,1,170,84.129Z" transform="translate(-147.5 -44.6)" fill="#e3bc9a"/>
            </g>
            <path id="Path_29918" data-name="Path 29918" d="M189.441,63.5,186.5,69.6s-3.995,3.364-5.046-5.046c-.841-7.149-6.1-5.887-6.1-5.887s-17.872,13.667-28.6,4.205c-8.41-7.359,5.046-20.816,20.605-23.97l20.185,8.831Z" transform="translate(-144.169 -38.9)" fill="#282c3c"/>
            <path id="Path_29919" data-name="Path 29919" d="M163.426,56.915a5.712,5.712,0,1,0,5.046-6.308A5.566,5.566,0,0,0,163.426,56.915Z" transform="translate(-122.99 -26.007)" fill="#e3bc9a"/>
            <path id="Path_29920" data-name="Path 29920" d="M165.6,55.08c0,.631.631,1.051,1.051.841.631,0,1.051-.631.841-1.051,0-.631-.631-1.051-1.051-.841C165.81,54.029,165.6,54.449,165.6,55.08Z" transform="translate(-120.538 -22.279)" fill="#fff"/>
          </g>
          <path id="Path_29921" data-name="Path 29921" d="M151.7,59.8l9.672-2.1s.421,4.205-4.836,5.046A4.061,4.061,0,0,1,151.7,59.8Z" transform="translate(-135.865 -18.171)" fill="#fff"/>
        </g>
        <path id="Path_29922" data-name="Path 29922" d="M232.49,103.9H195.484L136.4,139.644a16.36,16.36,0,0,0-6.518,20.4L175.3,263.067l13.036-1.472-24.39-99.453c20.4-.841,58.452-3.995,68.335-14.928C249.1,128.29,232.49,103.9,232.49,103.9Z" transform="translate(13.455 34.224)" fill="#3d415b"/>
        <g id="Group_2442" data-name="Group 2442" transform="translate(52.76 73.363)">
          <path id="Path_29923" data-name="Path 29923" d="M153.36,73.31l21.026,56.56H105.841L86.287,76.464A2.479,2.479,0,0,1,88.6,73.1h64.76Z" transform="translate(-86.121 -73.1)" fill="#93b7fa"/>
          <path id="Path_29924" data-name="Path 29924" d="M118.1,73.2h3.364a4.312,4.312,0,0,1,3.995,2.733l19.764,53.827h-6.1Z" transform="translate(-50.862 -72.99)" fill="#a9c9fa"/>
          <path id="Path_29925" data-name="Path 29925" d="M100.646,105.567h63.288V100.1H95.6v.421A5.116,5.116,0,0,0,100.646,105.567Z" transform="translate(-75.67 -43.33)" fill="#82a7e7"/>
          <path id="Path_29926" data-name="Path 29926" d="M128.1,105.567h42.262a2.783,2.783,0,0,0,2.733-2.733h0a2.783,2.783,0,0,0-2.733-2.733H128.1Z" transform="translate(-39.836 -43.33)" fill="#8eb6ec"/>
          <path id="Path_29927" data-name="Path 29927" d="M116.309,89.427c1.262,3.995-.21,7.99-3.574,9.041-3.154,1.051-6.939-1.262-8.2-5.046-1.262-3.995.21-7.99,3.574-9.041C111.473,83.119,115.048,85.432,116.309,89.427Z" transform="translate(-66.312 -61.042)" fill="#ecf2f5"/>
        </g>
        <g id="Group_2445" data-name="Group 2445" transform="translate(155.532 61.867)">
          <g id="Group_2443" data-name="Group 2443" transform="translate(0 11.008)">
            <path id="Path_29928" data-name="Path 29928" d="M212.037,85.972l-15.98,39.739-.421.841a5.966,5.966,0,0,1-5.677,3.785l-45-.21a3.321,3.321,0,0,1-3.364-3.364,3.568,3.568,0,0,1,2.944-3.364l44.575-6.518-5.887,4.626,10.723-41.421a9.536,9.536,0,0,1,18.5,4.626A2.988,2.988,0,0,0,212.037,85.972Z" transform="translate(-127.723 -72.868)" fill="#e3bc9a"/>
            <path id="Path_29929" data-name="Path 29929" d="M157.288,96.721,141.939,96.3c-3.785,0-6.939,3.574-6.939,7.78h22.5Z" transform="translate(-135 -47.031)" fill="#e3bc9a"/>
          </g>
          <g id="Group_2444" data-name="Group 2444" transform="translate(59.293)">
            <path id="Path_29930" data-name="Path 29930" d="M163.2,96.581l24.6,6.1L191.8,80.391a10.714,10.714,0,0,0-9.041-12.616h0a10.672,10.672,0,0,0-11.775,6.939Z" transform="translate(-163.2 -67.632)" fill="#7c6ef2"/>
          </g>
        </g>
        <path id="Path_29931" data-name="Path 29931" d="M160.536,181.3l-5.677,5.677-12.826,3.154a4.972,4.972,0,0,0-2.944,2.523l-.631,1.892a1.421,1.421,0,0,0,1.262,1.892l41.632-1.051a2.525,2.525,0,0,0,2.313-2.523L180.3,181.085l-6.308,1.472a8.222,8.222,0,0,1-6.308-.631l-2.313-1.262A4.15,4.15,0,0,0,160.536,181.3Z" transform="translate(24.223 118.308)" fill="#29323d"/>
        <path id="Path_29932" data-name="Path 29932" d="M132.136,177.4l-5.677,5.677-12.826,3.154a4.972,4.972,0,0,0-2.944,2.523l-.631,1.892a1.421,1.421,0,0,0,1.262,1.892l37.637-.841a2.525,2.525,0,0,0,2.313-2.523l-1.051-11.985-4.626,1.472a8.222,8.222,0,0,1-6.308-.631l-2.313-1.262A4.15,4.15,0,0,0,132.136,177.4Z" transform="translate(-7.091 114.008)" fill="#29323d"/>
      </g>
      <g id="Group_2450" data-name="Group 2450" transform="translate(422.203 85.155)">
        <path id="Path_29933" data-name="Path 29933" d="M207.718,83.393H313.479A6.551,6.551,0,0,0,320,76.875V47.018a6.551,6.551,0,0,0-6.518-6.518H207.718a6.551,6.551,0,0,0-6.518,6.518V77.085A6.511,6.511,0,0,0,207.718,83.393Z" transform="translate(-201.2 -40.5)" fill="#4747cc"/>
        <g id="Group_2449" data-name="Group 2449" transform="translate(13.036 9.041)">
          <path id="Path_29934" data-name="Path 29934" d="M241.2,69.611H263.07a2.107,2.107,0,0,0,2.1-2.1V46.9a2.107,2.107,0,0,0-2.1-2.1H241.2a2.107,2.107,0,0,0-2.1,2.1V67.508A2.451,2.451,0,0,0,241.2,69.611Z" transform="translate(-172.447 -44.8)" fill="#fff"/>
          <g id="Group_2448" data-name="Group 2448" transform="translate(0 1.892)">
            <path id="Path_29935" data-name="Path 29935" d="M209.082,49.064h56.35a1.658,1.658,0,0,0,1.682-1.682h0a1.658,1.658,0,0,0-1.682-1.682h-56.35a1.658,1.658,0,0,0-1.682,1.682h0A1.658,1.658,0,0,0,209.082,49.064Z" transform="translate(-207.4 -45.7)" fill="#fff"/>
            <g id="Group_2447" data-name="Group 2447" transform="translate(0 8.831)">
              <path id="Path_29936" data-name="Path 29936" d="M226.6,53.264h19.764a1.658,1.658,0,0,0,1.682-1.682h0a1.658,1.658,0,0,0-1.682-1.682H226.6a1.658,1.658,0,0,0-1.682,1.682h0C224.707,52.633,225.548,53.264,226.6,53.264Z" transform="translate(-188.121 -49.9)" fill="#fff"/>
              <path id="Path_29937" data-name="Path 29937" d="M209.082,53.264h23.549a1.658,1.658,0,0,0,1.682-1.682h0a1.658,1.658,0,0,0-1.682-1.682H209.082a1.658,1.658,0,0,0-1.682,1.682h0A1.547,1.547,0,0,0,209.082,53.264Z" transform="translate(-207.4 -49.9)" fill="#fff"/>
            </g>
            <path id="Path_29938" data-name="Path 29938" d="M215.782,57.564h42.262a1.658,1.658,0,0,0,1.682-1.682h0a1.658,1.658,0,0,0-1.682-1.682H215.782a1.658,1.658,0,0,0-1.682,1.682h0A1.809,1.809,0,0,0,215.782,57.564Z" transform="translate(-200.013 -36.328)" fill="#fff"/>
          </g>
        </g>
      </g>
      <g id="Group_2451" data-name="Group 2451" transform="translate(148.963 173.465)">
        <path id="Path_29939" data-name="Path 29939" d="M79.564,103.872s17.452,0,13.877-17.872C93.231,86,75.149,87.892,79.564,103.872Z" transform="translate(-62.842 -78.641)" fill="#93b7fa"/>
        <path id="Path_29940" data-name="Path 29940" d="M85.656,103.582s-17.662,0-13.877-18.082C71.779,85.5,90.282,87.182,85.656,103.582Z" transform="translate(-71.247 -79.192)" fill="#93b7fa"/>
        <path id="Path_29941" data-name="Path 29941" d="M81.16,106.89S68.334,93.854,83.473,82.5C83.473,82.5,95.668,97.639,81.16,106.89Z" transform="translate(-65.91 -82.5)" fill="#82a7e7"/>
        <path id="Path_29942" data-name="Path 29942" d="M99.975,93.4H71.8l4.626,19.554H95.139Z" transform="translate(-70.638 -70.482)" fill="#583bf5"/>
      </g>
    </g>
    <line id="Line_177" data-name="Line 177" y2="137.931" transform="translate(234.84 219.512)" fill="none" stroke="#3d415b" stroke-miterlimit="10" stroke-width="2"/>
  </g>
</svg>
