<svg xmlns="http://www.w3.org/2000/svg" xmlns:xlink="http://www.w3.org/1999/xlink" width="409.389" height="437.404" viewBox="0 0 409.389 437.404">
  <defs>
    <linearGradient id="linear-gradient" x1="1.951" y1="-5.266" x2="1.951" y2="-4.826" gradientUnits="objectBoundingBox">
      <stop offset="0.013" stop-color="#212121"/>
      <stop offset="1" stop-color="#212121" stop-opacity="0"/>
    </linearGradient>
    <linearGradient id="linear-gradient-2" x1="0.498" y1="0.427" x2="0.498" y2="0.991" xlink:href="#linear-gradient"/>
    <linearGradient id="linear-gradient-3" x1="0.83" y1="4.934" x2="0.83" y2="5.418" xlink:href="#linear-gradient"/>
    <linearGradient id="linear-gradient-4" x1="0.504" y1="0.432" x2="0.504" y2="1.002" xlink:href="#linear-gradient"/>
    <linearGradient id="linear-gradient-5" x1="0.502" y1="0.431" x2="0.502" y2="0.994" xlink:href="#linear-gradient"/>
    <linearGradient id="linear-gradient-6" x1="0.5" y1="0.431" x2="0.5" y2="1.001" xlink:href="#linear-gradient"/>
    <linearGradient id="linear-gradient-7" x1="0.498" y1="0.43" x2="0.498" y2="1" xlink:href="#linear-gradient"/>
    <linearGradient id="linear-gradient-8" x1="0.499" y1="0.43" x2="0.499" y2="0.994" xlink:href="#linear-gradient"/>
    <linearGradient id="linear-gradient-9" x1="0.566" y1="0.697" x2="0.339" y2="0.124" gradientUnits="objectBoundingBox">
      <stop offset="0" stop-color="#d81b60"/>
      <stop offset="1" stop-color="#002856"/>
    </linearGradient>
    <linearGradient id="linear-gradient-10" x1="0.497" y1="0.162" x2="0.571" y2="1.383" xlink:href="#linear-gradient-9"/>
    <linearGradient id="linear-gradient-11" x1="0.647" y1="0.998" x2="0.396" y2="0.098" gradientUnits="objectBoundingBox">
      <stop offset="0" stop-color="#008da7"/>
      <stop offset="1" stop-color="#002856"/>
    </linearGradient>
    <linearGradient id="linear-gradient-12" x1="0.003" y1="0.497" x2="1.003" y2="0.497" gradientUnits="objectBoundingBox">
      <stop offset="0" stop-color="#fddedc"/>
      <stop offset="1" stop-color="#fdbcb8"/>
    </linearGradient>
    <linearGradient id="linear-gradient-13" x1="-0.006" y1="0.494" x2="0.994" y2="0.494" xlink:href="#linear-gradient-12"/>
    <linearGradient id="linear-gradient-14" x1="0.001" y1="0.507" x2="0.978" y2="0.507" xlink:href="#linear-gradient-12"/>
    <linearGradient id="linear-gradient-15" x1="-0.002" y1="0.497" x2="1.014" y2="0.497" xlink:href="#linear-gradient-12"/>
    <linearGradient id="linear-gradient-16" x1="0.007" y1="0.502" x2="0.996" y2="0.502" xlink:href="#linear-gradient-12"/>
    <linearGradient id="linear-gradient-17" x1="-0.003" y1="0.5" x2="0.986" y2="0.5" xlink:href="#linear-gradient-12"/>
    <linearGradient id="linear-gradient-18" x1="0.788" y1="1.204" x2="0.511" y2="0.388" xlink:href="#linear-gradient-11"/>
    <linearGradient id="linear-gradient-19" x1="-0.001" y1="0.499" x2="1.001" y2="0.499" xlink:href="#linear-gradient-12"/>
    <linearGradient id="linear-gradient-20" x1="0.567" y1="1.064" x2="0.456" y2="-0.004" xlink:href="#linear-gradient-11"/>
    <linearGradient id="linear-gradient-21" x1="-0.005" y1="0.501" x2="0.999" y2="0.501" xlink:href="#linear-gradient-12"/>
    <linearGradient id="linear-gradient-22" x1="-0.005" y1="0.503" x2="0.998" y2="0.503" xlink:href="#linear-gradient-12"/>
  </defs>
  <g id="Group_3156" data-name="Group 3156" transform="translate(-119.001 -2295.418)">
    <path id="Path_30038" data-name="Path 30038" d="M323.772,139.471C251.232,95.736,216.959-39.041,105.1,41.489c-112.069,80.53-65.6,245.794,41.632,285.744s245.374,17.452,284.062-56.77C497.237,143.465,372.342,168.907,323.772,139.471Z" transform="translate(78.547 2333.015)" fill="#eaebfb" opacity="0.56"/>
    <g id="Group_2504" data-name="Group 2504" transform="translate(144.961 2295.457)">
      <g id="Group_2464" data-name="Group 2464" transform="translate(26.481 39.122)">
        <g id="Group_2455" data-name="Group 2455">
          <path id="Path_29943" data-name="Path 29943" d="M157.1,130.535H27.23a13.943,13.943,0,0,1-14.03-14.03V33.53A13.943,13.943,0,0,1,27.23,19.5H157.1a13.943,13.943,0,0,1,14.03,14.03v82.975A14.071,14.071,0,0,1,157.1,130.535Z" transform="translate(-13.2 -19.5)" fill="#62afbd"/>
        </g>
        <g id="Group_2456" data-name="Group 2456" transform="translate(63.327 64.737)">
          <path id="Path_29944" data-name="Path 29944" d="M92.2,96.094,45.5,85.672,51.713,51.8l46.9,12.226Z" transform="translate(-44.09 -51.8)" opacity="0.58" fill="url(#linear-gradient)"/>
          <rect id="Rectangle_807" data-name="Rectangle 807" width="48.302" height="30.264" transform="matrix(0.968, 0.251, -0.251, 0.968, 7.599, 0.004)" fill="#fff"/>
        </g>
        <g id="Group_2457" data-name="Group 2457" transform="translate(46.899 26.857)">
          <path id="Path_29945" data-name="Path 29945" d="M50.63,49.936H38.8L36.6,32.9H49.026Z" transform="translate(-36.6 -32.9)" opacity="0.58" fill="url(#linear-gradient-2)"/>
          <rect id="Rectangle_808" data-name="Rectangle 808" width="12.426" height="14.631" fill="#fff"/>
        </g>
        <g id="Group_2458" data-name="Group 2458" transform="translate(17.77 46.899)">
          <path id="Path_29946" data-name="Path 29946" d="M76.415,74.968l-47.1,8.217L22.1,49.714,70,42.9Z" transform="translate(-22.032 -42.9)" opacity="0.58" fill="url(#linear-gradient-3)"/>
          <rect id="Rectangle_809" data-name="Rectangle 809" width="48.302" height="30.264" transform="translate(0 6.713) rotate(-7.984)" fill="#fff"/>
        </g>
        <g id="Group_2459" data-name="Group 2459" transform="translate(100.613 34.272)">
          <path id="Path_29947" data-name="Path 29947" d="M77.43,53.436H65.805L63.4,36.6H75.826Z" transform="translate(-63.4 -36.6)" opacity="0.58" fill="url(#linear-gradient-4)"/>
          <rect id="Rectangle_810" data-name="Rectangle 810" width="12.426" height="14.631" fill="#fff"/>
        </g>
        <g id="Group_2460" data-name="Group 2460" transform="translate(116.045 50.106)">
          <path id="Path_29948" data-name="Path 29948" d="M85.33,61.536H73.505L71.1,44.5H83.727Z" transform="translate(-71.1 -44.5)" opacity="0.58" fill="url(#linear-gradient-5)"/>
          <rect id="Rectangle_811" data-name="Rectangle 811" width="12.426" height="14.631" fill="#fff"/>
        </g>
        <g id="Group_2461" data-name="Group 2461" transform="translate(132.48 45.496)">
          <path id="Path_29949" data-name="Path 29949" d="M93.53,59.036H81.705L79.3,42.2H91.927Z" transform="translate(-79.3 -42.2)" opacity="0.58" fill="url(#linear-gradient-6)"/>
          <rect id="Rectangle_812" data-name="Rectangle 812" width="12.426" height="14.631" fill="#fff"/>
        </g>
        <g id="Group_2462" data-name="Group 2462" transform="translate(123.261 18.439)">
          <path id="Path_29950" data-name="Path 29950" d="M88.73,45.536H76.9L74.7,28.7H87.126Z" transform="translate(-74.7 -28.7)" opacity="0.58" fill="url(#linear-gradient-7)"/>
          <rect id="Rectangle_813" data-name="Rectangle 813" width="12.426" height="14.631" fill="#fff"/>
        </g>
        <g id="Group_2463" data-name="Group 2463" transform="translate(85.18 13.028)">
          <path id="Path_29951" data-name="Path 29951" d="M69.93,43.036H58.105L55.7,26H68.327Z" transform="translate(-55.7 -26)" opacity="0.58" fill="url(#linear-gradient-8)"/>
          <rect id="Rectangle_814" data-name="Rectangle 814" width="12.426" height="14.631" fill="#fff"/>
        </g>
        <path id="Path_29952" data-name="Path 29952" d="M58.626,26.7a.4.4,0,1,0,0,.8C59.227,27.7,59.227,26.7,58.626,26.7Z" transform="translate(31.966 -12.269)" fill="#212121"/>
        <path id="Path_29953" data-name="Path 29953" d="M39.926,34a.4.4,0,1,0,0,.8C40.527,35,40.527,34,39.926,34Z" transform="translate(13.186 -4.939)" fill="#212121"/>
        <path id="Path_29954" data-name="Path 29954" d="M66.526,37.1a.4.4,0,1,0,0,.8C67.127,38.1,67.127,37.1,66.526,37.1Z" transform="translate(39.899 -1.825)" fill="#212121"/>
        <path id="Path_29955" data-name="Path 29955" d="M78.026,29.3a.4.4,0,1,0,0,.8A.4.4,0,1,0,78.026,29.3Z" transform="translate(51.448 -9.658)" fill="#212121"/>
        <path id="Path_29956" data-name="Path 29956" d="M82.626,42.9a.4.4,0,1,0,0,.8C83.227,43.9,83.227,42.9,82.626,42.9Z" transform="translate(56.067 3.999)" fill="#212121"/>
        <path id="Path_29957" data-name="Path 29957" d="M74.326,46a.4.4,0,1,0,0,.8C74.727,46.8,74.727,46,74.326,46Z" transform="translate(47.732 7.112)" fill="#212121"/>
        <path id="Path_29958" data-name="Path 29958" d="M49.726,52.5a.4.4,0,1,0,0,.8C50.327,53.5,50.327,52.5,49.726,52.5Z" transform="translate(23.028 13.64)" fill="#212121"/>
        <path id="Path_29959" data-name="Path 29959" d="M45.026,44.1a.4.4,0,1,0,0,.8A.4.4,0,1,0,45.026,44.1Z" transform="translate(18.308 5.204)" fill="#212121"/>
        <path id="Path_29960" data-name="Path 29960" d="M70.926,58.3a.4.4,0,1,0,0,.8C71.327,59.1,71.327,58.3,70.926,58.3Z" transform="translate(44.318 19.464)" fill="#212121"/>
      </g>
      <g id="Group_2470" data-name="Group 2470" transform="translate(-0.024 280.232)">
        <ellipse id="Ellipse_70" data-name="Ellipse 70" cx="38.281" cy="4.81" rx="38.281" ry="4.81" transform="translate(9.669 147.512)" fill="#005077" opacity="0.1"/>
        <g id="Group_2469" data-name="Group 2469">
          <g id="Group_2465" data-name="Group 2465" transform="translate(22.54)">
            <path id="Path_29961" data-name="Path 29961" d="M13.182,206.139c6.213,30.264,17.236,46.1,26.857,44.895L17.592,140.4C15.587,147.415,7.57,178.881,13.182,206.139Z" transform="translate(-11.222 -139.197)" fill="#008da7"/>
            <path id="Path_29962" data-name="Path 29962" d="M14.7,139.8a6.264,6.264,0,0,0-.4,1.4L36.747,251.837h.6c9.62-2,14.03-21.044,7.817-52.11S14.7,139.8,14.7,139.8Z" transform="translate(-8.131 -139.8)" fill="#62afbd"/>
            <path id="Path_29963" data-name="Path 29963" d="M33.183,216.716c-1.6-7.416-3.006-14.831-4.61-22.247-3.006-14.831-6.213-29.663-9.42-44.494,0-.2-.2-.2-.2,0,2,10.021,3.808,20.243,5.812,30.264a65.151,65.151,0,0,0-11.023-7.215c-.2,0-.4.2-.2.4a62.99,62.99,0,0,0,11.424,7.616c.8,4.61,1.8,9.019,2.806,13.629,1.4,7.416,3.006,14.831,4.409,22.247s2.606,15.032,4.61,22.247c.2.6.8.4.8-.2C36.59,231.548,34.586,224.132,33.183,216.716Z" transform="translate(-8.976 -129.733)" fill="#005077"/>
            <path id="Path_29964" data-name="Path 29964" d="M31.481,184.726A139.971,139.971,0,0,0,13.042,172.5c-.2,0-.4.2-.2.2a113.16,113.16,0,0,0,18.439,12.226C31.481,185.127,31.681,184.726,31.481,184.726Z" transform="translate(-9.679 -106.961)" fill="#005077"/>
            <path id="Path_29965" data-name="Path 29965" d="M30.02,164.742c-1.8,2.405-3.407,4.81-5.211,7.215a29.745,29.745,0,0,0-4.209,6.814c0,.2.2.4.4.2a47.08,47.08,0,0,0,4.61-6.414c1.6-2.405,3.207-5.011,4.61-7.616C30.421,164.742,30.22,164.541,30.02,164.742Z" transform="translate(-1.804 -114.836)" fill="#005077"/>
            <path id="Path_29966" data-name="Path 29966" d="M32.346,178.8c-3.006,4.209-6.213,8.217-8.618,12.627a.228.228,0,1,0,.4.2c3.407-3.808,5.812-8.418,8.217-12.827Z" transform="translate(1.282 -100.635)" fill="#005077"/>
            <path id="Path_29967" data-name="Path 29967" d="M32.574,194.821A110.977,110.977,0,0,0,17.342,184.8c-.2,0-.4.2-.2.2a108.917,108.917,0,0,0,15.032,10.021C32.574,195.422,32.775,195.022,32.574,194.821Z" transform="translate(-5.36 -94.609)" fill="#005077"/>
          </g>
          <g id="Group_2466" data-name="Group 2466" transform="translate(52.329 21.245)">
            <path id="Path_29968" data-name="Path 29968" d="M33.13,194.693c-9.42,23.85-8.819,40.085-1.6,43.492L65.8,150.8C61.39,154.808,41.748,173.047,33.13,194.693Z" transform="translate(-26.085 -149.998)" fill="#008da7"/>
            <path id="Path_29969" data-name="Path 29969" d="M64.075,150.4a4.45,4.45,0,0,0-1,.8L28.8,238.586c.2,0,.4.2.6.2,7.616,3.006,19.441-8.418,28.861-32.87C67.883,181.666,64.075,150.4,64.075,150.4Z" transform="translate(-23.358 -150.4)" fill="#62afbd"/>
            <path id="Path_29970" data-name="Path 29970" d="M36.736,211.388c2.2-5.812,4.61-11.825,6.814-17.637,4.61-11.825,9.019-23.65,13.629-35.475,0-.2-.2-.2-.2,0-3.207,7.817-6.414,15.833-9.62,23.85A56.262,56.262,0,0,0,42.949,172.1c0-.2-.4,0-.4.2a48.519,48.519,0,0,0,4.61,10.422L42.949,193.55c-2.405,5.812-4.61,11.825-7.015,17.637a188.349,188.349,0,0,0-6.814,17.637c-.2.4.4.6.6.2C32.327,223.413,34.331,217.2,36.736,211.388Z" transform="translate(-23.077 -142.642)" fill="#005077"/>
            <path id="Path_29971" data-name="Path 29971" d="M38.016,189.48A104.783,104.783,0,0,0,30.6,172.645c0-.2-.2,0-.2,0a97.508,97.508,0,0,0,7.416,16.836C37.816,189.681,38.016,189.681,38.016,189.48Z" transform="translate(-21.751 -128.151)" fill="#005077"/>
            <path id="Path_29972" data-name="Path 29972" d="M49.169,172.7c-2.2.8-4.61,1.8-6.814,2.806a32.844,32.844,0,0,0-6.013,2.806c-.2,0,0,.4.2.4a57.111,57.111,0,0,0,6.213-2.405c2-1.2,4.209-2.2,6.414-3.608C49.369,172.9,49.369,172.7,49.169,172.7Z" transform="translate(-15.868 -128.005)" fill="#005077"/>
            <path id="Path_29973" data-name="Path 29973" d="M44.066,183.8a101.478,101.478,0,0,0-11.625,5.011c-.2.2,0,.4.2.4A98.1,98.1,0,0,0,44.066,183.8Z" transform="translate(-19.784 -116.858)" fill="#005077"/>
            <path id="Path_29974" data-name="Path 29974" d="M34.214,197.071A85.72,85.72,0,0,0,28,183.242c0-.2-.2,0-.2.2a84.855,84.855,0,0,0,6.013,13.829C33.813,197.472,34.214,197.271,34.214,197.071Z" transform="translate(-24.362 -117.503)" fill="#005077"/>
          </g>
          <g id="Group_2467" data-name="Group 2467" transform="translate(0 31.266)">
            <path id="Path_29975" data-name="Path 29975" d="M8.643,204.4c9.821,20.844,20.844,30.464,27.458,27.859L.025,155.9C-.176,161.311-.176,185.563,8.643,204.4Z" transform="translate(0.024 -154.898)" fill="#008da7"/>
            <path id="Path_29976" data-name="Path 29976" d="M0,155.4v1l36.076,76.361a.7.7,0,0,0,.4-.2c6.614-3.207,6.414-17.838-3.608-39.083S0,155.4,0,155.4Z" transform="translate(0.049 -155.4)" fill="#62afbd"/>
            <path id="Path_29977" data-name="Path 29977" d="M25.347,208.542c-2.405-5.211-4.81-10.222-7.215-15.433-4.81-10.222-9.821-20.443-14.831-30.665,0-.2-.2,0-.2,0,3.207,7.015,6.414,14.03,9.62,20.844A42.07,42.07,0,0,0,3.5,180.082c-.2,0-.2.2-.2.4a42.36,42.36,0,0,0,9.62,3.407c1.4,3.207,3.006,6.213,4.409,9.42,2.405,5.211,4.81,10.222,7.215,15.433,2.405,5.011,4.61,10.422,7.416,15.433.2.4.8.2.6-.2C30.558,218.563,27.752,213.553,25.347,208.542Z" transform="translate(3.162 -148.415)" fill="#005077"/>
            <path id="Path_29978" data-name="Path 29978" d="M20.408,185.012A103.494,103.494,0,0,0,4.775,179.4c-.2,0-.2.2,0,.2a85.459,85.459,0,0,0,15.633,5.612C20.408,185.413,20.609,185.212,20.408,185.012Z" transform="translate(4.694 -131.298)" fill="#005077"/>
            <path id="Path_29979" data-name="Path 29979" d="M14.509,171.5c-.8,2-1.6,4.008-2.405,6.213a18.394,18.394,0,0,0-1.8,5.612.2.2,0,0,0,.2.2,27.23,27.23,0,0,0,2.2-5.612c.6-2,1.2-4.209,1.8-6.414Z" transform="translate(10.393 -139.232)" fill="#005077"/>
            <path id="Path_29980" data-name="Path 29980" d="M18.808,181.3A99.75,99.75,0,0,0,14.8,192.123c0,.2.2.4.4.2,1.8-3.608,2.606-7.215,3.608-11.023Z" transform="translate(14.912 -129.39)" fill="#005077"/>
            <path id="Path_29981" data-name="Path 29981" d="M23,192.21a69.747,69.747,0,0,0-12.827-4.61c-.2,0-.2.2,0,.2A69.747,69.747,0,0,0,23,192.41C23,192.611,23.2,192.41,23,192.21Z" transform="translate(10.117 -123.064)" fill="#005077"/>
          </g>
          <g id="Group_2468" data-name="Group 2468" transform="translate(14.68 102.617)">
            <path id="Path_29982" data-name="Path 29982" d="M73.841,218.658V191H7.3v3.608l46.3,46.3A22.415,22.415,0,0,0,73.841,218.658Z" transform="translate(-7.3 -191)" fill="#efebe9"/>
            <path id="Path_29983" data-name="Path 29983" d="M7.3,192.8v24.051A22.411,22.411,0,0,0,29.747,239.3H51.393a8.221,8.221,0,0,0,2.2-.2Z" transform="translate(-7.3 -189.192)" fill="#b0bec5"/>
          </g>
        </g>
      </g>
      <g id="Group_2503" data-name="Group 2503" transform="translate(100.276 -0.039)">
        <path id="Path_29984" data-name="Path 29984" d="M239.336,212.691c-6.013-2.806-13.629-1.8-20.042-1.8h-23.85c-15.232,0-30.464.4-45.7.8-30.264.4-61.33-.6-91.393,3.207a1.5,1.5,0,0,0,0,3.006c30.264,3.608,61.129,2.605,91.393,3.207,15.232.2,30.464.4,45.7.8,7.215.2,14.631,0,21.846,0,7.015,0,15.633,1.2,22.047-1.8C242.142,218.7,242.142,213.894,239.336,212.691Z" transform="translate(-43.16 211.685)" fill="#005077" opacity="0.1"/>
        <g id="Group_2491" data-name="Group 2491" transform="translate(0 79.036)">
          <path id="Path_29985" data-name="Path 29985" d="M67.463,86.5a89.772,89.772,0,0,0,1.8-29.262c-3.608-2-3.808-7.616-1-10.622,2.606-3.006,7.015-4.008,11.224-4.008,4.008.2,8.017,1,12.226,1.2a6.9,6.9,0,0,0,4.008-.8,2.611,2.611,0,0,0,.8-3.608c5.612-.2,11.625,2.806,14.03,8.017s0,12.226-5.411,14.431c-1.6.6-3.207.8-4.61,1.4-3.608,1.4-19.642,16.836-19.842,20.644Z" transform="translate(-33.63 -39.395)" fill="#002856"/>
          <g id="Group_2474" data-name="Group 2474" transform="translate(14.792 190.813)">
            <g id="Group_2471" data-name="Group 2471" transform="translate(0 143.695)">
              <path id="Path_29986" data-name="Path 29986" d="M57.4,213.119v2.605c0,3.808,12.827,6.814,28.661,6.814s28.661-3.006,28.661-6.814v-2.605c0-3.808-12.827-6.814-28.661-6.814C70.227,206.1,57.4,209.311,57.4,213.119Z" transform="translate(-57.4 -206.296)" fill="#37474f"/>
              <path id="Path_29987" data-name="Path 29987" d="M57.4,213.114c0-3.808,12.827-6.814,28.661-6.814,2.806,0,5.612.2,8.217.2L81.651,219.929C67.822,219.328,57.4,216.522,57.4,213.114Z" transform="translate(-57.4 -206.291)" fill="#efebe9"/>
              <path id="Path_29988" data-name="Path 29988" d="M102.57,213.014c0,3.808-12.827,6.814-28.661,6.814H69.5L82.127,206.4C93.952,207.2,102.57,209.807,102.57,213.014Z" transform="translate(-45.249 -206.191)" fill="#b0bec5"/>
            </g>
            <path id="Path_29989" data-name="Path 29989" d="M72.6,280h0a1.37,1.37,0,0,0,1.4-1.4V137.5H71V278.6A1.7,1.7,0,0,0,72.6,280Z" transform="translate(-43.742 -131.688)" fill="#37474f"/>
            <g id="Group_2472" data-name="Group 2472" transform="translate(3.207 95.402)">
              <path id="Path_29990" data-name="Path 29990" d="M59,187.812c0-3.608,12.827-5.612,25.654-5.612s25.654,2,25.654,5.612-12.827,5.612-25.654,5.612C71.827,193.223,59,191.419,59,187.812Zm2.606,0c0,1.6,9.019,3.808,23.049,3.808s23.049-2.2,23.049-3.808S98.684,184,84.654,184C70.625,183.8,61.606,186.208,61.606,187.812Z" transform="translate(-59 -182.2)" fill="#37474f"/>
            </g>
            <g id="Group_2473" data-name="Group 2473" transform="translate(0 6.213)">
              <path id="Path_29991" data-name="Path 29991" d="M114.721,137.7v8.618c0,3.407-12.827,6.213-28.661,6.213S57.4,149.725,57.4,146.318V137.7Z" transform="translate(-57.4 -137.7)" fill="#37474f"/>
            </g>
            <path id="Path_29992" data-name="Path 29992" d="M57.4,140.813c0,3.407,12.827,6.213,28.661,6.213s28.661-2.806,28.661-6.213S101.894,134.6,86.061,134.6,57.4,137.406,57.4,140.813Z" transform="translate(-57.4 -134.6)" fill="#efebe9"/>
          </g>
          <path id="Path_29993" data-name="Path 29993" d="M105.225,109.4l-2.405-.4L93.4,302.008l2.405.4" transform="translate(-6.455 30.504)" fill="#002856"/>
          <g id="Group_2476" data-name="Group 2476" transform="translate(19.788 162.682)">
            <path id="Path_29994" data-name="Path 29994" d="M108.263,130.1c2.806,1,33.07,71.952,33.07,71.952l15.032,79.769-7.817-2.2L126.1,228.508l3.006-23.249L78.4,145.332Z" transform="translate(-41.306 -110.988)" fill="url(#linear-gradient-9)"/>
            <g id="Group_2475" data-name="Group 2475">
              <path id="Path_29995" data-name="Path 29995" d="M108.611,122.239c-8.017.6-38.481-2.606-43.893-1.4-3.207.8-5.011,6.814-4.81,9.42.2,6.414.8,14.831,4.409,19.642,10.222,13.629,93.6,24.051,93.6,24.051l-20.443,17.838-16.234,58.123,5.812,5.211,54.114-91.794-69.347-32.669Z" transform="translate(-59.892 -120.564)" fill="url(#linear-gradient-10)"/>
              <path id="Path_29996" data-name="Path 29996" d="M104.541,202.436l-4.008-10.622L93.918,185.6,85.3,190.21l22.848,24.652.8-3.407Z" transform="translate(-34.377 -55.253)" fill="#002856"/>
            </g>
            <path id="Path_29997" data-name="Path 29997" d="M133.148,215.321,124.73,207.7l-8.819-2.2-5.411,8.217,31.867,10.622-1-3.407Z" transform="translate(-9.07 -35.268)" fill="#002856"/>
          </g>
          <g id="Group_2479" data-name="Group 2479" transform="translate(76.122 133.094)">
            <g id="Group_2477" data-name="Group 2477" transform="translate(92.596 6.41)">
              <path id="Path_29998" data-name="Path 29998" d="M146.225,302.008l-2.605.4L134.2,109.4l2.606-.4Z" transform="translate(-134.2 -109)" fill="#002856"/>
            </g>
            <rect id="Rectangle_815" data-name="Rectangle 815" width="114.242" height="4.61" transform="translate(114.773 4.61) rotate(180)" fill="#efebe9"/>
            <rect id="Rectangle_816" data-name="Rectangle 816" width="93.398" height="4.61" transform="translate(104.351 9.33) rotate(180)" fill="#546e7a"/>
            <g id="Group_2478" data-name="Group 2478" transform="translate(0 6.41)">
              <path id="Path_29999" data-name="Path 29999" d="M88,317.24l3.207.4L102.631,109.4l-3.006-.4Z" transform="translate(-88 -109)" fill="#546e7a"/>
              <path id="Path_30000" data-name="Path 30000" d="M153.031,317.24l-3.207.4L138.2,109.4l3.207-.4Z" transform="translate(-37.587 -109)" fill="#546e7a"/>
            </g>
          </g>
          <g id="Group_2490" data-name="Group 2490" transform="translate(0 17.817)">
            <g id="Group_2482" data-name="Group 2482" transform="translate(89.676 34.424)">
              <path id="Path_30001" data-name="Path 30001" d="M101.817,97.607h0c-.6-.2-7.215-3.006-7.015-3.608l12.226-28.46c.2-.6,6.013,2.405,6.614,2.806h0a1.1,1.1,0,0,1,.6,1.4L103.22,97.006A1.035,1.035,0,0,1,101.817,97.607Z" transform="translate(-94.727 -65.46)" fill="#546e7a"/>
              <path id="Path_30002" data-name="Path 30002" d="M95.439,94.9h0a1.1,1.1,0,0,1-.6-1.4l11.023-27.258a1.1,1.1,0,0,1,1.4-.6h0a1.1,1.1,0,0,1,.6,1.4L96.842,94.3C96.842,94.9,96.04,95.1,95.439,94.9Z" transform="translate(-94.762 -65.358)" fill="#78909c"/>
              <g id="Group_2481" data-name="Group 2481" transform="translate(13.625 4.61)">
                <path id="Path_30003" data-name="Path 30003" d="M103.443,69.844l-1.4-.6a.732.732,0,0,1-.4-1h0a.732.732,0,0,1,1-.4l1.4.6a.732.732,0,0,1,.4,1h0A.732.732,0,0,1,103.443,69.844Z" transform="translate(-101.561 -67.761)" fill="#78909c"/>
                <g id="Group_2480" data-name="Group 2480" transform="translate(0.396 0.079)">
                  <path id="Path_30004" data-name="Path 30004" d="M102.042,69.2h0a.384.384,0,0,1-.2-.6l.2-.6c0-.2.4-.2.4-.2h0c.2,0,.2.4.2.4l-.2.6C102.443,69.2,102.242,69.2,102.042,69.2Z" transform="translate(-101.759 -67.8)" fill="#cfd8dc"/>
                  <path id="Path_30005" data-name="Path 30005" d="M103.742,69.142a.763.763,0,1,1-.4-1A.732.732,0,0,1,103.742,69.142Z" transform="translate(-101.254 -67.538)" fill="#212121"/>
                </g>
              </g>
            </g>
            <g id="Group_2489" data-name="Group 2489">
              <g id="Group_2484" data-name="Group 2484" transform="translate(48.404 50.166)">
                <path id="Path_30006" data-name="Path 30006" d="M114.114,127.4a33.7,33.7,0,0,1-1-14.831c-2.606.2-9.62.6-10.422.4-.8-.4-9.821-35.074-13.829-39.283-2.405-2.2-14.03,6.013-14.631,8.618-1.2,5.011,16.234,47.9,17.036,48.3C92.268,131.007,109.905,129,114.114,127.4Z" transform="translate(-74.17 -73.315)" fill="url(#linear-gradient-11)"/>
                <path id="Path_30007" data-name="Path 30007" d="M94.117,94.406,119.37,91.4l1.4,4.209L95.119,109.438C95.119,109.238,91.311,97.212,94.117,94.406Z" transform="translate(-55.175 -55.153)" fill="url(#linear-gradient-12)"/>
                <g id="Group_2483" data-name="Group 2483" transform="translate(64.396 36.247)">
                  <path id="Path_30008" data-name="Path 30008" d="M106.3,91.4l14.431,5.211.4,2-10.422,1.2L107.5,95.609Z" transform="translate(-106.3 -91.4)" fill="url(#linear-gradient-13)"/>
                  <path id="Path_30009" data-name="Path 30009" d="M112.1,95.2l2.2,4.008-.8,4.008-.6-.4-.2-3.407L110.5,95.4Z" transform="translate(-102.082 -87.584)" fill="url(#linear-gradient-14)"/>
                  <path id="Path_30010" data-name="Path 30010" d="M112.9,94.9l2.806,3.407.2,4.209-.6-.4-1-3.207L111.3,95.5Z" transform="translate(-101.279 -87.885)" fill="url(#linear-gradient-15)"/>
                  <path id="Path_30011" data-name="Path 30011" d="M113.5,94.5l3.608,2.806,1,4.209-.8-.2-1.6-3.207L112.1,95.5Z" transform="translate(-100.475 -88.287)" fill="url(#linear-gradient-16)"/>
                  <path id="Path_30012" data-name="Path 30012" d="M114.2,94l3.407,2.806,1.2,4.008-.8-.2-1.6-3.006L112.8,94.8Z" transform="translate(-99.772 -88.789)" fill="url(#linear-gradient-17)"/>
                </g>
              </g>
              <path id="Path_30013" data-name="Path 30013" d="M83.251,63.7a11.121,11.121,0,0,0-4.409,1.2c-6.013,2.405-12.627,3.808-18.239,7.015-6.414,3.608-9.821,9.62-10.422,16.836a61.607,61.607,0,0,0,.6,13.629c.8,8.017,1.8,16.034,2.606,24.051.8,7.215,2.806,14.431,4.409,21.646s3.407,14.23,5.612,21.245c1,3.407,2,6.814,3.207,10.021.4,1,2.806,9.62,3.407,9.62,16.034.2,32.469-6.614,48.7-9.62-8.017-21.846-12.426-58.323-3.608-79.969,1.6-3.808,1-10.823-.6-14.631-.6-1.6-16.435-15.433-26.256-19.842A16.517,16.517,0,0,0,83.251,63.7Z" transform="translate(-50.019 -32.804)" fill="url(#linear-gradient-18)"/>
              <g id="Group_2485" data-name="Group 2485" transform="translate(1.64 44.284)">
                <path id="Path_30015" data-name="Path 30015" d="M113.075,79.5S90.027,92.528,77.4,100.545a30.164,30.164,0,0,0,5.812,13.228c15.433-12.426,34.473-28.26,34.473-28.26Z" transform="translate(-24.163 -61.222)" fill="url(#linear-gradient-19)"/>
                <path id="Path_30016" data-name="Path 30016" d="M95.857,115.515h0c-.8-1.8-23.85-37.479-29.061-41.889-3.006-2.606-7.416-4.209-11.023-2.606-2.806,1.2-4.409,4.409-4.81,7.215-.8,6.213,2.405,12.226,5.812,17.437,9.219,14.23,33.07,41.087,34.072,41.287.4.2,8.819-6.414,18.639-14.23a28.035,28.035,0,0,1-5.812-13.228C99.264,112.709,95.857,114.914,95.857,115.515Z" transform="translate(-50.838 -70.38)" fill="url(#linear-gradient-20)"/>
              </g>
              <g id="Group_2486" data-name="Group 2486" transform="translate(91.755 68.776)">
                <path id="Path_30017" data-name="Path 30017" d="M109.5,125.491h59.325l8.819-36.277a5.38,5.38,0,0,0-5.211-6.614h-48.5a5.356,5.356,0,0,0-5.211,4.008Z" transform="translate(-82.042 -82.6)" fill="#eeebd4"/>
                <path id="Path_30018" data-name="Path 30018" d="M110.8,125.491l9.42-38.882a5.356,5.356,0,0,1,5.211-4.008h48.5a4.721,4.721,0,0,1,4.209,2.2l-40.886,40.686Z" transform="translate(-80.736 -82.6)" fill="#d6d5ca"/>
                <path id="Path_30019" data-name="Path 30019" d="M164.886,83.6a5.566,5.566,0,0,1,.8,4.409l-8.819,36.277H124Z" transform="translate(-67.48 -81.596)" fill="#d4c4c1"/>
                <path id="Path_30020" data-name="Path 30020" d="M98.806,104h51.108l-3.006,3.006H95.8A2.952,2.952,0,0,1,98.806,104Z" transform="translate(-95.8 -61.109)" fill="#d6d5ca"/>
                <path id="Path_30021" data-name="Path 30021" d="M159.481,104a3.082,3.082,0,0,1-3.006,3.006H121.4L124.406,104Z" transform="translate(-70.092 -61.109)" fill="#d4c4c1"/>
                <path id="Path_30022" data-name="Path 30022" d="M95.8,106.906h26.857a3.082,3.082,0,0,0,3.006-3.006H98.806A3.232,3.232,0,0,0,95.8,106.906Z" transform="translate(-95.8 -61.21)" fill="#eeebd4"/>
              </g>
              <g id="Group_2488" data-name="Group 2488" transform="translate(29.022)">
                <g id="Group_2487" data-name="Group 2487">
                  <path id="Path_30023" data-name="Path 30023" d="M99.975,48.516c2,1,2.606,3.608,2.2,5.612-.2,2.2-1.2,4.209-1.6,6.414s-.2,4.61,1.6,6.013c.8.6,2,1.2,2,2.2,0,1.4-2,1.6-3.207,2.405-1.8,1-2.2,3.608-2.2,5.812-.2,2.2-.6,4.81-2.405,5.612-2.606,1.2-5.211-1.4-7.817-2-2.405-.6-5.211.4-7.215,2s-7.015,11.224-8.418,13.428C68.508,95.615,64.5,89,64.5,82.387L77.528,66.554A4.1,4.1,0,0,1,74.12,59.94c1-1.2,5.612-2.606,5.612,2.606a18.707,18.707,0,0,0,4.409-7.015C86.747,46.311,99.975,48.516,99.975,48.516Z" transform="translate(-64.5 -48.285)" fill="url(#linear-gradient-21)"/>
                </g>
              </g>
            </g>
            <path id="Path_30024" data-name="Path 30024" d="M112.454,71.2c-2.806.2-7.215.8-9.219,3.006-.2.2-.6.4-.8.6-1,1-1.6,2.2-2.806,2.806-.4.2-.6.2-1,.4a15.169,15.169,0,0,0-.2-3.006,1.2,1.2,0,0,0-.2-.8c-.2-.2-.4-.4-.6-.2-.2,0-.2.2-.4.4-.8,2.2-1.8,4.409-2.606,6.614h0a1.807,1.807,0,0,0-.2,1,15.155,15.155,0,0,0,0,5.211l1.6,5.411a3.293,3.293,0,0,0,3.207,1.4,17.056,17.056,0,0,0,3.407-1.2,18.667,18.667,0,0,0,5.211-3.608,6.508,6.508,0,0,0,2-3.608h.4a1.434,1.434,0,0,0,1.8-1c.2-.8-.2-1.8-1-1.8-.4,0-1-.2-1.4,0v-.2h.2a1.459,1.459,0,0,0,.8-2.806,4.886,4.886,0,0,0-2.405,0c0-.2-.2-.2-.2-.4a9.758,9.758,0,0,1,2.405-.2,1.5,1.5,0,0,0,0-3.006,19.747,19.747,0,0,0-3.407.4,1.205,1.205,0,0,0-.2-.8,8.17,8.17,0,0,1,1.4-.4,31.118,31.118,0,0,1,4.209-.8C114.458,74.011,114.458,71,112.454,71.2Z" transform="translate(-5.667 -25.277)" fill="url(#linear-gradient-22)"/>
          </g>
        </g>
        <g id="Group_2502" data-name="Group 2502" transform="translate(127.03)">
          <g id="Group_2495" data-name="Group 2495" transform="translate(3.207 6.091)">
            <g id="Group_2492" data-name="Group 2492" transform="translate(6.614)">
              <path id="Path_30025" data-name="Path 30025" d="M198.269,103.613v-.4L187.446,47.895,165,41.882,148.965,84.172,118.3,29.055l46.3,12.226L179.028,3l8.618,44.494,50.707,13.428-.2.4ZM187.847,48.1l10.622,54.515,39.083-41.488L187.847,48.1ZM119.3,29.857l29.462,53.112L164.4,41.682ZM165,41.481l22.247,5.812L179.028,4.8Z" transform="translate(-118.3 -3)" fill="#809ead"/>
            </g>
            <g id="Group_2493" data-name="Group 2493" transform="translate(0 0.802)">
              <path id="Path_30026" data-name="Path 30026" d="M182.543,3.4h0L122.015,28.854l-.4.2,75.76,54.114L178.334,93.19,151.878,82.768,115,134.878l63.334-41.287,22.848,9.019-7.616,48.9h.6l7.616-49.1v-.2l-22.648-8.618,19.241-10.222-75.76-54.114L182.142,4l58.925,56.72.4-.4ZM116.4,133.876,152.279,83.57l25.654,10.021Z" transform="translate(-115 -3.4)" fill="#809ead"/>
            </g>
            <g id="Group_2494" data-name="Group 2494" transform="translate(0.601 26.055)">
              <path id="Path_30027" data-name="Path 30027" d="M193.465,139.261l-38.281-46.1L116.3,76.528l-1,.2.8-.6L121.513,16l53.513,24.051L210.5,18.405l.2.4L175.628,40.251,227.136,63.5,117.1,76.328l38.281,16.234h0l38.281,46.1ZM175.227,40.652,117.5,75.927,225.533,63.3ZM122.114,16.8,116.7,75.927l58.123-35.475Z" transform="translate(-115.3 -16)" fill="#809ead"/>
            </g>
          </g>
          <path id="Path_30028" data-name="Path 30028" d="M204.188,51.15V27.3H183.545V47.743a6.521,6.521,0,0,0-4.409-.8c-3.006.6-5.011,2.806-4.61,5.211s3.207,3.808,6.213,3.407c2.605-.4,4.409-2.2,4.61-4.008h0V33.313h17.036V47.743a6.521,6.521,0,0,0-4.409-.8c-3.006.6-5.011,2.806-4.61,5.211s3.207,3.808,6.213,3.407c2.606-.4,4.409-2.2,4.61-4.008h0v-.4Z" transform="translate(-52.067 27.494)" fill="#008da7"/>
          <g id="Group_2496" data-name="Group 2496" transform="translate(81.172 87.864)">
            <path id="Path_30029" data-name="Path 30029" d="M162.117,43.8a8.254,8.254,0,0,0-8.217,8.217c0,4.409,8.217,17.838,8.217,17.838s8.217-13.228,8.217-17.838A8.254,8.254,0,0,0,162.117,43.8Zm0,14.631a6.414,6.414,0,1,1,6.414-6.414A6.458,6.458,0,0,1,162.117,58.431Z" transform="translate(-153.9 -43.8)" fill="#008da7"/>
          </g>
          <path id="Path_30030" data-name="Path 30030" d="M164.156,31.119h0c-.4,0-.6-.4-.8-.8A12.4,12.4,0,0,0,151.931,22.3,12.147,12.147,0,0,0,139.7,34.526v1a.736.736,0,0,1-.2.6,8.013,8.013,0,0,0-2,5.211v.8c0,.4.4,1,.8,1h33.872c.4,0,.8-.6.8-1a6.179,6.179,0,0,0,.2-2A8.739,8.739,0,0,0,164.156,31.119Z" transform="translate(-89.198 22.473)" fill="#008da7"/>
          <g id="Group_2497" data-name="Group 2497" transform="translate(0 26.735)">
            <path id="circle_2_" d="M119.814,25.107a3.207,3.207,0,1,1-3.207-3.207A3.166,3.166,0,0,1,119.814,25.107Z" transform="translate(-113.4 -4.664)" fill="#008da7"/>
            <path id="Path_30031" data-name="Path 30031" d="M128.933,32.733h-4.209a10.463,10.463,0,0,0-3.407-7.817,12.181,12.181,0,0,0-7.817-3.407V17.3a15.842,15.842,0,0,1,15.433,15.433Z" transform="translate(-113.3 -9.283)" fill="#008da7"/>
            <path id="Path_30032" data-name="Path 30032" d="M136.95,36.75h-4.209A19.375,19.375,0,0,0,113.5,17.509V13.3a23.609,23.609,0,0,1,23.45,23.45Z" transform="translate(-113.3 -13.3)" fill="#008da7"/>
          </g>
          <path id="Path_30033" data-name="Path 30033" d="M168.669,3.246h0c0-.4-.2-.6-.2-.8a1.52,1.52,0,0,0-.4-.8,4.364,4.364,0,0,0-1.6-1,9.362,9.362,0,0,0-3.407-.6c-.2,0-.8.4-1,.4h-2.2v.4a4.244,4.244,0,0,1-1.4.6h-1.4a2.849,2.849,0,0,1-1.2-.4.7.7,0,0,1-.2-.4V.44h-2.2c-.2,0-.6-.4-1-.4a6.433,6.433,0,0,0-3.407.4,4.364,4.364,0,0,0-1.6,1,1.041,1.041,0,0,0-.4.8v.4a17.36,17.36,0,0,0-1.8,11.023,3.777,3.777,0,0,0,.8,1.8,1.9,1.9,0,0,0,2.2,1.2c1.4-.2,4.61-3.808,4.61-3.808a1.428,1.428,0,0,1,1.2-.6h8.017a1.429,1.429,0,0,1,1.2.6s3.207,3.808,4.61,3.808c1.4.2,2.2-.8,2.405-2.2C170.673,14.67,172.076,8.658,168.669,3.246Z" transform="translate(-81.685 0.039)" fill="#008da7"/>
          <g id="Group_2501" data-name="Group 2501" transform="translate(91.154 27.537)">
            <g id="Group_2500" data-name="Group 2500">
              <g id="Group_2498" data-name="Group 2498" transform="translate(1.642 10.222)">
                <path id="Path_30034" data-name="Path 30034" d="M173.93,18.8h0v5.411a.4.4,0,1,1-.8,0V19h-1.4v5.211a.4.4,0,1,1-.8,0V19h-1.4v5.211a.4.4,0,1,1-.8,0V19h-1.4v5.211a.4.4,0,1,1-.8,0V19h-1.4v5.211a.4.4,0,0,1-.8,0V19h-1.4v5.211a.4.4,0,0,1-.8,0V19H159.7l1.4,5.812a1.1,1.1,0,0,0,1.2.8h12.426a1.353,1.353,0,0,0,1.2-.8l1.4-5.812H173.93Z" transform="translate(-159.7 -18.8)" fill="#008da7"/>
              </g>
              <path id="Path_30035" data-name="Path 30035" d="M177.96,19.5a1.128,1.128,0,0,0-1.2-1.4H160.122a1.2,1.2,0,0,0-1.2,1.4v.2l19.04-.2Z" transform="translate(-158.881 -9.281)" fill="#008da7"/>
              <g id="Group_2499" data-name="Group 2499" transform="translate(3.847)">
                <path id="Path_30036" data-name="Path 30036" d="M172.024,23.32h0l-4.61-8.618c-.2-.4-.4-.4-.8-.4a1.041,1.041,0,0,0-.8.4L161.2,23.32h0l-.4-.2h0l4.61-8.618a1.648,1.648,0,0,1,1.2-.8,1.1,1.1,0,0,1,1,.6l4.61,8.618h0Z" transform="translate(-160.8 -13.7)" fill="#008da7"/>
              </g>
            </g>
          </g>
          <path id="Path_30037" data-name="Path 30037" d="M129.031,58.942a3.386,3.386,0,0,0-2,.6l-5.411-5.011a5.852,5.852,0,0,0,.4-1.8,5.852,5.852,0,0,0-.4-1.8l5.411-5.011a3.386,3.386,0,0,0,2,.6,3.808,3.808,0,1,0-3.808-3.808,5.852,5.852,0,0,0,.4,1.8l-5.411,5.011a3.386,3.386,0,0,0-2-.6,3.808,3.808,0,1,0,0,7.616,3.386,3.386,0,0,0,2-.6l5.411,5.011a5.852,5.852,0,0,0-.4,1.8,3.808,3.808,0,1,0,3.808-3.808Z" transform="translate(-112.396 39.143)" fill="#008da7"/>
        </g>
      </g>
    </g>
  </g>
</svg>
