<svg xmlns="http://www.w3.org/2000/svg" width="123.155" height="120" viewBox="0 0 123.155 120">
  <g id="_003-analysis-1" data-name="003-analysis-1" transform="translate(0 -6.558)">
    <path id="Path_10208" data-name="Path 10208" d="M150.8,95.088a6.021,6.021,0,1,0-4.8-2.4l-9.88,13.807a6,6,0,0,0-5.966,1.314l-6.585-3.737a6.013,6.013,0,1,0-11.757,0l-6.586,3.737a6,6,0,1,0,1.785,3.136l6.586-3.737a6,6,0,0,0,8.187,0l6.586,3.737a6.014,6.014,0,1,0,10.683-2.347l9.88-13.807A6,6,0,0,0,150.8,95.088Zm0-8.419a2.405,2.405,0,1,1-2.405,2.406A2.408,2.408,0,0,1,150.8,86.669Zm-49.673,27.943a2.406,2.406,0,1,1,2.405-2.406A2.408,2.408,0,0,1,101.131,114.612Zm16.557-9.4a2.406,2.406,0,1,1,2.405-2.406A2.408,2.408,0,0,1,117.688,105.211Zm16.558,9.4a2.406,2.406,0,1,1,2.406-2.406A2.408,2.408,0,0,1,134.246,114.612Z" transform="translate(-72.239 -58.101)" fill="#fff"/>
    <path id="Path_10209" data-name="Path 10209" d="M100.736,121.14H5.1a1.5,1.5,0,0,1-1.495-1.495V45.219A1.5,1.5,0,0,1,5.1,43.724h8.5a1.8,1.8,0,1,0,0-3.608H5.1a5.109,5.109,0,0,0-5.1,5.1v74.426a5.109,5.109,0,0,0,5.1,5.1H17.542v3.97a4.107,4.107,0,0,0,4.1,4.1H39.7l-8.5,16.6a1.8,1.8,0,1,0,3.211,1.645l9.343-18.241H63.7l9.343,18.241a1.8,1.8,0,1,0,3.211-1.645l-8.5-16.6H85.813a4.106,4.106,0,0,0,4.1-4.1v-3.97h10.821a1.8,1.8,0,1,0,0-3.608Zm-14.429,7.578a.494.494,0,0,1-.494.494H21.644a.494.494,0,0,1-.494-.494v-3.97H86.307Z" transform="translate(0 -25.486)" fill="#fff"/>
    <path id="Path_10210" data-name="Path 10210" d="M80.875,18.238H162.4a1.5,1.5,0,0,1,1.495,1.495V36.886a1.8,1.8,0,0,0,3.608,0V19.733a5.109,5.109,0,0,0-5.1-5.1H123.792V11.084a4.531,4.531,0,0,0-4.526-4.526H108.294a4.531,4.531,0,0,0-4.526,4.526V14.63H80.875a1.8,1.8,0,1,0,0,3.608Zm26.5-7.154a.919.919,0,0,1,.918-.918h10.973a.919.919,0,0,1,.918.918V14.63H107.376V11.084Z" transform="translate(-60.052 0)" fill="#fff"/>
    <path id="Path_10211" data-name="Path 10211" d="M99.206,267.576a1.8,1.8,0,0,0-1.8,1.8v15.941a1.8,1.8,0,0,0,1.8,1.8h7.319a1.8,1.8,0,0,0,1.8-1.8V269.38a1.8,1.8,0,0,0-1.8-1.8Zm5.515,15.941H101.01V271.184h3.711Z" transform="translate(-73.973 -198.234)" fill="#fff"/>
    <path id="Path_10212" data-name="Path 10212" d="M168.041,229.248a1.8,1.8,0,0,0-1.8,1.8v25.161a1.8,1.8,0,0,0,1.8,1.8h7.319a1.8,1.8,0,0,0,1.8-1.8V231.052a1.8,1.8,0,0,0-1.8-1.8Zm5.515,25.161h-3.711V232.856h3.711Z" transform="translate(-126.251 -169.125)" fill="#fff"/>
    <path id="Path_10213" data-name="Path 10213" d="M236.877,267.576a1.8,1.8,0,0,0-1.8,1.8v15.941a1.8,1.8,0,0,0,1.8,1.8H244.2a1.8,1.8,0,0,0,1.8-1.8V269.38a1.8,1.8,0,0,0-1.8-1.8Zm5.515,15.941h-3.71V271.184h3.71Z" transform="translate(-178.529 -198.234)" fill="#fff"/>
    <path id="Path_10214" data-name="Path 10214" d="M305.713,311.832a1.8,1.8,0,0,0-1.8,1.8v5.3a1.8,1.8,0,0,0,1.8,1.8h7.319a1.8,1.8,0,0,0,0-3.608h-5.515v-3.492A1.8,1.8,0,0,0,305.713,311.832Z" transform="translate(-230.808 -231.845)" fill="#fff"/>
    <path id="Path_10215" data-name="Path 10215" d="M346.681,202.094l-10.35-17.926A23.591,23.591,0,1,0,313,190.825a23.706,23.706,0,0,0,6.141.813,23.3,23.3,0,0,0,5.31-.613L334.8,208.951a6.858,6.858,0,1,0,11.878-6.858Zm-32.743-14.754a19.972,19.972,0,1,1,15.154-2A19.842,19.842,0,0,1,313.938,187.339Zm28.43,21a3.254,3.254,0,0,1-4.44-1.188L327.973,189.9a23.72,23.72,0,0,0,5.625-3.251l9.958,17.248a3.246,3.246,0,0,1-1.188,4.439Z" transform="translate(-224.447 -104.743)" fill="#fff"/>
    <path id="Path_10216" data-name="Path 10216" d="M355.793,193.46a17.074,17.074,0,0,0-.854-12.367,1.8,1.8,0,1,0-3.264,1.537A13.513,13.513,0,1,1,347.6,177.6a1.8,1.8,0,1,0,2.177-2.877,17.132,17.132,0,1,0,6.015,18.74Z" transform="translate(-244.775 -125.071)" fill="#fff"/>
  </g>
</svg>
