<svg xmlns="http://www.w3.org/2000/svg" xmlns:xlink="http://www.w3.org/1999/xlink" width="421.655" height="361.088" viewBox="0 0 421.655 361.088">
  <defs>
    <clipPath id="clip-path">
      <path id="Path_29707" data-name="Path 29707" d="M295.923,286.875s-1.088-28.662-3.023-44.142a40.873,40.873,0,0,0,10.28.242A22.08,22.08,0,0,0,311.4,240.8c1.088-.6,2.54-1.209,8.345-12.336a5.647,5.647,0,0,0,.6-1.209l-1.572-1.088a3.624,3.624,0,0,1,.484-1.209v-.121c.363-1.089.6-1.935.847-2.54a17.683,17.683,0,0,1,1.088-2.54c.363-.847,3.991-.847,5.442-1.935,1.572-.967,1.33-3.628.726-5.321,0-.121-.121-.242-.121-.363a3.678,3.678,0,0,0,.847-.6c2.177-1.451,3.87-4.958.726-2.54a25.4,25.4,0,0,1-3.628,2.3,6.8,6.8,0,0,0-2.177.847c-.847.6-4.837,3.386-5.926,7.014-.484,1.088-1.088,2.3-1.693,3.386l-.363.726h0l-.484-.363a11.193,11.193,0,0,0-.6,1.209c-3.991,7.74-5.8,9.312-6.168,9.554-3.023,1.451-10.159.847-15.964-.363a23.84,23.84,0,0,0-3.023-.726h-8.224a7.13,7.13,0,0,1-.363-3.144c7.982,1.572,10.28-7.377,10.28-13.545a12.684,12.684,0,0,0-1.935-6.773c3.023-2.3,2.419-7.619,2.419-7.619s-.242,1.935-4.6-.121c-8.345-3.749-16.81-1.814-19.108,0-2.3,1.693-2.54,3.507-1.935,4.958-1.814,1.693-3.023,3.87-3.023,5.563,0,6.047,3.144,12.215,7.135,13.908a11.056,11.056,0,0,0,2.9,2.419,17.563,17.563,0,0,0,.242,4.354h-7.014a2.728,2.728,0,0,0-2.661,2.177h0s-2.661,12.457-4.233,20.439c-.363-.484-.847-.968-1.33-1.572-.242-.363-.6-.726-.967-1.209l-.484.363c0-.121-.121-.121-.121-.242-.121-.242-.363-.363-.484-.6-1.451-1.814-2.782-3.628-4.112-5.442l-.121-.121-.242-.242-.242-.242-.242-.242c-.121,0-.121-.121-.242-.121a.422.422,0,0,1-.242-.121c-.121,0-.121-.121-.242-.121a.444.444,0,0,1-.363-.121h-1.209a.444.444,0,0,0-.363.121c-.121,0-.242,0-.242.121-.121,0-.242.121-.363.121a.118.118,0,0,0-.121.121,25.841,25.841,0,0,1-3.265,1.088,6.649,6.649,0,0,0-4.354,3.507c-.726,1.693,1.572,1.935,3.386,1.935,1.33,0,4.837-1.935,5.926-2.3,1.209,1.693,2.177,3.144,3.144,4.6a2.124,2.124,0,0,0,.484.6c.121.242.242.363.363.6l-2.177,1.814a10.578,10.578,0,0,0,.967,1.209c4.717,5.805,7.135,7.74,9.554,7.74h0a3.346,3.346,0,0,0,1.088-.121,3.621,3.621,0,0,0,1.209-.484,4.249,4.249,0,0,0,2.056-2.9c0-.242.121-.484.121-.847.242-.967.484-2.177.847-3.749,1.33,10.763,3.265,13.061,1.814,28.541m-.363,0-.363,2.54h-.6v.6h.484a44.356,44.356,0,0,0,.967,15.238c.242,5.079,1.088,27.574.363,37.733-.847,10.763-1.572,40.514-1.693,40.877h1.209l-.121,1.33h-.242c-.726-.121-.847.363-1.088.967-1.088,1.814-2.056,5.684,0,5.684,4.233,0,3.386-.242,5.079-.121,1.088,0,2.3.121,6.047.121h.6c4.112,0,4.717-.242,6.41-.242s4.475.242,8.224.242,3.628-1.33.967-1.693a25.407,25.407,0,0,1-8.949-4.112l-.726-.363.484-1.451h.726c1.33-3.628,12.215-32.532,11.973-45.835-.242-10.159-1.209-31.444-1.451-34.951a119.3,119.3,0,0,0-.121-16.81M280.564,385.2h-.242a1.748,1.748,0,0,0-1.693.726,12.508,12.508,0,0,0-1.451,3.144,40.858,40.858,0,0,1-4.354-3.023c-.242-.242-.484-.242-.847-.363l.363-1.935h.967c0-.363,5.805-29.267,6.652-40.03.726-9.191,1.33-27.453,1.572-35.556,1.572,7.135,4.717,22.494,4.837,30.476.121,9.433-.6,17.294-6.893,45.11l1.33.121Z" transform="translate(-239.186 -199.226)"/>
    </clipPath>
    <clipPath id="clip-path-2">
      <path id="Path_29733" data-name="Path 29733" d="M425.158,260.206c0-2.54-2.661-7.861-6.168-13.3-.121-.242-.363-.6-.484-.847l.726-.484-.6-.967-1.693-2.782c-2.54-3.991-4.475-7.135-4.6-7.256a4.168,4.168,0,0,0-3.386-1.935h-8.224a19.893,19.893,0,0,0,.242-4.6c2.782-1.451,4.838-4.838,5.8-7.861.242-.121.363-.121.6-.242a4.251,4.251,0,0,0,1.572-3.265,4.56,4.56,0,0,0-.847-2.54,8.6,8.6,0,0,0-.121-1.935c-.484-2.419-1.814-7.5-5.2-8.949.847-3.386-5.926-2.9-10.884-2.177-2.056.242-1.451-.968-1.451-.968a23.751,23.751,0,0,0-5.442,2.177c-.6-.363-.726-1.451-.726-1.451a2.92,2.92,0,0,0-1.088,2.419,4.357,4.357,0,0,0,2.419,3.991,15.442,15.442,0,0,0-2.9,5.805,1.951,1.951,0,0,0-1.088.363,4.251,4.251,0,0,0-1.572,3.265,4.071,4.071,0,0,0,1.572,3.265,1.365,1.365,0,0,0,1.33.363c1.088,3.386,4.717,8.708,10.038,9.07a8.731,8.731,0,0,1-.484,3.386h-8.224a2.392,2.392,0,0,0-1.33.242,4.215,4.215,0,0,0-2.9,3.265c0,.121-.847,3.749-1.814,8.466l-.6,3.265-.242,1.088.6.121c-.121.363-.121.6-.242.968-1.572,7.377-3.265,15.48-3.749,18.745-.968,6.893-11.731,12.336-15.722,13.908-.121,0-.121,0-.121.121-.121,0-.242.121-.363.242s-.242.121-.363.242a.422.422,0,0,1-.242.121h0c-.847.847-4.233,4.233-3.87,8.345.121,1.451.242,2.056,1.209,2.419-9.191.242-12.819,1.33-14.875,5.079-.967,1.814-1.693,4.958.847,8.949,3.991,6.168,13.666,14.392,21.406,20.439a97.148,97.148,0,0,0,3.023,12.819,3.672,3.672,0,0,1-.847.6c-2.177,1.451-1.814,2.661,1.33,1.209,2.177,7.014,4.958,14.271,7.5,20.8-.121,2.177-1.209,6.531-3.628,8.1-2.3,1.451-1.572,2.54,1.935,1.088,3.023-1.33,4.717-4.717,5.926-5.926a56.352,56.352,0,0,0,4.475-4.6c2.177-2.3-2.3-3.507-4.354-3.87h0a167.217,167.217,0,0,1-3.749-19.713,44.353,44.353,0,0,0,5.321-2.3c2.781-1.33-.847-4.112-2.661-5.321h-.121l.121-.242a44.1,44.1,0,0,1-3.87-3.507c-.121-3.628-.121-6.652.363-8.345,1.693-7.377,12.94-11.973,21.043-14.15h10.4s2.661-4.958,1.693-14.513h.242v-.6h-.242c-.121-.967-.242-2.056-.484-3.144h0c-.121-1.209-.121-2.661-.121-4.233a8.951,8.951,0,0,0,3.144,1.814,3.531,3.531,0,0,0,1.088.242c1.33,0,2.056-2.056,2.54-3.507.6-1.693-1.814-3.386-3.628-3.991h-.121C418.022,269.639,425.158,263.955,425.158,260.206Zm-64.7,31.807c0-.484-.968-4.838-.121-5.684,7.014-2.9,13.787-4.717,17.536-9.675-.363,5.926-.484,10.038-.484,10.038h0s-.121,3.023-.121,7.256H359.972A2.666,2.666,0,0,0,360.456,292.013Zm-7.982,13.3c3.991-.242,9.917-.121,16.206-.121a23.2,23.2,0,0,0-6.773,11.005C358.4,312.33,355.014,308.339,352.474,305.316Zm53.334-32.048c.6-8.829,1.935-19.229,3.144-27.453a5.26,5.26,0,0,1,.484.847l1.693,2.782.6.967.968-.6c.242.484.6.847.847,1.33,2.54,3.991,4.475,7.377,4.838,8.829C417.3,261.9,411.492,267.825,405.808,273.267Z" transform="translate(-338.762 -200.1)"/>
    </clipPath>
  </defs>
  <g id="Group_3152" data-name="Group 3152" transform="translate(-821.345 -882.567)">
    <path id="Path_29664" data-name="Path 29664" d="M431.6,306.019c11.387-26.543,13.815-65.058,28.3-75.106,18.923-13.229,33.911,3.182,75.609-4.019,15.741-2.679,38.1-6.531,52.918-21.268,32.069-31.9,24.282-110.775-15.741-143.514-28.468-23.277-48.731-3.182-120.572-17.5C373.328,28.955,364.2-1.857,306.343-.015c-15.993.5-72.929,2.344-102.067,45.214-28.468,41.781-20.43,108.012,9.713,126.768C242.29,189.55,279.8,158.9,308.1,183.354c2.009,1.758,15.49,13.732,17.751,31.818,1.256,10.466-.084,17.667-4.773,26.71-31.4,60.035-10.885,95.62,16.411,111.278C364.7,368.984,406.569,364.379,431.6,306.019Z" transform="translate(634.689 882.661)" fill="#fff3e1" opacity="0.511"/>
    <path id="Path_29666" data-name="Path 29666" d="M217.3,313.579c0,34.588,25.4,51.64,58.534,51.64s63.009-24.309,63.009-59.018c0-34.588-37.128-66.516-68.935-57.325C234.836,259.036,217.3,278.99,217.3,313.579Z" transform="translate(641.105 773.998)" fill="#fff3e1"/>
    <path id="Path_29667" data-name="Path 29667" d="M317.162,176.722c-4.717,0-7.014-5.2-9.312-10.28s-4.475-9.917-8.708-9.917-6.41,4.838-8.708,9.917-4.6,10.28-9.312,10.28-7.014-5.2-9.312-10.28-4.475-9.917-8.708-9.917-6.41,4.838-8.708,9.917-4.6,10.28-9.312,10.28-7.014-5.2-9.312-10.28-4.475-9.917-8.707-9.917a.363.363,0,1,1,0-.726c4.717,0,7.014,5.2,9.312,10.28S240.85,176,245.083,176s6.41-4.837,8.708-9.917,4.6-10.28,9.312-10.28,7.014,5.2,9.312,10.28S276.889,176,281.122,176s6.41-4.837,8.708-9.917,4.6-10.28,9.312-10.28,7.014,5.2,9.312,10.28S312.929,176,317.162,176a.321.321,0,0,1,.363.363A.386.386,0,0,1,317.162,176.722Z" transform="translate(643.074 754.844)" fill="#fca286" opacity="0.3"/>
    <g id="Group_2341" data-name="Group 2341" transform="translate(835.1 1003.887)">
      <path id="Path_29668" data-name="Path 29668" d="M200.534,281.033a35.974,35.974,0,0,1,7.861-38.458,35.051,35.051,0,0,1,17.657-9.675l3.749,17.294a17.9,17.9,0,0,0-14.029,17.536,17.641,17.641,0,0,0,1.33,6.652Z" transform="translate(-198.029 -232.9)" fill="#ffc550"/>
      <path id="Path_29669" data-name="Path 29669" d="M255.8,294.525a35.029,35.029,0,0,1-16.81,9.433,33.078,33.078,0,0,1-8.466.967,32.571,32.571,0,0,1-4.837-.363A35.084,35.084,0,0,1,205.247,294.4l-.847-.847,12.94-12.094a17.884,17.884,0,0,0,30.96-12.215,18.092,18.092,0,0,0-9.917-16.085l7.861-15.964a33.913,33.913,0,0,1,9.433,6.773A35.73,35.73,0,0,1,255.8,294.525Z" transform="translate(-196.695 -232)" fill="#f25f46"/>
      <path id="Path_29670" data-name="Path 29670" d="M243.141,237.928l-7.861,15.964a17.454,17.454,0,0,0-7.861-1.814,20.957,20.957,0,0,0-3.87.363L219.8,235.147a22.334,22.334,0,0,1,2.782-.484,32.567,32.567,0,0,1,4.838-.363,35.357,35.357,0,0,1,10.038,1.451A25.037,25.037,0,0,1,243.141,237.928Z" transform="translate(-193.471 -232.607)" fill="#f7882d"/>
      <path id="Path_29671" data-name="Path 29671" d="M205.735,289.657a37.9,37.9,0,0,1-7.135-11.126L215.169,272a18.876,18.876,0,0,0,3.507,5.563Z" transform="translate(-197.91 -224.713)" fill="#d1d9fe"/>
    </g>
    <g id="Group_2342" data-name="Group 2342" transform="translate(892.739 921.559)">
      <path id="Path_29672" data-name="Path 29672" d="M419.732,251.265a348.7,348.7,0,0,0-151.656,0,5.5,5.5,0,0,1-6.531-3.991c-5.2-21.89-10.522-43.659-15.722-65.548-.726-2.9,1.572-5.805,5.2-6.652a425.963,425.963,0,0,1,185.761,0c3.507.847,5.926,3.749,5.2,6.652-5.2,21.89-10.522,43.659-15.722,65.548a5.5,5.5,0,0,1-6.531,3.991" transform="translate(-245.689 -164.825)" fill="#ffdea9"/>
      <path id="Path_29673" data-name="Path 29673" d="M265.034,242.352c-4.475-20.076-8.949-40.03-13.424-60.106-.363-1.572.967-3.265,2.9-3.628a421.237,421.237,0,0,1,176.448,0c1.935.363,3.265,2.056,2.9,3.628-4.475,20.076-8.949,40.03-13.424,60.106a3.159,3.159,0,0,1-3.628,2.3,351.614,351.614,0,0,0-148.149,0,3.158,3.158,0,0,1-3.628-2.3" transform="translate(-244.462 -163.893)" fill="#fff"/>
      <path id="Path_29674" data-name="Path 29674" d="M340.944,181.2c-.6,16.206-1.33,32.411-1.935,48.5H337.8c.6-16.206,1.209-32.411,1.814-48.5h1.33" transform="translate(-226.403 -161.396)" fill="#f25f46"/>
      <path id="Path_29675" data-name="Path 29675" d="M267.83,209.2c1.33,7.014,2.661,13.908,3.991,20.922-.363.121-.847.121-1.209.242-1.33-7.014-2.782-13.908-4.112-20.922A5.143,5.143,0,0,0,267.83,209.2Z" transform="translate(-241.332 -155.534)" fill="#e2ebf4"/>
      <path id="Path_29676" data-name="Path 29676" d="M292.13,209.6c.6,5.442,1.209,10.884,1.814,16.206-.363,0-.847.121-1.209.121-.6-5.442-1.33-10.884-1.935-16.206.484,0,.847-.121,1.33-.121" transform="translate(-236.244 -155.45)" fill="#e2ebf4"/>
      <path id="Path_29677" data-name="Path 29677" d="M315.23,193c.363,11.368.847,22.857,1.209,34.225H315.23c-.484-11.368-.967-22.857-1.33-34.225A2.473,2.473,0,0,0,315.23,193Z" transform="translate(-231.408 -158.926)" fill="#e2ebf4"/>
      <path id="Path_29678" data-name="Path 29678" d="M366.205,191.021c-1.572,12.94-3.023,25.881-4.6,38.942-.363,0-.847-.121-1.209-.121,1.451-12.94,2.9-26,4.475-38.942A5.424,5.424,0,0,1,366.205,191.021Z" transform="translate(-221.671 -159.365)" fill="#e2ebf4"/>
      <path id="Path_29679" data-name="Path 29679" d="M389.189,205.263c-1.693,8.587-3.386,17.294-5.079,25.881-.363-.121-.847-.121-1.209-.242,1.693-8.708,3.386-17.294,4.958-26a2.757,2.757,0,0,0,1.33.363" transform="translate(-216.96 -156.434)" fill="#e2ebf4"/>
      <path id="Path_29680" data-name="Path 29680" d="M411.654,222.723a.444.444,0,0,1-.121.363.444.444,0,0,0,.121-.363h0M265.2,193.214a16.523,16.523,0,0,0-2.3.242c.121.363.121.847.242,1.209a12.062,12.062,0,0,1,1.935-.242c6.168,0,10.522,5.805,15,11.973,4.6,6.41,9.191,13.182,15.964,13.182a4.114,4.114,0,0,0,1.209-.121c0-.363-.121-.847-.121-1.209-.363,0-.726.121-1.089.121-6.047,0-10.159-6.168-14.754-12.578-4.475-6.168-9.191-12.578-16.085-12.578M385.289,188.5c-7.377,0-11.852,7.014-15.843,13.787-4.233,7.014-7.861,13.666-14.271,13.787v1.209c7.135-.121,11.247-7.377,15.48-14.392,4.112-6.773,8.224-13.182,14.754-13.182a4.114,4.114,0,0,1,1.209.121c7.256.847,9.917,8.466,12.457,16.448,2.419,7.619,4.717,15.359,11.126,17.415.121-.363.121-.847.242-1.209-5.684-1.935-7.74-9.07-10.038-16.568-2.54-7.982-5.442-16.327-13.666-17.294a6.391,6.391,0,0,0-1.451-.121m-60.227-2.3h-.484c-8.224.363-11.852,8.466-14.875,16.206-2.9,7.256-5.563,14.15-11.368,15.722,0,.363.121.847.121,1.209,6.652-1.572,9.433-9.191,12.457-16.568,3.144-7.74,6.41-15.117,13.666-15.48h.363c7.014,0,10.763,7.014,14.513,14.271,3.628,7.377,7.135,14.875,14.271,15.6v-1.209c-6.289-.726-9.433-7.5-13.061-14.875-3.507-7.256-7.619-14.875-15.6-14.875" transform="translate(-242.086 -160.35)" fill="#e7eafe"/>
      <path id="Path_29681" data-name="Path 29681" d="M338.1,210.9v1.209h1.33V210.9H338.1" transform="translate(-226.341 -155.178)" fill="#dd7a7d"/>
      <path id="Path_29682" data-name="Path 29682" d="M292.409,212.6c-.363.121-.847.121-1.209.242h0c0,.363.121.847.121,1.209h0a3.578,3.578,0,0,0,1.209-.242,3.73,3.73,0,0,0-.121-1.209" transform="translate(-236.161 -154.822)" fill="#d2dcf7"/>
      <path id="Path_29683" data-name="Path 29683" d="M384.942,216.1c-.121.363-.121.847-.242,1.209.363.121.847.242,1.209.363,0-.242.121-.6.121-.847a.444.444,0,0,1,.121-.363,2.334,2.334,0,0,1-1.209-.363" transform="translate(-216.584 -154.089)" fill="#d2dcf7"/>
      <path id="Path_29684" data-name="Path 29684" d="M264.536,180.94A1.859,1.859,0,0,1,263.085,183a1.9,1.9,0,0,1-2.177-1.33,1.854,1.854,0,0,1,3.628-.726Z" transform="translate(-242.513 -161.741)" fill="#ffc550"/>
      <path id="Path_29685" data-name="Path 29685" d="M270.11,179.954a1.859,1.859,0,0,1-1.451,2.056,1.791,1.791,0,0,1-2.056-1.451,1.779,1.779,0,0,1,3.507-.6Z" transform="translate(-241.314 -161.964)" fill="#ffc550"/>
      <path id="Path_29686" data-name="Path 29686" d="M275.631,179.059a1.854,1.854,0,0,1-1.572,2.056A1.791,1.791,0,0,1,272,179.664a1.854,1.854,0,0,1,1.572-2.056A1.655,1.655,0,0,1,275.631,179.059Z" transform="translate(-240.183 -162.158)" fill="#ffc550"/>
    </g>
    <g id="Group_2349" data-name="Group 2349" transform="translate(884.754 963.162)">
      <g id="Group_2346" data-name="Group 2346" transform="translate(0 0.121)">
        <g id="Group_2343" data-name="Group 2343" transform="translate(26.263 177.99)">
          <path id="Path_29687" data-name="Path 29687" d="M262.9,356.659l.726-10.159,4.717.484-1.814,10.4Z" transform="translate(-260.364 -346.5)" fill="#d6ddea"/>
          <path id="Path_29688" data-name="Path 29688" d="M267.33,353.587a1.307,1.307,0,0,1,.847.363,25.9,25.9,0,0,0,4.958,3.386c2.419.967,3.87,2.419,0,2.419-3.749,0-4.838-.121-6.047-.121-1.693,0-.968.121-5.079.121-2.056,0-1.088-3.87,0-5.684.363-.6.484-1.088,1.088-.968Z" transform="translate(-260.803 -345.121)" fill="#d84835"/>
        </g>
        <g id="Group_2344" data-name="Group 2344" transform="translate(37.77 178.231)">
          <path id="Path_29689" data-name="Path 29689" d="M273,356.617l2.056-9.917,4.717.6-3.144,10.038Z" transform="translate(-269.756 -346.7)" fill="#d6ddea"/>
          <path id="Path_29690" data-name="Path 29690" d="M277.794,353.589a1.306,1.306,0,0,1,.847.363,25.408,25.408,0,0,0,8.949,4.112c2.661.363,2.782,1.693-.967,1.693s-6.531-.363-8.224-.242c-1.693,0-2.3.242-6.41.242-3.144,0-1.088-3.991,0-5.926a1.548,1.548,0,0,1,1.693-.726Z" transform="translate(-270.317 -345.365)" fill="#f25f46"/>
        </g>
        <path id="Path_29691" data-name="Path 29691" d="M321.013,207.444a25.4,25.4,0,0,1-3.628,2.3,6.8,6.8,0,0,0-2.177.847c-.847.6-4.837,3.386-5.926,7.014-.484,1.088-1.088,2.3-1.693,3.386l-.363.726a2.648,2.648,0,0,1-.363.6c-.6,1.088-1.088,2.177-1.693,3.144-2.177,3.749-3.991,6.652-4.958,7.256-3.265,1.693-13.061.484-19.108-.726a3.345,3.345,0,0,0-1.451,6.531,77.281,77.281,0,0,0,14.634,1.814c3.386,0,6.531-.363,8.828-1.572,2.419-1.209,4.717-6.168,6.41-10.643l1.089-2.9c.242-.726.484-1.33.726-1.935v-.121c.363-1.088.6-1.935.847-2.54a17.7,17.7,0,0,1,1.088-2.54c.363-.847,3.991-.847,5.442-1.935,1.572-.967,1.33-3.628.726-5.321,0-.121-.121-.242-.121-.363a3.675,3.675,0,0,0,.847-.6C322.464,208.532,324.157,205.025,321.013,207.444Z" transform="translate(-231.139 -197.8)" fill="#ffaf84"/>
        <path id="Path_29692" data-name="Path 29692" d="M285.871,215.357A12.135,12.135,0,0,0,273.778,202.9,12.646,12.646,0,0,0,261.2,215.478c0,4.838,2.54,10.159,6.531,12.215-.121,3.144.121,6.531,2.056,9.554a35.973,35.973,0,0,1,2.419,3.991,4.008,4.008,0,0,0,3.386,1.935,3.379,3.379,0,0,0,2.056-.6,3.922,3.922,0,0,0,1.33-5.442s-.363-.484-2.54-4.112c-.6-.847-.967-1.814-.847-3.991C283.694,230.474,285.871,221.645,285.871,215.357Z" transform="translate(-234.456 -198.577)" fill="#ffaf84"/>
        <path id="Path_29693" data-name="Path 29693" d="M264.136,292.38a41.453,41.453,0,0,1-1.209-20.68H291.1a132.129,132.129,0,0,1,.121,17.657Z" transform="translate(-234.248 -184.172)" fill="#293549"/>
        <path id="Path_29694" data-name="Path 29694" d="M269.114,280.5h0c-3.144,0-6.772,0-5.684,6.773,0,.242,1.33,27.332.363,38.821-.847,10.763-1.572,40.514-1.693,40.877h6.289c0-.363,5.805-29.267,6.652-40.03.967-11.731,1.693-38.458,1.693-39.547C276.733,284.249,272.259,280.5,269.114,280.5Z" transform="translate(-234.268 -182.329)" fill="#293549"/>
        <path id="Path_29695" data-name="Path 29695" d="M289.089,286c-.242-3.144-3.265-4.717-6.41-4.6-3.144.242-9.312,2.661-9.07,5.8,0,.242,5.563,23.7,5.684,34.346.121,9.433-.6,17.294-6.894,45.11l6.168.363c1.33-3.628,12.215-32.532,11.973-45.836C290.42,310.547,289.21,286.964,289.089,286Z" transform="translate(-232.111 -182.142)" fill="#293549"/>
        <path id="Path_29696" data-name="Path 29696" d="M269.942,230.672s-4.6,21.89-5.442,25.881a3.911,3.911,0,0,1-2.9,3.023,2.357,2.357,0,0,1-.967.121c-1.33,0-2.661-2.056-6.652-7.982-.121-.242-.242-.363-.363-.6l-1.451-2.177a2.124,2.124,0,0,0-.484-.6c-.967-1.33-1.935-2.9-3.144-4.6-1.209.363-4.6,2.3-5.926,2.3-1.814,0-4.112-.121-3.386-1.935a6.384,6.384,0,0,1,4.354-3.507,17.174,17.174,0,0,0,3.265-1.088.118.118,0,0,0,.121-.121c.121,0,.242-.121.363-.121a.422.422,0,0,0,.242-.121.444.444,0,0,0,.363-.121h1.209a.444.444,0,0,1,.363.121,5357.812,5357.812,0,0,0,.484.242.422.422,0,0,1,.242.121l.242.242c.121,0,.121.121.242.242l.242.242.121.121c1.33,1.814,2.661,3.628,4.112,5.442.121.242.363.363.484.6.6.726,1.209,1.451,1.693,2.056.121.121.242.363.484.484a12.859,12.859,0,0,0,1.088,1.33c.242-1.088.484-2.177.726-3.386,0-.121.121-.363.121-.484,1.572-7.619,3.628-17.294,3.628-17.294Z" transform="translate(-239.086 -193.091)" fill="#ffaf84"/>
        <path id="Path_29697" data-name="Path 29697" d="M255.568,246.244,251.7,248.9c-.121-.242-.242-.363-.363-.6l-1.451-2.177a2.124,2.124,0,0,0-.484-.6l3.628-2.419c.121.242.363.363.484.6.6.726,1.209,1.451,1.693,2.056A1.669,1.669,0,0,1,255.568,246.244Z" transform="translate(-236.927 -190.16)" fill="#ed8c62"/>
        <path id="Path_29698" data-name="Path 29698" d="M311.867,219.9c-3.991,7.74-5.8,9.312-6.168,9.554-3.023,1.451-10.159.847-15.964-.363a23.848,23.848,0,0,0-3.023-.726h-23.22a2.728,2.728,0,0,0-2.661,2.177h0S258.17,243,256.6,250.981c-.363-.484-.847-.968-1.33-1.572l-6.168,4.958c4.717,5.805,7.135,7.74,9.554,7.74h0a3.348,3.348,0,0,0,1.088-.121,3.622,3.622,0,0,0,1.209-.484,4.249,4.249,0,0,0,2.056-2.9c.242-.847.484-2.54.968-4.6,1.33,10.884,3.265,13.061,1.814,28.541h28.178s-1.088-28.662-3.023-44.142a40.875,40.875,0,0,0,10.28.242,22.08,22.08,0,0,0,8.224-2.177c1.088-.6,2.54-1.209,8.345-12.336Z" transform="translate(-236.99 -195.018)" fill="#457bf4"/>
        <path id="Path_29699" data-name="Path 29699" d="M255.335,244.609l-6.168,4.958c-.363-.363-.6-.847-.968-1.209l6.168-4.958A10.572,10.572,0,0,1,255.335,244.609Z" transform="translate(-237.178 -190.097)" fill="#b6d0ff"/>
        <path id="Path_29700" data-name="Path 29700" d="M306.3,220.656v.121c-.242.6-.484,1.209-.726,1.935l-3.87-2.782a2.646,2.646,0,0,1,.363-.6l.363-.726Z" transform="translate(-225.976 -195.29)" fill="#ed8c62"/>
        <path id="Path_29701" data-name="Path 29701" d="M307.51,223.133a11.184,11.184,0,0,0-.6,1.209l-5.8-4.233c.242-.363.363-.847.6-1.209Z" transform="translate(-226.102 -195.227)" fill="#b6d0ff"/>
        <path id="Path_29702" data-name="Path 29702" d="M261.823,250.215c-.484,2.056-.847,3.749-.967,4.6a4,4,0,0,1-2.056,2.9L260.251,238C260.856,241.749,261.34,245.982,261.823,250.215Z" transform="translate(-234.959 -191.228)" fill="#3972d8"/>
        <path id="Path_29703" data-name="Path 29703" d="M286.962,201.592s-.242,1.935-4.6-.121c-8.345-3.749-16.81-1.814-19.108,0-2.3,1.693-2.54,3.507-1.935,4.958-1.814,1.693-3.023,3.87-3.023,5.563,0,7.135,4.475,14.392,9.433,14.392,7.861,0,11.247-9.554,10.884-15,0-.484-.121-.967-.121-1.451.242,0,.484.121.726.121C288.293,211.872,286.962,201.592,286.962,201.592Z" transform="translate(-235.063 -199.326)" fill="#f78834"/>
        <path id="Path_29704" data-name="Path 29704" d="M271.4,214.337a4.071,4.071,0,0,0,1.572,3.265,1.692,1.692,0,0,0,2.782-1.33V212.4a1.692,1.692,0,0,0-2.782-1.33A4.071,4.071,0,0,0,271.4,214.337Z" transform="translate(-232.321 -196.953)" fill="#ffaf84"/>
        <g id="Group_2345" data-name="Group 2345" transform="translate(27.711 86.681)">
          <path id="Path_29705" data-name="Path 29705" d="M276.7,368.355l-.6-.242c.121-.363,8.828-28.3,9.8-32.653.726-3.144,1.935-8.949,1.693-13.545-.121-3.87-2.3-34.709-2.3-34.951.363-3.749.6-15.843.6-15.964h.6c0,.121-.242,12.215-.6,15.964,0,.242,2.177,31.081,2.3,34.951a61.922,61.922,0,0,1-1.693,13.666C285.412,340.056,276.826,368.113,276.7,368.355Z" transform="translate(-259.048 -271)" fill="#687c99"/>
          <rect id="Rectangle_738" data-name="Rectangle 738" width="9.433" height="0.605" transform="translate(0 3.386)" fill="#687c99"/>
        </g>
      </g>
      <g id="Group_2348" data-name="Group 2348" transform="translate(0.121 0)">
        <g id="Group_2347" data-name="Group 2347" clip-path="url(#clip-path)">
          <path id="Path_29706" data-name="Path 29706" d="M266.621,190.719c-10.643-10.763-20.2-15-33.742-14.513-10.4.363-21.043,2.056-26.848,16.689-8.949,22.374,10.038,34.83,7.135,57.2-2.54,19.229-19.35,19.229-24.067,39.426-2.419,10.522,2.782,24.792,15.964,39.547,23.1,26.123,74.74,30.113,89.373-24.671C304.958,264.612,288.873,213.213,266.621,190.719Z" transform="translate(-249.794 -204.053)" fill="#e0e0e0"/>
        </g>
      </g>
    </g>
    <g id="Group_2360" data-name="Group 2360" transform="translate(896.018 964.099)">
      <g id="_x3C_grupa_x3E__1_" transform="translate(112.903 69.056)">
        <g id="Group_2351" data-name="Group 2351">
          <g id="Group_2350" data-name="Group 2350">
            <path id="Path_29708" data-name="Path 29708" d="M349.912,280.925h33.621a1.457,1.457,0,0,0,1.451-1.935l-5.563-19.955a2.847,2.847,0,0,0-2.54-1.935H343.26a1.457,1.457,0,0,0-1.451,1.935l5.563,19.955A2.723,2.723,0,0,0,349.912,280.925Z" transform="translate(-341.756 -257.1)" fill="#cc5605"/>
            <path id="Path_29709" data-name="Path 29709" d="M350.512,280.925h33.621a1.457,1.457,0,0,0,1.451-1.935l-5.563-19.955a2.847,2.847,0,0,0-2.54-1.935H343.86a1.457,1.457,0,0,0-1.451,1.935l5.563,19.955A2.723,2.723,0,0,0,350.512,280.925Z" transform="translate(-341.631 -257.1)" fill="#f78834"/>
          </g>
          <path id="Path_29710" data-name="Path 29710" d="M349.641,275.643l-3.628-13.061a2.173,2.173,0,0,1,2.177-2.782h26.485a2.324,2.324,0,0,1,2.177,1.572l3.628,13.061a2.173,2.173,0,0,1-2.177,2.782H351.818A2.116,2.116,0,0,1,349.641,275.643Z" transform="translate(-340.881 -256.535)" fill="#f7f7f7"/>
        </g>
        <g id="Group_2352" data-name="Group 2352" transform="translate(6.657 23.825)">
          <path id="Path_29711" data-name="Path 29711" d="M347.308,277.268a.958.958,0,0,0,.967.6H383.71a.958.958,0,0,0,.968-.6c.121-.121-.121-.363-.242-.363H347.55C347.308,276.785,347.187,277.026,347.308,277.268Z" transform="translate(-347.261 -276.785)" fill="#cc5605"/>
          <path id="Path_29712" data-name="Path 29712" d="M354.908,277.268a.957.957,0,0,0,.967.6h35.435a.958.958,0,0,0,.967-.6c.121-.121-.121-.363-.242-.363H355.15C354.908,276.785,354.787,277.026,354.908,277.268Z" transform="translate(-345.67 -276.785)" fill="#fcd592"/>
          <path id="Path_29713" data-name="Path 29713" d="M367.6,276.8v.121a.321.321,0,0,0,.363.363h6.047a.321.321,0,0,0,.363-.363V276.8Z" transform="translate(-343.002 -276.8)" fill="#fff3e1"/>
        </g>
      </g>
      <g id="Group_2356" data-name="Group 2356" transform="translate(109.282)">
        <path id="Path_29714" data-name="Path 29714" d="M401.067,281.228a5.621,5.621,0,0,0-6.41-4.717c-3.265.484-32.411,5.321-36.765,24.188-2.661,11.489,5.2,31.565,11.368,47.529l5.321-1.572c-4.475-13.666-7.135-37.128-5.684-43.417,2.3-9.675,21.043-14.634,27.453-15.6A5.621,5.621,0,0,0,401.067,281.228Z" transform="translate(-334.868 -183.994)" fill="#f4b038"/>
        <path id="Path_29715" data-name="Path 29715" d="M400.132,212.947c-.121,0-.121-.121-.242-.121-1.33-5.563-6.289-11.126-12.215-11.126-5.805,0-10.763,5.442-12.215,10.884a1.951,1.951,0,0,0-1.088.363,4.251,4.251,0,0,0-1.572,3.265,4.071,4.071,0,0,0,1.572,3.265,1.365,1.365,0,0,0,1.33.363c1.088,3.386,4.717,8.708,10.038,9.07a7.989,7.989,0,0,1-.968,4.354c-2.3,3.628-2.54,4.112-2.54,4.112a4.029,4.029,0,0,0,1.33,5.442,4.077,4.077,0,0,0,2.056.6,4.008,4.008,0,0,0,3.386-1.935c0-.121.484-.726,2.419-3.991a16.058,16.058,0,0,0,2.056-9.8c2.782-1.451,4.838-4.837,5.805-7.861.242-.121.363-.121.6-.242a4.251,4.251,0,0,0,1.572-3.265A3.426,3.426,0,0,0,400.132,212.947Z" transform="translate(-331.635 -199.644)" fill="#ffaf84"/>
        <path id="Path_29716" data-name="Path 29716" d="M397.588,289.983s3.386-6.289,1.209-18.383H370.619s-.363,9.191.242,18.383Z" transform="translate(-332.115 -185.008)" fill="#ffc550"/>
        <path id="Path_29717" data-name="Path 29717" d="M383.192,277.727c-5.079,0-9.554,0-13.545-.121-20.8-.121-27.09-.242-29.993,5.079-.967,1.814-1.693,4.958.847,8.949,6.531,10.28,29.267,26.244,31.686,28.3l4.233-5.2c-5.442-4.354-17.173-17.9-23.825-25.76,4.112-.242,10.4-.121,17.052-.121,3.991,0,8.587.121,13.666.121A5.678,5.678,0,0,0,389,283.29,5.927,5.927,0,0,0,383.192,277.727Z" transform="translate(-338.762 -183.758)" fill="#ffc550"/>
        <path id="Path_29718" data-name="Path 29718" d="M414.178,254.474c0-2.54-2.661-7.861-6.168-13.3-2.781-4.354-6.047-8.949-8.466-12.336a3.374,3.374,0,0,0-5.442,3.991c2.9,3.991,6.047,8.466,8.466,12.336,2.54,3.991,4.475,7.377,4.838,8.828-1.209,2.419-8.708,9.917-15.117,15.722l-.242.242-.121.121c-.121.121-.242.242-.242.363a.118.118,0,0,1-.121.121c-.121.121-.121.363-.242.484v.121c0,.121-.121.363-.121.484v.847a.444.444,0,0,0,.121.363v.242c0,.121.121.242.121.363s.121.121.121.242c.121.121.121.242.242.363l.121.121h0a15.485,15.485,0,0,0,5.563,3.991,3.529,3.529,0,0,0,1.088.242c1.33,0,2.056-2.056,2.54-3.507.6-1.693-1.814-3.386-3.628-3.991h-.121C407.043,263.907,414.178,258.223,414.178,254.474Z" transform="translate(-327.783 -194.247)" fill="#ffaf84"/>
        <path id="Path_29719" data-name="Path 29719" d="M407.6,241.171l-3.628,2.661-1.693,1.33c-2.419-3.87-5.442-8.345-8.466-12.336a3.374,3.374,0,1,1,5.442-3.991C401.671,232.221,404.815,236.817,407.6,241.171Z" transform="translate(-327.369 -194.247)" fill="#ed8c62"/>
        <path id="Path_29720" data-name="Path 29720" d="M407.863,239.908l-3.991,2.54-3.386,2.177-.6-.967-1.693-2.782c-1.209-1.935-2.3-3.749-3.144-4.958s-1.33-2.056-1.33-2.056a4.063,4.063,0,0,1-.6-1.693,4.241,4.241,0,0,1,1.935-4.354,4.064,4.064,0,0,1,1.693-.6,2.6,2.6,0,0,1,.968,0,4.306,4.306,0,0,1,3.386,1.935c.121.121,2.056,3.265,4.6,7.256l1.693,2.782Z" transform="translate(-327.394 -194.314)" fill="#f25f46"/>
        <path id="Path_29721" data-name="Path 29721" d="M403.772,242.447l-3.386,2.177-.6-.967-1.693-2.782c-1.209-1.935-2.3-3.749-3.144-4.958s-1.33-2.056-1.33-2.056a4.062,4.062,0,0,1-.6-1.693,4.241,4.241,0,0,1,1.935-4.354,4.063,4.063,0,0,1,1.693-.6,2.6,2.6,0,0,1,.967,0,5.616,5.616,0,0,1,1.572,2.419c.121.242,1.935,5.079,4.112,11.368Z" transform="translate(-327.415 -194.314)" fill="#e24530"/>
        <path id="Path_29722" data-name="Path 29722" d="M403.737,230.246c-1.935,11.247-5.805,39.426-4.958,50.794H370.6s.242-7.619.847-17.052c.726-12.578,1.935-28.541,3.386-34.588v-.242a2.832,2.832,0,0,1,2.661-2.056h23.341A2.637,2.637,0,0,1,403.737,230.246Z" transform="translate(-332.096 -194.327)" fill="#f25f46"/>
        <path id="Path_29723" data-name="Path 29723" d="M393.883,205.321c-2.661,3.386-18.383,5.563-18.383-2.177a2.92,2.92,0,0,1,1.088-2.419s.121,1.209.726,1.451A21.264,21.264,0,0,1,382.756,200s-.484,1.209,1.451.968C389.892,200.242,398.357,199.516,393.883,205.321Z" transform="translate(-331.07 -200)" fill="#5252ff"/>
        <path id="Path_29724" data-name="Path 29724" d="M381.922,234.7s-.121,1.088-.363,2.782-.6,4.112-.967,6.652l-.484,3.749L371.4,263.724c.726-12.578,1.935-28.541,3.386-34.588a4.9,4.9,0,0,1,1.088-.6,3.723,3.723,0,0,1,2.3,0,5.367,5.367,0,0,1,3.386,3.628A4.515,4.515,0,0,1,381.922,234.7Z" transform="translate(-331.928 -194.064)" fill="#e24530"/>
        <path id="Path_29725" data-name="Path 29725" d="M382.57,202.492c-2.9.726-5.321,5.805-5.563,8.708-.484,5.442,3.628,14.15,12.215,14.15,10.159,0,11.126-10.884,10.642-13.666s-2.177-8.828-6.531-9.433C390.673,202.008,385.714,201.645,382.57,202.492Z" transform="translate(-330.763 -199.589)" fill="#5252ff"/>
        <path id="Path_29726" data-name="Path 29726" d="M383.7,228.277h0c-.363-.121-.6-.242-.967-.363a4.939,4.939,0,0,0-2.3.121,4.733,4.733,0,0,0-1.935,1.209h0a1.747,1.747,0,0,0-.242.847c-.121.484-1.572,6.893-3.023,14.029-1.572,7.377-3.265,15.48-3.749,18.745-.967,6.893-11.731,12.336-15.722,13.908-.121,0-.121,0-.121.121-.121,0-.242.121-.363.242s-.242.121-.363.242a.422.422,0,0,1-.242.121h0c-.847.847-4.233,4.233-3.87,8.345.121,1.693.242,2.177,1.814,2.661a9.057,9.057,0,0,0,2.54.242c1.814,0,2.9-.484,2.661-2.419,0-.484-.967-4.838-.121-5.684,9.554-3.991,18.745-5.8,20.438-16.81.484-3.023,1.935-10.28,3.386-17.173,1.572-7.74,3.144-14.875,3.265-15.117A3.45,3.45,0,0,0,383.7,228.277Z" transform="translate(-336.246 -194.172)" fill="#ffaf84"/>
        <path id="Path_29727" data-name="Path 29727" d="M380.554,231.421c0,.121-1.572,7.377-3.265,15.117L371,244.119c1.451-7.135,2.9-13.545,3.023-14.029a2.241,2.241,0,0,1,.242-.847h0a4.064,4.064,0,0,1,1.935-1.209,4.851,4.851,0,0,1,2.3-.121,8.334,8.334,0,0,1,.968.363h0A3.331,3.331,0,0,1,380.554,231.421Z" transform="translate(-332.012 -194.172)" fill="#ed8c62"/>
        <path id="Path_29728" data-name="Path 29728" d="M370.7,243.2l8.587,1.693.242-1.088.6-3.265c.484-2.3.847-4.354,1.209-5.8a22.67,22.67,0,0,0,.484-2.419,4.938,4.938,0,0,0-.121-2.3,4.215,4.215,0,0,0-3.265-2.9,4.939,4.939,0,0,0-2.3.121,4.215,4.215,0,0,0-2.9,3.265c0,.121-.847,3.749-1.814,8.466l-.6,3.265Z" transform="translate(-332.075 -194.34)" fill="#f25f46"/>
        <g id="Group_2353" data-name="Group 2353" transform="translate(3.723 86.229)">
          <rect id="Rectangle_739" data-name="Rectangle 739" width="9.433" height="0.605" transform="translate(54.373 3.628)" fill="#efa21b"/>
          <path id="Path_29729" data-name="Path 29729" d="M370.938,319.07c-10.038-7.377-22.132-18.987-27.332-26.364-1.814-2.54-2.177-4.6-1.33-6.41,1.33-2.661,5.684-3.991,12.094-3.991h20.922c5.079,0,5.079-2.419,5.079-3.386V271.3h.6v7.619q0,3.991-5.8,3.991H354.248c-6.168,0-10.4,1.33-11.61,3.749-.726,1.572-.363,3.507,1.33,5.8,5.2,7.256,17.052,18.745,27.09,26.243Z" transform="translate(-341.841 -271.3)" fill="#efa21b"/>
        </g>
        <g id="Group_2354" data-name="Group 2354" transform="translate(23.958 131.066)">
          <path id="Path_29730" data-name="Path 29730" d="M366.83,310.945a1.238,1.238,0,0,0-.6.726,24.608,24.608,0,0,1-6.289,7.619c-2.177,1.572-1.814,2.782,1.572,1.089s5.684-3.144,7.256-3.87,2.177-.726,5.926-2.54c2.782-1.33-.847-4.112-2.661-5.321a1.856,1.856,0,0,0-1.935,0Z" transform="translate(-358.573 -308.375)" fill="#293549"/>
        </g>
        <g id="Group_2355" data-name="Group 2355" transform="translate(29.441 158.761)">
          <path id="Path_29731" data-name="Path 29731" d="M368.3,335.417a1.748,1.748,0,0,0-.242.846c-.121,2.056-1.209,6.773-3.628,8.345-2.3,1.451-1.572,2.54,1.935,1.089,3.023-1.33,4.717-4.717,5.926-5.926a56.354,56.354,0,0,0,4.475-4.6c2.177-2.3-2.3-3.507-4.354-3.87a1.626,1.626,0,0,0-1.693.726Z" transform="translate(-363.106 -331.275)" fill="#293549"/>
        </g>
      </g>
      <g id="Group_2358" data-name="Group 2358" transform="translate(109.282 0.121)">
        <g id="Group_2357" data-name="Group 2357" clip-path="url(#clip-path-2)">
          <path id="Path_29732" data-name="Path 29732" d="M447.221,214.719c-10.643-10.763-20.2-15-33.742-14.513-10.4.363-21.043,2.056-26.848,16.689-8.949,22.374,10.038,34.83,7.135,57.2-2.54,19.229-19.35,19.229-24.067,39.426-2.419,10.522,2.782,24.792,15.964,39.547,23.1,26.123,74.74,30.114,89.373-24.671C485.558,288.491,469.473,237.213,447.221,214.719Z" transform="translate(-332.405 -200.085)" fill="#e0e0e0"/>
        </g>
      </g>
      <g id="Group_2359" data-name="Group 2359" transform="translate(0 104.732)">
        <rect id="Rectangle_740" data-name="Rectangle 740" width="29.872" height="86.954" transform="translate(146.819)" fill="#457bf4"/>
        <rect id="Rectangle_741" data-name="Rectangle 741" width="29.872" height="20.559" transform="translate(188.3 66.395)" fill="#ffdea9" opacity="0.7"/>
        <rect id="Rectangle_742" data-name="Rectangle 742" width="29.872" height="35.919" transform="translate(105.458 51.036)" fill="#ffdea9" opacity="0.7"/>
        <rect id="Rectangle_743" data-name="Rectangle 743" width="29.872" height="58.05" transform="translate(64.218 28.904)" fill="#ffdea9" opacity="0.7"/>
        <path id="Path_29734" data-name="Path 29734" d="M250.335,362.37H472.5a1.91,1.91,0,0,0,1.935-1.935h0A1.91,1.91,0,0,0,472.5,358.5H250.335a1.91,1.91,0,0,0-1.935,1.935h0A1.91,1.91,0,0,0,250.335,362.37Z" transform="translate(-248.4 -271.546)" fill="#e2e2e2"/>
      </g>
    </g>
    <g id="Group_2364" data-name="Group 2364" transform="translate(844.74 918.747)">
      <g id="Group_2361" data-name="Group 2361" transform="translate(117.914 102.072)">
        <rect id="Rectangle_744" data-name="Rectangle 744" width="16.327" height="5.079" transform="translate(3.386 7.498)" fill="#ffdea9"/>
        <rect id="Rectangle_745" data-name="Rectangle 745" width="1.814" height="43.9" fill="#e2ebf4"/>
        <rect id="Rectangle_746" data-name="Rectangle 746" width="9.917" height="5.079" transform="translate(3.386 14.754)" fill="#ffdea9"/>
        <rect id="Rectangle_747" data-name="Rectangle 747" width="13.666" height="5.079" transform="translate(15.722 14.754)" fill="#ffdea9"/>
        <rect id="Rectangle_748" data-name="Rectangle 748" width="6.531" height="5.079" transform="translate(3.386 22.011)" fill="#ffdea9"/>
        <rect id="Rectangle_749" data-name="Rectangle 749" width="6.893" height="5.079" transform="translate(3.386 36.523)" fill="#ffdea9"/>
        <rect id="Rectangle_750" data-name="Rectangle 750" width="16.689" height="5.079" transform="translate(14.633 36.523)" fill="#ffdea9"/>
      </g>
      <g id="Group_2362" data-name="Group 2362" transform="translate(0 35.314)">
        <rect id="Rectangle_751" data-name="Rectangle 751" width="29.872" height="5.079" transform="translate(3.507)" fill="#ffdea9"/>
        <rect id="Rectangle_752" data-name="Rectangle 752" width="1.814" height="43.9" fill="#e2ebf4"/>
        <rect id="Rectangle_753" data-name="Rectangle 753" width="34.225" height="5.079" transform="translate(3.507 7.256)" fill="#ffdea9"/>
        <rect id="Rectangle_754" data-name="Rectangle 754" width="22.615" height="5.079" transform="translate(3.507 14.513)" fill="#ffdea9"/>
        <rect id="Rectangle_755" data-name="Rectangle 755" width="4.354" height="5.079" transform="translate(3.507 29.025)" fill="#ffdea9"/>
        <rect id="Rectangle_756" data-name="Rectangle 756" width="10.28" height="5.079" transform="translate(10.401 29.025)" fill="#ffdea9"/>
      </g>
      <g id="Group_2363" data-name="Group 2363" transform="translate(200.999 0)">
        <rect id="Rectangle_757" data-name="Rectangle 757" width="3.628" height="6.652" transform="matrix(0.707, -0.707, 0.707, 0.707, 28.407, 30.962)" fill="#f78879"/>
        <path id="Path_29735" data-name="Path 29735" d="M416.683,206.883h0a3.288,3.288,0,0,1-4.717-.121L398.3,191.886l3.386-3.386,14.875,13.666A3.288,3.288,0,0,1,416.683,206.883Z" transform="translate(-366.735 -157.056)" fill="#efa46c"/>
        <path id="Path_29736" data-name="Path 29736" d="M406.353,180.227a16.336,16.336,0,0,1-16.327,16.327,16.132,16.132,0,0,1-10.28-3.628,18.443,18.443,0,0,1-2.661-2.661,10.962,10.962,0,0,1-1.33-1.935,14.774,14.774,0,0,1-2.056-6.773v-1.33A16.336,16.336,0,0,1,390.027,163.9h1.33a18.41,18.41,0,0,1,6.773,2.056,10.96,10.96,0,0,1,1.935,1.33,13.861,13.861,0,0,1,2.661,2.661A16.381,16.381,0,0,1,406.353,180.227Z" transform="translate(-371.886 -162.207)" fill="#bfe2ef" opacity="0.4"/>
        <path id="Path_29737" data-name="Path 29737" d="M398.129,165.956l-22.374,22.374a14.774,14.774,0,0,1-2.056-6.773L391.357,163.9A18.41,18.41,0,0,1,398.129,165.956Z" transform="translate(-371.886 -162.207)" fill="#fff" opacity="0.3"/>
        <path id="Path_29738" data-name="Path 29738" d="M402.139,169.361l-22.978,22.978a18.441,18.441,0,0,1-2.661-2.661L399.478,166.7A18.443,18.443,0,0,1,402.139,169.361Z" transform="translate(-371.3 -161.621)" fill="#fff" opacity="0.3"/>
        <path id="Path_29739" data-name="Path 29739" d="M390.341,198.781a18.141,18.141,0,1,1,12.819-30.96h0a18.141,18.141,0,0,1-12.819,30.96Zm0-32.774a14.87,14.87,0,0,0-10.28,4.233,14.354,14.354,0,0,0-4.233,10.28,14.87,14.87,0,0,0,4.233,10.28,14.354,14.354,0,0,0,10.28,4.233,14.87,14.87,0,0,0,10.28-4.233,14.354,14.354,0,0,0,4.233-10.28,14.87,14.87,0,0,0-4.233-10.28h0A14.354,14.354,0,0,0,390.341,166.007Z" transform="translate(-372.2 -162.5)" fill="#fcd592"/>
      </g>
    </g>
  </g>
</svg>
