<svg xmlns="http://www.w3.org/2000/svg" width="428.29" height="399.557" viewBox="0 0 428.29 399.557">
  <g id="Group_3155" data-name="Group 3155" transform="translate(-125.711 -1266.373)">
    <path id="Path_31392" data-name="Path 31392" d="M234.442,281.924c4.814,10.017,23.027,48.265,66.479,68.04,9.237,4.163,52.558,23.937,89.115,5.854,48.265-23.807,33.044-88.334,77.927-120.468,38.638-27.71,80.659,23.417,127.1-1.821,24.2-13.27,43.582-41.76,44.232-67.389C641.249,86.261,462.628-47.737,331.232,17.181,235.743,64.405,196.194,201.785,234.442,281.924Z" transform="translate(-85.313 1266.4)" fill="#e5f9f6"/>
    <g id="Group_3153" data-name="Group 3153" transform="translate(139.241 1394.544)">
      <g id="Group_2369" data-name="Group 2369" transform="translate(0 14.318)">
        <path id="Path_29744" data-name="Path 29744" d="M243.064,224.832a2.732,2.732,0,1,1-2.732-2.732A2.668,2.668,0,0,1,243.064,224.832Z" transform="translate(-219.257 -75.613)" fill="#34d6b7"/>
        <path id="Path_29745" data-name="Path 29745" d="M230.4,226.73a6.915,6.915,0,0,1-6.9-6.765,6.83,6.83,0,0,1,13.66,0A6.718,6.718,0,0,1,230.4,226.73Zm0-10.147a3.252,3.252,0,1,0,3.252,3.252A3.221,3.221,0,0,0,230.4,216.582Z" transform="translate(-223.5 -78.292)" fill="#ffc550"/>
        <path id="Path_29746" data-name="Path 29746" d="M382.347,122.506h-2.342v2.342a1.821,1.821,0,1,1-3.643,0v-2.342h-2.342a1.821,1.821,0,0,1,0-3.643h2.342v-2.342a1.821,1.821,0,1,1,3.643,0v2.342h2.342a1.779,1.779,0,0,1,1.821,1.821A1.707,1.707,0,0,1,382.347,122.506Z" transform="translate(-178.749 -107.935)" fill="#34d6b7"/>
        <path id="Path_29747" data-name="Path 29747" d="M395.464,112.232a2.732,2.732,0,1,1-2.732-2.732A2.668,2.668,0,0,1,395.464,112.232Z" transform="translate(-173.392 -109.5)" fill="#345184"/>
      </g>
      <g id="Group_2370" data-name="Group 2370" transform="translate(78.495 0)">
        <path id="Path_29748" data-name="Path 29748" d="M287.822,175.836A56.572,56.572,0,0,1,328.412,99.6l5.984,27.58a28.483,28.483,0,0,0-22.376,27.84,25.833,25.833,0,0,0,2.082,10.538Z" transform="translate(-283.837 -98.162)" fill="#345184"/>
        <path id="Path_29749" data-name="Path 29749" d="M296.9,193.906l-1.3-1.3,20.555-19.254a28.41,28.41,0,1,0,33.3-44.883L361.948,103.1a52.184,52.184,0,0,1,14.961,10.8A56.575,56.575,0,1,1,296.9,193.906Z" transform="translate(-280.296 -97.108)" fill="#fff"/>
        <path id="Path_29750" data-name="Path 29750" d="M330.2,126.732a31.434,31.434,0,0,0-6.114.65L318.1,99.8a56.866,56.866,0,0,1,37.207,4.553l-12.489,25.369A27.351,27.351,0,0,0,330.2,126.732Z" transform="translate(-273.525 -98.494)" fill="#34d6b7"/>
        <path id="Path_29751" data-name="Path 29751" d="M298.218,178.3A58.507,58.507,0,0,1,286.9,160.608L313.179,150.2a26.977,26.977,0,0,0,5.594,8.846Z" transform="translate(-282.915 -82.934)" fill="#bcf1f7"/>
      </g>
      <g id="Group_2387" data-name="Group 2387" transform="translate(113.848 38.255)">
        <g id="Group_2377" data-name="Group 2377" transform="translate(1.416)">
          <path id="Path_29752" data-name="Path 29752" d="M457.487,133.754V323.563a5.83,5.83,0,0,1-5.854,5.854H330.254a5.83,5.83,0,0,1-5.854-5.854V133.754a5.83,5.83,0,0,1,5.854-5.854H451.633A5.83,5.83,0,0,1,457.487,133.754Z" transform="translate(-308.398 -127.9)" fill="#34ced6"/>
          <path id="Path_29753" data-name="Path 29753" d="M314.832,288.164H474.589a2.748,2.748,0,0,0,2.732-2.732h0a2.748,2.748,0,0,0-2.732-2.732H314.832a2.748,2.748,0,0,0-2.732,2.732h0A2.668,2.668,0,0,0,314.832,288.164Z" transform="translate(-312.1 -81.313)" fill="#e2e2e2"/>
          <path id="Path_29754" data-name="Path 29754" d="M457.457,133.754v14.18H324.5v-14.18a5.83,5.83,0,0,1,5.854-5.854H451.733A5.8,5.8,0,0,1,457.457,133.754Z" transform="translate(-308.368 -127.9)" fill="#34ced6"/>
          <g id="Group_2372" data-name="Group 2372" transform="translate(77.146 185.515)">
            <g id="Group_2371" data-name="Group 2371">
              <path id="Path_29755" data-name="Path 29755" d="M376.864,281.428h0a5.5,5.5,0,0,1-5.464-5.464h0a5.5,5.5,0,0,1,5.464-5.464h0a5.5,5.5,0,0,1,5.464,5.464h0A5.5,5.5,0,0,1,376.864,281.428Z" transform="translate(-371.4 -270.5)" fill="#e3fff0"/>
            </g>
          </g>
          <g id="Group_2374" data-name="Group 2374" transform="translate(29.141 7.546)">
            <g id="Group_2373" data-name="Group 2373">
              <path id="Path_29756" data-name="Path 29756" d="M336.712,138.123h0a2.28,2.28,0,0,1-2.212-2.212h0a2.28,2.28,0,0,1,2.212-2.212h0a2.28,2.28,0,0,1,2.212,2.212h0A2.05,2.05,0,0,1,336.712,138.123Z" transform="translate(-334.5 -133.7)" fill="#e3fff0"/>
            </g>
          </g>
          <g id="Group_2376" data-name="Group 2376" transform="translate(36.296 7.546)">
            <g id="Group_2375" data-name="Group 2375">
              <path id="Path_29757" data-name="Path 29757" d="M342.212,138.123h0A2.28,2.28,0,0,1,340,135.912h0a2.28,2.28,0,0,1,2.212-2.212h0a2.28,2.28,0,0,1,2.212,2.212h0A2.193,2.193,0,0,1,342.212,138.123Z" transform="translate(-340 -133.7)" fill="#e3fff0"/>
            </g>
          </g>
          <rect id="Rectangle_758" data-name="Rectangle 758" width="128.794" height="159.757" transform="translate(18.213 19.905)" fill="#cff6ff"/>
        </g>
        <g id="Group_2384" data-name="Group 2384" transform="translate(0 26.669)">
          <g id="Group_2378" data-name="Group 2378" transform="translate(0 27.853)">
            <rect id="Rectangle_759" data-name="Rectangle 759" width="18.864" height="42.671" transform="translate(42.671 0) rotate(90)" fill="#a7e1ea"/>
            <rect id="Rectangle_760" data-name="Rectangle 760" width="18.864" height="42.671" transform="translate(68.61 48.185) rotate(90)" fill="#a7e1ea"/>
            <rect id="Rectangle_761" data-name="Rectangle 761" width="18.864" height="42.671" transform="translate(55.706 24.093) rotate(90)" fill="#a7e1ea"/>
          </g>
          <g id="Group_2379" data-name="Group 2379" transform="translate(26.004)">
            <rect id="Rectangle_762" data-name="Rectangle 762" width="115.004" height="21.466" fill="#ebfff8"/>
            <rect id="Rectangle_763" data-name="Rectangle 763" width="15.351" height="15.351" transform="translate(96.27 3.122)" fill="#d3e8f2"/>
            <rect id="Rectangle_764" data-name="Rectangle 764" width="33.044" height="2.992" transform="translate(7.415 4.033)" fill="#a5efd3"/>
            <rect id="Rectangle_765" data-name="Rectangle 765" width="33.044" height="2.992" transform="translate(7.415 9.237)" fill="#a5efd3"/>
            <rect id="Rectangle_766" data-name="Rectangle 766" width="22.246" height="2.992" transform="translate(7.415 14.441)" fill="#a5efd3"/>
          </g>
          <g id="Group_2380" data-name="Group 2380" transform="translate(68.675 91.847)">
            <rect id="Rectangle_767" data-name="Rectangle 767" width="94.059" height="44.102" fill="#80ffce" opacity="0.5"/>
            <rect id="Rectangle_768" data-name="Rectangle 768" width="36.947" height="3.773" transform="translate(9.367 15.351)" fill="#e3fff0"/>
            <rect id="Rectangle_769" data-name="Rectangle 769" width="28.101" height="3.773" transform="translate(9.367 21.986)" fill="#e3fff0"/>
            <rect id="Rectangle_770" data-name="Rectangle 770" width="18.994" height="3.773" transform="translate(9.367 28.621)" fill="#e3fff0"/>
            <rect id="Rectangle_771" data-name="Rectangle 771" width="11.318" height="3.773" transform="translate(30.702 28.621)" fill="#e3fff0"/>
            <rect id="Rectangle_772" data-name="Rectangle 772" width="25.629" height="3.773" transform="translate(9.367 35.256)" fill="#e3fff0"/>
          </g>
          <g id="Group_2382" data-name="Group 2382" transform="translate(26.004 102.125)">
            <rect id="Rectangle_773" data-name="Rectangle 773" width="33.955" height="33.955" fill="#95efc6"/>
            <g id="Group_2381" data-name="Group 2381" transform="translate(1.934 1.923)">
              <circle id="Ellipse_62" data-name="Ellipse 62" cx="10.668" cy="10.668" r="10.668" transform="translate(0 15.086) rotate(-45)" fill="#6bdda6"/>
              <path id="Path_29758" data-name="Path 29758" d="M354.032,241.866a8.006,8.006,0,0,1-3.252,6.5,14.221,14.221,0,0,1-1.951,1.041,2.412,2.412,0,0,1-.911.26c-.26,0-.39.13-.65.13a4.01,4.01,0,0,1-1.3.13,6.8,6.8,0,0,1-2.342-.39,8.121,8.121,0,0,1-5.724-7.676,7.746,7.746,0,0,1,.781-3.513,8.339,8.339,0,0,1,2.732-3.252,5.652,5.652,0,0,1,.911-.52,5.573,5.573,0,0,1,2.082-.651,5.834,5.834,0,0,1,1.431-.13,8.037,8.037,0,0,1,7.545,5.2A7.089,7.089,0,0,1,354.032,241.866Z" transform="translate(-330.857 -226.746)" fill="#eff4f4"/>
              <path id="Path_29759" data-name="Path 29759" d="M344.311,242.325a.889.889,0,0,1-.911-.911v-5.2a.911.911,0,0,1,1.821,0v5.2A.889.889,0,0,1,344.311,242.325Z" transform="translate(-329.202 -226.295)" fill="#c1d6cf"/>
              <path id="Path_29760" data-name="Path 29760" d="M344.312,241.514a.927.927,0,0,1-.781-.39,1.009,1.009,0,0,1,.26-1.3l2.732-1.691a.938.938,0,1,1,1.041,1.561l-2.732,1.691A.983.983,0,0,1,344.312,241.514Z" transform="translate(-329.203 -225.483)" fill="#c1d6cf"/>
            </g>
          </g>
          <g id="Group_2383" data-name="Group 2383" transform="translate(73.879 27.84)">
            <rect id="Rectangle_774" data-name="Rectangle 774" width="67.129" height="67.129" fill="#96daed"/>
            <path id="Path_29761" data-name="Path 29761" d="M395.586,203.146h0A8.578,8.578,0,0,1,387,194.56v-5.074a8.578,8.578,0,0,1,8.586-8.586h0a8.578,8.578,0,0,1,8.586,8.586v5.074A8.662,8.662,0,0,1,395.586,203.146Z" transform="translate(-362.022 -166.459)" fill="#f8fffb"/>
            <path id="Path_29762" data-name="Path 29762" d="M397.954,194.6a20.054,20.054,0,0,0-18.213,11.578,5.991,5.991,0,0,0,5.464,8.586h25.629a6.038,6.038,0,0,0,5.464-8.586A20.245,20.245,0,0,0,397.954,194.6Z" transform="translate(-364.389 -162.336)" fill="#f8fffb"/>
          </g>
          <rect id="Rectangle_775" data-name="Rectangle 775" width="5.464" height="115.004" transform="translate(141.043 138.296) rotate(90)" fill="#ffe1ab"/>
        </g>
        <g id="Group_2385" data-name="Group 2385" transform="translate(149.594 32.394)">
          <path id="Path_29763" data-name="Path 29763" d="M426,172.835h0V152.8h0a2.61,2.61,0,0,1,2.6,2.6v14.831A2.61,2.61,0,0,1,426,172.835Z" transform="translate(-426 -152.8)" fill="#34ced6"/>
          <path id="Path_29764" data-name="Path 29764" d="M426,189.9h0V170h0a2.61,2.61,0,0,1,2.6,2.6v14.831A2.586,2.586,0,0,1,426,189.9Z" transform="translate(-426 -147.624)" fill="#34ced6"/>
        </g>
        <g id="Group_2386" data-name="Group 2386" transform="translate(19.629 19.905)">
          <path id="Path_29765" data-name="Path 29765" d="M400.775,143.2,326.1,218v-40.2L360.575,143.2Z" transform="translate(-326.1 -143.2)" fill="#f5feff" opacity="0.3"/>
          <path id="Path_29766" data-name="Path 29766" d="M428.745,143.2,326.1,245.975V225.81l82.61-82.61Z" transform="translate(-326.1 -143.2)" fill="#f5feff" opacity="0.3"/>
        </g>
      </g>
      <path id="Path_29767" data-name="Path 29767" d="M353.281,239.756v17.173a1.681,1.681,0,0,1-1.171,1.561V306.1H330.254a5.83,5.83,0,0,1-5.854-5.854V204.5h23.547a4.053,4.053,0,0,1,4.033,4.033v29.532A2.083,2.083,0,0,1,353.281,239.756Z" transform="translate(-193.134 -66.592)" fill="#375e82" opacity="0.3"/>
      <g id="Group_2400" data-name="Group 2400" transform="translate(63.226 126.069)">
        <g id="Group_2392" data-name="Group 2392" transform="translate(2.992)">
          <path id="Path_29768" data-name="Path 29768" d="M351.676,199.433V331.219a4.053,4.053,0,0,1-4.033,4.033H278.433a4.053,4.053,0,0,1-4.033-4.033V199.433a4.053,4.053,0,0,1,4.033-4.033h69.211A4.053,4.053,0,0,1,351.676,199.433Z" transform="translate(-274.4 -195.4)" fill="#32d898"/>
          <path id="Path_29769" data-name="Path 29769" d="M351.646,199.433v9.757H274.5v-9.757a4.053,4.053,0,0,1,4.033-4.033h69.211A4.029,4.029,0,0,1,351.646,199.433Z" transform="translate(-274.37 -195.4)" fill="#32d898"/>
          <g id="Group_2389" data-name="Group 2389" transform="translate(34.866 128.924)">
            <g id="Group_2388" data-name="Group 2388">
              <path id="Path_29770" data-name="Path 29770" d="M304.973,302.046h0a3.775,3.775,0,0,1-3.773-3.773h0a3.775,3.775,0,0,1,3.773-3.773h0a3.775,3.775,0,0,1,3.773,3.773h0A3.775,3.775,0,0,1,304.973,302.046Z" transform="translate(-301.2 -294.5)" fill="#e3fff0"/>
            </g>
          </g>
          <g id="Group_2391" data-name="Group 2391" transform="translate(23.157 5.334)">
            <g id="Group_2390" data-name="Group 2390">
              <path id="Path_29771" data-name="Path 29771" d="M293.761,202.622h0a1.5,1.5,0,0,1-1.561-1.561h0a1.5,1.5,0,0,1,1.561-1.561h0a1.5,1.5,0,0,1,1.561,1.561h0A1.679,1.679,0,0,1,293.761,202.622Z" transform="translate(-292.2 -199.5)" fill="#e3fff0"/>
            </g>
          </g>
          <path id="Path_29772" data-name="Path 29772" d="M313.772,201.341H298.42a.52.52,0,0,1,0-1.041h15.351a.52.52,0,0,1,0,1.041Z" transform="translate(-267.328 -193.925)" fill="#e3fff0"/>
          <rect id="Rectangle_776" data-name="Rectangle 776" width="74.284" height="110.971" transform="translate(1.561 13.92)" fill="#cff6ff"/>
        </g>
        <g id="Group_2393" data-name="Group 2393" transform="translate(10.538 72.853)">
          <rect id="Rectangle_777" data-name="Rectangle 777" width="13.53" height="4.293" fill="#ebfff8"/>
          <rect id="Rectangle_778" data-name="Rectangle 778" width="13.53" height="4.293" transform="translate(34.345)" fill="#ebfff8"/>
          <rect id="Rectangle_779" data-name="Rectangle 779" width="13.53" height="4.293" transform="translate(17.173)" fill="#ebfff8"/>
        </g>
        <g id="Group_2399" data-name="Group 2399" transform="translate(0 13.92)">
          <g id="Group_2394" data-name="Group 2394" transform="translate(15.741 66.739)">
            <rect id="Rectangle_780" data-name="Rectangle 780" width="54.38" height="14.961" transform="translate(2.862)" fill="#ebfff8"/>
            <rect id="Rectangle_781" data-name="Rectangle 781" width="10.668" height="10.668" transform="translate(44.232 2.082)" fill="#d3f4e8"/>
            <rect id="Rectangle_782" data-name="Rectangle 782" width="23.027" height="2.082" transform="translate(0 2.732)" fill="#a5efd3"/>
            <rect id="Rectangle_783" data-name="Rectangle 783" width="23.027" height="2.082" transform="translate(0 6.375)" fill="#a5efd3"/>
            <rect id="Rectangle_784" data-name="Rectangle 784" width="15.481" height="2.082" transform="translate(0 10.017)" fill="#a5efd3"/>
          </g>
          <g id="Group_2395" data-name="Group 2395" transform="translate(10.538 85.342)">
            <rect id="Rectangle_785" data-name="Rectangle 785" width="39.809" height="18.604" fill="#ebfff8"/>
            <rect id="Rectangle_786" data-name="Rectangle 786" width="20.295" height="2.082" transform="translate(5.204 2.862)" fill="#ffe1ab"/>
            <rect id="Rectangle_787" data-name="Rectangle 787" width="15.481" height="2.082" transform="translate(5.204 6.505)" fill="#ffe1ab"/>
            <rect id="Rectangle_788" data-name="Rectangle 788" width="10.408" height="2.082" transform="translate(5.204 10.147)" fill="#ffe1ab"/>
            <rect id="Rectangle_789" data-name="Rectangle 789" width="6.245" height="2.082" transform="translate(16.912 10.147)" fill="#a5efd3"/>
            <rect id="Rectangle_790" data-name="Rectangle 790" width="14.05" height="2.082" transform="translate(5.204 13.79)" fill="#ffe1ab"/>
          </g>
          <g id="Group_2397" data-name="Group 2397">
            <rect id="Rectangle_791" data-name="Rectangle 791" width="58.543" height="47.745" transform="translate(0 6.895)" fill="#ffe1ab" opacity="0.5"/>
            <g id="Group_2396" data-name="Group 2396" transform="translate(19.514 16.002)">
              <circle id="Ellipse_63" data-name="Ellipse 63" cx="14.961" cy="14.961" r="14.961" fill="#ffc550"/>
              <path id="Path_29773" data-name="Path 29773" d="M312.667,232.578a11.153,11.153,0,0,1-4.683,9.107,7.882,7.882,0,0,1-2.732,1.431c-.39.13-.911.26-1.3.39a1.929,1.929,0,0,1-.911.13,8,8,0,0,1-1.821.13,9.7,9.7,0,0,1-3.382-.52,11.2,11.2,0,0,1-7.936-10.8,10.278,10.278,0,0,1,1.171-4.944,11.991,11.991,0,0,1,3.9-4.553l1.171-.781a11.65,11.65,0,0,1,2.992-1.041,11.72,11.72,0,0,1,12.619,7.155A12.7,12.7,0,0,1,312.667,232.578Z" transform="translate(-286.257 -217.618)" fill="#eff4f4"/>
              <path id="Path_29774" data-name="Path 29774" d="M298.9,233.187a1.3,1.3,0,0,1-1.3-1.3V224.6a1.3,1.3,0,0,1,2.6,0v7.285A1.3,1.3,0,0,1,298.9,233.187Z" transform="translate(-283.94 -216.925)" fill="#c1d6cf"/>
              <path id="Path_29775" data-name="Path 29775" d="M298.922,232.064a1.552,1.552,0,0,1-1.171-.65,1.28,1.28,0,0,1,.39-1.821l3.773-2.342a1.317,1.317,0,0,1,1.431,2.212l-3.773,2.342A.993.993,0,0,1,298.922,232.064Z" transform="translate(-283.961 -215.802)" fill="#c1d6cf"/>
            </g>
            <path id="Path_29776" data-name="Path 29776" d="M327.378,206.1,275.6,258.008v-27.97L299.538,206.1Z" transform="translate(-271.047 -206.1)" fill="#f5feff" opacity="0.3"/>
            <path id="Path_29777" data-name="Path 29777" d="M346.892,206.1,275.6,277.392v-13.92L332.842,206.1Z" transform="translate(-271.047 -206.1)" fill="#f5feff" opacity="0.3"/>
          </g>
          <g id="Group_2398" data-name="Group 2398" transform="translate(54.38 85.342)" opacity="0.7">
            <rect id="Rectangle_792" data-name="Rectangle 792" width="28.751" height="28.751" fill="#95efc6"/>
            <path id="Path_29778" data-name="Path 29778" d="M325.743,286h0a3.636,3.636,0,0,1-3.643-3.643v-2.212a3.636,3.636,0,0,1,3.643-3.643h0a3.636,3.636,0,0,1,3.643,3.643v2.212A3.636,3.636,0,0,1,325.743,286Z" transform="translate(-311.432 -270.255)" fill="#f8fffb"/>
            <path id="Path_29779" data-name="Path 29779" d="M326.762,282.3a8.717,8.717,0,0,0-7.806,4.944,2.548,2.548,0,0,0,2.342,3.643h10.928a2.548,2.548,0,0,0,2.342-3.643A8.572,8.572,0,0,0,326.762,282.3Z" transform="translate(-312.452 -268.51)" fill="#f8fffb"/>
          </g>
          <rect id="Rectangle_793" data-name="Rectangle 793" width="8.586" height="56.331" transform="translate(63.616 6.895)" fill="#95efc6"/>
        </g>
        <path id="Path_29780" data-name="Path 29780" d="M333.4,241.755h0V221.2h0a1.722,1.722,0,0,1,1.691,1.691v17.173A1.722,1.722,0,0,1,333.4,241.755Z" transform="translate(-253.652 -187.635)" fill="#32d898"/>
      </g>
      <path id="Path_29781" data-name="Path 29781" d="M300.07,195.4l-7.025,20.815L276.783,263.96l-1.561,4.683V263.96H272.1V216.215h3.122V199.433a4.053,4.053,0,0,1,4.033-4.033Z" transform="translate(-208.874 -69.331)" fill="#375e82" opacity="0.3"/>
      <path id="Path_29782" data-name="Path 29782" d="M245.532,308.364H372.114a2.748,2.748,0,0,0,2.732-2.732h0a2.748,2.748,0,0,0-2.732-2.732H245.532a2.748,2.748,0,0,0-2.732,2.732h0A2.748,2.748,0,0,0,245.532,308.364Z" transform="translate(-217.692 -36.979)" fill="#e2e2e2"/>
    </g>
    <g id="Group_3154" data-name="Group 3154" transform="translate(125.711 1448.938)">
      <g id="Group_2404" data-name="Group 2404" transform="translate(6.622 0)">
        <g id="Group_2402" data-name="Group 2402" transform="translate(41.699 195.526)">
          <path id="Path_29783" data-name="Path 29783" d="M263.443,302.178l2.212-10.928-4.553-.65-1.3,11.318Z" transform="translate(-247.367 -290.6)" fill="#d6ddea"/>
          <path id="Path_29784" data-name="Path 29784" d="M261.766,298.426a1.125,1.125,0,0,0-.781.39,26.313,26.313,0,0,1-8.846,4.033c-2.6.39-2.732,1.691.911,1.691,3.773,0,6.5-.39,8.066-.26,1.691,0,1.171.26,5.334.26,3.122,0,2.212-4.033,1.041-5.854-.39-.52-.781-.911-1.431-.781Z" transform="translate(-250.243 -288.409)" fill="#345184"/>
        </g>
        <g id="Group_2403" data-name="Group 2403" transform="translate(72.346 180.825)">
          <path id="Path_29785" data-name="Path 29785" d="M285.118,286.455l-8.456-7.155-2.862,3.773,9.367,6.5Z" transform="translate(-273.8 -279.3)" fill="#d6ddea"/>
          <path id="Path_29786" data-name="Path 29786" d="M279.926,287.785a4.092,4.092,0,0,0,.13,2.212c.65,1.951,1.3,7.285.781,9.757-.52,2.6.65,3.252,1.951-.26s1.821-6.245,2.472-7.806a44.726,44.726,0,0,0,2.082-4.944c.781-1.951-2.342-3.643-4.423-3.122-.65.13-.781.26-1.3,1.171A17.414,17.414,0,0,0,279.926,287.785Z" transform="translate(-271.99 -278.028)" fill="#345184"/>
        </g>
        <path id="Path_29787" data-name="Path 29787" d="M274.144,170.973a3.6,3.6,0,0,0-5.2.52,137.906,137.906,0,0,1-10.017,10.8c-2.992,2.862-4.683,4.683-6.635,5.2-5.074-1.171-13.92-13.92-18.473-22.506l-.13-.13c-.13-.13-.13-.26-.26-.39l-.26-.26-.26-.26-.26-.26c-.13-.13-.13-.13-.26-.13a.478.478,0,0,0-.39-.13.454.454,0,0,1-.26-.13c-.13,0-.26-.13-.39-.13h-.13c-1.691-.39-4.423.781-6.9-.13-2.732-1.041-6.375-2.472-6.114-.39a6.886,6.886,0,0,0,3.9,5.594c2.082.781,7.285.13,8.977.52,3.513,6.245,10.928,24.978,20.555,26.279h.65c2.862,0,6.9-2.472,12.229-7.546a134.225,134.225,0,0,0,10.278-11.188A4.005,4.005,0,0,0,274.144,170.973Z" transform="translate(-218.19 -133.903)" fill="#ffaf84"/>
        <path id="Path_29788" data-name="Path 29788" d="M262.73,146.41c-4.944-2.732-5.724,7.025-4.163,10.278,1.691,3.382,6.765,6.375,8.2,3.643C268.585,156.688,269.5,149.923,262.73,146.41Z" transform="translate(-206.256 -138.612)" fill="#e07127"/>
        <path id="Path_29789" data-name="Path 29789" d="M265.242,174.227a134.225,134.225,0,0,1-10.278,11.188l-5.464-5.2a119.2,119.2,0,0,0,10.017-10.8,3.711,3.711,0,0,1,5.2-.52A3.881,3.881,0,0,1,265.242,174.227Z" transform="translate(-208.767 -131.953)" fill="#ed8c62"/>
        <path id="Path_29790" data-name="Path 29790" d="M266.542,175.85c-3.122,2.992-6.5,6.245-9.627,9.5l-7.415-7.155c3.9-3.773,7.415-7.285,9.887-9.757a5.152,5.152,0,1,1,7.155,7.415Z" transform="translate(-208.767 -132.276)" fill="#25bfbf"/>
        <path id="Path_29791" data-name="Path 29791" d="M276.723,166.1c0,3.252-.39,7.415-2.212,10.408-2.212,3.643-2.732,4.293-2.732,4.423a4.241,4.241,0,0,1-3.773,2.082,4.386,4.386,0,0,1-2.212-.65,4.44,4.44,0,0,1-1.561-5.984s.39-.651,2.862-4.553a9.36,9.36,0,0,0,.781-3.513,29.428,29.428,0,0,0-.26-5.854,4.342,4.342,0,0,1,8.586-1.3A17.811,17.811,0,0,1,276.723,166.1Z" transform="translate(-204.507 -135.144)" fill="#ffaf84"/>
        <path id="Path_29792" data-name="Path 29792" d="M290.517,170.543c-2.212,12.489-6.375,43.842-5.464,56.461H253.7s1.951-46.444,4.814-57.762a3.2,3.2,0,0,1,2.992-2.342h25.889A3.154,3.154,0,0,1,290.517,170.543Z" transform="translate(-207.503 -132.302)" fill="#34ced6"/>
        <path id="Path_29793" data-name="Path 29793" d="M283.679,233.525s3.773-7.025,1.3-20.425H253.627s-.39,10.147.26,20.425Z" transform="translate(-207.56 -118.398)" fill="#345184"/>
        <path id="Path_29794" data-name="Path 29794" d="M290.49,301.25l-4.683,4.423a62.978,62.978,0,0,1-10.408-7.025,129.987,129.987,0,0,1-11.969-10.8c-5.464-5.854-9.887-12.1-10.8-17.563-1.951-12.489,1.691-41.76,2.082-45.013.52-3.382,4.033-5.074,7.415-4.553s6.765,3.773,6.245,7.285c-1.171,8.2-4.683,31.483-3.382,40.46a3.392,3.392,0,0,0,.39,1.431c1.431,4.163,6.115,10.538,11.578,16.912C281.383,292.013,286.327,297.217,290.49,301.25Z" transform="translate(-207.996 -116.132)" fill="#345184"/>
        <path id="Path_29795" data-name="Path 29795" d="M274.3,275.382c-.39,3.9-.911,8.066-1.431,11.969a129.991,129.991,0,0,1-11.969-10.8c.52-5.854,1.041-11.318,1.561-14.831l.39-3.122C264.152,262.5,268.836,268.877,274.3,275.382Z" transform="translate(-205.336 -104.705)" fill="#234063"/>
        <path id="Path_29796" data-name="Path 29796" d="M258.9,317.981c.13-.39,2.472-33.044,4.033-44.753,2.472-18.473,6.375-48.005,6.375-48.4.52-3.382,5.464-5.334,8.977-4.814a6.175,6.175,0,0,1,5.074,7.285c0,.26-5.074,30.052-8.846,48.525-1.041,13.01-7.936,42.151-8.2,43.582" transform="translate(-205.938 -116.341)" fill="#345184"/>
        <path id="Path_29797" data-name="Path 29797" d="M275.85,166.1a13.961,13.961,0,0,1-7.676,2.212h-1.3a29.428,29.428,0,0,0-.26-5.854,4.342,4.342,0,0,1,8.586-1.3A12.952,12.952,0,0,1,275.85,166.1Z" transform="translate(-203.634 -135.144)" fill="#ed8c62"/>
        <path id="Path_29798" data-name="Path 29798" d="M258.5,156.65c0,7.676,4.293,14.05,11.839,14.05,5.984,0,15.351-6.245,15.351-14.05a14.075,14.075,0,0,0-14.05-14.05C263.964,142.73,258.5,148.975,258.5,156.65Z" transform="translate(-206.059 -139.615)" fill="#ffaf84"/>
        <path id="Path_29799" data-name="Path 29799" d="M304.089,201.01c.13-3.122-3.9-10.668-8.586-18.213-2.862-4.683-5.854-9.367-8.326-13.009a3.773,3.773,0,0,0-5.2-1.041,3.9,3.9,0,0,0-1.041,5.2c2.732,4.163,5.724,8.586,8.2,12.749,3.252,5.464,5.464,8.977,6.5,11.578A102.48,102.48,0,0,1,273,203.351a4.524,4.524,0,0,0-2.6,1.3h0a27.5,27.5,0,0,0-4.033,7.546c-.65,1.951-1.431,6.245.65,5.854,2.082-.26,3.122-1.171,4.163-1.561,1.561-.52,1.821-.52,2.342-2.082s.39-6.114,1.041-7.025C302.919,204.782,303.959,203.612,304.089,201.01Z" transform="translate(-203.903 -131.936)" fill="#ffaf84"/>
        <path id="Path_29800" data-name="Path 29800" d="M263.65,321.559l-.65-.13c0-.26,4.814-29.922,7.676-44.232,2.732-14.31,7.676-48.525,7.676-48.786,1.3-4.944,1.041-9.367.39-15.611h.65c.52,5.2,1.041,10.538-.39,15.872,0,.26-4.944,34.475-7.676,48.786C268.464,291.638,263.65,321.169,263.65,321.559Z" transform="translate(-204.704 -118.488)" fill="#7095c1"/>
        <path id="Path_29801" data-name="Path 29801" d="M279.633,145.106c-4.163-3.773-7.285,5.464-6.5,8.846.781,3.773,4.944,7.936,7.025,5.594C282.885,156.424,285.227,150.18,279.633,145.106Z" transform="translate(-201.693 -139.128)" fill="#e07127"/>
        <path id="Path_29802" data-name="Path 29802" d="M269.791,164.754c2.6-2.082-2.472-4.683-4.553-4.553-2.212.13-4.944,2.212-3.773,3.513C263.026,165.535,266.409,167.486,269.791,164.754Z" transform="translate(-205.251 -134.319)" fill="#e07127"/>
        <path id="Path_29803" data-name="Path 29803" d="M281.778,148.494c-3.382,2.472-20.945,2.862-23.937-1.561a7.917,7.917,0,0,0,3.513-.13s-3.383-1.431-4.553-2.992a19.726,19.726,0,0,0,8.066-1.431c3.9-1.691,11.839-3.9,16.912.52S281.778,148.494,281.778,148.494Z" transform="translate(-206.57 -140.305)" fill="#e07127"/>
        <path id="Path_29804" data-name="Path 29804" d="M281.34,157.694a4.741,4.741,0,0,1-2.472,3.382,1.987,1.987,0,0,1-2.862-2.082l.911-4.423a1.944,1.944,0,0,1,3.382-.911A4.418,4.418,0,0,1,281.34,157.694Z" transform="translate(-200.798 -136.495)" fill="#ffaf84"/>
        <path id="Path_29805" data-name="Path 29805" d="M263.932,166.9c-.781,2.732,1.821,4.293,6.375,3.643a21.354,21.354,0,0,0,9.107-3.643Z" transform="translate(-204.465 -132.302)" fill="#ffaf84"/>
        <path id="Path_29806" data-name="Path 29806" d="M292.087,182.766l-6.245,4.033c-2.6-4.163-5.464-8.716-8.2-12.749a3.752,3.752,0,1,1,6.245-4.163C286.1,173.4,289.225,178.083,292.087,182.766Z" transform="translate(-200.487 -131.906)" fill="#ed8c62"/>
        <path id="Path_29807" data-name="Path 29807" d="M276.721,175.062c2.472,3.643,5.074,7.415,7.545,11.188l8.716-5.594c-2.992-4.553-5.854-8.586-7.936-11.448a5.09,5.09,0,1,0-8.326,5.854Z" transform="translate(-200.863 -132.267)" fill="#34ced6"/>
        <rect id="Rectangle_794" data-name="Rectangle 794" width="0.65" height="21.075" transform="translate(60.637 94.182)" fill="#7095c1"/>
        <path id="Path_29808" data-name="Path 29808" d="M265.813,230.363a3.5,3.5,0,0,1-3.513-3.513V212.8h.651v14.05a2.887,2.887,0,0,0,2.862,2.862Z" transform="translate(-204.915 -118.488)" fill="#7095c1"/>
      </g>
      <g id="Group_2405" data-name="Group 2405" transform="translate(0 0.138)">
        <rect id="Rectangle_795" data-name="Rectangle 795" width="15.741" height="15.741" transform="translate(12.351 5.148) rotate(27.459)" fill="#ffe1ab"/>
        <path id="Path_29809" data-name="Path 29809" d="M215.7,158.233l-2.6-1.431,1.431-2.6,1.171.65-.781,1.431,1.431.781Z" transform="translate(-213.1 -136.262)" fill="#ffe1ab"/>
        <path id="Path_29810" data-name="Path 29810" d="M236.521,151.9l-1.041-.65.65-1.431-1.431-.781.65-1.041,2.6,1.3Z" transform="translate(-206.6 -138.128)" fill="#ffe1ab"/>
        <rect id="Rectangle_796" data-name="Rectangle 796" width="9.757" height="6.895" transform="translate(21.41 17.173) rotate(-3.141)" fill="#34ced6"/>
        <rect id="Rectangle_797" data-name="Rectangle 797" width="5.334" height="5.334" transform="translate(19.805 0) rotate(34.596)" fill="#96daed"/>
      </g>
    </g>
  </g>
</svg>
