<svg xmlns="http://www.w3.org/2000/svg" width="459.639" height="314.559" viewBox="0 0 459.639 314.559">
  <g id="Group_2338" data-name="Group 2338" transform="translate(-0.03 -0.13)">
    <path id="Path_29558" data-name="Path 29558" d="M12.594,244.079c4.087,8.708,20.082,41.763,57.58,59,8,3.554,45.495,20.793,77.128,5.154,41.763-20.615,28.612-76.417,67.532-104.319,33.41-23.992,69.842,20.259,110.183-1.6,20.97-11.374,37.676-36.254,38.209-58.29C364.825,74.894,210.213-41.154,96.476,15,13.661,55.7-20.638,174.592,12.594,244.079Z" transform="translate(0)" fill="#f9f5ff"/>
    <path id="Path_29559" data-name="Path 29559" d="M237.546,266.779a119.644,119.644,0,0,1-37.853-6.042c-43.185-14.573-76.24-57.4-88.857-114.448-9.6-43.9-4.087-84.948,14.039-102.008,12.262-11.729,35.188-16.35,53.314-11.018C195.428,38.416,202.714,51.922,210,64.9c6.931,12.8,13.506,24.7,28.79,27.19,17.061,2.843,31.455-4.265,45.14-11.018,15.639-7.642,30.212-14.928,48.338-8.886,16.705,5.687,30.922,21.859,39.63,45.14,5.154,13.684,9.063,35.9-.889,63.8h0C354.838,226.793,296.015,266.779,237.546,266.779ZM162.2,32.907c-13.684,0-27.546,4.621-36.076,12.8-17.594,16.705-22.925,57.046-13.506,100.409,12.44,56.336,45.14,98.632,87.613,113.027,67.887,23.1,149.636-23.636,169.007-78.194,9.774-27.546,5.865-49.227.889-62.556-8.53-22.925-22.214-38.564-38.564-44.251-17.238-5.865-31.633,1.244-46.917,8.708-14.039,6.931-28.612,14.217-46.206,11.2-15.994-2.666-22.747-15.106-30.034-28.079-6.931-12.8-14.217-25.946-30.745-30.745A50.147,50.147,0,0,0,162.2,32.907Z" transform="translate(82.494 24.038)" fill="#d7d7f4"/>
    <g id="Group_2337" data-name="Group 2337" transform="translate(30.162 15.884)">
      <g id="Group_2309" data-name="Group 2309" transform="translate(67.736 11.027)">
        <path id="Path_29560" data-name="Path 29560" d="M77.552,59.385l-6.4-6.4,2.488-2.843a17.446,17.446,0,0,1-2.31-5.687L67.6,44.1V35.038l3.732-.355A22.5,22.5,0,0,1,73.642,29l-2.488-2.843,6.4-6.4L80.4,22.242a17.445,17.445,0,0,1,5.687-2.31l.355-3.732H95.5l.355,3.732a22.5,22.5,0,0,1,5.687,2.31l2.843-2.488,6.4,6.4L108.3,29a17.445,17.445,0,0,1,2.31,5.687l3.732.355V44.1l-3.732.355a22.5,22.5,0,0,1-2.31,5.687l2.488,2.843-6.4,6.4L101.543,56.9a17.445,17.445,0,0,1-5.687,2.31L95.5,62.939H86.438l-.355-3.554a22.5,22.5,0,0,1-5.687-2.31ZM94.968,46.412a8.168,8.168,0,0,0,2.843-2.843,8.03,8.03,0,0,0,0-8,8.168,8.168,0,0,0-2.843-2.843,8.03,8.03,0,0,0-8,0,8.168,8.168,0,0,0-2.843,2.843,8.03,8.03,0,0,0,0,8,8.168,8.168,0,0,0,2.843,2.843A8.03,8.03,0,0,0,94.968,46.412Z" transform="translate(-45.386 -14.423)" fill="#4c8"/>
        <path id="Path_29561" data-name="Path 29561" d="M57.055,34.571,55.1,30.128l1.777-.889a9.663,9.663,0,0,1,0-3.2L55.1,25.152l1.777-4.443,1.777.533a14.205,14.205,0,0,1,2.31-2.31l-.711-1.777L64.7,15.2l.889,1.777a9.663,9.663,0,0,1,3.2,0l.889-1.777,4.443,1.777-.533,1.777a14.206,14.206,0,0,1,2.31,2.31l1.777-.711L79.625,24.8l-1.777.889a9.663,9.663,0,0,1,0,3.2l1.777.889-1.777,4.443-1.777-.533a14.2,14.2,0,0,1-2.31,2.31l.711,1.777-4.443,1.955-.889-1.777a9.663,9.663,0,0,1-3.2,0l-.889,1.777-4.443-1.777.533-1.777a14.205,14.205,0,0,1-2.31-2.31ZM68.073,31.55a2.526,2.526,0,0,0,1.066-.355,3.885,3.885,0,0,0,.889-.533,4.2,4.2,0,0,0,1.6-3.91,2.526,2.526,0,0,0-.355-1.066,3.884,3.884,0,0,0-.533-.889,4.2,4.2,0,0,0-3.91-1.6,2.526,2.526,0,0,0-1.066.355,3.885,3.885,0,0,0-.889.533,4.2,4.2,0,0,0-1.6,3.91,2.526,2.526,0,0,0,.355,1.066,3.884,3.884,0,0,0,.533.889A4.048,4.048,0,0,0,68.073,31.55Z" transform="translate(-55.1 -15.2)" fill="#46cccc" opacity="0.4"/>
      </g>
      <g id="Group_2310" data-name="Group 2310" transform="translate(10.334 0.542)">
        <path id="Path_29562" data-name="Path 29562" d="M142.121,15.342a3.021,3.021,0,1,1,0-6.042,2.892,2.892,0,0,1,3.021,3.021A3.114,3.114,0,0,1,142.121,15.342Z" transform="translate(67.582 -9.3)" fill="#48cc90" opacity="0.4"/>
        <path id="Path_29563" data-name="Path 29563" d="M28.521,99.541a4.621,4.621,0,1,1,4.621-4.621A4.7,4.7,0,0,1,28.521,99.541Zm0-7.464a2.843,2.843,0,1,0,2.843,2.843A2.807,2.807,0,0,0,28.521,92.077Z" transform="translate(-21.945 53.649)" fill="#46cccc" opacity="0.4"/>
        <path id="Path_29564" data-name="Path 29564" d="M138.465,20.164v-1.6h1.6a1.422,1.422,0,1,0,0-2.843h-1.6v-1.6a1.422,1.422,0,0,0-2.843,0v1.6h-1.6a1.422,1.422,0,0,0,0,2.843h1.6v1.6a1.4,1.4,0,0,0,1.422,1.422C137.931,21.408,138.465,20.875,138.465,20.164Z" transform="translate(62.531 -6.658)" fill="#46cccc" opacity="0.4"/>
        <path id="Path_29565" data-name="Path 29565" d="M24.222,87.443a1.422,1.422,0,1,1,1.422-1.422A1.4,1.4,0,0,1,24.222,87.443Z" transform="translate(-22.8 49.219)" fill="#48cc90" opacity="0.4"/>
      </g>
      <g id="Group_2321" data-name="Group 2321">
        <path id="Path_29566" data-name="Path 29566" d="M356.078,217.934A10.106,10.106,0,0,1,346.66,228.6l-105.918,6.22-9.774.533-6.575.355-9.774.533-15.639.889-12.8.711-5.509.355-12.8.711L66.4,244.947a10.106,10.106,0,0,1-10.663-9.419L44.9,49.994,345.238,32.4Z" transform="translate(4.709 9.194)" fill="#5439f7"/>
        <path id="Path_29567" data-name="Path 29567" d="M330.351,208.938l-264.44,26.3a17.282,17.282,0,0,1-18.838-15.461L33.034,78.673A17.282,17.282,0,0,1,48.5,59.835l264.44-26.3a17.41,17.41,0,0,1,18.838,15.461l14.039,141.283A17.139,17.139,0,0,1,330.351,208.938Z" transform="translate(-4.573 10.015)" fill="#7bcaff" opacity="0.5"/>
        <path id="Path_29568" data-name="Path 29568" d="M197.586,208.211H73.008A8.722,8.722,0,0,1,64.3,199.5V60.708A8.722,8.722,0,0,1,73.008,52H197.586a8.722,8.722,0,0,1,8.708,8.708V199.5A8.5,8.5,0,0,1,197.586,208.211Z" transform="translate(19.786 24.426)" fill="#7bcaff" opacity="0.5"/>
        <g id="Group_2311" data-name="Group 2311" transform="translate(48.353 13.502)">
          <path id="Path_29569" data-name="Path 29569" d="M345.965,44.684,45.627,62.1,44.205,38.109a4.177,4.177,0,0,1,3.91-4.443L340.278,16.605a4.177,4.177,0,0,1,4.443,3.91Z" transform="translate(-44.193 -16.593)" fill="#d3d3d3"/>
          <rect id="Rectangle_695" data-name="Rectangle 695" width="289.853" height="9.241" transform="translate(6.03 30.124) rotate(-3.334)" fill="#f2f2f2"/>
          <rect id="Rectangle_696" data-name="Rectangle 696" width="4.798" height="4.798" transform="translate(5.565 22.19) rotate(-3.327)" fill="#f9f4ea"/>
          <rect id="Rectangle_697" data-name="Rectangle 697" width="4.798" height="4.798" transform="translate(14.094 21.662) rotate(-3.338)" fill="#f9f4ea"/>
          <rect id="Rectangle_698" data-name="Rectangle 698" width="4.798" height="4.798" transform="translate(22.623 21.133) rotate(-3.338)" fill="#f9f4ea"/>
        </g>
        <path id="Path_29570" data-name="Path 29570" d="M63.231,90.815a4.072,4.072,0,0,1-4.087-3.732L57.9,65.757a4.036,4.036,0,0,1,1.066-2.843,4.388,4.388,0,0,1,2.843-1.422l125.644-7.286a4.105,4.105,0,0,1,4.265,3.732l1.244,21.326a4.036,4.036,0,0,1-1.066,2.843,4.388,4.388,0,0,1-2.843,1.422L63.409,90.815Zm124.4-34.654h0L61.987,63.447a2.194,2.194,0,0,0-1.422.711,1.616,1.616,0,0,0-.711,1.422L61.1,86.9a2.134,2.134,0,0,0,2.133,1.955l125.644-7.286a2.194,2.194,0,0,0,1.422-.711,2.018,2.018,0,0,0,.533-1.422l-1.244-21.326A1.972,1.972,0,0,0,187.632,56.16Z" transform="translate(14.812 26.13)" fill="#bbceff"/>
        <path id="Path_29571" data-name="Path 29571" d="M64.437,111.115a4.072,4.072,0,0,1-4.087-3.732L59.105,86.057a4,4,0,0,1,3.732-4.265l125.644-7.286a4.105,4.105,0,0,1,4.265,3.732l1.244,21.326a4,4,0,0,1-3.732,4.265L64.614,111.115ZM188.659,76.46h0L63.015,83.747a2.134,2.134,0,0,0-1.955,2.133L62.3,107.2a2.134,2.134,0,0,0,2.133,1.955l125.644-7.286a2.134,2.134,0,0,0,1.955-2.133l-1.244-21.326A2.017,2.017,0,0,0,188.659,76.46Z" transform="translate(15.739 41.906)" fill="#bbceff"/>
        <path id="Path_29572" data-name="Path 29572" d="M184.843,101.878,59.021,99.746A3.04,3.04,0,0,1,56,96.547l.355-21.326a3.04,3.04,0,0,1,3.2-3.021l125.822,2.133a3.04,3.04,0,0,1,3.021,3.2l-.355,21.326A3.268,3.268,0,0,1,184.843,101.878Z" transform="translate(13.335 40.124)" fill="#f6f3ff"/>
        <path id="Path_29573" data-name="Path 29573" d="M65.531,131.492a3.617,3.617,0,0,1-2.666-1.066,4.388,4.388,0,0,1-1.422-2.843L60.2,106.257a4.036,4.036,0,0,1,1.066-2.843,4.388,4.388,0,0,1,2.843-1.422l125.644-7.286a4.105,4.105,0,0,1,4.265,3.732l1.244,21.326a4,4,0,0,1-3.732,4.265L65.887,131.315C65.709,131.492,65.709,131.492,65.531,131.492Zm124.4-34.654h0L64.287,104.124a2.194,2.194,0,0,0-1.422.711,2.018,2.018,0,0,0-.533,1.422l1.244,21.326a2.134,2.134,0,0,0,2.133,1.955l125.644-7.286a2.134,2.134,0,0,0,1.955-2.133l-1.244-21.326A2.134,2.134,0,0,0,189.932,96.838Z" transform="translate(16.599 57.605)" fill="#bbceff"/>
        <path id="Path_29574" data-name="Path 29574" d="M282.949,183.7l-118-6.753a6.382,6.382,0,0,1-6.042-6.753l8.886-155.145A6.382,6.382,0,0,1,174.543,9l118,6.753a6.382,6.382,0,0,1,6.042,6.753L289.7,177.655A6.382,6.382,0,0,1,282.949,183.7Z" transform="translate(93.3 -8.995)" fill="#46cccc" opacity="0.4"/>
        <path id="Path_29575" data-name="Path 29575" d="M66.731,151.787a3.617,3.617,0,0,1-2.666-1.066,4.388,4.388,0,0,1-1.422-2.843L61.4,126.551a4.036,4.036,0,0,1,1.066-2.843,4.388,4.388,0,0,1,2.843-1.422L190.954,115a4.036,4.036,0,0,1,2.843,1.066,4.388,4.388,0,0,1,1.422,2.843l1.244,21.326a4,4,0,0,1-3.732,4.265L67.087,151.787Zm124.4-34.654h0L65.487,124.419a2.194,2.194,0,0,0-1.422.711,2.018,2.018,0,0,0-.533,1.422l1.244,21.326a2.134,2.134,0,0,0,2.133,1.955l125.644-7.286a2.134,2.134,0,0,0,1.955-2.133l-1.244-21.326a2.194,2.194,0,0,0-.711-1.422A2.018,2.018,0,0,0,191.132,117.133Z" transform="translate(17.532 73.386)" fill="#bbceff"/>
        <g id="Group_2312" data-name="Group 2312" transform="translate(76.067 117.23)" opacity="0.6">
          <rect id="Rectangle_699" data-name="Rectangle 699" width="52.959" height="3.199" transform="translate(0.231 0) rotate(0.932)" fill="#7bcaff"/>
          <rect id="Rectangle_700" data-name="Rectangle 700" width="52.959" height="3.199" transform="translate(0.054 5.508) rotate(0.932)" fill="#7bcaff"/>
          <rect id="Rectangle_701" data-name="Rectangle 701" width="23.458" height="3.199" transform="translate(0.052 11.08) rotate(0.933)" fill="#7bcaff"/>
        </g>
        <rect id="Rectangle_702" data-name="Rectangle 702" width="14.395" height="14.395" transform="translate(161.16 118.612) rotate(0.933)" fill="#7bcaff" opacity="0.6"/>
        <rect id="Rectangle_703" data-name="Rectangle 703" width="14.395" height="14.395" transform="translate(177.865 118.967) rotate(0.933)" fill="#7bcaff" opacity="0.6"/>
        <g id="Group_2313" data-name="Group 2313" transform="translate(259.634 124.027)">
          <rect id="Rectangle_704" data-name="Rectangle 704" width="80.505" height="1.955" transform="translate(87.781 80.505) rotate(-89.523)" fill="#4c8"/>
          <rect id="Rectangle_705" data-name="Rectangle 705" width="27.013" height="1.955" transform="translate(0 79.773) rotate(-89.523)" fill="#edf4fc"/>
          <rect id="Rectangle_706" data-name="Rectangle 706" width="56.691" height="1.955" transform="translate(43.937 80.189) rotate(-89.522)" fill="#edf4fc"/>
          <path id="Path_29576" data-name="Path 29576" d="M252.135,136.27h0c-11.907-.178-17.594-13.151-23.1-25.591s-10.663-24.169-20.97-24.347h-.178c-10.307,0-15.639,11.729-21.326,23.991-5.687,12.44-11.551,25.235-23.281,25.235H163.1v-2.133h.178c10.307,0,15.639-11.729,21.326-23.991C190.29,97,196.155,84.2,207.884,84.2h.178c11.729.178,17.416,13.151,22.925,25.591s10.663,24.169,20.97,24.347h.178c10.307,0,15.639-11.729,21.326-23.992,5.687-12.44,11.551-25.235,23.281-25.235h.178v2.133h-.178c-10.307,0-15.639,11.729-21.326,23.991C269.729,123.475,263.864,136.27,252.135,136.27Z" transform="translate(-163.066 -74.578)" fill="#ffc550"/>
        </g>
        <g id="Group_2314" data-name="Group 2314" transform="translate(260.568 109.614)">
          <rect id="Rectangle_707" data-name="Rectangle 707" width="8.708" height="17.238" transform="translate(79.046 4.367) rotate(93.249)" fill="#a6edc8"/>
          <rect id="Rectangle_708" data-name="Rectangle 708" width="8.708" height="17.238" transform="translate(48.465 2.678) rotate(93.25)" fill="#a6edc8"/>
          <rect id="Rectangle_709" data-name="Rectangle 709" width="8.708" height="17.238" transform="translate(17.704 0.977) rotate(93.25)" fill="#a6edc8"/>
        </g>
        <rect id="Rectangle_710" data-name="Rectangle 710" width="53.492" height="4.265" transform="translate(92.001 167.907) rotate(-3.333)" fill="#7bcaff" opacity="0.5"/>
        <rect id="Rectangle_711" data-name="Rectangle 711" width="36.076" height="4.265" transform="translate(92.345 175.402) rotate(-3.337)" fill="#7bcaff" opacity="0.5"/>
        <rect id="Rectangle_712" data-name="Rectangle 712" width="9.063" height="4.265" transform="matrix(0.998, -0.058, 0.058, 0.998, 132.66, 173.005)" fill="#7bcaff" opacity="0.5"/>
        <rect id="Rectangle_713" data-name="Rectangle 713" width="53.492" height="4.265" transform="translate(87.914 96.642) rotate(-3.334)" fill="#7bcaff" opacity="0.5"/>
        <rect id="Rectangle_714" data-name="Rectangle 714" width="31.811" height="4.265" transform="translate(88.258 104.191) rotate(-3.334)" fill="#7bcaff" opacity="0.5"/>
        <rect id="Rectangle_715" data-name="Rectangle 715" width="33.766" height="4.265" transform="translate(124.336 102.108) rotate(-3.333)" fill="#7bcaff" opacity="0.5"/>
        <rect id="Rectangle_716" data-name="Rectangle 716" width="21.326" height="4.265" transform="translate(94.112 204.113) rotate(-3.331)" fill="#7bcaff" opacity="0.5"/>
        <rect id="Rectangle_717" data-name="Rectangle 717" width="21.326" height="4.265" transform="translate(119.34 202.519) rotate(-3.331)" fill="#7bcaff" opacity="0.5"/>
        <rect id="Rectangle_718" data-name="Rectangle 718" width="36.076" height="4.265" transform="translate(94.478 211.477) rotate(-3.337)" fill="#7bcaff" opacity="0.5"/>
        <rect id="Rectangle_719" data-name="Rectangle 719" width="35.543" height="4.265" transform="translate(134.64 209.15) rotate(-3.333)" fill="#7bcaff" opacity="0.5"/>
        <path id="Path_29577" data-name="Path 29577" d="M118.952,73.717a44.347,44.347,0,0,0-31.811-11.2,44.083,44.083,0,0,0-36.965,63.444,45.481,45.481,0,0,0,7.109,10.485L53.2,141.071l-.889-.889-1.244,1.244.889,16.527,8.53-10.485-.889-.889,4.087-4.621a44.131,44.131,0,0,0,28.434,8.353,44.7,44.7,0,0,0,30.389-14.75,43.7,43.7,0,0,0,11.018-31.811A42.337,42.337,0,0,0,118.952,73.717ZM113.976,128.1a32.224,32.224,0,1,1,8.175-23.458A33.025,33.025,0,0,1,113.976,128.1Z" transform="translate(5.297 32.565)" fill="#375e82" opacity="0.4"/>
        <g id="Group_2315" data-name="Group 2315" transform="translate(0 74.744)">
          <rect id="Rectangle_720" data-name="Rectangle 720" width="8.53" height="15.639" transform="translate(39.726 87.219) rotate(-138.332)" fill="#38464c"/>
          <path id="Path_29578" data-name="Path 29578" d="M19.5,139.584h0A7.488,7.488,0,0,0,30.34,138.7L60.2,102.264,51.844,94.8l-32.7,33.766A7.671,7.671,0,0,0,19.5,139.584Z" transform="translate(-16.985 -17.056)" fill="#676772"/>
          <path id="Path_29579" data-name="Path 29579" d="M36.229,94.949a38.182,38.182,0,0,0,40.341,35.9,38.906,38.906,0,0,0,23.458-9.774,35.6,35.6,0,0,0,5.865-6.753,31.077,31.077,0,0,0,2.843-4.8,37.416,37.416,0,0,0,3.91-16.172V90.328a38.169,38.169,0,0,0-40.341-35.9,17.509,17.509,0,0,0-3.021.355,37.655,37.655,0,0,0-15.461,5.687,40.877,40.877,0,0,0-10.485,9.952A38.025,38.025,0,0,0,36.229,94.949Z" transform="translate(-2.082 -48.483)" fill="#bde5f2" opacity="0.6"/>
          <path id="Path_29580" data-name="Path 29580" d="M46,60.287l55.092,49.049A37.416,37.416,0,0,0,105,93.164L61.461,54.6A37.655,37.655,0,0,0,46,60.287Z" transform="translate(5.564 -48.298)" fill="#e3fbff" opacity="0.3"/>
          <path id="Path_29581" data-name="Path 29581" d="M40.2,66.275l56.691,50.471a35.6,35.6,0,0,0,5.865-6.753L46.065,59.7A33.867,33.867,0,0,0,40.2,66.275Z" transform="translate(1.056 -44.334)" fill="#e3fbff" opacity="0.3"/>
          <path id="Path_29582" data-name="Path 29582" d="M76.856,139.283a44.075,44.075,0,0,1-32.877-73.4,44.4,44.4,0,0,1,30.389-14.75,43.444,43.444,0,0,1,31.811,11.018,44.4,44.4,0,0,1,14.75,30.389,44.215,44.215,0,0,1-44.073,46.739Zm.178-76.417H75.079A31.416,31.416,0,0,0,52.865,73.706,32.252,32.252,0,0,0,44.69,97.164a31.416,31.416,0,0,0,10.841,22.214,32.4,32.4,0,0,0,53.848-26.124A31.416,31.416,0,0,0,98.538,71.04,32.469,32.469,0,0,0,77.034,62.865Z" transform="translate(-4.678 -51.054)" fill="#375e82"/>
        </g>
        <g id="Group_2320" data-name="Group 2320" transform="translate(263.577 18.484)">
          <g id="Group_2316" data-name="Group 2316" transform="translate(26.455)">
            <path id="Path_29583" data-name="Path 29583" d="M194.3,80.788a43.479,43.479,0,0,0,60.245-27.724L233.753,47.2a21.873,21.873,0,0,1-22.214,15.994,24.016,24.016,0,0,1-8-1.955Z" transform="translate(-169.218 2.211)" fill="#ffc550"/>
            <path id="Path_29584" data-name="Path 29584" d="M191.229,91.911l1.066,1.066,15.639-14.928a21.553,21.553,0,0,1-6.042-16.35,21.842,21.842,0,0,1,41.941-7.286l19.9-8.53a38.885,38.885,0,0,0-7.642-11.907,43.486,43.486,0,1,0-64.866,57.935Z" transform="translate(-180.186 -19.396)" fill="#edf4fc"/>
            <path id="Path_29585" data-name="Path 29585" d="M217.6,52.527a35.962,35.962,0,0,1-.711,4.621l20.793,5.865A42.836,42.836,0,0,0,235.9,34.4L216,42.753A22.661,22.661,0,0,1,217.6,52.527Z" transform="translate(-152.354 -7.736)" fill="#4c8"/>
            <path id="Path_29586" data-name="Path 29586" d="M186.9,67.406a44.809,44.809,0,0,0,13.151,9.419L209.292,57.1a21.593,21.593,0,0,1-6.575-4.8Z" transform="translate(-174.969 6.175)" fill="#d1d9fe"/>
          </g>
          <g id="Group_2317" data-name="Group 2317" transform="translate(2.469 13.143)">
            <path id="Path_29587" data-name="Path 29587" d="M169.6,27.162a7.879,7.879,0,0,1,8.175,2.133,6.61,6.61,0,0,1,1.777,3.91l-3.732.533a3.78,3.78,0,0,0-3.554-3.2,3.464,3.464,0,0,0-1.422.178Z" transform="translate(-164.428 -26.792)" fill="#edf4fc"/>
            <path id="Path_29588" data-name="Path 29588" d="M169.2,27.978l.178-.178,2.488,2.843a4.89,4.89,0,0,0-1.422,2.666,3.8,3.8,0,0,0,3.554,4.087,4.1,4.1,0,0,0,3.554-1.955l3.377,1.955a5.555,5.555,0,0,1-1.6,1.955,7.785,7.785,0,0,1-10.841-.533A7.96,7.96,0,0,1,169.2,27.978Z" transform="translate(-166.689 -26.008)" fill="#ffc550"/>
            <path id="Path_29589" data-name="Path 29589" d="M173.433,31.822v-.889l3.732-.533a7.017,7.017,0,0,1-.889,4.976L172.9,33.421A16.781,16.781,0,0,0,173.433,31.822Z" transform="translate(-161.863 -23.987)" fill="#ffc550"/>
            <path id="Path_29590" data-name="Path 29590" d="M168.2,28.422A6.973,6.973,0,0,1,170.688,27l1.244,3.554a2.864,2.864,0,0,0-1.244.711Z" transform="translate(-165.516 -26.63)" fill="#4c8"/>
          </g>
          <g id="Group_2318" data-name="Group 2318" transform="translate(0 59.179)">
            <path id="Path_29591" data-name="Path 29591" d="M178.374,59.622a7.547,7.547,0,0,1-7.286,4.265A6.709,6.709,0,0,1,167,62.465l2.31-3.021a4.005,4.005,0,0,0,4.8-.178A4.712,4.712,0,0,0,175,58.2Z" transform="translate(-163.979 -48.419)" fill="#4c8"/>
            <path id="Path_29592" data-name="Path 29592" d="M180.36,60.878v.178l-3.732-.355a3.278,3.278,0,0,0-.889-2.843,3.721,3.721,0,0,0-5.331-.355,3.651,3.651,0,0,0-1.066,3.91l-3.732,1.066a5.706,5.706,0,0,1-.178-2.488,7.482,7.482,0,1,1,14.928.889Z" transform="translate(-165.254 -52.696)" fill="#d1d9fe"/>
            <path id="Path_29593" data-name="Path 29593" d="M169.921,59.2l.533.533-2.31,3.021a7.222,7.222,0,0,1-2.843-4.087l3.732-1.066A3.436,3.436,0,0,0,169.921,59.2Z" transform="translate(-165.3 -48.885)" fill="#edf4fc"/>
            <path id="Path_29594" data-name="Path 29594" d="M175.587,57.733a6.589,6.589,0,0,1-.711,2.666L171.5,58.622a3.348,3.348,0,0,0,.355-1.422Z" transform="translate(-160.482 -49.196)" fill="#ffc550"/>
          </g>
          <g id="Group_2319" data-name="Group 2319" transform="translate(1.054 36.438)">
            <path id="Path_29595" data-name="Path 29595" d="M170.171,52.874a7.547,7.547,0,0,1-4.265-7.286,6.709,6.709,0,0,1,1.422-4.087l3.021,2.31a4.005,4.005,0,0,0,.178,4.8,4.711,4.711,0,0,0,1.066.889Z" transform="translate(-165.893 -38.657)" fill="#d1d9fe"/>
            <path id="Path_29596" data-name="Path 29596" d="M170.7,54.96h-.178l.355-3.732a3.278,3.278,0,0,0,2.843-.889,3.721,3.721,0,0,0,.355-5.331,3.651,3.651,0,0,0-3.91-1.066L169.1,40.21a5.705,5.705,0,0,1,2.488-.178,7.7,7.7,0,0,1,7.286,8A7.837,7.837,0,0,1,170.7,54.96Z" transform="translate(-163.401 -39.854)" fill="#4c8"/>
            <path id="Path_29597" data-name="Path 29597" d="M170.354,44.521l-.533.533-3.021-2.31a7.222,7.222,0,0,1,4.087-2.843l1.066,3.732A3.632,3.632,0,0,0,170.354,44.521Z" transform="translate(-165.188 -39.9)" fill="#ffc550"/>
            <path id="Path_29598" data-name="Path 29598" d="M171.066,50.187a6.589,6.589,0,0,1-2.666-.711l1.777-3.377a3.348,3.348,0,0,0,1.422.355Z" transform="translate(-163.945 -35.082)" fill="#edf4fc"/>
          </g>
        </g>
      </g>
      <g id="Group_2324" data-name="Group 2324" transform="translate(288.537 207.678)">
        <path id="Path_29599" data-name="Path 29599" d="M234.89,147.991,223.516,176.07a2.816,2.816,0,0,1-3.91,1.6L181.22,162.209a2.816,2.816,0,0,1-1.6-3.91l11.374-28.079a2.816,2.816,0,0,1,3.91-1.6l38.386,15.461A2.816,2.816,0,0,1,234.89,147.991Z" transform="translate(-179.345 -123.921)" fill="#abb2b7" opacity="0.5"/>
        <path id="Path_29600" data-name="Path 29600" d="M235.657,145.115l-9.774,28.612a2.836,2.836,0,0,1-3.732,1.777L183.054,162a2.836,2.836,0,0,1-1.777-3.732l9.774-28.612a2.836,2.836,0,0,1,3.732-1.777l39.1,13.506A3.055,3.055,0,0,1,235.657,145.115Z" transform="translate(-177.98 -124.421)" fill="#cad3db" opacity="0.5"/>
        <path id="Path_29601" data-name="Path 29601" d="M236.9,141.329l-8,29.145a2.991,2.991,0,0,1-3.554,2.133l-39.986-10.841a2.991,2.991,0,0,1-2.133-3.554l8-29.145a2.991,2.991,0,0,1,3.554-2.133l39.986,10.841A2.735,2.735,0,0,1,236.9,141.329Z" transform="translate(-176.383 -125.078)" fill="#edf4fc"/>
        <path id="Path_29602" data-name="Path 29602" d="M234.15,141.407l-1.777,6.4L186.7,135.364l1.777-6.4a2.991,2.991,0,0,1,3.554-2.133l39.986,10.841A2.968,2.968,0,0,1,234.15,141.407Z" transform="translate(-173.629 -125.156)" fill="#4c8"/>
        <rect id="Rectangle_721" data-name="Rectangle 721" width="47.272" height="2.133" transform="translate(13.123 10.391) rotate(15.272)" fill="#fff"/>
        <path id="Path_29603" data-name="Path 29603" d="M198.613,132.425a3.492,3.492,0,1,1-2.488-4.265A3.447,3.447,0,0,1,198.613,132.425Z" transform="translate(-169.725 -124.171)" fill="#32a066"/>
        <path id="Path_29604" data-name="Path 29604" d="M212.213,136.225a3.492,3.492,0,1,1-2.488-4.265A3.505,3.505,0,0,1,212.213,136.225Z" transform="translate(-159.156 -121.218)" fill="#32a066"/>
        <g id="Group_2323" data-name="Group 2323" transform="translate(22.944)">
          <g id="Group_2322" data-name="Group 2322">
            <path id="Path_29605" data-name="Path 29605" d="M194.823,135.709h-.711a2.493,2.493,0,0,1-1.777-3.021l1.422-4.976a2.582,2.582,0,0,1,3.021-1.777,2.493,2.493,0,0,1,1.777,3.021l-1.422,4.976A2.454,2.454,0,0,1,194.823,135.709Z" transform="translate(-192.256 -125.856)" fill="#ffc550"/>
            <path id="Path_29606" data-name="Path 29606" d="M208.423,139.487h-.711a2.493,2.493,0,0,1-1.777-3.021l1.422-5.154a2.478,2.478,0,0,1,4.8,1.244l-1.422,5.154A2.3,2.3,0,0,1,208.423,139.487Z" transform="translate(-181.686 -123.058)" fill="#ffc550"/>
          </g>
        </g>
        <rect id="Rectangle_722" data-name="Rectangle 722" width="4.621" height="3.91" transform="translate(16.87 17.492) rotate(15.272)" fill="#72edad"/>
        <rect id="Rectangle_723" data-name="Rectangle 723" width="4.621" height="3.91" transform="matrix(0.965, 0.264, -0.264, 0.965, 47.629, 25.87)" fill="#72edad"/>
        <rect id="Rectangle_724" data-name="Rectangle 724" width="4.621" height="3.91" transform="translate(39.986 23.739) rotate(15.272)" fill="#72edad"/>
        <rect id="Rectangle_725" data-name="Rectangle 725" width="4.621" height="3.91" transform="translate(32.135 21.74) rotate(15.272)" fill="#72edad"/>
        <rect id="Rectangle_726" data-name="Rectangle 726" width="4.621" height="3.91" transform="translate(24.502 19.616) rotate(15.272)" fill="#72edad"/>
        <rect id="Rectangle_727" data-name="Rectangle 727" width="4.621" height="3.91" transform="translate(15.291 23.557) rotate(15.272)" fill="#72edad"/>
        <rect id="Rectangle_728" data-name="Rectangle 728" width="4.621" height="3.91" transform="translate(45.822 32.052) rotate(15.272)" fill="#72edad"/>
        <rect id="Rectangle_729" data-name="Rectangle 729" width="4.621" height="3.91" transform="translate(38.189 29.929) rotate(15.272)" fill="#72edad"/>
        <rect id="Rectangle_730" data-name="Rectangle 730" width="4.621" height="3.91" transform="matrix(0.965, 0.264, -0.264, 0.965, 30.565, 27.812)" fill="#72edad"/>
        <rect id="Rectangle_731" data-name="Rectangle 731" width="4.621" height="3.91" transform="translate(22.924 25.681) rotate(15.272)" fill="#72edad"/>
        <rect id="Rectangle_732" data-name="Rectangle 732" width="4.621" height="3.91" transform="matrix(0.965, 0.264, -0.264, 0.965, 13.502, 29.755)" fill="#72edad"/>
        <rect id="Rectangle_733" data-name="Rectangle 733" width="4.621" height="3.91" transform="translate(44.243 38.118) rotate(15.272)" fill="#72edad"/>
        <rect id="Rectangle_734" data-name="Rectangle 734" width="4.621" height="3.91" transform="matrix(0.965, 0.264, -0.264, 0.965, 36.616, 36.004)" fill="#72edad"/>
        <rect id="Rectangle_735" data-name="Rectangle 735" width="4.621" height="3.91" transform="translate(28.931 34.042) rotate(15.272)" fill="#72edad"/>
        <rect id="Rectangle_736" data-name="Rectangle 736" width="4.621" height="3.91" transform="translate(21.126 31.871) rotate(15.272)" fill="#72edad"/>
      </g>
      <g id="Group_2325" data-name="Group 2325" transform="translate(27.629 202.758)">
        <path id="Path_29607" data-name="Path 29607" d="M33.51,134.128l3.554,18.66a2.979,2.979,0,0,0,3.377,2.31l38.92-7.642a2.979,2.979,0,0,0,2.31-3.377l-3.554-18.66a2.979,2.979,0,0,0-3.377-2.31l-38.92,7.642A3.084,3.084,0,0,0,33.51,134.128Z" transform="translate(-31.789 -123.087)" fill="#ffc550"/>
        <path id="Path_29608" data-name="Path 29608" d="M33.51,134.128l.178,1.066,21.326,8.175a6.345,6.345,0,0,0,6.575-1.244l16.705-15.639-.178-1.066a2.979,2.979,0,0,0-3.377-2.31l-38.92,7.642A3.084,3.084,0,0,0,33.51,134.128Z" transform="translate(-31.789 -123.087)" fill="#ffe1ab"/>
        <path id="Path_29609" data-name="Path 29609" d="M32.653,145.306a7.145,7.145,0,1,0,5.687-8.353A7.3,7.3,0,0,0,32.653,145.306Z" transform="translate(-32.532 -112.406)" fill="#4c8"/>
      </g>
      <g id="Group_2326" data-name="Group 2326" transform="translate(101.502 236.547)">
        <path id="Path_29610" data-name="Path 29610" d="M102,170.179,90.45,181.73,78.9,170.179A16.462,16.462,0,1,1,102.179,146.9,16.685,16.685,0,0,1,102,170.179Z" transform="translate(-74.1 -142.1)" fill="#4c8"/>
        <path id="Path_29611" data-name="Path 29611" d="M89.7,157.8a5.655,5.655,0,1,1,0-8A5.8,5.8,0,0,1,89.7,157.8Z" transform="translate(-69.437 -137.359)" fill="#2aa866"/>
      </g>
      <g id="Group_2327" data-name="Group 2327" transform="translate(152.433 58.832)" opacity="0.4">
        <path id="Path_29612" data-name="Path 29612" d="M170.186,110.165a12.708,12.708,0,0,0-1.777-5.687c-3.2-6.931-10.307-17.061-14.928-23.458l-.533-.533a3.015,3.015,0,0,0-2.843-1.6h-7.819a24.737,24.737,0,0,0,.178-6.22,15.2,15.2,0,0,0,6.042-6.042,2.009,2.009,0,0,0,1.955-.355,5.092,5.092,0,0,0,1.777-3.91,5.37,5.37,0,0,0-.889-2.843,14.168,14.168,0,0,0,.533-2.666c.178-3.2,0-6.753-4.087-8.353,1.6-2.488-4.621-7.819-9.774-6.042-11.907,4.087-12.085-.355-12.085-.355-5.154,1.6-5.687,6.22-3.377,8.353a9.436,9.436,0,0,0-1.244,6.22c0,.355.178.889.178,1.6,0,.533-.178,1.066-.178,1.6A14.164,14.164,0,0,0,133.4,73.911a19.548,19.548,0,0,1-.355,4.8H123.8a3.109,3.109,0,0,0-2.488,1.244,3.877,3.877,0,0,0-.889.711c-4.976,6.042-16.705,20.437-17.594,25.591-.711,3.91,3.91,13.862,8.353,22.57a2.257,2.257,0,0,1-1.244.711,3.765,3.765,0,0,0-2.31,4.8,3.625,3.625,0,0,0,3.554,2.488,3.024,3.024,0,0,0,1.244-.178,12.784,12.784,0,0,0,3.732-2.133c-.178,3.377-.178,5.331-.178,5.331s-.355,10.13.355,20.437c.178,4.087,1.422,35.01,3.2,46.917.889,5.331,2.31,14.573,3.554,23.636l12.8-.711c-1.422-9.241-3.021-19.371-3.732-24.88-1.6-10.485-2.843-38.386-3.2-44.606h5.687c.178,5.154,1.6,35.01,3.2,46.561.711,4.976,2.133,13.862,3.554,22.57l12.8-.711c-1.422-9.063-2.843-18.482-3.732-23.814-1.777-11.729-3.2-45.495-3.2-45.85v-.711c1.066-3.021,2.31-9.241.711-19.015a40.2,40.2,0,0,1-.178-4.8,13.888,13.888,0,0,0,3.554,1.955,3.025,3.025,0,0,0,1.244.178,3.865,3.865,0,0,0,3.554-2.488,3.765,3.765,0,0,0-2.31-4.8h-.178c2.133-1.955,3.91-3.732,5.687-5.331C170.186,114.252,170.186,111.231,170.186,110.165Zm-53.492,12.973c-3.2-6.575-6.22-13.329-6.4-15.283.533-1.777,4.087-6.931,8.353-12.618C117.938,103.767,117.227,114.43,116.694,123.138Zm31.456,1.955c.711-10.663,2.31-23.458,3.732-33.055,5.331,7.642,9.952,15.283,10.485,17.771C161.3,112.12,154.725,118.873,148.149,125.093Z" transform="translate(-102.759 -42.1)" fill="#375e82"/>
        <path id="Path_29613" data-name="Path 29613" d="M183.746,142.877a22.909,22.909,0,0,1-2.133-1.066c2.843-4.265,7.819-13.862,6.4-24.88-.889-7.819-13.151-21.5-14.573-23.1a2.589,2.589,0,0,0-2.133-.889,2.254,2.254,0,0,0-1.066-.178h-9.952a27.515,27.515,0,0,1,.178-3.91,14.5,14.5,0,0,0,14.039-14.395s4.087-11.374-10.663-16.527l-1.6-.533a7.784,7.784,0,0,0-2.488-3.377c-5.687-5.154-16.35-2.133-18.66,5.509-2.133,7.109.533,9.774,3.2,14.573a4.484,4.484,0,0,0-1.066,3.021,5.111,5.111,0,0,0,1.6,3.554.55.55,0,0,0,.355.178,25.427,25.427,0,0,1-3.2,8,24.615,24.615,0,0,0,9.063-2.843,16.722,16.722,0,0,0,3.91,2.133,37.273,37.273,0,0,0-.178,4.8h-6.042a2.943,2.943,0,0,0-2.133.889l-.178.178-.178.178a.174.174,0,0,1-.178.178c-.178.355-1.066,1.6-2.133,3.2-3.021,4.8-8.53,13.684-9.241,19.371a3.469,3.469,0,0,1-.178,1.244c-.711,10.841,7.286,20.082,11.729,24.347a10.477,10.477,0,0,1-1.422.711,2.756,2.756,0,0,0,1.066,5.331,2.254,2.254,0,0,0,1.066-.178c.178,0,.355-.178.889-.355-3.2,15.283,1.955,39.1,1.955,39.1h.533c-.355,5.331-.711,10.13-1.066,13.329-.711,4.8-2.488,13.151-4.265,21.326l9.774-.533c1.6-7.642,3.021-14.928,3.732-19.371.533-3.554.889-8.886,1.244-14.75H165.8c-.355,5.331-.889,10.13-1.422,13.329-.711,4.621-1.955,12.44-3.2,20.437l9.774-.533c1.066-7.286,2.133-14.217,2.843-18.482.533-3.554,1.066-8.886,1.422-14.75h.889c.889-4.087,1.777-28.079,2.133-40.341a21.3,21.3,0,0,0,3.377,1.6,2.254,2.254,0,0,0,1.066.178,3.111,3.111,0,0,0,2.666-1.777A3.026,3.026,0,0,0,183.746,142.877Zm-32.522-3.91c-3.554-3.2-12.085-12.085-10.841-21.681.355-3.554,3.554-9.241,6.4-14.039C149.092,114.8,151.935,128.127,151.225,138.968Zm23.991-34.3c3.554,4.8,6.931,9.952,7.286,12.8a31.259,31.259,0,0,1-4.265,18.838C177.882,130.26,176.816,115.687,175.216,104.669Z" transform="translate(-78.111 -34.827)" fill="#375e82"/>
      </g>
      <g id="Group_2336" data-name="Group 2336" transform="translate(137.678 44.97)">
        <path id="Path_29614" data-name="Path 29614" d="M99.143,178.087H217.857a2.807,2.807,0,0,0,2.843-2.843h0a2.807,2.807,0,0,0-2.843-2.843H99.143a2.807,2.807,0,0,0-2.843,2.843h0A2.807,2.807,0,0,0,99.143,178.087Z" transform="translate(-93.024 73.024)" fill="#e2e2e2"/>
        <g id="Group_2331" data-name="Group 2331">
          <g id="Group_2328" data-name="Group 2328" transform="translate(42.058 227.653)">
            <path id="Path_29615" data-name="Path 29615" d="M130.009,174.84l-1.422-11.729L122.9,162.4l2.666,12.262Z" transform="translate(-114.409 -162.4)" fill="#d6ddea"/>
            <path id="Path_29616" data-name="Path 29616" d="M128.212,168.731a1.358,1.358,0,0,0-.889.355c-1.955,1.6-4.087,3.554-7.464,4.443-3.021.889-1.777,2.31,1.244,2.31,4.443,0,6.22-.178,8.175-.178s.711.178,5.509.178c2.31,0,1.422-4.443.355-6.931a1.467,1.467,0,0,0-1.777-.889Z" transform="translate(-118.122 -158.068)" fill="#4c8"/>
          </g>
          <g id="Group_2329" data-name="Group 2329" transform="translate(14.796 227.653)">
            <path id="Path_29617" data-name="Path 29617" d="M116.631,174.84l-1.422-11.729L109.7,162.4l2.666,12.262Z" transform="translate(-97.406 -162.4)" fill="#d6ddea"/>
            <path id="Path_29618" data-name="Path 29618" d="M116.676,168.731a1.358,1.358,0,0,0-.889.355c-1.955,1.6-7.642,4.443-10.663,4.8-3.2.533-3.377,1.955,1.066,1.955s7.642-.355,9.774-.355c1.955,0,1.422.355,6.4.355,3.732,0,2.488-4.8,1.244-6.931a1.467,1.467,0,0,0-1.777-.889Z" transform="translate(-102.782 -158.068)" fill="#4c8"/>
          </g>
          <path id="Path_29619" data-name="Path 29619" d="M113.167,38.013c3.2-.533,9.419,6.042,1.777,15.817-5.509,6.931-8.353-1.955-8.708-5.865C105.881,43.878,106.414,39.257,113.167,38.013Z" transform="translate(-85.366 -31.438)" fill="#31af6d"/>
          <path id="Path_29620" data-name="Path 29620" d="M120.48,59.047a4.263,4.263,0,0,0-6.042.533c-5.687,6.753-18.838,23.1-19.9,28.79-.889,4.8,6.042,17.771,12.085,27.9l5.331-3.2c-6.931-9.952-7.286-19.015-8.886-23.281,1.066-3.2,10.485-13.506,18.482-23.1C122.968,64.911,122.257,60.468,120.48,59.047Z" transform="translate(-94.456 -15.862)" fill="#40f"/>
          <path id="Path_29621" data-name="Path 29621" d="M101.407,100.668a5.921,5.921,0,0,1-3.732-3.377c-1.955-4.976,1.066-3.554,3.377-4.265,1.066-.355,2.666-3.021,3.377-3.732a4.023,4.023,0,0,1,5.687-.711c1.777,1.6,1.422,3.91.533,6.042a9.952,9.952,0,0,1-4.8,5.687A5.571,5.571,0,0,1,101.407,100.668Z" transform="translate(-92.444 7.205)" fill="#ffaf84"/>
          <path id="Path_29622" data-name="Path 29622" d="M126.272,59.427c0,3.732-.533,8.175-2.488,11.374-2.666,4.087-3.2,4.976-3.2,5.154a5.067,5.067,0,0,1-4.443,2.488,5.015,5.015,0,0,1-2.666-.711A5.125,5.125,0,0,1,111.7,70.8s.355-.711,3.377-5.331c.533-.711.711-2.31.889-3.91a41.121,41.121,0,0,0-.178-6.753,5.027,5.027,0,1,1,9.952-1.422C126.094,54.1,126.272,56.584,126.272,59.427Z" transform="translate(-81.588 -22.818)" fill="#ffaf84"/>
          <path id="Path_29623" data-name="Path 29623" d="M145.174,61.865c-2.488,14.395-7.464,50.471-6.4,65.044H102.7s2.133-53.492,5.687-66.643a3.425,3.425,0,0,1,3.377-2.666H141.62A3.65,3.65,0,0,1,145.174,61.865Z" transform="translate(-88.05 -16.192)" fill="#40f"/>
          <path id="Path_29624" data-name="Path 29624" d="M137.346,120.058s4.443-8,1.6-23.458H102.869a221.941,221.941,0,0,0,.355,23.458Z" transform="translate(-88.042 14.116)" fill="#2e2947"/>
          <path id="Path_29625" data-name="Path 29625" d="M133.418,164.733c-1.955-13.151-1.422-52.6-2.31-57.046-.711-3.91-6.753-3.732-10.841-3.554-3.91.178-7.642,5.509-7.464,9.419,0,1.6,4.8,39.275,6.931,53.314,1.6,10.13,8.175,36.609,10.663,48.338l9.063-1.066C137.683,202.409,135.017,174.863,133.418,164.733Z" transform="translate(-80.203 19.912)" fill="#2e2947"/>
          <path id="Path_29626" data-name="Path 29626" d="M120.852,163.85c-1.066-13.506-1.6-51.893-1.6-52.248-.178-3.91-5.509-6.575-9.419-6.4a7.286,7.286,0,0,0-6.931,7.464c0,1.6,1.6,39.275,3.732,53.314,1.6,10.13,5.154,37.5,8.175,49.4l8.175-1.066C121.03,202.414,121.741,173.979,120.852,163.85Z" transform="translate(-87.898 20.796)" fill="#2e2947"/>
          <path id="Path_29627" data-name="Path 29627" d="M130.819,59.767a4.278,4.278,0,0,0-6.042-.889c-1.955,1.422-2.488,5.154-1.066,7.109,7.642,10.485,15.639,22.925,16.527,26.479-7.642,6.22-4.087,10.307-18.838,20.259l3.732,4.8C146.1,99.93,149.3,94.066,149.3,92.466,149.657,86.6,137.927,69.541,130.819,59.767Z" transform="translate(-73.517 -15.871)" fill="#40f"/>
          <path id="Path_29628" data-name="Path 29628" d="M124.2,59.5a15.578,15.578,0,0,1-8.175,2.133,8.652,8.652,0,0,1-2.133-.178,41.121,41.121,0,0,0-.178-6.753,5.027,5.027,0,0,1,9.952-1.422A23.718,23.718,0,0,1,124.2,59.5Z" transform="translate(-79.521 -22.896)" fill="#ed8c62"/>
          <path id="Path_29629" data-name="Path 29629" d="M106.7,52.95c0,8.886,6.575,16.527,15.461,16.527,7.642,0,16.172-7.819,16.172-16.705A16.231,16.231,0,0,0,122.161,36.6C113.275,36.6,106.7,44.064,106.7,52.95Z" transform="translate(-84.941 -32.513)" fill="#ffaf84"/>
          <path id="Path_29630" data-name="Path 29630" d="M129.581,100.32a5.682,5.682,0,0,1-3.377-1.244,13.309,13.309,0,0,1-4.621-4.265,4.2,4.2,0,0,1,.711-5.865,4.263,4.263,0,0,1,6.042.533c.711.889,1.955,2.843,3.2,3.2,3.377.889,4.8,1.955,3.554,3.91C133.668,98.188,131.358,100.32,129.581,100.32Z" transform="translate(-74.056 7.375)" fill="#ffaf84"/>
          <path id="Path_29631" data-name="Path 29631" d="M124.091,38.012c-3.2-.533-10.13,7.109-.711,15.283,5.154,4.443,7.286-1.422,7.464-5.331C131.378,43.876,130.845,39.256,124.091,38.012Z" transform="translate(-75.676 -31.436)" fill="#4c8"/>
          <path id="Path_29632" data-name="Path 29632" d="M125.018,34.833c6.22-2.133,13.862,4.621,10.663,7.286-1.422,1.066-1.422.889-4.976,1.955s-18.482,2.133-22.037.355-3.732-8.175,2.843-10.13C111.512,34.3,111.512,39.454,125.018,34.833Z" transform="translate(-85.311 -34.3)" fill="#4c8"/>
          <path id="Path_29633" data-name="Path 29633" d="M128.365,49.277a5.932,5.932,0,0,1-2.133,4.443,2.283,2.283,0,0,1-3.732-1.777V46.611a2.283,2.283,0,0,1,3.732-1.777A5.932,5.932,0,0,1,128.365,49.277Z" transform="translate(-72.662 -26.529)" fill="#ffaf84"/>
          <path id="Path_29634" data-name="Path 29634" d="M127.582,73.83l-8-8.886a1.662,1.662,0,0,0-2.31-.178L107.5,73.83h4.087l-.711,7.819a1.634,1.634,0,0,0,1.6,1.777h8.53a1.556,1.556,0,0,0,1.6-1.422l.711-8.175Z" transform="translate(-84.32 -10.919)" fill="#edf4fc"/>
          <path id="Path_29635" data-name="Path 29635" d="M111.571,57.6c-.889,2.843,1.955,4.621,6.753,3.91A24.619,24.619,0,0,0,128.1,57.6Z" transform="translate(-81.282 -16.192)" fill="#ffaf84"/>
          <g id="Group_2330" data-name="Group 2330" transform="translate(27.623 110.005)">
            <path id="Path_29636" data-name="Path 29636" d="M130.23,222.377c0-.355-6.4-40.519-7.286-53.492-1.066-13.506-2.843-47.983-2.843-53.314V96.2h.889v19.371c0,5.331,1.777,39.63,2.843,53.314.889,12.973,7.286,52.959,7.286,53.314Z" transform="translate(-102.151 -96.2)" fill="#454068"/>
            <rect id="Rectangle_737" data-name="Rectangle 737" width="0.889" height="24.347" transform="translate(3.91)" fill="#454068"/>
            <path id="Path_29637" data-name="Path 29637" d="M114.443,115.571A4.4,4.4,0,0,1,110,111.128V96.2h.889v14.928a3.565,3.565,0,0,0,3.554,3.554Z" transform="translate(-110 -96.2)" fill="#454068"/>
          </g>
        </g>
        <g id="Group_2335" data-name="Group 2335" transform="translate(77.424 18.692)">
          <path id="Path_29638" data-name="Path 29638" d="M163.537,47.629c-6.4-5.687-18.482-2.31-20.97,6.22s1.066,11.374,4.087,17.416c3.021,6.22-3.021,15.461-3.021,15.461s18.838-1.244,18.66-17.771C162.115,58.648,171.179,54.56,163.537,47.629Z" transform="translate(-135.143 -44.818)" fill="#370bd8"/>
          <g id="Group_2332" data-name="Group 2332" transform="translate(11.689 9.564)">
            <path id="Path_29639" data-name="Path 29639" d="M160.519,91.2a2.867,2.867,0,0,1-1.6.533,2.932,2.932,0,0,1-2.666-1.6s-.533-.889-3.2-5.154c-2.133-3.554-2.31-9.063-2.133-12.8.178-1.955.355-3.554.355-3.91a3.279,3.279,0,0,1,3.554-2.666,3.08,3.08,0,0,1,2.666,3.554,29.96,29.96,0,0,0-.355,4.443c0,3.021.178,6.22,1.244,8,2.843,4.621,3.377,5.331,3.377,5.331A3.222,3.222,0,0,1,160.519,91.2Z" transform="translate(-139.727 -38.24)" fill="#ffaf84"/>
            <path id="Path_29640" data-name="Path 29640" d="M163.971,112.087c0,1.244-.533,23.992-1.6,41.052v.533c-.355,4.8-.889,9.419-1.422,12.44C158.817,180.152,148.687,218,148.332,219.6l-3.732-.355c.178-.355.355-38.386,4.8-54.914.711-2.666.711-6.22,1.066-10.485v-.533c1.066-16.705,1.066-41.23,1.244-41.585a5.236,5.236,0,0,1,5.331-5.331h0C159.883,106.578,163.971,109.243,163.971,112.087Z" transform="translate(-144.6 -6.524)" fill="#ffaf84"/>
            <path id="Path_29641" data-name="Path 29641" d="M173.571,112.19c0,1.244-1.066,24.169-2.31,41.052v.178c-.355,4.976-.889,9.419-1.422,12.618-1.6,10.841-9.952,41.941-11.729,53.137l-3.91-.889c0-31.989,3.021-45.14,4.8-52.781.711-2.666.355-7.819.178-12.085v-.355c-.533-17.771.355-31.811.178-40.519.178-3.021,6.042-6.22,8.886-6.042A5.42,5.42,0,0,1,173.571,112.19Z" transform="translate(-137.139 -6.45)" fill="#ffaf84"/>
            <path id="Path_29642" data-name="Path 29642" d="M157.375,69.163a29.956,29.956,0,0,0-.355,4.443,13.942,13.942,0,0,1-6.22-1.422c.178-1.955.355-3.554.355-3.91a3.279,3.279,0,0,1,3.554-2.666A3.05,3.05,0,0,1,157.375,69.163Z" transform="translate(-139.782 -38.24)" fill="#ed8c62"/>
            <path id="Path_29643" data-name="Path 29643" d="M176.345,66.55c-1.422,9.063-6.042,17.594-15.106,17.594s-15.639-8-15.639-17.061S151.82,50.2,160.883,50.2C169.769,50.2,177.766,57.664,176.345,66.55Z" transform="translate(-143.823 -50.2)" fill="#ffaf84"/>
            <path id="Path_29644" data-name="Path 29644" d="M177.021,127.6c-1.6-.533-2.843.533-4.621-1.955,5.865-9.774,10.663-14.928,9.241-27.546-1.066-8.886-14.75-24.169-16.35-25.946a3.144,3.144,0,0,0-4.621,4.265c5.331,6.042,14.039,17.416,14.75,22.57,1.777,14.039-7.819,25.946-7.819,26.124a.174.174,0,0,1-.178.178c0,.178-.178.178-.178.355a.55.55,0,0,1-.178.355c0,.178,0,.178-.178.355v2.133c0,.178,0,.178.178.355,0,.178,0,.178.178.355l.178.178c0,.178.178.178.178.355l.178.178.178.178.178.178h0a20.766,20.766,0,0,0,4.976,3.2,2.635,2.635,0,0,0,1.244.178c1.244,0,3.554-1.066,4.087-2.31C178.8,128.84,178.62,128.129,177.021,127.6Z" transform="translate(-132.77 -33.94)" fill="#ffaf84"/>
            <path id="Path_29645" data-name="Path 29645" d="M161.406,112.009c0,1.244-.533,23.991-1.6,41.052v.533l-11.907.355v-.533c1.066-16.705,1.066-41.23,1.244-41.585a5.236,5.236,0,0,1,5.331-5.331h0C157.319,106.5,161.406,109.166,161.406,112.009Z" transform="translate(-142.035 -6.447)" fill="#ed8c62"/>
            <path id="Path_29646" data-name="Path 29646" d="M171.393,112.112c0,1.244-1.066,24.169-2.31,41.052l-11.907.355v-.355c-.533-17.771.355-31.811.178-40.519.178-3.021,6.042-6.22,8.886-6.042A5.137,5.137,0,0,1,171.393,112.112Z" transform="translate(-134.961 -6.372)" fill="#ed8c62"/>
            <path id="Path_29647" data-name="Path 29647" d="M149.154,153.992s-8.353-39.275,1.422-53.492H181.5s-1.066,47.094-2.488,53.492Z" transform="translate(-143.645 -11.11)" fill="#4c8"/>
          </g>
          <g id="Group_2334" data-name="Group 2334" transform="translate(12.222 46.884)">
            <path id="Path_29648" data-name="Path 29648" d="M181.887,121.493a8.062,8.062,0,0,0,.178,1.777H151.142a6.046,6.046,0,0,1,.178-1.777v-.533c0-2.133,0-4.443-.178-6.575v-.711c0-.889-.178-1.777-.178-2.488v-.711c-.178-2.133-.533-4.265-.889-6.4v-.533a13.719,13.719,0,0,1-.355-2.666v-.533c-.355-2.31-.711-4.443-1.244-6.753h0c-.178-1.066-.355-1.955-.533-3.021v-.178c-.355-2.133-.889-4.265-1.244-6.22,0-.355-.178-.533-.178-.889-.178-.711-.178-1.422-.355-1.955,0-.355-.178-.889-.178-1.244-.355-1.6-.533-3.2-.889-4.621V75.11a4.222,4.222,0,0,1,.533-2.133,3.733,3.733,0,0,1,3.2-1.777h24.525a3.971,3.971,0,0,1,3.2,1.777,1.357,1.357,0,0,1,.355.889c.178.355.178.889.355,1.422.355,1.244.533,2.488.889,4.087a8.3,8.3,0,0,1,1.777.889,6.131,6.131,0,0,1,1.6,1.422,3.687,3.687,0,0,1,1.066,1.777,2.526,2.526,0,0,1,.355,1.066,4.92,4.92,0,0,1,.178,1.6,7.776,7.776,0,0,1-1.422,4.443l-.178.178a5.409,5.409,0,0,1-1.422,1.422c0,.533.178,1.066.178,1.6v.178c.178,2.133.533,4.443.711,6.575v.533c0,.889.178,1.777.178,2.488v.711c.178,2.133.355,4.265.533,6.22v.889c0,.711.178,1.6.178,2.31v1.066c.178,2.488.355,4.621.355,6.22C181.887,120.96,181.887,121.316,181.887,121.493Z" transform="translate(-144.745 -71.2)" fill="#2e2947"/>
            <g id="Group_2333" data-name="Group 2333" transform="translate(0 3.484)">
              <path id="Path_29649" data-name="Path 29649" d="M179.245,102.155c-10.13-.178-20.437,0-30.567.533,0-2.133,0-4.443-.178-6.575V95.4c10.13-.533,20.082-.533,30.212-.355v1.066C179.067,98.423,179.067,100.556,179.245,102.155Z" transform="translate(-142.102 -56.235)" fill="#332f4f"/>
              <path id="Path_29650" data-name="Path 29650" d="M179,96.216c-10.13-.178-20.082-.178-30.212.178-.178-2.133-.533-4.265-.889-6.4v-.533c10.13-.355,20.259-.533,30.567-.178V90C178.645,92.128,178.822,94.261,179,96.216Z" transform="translate(-142.569 -60.78)" fill="#332f4f"/>
              <path id="Path_29651" data-name="Path 29651" d="M178.889,90.492c-10.307-.355-20.437-.355-30.745.178-.355-2.31-.711-4.443-1.244-6.753h0c10.307-.355,20.793-.355,31.278,0h0C178.356,86.049,178.711,88.182,178.889,90.492Z" transform="translate(-143.346 -65.009)" fill="#332f4f"/>
              <path id="Path_29652" data-name="Path 29652" d="M181.9,80.385a7.776,7.776,0,0,1-1.422,4.443l-.178.178q-16.527-.533-33.055,0v-.178c-.355-2.133-.889-4.265-1.244-6.22,11.907-.355,23.992-.355,35.9.178C181.721,79.141,181.9,79.675,181.9,80.385Z" transform="translate(-144.045 -69.119)" fill="#332f4f"/>
              <path id="Path_29653" data-name="Path 29653" d="M180.976,79.806c-11.729-.533-23.281-.533-35.01-.178,0-.355-.178-.889-.178-1.244-.355-1.6-.533-3.2-.889-4.621v-.355c10.663-.355,21.326-.355,31.989.178.355,1.244.533,2.666.889,4.087a8.3,8.3,0,0,1,1.777.889A3.161,3.161,0,0,1,180.976,79.806Z" transform="translate(-144.9 -73.161)" fill="#332f4f"/>
            </g>
          </g>
          <path id="Path_29654" data-name="Path 29654" d="M159.308,128.229c0-.178.178-.178.178-.355V126.63c0-.178,0-.355-.178-.355V126.1c0-.178-.178-.178-.178-.355a.174.174,0,0,0-.178-.178l-.178-.178-.178-.178h0l-.178-.178-.178-.178c-.178-.178-14.217-12.085-13.862-25.946.178-6.042,8.53-18.3,11.551-22.392a3.182,3.182,0,1,0-5.154-3.732c-1.244,1.6-11.551,16.705-12.618,25.413-1.6,12.8,11.2,23.1,16.35,28.079-2.133,1.955-3.554,1.244-4.8,1.422-1.777.178-1.777,1.6-1.422,3.2a3.524,3.524,0,0,0,1.066,2.31c1.066,1.422,2.666.711,3.2.533a27.375,27.375,0,0,0,6.042-3.91h0a.174.174,0,0,0,.178-.178l.355-.355h0c0-.711,0-.889.178-1.066Z" transform="translate(-138.023 -24.12)" fill="#ffaf84"/>
          <path id="Path_29655" data-name="Path 29655" d="M151.087,60.561c6.575,3.732,22.037,2.843,24.88,7.642,0,0,4.621-12.8-11.907-18.66C148.777,44.034,142.023,55.408,151.087,60.561Z" transform="translate(-131.045 -42.289)" fill="#40f"/>
          <path id="Path_29656" data-name="Path 29656" d="M154.384,51.564c4.265,1.6-1.955,15.461-8.708,15.461C142.654,67.025,142.3,47.3,154.384,51.564Z" transform="translate(-133.454 -40.045)" fill="#40f"/>
          <path id="Path_29657" data-name="Path 29657" d="M143.9,62.945a5.785,5.785,0,0,0,1.777,4.087,2.081,2.081,0,0,0,3.377-1.6v-4.8a2.037,2.037,0,0,0-3.377-1.6A5.092,5.092,0,0,0,143.9,62.945Z" transform="translate(-133.455 -34.188)" fill="#ffaf84"/>
          <path id="Path_29658" data-name="Path 29658" d="M150.711,146.918l-.711-.533L172.925,104.8l.711.355Z" transform="translate(-128.715 1.797)" fill="#35b773"/>
          <path id="Path_29659" data-name="Path 29659" d="M157.289,144.331l-.889-.178L168.84,107.9l.889.178Z" transform="translate(-123.741 4.206)" fill="#35b773"/>
          <path id="Path_29660" data-name="Path 29660" d="M148.9,71l.178.355a12.176,12.176,0,0,0,3.021,3.021,13.618,13.618,0,0,0,8,3.021,4.345,4.345,0,0,0,3.2-1.066c1.244-1.244,1.244-3.2,0-5.331H148.9Z" transform="translate(-129.569 -24.471)" fill="#fff"/>
          <path id="Path_29661" data-name="Path 29661" d="M149.5,71a19.533,19.533,0,0,0,2.666,2.843c3.554,2.666,8,3.554,9.6,1.955,1.066-1.066.889-2.843-.178-4.621H149.5Z" transform="translate(-129.103 -24.471)" fill="#ffaf84"/>
          <path id="Path_29662" data-name="Path 29662" d="M149.525,169.811a1.347,1.347,0,0,1,.711.355c1.422,1.066,3.021,2.666,5.331,3.2s1.422,1.6-.889,1.6c-3.2,0-4.443-.178-6.042,0h-4.087c-1.6,0-1.066-3.2-.178-5.154a1.19,1.19,0,0,1,1.244-.711Z" transform="translate(-133.749 51.767)" fill="#332f4f"/>
          <path id="Path_29663" data-name="Path 29663" d="M159.172,169.733a1.347,1.347,0,0,1,.711.355,25.225,25.225,0,0,0,7.642,3.554c2.31.355,2.488,1.422-.889,1.422-3.2,0-5.509-.355-7.109-.178-1.422,0-1.066.178-4.621.178-2.666,0-1.955-3.377-.889-5.154a1.342,1.342,0,0,1,1.244-.711Z" transform="translate(-126.335 51.845)" fill="#332f4f"/>
        </g>
      </g>
    </g>
  </g>
</svg>
