<svg xmlns="http://www.w3.org/2000/svg" xmlns:xlink="http://www.w3.org/1999/xlink" viewBox="0 0 43.35 54.22">
  <defs>
    <style>
      .cls-1 {
        fill: url(#linear-gradient);
      }
    </style>
    <linearGradient id="linear-gradient" x1="0.5" x2="0.5" y2="1" gradientUnits="objectBoundingBox">
      <stop offset="0" stop-color="#fa6849"/>
      <stop offset="1" stop-color="#f84656"/>
    </linearGradient>
  </defs>
  <g id="charity" transform="translate(-51.326)">
    <g id="Group_1100" data-name="Group 1100" transform="translate(51.326)">
      <g id="Group_1099" data-name="Group 1099" transform="translate(0)">
        <path id="Path_10187" data-name="Path 10187" class="cls-1" d="M62.343,35.39A3.57,3.57,0,0,0,65.822,32.7l1.9,1.9a3.614,3.614,0,1,0,5.111-5.112L71.2,27.853a3.6,3.6,0,0,0,1.631-6.037l-2.271-2.271a3.6,3.6,0,0,0,1.632-6.036L65.785,7.1V.9a.9.9,0,0,0-1.807,0V5.711a3.714,3.714,0,0,0-3.925.769,3.609,3.609,0,0,0-.67,4.15,3.517,3.517,0,0,0-1.887.963,3.609,3.609,0,0,0-.685,4.12,3.6,3.6,0,0,0-2.556,5.112,3.613,3.613,0,0,0-1.871,6.1l7.4,7.4A3.588,3.588,0,0,0,62.343,35.39ZM61.33,7.758a1.81,1.81,0,0,1,2.556,0l.355.355,6.674,6.674a1.807,1.807,0,0,1,0,2.556,1.851,1.851,0,0,1-2.556,0l-7.03-7.029A1.811,1.811,0,0,1,61.33,7.758Zm-2.557,5.113a1.807,1.807,0,0,1,2.556,0L71.554,23.094a1.808,1.808,0,0,1,0,2.556,1.851,1.851,0,0,1-2.556,0l-3.976-3.976-4.97-4.97,0,0-1.277-1.276A1.81,1.81,0,0,1,58.774,12.871Zm-2.556,5.111a1.81,1.81,0,0,1,2.555,0l4.972,4.972,7.809,7.81a1.807,1.807,0,0,1,0,2.556,1.851,1.851,0,0,1-2.556,0l-4.1-4.1,0,0-3.7-3.7-4.979-4.979A1.81,1.81,0,0,1,56.218,17.982Zm-3.085,6.39a1.808,1.808,0,0,1,3.085-1.278l.521.521L63.625,30.5a1.809,1.809,0,0,1,0,2.553,1.852,1.852,0,0,1-2.556,0l-7.4-7.4A1.8,1.8,0,0,1,53.133,24.372Z" transform="translate(-51.326)"/>
        <path id="Path_10188" data-name="Path 10188" class="cls-1" d="M380.766,22.592a.9.9,0,1,0,1.807,0,20.366,20.366,0,0,0-4.356-12.681,6.821,6.821,0,0,1-1.066-1.778V.9a.9.9,0,0,0-1.807,0V8.133c0,.846.586,1.675,1.4,2.822A18.51,18.51,0,0,1,380.766,22.592Z" transform="translate(-341.031)"/>
        <path id="Path_10189" data-name="Path 10189" class="cls-1" d="M171.695,477.867a.9.9,0,0,0-.9.9v1.807a.9.9,0,0,0,1.807,0v-1.807A.9.9,0,0,0,171.695,477.867Z" transform="translate(-158.14 -427.262)"/>
        <path id="Path_10190" data-name="Path 10190" class="cls-1" d="M103.887,175.363c-2.125-1.417-8.8-5.288-9.133-5.479a1.883,1.883,0,0,0-1.887.12,5.843,5.843,0,0,0-2.132,4.3c0,1.736,1.218,2.791,2.509,3.908.447.387.909.788,1.371,1.249l4.518,4.518a5.8,5.8,0,0,1,.621.668,2.666,2.666,0,0,1,.018.432A22.589,22.589,0,0,1,96.452,189l-9.968,9.064a2.25,2.25,0,0,1-1.171.642H77.18a1.807,1.807,0,0,1,0-3.615h6.326a3.979,3.979,0,0,0,2.446-1.168l6.326-6.326A.9.9,0,0,0,91,186.32l-6.323,6.323a2.25,2.25,0,0,1-1.171.642H74.469a1.807,1.807,0,0,1,0-3.615H81.7a.9.9,0,1,0,0-1.807h-9.94a1.807,1.807,0,0,1-1.347-3.012.9.9,0,1,0-1.346-1.206,3.6,3.6,0,0,0,2.313,5.988,3.576,3.576,0,0,0,2.711,5.422,3.571,3.571,0,0,0-.523,1.845,3.618,3.618,0,0,0,3.615,3.615h8.133a3.949,3.949,0,0,0,2.416-1.139l9.971-9.067c3.879-3.88,3.879-4.841,3.879-5.157,0-1.2-.147-1.425-1.168-2.446l-4.518-4.518c-.507-.508-1.017-.948-1.466-1.337-1.238-1.073-1.884-1.673-1.884-2.542,0-1.14.972-2.808,1.354-2.833.069.04,6.909,4.006,8.989,5.392a10.181,10.181,0,0,1,5.02,9.189c0,3.879-3.05,9.137-5.068,12.616-1.442,2.486-2.135,3.718-2.135,4.554v1.807a.9.9,0,1,0,1.807,0v-1.8a20.414,20.414,0,0,1,1.891-3.656c2.241-3.865,5.312-9.158,5.312-13.523A11.981,11.981,0,0,0,103.887,175.363Z" transform="translate(-66.362 -151.716)"/>
      </g>
    </g>
  </g>
</svg>
