<svg xmlns="http://www.w3.org/2000/svg" xmlns:xlink="http://www.w3.org/1999/xlink" width="192.646" height="108.979" viewBox="0 0 192.646 108.979">
  <defs>
    <linearGradient id="linear-gradient" y1="0.5" x2="0.999" y2="0.5" gradientUnits="objectBoundingBox">
      <stop offset="0" stop-color="#ef3d53"/>
      <stop offset="1" stop-color="#f05341"/>
    </linearGradient>
  </defs>
  <g id="Group_3054" data-name="Group 3054" transform="translate(-16045 -11716)">
    <g id="Group_3051" data-name="Group 3051" transform="translate(15689.713 11532)" opacity="0.1">
      <path id="Path_10175" data-name="Path 10175" d="M263.644,360.845l9.517-9.706a3.188,3.188,0,0,1,4.617,0l8.481,8.387a3.188,3.188,0,0,1,0,4.617l-9.612,9.612a3.188,3.188,0,0,1-4.617,0l-8.387-8.292A3.36,3.36,0,0,1,263.644,360.845Z" transform="translate(155.262 -145.254)" fill="#ef3b52"/>
      <path id="Path_10176" data-name="Path 10176" d="M197.236,379.826l50.791-50.791a3.471,3.471,0,0,1,4.994,0l9.235,9.141a3.556,3.556,0,0,1,.094,4.994l-12.627,13-.094.094-23.841,23.652a3.471,3.471,0,0,0,0,4.994l22.427,22.427a3.471,3.471,0,0,0,4.994,0l78.5-78.213a3.471,3.471,0,0,1,4.994,0L387.773,380.2a3.471,3.471,0,0,1,0,4.994l-51.074,50.7a3.471,3.471,0,0,1-4.994,0l-29.212-29.589a3.471,3.471,0,0,1,.094-4.994l8.952-8.669a3.555,3.555,0,0,1,4.994.094L331.517,408a3.583,3.583,0,0,0,5.089,0l22.616-23.087a3.646,3.646,0,0,0,0-4.994l-22.05-22.239a3.471,3.471,0,0,0-4.994,0l-79.155,78.213a3.471,3.471,0,0,1-4.994,0l-50.7-51.074A3.4,3.4,0,0,1,197.236,379.826Z" transform="translate(159.1 -143.975)" fill="url(#linear-gradient)"/>
      <g id="Group_1097" data-name="Group 1097" transform="translate(528.026 187.604)">
        <g id="Group_1095" data-name="Group 1095">
          <g id="Group_1094" data-name="Group 1094">
            <path id="Path_10185" data-name="Path 10185" d="M388.169,349.139a8.669,8.669,0,1,1,8.669-8.669A8.647,8.647,0,0,1,388.169,349.139Zm0-16.679a8.01,8.01,0,1,0,8.01,8.01A8,8,0,0,0,388.169,332.46Z" transform="translate(-379.5 -331.8)" fill="#fff"/>
          </g>
        </g>
        <g id="Group_1096" data-name="Group 1096" transform="translate(5.842 4.9)">
          <path id="Path_10186" data-name="Path 10186" d="M388.715,344.35a3.01,3.01,0,0,1-1.319-.283,1.882,1.882,0,0,1-.942-.754,4.235,4.235,0,0,1-.565-1.131,6.127,6.127,0,0,1,0-3.016,3.176,3.176,0,0,1,.565-1.131,3.692,3.692,0,0,1,.942-.754,3.01,3.01,0,0,1,1.319-.283,3.254,3.254,0,0,1,1.7.471,2.2,2.2,0,0,1,.942,1.131l-.942.471a1.5,1.5,0,0,0-.66-.848,1.9,1.9,0,0,0-1.037-.283,2.752,2.752,0,0,0-.848.188.966.966,0,0,0-.565.471,1.518,1.518,0,0,0-.377.66,2.607,2.607,0,0,0-.094.848v1.225a2.607,2.607,0,0,0,.471,1.508,1.778,1.778,0,0,0,1.413.565,1.921,1.921,0,0,0,1.885-1.225l.754.565a2.605,2.605,0,0,1-1.037,1.225A2.7,2.7,0,0,1,388.715,344.35Z" transform="translate(-385.7 -337)" fill="#fff"/>
        </g>
      </g>
    </g>
    <rect id="Rectangle_1119" data-name="Rectangle 1119" width="50" height="5" transform="translate(16045 11765)" fill="#465871" opacity="0.5"/>
  </g>
</svg>
