<svg xmlns="http://www.w3.org/2000/svg" xmlns:xlink="http://www.w3.org/1999/xlink" viewBox="0 0 269 57.98">
  <defs>
    <style>
      .cls-1 {
        fill: #fff;
      }

      .cls-2 {
        fill: #ef3b52;
      }

      .cls-3 {
        fill: url(#linear-gradient);
      }
    </style>
    <linearGradient id="linear-gradient" y1="0.5" x2="0.999" y2="0.5" gradientUnits="objectBoundingBox">
      <stop offset="0" stop-color="#ef3d53"/>
      <stop offset="1" stop-color="#f05341"/>
    </linearGradient>
  </defs>
  <g id="Group_14221" data-name="Group 14221" transform="translate(20446 -6041)">
    <g id="Group_14216" data-name="Group 14216" transform="translate(-20455.404 5578.9)">
      <path id="Path_10177" data-name="Path 10177" class="cls-1" d="M136.9,497.713V495.6h1.582v-8H136.9V485.5h5.843v2.109h-1.582v8h1.582v2.109Z" transform="translate(0 -0.224)"/>
      <path id="Path_10178" data-name="Path 10178" class="cls-1" d="M178.934,491.858l-1.186-2.46H177.7v8.259h-2.5V485.4h2.9l3.339,5.8,1.186,2.46h.044V485.4h2.5v12.257h-2.9Z" transform="translate(-21.474 -0.168)"/>
      <path id="Path_10179" data-name="Path 10179" class="cls-1" d="M224.1,497.657V485.4h8.127v2.372H226.78v2.5h4.657v2.372H226.78v5.008Z" transform="translate(-48.891 -0.168)"/>
      <path id="Path_10180" data-name="Path 10180" class="cls-1" d="M266.3,497.713V495.6h1.582v-8H266.3V485.5h5.843v2.109h-1.582v8h1.582v2.109Z" transform="translate(-72.552 -0.224)"/>
      <path id="Path_10181" data-name="Path 10181" class="cls-1" d="M307.657,497.708a5.8,5.8,0,0,1-2.724-.571,5.743,5.743,0,0,1-1.933-1.45l1.757-1.757a3.986,3.986,0,0,0,3.075,1.406,2.2,2.2,0,0,0,1.45-.4,1.337,1.337,0,0,0,.483-1.054,1.267,1.267,0,0,0-.264-.835,1.636,1.636,0,0,0-1.142-.439l-1.23-.176a4.785,4.785,0,0,1-2.856-1.186,3.348,3.348,0,0,1-.923-2.46,3.247,3.247,0,0,1,.308-1.494,3.942,3.942,0,0,1,.923-1.186,4.514,4.514,0,0,1,1.45-.747,6.635,6.635,0,0,1,1.933-.264,5.792,5.792,0,0,1,2.416.439,4.808,4.808,0,0,1,1.8,1.274l-1.757,1.8a3.848,3.848,0,0,0-1.054-.835,3.271,3.271,0,0,0-1.582-.308,2.081,2.081,0,0,0-1.318.308.976.976,0,0,0-.439.879,1.258,1.258,0,0,0,.351.923,2.623,2.623,0,0,0,1.1.4l1.23.176a5.06,5.06,0,0,1,2.812,1.186,3.213,3.213,0,0,1,.923,2.46,3.971,3.971,0,0,1-.308,1.626,3.8,3.8,0,0,1-.923,1.274,4.891,4.891,0,0,1-1.494.835A13.944,13.944,0,0,1,307.657,497.708Z" transform="translate(-93.129 0)"/>
      <path id="Path_10182" data-name="Path 10182" class="cls-1" d="M353.8,497.765a5.92,5.92,0,0,1-2.2-.4,4.629,4.629,0,0,1-1.713-1.186,5.379,5.379,0,0,1-1.1-1.977,8.669,8.669,0,0,1-.4-2.724,8.292,8.292,0,0,1,.4-2.724,5.379,5.379,0,0,1,1.1-1.977,4.629,4.629,0,0,1,1.713-1.186,6.3,6.3,0,0,1,4.393,0,4.629,4.629,0,0,1,1.713,1.186,5.378,5.378,0,0,1,1.1,1.977,8.669,8.669,0,0,1,.4,2.724,8.292,8.292,0,0,1-.4,2.724,5.378,5.378,0,0,1-1.1,1.977A4.629,4.629,0,0,1,356,497.369,5.92,5.92,0,0,1,353.8,497.765Zm0-2.372a2.36,2.36,0,0,0,1.889-.791,3.407,3.407,0,0,0,.659-2.241v-1.845a3.327,3.327,0,0,0-.659-2.241,2.652,2.652,0,0,0-3.778,0,3.407,3.407,0,0,0-.659,2.241v1.845a3.328,3.328,0,0,0,.659,2.241A2.3,2.3,0,0,0,353.8,495.392Z" transform="translate(-118.584 -0.056)"/>
      <path id="Path_10183" data-name="Path 10183" class="cls-1" d="M398,497.657V485.4h2.68v9.885h4.657v2.372Z" transform="translate(-146.393 -0.168)"/>
      <path id="Path_10184" data-name="Path 10184" class="cls-1" d="M442.157,497.708a5.8,5.8,0,0,1-2.724-.571,5.743,5.743,0,0,1-1.933-1.45l1.757-1.757a3.986,3.986,0,0,0,3.075,1.406,2.2,2.2,0,0,0,1.45-.4,1.337,1.337,0,0,0,.483-1.054,1.267,1.267,0,0,0-.264-.835,1.636,1.636,0,0,0-1.142-.439l-1.23-.176a4.785,4.785,0,0,1-2.856-1.186,3.348,3.348,0,0,1-.923-2.46,3.247,3.247,0,0,1,.308-1.494,3.942,3.942,0,0,1,.923-1.186,4.514,4.514,0,0,1,1.45-.747,6.635,6.635,0,0,1,1.933-.264,5.792,5.792,0,0,1,2.416.439,4.808,4.808,0,0,1,1.8,1.274l-1.757,1.8a3.848,3.848,0,0,0-1.054-.835,3.271,3.271,0,0,0-1.582-.308,2.081,2.081,0,0,0-1.318.308.976.976,0,0,0-.439.879,1.258,1.258,0,0,0,.351.923,2.623,2.623,0,0,0,1.1.4l1.23.176a5.06,5.06,0,0,1,2.812,1.186,3.213,3.213,0,0,1,.923,2.46,3.972,3.972,0,0,1-.308,1.626,3.8,3.8,0,0,1-.923,1.274,4.891,4.891,0,0,1-1.494.835A14.493,14.493,0,0,1,442.157,497.708Z" transform="translate(-168.54 0)"/>
    </g>
    <g id="Group_14217" data-name="Group 14217" transform="translate(-20801.287 5857)">
      <path id="Path_10175" data-name="Path 10175" class="cls-2" d="M263.214,355.84l5.064-5.164a1.7,1.7,0,0,1,2.457,0l4.512,4.462a1.7,1.7,0,0,1,0,2.457l-5.114,5.114a1.7,1.7,0,0,1-2.457,0l-4.462-4.412A1.787,1.787,0,0,1,263.214,355.84Z" transform="translate(125.92 -155.033)"/>
      <path id="Path_10176" data-name="Path 10176" class="cls-3" d="M196.745,355.561l27.022-27.022a1.847,1.847,0,0,1,2.657,0l4.913,4.863a1.892,1.892,0,0,1,.05,2.657l-6.718,6.918-.05.05-12.684,12.584a1.846,1.846,0,0,0,0,2.657L223.867,370.2a1.846,1.846,0,0,0,2.657,0l41.761-41.611a1.846,1.846,0,0,1,2.657,0l27.172,27.172a1.847,1.847,0,0,1,0,2.657l-27.172,26.972a1.846,1.846,0,0,1-2.657,0l-15.541-15.742a1.847,1.847,0,0,1,.05-2.657l4.763-4.612a1.891,1.891,0,0,1,2.657.05l7.971,8.122a1.906,1.906,0,0,0,2.707,0l12.032-12.283a1.94,1.94,0,0,0,0-2.657L271.194,343.78a1.847,1.847,0,0,0-2.657,0l-42.112,41.611a1.847,1.847,0,0,1-2.657,0L196.8,358.218A1.806,1.806,0,0,1,196.745,355.561Z" transform="translate(159.1 -143.975)"/>
      <g id="Group_1097" data-name="Group 1097" transform="translate(447.188 185.918)">
        <g id="Group_1095" data-name="Group 1095">
          <g id="Group_1094" data-name="Group 1094">
            <path id="Path_10185" data-name="Path 10185" class="cls-1" d="M384.112,341.025a4.612,4.612,0,1,1,4.612-4.612A4.6,4.6,0,0,1,384.112,341.025Zm0-8.874a4.261,4.261,0,1,0,4.261,4.261A4.258,4.258,0,0,0,384.112,332.151Z" transform="translate(-379.5 -331.8)"/>
          </g>
        </g>
        <g id="Group_1096" data-name="Group 1096" transform="translate(3.108 2.607)">
          <path id="Path_10186" data-name="Path 10186" class="cls-1" d="M387.3,340.91a1.6,1.6,0,0,1-.7-.15,1,1,0,0,1-.5-.4,2.253,2.253,0,0,1-.3-.6,3.259,3.259,0,0,1,0-1.6,1.689,1.689,0,0,1,.3-.6,1.963,1.963,0,0,1,.5-.4,1.6,1.6,0,0,1,.7-.15,1.731,1.731,0,0,1,.9.251,1.171,1.171,0,0,1,.5.6l-.5.251a.8.8,0,0,0-.351-.451,1.011,1.011,0,0,0-.551-.15,1.465,1.465,0,0,0-.451.1.514.514,0,0,0-.3.251.808.808,0,0,0-.2.351,1.387,1.387,0,0,0-.05.451v.652a1.387,1.387,0,0,0,.251.8.946.946,0,0,0,.752.3,1.022,1.022,0,0,0,1-.652l.4.3a1.386,1.386,0,0,1-.551.652A1.434,1.434,0,0,1,387.3,340.91Z" transform="translate(-385.7 -337)"/>
        </g>
      </g>
    </g>
  </g>
</svg>
