<svg xmlns="http://www.w3.org/2000/svg" width="85.316" height="112" viewBox="0 0 85.316 112">
  <g id="pdf" opacity="0.3">
    <path id="Path_10205" data-name="Path 10205" d="M29.8,0,0,29.8V112H85.316V0ZM27.88,11.2l0,16.675-16.674,0Zm50.874,94.235H6.563V34.443l27.877,0,0-27.877H78.753Zm0,0" fill="#fff"/>
    <path id="Path_10206" data-name="Path 10206" d="M76.333,222.336H67.457v18.435h6.216v-4.53h2.66c5.135,0,8.4-2.686,8.4-6.952S81.468,222.336,76.333,222.336Zm-.395,9.112H73.673v-4.319h2.265c1.712,0,2.528.817,2.528,2.16S77.649,231.448,75.938,231.448Zm0,0" transform="translate(-52.701 -173.7)" fill="#fff"/>
    <path id="Path_10207" data-name="Path 10207" d="M156.906,222.336v18.435h9.086c6.163,0,10.4-3.5,10.4-9.217s-4.24-9.217-10.4-9.217Zm13.221,9.217a4.06,4.06,0,0,1-4.4,4.372h-2.607v-8.744h2.607A4.06,4.06,0,0,1,170.127,231.553Zm0,0" transform="translate(-122.583 -173.7)" fill="#fff"/>
    <path id="Path_10208" data-name="Path 10208" d="M263.766,234.872h7.69v-4.688h-7.69v-3.161h8.77v-4.688H257.551v18.435h6.215Zm0,0" transform="translate(-201.212 -173.7)" fill="#fff"/>
  </g>
</svg>
