<svg xmlns="http://www.w3.org/2000/svg" width="53.306" height="30.155" viewBox="0 0 53.306 30.155">
  <g id="Group_1197" data-name="Group 1197" transform="translate(-355.287 -184)">
    <path id="Path_10175" data-name="Path 10175" d="M262.979,353.109l2.634-2.686a.882.882,0,0,1,1.278,0l2.347,2.321a.882.882,0,0,1,0,1.278l-2.66,2.66a.882.882,0,0,1-1.278,0l-2.321-2.295A.93.93,0,0,1,262.979,353.109Z" transform="translate(109.911 -160.368)" fill="#fff"/>
    <path id="Path_10176" data-name="Path 10176" d="M196.477,342.323l14.054-14.054a.961.961,0,0,1,1.382,0l2.555,2.529a.984.984,0,0,1,.026,1.382l-3.494,3.6-.026.026-6.6,6.545a.96.96,0,0,0,0,1.382l6.206,6.206a.96.96,0,0,0,1.382,0l21.72-21.642a.96.96,0,0,1,1.382,0L249.2,342.427a.96.96,0,0,1,0,1.382l-14.132,14.028a.96.96,0,0,1-1.382,0L225.6,349.65a.96.96,0,0,1,.026-1.382l2.477-2.4a.984.984,0,0,1,1.382.026l4.146,4.224a.991.991,0,0,0,1.408,0l6.258-6.388a1.009,1.009,0,0,0,0-1.382l-6.1-6.154a.96.96,0,0,0-1.382,0l-21.9,21.642a.96.96,0,0,1-1.382,0L196.5,343.7A.939.939,0,0,1,196.477,342.323Z" transform="translate(159.1 -143.975)" fill="#fff"/>
    <g id="Group_1097" data-name="Group 1097" transform="translate(403.085 184.997)">
      <g id="Group_1095" data-name="Group 1095">
        <g id="Group_1094" data-name="Group 1094">
          <path id="Path_10185" data-name="Path 10185" d="M381.9,336.6a2.4,2.4,0,1,1,2.4-2.4A2.393,2.393,0,0,1,381.9,336.6Zm0-4.615a2.216,2.216,0,1,0,2.216,2.216A2.214,2.214,0,0,0,381.9,331.983Z" transform="translate(-379.5 -331.8)" fill="#fff"/>
        </g>
      </g>
      <g id="Group_1096" data-name="Group 1096" transform="translate(1.617 1.356)">
        <path id="Path_10186" data-name="Path 10186" d="M386.534,339.034a.833.833,0,0,1-.365-.078.52.52,0,0,1-.261-.209,1.171,1.171,0,0,1-.156-.313,1.695,1.695,0,0,1,0-.834.879.879,0,0,1,.156-.313,1.02,1.02,0,0,1,.261-.209.833.833,0,0,1,.365-.078.9.9,0,0,1,.469.13.609.609,0,0,1,.261.313l-.261.13a.416.416,0,0,0-.182-.235.526.526,0,0,0-.287-.078.762.762,0,0,0-.235.052.267.267,0,0,0-.156.13.42.42,0,0,0-.1.183.721.721,0,0,0-.026.235v.339a.722.722,0,0,0,.13.417.492.492,0,0,0,.391.156.532.532,0,0,0,.522-.339l.209.156a.721.721,0,0,1-.287.339A.746.746,0,0,1,386.534,339.034Z" transform="translate(-385.7 -337)" fill="#fff"/>
      </g>
    </g>
  </g>
</svg>
